<svg width="250" height="250" viewBox="0 0 250 250" fill="none" xmlns="http://www.w3.org/2000/svg">
<g clip-path="url(#clip0_140_2)">
<path d="M72.9577 190.656C72.9667 189.75 72.6933 189.05 72.5249 188.62C72.5123 188.589 72.4978 188.55 72.4851 188.517L72.4742 187.963L72.572 187.087C72.5774 187.045 72.5793 187.001 72.5829 186.959L72.6444 185.717L72.8201 184.274C72.8291 184.197 72.8346 184.12 72.8346 184.043L72.8436 183.169C73.108 182.317 73.1514 181.283 72.9613 180.387L73.1967 179.262L73.6204 177.601C73.6856 177.343 73.7019 177.074 73.6675 176.809L73.5824 176.169C73.6114 176.037 73.6349 175.918 73.6458 175.847L73.9083 174.221C73.9137 174.188 73.9174 174.157 73.921 174.124L74.0622 172.887L74.2306 171.358C74.2342 171.333 74.2361 171.307 74.2379 171.281C74.2487 171.131 74.2542 170.972 74.2596 170.808C74.2632 170.667 74.2705 170.46 74.2849 170.372C74.5312 169.641 74.571 169.03 74.6054 168.49C74.6127 168.391 74.6181 168.291 74.6272 168.185L74.6887 167.407C75.1106 166.321 75.4818 164.846 74.9078 163.315C75.0002 162.951 75.0436 162.501 74.9458 161.942L74.7793 160.987L74.6072 159.992C74.9947 159.463 75.5724 158.448 75.1378 157.014L75.011 156.595C75.2301 156.149 75.2808 155.757 75.308 155.534C75.308 155.53 75.308 155.529 75.308 155.525C75.882 154.68 75.9979 153.645 75.6267 152.682L75.3877 152.062C75.3895 152.053 75.4257 151.889 75.4257 151.889C75.6013 151.051 75.4492 150.295 74.9712 149.635L75.0762 149.505C75.413 149.094 75.5796 148.565 75.5398 148.033L75.3931 146.008L75.5597 145.715C75.9363 145.059 75.9236 144.256 75.5488 143.617L75.7063 142.951C75.786 142.624 75.9164 142.09 75.824 141.437C75.9363 141.159 76.0305 140.822 76.0794 140.398L76.2061 139.31C76.2115 139.262 76.2152 139.214 76.217 139.167L76.2713 138.027L76.4506 136.986L76.6606 136.277C76.8181 135.743 76.7548 135.185 76.5103 134.716C76.9286 134.217 77.0915 133.542 76.9394 132.896C76.7656 132.159 76.2061 131.576 75.4818 131.376L73.6222 130.864L73.07 130.694C73.0356 130.683 73.0012 130.674 72.9668 130.665C72.8038 130.449 72.5974 130.264 72.3547 130.123L71.4747 129.615C71.4059 129.558 71.2647 129.406 71.1687 129.304C70.7975 128.905 70.2869 128.36 69.5355 128.097L68.1774 127.619L67.0765 126.986C66.8954 126.882 66.7144 126.794 66.555 126.716C66.4645 126.672 66.3377 126.61 66.2545 126.564L65.704 125.83C65.6786 125.79 65.6515 125.743 65.6243 125.693C65.3835 125.276 65.054 124.704 64.422 124.345C64.3767 124.32 64.3297 124.296 64.2826 124.274L63.3718 123.844L62.05 122.92C61.9594 122.856 61.8852 122.794 61.782 122.708C61.5502 122.512 61.237 122.249 60.7336 121.989C60.6413 121.905 60.4783 121.724 60.3751 121.609C60.2918 121.515 60.2103 121.426 60.1343 121.345C59.9405 121.139 59.926 121.097 59.8808 120.956C59.8029 120.72 59.6725 120.323 59.3484 119.904L58.4666 118.759C58.1044 118.291 57.7423 117.908 57.2933 117.532L57.1339 117.272C57.0868 116.522 56.9293 115.651 56.4458 114.788C56.5002 114.442 56.4658 114.087 56.3481 113.758L56.0258 112.862L55.6944 111.92C55.5839 111.607 55.6039 111.49 55.6564 111.175C55.7252 110.762 55.8393 110.069 55.5079 109.297C55.5043 109.289 55.5007 109.28 55.4988 109.273C55.8447 108.185 55.4427 107.349 55.1838 106.928C55.4427 106.065 55.4445 105.064 55.421 104.528C55.4011 104.067 55.2309 103.628 54.9339 103.277L54.8633 103.193C55.0588 102.293 54.9357 101.561 54.8524 101.06C54.8416 100.998 54.8289 100.923 54.8198 100.861L55.0896 100.006C55.1041 99.9607 55.1258 99.9058 55.1494 99.8436C55.3721 99.2473 55.7071 98.3455 55.4101 97.4108C55.3685 97.2773 55.3141 97.1291 55.258 96.9773C55.2327 96.9078 55.1983 96.8164 55.1729 96.7395L55.2526 96.0207L55.4481 94.8738C55.7487 94.5464 55.9407 94.1257 55.9859 93.6647L56.0928 92.5636C56.1054 92.43 56.1145 92.2837 56.1217 92.1356C56.1253 92.077 56.129 91.9984 56.1326 91.9417L56.4639 90.9612C56.4839 90.9027 56.5002 90.8442 56.5146 90.7838L56.8243 89.507C56.8424 89.4339 56.8551 89.3589 56.8659 89.2839L56.9818 88.3913C56.9945 88.3272 57.0325 88.1955 57.0542 88.1315L57.6572 86.8548C57.7966 86.5584 57.8654 86.2347 57.8564 85.9073L58.099 85.5469C58.4304 85.0531 58.5282 84.4513 58.3942 83.8934L58.4358 83.8659C58.9066 83.5605 59.2325 83.0739 59.3412 82.5197C59.3864 82.2837 59.4915 81.7441 59.5947 81.5447C59.6091 81.5301 59.6236 81.5136 59.6381 81.499C60.6177 80.4564 60.6069 79.604 60.4892 79.1101C60.8676 78.9016 61.179 78.5778 61.3673 78.1773L61.8073 77.2389C62.0482 76.7286 62.1134 76.1579 62.1695 75.6567C62.1695 75.6494 62.1695 75.6439 62.1713 75.6366C62.3777 75.3805 62.6185 74.9835 62.7073 74.422C62.9065 74.2427 63.0694 74.0251 63.1871 73.7781L63.3139 73.5111L63.3609 73.4818C63.6688 73.2788 63.9168 72.9971 64.0798 72.666L64.3985 72.0185L64.7226 71.3527C65.9412 70.8259 66.4917 70.0302 66.6981 69.2272L66.7977 69.1522C67.1996 68.854 67.4785 68.4187 67.5853 67.9267C67.6179 67.8279 67.7266 67.6541 67.8316 67.5206L68.5758 67.3962C69.1987 67.2919 70.3213 66.8017 70.8681 66.0335L71.1307 65.6658C71.5743 65.4884 72.0342 65.3347 72.3692 65.3256L73.7399 65.2945C73.8812 65.2908 74.0224 65.2726 74.1618 65.2415L77.0499 64.561C77.5334 64.4476 77.9607 64.1586 78.2504 63.7507L78.5437 63.3391C79.6157 62.8489 79.9869 61.8868 80.148 61.4679C80.1571 61.446 80.1661 61.4185 80.177 61.3947C80.2911 61.3508 80.4685 61.3325 80.9103 61.3069C81.0516 61.2996 81.1964 61.2905 81.3467 61.2795L83.0832 61.146C83.1031 61.146 83.123 61.1423 83.1411 61.1405L84.4303 61.0033C84.5462 60.9905 84.6621 60.9685 84.7744 60.9356L85.7449 60.6576C85.7594 60.6576 85.7829 60.6558 85.8155 60.6558C85.9532 60.6558 86.1397 60.6741 86.3407 60.707L87.389 60.8789C87.485 60.8936 87.581 60.9027 87.677 60.9045C87.677 60.9045 89.2722 60.9356 89.2867 60.9356C89.3808 60.9356 89.4768 60.9283 89.5709 60.9155L90.3496 60.8058L92.6292 61.1643L94.8818 61.5155C96.305 61.7386 97.6684 62.1776 98.9305 62.6203L100.272 63.0904L102.525 64.0379L103.854 64.8171C103.874 64.8281 103.894 64.839 103.914 64.85L105.612 65.7701C105.721 65.8725 105.925 66.1195 106.063 66.2877C106.434 66.7377 106.818 67.2023 107.327 67.5444L108.203 68.1352C108.602 68.4041 109.031 69.1193 109.214 69.4247C109.634 70.1253 110.09 70.5497 110.439 70.8204L110.467 71.2795C110.501 71.8648 110.78 72.4026 111.223 72.7648C111.232 72.7995 111.243 72.8361 111.251 72.8672C111.414 73.4708 111.705 74.561 112.887 75.4262C112.897 75.4372 112.904 75.4482 112.913 75.4573C113.181 75.7865 113.547 76.2383 114.104 76.5072C114.142 76.5255 114.184 76.5438 114.226 76.5639L114.229 77.5535C114.229 77.976 114.233 78.7772 114.818 79.5418C114.783 79.9076 114.796 80.407 115.026 80.9484L115.576 82.2416C115.81 82.7886 115.882 83.0556 115.89 83.3812L115.928 85.1171C115.944 85.8798 116.321 86.5383 116.735 87.0395L117.092 88.1553C116.987 88.4864 116.913 88.9345 116.983 89.4942C117.007 89.6827 117.001 89.7723 116.992 89.8363L116.793 91.2905C116.668 92.2051 116.972 93.5605 117.472 94.3104L117.51 94.3671C117.392 94.7915 117.298 95.2689 117.313 95.7792C117.336 96.5164 117.583 97.1932 117.82 97.7419C117.72 98.1077 117.662 98.4736 117.688 98.8449L117.749 99.6973L117.304 100.601C116.971 101.276 117.029 102.081 117.452 102.703C117.467 102.725 117.481 102.746 117.494 102.768L117.297 103.762C117.22 104.14 117.253 104.528 117.382 104.881C117.215 105.183 117.03 105.58 116.978 106.074L116.842 107.343C116.782 107.914 116.748 108.201 116.623 108.512C116.397 109.077 116.344 109.622 116.362 110.092L116.201 110.381C116.134 110.5 116.08 110.626 116.038 110.756L115.517 112.373C115.403 112.725 115.384 113.101 115.464 113.462C115.482 113.546 115.489 113.635 115.489 113.721C114.245 114.239 113.369 115.28 113.052 116.648C113.005 116.705 112.945 116.774 112.9 116.826C112.663 117.1 112.368 117.442 112.147 117.896L111.643 118.935C111.607 119.008 111.576 119.085 111.549 119.161L111.115 120.414C110.827 120.597 110.568 120.789 110.316 121.005L109.476 121.729C109.396 121.799 109.32 121.874 109.252 121.956L108.795 122.494C108.766 122.518 108.736 122.543 108.703 122.567C108.522 122.712 108.29 122.896 108.069 123.156C107.685 123.25 107.073 123.409 106.275 123.838C105.732 124.131 105.225 124.42 104.857 124.843C104.857 124.843 103.593 126.291 103.584 126.302L103.162 126.805C102.159 127.116 101.467 127.577 100.978 127.903C100.886 127.963 100.767 128.044 100.696 128.086L99.5824 128.386C98.9631 128.552 98.3076 128.806 97.6757 129.511C97.6214 129.538 97.5562 129.571 97.5055 129.597C97.3878 129.655 97.2719 129.714 97.1669 129.772C96.7794 129.984 96.4335 130.237 96.1257 130.462C95.8831 130.639 95.5191 130.905 95.3725 130.95L92.9642 131.673L91.3744 131.916C90.6465 132.028 90.0309 132.523 89.7665 133.218C89.7665 133.218 89.1871 134.731 89.1817 134.746L88.7869 135.843L88.4501 136.465C88.1658 136.99 88.1224 137.608 88.3198 138.163C88.0101 139.319 87.686 140.994 88.3071 142.39C88.231 142.602 88.1677 142.842 88.1242 143.114L87.9142 144.449C87.8924 144.592 87.8834 144.735 87.8906 144.877C87.5919 145.307 87.4633 145.841 87.5393 146.37L87.6932 147.425C87.7584 147.87 87.9015 148.238 88.0789 148.543C87.9069 148.909 87.8453 149.317 87.8997 149.717C87.7711 150.027 87.6281 150.473 87.5846 151.08C87.5303 151.821 87.4488 152.939 87.8435 154.04L88.0644 154.654C87.6389 155.216 87.3854 155.98 87.3583 156.824C87.3456 157.233 87.3854 157.627 87.4741 157.996C86.9074 158.616 86.5362 159.604 87.246 161.097C87.0197 161.781 87.0016 162.534 87.1935 163.348L87.3963 164.206C87.1102 164.775 87.0414 165.412 87.1935 166.108L87.4343 167.215C87.2514 167.526 87.1102 167.832 87.0341 168.17L86.7752 169.306C86.7535 169.399 86.739 169.492 86.7299 169.588L86.6285 170.744L86.5815 170.822C86.3714 171.17 86.2664 171.57 86.2809 171.978L86.3352 173.542L86.1759 175.048C85.3484 175.836 84.9029 177.016 85.4878 178.137L85.8572 178.845C85.7051 179.116 85.6164 179.419 85.5964 179.732C85.5675 180.195 85.62 180.617 85.6671 180.992C85.6834 181.126 85.7069 181.311 85.7141 181.433L85.0297 182.805C84.8939 183.076 84.8197 183.374 84.8106 183.676L84.7762 184.841L84.6024 185.969C84.5824 186.024 84.548 186.119 84.5028 186.224C84.003 187.389 84.1714 188.461 84.2927 189.244C84.3217 189.423 84.3471 189.593 84.3633 189.747L84.4122 190.211L84.1787 190.186C84.1388 190.182 84.0972 190.178 84.0573 190.177L82.377 190.098C82.3607 190.098 82.3426 190.098 82.3263 190.098C82.3263 190.098 80.6206 190.061 80.6061 190.061C80.5935 190.061 79.2879 190.085 79.2879 190.085L76.695 190.153C75.4438 190.186 74.6073 190.467 74.1473 190.625L72.9523 190.645L72.9577 190.656ZM77.0517 123.614C78.1037 124.852 79.3549 125.177 80.445 125.331C80.8089 125.382 81.3087 125.624 81.8356 125.88L82.0149 125.966C82.2937 126.101 82.5961 126.167 82.8985 126.167C83.2009 126.167 83.5033 126.099 83.7839 125.964L84.9102 125.421L85.9966 124.956L89.4714 123.868C89.5547 123.842 89.6524 123.817 89.7556 123.791C90.451 123.612 91.4052 123.365 92.0679 122.576C92.1892 122.432 92.3558 122.234 92.412 122.19C92.412 122.19 92.4264 122.183 92.4554 122.174C92.9081 122.006 93.7519 121.645 94.3204 121.119C94.5432 120.912 94.7858 120.756 95.0936 120.559C95.4159 120.352 95.7817 120.118 96.18 119.789L96.926 119.174L97.5453 118.852C97.8405 118.699 98.0958 118.474 98.2877 118.199L99.5117 116.436C99.6059 116.299 99.6638 116.229 99.9517 116.107C100.31 115.955 100.62 115.702 100.843 115.379L101.531 114.378C101.877 113.875 102.099 113.414 102.271 113.03L102.943 111.525C103.155 111.051 103.338 110.778 103.62 110.517C104.263 109.922 104.556 109.161 104.493 108.249C104.716 107.886 104.828 107.455 104.795 107.008L104.756 106.454L104.745 105.761C104.759 105.726 104.774 105.69 104.786 105.66C104.862 105.477 104.947 105.269 105.009 105.044L105.083 104.773C105.63 103.976 105.755 103.089 105.454 102.125L105.851 100.42C106.094 99.3772 106.014 98.7919 105.853 97.9504L105.643 96.8511L105.478 95.6055C105.465 95.5103 105.447 95.4171 105.422 95.3256L105.313 94.9323C105.48 94.5354 105.8 93.7269 105.556 92.7794C105.67 92.4465 105.739 92.0404 105.684 91.5649C105.684 91.5649 105.527 90.182 105.525 90.1765L105.431 89.4101C105.608 88.9583 105.625 88.4571 105.474 87.9962L105.141 86.9682C105.072 86.7542 104.984 86.5511 104.897 86.3536C104.862 86.2749 104.812 86.1597 104.775 86.0701L104.803 85.3238C104.826 84.7055 104.826 83.9793 104.538 83.1818L104.232 82.3368L104.082 81.7276C103.93 81.1131 103.727 80.2991 103.216 79.4869C103.216 79.4814 103.216 79.4778 103.216 79.4723C103.222 79.4028 103.229 79.3296 103.235 79.2565C103.32 78.1206 102.641 76.7871 102.297 76.3188L101.545 75.2927C101.513 75.2469 101.446 75.128 101.38 74.85C101.107 73.6848 100.31 73.158 99.9264 72.9056C99.7109 72.7648 99.5824 72.6788 99.4085 71.8923C98.7567 68.9309 96.1474 68.8925 94.7441 68.8723L93.0602 68.8486L91.9647 68.7919C91.8796 68.7882 91.7619 68.7827 91.6352 68.7827C91.1463 68.7827 90.4274 68.8394 89.8136 69.3369C89.7901 69.3571 89.7701 69.3699 89.7575 69.379C89.7031 69.379 89.6398 69.3735 89.5746 69.368C89.4478 69.3589 89.2903 69.3461 89.1128 69.3461C88.6891 69.3461 88.3089 69.4174 87.9504 69.5656L86.9183 69.9918C85.9314 70.3997 85.4009 71.2319 85.0496 71.7807C85.0333 71.8081 85.0134 71.8374 84.9935 71.8685L84.1298 71.8923C83.5431 71.9087 82.9908 72.1776 82.6124 72.6313C82.6033 72.6422 82.5943 72.6532 82.5852 72.6623L81.3358 72.7483C80.3092 72.8178 78.9276 73.4324 78.8697 73.458C78.5637 73.5952 78.2957 73.8056 78.0892 74.0708L77.298 75.0841C77.0934 75.3457 76.9557 75.653 76.8942 75.9786L76.7638 76.0499C76.1826 76.37 75.5416 77.0011 75.5072 78.2376L74.7738 78.6766C74.218 79.0095 73.8504 79.5875 73.7798 80.2351L73.7743 80.2771C73.5082 80.5497 73.2945 80.8661 73.1424 81.2191C72.8871 81.8154 72.8328 82.4666 72.9776 83.0995L72.8527 83.1965C72.7585 83.2696 72.6716 83.3501 72.5919 83.4397C72.2769 83.7891 72.0451 84.2501 71.7988 84.7732L71.1959 86.0353C71.0347 86.3737 70.9695 86.7432 70.9985 87.1035C70.9714 87.1456 70.9442 87.1913 70.917 87.2371C70.4118 88.1169 70.2797 89.0662 70.1746 89.829C70.1674 89.8802 70.1602 89.9314 70.1529 89.9826C70.095 90.0448 70.0243 90.1162 69.9773 90.1655C69.1842 90.9722 69.2204 92.0368 69.2421 92.6733C69.2439 92.73 69.2457 92.7849 69.2457 92.8306V92.9459L69.2095 92.9879C69.0864 93.1343 68.985 93.2971 68.9071 93.4727L68.2734 94.8884C68.0507 95.386 67.9275 96.0006 67.8008 96.8328C67.7247 97.3358 67.8334 97.8498 68.1086 98.2779C68.1955 98.4132 68.2661 98.5321 68.3241 98.6382C67.7392 99.6881 67.6795 100.692 67.6813 101.708V102.717L67.4839 104.519C67.4531 104.795 67.4622 105.091 67.5057 105.386C67.2884 105.865 67.1978 106.555 67.6578 107.433C67.7809 107.669 67.9674 108.024 68.0543 108.735L68.2408 110.25L68.3168 112.152C68.3241 112.333 68.3458 112.882 68.8583 113.981L68.9307 114.137C68.9434 114.89 69.0936 115.479 69.2765 115.924C69.2077 116.322 69.2385 116.741 69.3671 117.146C69.7908 118.47 71.2484 119.443 72.3964 120.028L73.4158 120.548C73.4303 120.555 73.443 120.562 73.4538 120.568C73.4611 120.581 73.4665 120.594 73.4738 120.606C73.6621 120.983 74.1002 121.865 75.308 122.278C75.3605 122.317 75.4746 122.425 75.5597 122.503C75.6919 122.628 75.8566 122.783 76.0522 122.94C76.2767 123.121 76.5103 123.27 76.7149 123.399C76.8199 123.465 76.972 123.562 77.0427 123.615L77.0517 123.614Z" fill="black"/>
<path d="M144.892 187.656C144.865 187.227 144.775 186.804 144.624 186.394L144.613 186.154L144.902 183.957C144.903 183.94 145.069 182.393 145.069 182.393C145.115 181.963 145.036 181.595 144.97 181.318C145.071 180.571 144.973 179.802 144.685 179.13C144.716 179.028 144.767 178.887 144.806 178.782C144.973 178.332 145.201 177.715 145.111 176.995L144.984 175.971L145.141 175.656C145.394 175.146 145.426 174.552 145.227 174.016C145.22 173.997 145.218 173.99 145.218 173.99C145.209 173.913 145.284 173.596 145.334 173.386C145.446 172.917 145.597 172.274 145.635 171.456C145.661 170.908 145.584 170.478 145.501 170.165C145.762 169.561 145.81 168.896 145.635 168.248C145.584 168.056 145.512 167.869 145.426 167.693L145.442 167.634C145.547 167.281 145.556 166.907 145.468 166.55C145.382 166.197 145.358 165.963 145.356 165.822L145.895 165.219C146.652 164.371 146.498 163.359 146.413 162.815C146.41 162.797 146.408 162.776 146.404 162.758L146.531 161.376C146.542 161.251 146.542 161.127 146.531 161.006C146.985 159.836 146.467 158.902 146.169 158.495L146.437 157.497C146.459 157.413 146.478 157.327 146.49 157.239L146.676 155.888C146.77 155.203 146.684 154.747 146.588 154.339C146.548 154.168 146.527 154.082 146.527 153.839C147.059 153.02 147.325 151.933 146.939 150.88L146.88 150.442C147.125 150.01 147.52 149.1 146.963 147.904C146.98 147.847 147.035 147.726 147.165 147.573C147.414 147.28 147.576 146.923 147.634 146.544L147.741 145.837L147.855 145.566C148.124 144.93 148.056 144.203 147.679 143.627C147.605 143.513 147.561 143.293 147.622 143.09L147.973 141.911C148.017 141.764 148.045 141.612 148.054 141.459L148.136 140.212C148.166 139.778 148.057 139.345 147.826 138.976L147.599 138.615C147.938 138.126 148.285 137.412 148.287 136.432V136.348C148.879 135.738 149.05 134.81 148.67 134.013C148.582 133.828 148.534 133.687 148.512 133.596C149.056 132.591 149.148 131.675 148.786 130.699L148.804 130.651C148.835 130.573 148.859 130.492 148.881 130.411L149.023 129.847C149.207 129.501 149.549 128.763 149.247 127.894L149.016 127.227C149.334 126.487 149.194 125.625 148.646 125.019C148.078 124.391 147.329 123.922 146.479 123.658L145.383 123.32C145.348 123.309 145.315 123.299 145.28 123.29L144.179 123.01C144.118 122.97 144.017 122.895 143.938 122.838C143.37 122.417 142.421 121.714 140.887 121.714C140.81 121.714 140.732 121.714 140.653 121.719C140.594 121.723 140.53 121.723 140.466 121.723C140.205 121.723 140.028 121.697 139.936 121.675L139.465 121.23L139.368 120.994C139.118 120.388 138.594 119.936 137.955 119.775L137.593 119.683L136.955 119.101C136.602 118.778 136.206 118.593 135.857 118.431C135.791 118.399 135.699 118.357 135.64 118.326L135.042 117.812L134.292 117.019C134.213 116.936 134.115 116.804 134.012 116.665C133.794 116.369 133.52 116.001 133.119 115.656C133.119 115.656 132.153 114.829 132.131 114.809C131.76 113.948 131.147 113.269 130.373 112.844L129.829 111.952C129.795 111.899 129.764 111.849 129.735 111.802C129.744 110.917 129.369 110.262 129.109 109.815C129.087 109.764 129.043 109.656 129.014 109.581C128.854 109.174 128.672 108.715 128.332 108.317L127.611 107.471C127.493 107.332 127.357 107.209 127.206 107.105C127.199 107.017 127.186 106.931 127.166 106.845C127.329 106.51 127.452 106.144 127.491 105.765C127.557 105.113 127.311 104.468 126.825 104.027L126.822 104.023L127.066 103.637C127.366 103.163 127.462 102.586 127.327 102.04C127.241 101.689 127.066 101.368 126.82 101.108C126.857 101.029 126.91 100.923 126.954 100.839C127.252 100.26 127.886 99.0244 127.292 97.6364C127.504 97.2097 127.798 96.4773 127.476 95.6167L127.285 95.1094L127.338 94.7853C127.377 94.5509 127.375 94.3111 127.331 94.0767L127.031 92.4397C126.998 92.2566 126.952 92.013 126.947 91.9196C126.96 91.8739 127.006 91.7292 127.177 91.363C127.471 90.7312 127.552 90.0647 127.618 89.53C127.642 89.3323 127.675 89.0631 127.704 88.9624L128.026 87.8747C128.203 87.2796 128.102 86.6387 127.754 86.1278C127.73 86.0106 127.693 85.681 127.782 84.9028C127.82 84.5604 127.892 84.2839 127.96 84.0147C128.091 83.502 128.304 82.6743 127.978 81.8119C128.03 81.4585 128.103 81.0685 128.203 80.7755C128.23 80.6967 128.275 80.5869 128.322 80.4715C128.565 79.8764 128.973 78.8821 128.652 77.7413C128.641 77.701 128.624 77.6406 128.607 77.5802L128.736 77.1535C129.569 76.2581 129.746 74.9947 129.258 73.3851C129.244 73.3357 129.225 73.2771 129.212 73.2295C129.22 72.9585 129.257 72.6801 129.293 72.389C129.354 71.9147 129.422 71.391 129.378 70.8215C129.797 70.4956 130.516 69.7009 130.079 68.2726C130.042 68.1481 130.035 68.0621 130.215 67.4468C130.285 67.2088 130.329 66.9634 130.373 66.7272C130.377 66.7052 130.382 66.6814 130.386 66.6558C130.595 66.6667 130.805 66.6887 130.958 66.707C131.04 66.7162 131.121 66.7217 131.204 66.7217C131.337 66.7217 131.467 66.7089 131.596 66.6851L134.136 66.7253L134.514 66.8206C134.682 66.8627 134.853 66.8828 135.024 66.8828C135.029 66.8828 135.835 66.8755 135.835 66.8755C135.872 66.8883 135.91 66.903 135.942 66.9139L136.026 66.9561C136.295 67.0861 136.585 67.1575 136.883 67.1666L138.148 67.2014L139.973 67.3205C140.238 67.4413 140.532 67.5072 140.835 67.5072C140.885 67.5072 140.933 67.5072 140.982 67.5017L141.985 67.4779C141.965 67.7013 141.93 67.943 141.873 68.1829C141.799 68.4905 141.797 68.811 141.867 69.1186L141.915 69.3274C141.435 69.9371 141.339 70.6659 141.291 71.2097C141.008 71.9147 140.743 72.8742 140.944 73.9528L140.97 74.0937C140.626 74.4966 140.447 75.0148 140.475 75.544L140.556 77.1279C140.528 77.2378 140.46 77.43 140.418 77.5546C140.194 78.2046 139.857 79.1806 140.438 80.1437L140.383 80.5228C140.339 80.8249 140.298 80.8927 140.21 81.0428C139.989 81.4164 139.531 82.1928 139.837 83.4306C139.881 83.6082 139.85 83.9634 139.817 84.3388C139.765 84.9193 139.702 85.6408 139.826 86.4757C139.872 86.7889 139.989 87.0855 140.168 87.3455C140.052 87.7886 140.041 88.2739 140.135 88.8067C140.208 89.2279 140.171 89.5172 139.813 90.3009C139.548 90.8796 139.568 91.5351 139.844 92.0863C139.675 92.5111 139.614 92.9158 139.666 93.3003C139.544 93.6738 139.485 94.0712 139.495 94.4869C139.257 95.2468 139.268 96.1477 139.78 96.8746C139.782 96.9167 139.783 96.9662 139.785 97.0083C139.794 97.2958 139.807 97.7005 139.938 98.1766C139.842 98.4238 139.756 98.7076 139.734 99.0353L139.552 101.634C139.548 101.681 139.546 101.727 139.546 101.775V102.952C139.118 104.093 139.278 104.73 139.333 104.957L139.682 106.36C139.804 106.847 140.098 107.272 140.508 107.557L140.703 108.456C140.843 109.097 141.277 109.634 141.874 109.907C141.891 109.929 141.913 109.958 141.931 109.982C142.147 110.273 142.619 110.91 143.546 111.166C143.55 111.172 143.554 111.176 143.557 111.181C143.614 111.249 143.669 111.317 143.728 111.383L144.164 111.877L144.767 112.717C144.802 112.767 144.841 112.816 144.881 112.862L145.637 113.741C145.92 114.071 146.299 114.303 146.722 114.408L147.857 114.686C148.022 114.726 148.19 114.746 148.357 114.746C149.043 114.746 149.7 114.408 150.093 113.82L150.731 112.866C151.263 112.071 151.187 111.234 151.132 110.623C151.114 110.418 151.075 109.993 151.125 109.892C151.125 109.892 151.134 109.877 151.164 109.852C151.537 109.524 152.164 108.832 152.151 107.874C152.144 107.347 151.943 106.847 151.592 106.464C151.873 106.052 152.004 105.545 151.938 105.034C151.877 104.556 151.888 104.309 151.896 104.221C151.947 104.093 152.021 103.875 152.044 103.598L152.144 102.417C152.151 102.335 152.162 102.196 152.177 102.08C152.8 101.222 152.911 100.363 152.506 99.5206L152.537 98.9969L152.651 97.7481C152.653 97.7188 152.657 97.6895 152.657 97.6602L152.668 97.4221C153.411 96.5579 153.19 95.461 153.115 95.082L152.938 94.2067C152.925 94.117 152.962 93.8313 152.99 93.6207C153.008 93.4852 153.025 93.3497 153.039 93.2142L153.118 92.469C153.404 92.0222 153.687 91.3978 153.643 90.7129L153.626 90.4547C154.119 89.6893 154.264 88.7427 153.999 87.8399C154.11 87.4993 154.196 87.0306 154.097 86.4776C154.268 86.0601 154.536 85.2013 154.04 84.1594L154.33 83.4452C154.586 82.8172 154.516 82.114 154.161 81.5555L154.207 81.5079C154.634 81.052 154.834 80.4294 154.75 79.8123L154.614 78.8162L154.56 77.9006L154.604 77.1975C154.634 76.7305 154.503 76.2654 154.235 75.8809L154.139 75.7436L154.917 72.9969C155.016 72.6472 155.02 72.2809 154.934 71.9349C155.881 71.2519 156.501 69.8657 156.015 68.6279C156.021 68.5839 156.024 68.54 156.028 68.518C156.057 68.2708 156.05 68.0346 156.019 67.8112L157.541 67.8405C157.766 67.9211 158.003 67.9613 158.251 67.9613C158.384 67.9613 158.512 67.9485 158.638 67.9266C158.638 67.9266 159.307 67.9632 159.314 67.9632L159.715 67.9797C159.91 68.0419 160.112 68.073 160.318 68.0767L161.959 68.0987C162.251 68.247 162.577 68.3276 162.91 68.3276C163.053 68.3276 163.197 68.3129 163.34 68.2836L164.079 68.128H164.585C164.8 68.1261 165.008 68.0932 165.207 68.0309C165.207 68.0309 166.661 68.1353 166.672 68.1353L167.2 68.1646C167.274 68.1884 167.353 68.2104 167.436 68.2269L167.627 68.4649L167.399 69.1259C167.204 69.6917 167.217 70.2722 167.228 70.7868C167.228 70.8197 167.228 70.8582 167.23 70.8985C167.151 71.0047 167.075 71.1072 167.013 71.2024C166.496 71.9678 166.535 72.8376 166.827 73.592C166.689 74.1761 166.715 74.8115 166.904 75.4634C166.709 76.1739 166.56 76.9704 166.588 77.8219L166.592 77.9281C166.124 78.4243 165.906 79.0121 165.94 79.6805C165.95 79.8453 165.972 79.9991 166.005 80.1437C165.299 80.9183 165.277 82.1104 165.985 82.9106L166.08 83.0186C165.825 83.3757 165.517 83.9158 165.538 84.6336L165.593 86.5197C165.573 86.5764 165.549 86.6424 165.53 86.6936C165.42 86.9976 165.293 87.34 165.258 87.7319C165.218 88.1842 165.326 88.6383 165.569 89.021C165.49 89.2261 165.431 89.455 165.405 89.7077C164.769 90.5555 164.712 91.7329 164.813 92.2859C164.859 92.5386 164.953 92.7784 165.085 92.9927C165.115 93.3076 165.207 93.6482 165.385 94.0089C165.234 94.3733 165.188 94.778 165.262 95.1754C165.001 95.5965 164.666 96.2887 164.752 97.261C164.775 97.5137 164.738 97.6016 164.626 97.8634C164.473 98.2205 164.105 99.083 164.466 100.052C164.307 100.522 164.101 101.282 164.285 102.271C164.287 102.286 164.291 102.3 164.295 102.315C164.164 102.593 164.096 102.899 164.1 103.216L164.112 104.346C164.118 104.825 164.02 105.025 163.914 105.17C163.64 105.543 163.498 105.999 163.513 106.462L163.546 107.477C163.561 107.92 163.684 108.361 163.853 108.757C163.818 109.123 163.849 109.493 163.951 109.841C163.787 110.106 163.642 110.401 163.509 110.751L163.086 111.873C162.851 112.498 162.851 113.794 163.024 114.798C162.323 115.578 162.294 116.709 162.59 117.517C162.921 118.421 163.693 119.026 164.607 119.093C164.607 119.093 166.018 119.198 166.027 119.198L167.785 119.302C168.1 119.32 168.416 119.33 168.727 119.33C169.959 119.33 171.16 119.185 172.298 118.901C172.638 118.817 172.951 118.647 173.208 118.41L174.135 117.553C174.257 117.442 174.363 117.317 174.455 117.18L174.906 116.506L175.491 115.915C175.531 115.874 175.57 115.832 175.605 115.788L176.333 114.918C176.927 114.208 177.014 113.342 177.076 112.708C177.083 112.639 177.091 112.554 177.1 112.474C177.887 111.804 178.36 110.982 178.477 110.071L178.676 108.535C178.683 108.477 178.689 108.416 178.691 108.356L178.761 106.662C178.786 106.618 178.814 106.57 178.836 106.528C179.075 106.111 179.436 105.479 179.638 104.629L180.202 102.242C180.396 101.423 180.193 100.782 179.982 100.367L180.088 100.05L180.318 99.5792C180.546 99.1104 180.589 98.5721 180.438 98.074C180.438 98.0649 180.442 98.0502 180.445 98.0447L180.903 97.1621C181.311 96.3729 181.17 95.4189 180.565 94.7835L180.545 94.5381L180.521 93.6665L180.813 92.6887C180.833 92.6191 180.852 92.5477 180.865 92.4763L181.045 91.5168L181.39 90.2259C181.492 89.8432 181.482 89.4403 181.363 89.0631L181.142 88.3728C181.576 87.8674 181.856 87.0727 181.453 85.8513C181.438 85.8092 181.422 85.7543 181.407 85.7067L181.891 84.1008C182.08 83.469 181.999 82.8373 181.768 82.2825C182.082 82.006 182.308 81.6379 182.409 81.2259L182.68 80.1419L182.74 80.0778C183.318 79.4772 183.48 78.591 183.152 77.8274L182.586 76.5053C182.586 76.5053 182.715 75.7436 182.716 75.7326L182.856 74.8134L183.246 73.6268C183.399 73.1635 183.402 72.6929 183.373 72.1802C183.544 71.4423 183.537 70.7575 183.347 70.1056C183.351 70.0909 183.756 68.692 183.756 68.692C183.792 68.5638 183.853 68.3514 183.893 68.0877L184.881 68.0987H185.001C185.085 68.0987 185.39 68.0968 185.459 68.0968C185.696 68.0968 185.773 68.1078 185.795 68.1133L186.878 68.4155C187.138 68.4869 187.423 68.5235 187.669 68.5418C187.84 68.5858 188.018 68.6096 188.202 68.6096C188.236 68.6096 188.348 68.6059 188.546 68.5986C188.611 68.5967 188.675 68.5912 188.739 68.5821C188.833 68.5949 188.931 68.6004 189.028 68.6004C189.247 68.6004 189.47 68.5656 189.685 68.4942L190.334 68.4741C190.551 68.5491 190.783 68.5876 191.014 68.5876C191.119 68.5876 191.226 68.5803 191.331 68.5638L191.399 68.5528C191.675 68.6297 191.893 68.6352 191.952 68.6352C192.158 68.6352 192.441 68.6059 192.741 68.485H192.973L193.848 68.507L194.795 68.5308C194.948 68.5693 195.123 68.5949 195.318 68.5949C195.415 68.5949 195.511 68.5876 195.606 68.5748L195.792 69.1754C195.603 69.9518 195.709 70.6 195.781 71.034C195.796 71.1218 195.814 71.2372 195.82 71.2976C195.649 71.8836 195.619 72.3212 195.595 72.6746C195.588 72.7772 195.583 72.8834 195.568 73.0042L195.369 74.7236C195.279 75.5037 195.347 76.119 195.408 76.5346C194.746 77.5912 194.803 78.6074 195 79.3234C194.979 79.3564 194.957 79.3912 194.937 79.4223C194.709 79.7867 194.327 80.3964 194.24 81.2699C194.2 81.691 194.288 82.1122 194.494 82.4802L194.33 83.231C194.224 83.7236 194.133 84.2711 194.201 84.9431C194.211 85.0548 194.152 85.2947 194.091 85.4027C193.587 85.877 192.868 86.9152 193.289 88.7884L193.751 90.8521C193.76 90.8906 193.769 90.9308 193.78 90.9693L193.806 91.0608C193.333 91.5937 193.179 92.2547 193.085 92.6576C193.078 92.6887 193.07 92.718 193.065 92.7418L192.78 93.8441C192.765 93.8972 192.754 93.9522 192.745 94.0071L192.544 95.1589C192.539 95.19 192.533 95.223 192.53 95.2541L192.392 96.3326C192.379 96.4352 192.373 96.5377 192.375 96.6403L192.397 97.651C192.41 98.2242 192.519 98.6984 192.642 99.0793C192.116 99.8282 192.144 100.83 192.353 101.467L192.541 102.037C192.232 102.536 191.794 103.373 191.84 104.499L191.75 104.587C191.321 105.008 191.095 105.596 191.134 106.195L191.191 107.111L191.055 107.338C190.871 107.647 190.772 107.997 190.764 108.356L190.753 108.953L190.545 109.125C189.869 109.687 189.359 110.751 189.214 111.326L188.581 113.834C188.567 113.893 188.541 113.97 188.511 114.058C188.396 114.404 188.213 114.957 188.272 115.662L187.772 116.488L187.301 117.086C187.261 117.138 187.209 117.198 187.154 117.264C186.797 117.689 186.509 118.046 186.316 118.476L185.848 119.513C185.734 119.573 185.615 119.643 185.495 119.725C185.495 119.725 184.072 120.699 184.059 120.708L182.47 121.846L181.477 122.3C181.31 122.377 181.155 122.474 181.013 122.591L180.041 123.396C179.757 123.631 179.441 123.79 179.316 123.825L177.648 124.281C177.14 124.42 176.705 124.698 176.322 124.946C176.223 125.01 176.099 125.088 176.042 125.12C175.704 125.305 175.504 125.328 175.064 125.385C174.647 125.438 174.124 125.504 173.486 125.72C172.852 125.934 172.245 126.033 171.518 126.039L168.798 126.061C168.572 126.063 168.353 126.085 168.144 126.105C168.032 126.116 167.91 126.129 167.809 126.134C166.998 125.74 166.246 125.561 165.405 125.561C165.157 125.561 164.901 125.576 164.622 125.608L163.728 125.709C163.184 125.771 162.384 126.092 161.924 126.791C161.637 127.227 161.521 127.742 161.589 128.245C161.369 128.58 161.247 128.974 161.247 129.382V130.424C160.42 131.38 160.477 132.279 160.686 132.885C160.706 132.944 160.729 133.001 160.752 133.056C160.508 133.53 160.335 134.184 160.585 134.951L160.918 135.965C160.887 136.071 160.822 136.234 160.723 136.452C160.651 136.613 160.6 136.782 160.57 136.956L160.414 137.879C160.232 138.957 160.399 139.715 160.539 140.208L159.929 141.162C159.638 141.616 159.535 142.167 159.644 142.695C159.682 142.881 159.677 142.894 159.598 143.132C159.463 143.537 159.182 144.377 159.603 145.377L159.671 145.54L159.625 145.599C159.171 146.174 159.055 146.946 159.32 147.629L159.649 148.477C159.175 148.957 158.959 149.642 159.084 150.314L159.276 151.334C159.255 151.409 159.23 151.495 159.209 151.563C159.097 151.942 158.972 152.37 158.969 152.846L158.965 153.745L158.917 154.705C158.878 155.479 158.924 156.062 158.956 156.446C158.516 157.323 158.435 158.354 158.722 159.349C158.608 159.817 158.558 160.295 158.573 160.762L158.242 161.753C157.821 163.007 157.974 164.232 158.075 165.042C158.09 165.155 158.106 165.291 158.117 165.406L157.906 165.752C157.51 166.395 157.497 167.199 157.867 167.852L157.352 168.969C157.111 169.491 157.098 170.088 157.317 170.619C157.499 171.062 157.473 171.432 157.389 172.296V172.326C157.381 172.382 157.378 172.439 157.376 172.494L157.365 173.289L157.137 174.543C156.944 175.6 157.312 176.407 157.6 176.918C157.389 177.204 157.201 177.564 157.135 178.015L156.892 179.685C156.887 179.727 156.868 179.797 156.85 179.872C156.76 180.234 156.578 180.959 156.889 181.807C156.497 182.541 156.502 183.217 156.504 183.6C156.504 183.657 156.504 183.73 156.504 183.772C156.217 184.345 156.215 185.012 156.48 185.579L156.416 186.398C156.407 186.524 156.409 186.65 156.421 186.777L156.436 186.916C156.436 186.916 154.641 186.892 154.63 186.892C154.616 186.892 153.082 186.923 153.082 186.923C153.047 186.923 153.012 186.925 152.979 186.929C152.979 186.929 151.693 187.019 151.686 187.019C151.686 187.019 148.898 187.249 148.883 187.251L146.693 187.48L145.211 187.643L144.892 187.652V187.656Z" fill="black"/>
</g>
<defs>
<clipPath id="clip0_140_2">
<rect width="250" height="250" fill="white"/>
</clipPath>
</defs>
</svg>
