<svg width="250" height="250" viewBox="0 0 250 250" fill="none" xmlns="http://www.w3.org/2000/svg">
<g clip-path="url(#clip0_137_2321)">
<path d="M193.313 83.7392C198.438 93.5804 201 105.12 201 118.358C201 123.104 200.699 127.8 200.096 132.445C199.091 140.089 197.182 147.382 194.368 154.326C191.605 161.27 187.862 167.414 183.14 172.759C178.216 178.404 172.263 182.85 165.28 186.097C158.598 189.294 150.886 191.542 142.144 192.841C136.869 193.64 131.418 194.04 125.791 194.04C124.435 194.04 122.4 193.99 119.687 193.89C110.845 193.491 102.907 192.117 95.8736 189.769C87.8855 187.221 80.8017 183.549 74.6222 178.754C69.3973 174.558 64.7752 169.462 60.7561 163.468C56.9881 157.723 54.0993 151.503 52.0897 144.809C50.0802 138.115 49.0502 131.346 49 124.503C49 117.559 50.0299 110.69 52.0897 103.896C54.1496 97.1022 57.1137 90.683 60.9822 84.6384C64.9008 78.5939 69.4726 73.1238 74.6976 68.2282C79.9225 63.2826 85.6498 59.1364 91.8795 55.7894C92.7336 55.2898 93.6881 55.04 94.7432 55.04C95.6475 55.04 96.5016 55.2648 97.3054 55.7144C98.1595 56.164 98.8377 56.7885 99.3401 57.5877C99.8425 58.387 100.094 59.2862 100.094 60.2853C100.094 61.2345 99.8676 62.1337 99.4155 62.9829C98.9633 63.8321 98.3604 64.5065 97.6068 65.0061C93.1355 67.4539 89.1917 70.0515 85.7754 72.7991C80.651 77.0952 76.1294 81.9159 72.2107 87.2611C68.5935 92.5063 65.7298 97.9015 63.6197 103.447C61.8111 108.442 60.6054 113.637 60.0025 119.032C59.8518 120.681 59.7764 122.379 59.7764 124.128C59.7764 127.225 60.0527 130.497 60.6054 133.944C61.4594 139.039 62.9917 144.11 65.2023 149.155C67.4128 154.001 70.176 158.447 73.4918 162.493C76.6569 166.29 80.0983 169.487 83.8161 172.085C87.6343 174.732 91.9046 176.955 96.6272 178.754C102.706 180.802 109.061 182.176 115.693 182.875C118.959 183.175 122.224 183.325 125.49 183.325C131.167 183.325 136.794 182.875 142.37 181.976C148.65 180.927 154.252 179.303 159.176 177.105C163.295 175.207 166.912 173.009 170.027 170.511C173.092 167.914 175.78 164.991 178.091 161.744C180.804 157.947 183.19 153.402 185.25 148.106C187.611 141.462 189.143 134.469 189.847 127.125C190.098 123.878 190.224 120.981 190.224 118.433C190.224 114.137 189.922 109.941 189.319 105.844C188.415 100.749 186.983 95.9283 185.024 91.3824C183.115 87.336 180.929 83.8142 178.468 80.8169C176.207 78.0693 173.469 75.4966 170.253 73.0988C167.54 71.3504 164.777 69.8767 161.964 68.6778C158.799 67.7286 155.935 67.1292 153.373 66.8794C152.669 66.8294 151.64 66.8045 150.283 66.8045C147.671 66.8045 145.209 66.9793 142.898 67.329C138.276 68.0783 133.453 69.552 128.429 71.75C122.35 74.4975 116.748 77.9444 111.624 82.0907C107.102 85.8873 103.083 90.1335 99.5662 94.8293C96.7528 98.8756 94.5422 103.072 92.9346 107.418C91.6283 111.115 90.7491 114.811 90.297 118.508C90.1965 120.206 90.1463 121.455 90.1463 122.255C90.1463 124.602 90.3472 127.1 90.7491 129.748C91.3018 133.045 92.3568 136.617 93.9142 140.463C95.3712 143.51 97.1044 146.333 99.114 148.931C101.073 151.179 103.259 153.227 105.67 155.075C108.484 156.824 110.996 158.097 113.206 158.897C115.919 159.846 118.808 160.47 121.873 160.77C123.48 160.87 124.636 160.92 125.339 160.92C127.499 160.92 129.635 160.77 131.745 160.47C135.06 159.871 138.301 158.897 141.466 157.548C144.43 156.199 147.445 154.351 150.509 152.003C153.775 149.155 156.513 146.208 158.723 143.161C161.235 139.614 163.345 135.618 165.054 131.172C166.46 127.075 167.39 123.054 167.842 119.107C167.942 117.709 167.993 116.61 167.993 115.81C167.993 113.862 167.842 111.914 167.54 109.966C167.289 107.917 166.661 105.719 165.656 103.372C164.802 101.723 163.823 100.174 162.717 98.7258C161.964 97.7267 160.708 96.5527 158.949 95.2039C157.492 94.2048 155.734 93.2806 153.674 92.4314C151.263 91.732 149.153 91.2824 147.344 91.0826C146.842 91.0327 146.113 91.0077 145.159 91.0077C143.551 91.0077 142.119 91.1076 140.863 91.3074C138.251 91.757 135.839 92.4564 133.629 93.4055C130.865 94.7543 128.303 96.3529 125.942 98.2012C123.48 100.299 121.144 102.797 118.934 105.694C117.527 107.743 116.246 110.14 115.09 112.888C114.337 115.136 113.834 117.284 113.583 119.332C113.533 120.681 113.583 122.18 113.734 123.828C113.884 124.727 114.211 125.851 114.713 127.2C115.417 128.399 115.995 129.298 116.447 129.898C116.648 130.147 117.326 130.772 118.481 131.771C119.687 132.47 120.617 132.945 121.27 133.195C122.626 133.594 123.832 133.869 124.887 134.019C126.294 134.069 127.801 134.019 129.409 133.869C130.815 133.619 132.398 133.145 134.156 132.445C135.915 131.546 137.246 130.747 138.15 130.048C139.406 128.949 140.461 127.8 141.315 126.601C142.069 125.602 142.672 124.478 143.124 123.229C143.476 122.23 143.677 121.355 143.727 120.606C143.777 119.957 143.777 119.257 143.727 118.508C143.576 117.958 143.375 117.334 143.124 116.635C142.571 115.686 142.245 115.136 142.144 114.986L141.014 113.862L139.883 113.338L139.13 113.113L138.226 113.188C137.824 113.288 137.497 113.388 137.246 113.487L136.266 114.087L135.663 114.761C135.563 114.861 135.462 115.036 135.362 115.286L135.136 116.41V116.335C134.985 117.284 134.533 118.183 133.779 119.032C133.327 119.632 132.749 120.082 132.046 120.381C131.343 120.681 130.589 120.831 129.785 120.831C129.182 120.831 128.529 120.706 127.826 120.456C127.173 120.156 126.62 119.782 126.168 119.332C125.666 118.833 125.239 118.258 124.887 117.609C124.586 116.959 124.435 116.335 124.435 115.735C124.435 113.438 125.038 111.314 126.243 109.366C127.6 107.368 129.132 105.819 130.84 104.72C133.252 103.172 135.94 102.397 138.904 102.397C140.26 102.397 141.366 102.522 142.22 102.772C144.279 103.322 146.189 104.296 147.947 105.694C149.705 107.093 151.137 108.742 152.242 110.64C153.8 113.537 154.579 116.66 154.579 120.007C154.579 121.305 154.478 122.479 154.277 123.528C153.473 127.475 151.564 131.247 148.55 134.843C146.138 137.691 143.375 139.864 140.26 141.362C135.638 143.71 130.991 144.884 126.319 144.884C124.108 144.884 121.898 144.585 119.687 143.985C115.969 142.936 112.754 141.188 110.041 138.74C107.127 136.042 105.067 132.77 103.862 128.924C103.108 126.426 102.731 123.903 102.731 121.355C102.731 116.809 103.786 111.989 105.896 106.893C108.609 100.449 113.282 94.6045 119.913 89.3592C122.928 86.9114 126.218 84.9382 129.785 83.4395C133.352 81.9408 137.07 80.9417 140.939 80.4422C142.295 80.2923 143.651 80.2174 145.008 80.2174C148.073 80.2174 151.112 80.617 154.126 81.4163C157.141 82.1656 159.929 83.2647 162.491 84.7134C166.008 86.7116 168.997 89.2593 171.459 92.3565C173.921 95.4537 175.755 98.9256 176.96 102.772C178.166 106.569 178.769 110.74 178.769 115.286C178.769 118.683 178.417 122.18 177.714 125.776C176.307 133.12 173.594 139.989 169.575 146.383C165.556 152.777 160.532 158.122 154.503 162.418C148.223 166.914 141.391 169.737 134.005 170.886C131.192 171.385 128.203 171.635 125.038 171.635C119.763 171.635 114.889 170.861 110.418 169.312C106.499 167.914 103.158 166.29 100.395 164.442C97.0793 162.094 94.4417 159.821 92.4824 157.623C87.7599 152.278 84.2933 146.308 82.0828 139.714C80.2239 134.019 79.2945 128.274 79.2945 122.479L79.3699 120.007C79.822 112.863 81.5804 105.894 84.645 99.1004C87.5589 92.8061 91.4776 86.9863 96.4011 81.6411C101.375 76.2959 106.977 71.6751 113.206 67.7786C118.833 64.1319 124.761 61.2594 130.991 59.1613C137.271 57.0632 143.526 56.0142 149.756 56.0142C153.373 56.0142 156.764 56.3638 159.929 57.0632C166.963 58.5619 173.418 61.734 179.296 66.5797C185.175 71.3753 189.847 77.0952 193.313 83.7392Z" fill="black"/>
</g>
<defs>
<clipPath id="clip0_137_2321">
<rect width="250" height="250" fill="white"/>
</clipPath>
</defs>
</svg>
