<?xml version="1.0" standalone="no"?>
<!DOCTYPE svg PUBLIC "-//W3C//DTD SVG 20010904//EN"
 "http://www.w3.org/TR/2001/REC-SVG-20010904/DTD/svg10.dtd">
<svg version="1.0" xmlns="http://www.w3.org/2000/svg"
 width="500.000000pt" height="500.000000pt" viewBox="139 138 233 221"
 preserveAspectRatio="xMidYMid meet">
<metadata>
Created by potrace 1.16, written by Peter Selinger 2001-2019
</metadata>
<g transform="translate(0.000000,500.000000) scale(0.100000,-0.100000)"
fill="#000000" stroke="none">
<path d="M2420 3533 c-33 -8 -42 -44 -46 -197 -7 -238 -23 -351 -68 -476 -53
-144 -160 -237 -317 -275 -35 -9 -80 -20 -100 -25 -20 -6 -48 -10 -63 -10 -28
0 -66 -31 -66 -54 0 -30 32 -44 135 -60 161 -25 250 -65 337 -150 117 -116
156 -251 203 -693 6 -58 30 -103 55 -103 23 0 49 45 54 94 3 28 10 105 16 171
36 368 150 570 370 652 45 17 176 43 216 43 33 0 74 35 74 62 0 28 -46 55
-107 62 -179 21 -319 80 -414 175 -112 113 -153 234 -183 546 -15 154 -19 182
-32 202 -16 26 -43 41 -64 36z m49 -604 c46 -178 190 -338 363 -401 l60 -21
-76 -40 c-132 -69 -249 -216 -301 -378 -22 -71 -35 -95 -35 -65 0 31 -40 140
-73 199 -64 116 -141 190 -255 247 l-63 31 53 27 c29 14 55 29 56 34 2 4 9 8
16 8 11 0 47 33 101 93 46 51 105 187 120 276 4 23 10 41 14 41 4 0 13 -23 20
-51z"/>
<path d="M3286 3491 c-13 -14 -19 -43 -23 -98 -11 -156 -56 -220 -172 -244
-73 -15 -99 -37 -80 -67 8 -12 28 -23 53 -26 143 -23 183 -64 208 -217 16
-103 48 -136 82 -87 9 12 16 41 16 63 0 53 23 148 43 178 21 32 112 77 155 77
46 0 72 16 72 45 0 30 -26 45 -80 45 -44 0 -104 21 -133 48 -29 26 -48 79 -63
176 -12 80 -32 126 -54 126 -4 0 -15 -9 -24 -19z m83 -422 c-21 -21 -39 -46
-39 -54 0 -8 -4 -15 -10 -15 -5 0 -10 4 -10 9 0 5 -20 30 -45 54 l-45 45 23
15 c13 8 34 31 47 50 l24 35 47 -50 47 -50 -39 -39z"/>
<path d="M1686 2104 c-11 -10 -16 -35 -16 -77 -1 -68 -18 -127 -46 -158 -10
-11 -43 -27 -73 -35 -104 -30 -108 -69 -9 -89 30 -6 67 -19 82 -29 31 -20 65
-87 66 -129 0 -45 26 -97 49 -97 28 0 32 11 42 103 14 118 49 155 172 182 24
5 28 10 25 33 -3 24 -9 28 -62 39 -33 6 -69 17 -81 23 -33 18 -62 77 -75 153
-16 88 -40 115 -74 81z m90 -327 c-12 -13 -27 -31 -33 -41 -9 -16 -13 -14 -46
19 -36 36 -46 55 -28 55 5 0 19 15 30 34 l21 34 39 -40 39 -39 -22 -22z"/>
</g>
</svg>
