<svg width="250" height="250" viewBox="0 0 250 250" fill="none" xmlns="http://www.w3.org/2000/svg">
<g clip-path="url(#clip0_137_2335)">
<path d="M180.13 113.464L180.059 113.535L180.13 113.606L180.201 113.535L180.13 113.464Z" fill="black"/>
<path d="M169.779 186.508V186.664L169.701 187.533L168.664 187.411L166.969 187.89C166.49 188.024 165.888 187.611 165.342 187.812C163.301 188.537 162.086 187.924 161.072 187.946L158.418 188.013H157.314L155.408 188.035C155.263 188.035 154.839 188.169 154.683 188.135C154.059 187.99 153.134 188.024 152.465 188.414C152.264 188.537 151.785 188.503 151.539 188.492L149.388 188.369L148.362 188.236C147.883 188.169 147.403 188.247 146.924 188.369L145.831 188.659L144.527 188.615C143.546 188.905 142.632 189.194 141.651 188.927C140.993 188.737 140.357 188.749 139.677 188.86L138.551 189.038C138.373 189.072 138.139 189.339 137.949 189.484L136.623 190.499L135.943 190.365C135.196 190.543 134.359 190.844 133.635 190.844H132.319L130.703 190.8L129.543 190.711C129.198 190.688 128.663 190.443 128.417 190.198C127.748 189.507 127.38 189.239 126.176 189.44C125.418 189.562 124.794 189.585 124.047 189.473C123.646 189.417 123.233 189.518 122.809 189.663C122.475 189.774 122.107 189.752 121.728 189.741C120.959 189.73 120.045 190.086 119.298 190.042L117.48 189.919L115.808 189.808L113.623 190.02L111.928 190.042L110.657 190.198C110.022 190.276 109.643 190.421 109.007 190.298L107.469 190.477L105.752 190.22L104.671 190.064C103.712 189.919 103.611 190.387 102.731 190.298L101.326 190.142L100.289 190.042L99.1186 189.819C98.7841 189.752 98.1709 189.64 97.9368 189.362C97.803 189.194 97.8477 188.604 97.8811 188.459V188.303L97.8141 187.188L97.8476 185.727V184.724L97.9257 182.55L97.9814 181.926L98.0372 181.48C97.9815 181.346 97.9257 181.246 97.9814 181.357L98.6503 181.179L99.5422 180.944L100.958 180.476C101.605 180.264 102.006 180.309 102.664 180.331L104.258 180.409L105.384 180.554C105.596 180.577 106.031 180.476 106.287 180.409C106.733 180.298 107.157 180.398 107.625 180.387L109.219 180.365L110.736 180.443L112.542 180.365L114.682 180.276C114.905 180.276 115.373 179.975 115.585 179.885H118.194C118.673 179.897 119.409 180.097 119.799 179.885C120.19 179.674 120.524 179.484 120.903 179.473L122.297 179.439L123.634 179.406H125.095L126.344 179.283C126.41 179.283 126.633 179.183 126.622 179.116L126.544 178.782C126.488 178.536 126.5 178.124 126.544 177.823L126.745 176.708C126.79 176.429 126.711 175.827 126.678 175.493L126.6 174.501C126.555 173.932 126.243 174.222 126.232 173.62L126.21 172.951C126.21 172.784 126.221 172.427 126.254 172.271L126.455 171.368V170.298L126.377 169.406C126.288 168.547 126.511 168.436 126.366 168.023C126.232 167.644 126.221 167.432 126.221 167.076C126.221 166.797 126.165 166.295 126.221 166.061L126.399 165.359C126.834 164.757 126.288 164.277 126.645 163.575C126.622 163.53 126.455 163.207 126.477 163.084L126.611 162.126C126.678 161.635 127.102 161.59 127.102 161.033C127.102 160.665 127.046 160.308 126.912 160.007C126.489 159.093 126.444 158.268 126.656 157.321L126.466 156.574C126.277 155.815 126.31 155.213 126.901 154.689C127.157 154.467 127.157 153.798 127.135 153.452L127.079 152.46L126.946 151.022C126.901 150.553 127.035 150.353 126.711 149.94C126.388 149.528 127.035 149.115 127.102 148.324L127.191 147.276C127.581 146.796 127.581 146.161 127.012 145.804L127.079 144.689L127.258 143.708L127.035 142.716L125.474 142.448L124.303 142.225L121.884 141.356C121.717 141.3 121.26 141.222 121.137 141.099L120.156 140.174L119.576 139.795L118.963 139.159C118.584 138.769 118.227 138.557 117.692 138.301C117.38 138.156 117.046 137.621 116.778 137.353L116.087 136.651L115.44 136.016C115.262 135.837 114.849 135.503 114.615 135.391L112.709 134.399L112.397 133.63L111.516 132.927L110.758 132.883C110.356 132.582 110.022 132.158 109.654 131.779L108.573 130.675L107.993 130.151L107.179 129.404L106.12 128.691L105.105 127.788L104.593 127.464L103.913 126.929C103.355 126.294 102.998 125.424 102.396 124.856C101.961 124.454 101.203 124.265 100.925 123.73C100.367 122.659 99.9325 122.347 98.8845 121.857C98.4274 121.645 98.171 121.065 97.8923 120.664C97.5689 120.196 96.7774 120.497 96.521 120.853L95.6849 121.166L94.0459 121.768C93.5331 121.957 93.1094 122.113 92.5074 121.901C92.4962 121.901 92.1729 122.147 92.0837 122.147L90.7236 122.124C89.9878 122.113 89.1629 122.626 88.1484 122.626H86.9889C86.7659 122.626 86.3757 122.782 86.175 122.882L84.5474 123.094L83.7334 123.183C83.2986 123.228 82.6855 123.317 82.3065 123.206L81.3811 122.938C80.5784 122.704 79.5304 123.496 78.7723 122.894L78.1146 122.381C77.4234 121.834 77.0108 122.258 75.7956 121.689C75.5503 121.578 74.9261 121.723 74.6585 121.667L73.1534 121.411C72.8189 121.355 72.3953 121.154 72.0385 121.188C70.5669 121.322 70.1098 120.586 69.296 120.597H68.2703C67.8243 120.608 67.3004 120.24 66.9883 119.917L66.2301 119.125L65.5054 118.323C64.4797 118.367 63.6213 117.631 63.5432 116.583C63.3203 116.338 62.7741 115.981 62.6514 115.714L62.1273 114.454C61.949 114.343 61.6926 114.198 61.6034 114.12L61.1574 113.228C60.8118 112.536 60.3659 112.414 59.6524 112.291C59.0169 112.18 58.6267 111.321 58.5152 110.73C58.4483 110.396 58.114 110.151 57.9356 109.917L57.5341 109.359L56.9433 108.846C55.8062 107.854 56.3858 106.773 55.4605 106.605L55.2264 106.126C54.7024 105.045 55.1149 104.855 54.6132 104.298C53.8774 103.473 53.2196 102.09 53.7882 101.243L53.0413 100.652C53.2977 99.9719 52.7514 99.6041 53.1528 98.9351C53.3312 98.6341 53.5541 98.1212 53.4983 97.8425L53.2642 96.5716L53.4983 96.003C52.9743 94.8324 53.5986 94.0409 53.3422 92.9817L53.6767 92.5581C53.3646 91.8 53.1528 91.2202 53.465 90.3952C53.7771 89.5702 54.6244 89.4922 54.0112 88.6115C53.8552 88.3885 53.8774 88.0429 54.0001 87.7865L53.9778 87.1844L54.4906 86.8723L54.5575 85.9024C54.6021 85.2892 55.1149 84.6648 55.5386 84.1854C56.0068 83.6615 55.4939 83.026 55.8618 82.6024C56.1071 82.3236 56.3412 81.9669 56.4081 81.6324C56.4973 81.1419 56.7203 80.9189 57.0213 80.5621C57.4896 80.0047 57.8798 79.269 58.2031 78.6L58.571 77.853L59.1619 76.7493C59.318 76.4595 59.6524 75.9801 59.8531 75.7125C60.4886 75.3892 60.8453 75.0102 61.2244 74.4081C61.3582 74.1963 61.6592 73.8841 61.8153 73.6723C62.3058 73.0034 62.6403 72.7581 62.8967 72.4236L63.7551 71.3311C64.1119 70.8629 64.4463 70.495 65.0929 70.4504L65.996 69.5808C66.6649 69.3578 67.3338 69.1571 67.8912 68.845L68.8835 68.2875C69.1511 68.1315 69.452 67.8416 69.6862 67.5852C69.8199 67.4402 70.2548 67.3399 70.4666 67.2618C71.1244 67.0054 71.6929 66.8048 72.3395 66.6598L73.6105 66.3811L75.1713 66.0355C75.595 65.9463 76.1858 65.8348 76.5426 65.6676L78.0923 64.9652C78.5271 64.7645 79.0845 64.72 79.5861 64.6642L80.9686 64.5193L82.9977 64.2406L84.2908 64.1291L85.1048 64.0622C85.9187 64.1625 86.6656 64.1514 87.4683 64.0845L88.8284 63.973C89.2744 63.9396 89.7202 63.9284 90.1662 63.9507L91.3815 63.9841C91.8943 63.9953 92.2287 64.5304 93.8007 64.4413L95.0605 64.3632C95.3057 64.3521 95.9189 64.3632 96.1307 64.4747L98.4497 65.6787L100.256 66.2473L102.307 66.8159L103.812 67.3622C104.213 67.5071 104.648 67.6298 105.005 67.8416C106.075 68.4882 106.588 68.1983 106.978 69.0791C107.257 69.7145 107.937 69.302 108.127 69.8483C108.327 70.428 108.84 70.9409 109.42 71.1193L109.643 71.6098L110.501 71.7771C110.947 71.8663 111.404 72.5463 111.75 72.747C112.274 73.0592 112.608 73.2598 112.731 73.951L112.887 74.8318C113.144 75.1663 113.556 75.6345 113.668 75.9578C113.634 76.6825 113.779 77.2845 114.147 77.8642L114.738 78.7784L114.805 79.9713L115.306 80.3057C115.15 80.551 114.86 81.0527 114.883 81.3203L114.961 82.8922L115.251 84.074C115.295 84.2747 115.15 84.7429 115.05 84.9213L111.873 85.7574L110.992 85.9247L109.721 86.2368L108.662 86.5267L107.034 87.2513C106.343 86.7831 105.864 85.9804 105.986 85.0774L105.585 84.7987L105.228 83.9402C105.373 83.2378 105.05 82.6581 104.492 82.123C104.247 81.8889 104.303 80.8744 103.689 80.6291L102.865 80.2946C102.742 79.5142 102.229 78.9791 101.437 78.8564L100.568 77.2399L100.111 77.0058L99.3303 76.5263L98.4497 75.9912C98.1487 75.8017 97.647 75.2443 97.3013 75.1774L95.9969 74.9209L95.1051 74.7983L93.7115 74.5308C93.3102 74.4527 92.7192 74.252 92.3624 74.252H91.348L90.2332 74.2297L88.9176 74.1406C87.7804 73.7504 86.7325 73.5274 85.7514 74.0959C85.3389 74.3412 85.0156 74.319 84.5251 74.2744C84.1237 74.2409 83.622 74.4081 83.1426 74.5531C82.8416 74.6423 82.2062 74.5085 81.894 74.5531L80.4669 74.7983L78.6943 75.523C78.1035 75.601 77.546 75.601 77.0889 75.902L76.0521 76.5821C75.3052 77.0727 75.0487 76.5375 74.4578 77.1618C74.3129 77.3179 73.9673 77.5967 73.7666 77.697L72.2169 78.4885C71.47 78.8676 71.6372 79.0905 71.3473 79.2689C71.1578 79.3804 70.6896 79.6368 70.6896 79.8375V80.8298C70.6896 81.1754 70.5 81.4095 70.1321 81.521C69.8534 81.599 69.6528 81.8443 69.4521 82.0561L68.3037 83.2713C68.1031 83.4831 67.9804 84.0517 67.8912 84.3639L67.5122 85.6013C67.4676 85.7463 67.1108 86.025 67.0439 86.1588C66.899 86.4486 66.821 87.1956 66.7987 87.5189C66.7764 87.8423 65.7396 88.1433 66.2413 89.0463L66.598 89.6929L65.8288 90.5848C65.5055 90.9527 65.7062 91.499 65.3048 92.5135C65.2379 92.6919 65.0149 93.1267 65.0706 93.3162L65.3605 94.3753C65.2378 95.1892 65.3271 96.2929 65.8288 96.7166C65.8845 97.274 65.2379 97.4301 65.5501 98.3108C65.8622 99.1916 65.5277 99.5148 65.9625 100.652L66.453 101.945L66.7652 102.759L67.4119 102.926L67.9804 103.595C68.2479 103.919 68.772 104.186 68.9949 104.476L69.7531 105.446L70.0095 106.26L71.0797 106.282L71.9047 107.709L72.4845 107.809C72.6629 107.843 72.9304 108.122 72.9973 108.322L73.3095 109.248C73.5993 109.348 74.0118 109.504 74.1344 109.694C74.9372 110.998 75.7176 110.184 76.42 110.998C76.799 111.444 77.3119 110.964 77.8024 111.522C78.5605 112.38 79.2182 111.5 80.0989 111.957L80.9574 112.403C81.225 112.548 81.8716 112.525 82.2172 112.525L83.8338 112.548C84.1572 112.548 84.5251 112.47 84.8261 112.503C85.495 112.592 86.1193 112.648 86.7548 112.559C87.1561 112.503 87.5351 112.458 87.9141 112.536L89.2186 112.804C89.7091 112.904 90.2108 112.938 90.601 112.67L89.6199 111.711L88.4604 110.519C88.2597 110.307 87.9477 110.061 87.7135 109.939L86.4091 109.281L85.3277 108.79C85.0267 108.657 84.6589 108.122 84.4136 107.854L83.4325 106.761C82.9085 106.182 82.5183 105.591 81.8828 105.111C81.5372 104.855 81.0689 104.71 80.6675 104.532L79.2406 103.907C78.594 103.629 77.9697 103.261 77.5683 102.67L76.8101 102.224L74.4355 101.009C73.9561 100.763 73.6328 100.474 73.198 100.139L71.7153 99.0243L71.9382 98.6453C71.9828 97.9875 72.1166 97.3855 72.2504 96.7054L72.4845 95.5459C72.5402 95.256 72.6629 95.0665 72.9416 94.8547L73.1757 94.1635L73.4767 93.1936L73.9672 91.577L74.3908 90.6517C74.48 90.5514 74.5136 90.5179 74.3687 90.529L74.5246 90.072L74.8257 89.3027C74.926 89.0574 75.0821 88.6449 75.0041 88.4554C74.9037 88.199 74.848 88.0652 74.8703 87.9537C74.8926 87.8422 75.1267 87.6639 75.2605 87.5747C75.8736 87.1733 75.9182 86.6047 76.7655 86.9169C77.7466 87.2736 78.2483 87.0284 78.7277 87.1733C79.0398 87.2737 79.4858 87.4855 79.7422 87.5078L80.8683 87.597C81.1247 87.6193 81.7044 87.4521 81.9608 87.4521L83.778 87.4855C84.3578 87.4966 84.9487 87.5747 85.5173 87.374L86.4537 87.0507C86.8885 86.9057 87.2006 86.7831 87.6354 86.9504C88.1817 87.151 88.9733 87.1956 89.4638 86.928C89.9878 86.6493 90.3223 86.6382 90.8462 86.928L92.2733 87.0172C92.5074 87.0284 93.0203 87.2848 93.2655 87.3294C93.8453 87.2625 94.4584 87.3071 95.0605 87.3294L96.3872 87.374C96.822 86.6828 97.424 87.0284 97.9926 87.1622L99.3973 87.4521L100.969 87.6973C101.95 87.8534 102.385 87.4855 103.5 87.8422C103.645 87.8868 103.968 87.8422 104.18 87.8422C104.637 87.8311 105.518 88.0206 105.864 87.7865L106.566 87.3183L106.822 87.9537H107.881C108.004 87.9314 108.227 88.1878 108.339 88.3105C108.918 88.3885 109.565 88.2436 110.145 87.9648C110.769 87.6638 111.259 88.1544 111.94 87.8757C112.263 87.3852 112.876 87.4297 113.355 87.6861C113.601 87.8199 114.147 87.6973 114.504 87.7642L115.585 87.9648H116.979C117.402 87.8311 117.893 87.7196 118.372 87.898L120.212 87.8646C120.903 87.8534 121.249 87.898 121.895 88.0764L123.322 88.4666C123.668 88.5557 124.103 88.3885 124.471 88.2659C125.017 88.0764 125.697 88.2213 126.243 88.3773L128.172 88.9348C128.763 89.102 129.655 88.9794 130.279 89.0575L131.851 89.247L133.546 89.4588C134.07 89.5257 134.694 89.0351 135.196 88.801C135.586 88.6338 136.255 88.801 136.634 88.7787L137.626 88.7453H139.12C139.956 88.7676 140.647 88.8568 141.483 88.7453C141.918 88.6895 142.409 88.8456 142.866 88.8345L144.951 88.7787C145.976 88.7564 146.801 89.3808 147.225 89.247L148.318 88.9236C148.897 88.7452 149.432 88.723 149.923 89.1801L150.614 89.0351H152.922L154.472 89.3584L155.43 89.0463C156.445 88.9014 157.147 88.3439 157.326 87.3071L158.173 86.4821C158.396 86.2703 159.098 86.4487 159.344 86.4487L160.514 85.9024L160.882 85.0662L161.696 83.7953C162.766 83.1932 162.231 82.6135 162.956 81.9111C163.825 81.0639 164.717 81.7663 165.654 80.2054C165.765 80.0159 166.356 79.9713 166.546 79.9936C166.802 79.4585 167.07 78.979 167.426 78.5442L168.474 77.2399L169.299 76.9723L170.325 76.5598C170.492 76.4929 170.726 76.2477 170.849 76.0693L171.529 75.0659L172.042 74.2075L172.466 73.3267L173.302 72.9699C173.915 72.7024 173.513 72.0446 174.405 71.7324C175.119 71.4872 174.918 70.272 176.434 69.904C176.635 69.8595 176.903 69.6254 177.114 69.4805L178.653 68.4547C178.965 68.2541 178.764 68.0534 178.764 67.7858L179.333 67.1838L180.292 65.9351L180.693 65.322C180.849 65.0879 181.239 64.8538 181.563 64.72L182.823 64.2183L183.458 63.7277L184.317 63.0811L184.952 62.6129L185.153 62.022L185.799 61.6764C186.424 61.0298 187.092 60.7622 187.449 61.2528L187.616 61.4757L187.918 61.8324L188.609 62.401L189.211 62.9251L190.872 64.1514L191.886 64.9206L192.589 65.4558L193.113 65.8682L193.57 66.2473L193.837 66.4368L194.662 67.2173L195.32 67.8416C195.443 68.5216 194.595 69.2128 194.105 69.3578C193.715 69.4693 194.083 69.8818 193.536 70.2051L192.377 70.8963C191.697 71.2976 191.831 72.3122 191.596 72.2899L191.284 72.2676L190.972 72.9811C190.838 73.2821 190.504 73.8841 190.27 74.1071L189.523 74.7872L188.653 75.4338L187.75 76.0693L186.457 77.251C186.245 77.4406 186.134 77.6858 186.056 77.9868C185.911 78.6223 184.729 78.377 184.696 79.1017C184.651 79.949 184.004 80.6291 183.157 80.8186L182.934 81.4541C182.756 81.9669 181.975 81.9892 181.685 82.2456L180.336 83.4942C180.191 84.7317 179.344 84.3638 178.675 85.0439C178.129 85.6013 177.839 85.1777 177.059 85.9024C176.68 86.2591 176.39 86.6159 176.2 87.1287C175.621 88.6561 175.097 88.2213 174.428 88.8122L173.458 89.1689L172.421 90.2057C172.666 90.4176 172.923 90.5067 173.168 90.4621L174.372 90.2615L175.42 90.4064L177.828 90.5625L178.686 90.5402C179.523 90.5179 180.225 90.451 181.028 90.529L182.711 90.674L184.183 90.7074H185.175C185.487 90.7297 186.167 90.6182 186.446 90.752L187.639 91.3094L188.664 91.655C189.233 92.8814 190.459 93.2047 190.582 93.8736C190.671 94.3753 190.917 94.799 191.574 94.877V95.7355L191.53 96.6943C191.53 96.8057 191.44 96.973 191.307 97.2405C191.195 97.1402 191.284 97.2182 191.407 97.3297L191.374 98.6341L191.318 99.5371V100.217C191.318 100.63 191.262 101.031 190.95 101.287L190.248 101.867L189.657 102.38L189.144 102.848L188.274 103.629L187.059 104.755L185.008 106.695C184.729 106.951 184.328 107.285 184.138 107.586L183.413 108.724C183.291 108.913 182.934 109.248 182.745 109.381L181.284 110.463L180.359 111.399L179.456 112.325L178.698 113.049L177.036 115.246L176.39 116.004L174.015 118.445L173.257 119.203L172.142 120.318C171.228 121.232 170.347 122.336 169.6 123.395L169.244 123.73C169.199 123.875 169.11 124.098 169.032 124.187L168.296 124.989L167.426 125.937L166.824 126.595L166.122 127.643L164.661 129.237C164.438 129.482 164.193 129.984 163.914 130.084L162.71 130.553C162.175 130.764 161.819 130.965 161.473 131.422L160.815 132.303L160.068 133.05C159.834 133.284 159.544 133.44 159.254 133.607L158.385 134.131L157.471 134.488C157.248 134.577 156.88 134.99 156.724 135.224C156.757 135.815 156.634 136.506 156.122 136.818C155.932 136.941 155.386 137.008 155.252 137.175L154.75 137.788C153.502 138 153.736 139.628 151.952 139.672L151.105 140.798L150.302 140.932L149.444 141.746C149.154 142.025 148.763 142.136 148.384 142.359L147.537 142.861L146.467 143.519C146.277 143.898 146.088 144.043 145.798 144.288L144.505 145.347C143.769 145.949 143.97 146.729 143.156 147.287L142.052 147.577C141.885 147.621 141.762 148.145 141.64 148.279C141.283 148.658 140.736 148.981 140.235 149.271C140.569 149.539 140.993 150.096 140.815 150.408C140.068 151.702 140.859 151.702 140.681 152.504L140.435 153.642C140.859 153.987 141.026 154.556 140.748 154.946C140.469 155.336 140.391 155.693 140.614 156.161C140.77 156.473 140.681 156.73 140.513 157.098C140.346 157.443 140.558 158.212 140.513 158.591L140.257 160.721C140.157 161.524 140.848 162.003 140.58 163.408L140.201 163.82L139.99 165.27C139.923 165.704 140.001 166.251 140.224 166.585C140.748 167.399 141.049 168.246 140.803 169.216C140.725 169.528 140.77 169.874 140.915 170.186C141.115 170.621 140.915 171.067 140.803 171.524L140.513 172.65L140.346 173.642V175.571L141.104 176.095L139.822 177.622C139.633 177.845 139.588 178.391 139.677 178.67L141.16 178.391H143.334L144.594 178.481L145.987 178.57L147.18 178.369H149.41C149.901 178.347 150.335 178.258 150.837 178.146C151.517 177.99 152.298 178.146 153.011 178.157L155.899 178.213C156.166 178.213 156.657 177.968 156.924 177.89C157.85 177.645 158.753 177.644 159.745 177.656C160.47 177.667 160.737 177.31 161.729 177.433L163.859 177.689L166.233 177.723C166.913 177.723 167.739 177.856 168.441 178.012L169.756 178.313L169.712 179.127L169.678 180.008L169.634 181.647L169.611 182.606V183.821L169.678 184.423L169.645 185.337L169.701 186.463L169.779 186.508ZM192.812 65.7791L192.745 65.8572L192.812 65.924L192.879 65.8572L192.812 65.7791ZM171.496 101.02H170.548C169.4 101.031 168.965 100.44 167.906 100.34L166.635 100.217C166.1 100.161 165.643 100.106 165.096 99.8939C164.806 99.7824 164.238 99.5595 163.959 99.5818L163.391 99.6263C163.179 99.6375 162.811 99.6598 162.643 99.7378L161.295 100.351C160.492 100.719 159.945 101.254 159.533 102.079C159.21 102.715 158.195 102.414 157.638 103.885L156.59 104.342C156.155 104.922 155.631 105.702 154.984 105.981L153.412 106.26L153.334 107.453C153.323 107.687 153.223 108.077 153.078 108.211C152.688 108.545 152.041 108.244 151.684 108.545L150.871 109.225L150.826 109.939L149.299 110.563C148.986 110.686 148.741 110.786 148.552 111.065C148.128 111.678 147.66 111.277 147.336 112.202C147.203 112.581 146.935 112.871 146.668 113.161C145.798 114.12 145.374 113.462 144.56 114.521L143.735 115.591C143.602 115.758 142.966 115.669 142.743 115.77C142.208 116.026 142.386 116.962 141.628 117.319L140.658 117.765L139.187 118.657C138.607 119.003 138.886 119.872 137.749 120.118C137.08 120.262 136.466 121.076 135.296 121.166L133.813 121.277C133.59 121.288 133.022 121.455 132.854 121.31L132.208 120.697L130.848 119.449L130.145 118.902C130.145 118.902 130.101 118.858 129.889 118.791L129.644 118.534L128.986 117.854L127.971 116.795L127.414 116.16L126.433 115.234L127.157 114.945L127.18 113.863L127.782 113.027C128.15 112.525 129.186 113.205 129.588 112.224C129.811 111.678 130.469 111.734 130.68 111.254C130.825 110.92 131.015 110.262 131.271 110.095L131.962 109.671L132.966 109.125C133.49 108.835 133.713 108.456 134.014 107.932L134.516 107.062C134.772 106.628 135.441 106.951 135.876 106.516L136.567 105.825C137.347 105.056 138.161 105.647 138.618 104.576C138.763 104.231 139.008 103.863 139.287 103.606L140.246 102.748C140.413 102.592 140.859 102.436 141.093 102.358C141.64 101.198 142.353 101.076 142.565 100.295L142.81 99.4368C142.81 99.4368 142.465 99.3364 142.353 99.381C141.461 99.7489 140.313 99.4926 139.365 99.2696L138.005 98.9463H135.943C135.53 98.924 135.162 98.9463 134.75 99.0578C134.226 99.2027 133.757 99.1469 133.189 99.0578C132.408 98.9463 131.394 99.1581 130.691 98.9351C130.212 98.7791 129.933 98.5115 129.398 98.6676C128.975 98.7902 128.317 98.8013 127.927 98.6898L126.611 98.2997C126.098 98.1436 125.374 98.3108 124.872 98.2439C124.058 98.1324 123.423 97.9764 122.587 98.1659C122.375 98.2105 121.862 98.3331 121.639 98.2997L120.535 98.099C120.123 98.0209 119.632 97.9652 119.298 97.8091C118.997 97.6642 118.651 97.5081 118.372 97.4858L116.544 97.3521L114.994 97.2405L113.088 96.8949C112.831 96.8503 112.274 96.9506 112.017 97.0064L110.446 97.3855C110.067 97.4747 109.721 97.5304 109.342 97.4078C108.963 97.2851 108.651 97.3297 108.238 97.3297H107.335L106.176 97.2294C105.373 97.1736 104.648 97.3854 103.834 97.3631L102.474 97.3186L101.17 97.2851C100.98 97.2851 100.679 97.352 100.434 97.4078L98.6949 97.7756C98.3493 97.4969 98.026 97.3743 97.6692 97.3521L96.1197 97.274C95.919 97.274 95.4284 97.2182 95.25 97.1179C94.7595 96.7946 94.0125 96.4044 93.3882 96.527L92.4629 96.7054L91.4037 97.0622C91.1361 96.9061 90.8463 96.7723 90.6568 96.7723L89.2521 96.7277C88.7504 96.7165 88.349 96.7835 87.8473 96.7054C87.5463 96.6608 87.3122 96.672 86.9889 96.8392C87.5463 97.5193 88.0369 97.0287 89.1294 98.1547C89.5531 98.5895 90.0659 98.7568 90.5119 99.1581L91.9834 100.507C92.5409 100.819 93.1652 100.998 93.6669 101.321L94.269 101.7L95.1274 102.246C95.2835 102.347 95.5064 102.636 95.6514 102.815C96.1308 103.406 96.8443 103.863 97.3237 104.409C97.7027 104.833 97.9034 105.156 98.4609 105.412C98.9737 105.658 99.4084 106.204 99.7875 106.661L100.166 107.118C100.356 107.341 100.546 107.564 100.769 107.731L101.571 108.356C101.839 108.568 102.04 108.902 102.184 109.248C102.452 109.917 102.976 109.939 103.277 110.652L103.89 111.132C104.191 111.377 104.392 111.678 104.648 112.068C104.838 112.336 105.462 112.581 105.785 112.793C106.61 113.339 106.811 113.986 107.48 114.409C108.628 115.145 108.483 116.093 108.829 116.349L109.866 117.119L110.958 118.222C111.181 118.456 111.36 118.668 111.65 118.769C112.118 118.925 112.274 119.192 112.441 119.694C112.664 120.341 113.489 120.352 114.247 121.277L114.872 122.035C115.139 122.37 115.853 122.113 116.232 123.273L116.834 123.808C116.979 123.942 117.269 124.321 117.458 124.399L118.985 125.056C119.409 125.625 119.844 126.205 120.424 126.506C120.925 126.762 121.237 127.019 121.538 127.498L122.185 127.944L123.099 128.579L124.225 129.594L125.34 130.419L126.455 131.244L127.169 131.79L128.428 132.805L131.126 134.165C131.45 134.332 131.706 134.678 131.951 135.023C132.319 135.558 133.345 135.224 133.412 135.826L133.523 136.774L133.49 138.145C134.348 138.446 135.207 138.033 135.686 137.309L136.255 136.45C136.433 136.172 137.124 135.937 137.448 135.77L138.941 135.023L139.822 134.555L140.781 133.92C141.283 133.585 141.461 132.325 142.264 131.511L143.312 130.831C144.07 130.33 144.627 130.764 144.761 130.14C144.873 129.661 145.051 129.371 145.352 129.048C146.378 127.966 147.548 128.903 147.86 128C148.396 126.428 149.254 126.539 149.733 126.004L150.536 125.112C151.105 124.488 151.484 124.711 151.93 124.042C152.309 123.473 152.866 122.972 153.557 122.827L153.78 121.567L154.393 120.965C154.851 120.519 155.598 120.307 156.2 120.039L157.147 119.627C157.705 119.393 157.861 119.025 157.916 118.367C157.95 118.022 158.374 117.319 158.764 117.23L159.867 116.962L161.172 116.405L161.306 115.357C161.361 114.945 161.417 114.666 161.83 114.499C162.331 114.298 162.677 114.019 162.967 113.54C163.357 112.893 164.16 113.462 164.595 112.436C165.308 110.742 166.579 111.633 166.59 110.396C167.114 110.162 167.605 109.694 167.527 109.047L167.95 108.49C168.731 107.475 169.143 108.044 170.113 107.207L170.949 106.494C171.451 106.059 171.763 105.457 172.075 104.877C172.287 104.71 172.633 104.409 172.733 104.175L173.19 103.227C173.413 102.759 173.904 103.172 174.026 102.57C174.138 102.012 174.316 101.6 174.561 101.176L173.212 101.087L171.518 100.986L171.496 101.02ZM130.647 118.835L130.58 118.902L130.647 118.969L130.714 118.902L130.647 118.835ZM173.246 118.98L173.179 119.047L173.246 119.114L173.38 119.047L173.246 118.98Z" fill="black"/>
<path d="M74.3468 90.6963C74.2465 90.6963 74.2799 90.6406 74.3245 90.5737L74.3468 90.6963Z" fill="black"/>
</g>
<defs>
<clipPath id="clip0_137_2335">
<rect width="250" height="250" fill="white"/>
</clipPath>
</defs>
</svg>
