<?xml version="1.0" standalone="no"?>
<!DOCTYPE svg PUBLIC "-//W3C//DTD SVG 20010904//EN"
 "http://www.w3.org/TR/2001/REC-SVG-20010904/DTD/svg10.dtd">
<svg version="1.0" xmlns="http://www.w3.org/2000/svg"
 width="500.000000pt" height="500.000000pt" viewBox="177 136 154 208"
 preserveAspectRatio="xMidYMid meet">
<metadata>
Created by potrace 1.16, written by Peter Selinger 2001-2019
</metadata>
<g transform="translate(0.000000,500.000000) scale(0.100000,-0.100000)"
fill="#000000" stroke="none">
<path d="M1867 3545 c-37 -37 -13 -78 56 -95 148 -37 203 -53 209 -58 3 -4 16
-54 28 -111 12 -57 24 -110 27 -117 4 -11 -7 -14 -45 -14 -95 0 -110 -20 -86
-112 26 -101 15 -200 -37 -328 -41 -101 -43 -109 -43 -215 -1 -128 9 -169 63
-253 64 -98 165 -162 304 -191 l77 -16 0 -142 0 -143 -103 0 c-105 0 -128 -7
-140 -42 -3 -9 2 -27 13 -40 18 -23 19 -23 290 -23 257 0 272 1 286 19 19 27
18 42 -6 66 -17 17 -33 20 -125 20 l-105 0 0 143 0 142 78 16 c126 27 220 83
289 174 96 127 103 329 18 513 -14 29 -25 56 -25 61 0 4 28 13 63 19 105 17
143 39 212 123 68 83 83 214 37 321 -27 60 -96 130 -159 160 -71 33 -200 33
-269 -2 -93 -48 -161 -136 -180 -235 l-6 -36 -142 3 -141 3 -36 145 c-20 80
-40 153 -44 162 -8 19 -57 40 -135 58 -30 7 -64 16 -76 20 -12 5 -46 11 -76
15 -44 6 -58 4 -71 -10z m1119 -216 c38 -12 90 -61 115 -111 35 -69 26 -133
-33 -227 -19 -32 -105 -71 -155 -71 -51 0 -51 2 -26 116 l17 77 -23 18 c-18
15 -40 19 -102 19 -91 0 -91 1 -54 76 27 54 76 93 139 110 41 12 65 10 122 -7z
m-222 -367 c-6 -74 6 -172 26 -211 4 -9 13 -28 19 -43 6 -16 15 -38 21 -50 37
-88 48 -233 22 -285 -5 -10 -16 -31 -23 -48 -21 -46 -95 -112 -153 -139 -111
-51 -265 -52 -394 -4 -61 23 -172 123 -172 155 0 10 -7 31 -15 46 -18 35 -15
186 5 232 7 17 19 44 26 60 45 108 56 159 52 262 l-3 103 298 0 297 0 -6 -78z"/>
</g>
</svg>
