<?xml version="1.0" standalone="no"?>
<!DOCTYPE svg PUBLIC "-//W3C//DTD SVG 20010904//EN"
 "http://www.w3.org/TR/2001/REC-SVG-20010904/DTD/svg10.dtd">
<svg version="1.0" xmlns="http://www.w3.org/2000/svg"
 width="500.000000pt" height="500.000000pt" viewBox="44 51 410 399"
 preserveAspectRatio="xMidYMid meet">
<metadata>
Created by potrace 1.16, written by Peter Selinger 2001-2019
</metadata>
<g transform="translate(0.000000,500.000000) scale(0.100000,-0.100000)"
fill="#000000" stroke="none">
<path d="M3352 4390 c-19 -12 -31 -16 -27 -10 3 5 4 10 1 10 -10 0 -112 -41
-161 -64 -27 -13 -68 -33 -89 -43 -57 -26 -156 -125 -156 -155 0 -13 -10 -35
-21 -47 -32 -34 -68 -109 -83 -172 -16 -68 -15 -82 12 -140 15 -33 21 -64 21
-105 -1 -33 0 -63 1 -69 5 -16 -17 -62 -33 -68 -13 -5 -13 -2 -1 21 7 14 11
28 9 30 -8 8 -26 -11 -45 -48 -11 -21 -44 -63 -73 -94 -30 -30 -52 -58 -49
-61 3 -3 -1 -5 -10 -5 -8 0 -21 -11 -28 -25 -7 -14 -17 -25 -21 -25 -5 0 -16
-14 -24 -30 -9 -17 -20 -28 -25 -25 -5 3 -14 -4 -20 -15 -6 -11 -15 -20 -21
-20 -12 0 -24 -12 -60 -60 -15 -19 -49 -58 -76 -87 -28 -28 -53 -58 -56 -67
-4 -9 -13 -16 -21 -16 -7 0 -16 -7 -20 -15 -3 -8 -12 -12 -21 -9 -11 5 -15 0
-15 -19 0 -28 -56 -77 -89 -77 -15 0 -21 -6 -21 -22 0 -19 -2 -20 -10 -8 -8
13 -10 12 -10 -3 0 -11 -5 -15 -11 -11 -8 4 -9 0 -4 -15 4 -12 2 -21 -4 -21
-6 0 -11 5 -11 11 0 5 -5 7 -11 3 -8 -5 -8 -9 1 -14 15 -9 -4 -50 -23 -50 -7
0 -20 -9 -30 -20 -9 -11 -26 -20 -37 -20 -13 0 -18 -5 -14 -15 4 -10 0 -15
-11 -15 -10 0 -65 -47 -123 -105 -58 -58 -106 -105 -108 -105 -1 0 -47 -45
-103 -100 -60 -60 -120 -109 -148 -122 -26 -12 -41 -24 -34 -26 8 -3 5 -9 -9
-19 -12 -8 -19 -21 -16 -29 3 -8 1 -14 -4 -14 -6 0 -10 5 -10 11 0 5 -5 7 -10
4 -5 -3 -10 -1 -10 6 0 8 -11 9 -35 5 -30 -6 -41 -3 -66 18 -17 15 -36 26 -42
26 -7 0 0 -8 16 -18 43 -26 33 -35 -30 -26 -32 5 -83 7 -112 6 -61 -3 -62 3
-4 23 32 12 34 14 12 15 -14 0 -48 -6 -75 -14 -27 -8 -69 -18 -94 -21 -53 -9
-107 -41 -166 -101 -25 -24 -49 -44 -54 -44 -6 0 -10 -7 -10 -16 0 -8 -30 -45
-67 -82 -41 -40 -53 -55 -30 -39 20 15 37 26 37 23 0 -2 -13 -33 -30 -68 -16
-34 -30 -70 -30 -80 0 -9 -5 -18 -12 -20 -7 -3 -12 -24 -13 -49 0 -24 -4 -49
-8 -56 -4 -6 -3 -15 3 -18 8 -5 8 -11 0 -20 -7 -8 -7 -15 -1 -19 5 -3 7 -15 4
-27 -5 -16 -8 -18 -15 -7 -7 9 -8 7 -3 -7 3 -11 7 -24 8 -30 1 -5 11 -18 22
-29 14 -13 16 -20 8 -23 -15 -5 -18 -33 -4 -33 5 0 11 -9 14 -20 3 -11 12 -20
21 -20 9 0 13 -6 10 -13 -3 -8 14 -34 38 -60 24 -25 53 -59 66 -76 15 -20 32
-31 48 -31 13 0 24 -5 24 -11 0 -5 5 -7 12 -3 7 4 8 3 4 -4 -4 -7 6 -20 26
-31 36 -23 49 -20 24 5 -9 9 -16 18 -14 20 2 1 46 -4 98 -12 102 -15 141 -15
152 1 5 6 12 5 19 -2 15 -15 12 -102 -4 -121 -16 -20 -9 -81 13 -120 11 -17
16 -40 13 -49 -4 -10 -2 -14 5 -9 9 6 32 -21 32 -38 0 -12 -28 -6 -33 7 -3 6
-6 2 -6 -10 -1 -18 4 -23 25 -23 18 0 25 -4 21 -14 -3 -8 1 -13 11 -12 9 0 16
-4 15 -11 -3 -12 65 -84 115 -124 29 -23 52 -25 52 -5 0 12 6 13 33 4 17 -6
37 -14 42 -18 6 -5 36 -14 67 -21 31 -7 55 -16 52 -20 -9 -16 27 -16 82 -1 32
9 61 19 64 22 3 3 20 10 37 17 42 14 56 -3 23 -29 -12 -10 -18 -18 -12 -18 6
0 21 12 34 28 24 27 99 72 129 75 8 2 28 15 44 30 17 15 33 27 36 27 8 0 22
40 20 54 -1 5 2 12 6 15 4 3 33 38 64 76 62 78 94 133 83 143 -4 4 -9 1 -11
-5 -12 -35 -18 -3 -16 89 3 113 6 149 17 166 4 7 4 12 -1 12 -4 0 -8 15 -9 33
0 17 -4 46 -8 62 -5 22 -5 26 3 15 9 -12 11 -12 16 2 4 10 4 21 1 26 -3 6 1
16 10 23 12 10 17 10 23 0 6 -8 10 -3 14 16 4 17 19 36 42 51 21 13 35 30 35
42 0 11 4 20 8 20 5 0 15 12 23 28 26 51 53 82 71 82 11 0 16 5 13 10 -3 6 2
10 12 11 10 0 13 3 6 6 -9 3 -5 12 10 28 12 12 44 46 71 74 27 28 52 51 57 51
5 0 9 6 9 14 0 8 9 18 20 21 11 3 20 11 20 16 0 18 133 149 152 149 10 0 18
-4 18 -10 0 -5 5 -10 10 -10 6 0 10 6 10 13 0 13 134 169 151 175 5 2 9 10 9
18 0 8 3 14 8 14 4 0 25 18 47 40 22 21 45 39 52 40 6 0 18 8 25 18 7 10 26
27 41 37 15 10 25 20 22 23 -3 3 9 14 26 24 16 10 27 23 24 28 -4 6 1 7 11 3
12 -4 15 -3 10 5 -4 7 -1 12 7 12 8 0 41 25 72 56 32 30 68 62 81 71 13 8 24
21 24 29 0 8 16 20 35 28 19 8 38 23 42 33 7 21 60 73 74 73 6 0 8 -3 6 -7 -3
-5 25 -7 61 -6 47 1 72 -3 84 -14 9 -8 38 -16 65 -18 26 -2 63 -6 81 -8 34 -3
34 -3 11 14 l-22 17 22 11 c18 10 26 10 39 -1 9 -7 13 -8 9 -2 -5 8 7 10 39 6
60 -6 100 13 183 91 l23 22 -12 -23 c-10 -21 -10 -23 7 -14 22 13 80 69 113
111 14 17 30 31 37 31 7 0 13 7 13 16 0 8 4 13 9 10 6 -4 32 34 35 54 1 3 4
10 7 15 12 20 21 87 10 81 -5 -4 -12 -2 -16 4 -3 6 1 13 10 16 13 6 14 8 3 15
-10 7 -10 9 0 9 9 0 12 15 10 50 -2 27 -5 50 -8 50 -3 0 -4 27 -3 60 1 32 -2
62 -7 65 -6 4 -10 19 -10 34 0 15 -5 32 -12 39 -8 8 -9 12 -1 12 6 0 14 -6 17
-12 3 -7 3 3 0 22 -4 19 -12 42 -20 51 -8 9 -11 19 -7 22 3 4 -1 7 -10 7 -9 0
-35 20 -58 45 -23 25 -44 43 -46 41 -2 -2 -19 12 -37 30 -18 18 -46 36 -62 39
-16 4 -49 16 -73 27 -34 16 -45 18 -51 8 -4 -7 -12 -10 -18 -6 -5 3 -15 0 -21
-8 -8 -10 -24 -11 -62 -5 -28 5 -54 10 -57 13 -2 3 2 26 11 52 14 43 14 51 -3
98 -10 28 -27 87 -40 131 -22 83 -60 145 -87 145 -11 0 -6 -10 16 -35 55 -63
33 -49 -60 39 -72 67 -100 86 -131 91 -24 4 -44 3 -52 -4 -9 -8 -15 -8 -18 -2
-1 6 -24 11 -50 13 -27 2 -48 7 -48 11 0 4 -9 3 -20 -3 -35 -19 -21 18 15 38
14 8 16 11 5 12 -8 0 -30 -9 -48 -20z m16 -86 c-25 -13 -31 -13 -55 0 -28 15
-27 15 27 15 54 0 55 0 28 -15z m165 -10 c15 -8 27 -19 27 -25 0 -6 -5 -7 -12
-3 -17 10 -58 14 -58 4 0 -4 16 -11 35 -14 36 -7 46 -22 20 -32 -24 -9 -76 16
-73 35 3 13 -5 15 -39 13 -24 -2 -43 1 -43 6 0 16 29 35 45 28 10 -4 14 -2 9
5 -8 14 49 3 89 -17z m82 3 c31 -16 110 -95 103 -103 -4 -3 -14 1 -23 9 -8 9
-24 18 -35 22 -10 3 -22 14 -25 24 -3 10 -26 26 -50 36 -25 9 -45 21 -45 26 0
10 43 2 75 -14z m-357 1 c-4 -11 -35 -31 -110 -73 -16 -9 -28 -14 -28 -11 0
15 14 36 25 36 7 0 19 7 26 17 13 15 64 42 82 43 5 0 7 -5 5 -12z m97 -48 c-3
-5 -10 -10 -16 -10 -5 0 -9 5 -9 10 0 6 7 10 16 10 8 0 12 -4 9 -10z m254 -55
c26 -50 23 -72 -5 -30 -12 18 -20 23 -27 16 -19 -19 -35 -12 -30 12 6 24 22
47 32 47 3 0 17 -20 30 -45z m-284 25 c-3 -5 -10 -10 -16 -10 -5 0 -9 5 -9 10
0 6 7 10 16 10 8 0 12 -4 9 -10z m-245 -9 c0 -6 -13 -18 -30 -28 -16 -9 -30
-20 -30 -23 0 -10 -52 -70 -61 -70 -4 0 4 20 17 44 29 53 104 107 104 77z
m390 -1 c0 -5 -4 -10 -10 -10 -5 0 -10 5 -10 10 0 6 5 10 10 10 6 0 10 -4 10
-10z m-70 -10 c0 -5 -5 -10 -11 -10 -5 0 -7 5 -4 10 3 6 8 10 11 10 2 0 4 -4
4 -10z m299 -47 c1 -19 -27 -4 -34 18 -4 10 -11 19 -16 19 -5 0 -9 5 -9 11 0
14 59 -33 59 -48z m-248 12 c0 -13 -41 -19 -41 -7 0 11 20 22 33 18 5 -1 8 -6
8 -11z m54 -24 c8 -14 -30 -32 -51 -24 -16 6 -16 7 2 20 21 15 40 17 49 4z
m-315 -21 c0 -5 -5 -10 -11 -10 -5 0 -7 5 -4 10 3 6 8 10 11 10 2 0 4 -4 4
-10z m180 -6 c0 -11 -45 -42 -53 -37 -11 7 22 43 40 43 7 0 13 -3 13 -6z m179
-32 c-5 -2 -9 -8 -9 -14 0 -6 8 -7 18 -4 16 7 16 6 0 -11 -17 -16 -19 -16 -35
0 -14 14 -15 17 -3 17 11 1 10 4 -4 15 -17 13 -18 15 -3 15 9 0 17 5 17 12 0
6 6 3 14 -8 8 -10 10 -20 5 -22z m-464 -2 c-10 -11 -20 -18 -23 -15 -3 3 3 14
13 25 10 11 20 18 23 15 3 -3 -3 -14 -13 -25z m115 5 c-7 -8 -17 -15 -22 -15
-6 0 -5 7 2 15 7 8 17 15 22 15 6 0 5 -7 -2 -15z m70 -4 c0 -11 -89 -91 -101
-91 -18 0 -8 27 19 52 43 40 82 58 82 39z m140 -12 c0 -6 -8 -18 -17 -27 -12
-12 -18 -13 -21 -4 -2 7 -8 10 -13 6 -19 -12 -8 16 13 30 22 15 38 13 38 -5z
m110 -39 c0 -5 -5 -12 -11 -15 -12 -8 -61 34 -53 46 6 11 64 -17 64 -31z m125
-41 c-4 -10 -10 -19 -14 -19 -11 0 -23 78 -14 93 10 16 35 -50 28 -74z m-355
57 c0 -7 -13 -19 -30 -26 -16 -7 -30 -16 -30 -20 0 -4 -12 -12 -27 -19 -21 -9
-15 -1 22 33 53 48 65 54 65 32z m-345 -6 c3 -5 1 -10 -4 -10 -6 0 -11 5 -11
10 0 6 2 10 4 10 3 0 8 -4 11 -10z m120 -10 c-10 -11 -21 -17 -24 -14 -3 3 3
12 13 20 28 20 32 17 11 -6z m396 -11 c23 -23 19 -49 -8 -49 -24 1 -53 24 -53
42 0 34 31 37 61 7z m126 6 c0 -8 -6 -15 -14 -15 -14 0 -17 12 -6 23 11 11 20
8 20 -8z m-257 -18 c0 -19 -40 -41 -53 -28 -7 7 -3 16 14 30 25 20 39 19 39
-2z m-390 8 c0 -4 -6 -18 -14 -33 -8 -15 -17 -53 -21 -85 -5 -41 -12 -57 -22
-57 -12 0 -14 8 -8 37 4 21 12 41 18 45 7 4 9 8 5 8 -10 0 22 90 33 90 5 0 9
-2 9 -5z m620 -20 c10 -12 10 -19 2 -27 -15 -15 -48 14 -38 31 10 15 21 14 36
-4z m-417 -36 c-25 -26 -38 -11 -16 20 11 16 18 20 26 12 8 -8 5 -17 -10 -32z
m122 1 c0 -9 -7 -14 -17 -12 -11 2 -18 -3 -18 -13 0 -17 -16 -20 -25 -4 -9 14
25 50 44 47 9 -2 16 -10 16 -18z m259 -3 c8 -13 6 -20 -8 -30 -16 -12 -21 -12
-36 2 -15 14 -15 18 -2 34 18 20 31 18 46 -6z m260 -32 c-10 -26 -19 -16 -17
17 2 45 3 46 13 20 5 -12 7 -29 4 -37z m-700 8 c-26 -59 -30 -67 -41 -70 -6
-2 -13 8 -15 22 -4 18 -2 25 7 21 8 -3 11 2 8 14 -3 11 4 24 18 34 35 24 40
20 23 -21z m302 16 c18 -20 18 -21 -1 -35 -20 -14 -27 -19 -57 -42 -15 -12
-20 -12 -33 1 -9 10 -11 18 -5 22 6 4 8 11 5 16 -6 8 9 13 29 10 5 -1 6 5 3
13 -4 9 1 20 11 25 24 14 26 14 48 -10z m245 -26 c4 -12 4 -25 0 -28 -14 -8
-55 30 -47 44 12 18 38 9 47 -16z m-432 -19 c2 -10 0 -15 -5 -11 -4 4 -14 -3
-21 -15 -7 -13 -12 -17 -13 -10 0 7 -4 10 -10 7 -15 -9 -12 8 6 33 18 26 37
24 43 -4z m271 16 c0 -5 -4 -10 -10 -10 -5 0 -10 5 -10 10 0 6 5 10 10 10 6 0
10 -4 10 -10z m-33 -26 c2 -6 -8 -16 -22 -24 -20 -11 -28 -11 -38 -1 -9 10 -8
15 8 27 21 16 46 15 52 -2z m96 -27 c-5 -30 -8 -35 -20 -26 -11 10 -11 14 2
29 8 9 15 23 15 30 0 7 2 11 5 9 2 -3 2 -22 -2 -42z m87 -14 c0 -7 -9 -13 -19
-13 -11 0 -23 -4 -26 -10 -11 -18 -26 -11 -17 8 5 9 7 23 5 30 -3 7 -2 20 1
29 6 14 10 13 31 -7 14 -13 25 -29 25 -37z m-625 -29 c-3 -19 -9 -34 -14 -34
-8 0 -5 46 6 90 l7 25 4 -24 c2 -13 1 -39 -3 -57z m505 66 c0 -5 -7 -10 -15
-10 -8 0 -15 5 -15 10 0 6 7 10 15 10 8 0 15 -4 15 -10z m-370 -15 c0 -3 -9
-14 -20 -25 -13 -13 -20 -15 -20 -7 0 7 5 18 12 25 12 12 28 16 28 7z m148 -7
c17 -17 15 -24 -8 -25 -14 -1 -20 4 -20 18 0 22 11 24 28 7z m182 -23 c-7 -8
-18 -15 -26 -15 -12 0 -29 -14 -89 -71 -21 -20 -45 -25 -45 -11 0 9 57 59 119
103 37 27 65 23 41 -6z m-85 16 c6 -11 -33 -36 -42 -27 -7 7 16 36 28 36 4 0
10 -4 14 -9z m-137 -27 c11 -23 9 -28 -30 -64 -44 -40 -58 -48 -58 -30 0 6 5
10 10 10 6 0 10 6 10 14 0 7 9 25 20 39 11 14 20 32 20 41 0 24 15 19 28 -10z
m263 -10 c11 -14 10 -18 -6 -30 -24 -18 -34 -18 -41 1 -6 15 11 45 26 45 4 0
14 -7 21 -16z m-382 -45 c-38 -32 -51 -36 -43 -14 4 8 11 15 18 15 6 1 20 12
31 25 11 14 22 20 24 13 2 -6 -11 -24 -30 -39z m-192 19 c-25 -100 -31 -107
-27 -33 2 45 6 55 22 55 6 0 8 -10 5 -22z m133 15 c0 -15 -34 -83 -42 -83 -8
0 -5 23 9 73 4 16 33 25 33 10z m250 -3 c0 -5 -10 -15 -22 -21 -13 -7 -28 -19
-35 -28 -8 -10 -12 -11 -13 -4 0 13 49 63 62 63 5 0 8 -4 8 -10z m313 -8 c5
-8 3 -20 -5 -29 -10 -13 -10 -17 0 -20 6 -3 10 -9 7 -14 -11 -16 -32 15 -27
40 3 20 1 23 -7 11 -12 -17 -26 -7 -18 14 7 17 39 16 50 -2z m-179 -43 c-21
-23 -33 -24 -41 -3 -9 23 25 48 44 32 11 -9 11 -14 -3 -29z m103 -13 c-10 -24
-27 -19 -23 7 3 12 5 24 5 27 1 2 6 -1 12 -7 7 -7 9 -19 6 -27z m-567 -26 c0
-29 -4 -40 -15 -40 -8 0 -15 5 -15 11 0 5 5 7 10 4 6 -3 10 -2 10 4 0 5 -4 12
-9 15 -11 7 -2 46 10 46 5 0 9 -18 9 -40z m911 30 c10 0 19 -7 19 -15 0 -8 -9
-15 -20 -15 -11 0 -20 5 -20 10 0 6 -7 10 -15 10 -8 0 -15 5 -15 11 0 6 7 8
16 5 9 -3 24 -6 35 -6z m79 -6 c0 -2 -11 -4 -25 -4 -14 0 -25 4 -25 9 0 4 11
6 25 3 14 -2 25 -6 25 -8z m87 4 c41 -18 75 -46 64 -52 -17 -11 -101 36 -101
56 0 11 4 10 37 -4z m-917 -5 c0 -5 -5 -15 -10 -23 -7 -12 -12 -12 -22 -2 -10
10 -10 15 2 22 18 12 30 13 30 3z m78 -7 c-10 -7 -18 -17 -18 -22 -1 -12 -70
-46 -70 -34 0 6 3 10 8 10 4 0 22 14 40 30 18 17 39 30 45 30 7 0 4 -7 -5 -14z
m262 -5 c0 -22 -25 -45 -39 -36 -7 4 -5 15 5 31 19 29 34 31 34 5z m186 8
c-13 -8 -15 -14 -7 -19 9 -5 8 -10 -4 -20 -13 -11 -15 -9 -15 12 0 29 7 38 29
38 13 -1 12 -3 -3 -11z m-586 -8 c0 -6 -4 -13 -10 -16 -5 -3 -10 1 -10 9 0 9
5 16 10 16 6 0 10 -4 10 -9z m210 -4 c1 -4 -13 -19 -29 -33 -35 -29 -51 -16
-24 19 16 22 53 32 53 14z m93 -1 c8 -19 -15 -37 -32 -26 -17 10 -7 40 13 40
7 0 16 -6 19 -14z m178 -19 c-16 -16 -26 0 -10 19 9 11 15 12 17 4 2 -6 -1
-17 -7 -23z m433 -2 c22 -17 13 -35 -14 -28 -11 3 -17 9 -14 14 3 5 -2 9 -10
9 -9 0 -16 5 -16 10 0 14 32 12 54 -5z m188 2 c34 -12 83 -44 115 -76 8 -8 12
-22 10 -32 -3 -11 -1 -22 4 -25 5 -3 9 -15 9 -27 0 -17 -7 -11 -30 26 -17 26
-37 47 -45 47 -19 0 -19 -24 0 -40 17 -14 11 -30 -11 -30 -8 0 -12 5 -9 11 4
5 0 18 -8 27 -8 9 -20 28 -27 42 -13 25 -13 25 8 7 11 -11 26 -16 33 -12 8 6
5 13 -12 26 -17 13 -19 19 -9 19 13 0 13 2 1 9 -8 5 -21 7 -29 3 -10 -3 -13
-1 -8 6 4 7 1 12 -7 12 -10 0 -13 -11 -11 -40 3 -46 -5 -49 -41 -16 -28 26
-20 41 18 31 14 -4 18 -3 9 3 -7 5 -10 16 -6 25 3 9 7 17 8 17 0 0 18 -6 38
-13z m-1160 -19 c-7 -7 -12 -8 -12 -2 0 6 3 14 7 17 3 4 9 5 12 2 2 -3 -1 -11
-7 -17z m88 8 c0 -16 -26 -39 -38 -34 -15 5 6 48 23 48 8 0 15 -6 15 -14z
m498 -4 c2 -7 -7 -12 -22 -12 -27 0 -35 15 -13 23 17 7 30 3 35 -11z m107 -8
c0 -10 -8 -20 -17 -22 -18 -3 -26 27 -11 42 12 11 28 0 28 -20z m-779 -8 c8
-32 -6 -58 -17 -30 -11 28 -11 54 1 54 5 0 12 -11 16 -24z m400 12 c4 -6 -9
-25 -31 -45 -44 -39 -45 -39 -45 -12 0 11 4 17 10 14 6 -4 7 1 3 11 -11 29 47
59 63 32z m199 -26 c0 -18 4 -32 10 -32 5 0 2 -5 -8 -11 -10 -6 -14 -15 -10
-22 4 -7 -1 -6 -11 2 -9 8 -15 20 -12 26 2 7 -1 18 -7 24 -8 8 -8 11 1 11 7 0
11 3 11 8 -3 20 2 33 14 29 6 -2 12 -18 12 -35z m222 6 c0 -18 -6 -42 -13 -53
-14 -19 -14 -19 -14 2 0 33 12 83 20 83 3 0 7 -15 7 -32z m-547 4 c0 -16 -32
-52 -46 -52 -20 0 -18 10 8 37 22 23 38 30 38 15z m202 -7 c0 -5 -5 -11 -11
-13 -6 -2 -11 4 -11 13 0 9 5 15 11 13 6 -2 11 -8 11 -13z m628 5 c0 -5 6 -10
13 -10 8 0 22 -9 32 -20 23 -25 19 -25 -33 0 -42 20 -55 40 -27 40 8 0 15 -4
15 -10z m-950 -45 c-18 -19 -36 -32 -39 -29 -6 6 50 63 63 63 6 1 -5 -15 -24
-34z m506 -18 c-3 -12 -14 -27 -24 -34 -18 -11 -19 -9 -12 22 9 41 33 71 38
48 2 -8 1 -24 -2 -36z m348 38 c7 -20 -21 -32 -37 -16 -18 18 -34 13 -31 -11
1 -13 3 -26 3 -30 1 -5 8 -8 16 -8 8 0 15 -5 15 -11 0 -6 7 -3 16 6 11 11 20
13 27 6 6 -6 -1 -21 -22 -43 -20 -21 -31 -28 -31 -18 0 9 -9 24 -21 33 -11 10
-18 25 -15 33 8 22 -34 17 -54 -6 -11 -12 -21 -17 -24 -11 -4 6 -13 8 -21 4
-19 -7 -20 17 -1 42 12 17 16 17 30 6 13 -11 20 -11 28 -3 7 7 8 12 4 12 -5 0
-3 7 4 15 17 21 106 21 114 0z m-584 -10 c-7 -9 -15 -13 -17 -11 -7 7 7 26 19
26 6 0 6 -6 -2 -15z m272 -7 c-7 -7 -12 -8 -12 -2 0 6 3 14 7 17 3 4 9 5 12 2
2 -3 -1 -11 -7 -17z m-390 0 c5 -14 -14 -58 -24 -58 -5 0 -8 5 -8 10 0 6 -7
10 -15 10 -11 0 -10 6 7 25 24 28 34 31 40 13z m233 -8 c-4 -11 -2 -20 4 -20
6 0 11 -9 11 -20 0 -27 -14 -25 -30 5 -11 20 -11 27 0 40 17 21 23 19 15 -5z
m-469 -17 c-10 -10 -19 5 -10 18 6 11 8 11 12 0 2 -7 1 -15 -2 -18z m720 -58
c2 -19 -1 -35 -5 -35 -5 0 -25 -15 -45 -34 -21 -18 -45 -33 -54 -32 -9 0 -17
-5 -18 -11 -3 -25 -4 -25 -19 -13 -21 17 -19 30 5 30 17 0 19 5 14 25 -5 20
-3 24 10 19 9 -3 16 -10 16 -15 0 -5 7 -9 17 -9 15 0 15 2 -1 19 -11 12 -14
21 -7 26 6 3 11 11 11 17 0 6 -9 3 -19 -6 -23 -21 -40 -3 -19 21 11 14 11 16
-2 11 -20 -6 -48 -59 -42 -80 5 -22 -6 -23 -30 -1 -21 19 -23 33 -5 33 7 0 28
18 46 40 27 32 37 39 57 34 19 -5 24 -2 24 13 0 32 13 35 39 9 15 -15 26 -39
27 -61z m314 70 c16 -19 1 -19 -24 0 -16 12 -17 15 -4 15 8 0 21 -7 28 -15z
m-1080 1 c0 -3 -4 -8 -10 -11 -5 -3 -10 -1 -10 4 0 6 5 11 10 11 6 0 10 -2 10
-4z m177 -11 c0 -8 -5 -15 -10 -15 -5 0 -18 -11 -29 -25 -11 -14 -25 -24 -31
-22 -7 2 -20 -6 -30 -17 -17 -21 -17 -21 -15 9 2 22 8 29 21 27 9 -2 17 2 17
8 0 9 57 50 71 50 3 0 6 -7 6 -15z m215 -46 c-41 -41 -66 -60 -76 -56 -9 4
-16 11 -16 17 0 14 36 44 62 50 12 3 24 12 26 19 3 10 0 12 -12 8 -10 -4 -15
-3 -11 4 4 5 15 7 25 4 10 -3 21 -1 25 5 3 5 13 10 22 10 10 0 -8 -24 -45 -61z
m838 30 c0 -6 -4 -7 -10 -4 -5 3 -10 11 -10 16 0 6 5 7 10 4 6 -3 10 -11 10
-16z m-180 2 c0 -5 -7 -14 -15 -21 -12 -10 -15 -10 -15 2 0 8 3 18 7 21 9 10
23 9 23 -2z m109 0 c11 -7 5 -11 -23 -16 -39 -8 -52 -3 -41 14 8 13 45 14 64
2z m-1142 -27 c-9 -9 -28 6 -21 18 4 6 10 6 17 -1 6 -6 8 -13 4 -17z m463 6
c11 -11 20 -24 20 -30 0 -5 5 -10 10 -10 6 0 10 -5 10 -12 0 -16 -41 -58 -57
-58 -7 0 -13 -6 -13 -14 0 -7 -11 -21 -23 -29 -23 -15 -25 -14 -50 15 -29 32
-34 57 -15 76 13 13 45 0 64 -26 6 -8 16 -13 22 -11 8 3 2 15 -13 33 -31 36
-31 49 -2 69 28 20 24 20 47 -3z m-283 -2 c-2 -7 0 -20 4 -29 10 -20 -48 -89
-68 -82 -16 6 -17 33 -3 33 15 0 55 39 48 46 -4 3 -15 -3 -26 -14 -10 -10 -30
-22 -43 -25 -19 -5 -14 3 24 39 48 43 73 56 64 32z m691 -10 c7 -7 12 -20 12
-29 0 -10 6 -19 13 -22 10 -4 10 -7 0 -18 -11 -11 -13 -10 -13 5 0 11 -5 16
-14 13 -8 -3 -22 3 -31 13 -15 16 -15 22 -5 35 15 18 22 19 38 3z m306 0 c12
-13 20 -68 10 -68 -3 0 -12 7 -20 15 -9 8 -11 15 -5 15 6 0 11 5 11 11 0 5 -4
8 -8 5 -13 -8 -35 11 -28 23 9 15 25 14 40 -1z m-101 -23 c25 -22 49 -85 32
-85 -16 0 -43 45 -34 57 10 12 -7 30 -18 19 -9 -8 -34 15 -27 25 8 14 16 11
47 -16z m-1117 -27 c-19 -26 -22 -7 -4 25 7 13 13 17 15 10 3 -7 -3 -23 -11
-35z m-38 -24 c-7 -15 -19 -29 -26 -32 -9 -3 -5 12 10 41 24 47 39 38 16 -9z
m1078 -1 c-20 -20 -29 -24 -38 -15 -9 9 -7 15 7 26 11 8 23 12 27 9 5 -2 11 4
15 13 4 12 8 14 11 6 2 -7 -8 -25 -22 -39z m284 28 c5 -11 10 -27 10 -35 0
-28 -15 -17 -26 19 -12 37 -1 48 16 16z m-435 -21 c3 -6 1 -10 -4 -10 -6 0
-11 -7 -11 -15 0 -20 -36 -19 -44 1 -3 9 -11 12 -18 8 -7 -4 -2 5 11 19 19 20
28 24 42 17 10 -6 21 -15 24 -20z m519 -13 c1 -7 5 -18 10 -25 4 -7 5 -16 2
-19 -12 -12 -27 13 -32 53 -4 32 -3 36 6 21 7 -11 13 -24 14 -30z m-1094 8 c0
-22 -3 -25 -26 -19 -19 5 -25 4 -20 -5 4 -6 14 -11 22 -11 11 0 10 -4 -3 -18
-10 -10 -24 -17 -30 -14 -7 2 -13 -1 -13 -7 0 -6 6 -11 13 -11 8 0 7 -4 -3
-10 -22 -14 -28 -12 -36 13 -4 12 -11 25 -17 29 -6 3 9 5 34 3 42 -4 43 -4 24
11 -15 12 -17 18 -6 21 7 3 21 14 29 24 22 26 32 24 32 -6z m268 -7 c17 -17
15 -36 -9 -61 l-20 -22 -19 25 c-19 25 -19 25 2 47 25 26 30 27 46 11z m498
-20 c-1 -22 -36 -40 -36 -19 0 6 5 11 10 11 6 0 10 7 10 15 0 8 4 15 9 15 4 0
8 -10 7 -22z m165 12 c12 0 17 -5 14 -10 -4 -6 -16 -8 -27 -4 -17 5 -20 3 -15
-10 4 -9 2 -16 -3 -16 -6 0 -10 4 -10 9 0 5 -3 17 -7 27 -5 14 -3 16 11 11 10
-4 27 -7 37 -7z m-1237 -29 c-16 -16 -31 -25 -33 -20 -4 14 29 49 47 49 11 0
6 -9 -14 -29z m786 18 c0 -6 7 -8 16 -5 12 4 15 2 10 -9 -3 -8 0 -15 6 -15 9
0 9 -3 0 -12 -10 -10 -17 -10 -32 0 -16 10 -20 10 -20 -2 0 -8 6 -16 13 -19 9
-3 9 -7 -2 -20 -18 -23 -33 -21 -54 8 -20 28 -15 45 14 45 12 0 19 7 19 20 0
11 7 20 15 20 8 0 15 -5 15 -11z m-680 -53 c-12 -14 -27 -23 -31 -20 -5 3 -9
-2 -9 -10 0 -9 -4 -16 -10 -16 -15 0 -12 16 5 34 8 8 15 24 15 34 0 26 21 34
39 16 13 -12 12 -17 -9 -38z m878 35 c3 -8 -1 -12 -9 -9 -7 2 -15 10 -17 17
-3 8 1 12 9 9 7 -2 15 -10 17 -17z m-1095 -19 c-3 -12 -9 -19 -14 -16 -5 3 -4
14 2 25 13 26 20 21 12 -9z m1012 8 c-10 -11 -22 -20 -27 -20 -4 0 -3 9 4 20
7 11 19 20 27 20 11 0 10 -5 -4 -20z m208 14 c9 -10 -4 -34 -19 -34 -16 0 -16
2 -8 24 6 17 16 20 27 10z m151 -18 c-3 -9 -10 -13 -16 -10 -5 3 -4 12 3 20
15 18 22 13 13 -10z m-898 4 c8 0 14 -9 14 -21 0 -15 5 -19 15 -15 23 9 18 -6
-11 -31 l-27 -23 -22 23 c-12 12 -24 29 -28 38 -7 20 12 41 31 34 8 -3 20 -5
28 -5z m567 -42 c-15 -16 -33 -28 -40 -28 -7 0 -13 -4 -13 -10 0 -5 -4 -10
-10 -10 -18 0 -10 15 31 59 32 33 43 40 50 30 5 -9 -1 -23 -18 -41z m250 31
c3 -13 1 -19 -6 -16 -15 5 -22 37 -9 37 5 0 12 -9 15 -21z m-1149 -13 c-6 -16
-24 -23 -24 -8 0 10 22 33 27 28 2 -2 1 -11 -3 -20z m481 14 c-3 -5 -1 -10 6
-10 8 0 8 -4 -1 -15 -7 -8 -9 -15 -6 -15 4 0 2 -9 -4 -20 -9 -16 -15 -18 -30
-10 -28 15 -31 13 -24 -15 5 -21 3 -25 -14 -25 -13 0 -24 -10 -30 -27 -6 -16
-11 -21 -11 -12 -1 9 -10 19 -21 22 -21 5 -26 -3 -11 -18 5 -6 2 -17 -8 -27
-14 -14 -18 -15 -36 -2 -20 15 -20 16 8 40 15 13 35 24 44 24 9 0 13 3 10 7
-4 3 0 15 9 25 13 14 20 15 31 7 10 -9 12 -9 9 2 -7 18 14 45 50 64 34 18 37
18 29 5z m112 -9 c11 -17 9 -23 -14 -40 -14 -12 -29 -21 -32 -21 -14 0 -9 45
6 62 20 23 25 23 40 -1z m676 5 c6 -15 -28 -66 -44 -66 -14 0 -11 28 7 55 19
28 29 31 37 11z m-1453 -17 c0 -5 -4 -9 -10 -9 -5 0 -10 7 -10 16 0 8 5 12 10
9 6 -3 10 -10 10 -16z m90 -17 c-5 -9 -21 -30 -35 -47 -23 -28 -25 -28 -25 -8
0 13 12 30 30 43 17 12 27 26 24 32 -4 7 -2 8 4 4 8 -5 9 -12 2 -24z m1210 2
c0 -15 -37 -53 -52 -54 -5 0 -8 7 -8 16 0 8 5 12 11 8 8 -4 9 0 4 15 -5 15 -2
21 9 21 9 0 16 5 16 11 0 5 5 7 10 4 6 -3 10 -13 10 -21z m-1146 1 c3 -10 -1
-15 -13 -15 -10 0 -23 -10 -29 -22 -7 -15 -11 -18 -11 -8 -1 18 26 60 38 60 5
0 11 -7 15 -15z m709 -5 c32 -38 17 -69 -46 -97 -24 -11 -29 -10 -39 7 -7 11
-22 20 -33 20 -20 1 -20 1 0 12 11 6 28 19 38 29 10 11 23 19 29 19 6 0 9 -3
5 -6 -3 -3 3 -15 13 -27 26 -27 33 -18 15 17 -25 48 -14 63 18 26z m-898 -35
c-11 -11 -22 -20 -24 -18 -2 1 -10 -5 -18 -13 -8 -8 -19 -12 -24 -8 -5 3 -9 2
-8 -3 4 -22 -2 -43 -11 -38 -5 3 -10 1 -10 -6 0 -7 -3 -10 -6 -7 -3 4 -1 16 6
27 6 12 7 21 3 21 -10 0 -53 -42 -53 -52 0 -5 -25 -34 -55 -64 -30 -31 -55
-52 -55 -48 0 4 -8 0 -17 -8 -61 -52 -32 -15 62 80 61 61 116 112 123 112 7 0
10 5 6 12 -5 8 0 9 14 6 16 -5 28 1 44 21 15 18 26 24 33 17 8 -6 4 -16 -10
-31z m1040 35 c-3 -5 -10 -10 -16 -10 -5 0 -9 5 -9 10 0 6 7 10 16 10 8 0 12
-4 9 -10z m135 -1 c0 -6 -7 -26 -15 -44 -13 -25 -21 -32 -41 -29 -26 3 -47 14
-26 14 7 0 12 5 12 12 0 16 41 58 57 58 7 0 13 -5 13 -11z m220 -5 c0 -8 -5
-12 -10 -9 -6 4 -8 11 -5 16 9 14 15 11 15 -7z m198 -26 c-4 -52 -24 -62 -26
-12 -2 40 4 54 19 54 6 0 9 -19 7 -42z m-1264 0 c-19 -21 -19 -21 3 -16 16 4
20 2 16 -9 -7 -17 -23 -13 -37 10 -8 13 -6 20 9 31 27 20 32 11 9 -16z m163
10 c26 -25 30 -48 8 -48 -8 0 -15 -7 -15 -16 0 -12 -5 -10 -20 9 -20 25 -26
58 -13 70 10 11 15 9 40 -15z m513 4 c0 -5 -9 -17 -20 -27 -16 -14 -20 -15
-20 -4 0 16 19 39 32 39 4 0 8 -4 8 -8z m-622 -27 c-3 -3 -9 2 -12 12 -6 14
-5 15 5 6 7 -7 10 -15 7 -18z m360 3 c2 -8 -8 -22 -22 -31 -24 -16 -25 -16
-23 6 3 41 38 61 45 25z m623 9 c-1 -12 -15 -9 -19 4 -3 6 1 10 8 8 6 -3 11
-8 11 -12z m-1161 -16 c0 -11 -4 -22 -9 -25 -11 -7 -20 14 -13 32 7 19 22 14
22 -7z m1028 -9 c-2 -9 3 -16 10 -14 15 3 15 -8 1 -28 -8 -11 -12 -12 -16 -2
-8 21 -32 13 -39 -13 -3 -14 -10 -22 -15 -19 -5 3 -12 -2 -15 -10 -3 -9 -10
-13 -15 -10 -5 3 -13 -5 -18 -18 -5 -13 -20 -33 -34 -46 l-25 -23 -6 27 c-6
22 -3 32 16 46 13 10 31 20 41 24 9 3 17 10 17 15 0 5 19 30 41 54 40 44 62
50 57 17z m182 18 c0 -5 -2 -10 -4 -10 -3 0 -8 5 -11 10 -3 6 -1 10 4 10 6 0
11 -4 11 -10z m-380 -30 c-21 -14 -30 -12 -30 4 0 18 22 27 35 14 6 -6 5 -12
-5 -18z m295 0 c-5 -16 -10 -19 -18 -11 -7 7 -6 15 3 26 7 8 15 13 17 11 3 -2
2 -14 -2 -26z m49 -13 c-21 -12 -30 -1 -14 18 10 13 15 13 21 3 5 -8 2 -16 -7
-21z m-1054 -9 c0 -7 -33 -28 -44 -28 -3 0 -1 40 3 58 2 5 41 -23 41 -30z
m103 -36 c-25 -13 -28 -13 -45 8 -22 27 -23 40 -3 40 8 0 15 5 15 12 0 6 14
-1 30 -17 l30 -29 -27 -14z m-257 46 c4 -6 2 -14 -4 -16 -7 -2 -10 -8 -6 -13
3 -5 0 -9 -7 -9 -6 0 -9 8 -6 19 3 15 1 18 -11 14 -10 -4 -13 -2 -8 5 9 15 33
15 42 0z m774 2 c0 -5 -4 -10 -10 -10 -5 0 -10 5 -10 10 0 6 5 10 10 10 6 0
10 -4 10 -10z m-266 -9 c7 -11 -54 -72 -66 -65 -14 9 -9 25 15 50 23 25 42 30
51 15z m399 -28 c-3 -7 -11 -13 -18 -13 -7 0 -15 -7 -19 -15 -3 -8 -10 -15
-15 -15 -15 0 -6 28 18 56 17 20 25 23 31 14 5 -7 6 -19 3 -27z m463 2 c-4
-14 -11 -25 -16 -25 -5 0 -5 13 2 31 12 35 23 31 14 -6z m-1516 15 c0 -5 -4
-10 -10 -10 -5 0 -10 -8 -10 -18 0 -10 -12 -25 -27 -33 -16 -8 -32 -20 -36
-26 -11 -18 -38 -16 -31 2 4 8 10 15 15 15 5 0 25 18 45 40 36 39 54 50 54 30z
m771 -12 c11 -11 19 -23 19 -25 0 -1 -15 -19 -33 -38 l-32 -34 -33 30 c-26 25
-31 34 -21 45 15 19 14 19 33 -21 9 -19 22 -35 28 -35 6 0 5 7 -3 17 -12 15
-12 16 4 10 24 -9 22 15 -3 31 -11 7 -20 19 -20 27 0 22 40 18 61 -7z m176 16
c-3 -4 -2 -15 4 -25 12 -23 -3 -25 -22 -3 -10 13 -10 17 2 25 16 10 25 12 16
3z m290 -56 c-16 -21 -36 -38 -44 -38 -7 0 -13 -4 -13 -9 0 -11 -71 -81 -82
-81 -5 0 -8 7 -8 16 0 19 69 86 82 78 4 -3 8 4 8 14 0 24 72 85 82 69 3 -6 -8
-28 -25 -49z m163 54 c0 -12 -39 -52 -51 -52 -11 0 -4 15 19 43 16 18 32 23
32 9z m-1290 -13 c0 -5 -4 -7 -10 -4 -5 3 -7 0 -4 -9 3 -8 12 -12 20 -9 8 3
14 1 14 -4 0 -12 -38 -14 -46 -2 -3 6 -3 16 0 24 6 17 26 20 26 4z m770 -14
c-27 -28 -40 -32 -40 -10 0 15 26 34 49 35 10 0 7 -8 -9 -25z m576 -2 c-10
-10 -19 5 -10 18 6 11 8 11 12 0 2 -7 1 -15 -2 -18z m-1395 -20 c-9 -17 -10
-17 -17 1 -4 11 -2 21 7 27 18 11 24 -5 10 -28z m233 0 c-16 -25 -19 -26 -22
-9 -2 11 4 25 14 33 26 19 29 8 8 -24z m1276 33 c0 -3 -4 -8 -10 -11 -5 -3
-10 -1 -10 4 0 6 5 11 10 11 6 0 10 -2 10 -4z m-1213 -65 c-26 -34 -44 -39
-53 -16 -4 8 1 27 11 41 16 25 17 25 36 8 16 -14 17 -20 6 -33z m128 -11 c7 0
18 -6 24 -14 9 -10 8 -16 -3 -26 -19 -15 -36 -5 -36 21 0 12 -7 19 -19 19 -26
0 -32 21 -12 44 15 17 16 17 25 -13 5 -17 14 -31 21 -31z m448 43 c12 -11 -45
-63 -70 -63 -30 0 -29 5 10 40 32 30 48 36 60 23z m-363 -17 c0 -22 -19 -29
-36 -15 -12 10 -12 14 -2 20 20 13 38 10 38 -5z m100 -18 c33 -24 37 -40 16
-57 -11 -9 -19 -4 -40 24 -15 19 -24 40 -21 45 9 14 12 13 45 -12z m730 2 c-6
-11 -15 -20 -20 -20 -6 0 -5 9 2 20 7 11 16 20 21 20 4 0 3 -9 -3 -20z m-1379
-22 c5 -21 4 -28 -7 -28 -8 0 -14 4 -14 10 0 5 -10 8 -22 6 -18 -2 -24 -12
-29 -41 -4 -21 -14 -42 -23 -47 -9 -5 -14 -13 -11 -19 3 -5 -1 -6 -9 -3 -11 4
-16 0 -16 -10 0 -9 -16 -22 -36 -31 -19 -8 -33 -18 -30 -23 2 -4 1 -14 -5 -22
-7 -13 -9 -12 -9 2 0 9 -3 25 -6 35 -4 12 -3 14 3 6 6 -9 20 2 47 38 31 42 40
48 52 38 13 -11 14 -9 9 12 -4 18 3 34 32 67 41 48 63 50 74 10z m139 22 c0
-13 -49 -60 -61 -60 -5 0 -9 7 -9 15 0 9 9 15 22 15 12 0 18 3 15 7 -4 3 1 12
11 19 21 16 22 17 22 4z m90 3 c0 -10 -20 -40 -20 -31 0 3 -3 13 -6 22 -4 11
-1 16 10 16 9 0 16 -3 16 -7z m570 -6 c0 -8 -3 -17 -7 -20 -9 -9 -34 13 -27
24 8 14 34 11 34 -4z m133 -4 c2 -5 -2 -18 -8 -31 -11 -20 -14 -21 -25 -7 -10
12 -10 18 0 30 14 16 27 19 33 8z m-543 -24 c0 -5 -4 -9 -10 -9 -5 0 -10 -7
-10 -15 0 -8 -7 -15 -15 -15 -8 0 -14 -6 -12 -12 1 -7 -8 -14 -20 -16 -32 -5
-29 16 8 54 28 29 59 36 59 13z m-204 -24 c-4 -32 -3 -34 15 -25 16 9 19 7 19
-12 0 -28 -47 -78 -67 -71 -9 4 -14 0 -13 -8 4 -28 0 -38 -20 -49 -18 -10 -20
-8 -20 20 0 23 6 33 25 40 27 10 34 40 9 40 -8 0 -12 5 -9 10 3 6 -1 10 -9 10
-10 0 -13 6 -10 15 4 8 11 15 16 15 6 0 19 11 30 25 27 35 39 31 34 -10z m411
29 c-3 -4 3 -14 15 -24 18 -14 19 -18 5 -23 -20 -8 -63 26 -53 41 4 7 14 12
23 12 9 0 14 -3 10 -6z m163 -7 c0 -19 -10 -27 -26 -20 -11 4 -12 9 -3 19 15
18 29 18 29 1z m745 -20 c-4 -14 -16 -34 -27 -44 -19 -17 -19 -15 3 29 24 51
34 57 24 15z m85 8 c0 -15 -6 -25 -15 -25 -8 0 -12 -6 -9 -14 3 -8 1 -17 -4
-20 -13 -8 -9 23 8 57 16 33 20 34 20 2z m-1802 -37 c-68 -86 -162 -173 -190
-176 -37 -4 -35 2 8 27 20 12 46 33 57 47 70 82 92 104 104 104 7 0 13 6 13
13 0 17 21 38 32 31 4 -3 -7 -24 -24 -46z m480 34 c6 -18 -15 -14 -22 4 -4 10
-1 14 6 12 6 -2 14 -10 16 -16z m727 -27 c0 -14 -5 -25 -12 -25 -7 0 -13 -4
-13 -10 0 -5 -7 -10 -15 -10 -22 0 -18 37 6 61 24 24 32 20 34 -16z m-1147 13
c-2 -6 -10 -14 -16 -16 -7 -2 -10 2 -6 12 7 18 28 22 22 4z m593 -4 c10 -13
10 -17 -2 -25 -23 -14 -29 -11 -29 16 0 29 12 32 31 9z m879 10 c0 -3 -8 -17
-19 -30 -24 -30 -36 -19 -13 12 16 22 32 31 32 18z m-1343 -15 c-9 -6 -15 -14
-12 -20 4 -5 -1 -9 -9 -9 -9 0 -16 2 -16 5 0 12 26 34 40 34 12 0 11 -2 -3
-10z m723 -4 c-7 -9 -15 -13 -17 -11 -7 7 7 26 19 26 6 0 6 -6 -2 -15z m179
-16 c-12 -10 -26 -16 -32 -12 -5 3 1 14 14 24 31 23 47 13 18 -12z m-476 -16
c7 -10 3 -13 -17 -13 -24 0 -25 2 -14 26 8 17 14 21 16 13 3 -8 9 -20 15 -26z
m142 17 c3 -5 4 -10 1 -10 -2 0 -11 -3 -19 -6 -8 -3 -17 2 -20 10 -7 18 27 23
38 6z m85 0 c0 -5 -4 -10 -10 -10 -5 0 -10 5 -10 10 0 6 5 10 10 10 6 0 10 -4
10 -10z m530 4 c0 -4 -21 -25 -46 -47 -25 -22 -50 -51 -55 -64 -9 -25 -39 -32
-39 -8 0 8 6 15 13 15 7 0 34 25 61 55 43 50 66 66 66 49z m-1132 -32 c15 12
16 11 3 -4 -7 -10 -17 -15 -22 -12 -5 3 -9 -4 -9 -14 0 -12 -9 -22 -22 -26
-38 -9 -40 9 -6 43 26 26 34 29 36 16 3 -13 6 -14 20 -3z m427 -2 c-10 -11
-21 -17 -24 -14 -3 3 3 12 13 20 28 20 32 17 11 -6z m213 2 c2 -7 -6 -12 -17
-12 -21 0 -27 11 -14 24 9 9 26 2 31 -12z m-1094 -67 c-43 -41 -82 -75 -87
-75 -16 0 145 149 161 150 2 0 -31 -34 -74 -75z m523 49 c-9 -9 -28 6 -21 18
4 6 10 6 17 -1 6 -6 8 -13 4 -17z m412 -41 c1 -17 -3 -35 -9 -38 -5 -3 -10 -2
-10 3 0 5 -11 14 -25 20 -32 15 -31 26 2 60 25 25 27 25 34 7 4 -11 8 -34 8
-52z m919 41 c-7 -15 -14 -21 -16 -15 -2 7 2 18 8 26 18 22 21 18 8 -11z
m-1163 -1 c3 -10 1 -19 -6 -22 -6 -2 -20 -12 -30 -22 -18 -18 -49 -17 -49 2 0
10 41 34 53 31 4 -1 7 5 7 13 0 20 16 19 25 -2z m310 7 c3 -5 1 -10 -4 -10 -6
0 -11 5 -11 10 0 6 2 10 4 10 3 0 8 -4 11 -10z m189 4 c8 -3 12 -12 9 -20 -3
-8 0 -14 6 -14 6 0 11 6 11 13 0 15 56 22 64 8 9 -13 -36 -39 -59 -33 -11 3
-36 5 -56 5 -26 1 -35 5 -32 14 3 7 11 13 19 13 8 0 14 5 14 10 0 12 3 12 24
4z m236 -4 c-8 -5 -22 -10 -30 -10 -13 0 -13 1 0 10 8 5 22 10 30 10 13 0 13
-1 0 -10z m-653 -11 c9 -9 8 -15 -2 -25 -17 -18 -22 -18 -29 2 -11 29 10 44
31 23z m881 -9 c-7 -10 -14 -17 -17 -15 -4 4 18 35 25 35 2 0 -1 -9 -8 -20z
m-1434 -13 c-10 -5 -38 -33 -62 -63 -40 -51 -62 -66 -62 -45 0 18 121 132 132
125 8 -5 5 -11 -8 -17z m1226 3 c-6 -11 -15 -20 -20 -20 -16 0 -11 18 8 29 24
14 24 14 12 -9z m-470 6 c0 -3 -4 -8 -10 -11 -5 -3 -10 -1 -10 4 0 6 5 11 10
11 6 0 10 -2 10 -4z m70 -5 c0 -5 -9 -13 -20 -16 -11 -3 -20 -13 -20 -21 0
-12 -36 -34 -56 -34 -13 0 -1 32 14 37 9 4 26 15 36 25 21 19 46 24 46 9z
m290 -1 c0 -5 -2 -10 -4 -10 -3 0 -8 5 -11 10 -3 6 -1 10 4 10 6 0 11 -4 11
-10z m30 0 c0 -5 -2 -10 -4 -10 -3 0 -8 5 -11 10 -3 6 -1 10 4 10 6 0 11 -4
11 -10z m505 -10 c-5 -16 -3 -19 12 -13 16 6 16 5 4 -10 -7 -9 -18 -17 -23
-17 -5 0 -21 -9 -35 -20 -41 -32 -39 -15 3 34 44 51 48 54 39 26z m-1062 -24
c-22 -30 -43 -41 -43 -21 0 14 50 59 58 51 2 -3 -4 -16 -15 -30z m-363 -11
c-4 -5 -8 -14 -8 -20 0 -5 -5 -11 -10 -13 -12 -4 -9 38 3 58 6 10 9 9 16 -1 4
-7 4 -18 -1 -24z m275 10 c0 -30 -19 -27 -23 3 -2 13 2 22 10 22 7 0 13 -11
13 -25z m135 -19 c0 -12 5 -27 10 -32 8 -8 6 -15 -6 -25 -16 -13 -17 -12 -11
9 4 19 2 22 -10 17 -9 -3 -20 0 -25 7 -5 9 -8 6 -8 -9 0 -14 -6 -23 -15 -23
-23 0 -18 13 17 53 34 38 48 39 48 3z m490 26 c0 -5 -16 -8 -35 -9 -19 -1 -35
2 -35 6 0 4 16 8 35 9 19 1 35 -2 35 -6z m274 -23 c-2 -4 -13 -9 -23 -12 -19
-5 -19 -4 -4 20 12 18 18 21 24 12 4 -7 6 -16 3 -20z m-1274 -8 c-55 -74 -70
-86 -80 -71 -6 10 -10 11 -10 3 0 -7 -5 -13 -12 -13 -6 0 -1 12 13 27 13 14
17 22 9 18 -8 -5 -3 4 12 19 15 15 31 25 36 22 6 -3 12 0 15 7 3 8 12 14 21
14 12 0 12 -5 -4 -26z m260 -13 c-11 -12 -20 -28 -20 -35 0 -7 -9 -13 -20 -13
-15 0 -20 7 -20 25 0 14 3 24 8 23 14 -4 52 13 52 23 0 6 4 7 10 4 6 -4 2 -15
-10 -27z m86 21 c10 -17 -13 -36 -27 -22 -12 12 -4 33 11 33 5 0 12 -5 16 -11z
m-186 -22 c0 -12 7 -32 14 -43 15 -20 11 -64 -4 -64 -18 0 -36 69 -31 118 2
22 21 13 21 -11z m610 -2 c-14 -7 -27 -11 -30 -9 -6 7 22 24 40 23 9 0 5 -6
-10 -14z m-90 -5 c0 -5 3 -9 8 -9 4 1 16 1 26 0 20 -1 20 -1 0 -16 -22 -16
-48 -20 -39 -5 3 6 -1 10 -9 10 -17 0 -21 12 -9 23 10 10 23 8 23 -3z m-562
-25 c-1 -14 -6 -25 -10 -25 -4 0 -8 11 -8 25 0 14 4 25 10 25 5 0 9 -11 8 -25z
m192 13 c0 -4 -5 -8 -11 -8 -5 0 -8 -4 -4 -9 3 -5 0 -13 -6 -17 -7 -4 -9 -3
-5 4 3 5 1 12 -6 14 -6 2 -9 9 -5 14 7 13 37 14 37 2z m-250 -8 c0 -5 -5 -10
-10 -10 -6 0 -16 -11 -22 -25 -6 -14 -16 -25 -22 -25 -7 0 -19 -13 -29 -29
-18 -31 -72 -91 -81 -91 -15 0 -3 31 19 48 14 11 25 24 25 29 0 6 9 18 20 28
11 10 20 25 20 34 0 12 2 13 8 3 6 -9 14 -4 30 18 22 30 42 39 42 20z m900 1
c0 -6 -4 -13 -10 -16 -5 -3 -10 1 -10 9 0 9 5 16 10 16 6 0 10 -4 10 -9z m540
-6 c-7 -8 -17 -15 -23 -15 -6 0 -2 7 9 15 25 19 30 19 14 0z m-1075 -25 c-5
-8 -11 -8 -17 -2 -6 6 -7 16 -3 22 5 8 11 8 17 2 6 -6 7 -16 3 -22z m455 21
c0 -5 9 -7 20 -4 11 3 20 1 20 -5 0 -18 -25 -30 -63 -30 l-39 0 23 24 c23 25
39 31 39 15z m200 -1 c-20 -13 -40 -13 -40 0 0 6 12 10 28 10 21 0 24 -2 12
-10z m-1520 -10 c0 -5 -5 -10 -11 -10 -5 0 -7 5 -4 10 3 6 8 10 11 10 2 0 4
-4 4 -10z m1085 -8 c-3 -3 -11 0 -18 7 -9 10 -8 11 6 5 10 -3 15 -9 12 -12z
m-875 -7 c0 -2 -18 -12 -39 -22 -27 -13 -44 -17 -53 -11 -9 7 -8 8 5 4 13 -4
20 0 24 13 5 20 28 31 51 23 6 -2 12 -5 12 -7z m330 -15 c8 -15 7 -19 -2 -16
-7 3 -28 -13 -47 -35 -39 -46 -28 -52 20 -9 35 31 49 37 49 21 0 -21 -13 -41
-27 -41 -8 0 -11 -4 -8 -10 3 -6 -1 -7 -9 -4 -12 4 -16 0 -17 -17 0 -13 -3
-18 -6 -11 -2 6 -10 12 -16 12 -7 0 -18 9 -25 21 -14 22 -6 41 40 94 23 26 32
25 48 -5z m923 23 c-7 -2 -21 -2 -30 0 -10 3 -4 5 12 5 17 0 24 -2 18 -5z
m-403 -13 c0 -5 -4 -10 -10 -10 -5 0 -10 5 -10 10 0 6 5 10 10 10 6 0 10 -4
10 -10z m476 -15 c-16 -24 -16 -25 6 -26 29 -2 25 -3 77 16 50 18 64 14 29 -9
-30 -20 -117 -27 -143 -13 -11 6 -29 10 -40 10 -11 -1 -4 3 15 9 19 7 39 18
43 25 4 7 13 13 19 13 6 0 3 -11 -6 -25z m-709 8 c-2 -5 -11 -25 -21 -45 -9
-21 -21 -38 -27 -38 -17 0 -1 54 22 73 22 18 33 22 26 10z m143 -2 c0 -11 -31
-24 -39 -16 -3 3 1 10 9 15 19 12 30 12 30 1z m130 -1 c0 -5 -5 -10 -11 -10
-5 0 -7 5 -4 10 3 6 8 10 11 10 2 0 4 -4 4 -10z m-387 -21 c-4 -12 -11 -18
-20 -15 -8 3 -17 6 -19 6 -2 0 -4 4 -4 9 0 8 15 15 42 20 3 0 4 -8 1 -20z
m1067 11 c0 -5 -4 -10 -10 -10 -5 0 -10 5 -10 10 0 6 5 10 10 10 6 0 10 -4 10
-10z m-555 -35 c-27 -23 -42 -30 -47 -22 -4 7 -2 14 4 16 6 2 19 12 29 22 11
11 27 19 37 19 12 -1 6 -10 -23 -35z m-1190 13 c-11 -6 -25 -19 -32 -27 -6 -9
-15 -12 -20 -8 -10 11 33 47 56 47 13 -1 12 -3 -4 -12z m247 -37 c-16 -17 -34
-31 -41 -31 -6 0 -11 -9 -11 -20 0 -14 -6 -20 -17 -18 -9 2 -22 -7 -28 -19 -8
-16 -15 -19 -26 -12 -11 8 -9 14 16 34 17 14 29 30 28 35 -2 6 1 10 6 10 5 0
25 16 46 37 25 25 39 33 47 25 7 -7 1 -19 -20 -41z m792 34 c-4 -8 -11 -15
-17 -15 -6 0 -31 -17 -56 -38 -25 -21 -56 -44 -69 -51 -22 -11 -22 -11 -10 8
7 12 16 21 20 21 4 0 20 13 35 30 26 27 78 60 95 60 4 0 5 -7 2 -15z m-704 -5
c0 -5 -4 -10 -10 -10 -5 0 -10 5 -10 10 0 6 5 10 10 10 6 0 10 -4 10 -10z
m765 -30 c-21 -22 -46 -40 -55 -40 -9 0 4 17 30 40 59 51 75 51 25 0z m-243 5
c-8 -16 -9 -16 -15 -1 -4 10 -3 15 3 11 6 -3 10 -1 10 6 0 7 3 10 6 6 3 -3 2
-13 -4 -22z m838 5 c0 -5 -4 -10 -10 -10 -5 0 -10 5 -10 10 0 6 5 10 10 10 6
0 10 -4 10 -10z m-1060 -4 c0 -11 -19 -15 -25 -6 -3 5 1 10 9 10 9 0 16 -2 16
-4z m270 -11 c0 -9 -6 -12 -15 -9 -8 4 -12 10 -9 15 8 14 24 10 24 -6z m-860
-25 c-19 -27 -40 -40 -40 -25 0 7 51 55 57 55 2 0 -5 -13 -17 -30z m977 6 c-7
-14 -20 -24 -29 -23 -16 1 -15 4 4 24 28 30 39 29 25 -1z m106 11 c3 -8 -3
-14 -15 -14 -16 -2 -17 1 -8 13 15 17 17 17 23 1z m-1198 -7 c-3 -5 -12 -10
-18 -10 -7 0 -6 4 3 10 19 12 23 12 15 0z m865 5 c0 -3 -12 -17 -26 -30 -25
-23 -28 -55 -5 -55 6 0 8 6 6 13 -3 6 3 17 13 23 15 10 18 8 18 -7 0 -11 -3
-19 -6 -19 -4 0 -16 -9 -28 -20 l-22 -21 -10 26 c-15 39 -12 53 10 60 11 4 18
10 15 15 -3 5 1 11 7 13 18 7 28 8 28 2z m740 1 c0 -2 -9 -6 -20 -9 -11 -3
-20 -1 -20 4 0 5 9 9 20 9 11 0 20 -2 20 -4z m-1150 -26 c0 -5 -10 -19 -22
-31 -16 -15 -19 -23 -10 -26 6 -3 10 -9 7 -13 -3 -5 -13 -6 -22 -3 -11 4 -14
3 -9 -5 4 -7 1 -12 -8 -12 -22 0 -20 8 16 62 29 42 48 53 48 28z m227 -10 c3
-11 2 -12 -4 -2 -7 9 -14 7 -31 -8 -22 -21 -27 -16 -16 15 8 20 46 16 51 -5z
m-791 -16 c-14 -13 -20 -14 -29 -4 -8 9 -8 11 -1 7 7 -4 17 0 24 8 7 9 15 13
18 11 2 -3 -3 -13 -12 -22z m624 10 c0 -8 -32 -33 -42 -34 -4 0 0 9 9 20 17
20 33 26 33 14z m235 -24 c-5 -8 -11 -8 -17 -2 -6 6 -7 16 -3 22 5 8 11 8 17
2 6 -6 7 -16 3 -22z m-195 -10 c-13 -11 -32 -20 -44 -20 -20 0 -20 0 -1 13 63
39 87 43 45 7z m30 -33 c-32 -28 -55 -31 -29 -4 8 8 23 27 34 42 17 24 20 26
24 9 2 -11 -9 -29 -29 -47z m540 41 c0 -18 -2 -20 -9 -8 -6 8 -7 18 -5 22 9
14 14 9 14 -14z m-960 2 c0 -5 -7 -10 -15 -10 -8 0 -15 5 -15 10 0 6 7 10 15
10 8 0 15 -4 15 -10z m835 0 c-3 -5 -16 -15 -28 -21 -22 -12 -22 -12 -3 10 19
21 43 30 31 11z m-277 -27 c-1 -16 -15 -43 -32 -60 -16 -18 -27 -36 -23 -39 4
-4 9 1 13 10 7 17 24 22 24 7 0 -12 -29 -41 -40 -41 -5 0 -12 10 -15 21 -6 17
1 29 31 55 21 19 33 34 28 34 -6 0 -21 -11 -33 -24 -13 -13 -32 -27 -44 -30
-16 -4 -8 8 28 44 28 26 53 49 57 49 4 1 7 -11 6 -26z m212 19 c0 -13 -12 -22
-22 -16 -10 6 -1 24 13 24 5 0 9 -4 9 -8z m-658 -31 c-9 -2 -24 -8 -32 -14 -8
-6 -4 1 9 16 18 20 27 24 33 15 5 -8 1 -14 -10 -17z m-401 -4 c-10 -9 -11 -8
-5 6 3 10 9 15 12 12 3 -3 0 -11 -7 -18z m1169 13 c0 -5 -4 -10 -10 -10 -5 0
-10 5 -10 10 0 6 5 10 10 10 6 0 10 -4 10 -10z m-882 -8 c9 -6 4 -16 -18 -35
-16 -15 -35 -27 -42 -27 -8 1 -6 6 5 14 9 7 17 20 17 28 0 26 15 34 38 20z
m175 -15 c-24 -42 -58 -77 -70 -73 -16 6 -43 -3 -43 -15 0 -4 8 -6 18 -3 14 5
15 4 2 -5 -22 -15 -39 -13 -36 4 3 24 57 49 68 33 5 -9 8 -4 8 13 0 14 -6 31
-12 38 -11 10 -7 11 16 5 19 -5 27 -3 22 4 -3 6 0 12 6 15 18 6 30 -2 21 -16z
m545 -13 c-32 -32 -58 -29 -28 4 11 12 28 22 38 22 13 0 11 -5 -10 -26z m-389
-1 c0 -10 -3 -13 -6 -6 -3 9 -11 7 -25 -7 -26 -24 -43 -16 -20 10 22 24 52 26
51 3z m-653 -9 c-9 -8 -21 -12 -28 -8 -8 5 -6 10 8 15 31 12 37 10 20 -7z
m561 10 c-3 -3 -12 -4 -19 -1 -8 3 -5 6 6 6 11 1 17 -2 13 -5z m-148 -7 c-2
-1 -13 -9 -24 -17 -19 -14 -19 -14 -6 3 7 9 18 17 24 17 6 0 8 -1 6 -3z m528
-3 c-3 -3 -12 -4 -19 -1 -8 3 -5 6 6 6 11 1 17 -2 13 -5z m-932 -42 c-22 -20
-39 -40 -38 -43 1 -4 -4 -10 -12 -13 -8 -3 -15 0 -15 5 0 16 75 89 91 89 8 0
-4 -17 -26 -38z m185 33 c0 -2 -10 -9 -22 -15 -22 -11 -22 -10 -4 4 21 17 26
19 26 11z m40 -15 c0 -11 5 -20 11 -20 5 0 7 -5 4 -10 -4 -6 -11 -8 -16 -4 -6
3 -13 -3 -16 -15 -3 -11 -18 -26 -34 -33 -16 -7 -29 -16 -29 -20 0 -5 0 -11
-1 -15 0 -11 -50 -36 -57 -29 -3 4 9 26 26 51 17 25 27 45 21 45 -6 0 -7 5 -4
10 5 8 11 7 21 -1 11 -9 18 -8 34 6 10 9 19 20 18 24 -2 18 3 31 12 31 6 0 10
-9 10 -20z m510 10 c-20 -13 -33 -13 -25 0 3 6 14 10 23 10 15 0 15 -2 2 -10z
m-90 -15 c-7 -8 -18 -15 -24 -15 -6 0 -2 7 8 15 25 19 32 19 16 0z m-47 -8 c4
3 7 1 7 -5 0 -17 -16 -15 -31 6 -12 15 -12 16 2 5 9 -7 19 -10 22 -6z m-698
-45 c-22 -21 -40 -36 -40 -35 0 7 71 80 75 76 2 -2 -14 -21 -35 -41z m442 30
c-10 -10 -14 -22 -10 -25 3 -4 1 -7 -5 -7 -15 0 -15 6 -2 31 6 10 16 19 22 19
6 0 4 -8 -5 -18z m413 10 c0 -9 -29 -36 -65 -62 -19 -14 -19 -14 -5 5 39 55
70 79 70 57z m22 -24 c-7 -7 -12 -8 -12 -2 0 6 3 14 7 17 3 4 9 5 12 2 2 -3
-1 -11 -7 -17z m-277 2 c-3 -5 -12 -10 -18 -10 -7 0 -6 4 3 10 19 12 23 12 15
0z m67 -15 c6 -29 2 -35 -24 -35 -10 0 -18 -4 -18 -10 0 -5 -6 -10 -12 -10 -7
0 0 12 15 26 16 14 26 32 23 40 -3 8 -2 14 3 14 5 0 11 -11 13 -25z m568 15
c0 -5 -4 -10 -10 -10 -5 0 -10 5 -10 10 0 6 5 10 10 10 6 0 10 -4 10 -10z
m-1110 -10 c0 -5 -5 -10 -11 -10 -5 0 -7 5 -4 10 3 6 8 10 11 10 2 0 4 -4 4
-10z m280 -15 c0 -29 7 -31 30 -10 15 14 19 13 41 -6 13 -11 18 -18 11 -14
-16 8 -54 -4 -47 -16 3 -5 -1 -6 -9 -3 -9 3 -17 -2 -21 -15 -3 -12 -13 -21
-20 -21 -8 0 -16 -4 -19 -9 -4 -5 4 -7 16 -4 l23 5 -20 -19 c-12 -10 -24 -26
-28 -35 -3 -10 -13 -18 -21 -18 -11 0 -13 15 -12 69 2 58 6 73 26 95 32 33 50
33 50 1z m332 -15 c-12 -12 -22 -15 -22 -9 0 13 32 40 39 33 3 -2 -5 -13 -17
-24z m99 -4 c-7 -8 -10 -19 -7 -25 3 -5 -3 -7 -14 -4 -25 7 -25 8 2 33 24 22
38 19 19 -4z m74 13 c-4 -6 -13 -8 -20 -5 -8 3 -17 -4 -20 -15 -4 -10 -10 -19
-15 -19 -5 0 -4 11 2 25 7 17 19 25 35 25 15 0 22 -4 18 -11z m100 1 c-3 -5
-11 -10 -16 -10 -6 0 -7 5 -4 10 3 6 11 10 16 10 6 0 7 -4 4 -10z m-900 -10
c-3 -5 -11 -10 -16 -10 -6 0 -7 5 -4 10 3 6 11 10 16 10 6 0 7 -4 4 -10z m50
-20 c-10 -11 -23 -20 -28 -20 -6 0 -2 9 8 20 10 11 23 20 28 20 6 0 2 -9 -8
-20z m392 -10 c-1 -20 -17 -29 -17 -9 0 5 -5 7 -11 4 -6 -4 -8 -13 -5 -21 5
-14 -27 -38 -37 -28 -3 4 -20 -4 -36 -16 -23 -16 -29 -17 -25 -6 3 9 12 16 20
16 8 0 14 6 14 14 0 16 27 29 42 20 6 -4 9 -1 6 7 -3 8 4 19 16 26 29 17 35
16 33 -7z m148 1 c-3 -6 -11 -11 -16 -11 -5 0 -4 6 3 14 14 16 24 13 13 -3z
m275 -5 c0 -15 -29 -30 -39 -20 -3 3 3 12 13 20 24 17 26 17 26 0z m-70 0 c0
-2 -7 -7 -16 -10 -8 -3 -12 -2 -9 4 6 10 25 14 25 6z m-599 -50 c-7 -8 -8 -17
-2 -20 11 -7 3 -46 -11 -46 -5 0 -4 -8 2 -19 11 -21 -2 -37 -19 -26 -6 3 -15
-4 -21 -15 -6 -12 -22 -25 -36 -30 -13 -5 -24 -16 -24 -25 0 -8 -4 -15 -10
-15 -19 0 -10 38 13 53 16 12 18 16 6 16 -9 1 -16 7 -16 15 0 8 8 11 19 8 10
-2 18 1 18 7 0 10 -14 15 -32 12 -15 -2 -8 27 7 33 8 3 15 12 15 20 0 7 11 17
25 20 16 4 25 13 25 25 0 25 21 33 39 15 11 -10 12 -16 2 -28z m291 19 c-5
-27 -22 -45 -22 -23 0 23 -20 -15 -20 -39 0 -13 -4 -23 -10 -23 -5 0 -10 7
-10 16 0 12 -6 11 -28 -8 -30 -24 -24 -40 6 -17 15 12 16 11 2 -4 -8 -9 -26
-18 -40 -19 -14 -2 -32 -15 -42 -30 -20 -32 -66 -64 -76 -54 -7 8 61 75 112
110 15 11 25 25 22 33 -3 7 -2 12 2 11 4 -2 20 6 35 16 22 15 25 21 15 28 -9
6 -6 7 8 3 13 -3 26 1 34 10 17 20 18 19 12 -10z m126 5 c-7 -11 -16 -20 -20
-20 -11 0 -10 9 5 25 18 21 29 18 15 -5z m-548 -19 c0 -10 -9 -26 -20 -36 -11
-10 -23 -27 -26 -39 -7 -20 -8 -19 -20 9 l-13 30 -1 -32 c0 -21 -7 -36 -19
-43 -64 -34 -52 15 20 83 59 56 79 63 79 28z m740 -6 c-11 -13 -11 -16 0 -13
21 5 22 -19 0 -25 -11 -3 -20 -1 -20 4 0 5 -7 9 -15 9 -8 0 -15 -4 -15 -10 0
-5 -4 -10 -10 -10 -20 0 -9 17 27 43 39 28 55 28 33 2z m-174 -10 c-14 -13
-26 -29 -26 -35 0 -5 -5 -10 -11 -10 -18 0 -49 -44 -36 -52 15 -9 -20 -41 -38
-34 -8 3 -19 -3 -24 -12 -8 -14 -12 -15 -22 -4 -11 10 -10 12 5 12 13 0 16 5
11 19 -4 14 4 27 31 48 20 15 46 38 57 51 11 12 27 22 34 22 7 0 13 5 13 10 0
6 7 10 16 10 13 0 11 -6 -10 -25z m70 -33 c-25 -37 -36 -48 -45 -39 -8 8 0 22
31 53 24 23 44 40 46 39 1 -1 -13 -25 -32 -53z m-818 18 c-24 -33 -44 -41 -28
-10 8 16 36 38 48 40 1 0 -7 -13 -20 -30z m212 20 c0 -5 -4 -10 -10 -10 -5 0
-10 5 -10 10 0 6 5 10 10 10 6 0 10 -4 10 -10z m-390 -10 c0 -5 -5 -10 -11
-10 -5 0 -7 5 -4 10 3 6 8 10 11 10 2 0 4 -4 4 -10z m223 -5 c-3 -9 -8 -14
-10 -11 -3 3 -2 9 2 15 9 16 15 13 8 -4z m385 -36 c11 0 13 -2 4 -6 -17 -7
-44 16 -35 31 5 7 9 5 11 -6 2 -10 11 -18 20 -19z m-670 -4 c-12 -14 -26 -25
-32 -25 -5 0 1 11 14 25 13 14 27 25 32 25 4 0 -2 -11 -14 -25z m1302 7 c0 -4
-25 -30 -56 -57 -31 -28 -65 -58 -75 -67 -10 -9 -30 -25 -46 -34 l-28 -18 20
23 c11 13 42 44 69 70 27 25 58 56 70 67 21 22 46 31 46 16z m-1193 -26 c0 -8
-3 -14 -6 -13 -4 1 -20 -10 -36 -25 -46 -43 -55 -33 -10 11 45 44 52 47 52 27z
m743 10 c0 -3 -4 -8 -10 -11 -5 -3 -10 -1 -10 4 0 6 5 11 10 11 6 0 10 -2 10
-4z m280 -6 c0 -5 -4 -10 -10 -10 -5 0 -10 5 -10 10 0 6 5 10 10 10 6 0 10 -4
10 -10z m-1100 -10 c0 -5 -5 -10 -11 -10 -5 0 -7 5 -4 10 3 6 8 10 11 10 2 0
4 -4 4 -10z m369 -60 c-7 -15 -17 -26 -21 -24 -15 9 -8 57 10 74 16 16 17 16
20 -2 2 -10 -2 -32 -9 -48z m225 29 c-22 -24 -34 -24 -34 -1 0 27 20 44 37 30
11 -9 11 -14 -3 -29z m-392 24 c-6 -2 -10 -9 -6 -14 3 -5 -2 -9 -12 -9 -13 0
-14 3 -4 15 7 8 18 15 24 14 7 0 6 -2 -2 -6z m512 -25 c-21 -35 -110 -118
-126 -118 -16 0 -23 -11 -19 -32 0 -5 -4 -8 -10 -8 -7 0 -17 -7 -24 -17 -7 -9
-19 -14 -29 -10 -22 9 -20 30 3 24 12 -3 25 5 37 22 28 38 100 111 110 111 5
0 15 9 22 20 13 22 49 29 36 8z m212 -26 c-8 -9 -19 -13 -22 -9 -10 9 16 38
28 31 6 -4 4 -13 -6 -22z m-1133 -83 c-86 -83 -113 -102 -113 -80 0 12 193
181 200 174 3 -2 -36 -45 -87 -94z m387 92 c0 -5 -7 -12 -16 -15 -9 -4 -14
-13 -10 -21 3 -9 0 -15 -9 -15 -15 0 -21 40 -8 53 10 10 43 8 43 -2z m350 -34
c-13 -17 -35 -44 -48 -59 -23 -23 -27 -25 -41 -11 -13 14 -13 17 2 28 10 7 16
19 15 26 -2 8 3 13 10 11 8 -1 27 9 44 23 39 33 48 24 18 -18z m-290 2 c0 -5
-7 -9 -15 -9 -8 0 -19 -9 -25 -20 -6 -11 -15 -18 -20 -15 -5 3 0 21 12 41 16
27 23 32 34 23 8 -6 14 -15 14 -20z m520 2 c-5 -11 -14 -23 -20 -26 -5 -3 -7
-12 -4 -19 3 -8 0 -17 -7 -22 -9 -5 -10 -2 -6 9 3 9 2 19 -3 22 -16 10 -12 19
18 37 34 22 35 22 22 -1z m-450 -5 c0 -3 -4 -8 -10 -11 -5 -3 -10 -1 -10 4 0
6 5 11 10 11 6 0 10 -2 10 -4z m480 -4 c0 -13 -12 -22 -22 -16 -10 6 -1 24 13
24 5 0 9 -4 9 -8z m75 -28 c-9 -9 -19 -14 -22 -10 -4 3 2 14 13 25 23 22 32 8
9 -15z m-818 10 c-3 -3 -12 -4 -19 -1 -8 3 -5 6 6 6 11 1 17 -2 13 -5z m-163
-26 c-39 -46 -66 -68 -75 -62 -12 7 59 80 80 83 10 1 9 -5 -5 -21z m56 18 c0
-2 -8 -10 -17 -17 -16 -13 -17 -12 -4 4 13 16 21 21 21 13z m138 -7 c-2 -6 -7
-10 -12 -9 -16 3 -26 -25 -13 -35 21 -16 26 -39 11 -53 -14 -13 -19 -6 -15 25
1 7 -4 11 -11 9 -7 -1 -9 -1 -5 2 4 2 3 10 -4 18 -9 11 -9 14 0 14 7 0 10 4 6
9 -3 6 3 14 12 20 23 14 36 14 31 0z m222 -2 c0 -12 -82 -87 -94 -87 -14 0 -4
29 17 46 l22 19 -19 -22 c-11 -13 -14 -23 -9 -23 17 0 36 28 30 44 -3 7 0 19
6 25 15 15 47 14 47 -2z m233 -26 c-9 -12 -27 -21 -38 -21 -17 1 -17 3 6 15
15 8 30 22 34 32 4 11 9 13 12 6 2 -6 -4 -21 -14 -32z m-170 22 c9 -9 -12 -33
-29 -33 -8 0 -14 5 -14 11 0 5 4 7 10 4 6 -3 7 1 4 9 -6 16 16 23 29 9z m557
3 c0 -2 -7 -9 -15 -16 -12 -10 -15 -10 -15 4 0 9 7 16 15 16 8 0 15 -2 15 -4z
m-215 -16 c3 -5 3 -10 -2 -10 -4 0 -19 -3 -33 -6 -24 -6 -25 -6 -5 9 24 19 32
21 40 7z m85 -10 c0 -11 -4 -20 -10 -20 -5 0 -10 9 -10 20 0 11 5 20 10 20 6
0 10 -9 10 -20z m-676 -44 c-28 -21 -43 8 -18 35 19 21 19 21 28 0 7 -17 5
-25 -10 -35z m946 34 c0 -5 -5 -10 -11 -10 -5 0 -7 5 -4 10 3 6 8 10 11 10 2
0 4 -4 4 -10z m-1090 -15 c0 -8 -7 -15 -15 -15 -8 0 -15 7 -15 15 0 8 7 15 15
15 8 0 15 -7 15 -15z m335 -12 c-9 -36 -37 -57 -48 -36 -6 10 -2 22 14 39 30
32 43 30 34 -3z m-515 8 c0 -5 -15 -20 -32 -32 -29 -20 -31 -21 -18 -4 14 18
41 44 48 45 1 0 2 -4 2 -9z m554 -12 c-3 -5 -10 -7 -15 -3 -5 3 -7 10 -3 15 3
5 10 7 15 3 5 -3 7 -10 3 -15z m71 10 c11 -16 1 -19 -13 -3 -7 8 -8 14 -3 14
5 0 13 -5 16 -11z m270 1 c4 -6 15 -8 25 -5 11 3 20 0 24 -10 3 -9 0 -15 -9
-15 -8 0 -15 -6 -15 -12 -1 -7 -23 -33 -51 -57 -40 -35 -52 -41 -64 -31 -12
10 -6 19 40 57 30 24 55 48 55 52 0 19 -30 19 -40 1 -6 -11 -17 -20 -25 -20
-8 0 -15 -6 -15 -14 0 -8 -4 -18 -10 -21 -5 -3 -10 3 -10 15 0 43 76 91 95 60z
m145 -25 c-13 -14 -26 -23 -28 -20 -7 7 29 45 41 45 6 0 0 -11 -13 -25z m-960
-5 c-8 -5 -17 -7 -19 -4 -3 3 1 9 9 14 8 5 17 7 19 4 3 -3 -1 -9 -9 -14z m530
1 c0 -11 -13 -29 -29 -40 -35 -25 -37 -25 -45 -4 -4 10 2 25 16 39 29 29 58
31 58 5z m-426 -6 c-4 -8 -10 -15 -15 -15 -4 0 -6 7 -3 15 4 8 10 15 15 15 4
0 6 -7 3 -15z m-49 -5 c3 -5 1 -10 -4 -10 -6 0 -11 5 -11 10 0 6 2 10 4 10 3
0 8 -4 11 -10z m-535 -8 c0 -5 44 -14 98 -21 123 -16 133 -16 155 -6 17 7 18
6 5 -14 -10 -17 -20 -21 -43 -17 -16 2 -24 2 -17 -1 10 -4 9 -8 -5 -19 -24
-18 -34 -18 -27 1 4 10 -3 16 -23 21 -15 4 -32 9 -37 12 -5 3 -39 6 -76 7 -69
2 -90 8 -90 27 0 6 10 8 26 4 17 -5 23 -3 19 4 -3 5 -1 10 4 10 6 0 11 -4 11
-8z m404 -6 c-21 -15 -30 -14 -19 3 3 6 14 11 23 11 13 0 13 -2 -4 -14z m81 4
c-3 -5 -1 -10 6 -10 7 0 10 -3 6 -6 -9 -9 -28 6 -22 17 4 5 8 9 11 9 3 0 2 -4
-1 -10z m162 -1 c15 -15 -7 -39 -36 -39 -26 0 -26 4 -3 29 21 23 25 24 39 10z
m-891 -8 c-7 -11 -56 -21 -56 -10 0 9 19 17 43 18 10 1 16 -3 13 -8z m125 -23
c-24 -24 -34 -29 -41 -19 -6 11 -12 9 -26 -5 -30 -30 -81 -64 -95 -64 -8 0 2
14 21 31 19 16 45 39 57 50 23 21 63 37 97 38 17 1 14 -4 -13 -31z m849 12
c-11 -21 -22 -25 -33 -13 -9 9 12 33 30 33 11 0 11 -4 3 -20z m374 5 c-4 -8
-8 -15 -10 -15 -2 0 -4 7 -4 15 0 8 4 15 10 15 5 0 7 -7 4 -15z m360 -7 c-35
-43 -117 -119 -121 -114 -9 9 17 44 67 89 53 49 87 64 54 25z m-1129 2 c-3 -5
-14 -10 -23 -10 -15 0 -15 2 -2 10 20 13 33 13 25 0z m504 -11 c-16 -10 -23
-4 -14 10 3 6 11 8 17 5 6 -4 5 -9 -3 -15z m198 4 c-9 -9 -19 -14 -23 -11 -10
10 6 28 24 28 15 0 15 -1 -1 -17z m-567 -3 c0 -5 -11 -12 -25 -16 -24 -6 -32
-18 -17 -27 4 -2 1 -2 -5 -1 -18 5 -16 -15 2 -22 8 -4 12 -10 9 -16 -4 -5 -11
-5 -18 1 -7 6 -16 8 -19 4 -11 -10 -8 13 4 39 13 30 69 61 69 38z m344 -41
c-20 -23 -51 -30 -64 -15 -7 9 -3 16 15 26 14 7 25 20 25 28 0 12 4 12 20 -3
18 -17 19 -20 4 -36z m116 38 c0 -7 -9 -23 -19 -34 -11 -12 -17 -24 -13 -28 4
-4 -2 -5 -13 -3 -11 2 -20 10 -20 18 0 18 35 58 53 59 6 1 12 -5 12 -12z m260
9 c0 -11 -19 -15 -25 -6 -3 5 1 10 9 10 9 0 16 -2 16 -4z m-1505 -16 c-3 -5
-11 -10 -16 -10 -6 0 -7 5 -4 10 3 6 11 10 16 10 6 0 7 -4 4 -10z m695 -14
c-30 -29 -85 -47 -78 -25 2 8 18 16 34 17 16 2 33 10 37 18 4 8 13 14 20 14 6
0 0 -11 -13 -24z m145 4 c-10 -11 -23 -20 -28 -20 -13 0 24 39 37 39 5 1 1 -8
-9 -19z m1119 5 c-7 -16 -24 -21 -24 -6 0 8 7 13 27 20 1 1 0 -6 -3 -14z
m-1889 -5 c-3 -5 -10 -10 -16 -10 -5 0 -9 5 -9 10 0 6 7 10 16 10 8 0 12 -4 9
-10z m327 -7 c10 -3 15 -9 12 -14 -3 -5 -11 -6 -17 -2 -7 4 -16 8 -22 9 -5 0
-16 2 -23 2 -7 1 -10 7 -7 13 4 6 14 7 24 4 9 -4 24 -10 33 -12z m-115 1 c-3
-3 -12 -4 -19 -1 -8 3 -5 6 6 6 11 1 17 -2 13 -5z m613 -4 c0 -5 -5 -10 -11
-10 -6 0 -9 -8 -7 -17 4 -13 -2 -18 -19 -19 -25 -2 -25 -2 12 43 12 15 25 17
25 3z m110 0 c0 -5 -4 -10 -9 -10 -6 0 -13 5 -16 10 -3 6 1 10 9 10 9 0 16 -4
16 -10z m300 0 c0 -6 9 -6 26 0 41 16 54 12 54 -16 0 -15 -4 -23 -11 -19 -6 4
-8 13 -5 21 3 8 0 11 -10 7 -7 -3 -14 -11 -14 -19 0 -7 -10 -18 -21 -25 -15
-8 -19 -8 -15 0 4 6 1 11 -7 11 -16 0 -30 27 -21 41 7 12 24 12 24 -1z m-1340
-4 c0 -2 -7 -9 -15 -16 -13 -11 -14 -10 -9 4 5 14 24 23 24 12z m48 -32 c-24
-25 -38 -30 -38 -14 0 14 42 50 52 44 5 -3 -2 -16 -14 -30z m1611 -5 c-20 -12
-22 -4 -7 20 11 18 14 19 16 5 2 -9 -2 -20 -9 -25z m-1409 -14 c-18 -19 -38
-31 -43 -28 -6 3 7 21 28 40 48 43 60 34 15 -12z m367 34 c-9 -6 -15 -14 -12
-19 3 -5 -12 -7 -32 -4 -30 3 -34 2 -20 -7 9 -5 15 -14 12 -20 -8 -11 -16 -11
-35 1 -12 7 -12 12 4 29 10 11 23 18 27 15 5 -3 17 0 26 5 10 6 25 10 33 10
12 0 11 -2 -3 -10z m-412 -29 c-19 -19 -31 -26 -34 -19 -2 7 6 21 19 31 36 29
46 21 15 -12z m635 5 c7 4 4 -4 -5 -19 -10 -14 -21 -26 -25 -26 -5 0 -15 -3
-24 -6 -10 -4 -16 -1 -16 9 0 8 9 17 21 20 16 4 19 11 14 29 -6 22 -5 22 9 4
8 -10 20 -15 26 -11z m187 19 c-3 -3 -12 -4 -19 -1 -8 3 -5 6 6 6 11 1 17 -2
13 -5z m443 -3 c0 -5 -7 -14 -15 -21 -12 -10 -15 -10 -15 2 0 8 3 18 7 21 9
10 23 9 23 -2z m75 -11 c10 -32 -6 -46 -21 -19 -7 13 -10 27 -8 31 9 14 23 8
29 -12z m-1180 0 c4 -6 1 -17 -5 -25 -10 -12 -9 -15 9 -15 12 0 19 -4 16 -10
-8 -13 -33 -13 -48 0 -7 6 -21 17 -32 25 -20 14 -20 14 3 15 12 0 22 5 22 10
0 13 27 13 35 0z m352 -10 c3 -11 9 -17 14 -14 5 3 8 0 7 -8 -3 -12 -36 -34
-85 -57 -13 -6 -23 -15 -23 -21 0 -13 -40 -13 -60 0 -11 7 -7 10 18 10 32 0
42 13 20 26 -7 5 -5 11 7 21 11 7 15 13 11 13 -5 0 -3 7 4 15 7 8 21 15 31 15
11 0 19 5 19 10 0 19 32 10 37 -10z m-247 -5 c15 -18 7 -18 -40 0 l-35 13 31
1 c17 1 37 -6 44 -14z m528 -33 c-12 -15 -25 -29 -29 -32 -4 -4 -57 -76 -65
-88 -2 -2 -12 -1 -23 3 -22 7 -19 33 6 48 19 11 16 37 -4 37 -16 0 -16 1 1 18
13 12 20 14 23 5 3 -7 9 -13 15 -13 6 0 7 7 4 16 -3 8 1 23 10 32 15 15 16 14
10 -6 -10 -31 12 -28 24 3 9 22 13 24 31 15 l21 -12 -24 -26z m102 34 c0 -21
-23 -36 -40 -26 -11 7 -11 11 -1 24 16 20 41 21 41 2z m109 -5 c12 -22 5 -31
-24 -31 -31 0 -37 11 -18 32 20 23 30 23 42 -1z m96 9 c3 -5 -1 -10 -9 -10 -9
0 -16 5 -16 10 0 6 4 10 9 10 6 0 13 -4 16 -10z m325 -15 c0 -8 -7 -15 -15
-15 -16 0 -20 12 -8 23 11 12 23 8 23 -8z m-740 0 c0 -2 -10 -13 -22 -25 -26
-24 -50 -27 -42 -5 4 8 12 15 20 15 8 0 14 5 14 10 0 6 7 10 15 10 8 0 15 -2
15 -5z m620 -15 c0 -11 -9 -25 -20 -32 -11 -7 -20 -21 -20 -30 0 -10 -4 -18
-9 -18 -14 0 -4 82 11 91 22 15 38 10 38 -11z m-260 -25 c-16 -29 -35 -32 -44
-8 -4 10 -4 14 0 11 3 -4 15 2 27 12 26 25 34 17 17 -15z m402 -16 c-33 -31
-42 -35 -42 -19 0 17 64 73 69 59 2 -6 -10 -24 -27 -40z m-1387 31 c-3 -5 -11
-10 -16 -10 -6 0 -7 5 -4 10 3 6 11 10 16 10 6 0 7 -4 4 -10z m214 -1 c17 -6
31 -15 31 -21 0 -6 7 -8 15 -5 8 4 17 1 21 -5 8 -13 -15 -28 -33 -21 -8 3 -13
0 -11 -8 2 -8 -3 -13 -9 -11 -7 1 -13 -2 -13 -8 0 -5 -6 -10 -14 -10 -19 0
-14 30 8 46 16 12 15 14 -13 29 -49 25 -39 34 18 14z m-374 -19 c-10 -11 -24
-20 -32 -20 -7 0 -13 -4 -13 -10 0 -5 -7 -10 -15 -10 -23 0 -17 13 18 37 43
28 67 30 42 3z m948 14 c7 -7 -72 -83 -85 -84 -16 0 -7 16 28 53 35 37 45 42
57 31z m102 -4 c4 -6 1 -17 -5 -26 -10 -11 -16 -12 -26 -3 -11 9 -11 15 -3 25
14 17 25 18 34 4z m160 0 c3 -5 1 -10 -4 -10 -6 0 -11 5 -11 10 0 6 2 10 4 10
3 0 8 -4 11 -10z m275 -5 c0 -8 -4 -15 -10 -15 -5 0 -10 7 -10 15 0 8 5 15 10
15 6 0 10 -7 10 -15z m209 -6 c-22 -14 -33 -10 -19 6 7 8 17 12 22 9 6 -4 5
-10 -3 -15z m-1454 2 c3 -5 1 -12 -4 -15 -12 -8 -41 3 -41 15 0 12 37 12 45 0z
m-95 -6 c0 -3 -11 -10 -25 -15 -14 -5 -25 -17 -25 -25 0 -9 -25 -40 -55 -70
-32 -33 -55 -49 -55 -40 0 22 30 66 41 59 5 -3 9 -1 9 5 0 6 12 17 28 25 15 8
21 15 13 16 -22 0 28 50 51 50 10 0 18 -2 18 -5z m188 -20 c-3 -3 -9 2 -12 12
-6 14 -5 15 5 6 7 -7 10 -15 7 -18z m962 21 c0 -2 -7 -6 -15 -10 -8 -3 -15 -1
-15 4 0 6 7 10 15 10 8 0 15 -2 15 -4z m-1235 -25 c-7 -12 -45 -34 -45 -27 0
3 10 14 22 26 22 20 36 21 23 1z m621 -9 c-19 -18 -30 -23 -33 -14 -3 6 -13
12 -23 12 -20 0 -33 13 -24 23 3 3 28 5 56 5 l51 1 -27 -27z m283 11 c-39 -51
-94 -87 -68 -45 10 15 68 62 78 62 2 0 -3 -8 -10 -17z m241 8 c0 -5 -7 -14
-15 -21 -12 -10 -15 -10 -15 2 0 8 3 18 7 21 9 10 23 9 23 -2z m120 -42 c-19
-45 -56 -84 -63 -65 -3 8 2 16 14 19 10 3 19 11 19 17 0 9 -4 9 -17 -1 -15
-12 -16 -12 -10 5 12 31 52 74 61 65 5 -4 3 -21 -4 -40z m-1122 33 c16 -11
-21 -52 -48 -52 -11 0 -19 -4 -17 -8 1 -5 -16 -27 -38 -50 -38 -41 -40 -42
-48 -20 -6 18 -4 26 14 38 12 8 40 34 63 56 43 44 53 49 74 36z m99 -10 c-23
-5 -97 -79 -88 -88 3 -4 -4 -4 -16 -1 -16 3 -23 1 -23 -9 0 -8 -16 -30 -35
-50 -19 -19 -35 -39 -35 -44 0 -6 -6 -10 -14 -10 -36 0 -22 26 50 93 42 39 88
83 103 97 18 17 34 24 51 21 19 -4 21 -6 7 -9z m713 -4 c0 -6 -13 -24 -30 -39
-16 -16 -27 -29 -24 -29 12 0 50 24 61 39 13 17 13 17 17 -17 2 -15 -2 -21
-10 -18 -8 3 -20 -1 -28 -9 -8 -8 -20 -15 -26 -15 -7 0 -10 -7 -7 -14 4 -10
-2 -17 -16 -22 -12 -3 -30 -13 -40 -22 -33 -29 -29 -3 4 29 31 29 29 31 -16
13 -8 -3 -15 -1 -15 5 0 6 11 16 25 21 14 5 25 14 25 20 0 20 53 78 67 73 7
-3 13 -10 13 -15z m425 3 c-3 -6 -11 -11 -17 -11 -6 0 -6 6 2 15 14 17 26 13
15 -4z m-685 -1 c0 -5 -8 -10 -17 -10 -15 0 -16 2 -3 10 19 12 20 12 20 0z
m483 -7 c9 -8 -12 -33 -27 -33 -6 0 -4 5 4 10 11 7 11 10 2 10 -7 0 -10 5 -7
10 7 12 19 13 28 3z m-548 -22 c-3 -6 -11 -11 -17 -11 -6 0 -6 6 2 15 14 17
26 13 15 -4z m795 -6 c-13 -14 -31 -25 -39 -25 -11 1 -6 9 14 25 39 32 55 32
25 0z m39 -2 c-13 -16 -25 -30 -26 -32 -2 -2 -5 -2 -8 1 -5 5 43 58 53 58 3 0
-5 -12 -19 -27z m-924 7 c-3 -5 -12 -10 -18 -10 -7 0 -6 4 3 10 19 12 23 12
15 0z m45 2 c0 -11 -131 -142 -142 -142 -20 0 -2 45 23 57 14 7 43 30 65 52
38 39 54 49 54 33z m506 -4 c4 -6 0 -16 -8 -22 -8 -6 -13 -18 -11 -26 3 -11 0
-10 -10 3 -8 10 -13 27 -10 37 6 22 28 27 39 8z m-1286 -19 c-7 -11 -14 -18
-17 -15 -3 3 0 12 7 21 18 21 23 19 10 -6z m125 1 c-10 -11 -21 -17 -24 -14
-3 3 3 12 13 20 28 20 32 17 11 -6z m391 10 c35 14 37 9 5 -15 l-26 -21 -25
24 c-22 22 -23 24 -3 13 15 -8 30 -8 49 -1z m84 0 c0 -5 -7 -10 -16 -10 -8 0
-12 5 -9 10 3 6 10 10 16 10 5 0 9 -4 9 -10z m949 7 c-2 -1 -13 -9 -24 -17
-19 -14 -19 -14 -6 3 7 9 18 17 24 17 6 0 8 -1 6 -3z m-891 -37 c-6 -10 -24
-25 -40 -34 -15 -10 -28 -24 -28 -32 0 -16 -9 -18 -28 -5 -10 6 -7 15 13 39
15 18 33 32 40 32 7 0 15 7 19 15 3 8 12 12 20 9 12 -5 13 -10 4 -24z m132 10
c0 -5 -5 -10 -11 -10 -5 0 -7 5 -4 10 3 6 8 10 11 10 2 0 4 -4 4 -10z m96 -5
c10 -8 14 -15 7 -15 -7 0 -10 -6 -7 -14 7 -19 -12 -29 -34 -17 -29 15 -34 1
-9 -21 l22 -19 -25 7 c-44 11 -47 24 -15 50 17 13 24 24 17 24 -7 0 -10 5 -7
10 9 14 28 12 51 -5z m127 9 c9 -9 -16 -44 -32 -44 -11 0 -11 4 2 18 10 10 14
22 10 25 -3 4 -2 7 4 7 5 0 12 -3 16 -6z m-582 -23 c-12 -22 -56 -52 -65 -44
-10 10 -7 33 5 33 6 0 17 7 25 15 23 22 47 20 35 -4z m129 9 c0 -5 -4 -10 -10
-10 -5 0 -10 5 -10 10 0 6 5 10 10 10 6 0 10 -4 10 -10z m680 -15 c6 -8 9 -18
6 -24 -3 -5 4 -7 16 -5 13 2 17 2 11 -2 -7 -3 -13 -14 -13 -24 0 -22 -25 -50
-45 -50 -8 0 -12 8 -9 23 4 20 4 20 -7 -3 -7 -14 -13 -29 -13 -34 -1 -5 -10
-10 -21 -12 -11 -2 -24 -9 -30 -17 -8 -12 -12 -12 -23 -1 -16 18 -15 29 2 15
11 -9 15 -6 20 14 4 14 11 25 17 25 6 0 8 4 4 10 -3 5 10 27 29 48 20 22 33
42 29 46 -3 3 -2 6 4 6 6 0 16 -7 23 -15z m-1378 -25 c-5 -32 -22 -52 -22 -25
0 15 17 55 24 55 1 0 1 -14 -2 -30z m170 8 c-7 -7 -12 -8 -12 -2 0 14 12 26
19 19 2 -3 -1 -11 -7 -17z m433 12 c-3 -5 -11 -10 -16 -10 -6 0 -7 5 -4 10 3
6 11 10 16 10 6 0 7 -4 4 -10z m-479 -56 c-3 -8 -10 -13 -15 -10 -5 4 -4 16 2
31 9 18 13 20 15 9 2 -8 1 -22 -2 -30z m434 11 c-7 -8 -16 -15 -21 -15 -15 0
-10 22 9 36 20 15 29 0 12 -21z m-380 6 c-11 -21 -30 -37 -30 -25 0 8 30 44
37 44 2 0 -1 -9 -7 -19z m910 9 c12 -8 12 -10 1 -10 -11 0 -11 -3 -1 -15 10
-12 9 -16 -4 -21 -21 -8 -31 1 -31 32 -1 25 10 30 35 14z m410 0 c0 -5 -4 -10
-10 -10 -5 0 -10 5 -10 10 0 6 5 10 10 10 6 0 10 -4 10 -10z m35 0 c-3 -5 -11
-10 -16 -10 -6 0 -7 5 -4 10 3 6 11 10 16 10 6 0 7 -4 4 -10z m-1225 -46 c-7
-7 -16 -14 -21 -14 -13 0 -11 34 3 48 18 18 34 -14 18 -34z m172 16 c-30 -28
-28 -36 3 -16 31 21 56 10 26 -11 -12 -8 -21 -23 -21 -34 0 -32 -25 -22 -48
19 -12 21 -11 27 4 43 9 10 26 19 37 19 20 0 20 0 -1 -20z m142 6 c-3 -8 -16
-22 -29 -30 -20 -14 -22 -13 -21 2 0 9 10 22 21 29 28 16 35 15 29 -1z m331
-6 c16 -18 16 -20 1 -26 -9 -3 -14 -10 -11 -14 3 -5 -4 -6 -15 -3 -28 7 -33
19 -18 43 16 25 20 25 43 0z m325 5 c-6 -8 -9 -19 -5 -25 3 -5 2 -10 -3 -10
-15 0 -22 26 -9 39 16 16 31 13 17 -4z m-1045 -5 c-3 -5 -10 -10 -16 -10 -5 0
-9 5 -9 10 0 6 7 10 16 10 8 0 12 -4 9 -10z m475 -8 c3 -3 0 -7 -7 -9 -6 -2
-25 -17 -42 -34 -35 -33 -44 -35 -61 -15 -18 22 46 77 80 69 14 -3 27 -8 30
-11z m520 -37 c-12 -15 -30 -12 -30 5 0 5 8 16 18 26 16 17 17 17 20 0 2 -9
-2 -23 -8 -31z m-1059 -8 c-16 -16 -20 -5 -8 23 9 22 11 23 14 6 3 -10 0 -23
-6 -29z m-171 29 c0 -2 -7 -7 -16 -10 -8 -3 -12 -2 -9 4 6 10 25 14 25 6z
m270 -17 c0 -14 -5 -19 -14 -16 -10 4 -17 -2 -22 -16 -8 -27 -64 -82 -64 -63
0 8 7 19 15 26 8 7 15 19 15 28 0 17 39 59 58 61 6 1 12 -8 12 -20z m1284 6
c-4 -8 -11 -15 -16 -15 -6 0 -5 6 2 15 7 8 14 15 16 15 2 0 1 -7 -2 -15z
m-1140 -30 c-16 -25 -38 -38 -48 -28 -9 9 45 64 55 57 5 -3 2 -16 -7 -29z
m726 16 c-15 -29 -30 -35 -30 -13 0 22 8 32 27 32 10 0 11 -5 3 -19z m-360 -6
c-7 -9 -15 -13 -19 -10 -3 3 1 10 9 15 21 14 24 12 10 -5z m120 6 c0 -16 -58
-71 -74 -71 -9 0 -16 -8 -16 -18 0 -23 -136 -166 -149 -157 -6 3 -11 12 -11
18 1 18 85 107 103 107 8 0 14 7 13 16 0 9 8 21 19 28 31 18 43 31 47 52 2 10
8 19 15 19 6 0 15 3 19 8 10 10 34 9 34 -2z m-576 -23 c-7 -24 -35 -50 -44
-42 -2 3 1 9 8 13 7 4 12 12 11 17 -4 22 2 34 17 34 11 0 14 -6 8 -22z m221 3
c-3 -6 -11 -11 -17 -11 -6 0 -6 6 2 15 14 17 26 13 15 -4z m193 7 c27 -27 5
-71 -24 -47 -13 11 -14 9 -9 -14 5 -17 3 -27 -4 -27 -6 0 -11 -7 -11 -15 0 -8
-9 -15 -21 -15 -11 0 -18 -4 -15 -9 3 -4 -6 -19 -19 -31 -25 -23 -25 -23 -40
-4 -8 10 -15 25 -15 32 0 15 60 68 73 64 5 -1 6 1 4 5 -9 14 21 46 37 40 9 -4
15 -3 15 1 -5 31 8 41 29 20z m268 -11 c1 -9 -2 -17 -6 -17 -5 0 -16 -3 -25
-6 -14 -6 -14 -3 -4 20 13 29 31 30 35 3z m54 4 c-13 -26 -27 -34 -35 -21 -8
14 13 40 32 40 10 0 11 -4 3 -19z m120 -12 c0 -10 -19 -36 -41 -57 -52 -47
-67 -55 -85 -48 -12 5 -8 13 19 40 26 28 38 34 58 29 22 -6 23 -5 10 10 -12
15 -11 20 4 37 20 22 35 18 35 -11z m500 28 c0 -2 -11 -14 -25 -27 -14 -13
-25 -21 -25 -17 0 3 10 15 22 27 21 19 28 24 28 17z m-255 -44 c-14 -21 -28
-45 -32 -53 -14 -31 -30 -40 -42 -26 -21 25 41 98 97 115 1 1 -9 -16 -23 -36z
m-1345 6 c-7 -11 -14 -18 -17 -15 -8 8 5 36 17 36 7 0 7 -6 0 -21z m366 7 c19
-19 18 -30 -2 -22 -11 4 -14 1 -10 -12 4 -11 -2 -22 -16 -31 -18 -11 -20 -11
-15 3 4 10 1 16 -8 16 -21 0 -19 10 7 37 25 27 25 27 44 9z m150 0 c7 -19 -13
-56 -30 -56 -8 0 -19 7 -26 15 -10 13 -10 19 5 35 21 23 43 26 51 6z m464 -46
c-17 -17 -36 -27 -42 -24 -7 4 4 20 28 41 46 42 59 27 14 -17z m-1020 36 c0
-3 -4 -8 -10 -11 -5 -3 -10 -1 -10 4 0 6 5 11 10 11 6 0 10 -2 10 -4z m926
-54 c-16 -17 -66 -26 -66 -12 0 6 7 25 16 42 l16 31 23 -24 c18 -19 20 -27 11
-37z m268 31 c-9 -37 -21 -50 -35 -36 -15 15 -2 51 19 56 9 3 18 5 20 6 1 0
-1 -11 -4 -26z m97 6 c-13 -11 -26 -17 -29 -14 -7 6 29 34 43 34 6 0 -1 -9
-14 -20z m-982 -20 c-9 -17 -13 -18 -26 -8 -13 12 -13 14 3 26 23 17 37 6 23
-18z m530 2 c-7 -20 -15 -28 -25 -24 -8 3 -14 10 -14 15 0 6 6 8 14 5 8 -3 16
2 19 14 3 10 8 19 11 19 3 0 0 -13 -5 -29z m-859 -11 c-9 -17 -30 -28 -30 -16
0 16 15 36 26 36 12 0 12 -4 4 -20z m60 10 c0 -5 -4 -10 -10 -10 -5 0 -10 5
-10 10 0 6 5 10 10 10 6 0 10 -4 10 -10z m459 -9 c8 -14 6 -22 -7 -33 -9 -9
-23 -13 -29 -11 -7 3 -13 -1 -13 -8 0 -15 -39 -59 -53 -59 -5 0 -7 7 -3 15 3
9 0 15 -9 15 -21 0 -19 10 9 45 20 24 27 28 37 18 16 -16 43 -17 34 -3 -9 14
1 40 14 40 6 0 15 -8 20 -19z m-165 -53 c-9 -14 -22 -9 -29 12 -4 12 -1 28 6
37 12 13 14 12 21 -13 4 -15 5 -31 2 -36z m-154 27 c-7 -8 -17 -12 -23 -8 -6
4 -3 11 8 19 23 17 32 10 15 -11z m93 19 c3 -4 -1 -17 -10 -31 -20 -30 -41
-16 -24 16 12 21 23 26 34 15z m967 -4 c0 -5 -5 -10 -11 -10 -5 0 -7 5 -4 10
3 6 8 10 11 10 2 0 4 -4 4 -10z m-86 -15 c20 -15 20 -15 1 -29 -11 -8 -24 -12
-29 -9 -5 4 -6 1 -2 -5 4 -6 -5 -19 -20 -29 -25 -16 -27 -16 -40 2 -18 24 -18
35 0 35 8 0 24 11 37 25 28 29 28 29 53 10z m358 -16 c-12 -9 -22 -21 -22 -27
0 -13 -39 -46 -46 -39 -4 4 1 9 10 13 9 3 16 12 16 19 0 19 43 64 54 58 5 -4
0 -14 -12 -24z m-1503 -37 c7 -24 10 -46 7 -49 -7 -7 -36 65 -36 90 0 30 15 9
29 -41z m71 50 c0 -13 -12 -22 -22 -16 -10 6 -1 24 13 24 5 0 9 -4 9 -8z m716
-7 c9 -23 -5 -38 -24 -23 -12 10 -14 10 -8 1 4 -7 2 -13 -3 -13 -14 0 -14 6
-1 31 13 23 28 25 36 4z m64 -6 c0 -5 -4 -9 -10 -9 -5 0 -10 7 -10 16 0 8 5
12 10 9 6 -3 10 -10 10 -16z m770 6 c-7 -9 -15 -13 -19 -10 -3 3 1 10 9 15 21
14 24 12 10 -5z m-663 -15 c-1 -18 -12 -24 -44 -23 -12 1 -7 -23 10 -44 11
-15 -15 -29 -33 -18 -6 4 -20 -1 -31 -11 -18 -16 -19 -16 -19 4 0 12 5 22 10
22 6 0 10 10 10 22 0 12 3 18 6 15 4 -4 22 7 41 23 39 35 52 38 50 10z m-818
-33 c1 -5 -3 -5 -9 -2 -5 3 -10 16 -9 28 0 21 1 21 9 2 5 -11 9 -24 9 -28z
m141 29 c0 -23 -31 -49 -43 -37 -7 7 -5 17 8 31 21 23 35 26 35 6z m714 -12
c4 -10 1 -14 -6 -12 -15 5 -23 28 -10 28 5 0 13 -7 16 -16z m311 6 c3 -5 1
-10 -4 -10 -6 0 -11 5 -11 10 0 6 2 10 4 10 3 0 8 -4 11 -10z m-1378 -37 c-3
-10 -5 -4 -5 12 0 17 2 24 5 18 2 -7 2 -21 0 -30z m264 -6 c-13 -13 -15 1 -4
30 7 17 8 17 11 -1 2 -10 -1 -23 -7 -29z m625 29 c6 -17 -12 -56 -27 -56 -16
0 -23 31 -8 41 8 5 10 9 6 9 -12 0 2 20 14 20 5 0 12 -6 15 -14z m434 10 c0
-3 -4 -8 -10 -11 -5 -3 -10 -1 -10 4 0 6 5 11 10 11 6 0 10 -2 10 -4z m-724
-23 c7 -10 14 -26 14 -36 0 -14 -6 -18 -27 -15 -31 3 -42 30 -23 53 16 19 20
19 36 -2z m674 -10 c0 -10 -6 -13 -16 -9 -12 5 -15 2 -10 -10 4 -10 -3 -23
-16 -35 -28 -22 -38 -24 -38 -5 0 8 -5 16 -12 18 -6 2 1 15 17 31 16 14 32 24
36 21 4 -2 10 0 14 6 9 14 25 3 25 -17z m400 17 c0 -5 -2 -10 -4 -10 -3 0 -8
5 -11 10 -3 6 -1 10 4 10 6 0 11 -4 11 -10z m-1630 -33 c0 -5 -4 -5 -10 -2 -5
3 -10 14 -10 23 0 15 2 15 10 2 5 -8 10 -19 10 -23z m988 22 c-2 -6 -8 -10
-13 -10 -5 0 -11 4 -13 10 -2 6 4 11 13 11 9 0 15 -5 13 -11z m-608 -19 c0
-12 -10 -25 -24 -31 -13 -6 -27 -21 -31 -33 -6 -19 -8 -19 -12 -3 -3 11 6 28
21 44 14 14 26 30 26 34 0 5 5 9 10 9 6 0 10 -9 10 -20z m710 -18 c0 -4 -30
-35 -66 -70 -56 -54 -68 -61 -82 -50 -13 11 -12 13 12 16 20 3 26 8 22 19 -3
8 -6 20 -6 26 0 7 -9 1 -20 -13 -10 -14 -22 -21 -26 -17 -4 4 5 18 19 31 15
14 27 30 27 36 0 5 5 10 10 10 7 0 7 -6 1 -18 -9 -16 -6 -19 19 -19 26 0 27 3
19 24 -6 17 -4 28 8 42 15 18 18 18 40 4 12 -8 23 -18 23 -21z m234 24 c-6
-16 -34 -30 -42 -21 -6 5 28 34 40 35 4 0 5 -6 2 -14z m-573 -13 c-9 -18 -47
-53 -56 -53 -2 0 -18 -14 -36 -31 -17 -17 -34 -27 -37 -24 -4 4 4 15 18 25 14
11 21 20 15 20 -5 0 4 9 22 20 18 11 38 29 45 40 16 25 43 28 29 3z m620 -26
c-6 -15 -17 -27 -25 -27 -18 0 -11 23 13 52 19 23 25 10 12 -25z m72 28 c4 -8
2 -17 -3 -20 -6 -4 -10 3 -10 14 0 25 6 27 13 6z m-1328 -5 c3 -5 -1 -10 -10
-10 -9 0 -13 5 -10 10 3 6 8 10 10 10 2 0 7 -4 10 -10z m81 -1 c3 -6 2 -15 -4
-21 -6 -6 -11 -2 -15 11 -5 22 7 29 19 10z m608 -7 c9 -15 -68 -90 -96 -95
-16 -2 -28 -3 -28 -1 0 11 14 34 21 34 4 0 25 16 46 35 39 36 48 41 57 27z
m-794 -42 c0 -10 7 -20 15 -24 8 -3 15 -16 15 -29 0 -13 3 -27 8 -31 4 -4 8
-12 8 -17 1 -5 2 -13 3 -19 0 -5 9 -10 20 -10 10 0 24 -7 31 -15 16 -20 -1
-20 -38 -1 -29 15 -60 61 -49 72 3 4 -5 26 -18 49 -29 49 -34 75 -10 55 8 -7
15 -20 15 -30z m67 8 c-3 -7 -5 -2 -5 12 0 14 2 19 5 13 2 -7 2 -19 0 -25z
m388 22 c-3 -5 -13 -10 -21 -10 -8 0 -14 -7 -14 -15 0 -8 -4 -15 -8 -15 -4 0
-13 -14 -19 -31 -13 -33 -35 -32 -26 1 3 11 9 17 14 14 5 -3 12 8 15 25 4 16
14 32 23 34 30 8 42 7 36 -3z m55 -20 c0 -6 -6 -10 -14 -10 -17 0 -41 -28 -32
-37 3 -3 14 1 24 10 23 21 32 21 32 1 0 -8 -16 -22 -35 -30 -32 -13 -75 -19
-75 -10 0 14 14 36 22 36 5 0 6 -5 2 -12 -4 -7 -3 -8 5 -4 8 6 9 11 1 20 -7
10 -4 20 11 40 17 21 24 24 40 16 10 -6 19 -15 19 -20z m-300 -1 c-7 -11 -14
-18 -17 -15 -8 8 5 36 17 36 7 0 7 -6 0 -21z m-164 -26 c-11 -11 -19 6 -11 24
8 17 8 17 12 0 3 -10 2 -21 -1 -24z m1072 -19 c-15 -15 -17 -15 -25 2 -8 17
-9 24 -4 51 0 4 11 -3 23 -15 21 -20 21 -23 6 -38z m102 34 c0 -7 -5 -20 -10
-28 -12 -19 -35 2 -27 24 7 19 37 21 37 4z m-380 -14 c0 -9 -5 -14 -12 -12
-18 6 -21 28 -4 28 9 0 16 -7 16 -16z m60 12 c0 -3 -4 -8 -10 -11 -5 -3 -10
-1 -10 4 0 6 5 11 10 11 6 0 10 -2 10 -4z m-317 -23 c-10 -29 -14 -34 -23 -28
-6 4 -4 14 3 25 15 25 29 26 20 3z m750 11 c16 -6 12 -38 -6 -61 -5 -7 -6 -13
-2 -13 4 0 14 8 21 18 13 16 13 16 14 -4 0 -29 -23 -74 -38 -74 -7 0 -10 -4
-7 -10 3 -5 1 -10 -4 -10 -6 0 -10 11 -9 25 1 14 5 25 9 25 4 0 7 16 7 35 0
32 -2 34 -23 29 -20 -5 -23 -3 -18 15 4 17 8 19 19 10 8 -7 17 -9 21 -5 3 3 1
6 -6 6 -7 0 -9 5 -6 10 7 12 9 12 28 4z m51 -18 c-3 -9 -10 -16 -15 -16 -5 0
-4 9 3 20 14 22 21 20 12 -4z m-514 7 c0 -5 -13 -23 -29 -42 -17 -19 -28 -38
-25 -42 4 -7 -26 -22 -33 -16 -10 10 19 57 49 81 36 29 38 29 38 19z m220 -25
c0 -3 -14 -9 -31 -13 -30 -7 -30 -7 -12 -28 10 -11 13 -17 6 -14 -6 4 -18 -2
-27 -14 -13 -19 -18 -20 -31 -9 -8 7 -15 16 -15 21 0 11 50 64 51 53 0 -5 4 1
9 14 8 20 12 21 30 10 11 -7 20 -16 20 -20z m-940 2 c0 -13 -19 -22 -30 -15
-14 9 0 34 16 28 8 -3 14 -9 14 -13z m644 14 c16 -6 12 -24 -5 -24 -6 0 -8 4
-5 9 4 5 0 12 -6 14 -7 3 -10 6 -6 6 3 1 13 -2 22 -5z m-849 -14 c3 -5 1 -10
-4 -10 -6 0 -11 5 -11 10 0 6 2 10 4 10 3 0 8 -4 11 -10z m263 -2 c-6 -18 -25
-20 -31 -3 -5 10 0 15 14 15 12 0 19 -5 17 -12z m82 2 c0 -5 -5 -10 -11 -10
-5 0 -7 5 -4 10 3 6 8 10 11 10 2 0 4 -4 4 -10z m877 -7 c3 -7 -4 -9 -16 -6
-12 3 -18 9 -15 15 7 11 26 6 31 -9z m-397 -2 c0 -5 -15 -21 -32 -35 -42 -33
-62 -12 -20 21 28 24 52 30 52 14z m-403 -38 c2 -5 -10 -10 -27 -11 -16 0 -30
4 -30 9 0 5 5 9 12 9 6 0 9 3 6 6 -4 3 -16 1 -27 -6 -12 -6 -21 -7 -21 -2 0 5
10 14 23 19 23 11 57 -2 64 -24z m-130 7 c-1 -20 -8 -25 -20 -14 -3 3 0 12 6
20 16 17 16 17 14 -6z m303 16 c0 -3 -4 -8 -10 -11 -5 -3 -10 -1 -10 4 0 6 5
11 10 11 6 0 10 -2 10 -4z m384 -37 c-3 -5 -12 -9 -21 -9 -9 0 -13 -6 -10 -15
4 -9 -5 -22 -22 -35 -36 -25 -37 -25 -44 0 -3 13 0 20 8 20 8 0 17 5 21 12 5
8 2 9 -10 5 -10 -4 -15 -3 -11 3 3 6 13 10 21 10 8 0 14 7 14 15 0 24 33 37
47 18 7 -9 10 -20 7 -24z m226 26 c0 -21 -34 -37 -48 -23 -9 9 -12 6 -12 -14
0 -15 6 -28 13 -31 6 -2 9 -8 5 -12 -4 -4 -15 -2 -24 6 -14 11 -15 10 -12 -6
4 -25 -30 -33 -39 -9 -4 12 7 29 40 60 46 45 77 56 77 29z m150 5 c0 -5 -2
-10 -4 -10 -3 0 -8 5 -11 10 -3 6 -1 10 4 10 6 0 11 -4 11 -10z m124 -9 c3 -5
-1 -11 -9 -15 -9 -3 -15 0 -15 9 0 16 16 20 24 6z m-1256 -10 c9 -5 26 -13 37
-16 20 -7 20 -7 0 -15 -12 -4 -25 -2 -33 7 -7 7 -18 13 -23 13 -5 0 -9 5 -9
10 0 12 5 13 28 1z m490 -3 c-3 -7 -11 -13 -18 -13 -7 0 -15 6 -17 13 -3 7 4
12 17 12 13 0 20 -5 18 -12z m117 3 c3 -5 1 -12 -5 -16 -5 -3 -10 1 -10 9 0
18 6 21 15 7z m396 -24 c-6 -6 -11 -19 -11 -29 0 -10 -4 -18 -10 -18 -11 0
-12 15 -4 47 4 13 10 20 15 17 5 -3 9 1 10 8 0 10 2 10 6 0 3 -8 0 -19 -6 -25z
m49 14 c0 -25 -21 -64 -30 -55 -7 7 -6 20 2 37 13 26 28 36 28 18z m-730 -10
c0 -13 -27 -21 -45 -15 -25 10 -17 24 15 24 17 0 30 -4 30 -9z m-345 -29 c-8
-8 -25 10 -19 20 4 6 9 5 15 -3 4 -7 6 -15 4 -17z m245 18 c12 -8 11 -10 -7
-10 -13 0 -23 5 -23 10 0 13 11 13 30 0z m355 -9 c-3 -6 -11 -11 -17 -11 -6 0
-6 6 2 15 14 17 26 13 15 -4z m238 0 c8 -30 -9 -48 -22 -23 -15 28 -14 42 3
42 7 0 16 -9 19 -19z m-468 -1 c-3 -5 -11 -10 -16 -10 -6 0 -7 5 -4 10 3 6 11
10 16 10 6 0 7 -4 4 -10z m51 -5 c-25 -19 -37 -19 -30 0 4 8 16 15 28 15 21
-1 21 -1 2 -15z m867 1 c4 -10 1 -13 -9 -9 -7 3 -14 9 -14 14 0 14 17 10 23
-5z m-481 -32 c11 -24 10 -29 -17 -50 -33 -26 -43 -26 -59 -1 -8 12 -4 23 19
46 37 37 42 38 57 5z m-687 6 c3 -5 -3 -10 -15 -10 -12 0 -18 5 -15 10 3 6 10
10 15 10 5 0 12 -4 15 -10z m549 -11 l27 -21 -21 -15 c-37 -26 -66 -60 -62
-71 5 -16 -27 -27 -39 -15 -12 12 -1 43 15 43 18 1 56 37 56 55 0 9 -4 14 -9
11 -5 -3 -11 3 -14 14 -7 26 13 26 47 -1z m-477 5 c-3 -3 -12 -4 -19 -1 -8 3
-5 6 6 6 11 1 17 -2 13 -5z m843 -4 c0 -5 -5 -10 -11 -10 -5 0 -7 5 -4 10 3 6
8 10 11 10 2 0 4 -4 4 -10z m34 -41 c-23 -25 -35 -24 -30 4 2 13 10 21 19 21
9 -1 16 1 15 5 -2 17 5 24 9 8 3 -10 -3 -27 -13 -38z m77 8 c-6 -6 -11 -17
-11 -25 0 -7 -7 -20 -15 -28 -13 -14 -15 -14 -15 0 0 9 8 34 17 56 14 31 19
36 26 24 6 -10 5 -20 -2 -27z m-861 29 c0 -3 -4 -8 -10 -11 -5 -3 -10 -1 -10
4 0 6 5 11 10 11 6 0 10 -2 10 -4z m314 -12 c10 -25 -1 -29 -14 -5 -6 12 -7
21 -1 21 5 0 12 -7 15 -16z m293 1 c1 -5 -2 -17 -7 -25 -8 -13 -11 -13 -26 2
-9 9 -13 21 -9 28 8 13 37 10 42 -5z m93 0 c0 -8 5 -15 12 -15 9 0 9 -3 0 -12
-19 -19 -14 -30 7 -18 22 12 36 -2 27 -25 -13 -34 -61 4 -50 38 6 19 5 20 -8
9 -16 -13 -48 -7 -48 9 0 5 9 9 20 9 11 0 20 5 20 10 0 6 5 10 10 10 6 0 10
-7 10 -15z m-934 -22 c-2 -3 -14 -2 -27 2 -16 6 -18 9 -8 16 13 7 45 -9 35
-18z m1222 -9 c-3 -40 -18 -58 -18 -20 0 25 9 56 16 56 3 0 4 -16 2 -36z
m-751 -6 c-3 -7 -5 -2 -5 12 0 14 2 19 5 13 2 -7 2 -19 0 -25z m673 22 c0 -5
-2 -10 -4 -10 -3 0 -8 5 -11 10 -3 6 -1 10 4 10 6 0 11 -4 11 -10z m-1176 -16
c26 -9 45 -18 43 -20 -5 -5 -81 17 -91 27 -14 12 -7 11 48 -7z m125 0 c-11
-13 -11 -15 2 -14 43 7 79 -1 79 -16 0 -12 -3 -14 -13 -6 -6 6 -28 12 -47 14
-24 2 -36 9 -38 21 -2 11 3 17 13 17 15 0 15 -2 4 -16z m158 9 c14 -3 20 -10
16 -19 -4 -10 -9 -11 -17 -5 -7 6 -40 11 -74 12 -34 1 -59 6 -56 11 6 9 91 10
131 1z m543 -21 c-1 -24 -24 -52 -44 -52 -23 0 -20 29 5 57 24 24 39 22 39 -5z
m-430 9 c0 -10 -30 -24 -37 -17 -3 3 -2 9 2 15 8 13 35 15 35 2z m517 -7 c8
-21 -13 -42 -28 -27 -13 13 -5 43 11 43 6 0 13 -7 17 -16z m-200 -10 c22 -22
3 -40 -26 -25 -22 12 -26 23 -14 34 10 11 23 8 40 -9z m-227 -29 c0 -8 -4 -15
-10 -15 -5 0 -10 7 -10 15 0 8 5 15 10 15 6 0 10 -7 10 -15z m199 -9 c14 -16
4 -46 -15 -46 -8 0 -14 -5 -14 -11 0 -8 -5 -8 -15 1 -16 13 -21 35 -6 26 4 -3
6 6 3 19 -3 20 0 25 16 25 11 0 25 -6 31 -14z m191 -2 c0 -9 -9 -18 -20 -21
-21 -6 -28 -23 -9 -23 5 0 7 -4 4 -10 -4 -6 -15 -2 -27 10 l-21 19 24 20 c29
25 49 27 49 5z m96 5 c9 -16 -12 -33 -31 -25 -14 5 -15 9 -5 21 15 18 26 19
36 4z m56 -11 c-7 -7 -12 -8 -12 -2 0 14 12 26 19 19 2 -3 -1 -11 -7 -17z
m114 -4 c-4 -9 -9 -15 -11 -12 -3 3 -3 13 1 22 4 9 9 15 11 12 3 -3 3 -13 -1
-22z m134 -22 c5 -139 2 -178 -15 -196 -8 -8 -15 -19 -15 -25 0 -6 -4 -11 -10
-11 -5 0 -20 -18 -32 -40 -13 -22 -26 -40 -29 -40 -8 0 23 64 41 84 8 11 8 15
-1 18 -7 2 3 14 22 26 23 14 28 22 17 22 -10 0 -18 5 -18 10 0 6 4 10 9 10 15
0 22 33 9 42 -10 6 -10 8 0 8 9 0 11 17 7 71 -4 45 -2 69 4 65 5 -4 10 -23 11
-44z m-508 22 c3 -3 -6 -17 -20 -31 -19 -19 -22 -27 -12 -33 7 -5 19 -6 27 -3
16 6 17 -5 1 -40 -16 -34 -46 -35 -58 -1 -6 14 -14 23 -19 19 -5 -3 -12 -1
-15 4 -13 21 18 23 35 3 20 -25 39 -29 39 -7 0 8 -6 12 -13 9 -8 -3 -20 2 -27
11 -10 12 -10 18 0 30 7 8 19 15 26 15 8 0 11 6 8 15 -6 14 16 22 28 9z m466
-68 c-17 -20 -38 -14 -36 10 1 13 6 24 10 24 3 0 10 10 14 23 7 20 9 19 14
-13 3 -19 3 -39 -2 -44z m-778 54 c0 -5 -4 -10 -10 -10 -5 0 -10 5 -10 10 0 6
5 10 10 10 6 0 10 -4 10 -10z m161 -83 c-17 -17 -22 -18 -35 -7 -9 7 -16 19
-16 27 0 13 3 13 25 -1 28 -18 32 -11 10 18 -12 15 -12 22 -3 34 11 12 15 9
26 -18 12 -30 11 -35 -7 -53z m393 67 c4 -9 4 -19 1 -22 -3 -3 -5 0 -5 6 0 6
-7 9 -15 6 -15 -6 -21 7 -8 19 11 11 21 8 27 -9z m137 -12 c-8 -15 -8 -21 1
-24 8 -3 8 -10 -1 -26 -7 -13 -17 -20 -23 -16 -7 4 -6 10 3 16 10 7 11 11 3
14 -9 4 -8 13 3 35 8 17 17 28 20 25 2 -2 0 -13 -6 -24z m-591 -3 c0 -5 -4 -9
-10 -9 -5 0 -10 7 -10 16 0 8 5 12 10 9 6 -3 10 -10 10 -16z m380 7 c0 -14
-36 -46 -52 -46 -9 0 -6 30 5 48 11 17 47 15 47 -2z m-561 -3 c0 -5 -4 -17 -9
-28 -8 -18 -9 -17 -9 8 -1 15 4 27 9 27 6 0 10 -3 9 -7z m430 -14 c-16 -10
-23 -4 -14 10 3 6 11 8 17 5 6 -4 5 -9 -3 -15z m-289 -9 c0 -5 -3 -10 -7 -10
-5 0 -16 -12 -27 -26 -15 -22 -16 -28 -5 -35 9 -6 10 -9 2 -9 -23 0 -23 20 -1
54 23 35 38 46 38 26z m360 6 c0 -3 -4 -8 -10 -11 -5 -3 -10 -1 -10 4 0 6 5
11 10 11 6 0 10 -2 10 -4z m100 -11 c0 -9 -7 -18 -15 -21 -8 -4 -15 -12 -15
-20 0 -16 -9 -18 -30 -4 -13 8 -11 13 10 34 29 28 50 33 50 11z m90 8 c-1 -18
-19 -35 -29 -28 -9 5 -9 10 0 21 12 15 29 19 29 7z m-205 -33 c3 -6 -1 -7 -9
-4 -18 7 -21 14 -7 14 6 0 13 -4 16 -10z m-310 -10 c-3 -5 1 -10 10 -10 10 0
15 -7 13 -17 -5 -29 -33 -21 -36 10 -2 15 2 27 8 27 6 0 8 -4 5 -10z m480 1
c6 -11 -37 -61 -53 -61 -14 0 -5 28 16 53 17 19 28 22 37 8z m-361 -17 c6 -16
-12 -49 -22 -39 -3 2 1 12 9 21 13 16 12 16 -8 5 -25 -13 -26 -11 -17 13 8 21
30 20 38 0z m156 6 c0 -5 7 -7 15 -4 25 10 16 -9 -16 -34 -28 -23 -41 -18 -17
6 8 8 9 12 1 12 -6 0 -23 -14 -36 -31 -16 -20 -29 -29 -37 -24 -9 5 -1 19 26
45 39 37 64 49 64 30z m73 -19 c-5 -3 -13 -15 -16 -25 -7 -17 -6 -17 10 -5 16
13 17 12 4 -3 -7 -10 -22 -18 -32 -18 -11 0 -19 -3 -19 -7 0 -5 -12 -21 -25
-36 -18 -21 -29 -26 -41 -19 -13 7 -8 16 32 53 26 24 54 51 63 60 9 9 20 14
25 11 4 -2 4 -7 -1 -11z m-456 -7 c-3 -3 -12 -4 -19 -1 -8 3 -5 6 6 6 11 1 17
-2 13 -5z m766 -14 c-5 -19 -23 -29 -23 -12 0 7 20 32 26 32 1 0 0 -9 -3 -20z
m-73 -11 c0 -5 -4 -8 -10 -6 -10 2 -100 -92 -100 -105 0 -4 -4 -8 -10 -8 -15
0 1 32 33 64 16 16 35 39 44 52 14 21 43 23 43 3z m-527 -4 c-3 -9 -8 -14 -10
-11 -3 3 -2 9 2 15 9 16 15 13 8 -4z m87 0 c0 -8 -7 -15 -15 -15 -16 0 -20 12
-8 23 11 12 23 8 23 -8z m-150 -5 c0 -5 -2 -10 -4 -10 -3 0 -8 5 -11 10 -3 6
-1 10 4 10 6 0 11 -4 11 -10z m113 -23 c10 -4 15 -11 12 -17 -10 -15 -35 -12
-35 5 0 8 -5 15 -11 15 -5 0 -7 5 -3 11 4 7 9 7 13 2 3 -5 14 -12 24 -16z
m-163 3 c0 -5 -4 -10 -10 -10 -5 0 -10 5 -10 10 0 6 5 10 10 10 6 0 10 -4 10
-10z m85 0 c3 -5 -1 -10 -10 -10 -9 0 -13 5 -10 10 3 6 8 10 10 10 2 0 7 -4
10 -10z m345 7 c0 -7 -97 -107 -103 -107 -21 0 -1 33 41 69 41 36 62 48 62 38z
m24 -12 c-4 -9 -16 -21 -28 -27 -19 -10 -19 -9 3 16 28 30 33 32 25 11z m-224
-10 c0 -8 -4 -15 -10 -15 -5 0 -10 -7 -10 -15 0 -17 -16 -20 -25 -5 -3 6 1 13
9 16 9 3 16 12 16 20 0 8 5 14 10 14 6 0 10 -7 10 -15z m260 1 c0 -3 -4 -8
-10 -11 -5 -3 -10 -1 -10 4 0 6 5 11 10 11 6 0 10 -2 10 -4z m-573 -18 c0 -7
4 -25 8 -40 4 -16 3 -28 -2 -28 -11 0 -34 60 -27 71 8 13 21 11 21 -3z m173
-3 c11 -13 10 -14 -4 -9 -9 3 -16 10 -16 15 0 13 6 11 20 -6z m-116 -22 c4 -9
2 -21 -4 -28 -8 -9 -8 -15 0 -20 6 -3 8 -11 5 -16 -9 -13 -22 -11 -23 4 0 6
-4 29 -8 50 -6 31 -4 36 9 31 8 -3 18 -13 21 -21z m86 7 c0 -13 -11 -13 -30 0
-12 8 -11 10 8 10 12 0 22 -4 22 -10z m70 -5 c0 -8 -7 -15 -16 -15 -14 0 -14
3 -4 15 7 8 14 15 16 15 2 0 4 -7 4 -15z m46 -34 c-8 -13 -36 -15 -36 -3 0 4
5 13 12 20 14 14 34 0 24 -17z m266 11 c-7 -2 -12 -10 -12 -18 0 -8 -4 -14 -9
-14 -5 0 -18 -3 -28 -6 -12 -5 -8 3 12 23 17 17 34 28 40 25 5 -3 4 -7 -3 -10z
m-177 -3 c10 -14 1 -21 -19 -13 -9 3 -13 10 -10 15 7 12 21 11 29 -2z m-235
-14 c0 -8 4 -15 8 -15 4 0 8 -9 8 -19 0 -22 -15 -23 -33 -1 -17 21 -16 50 2
50 8 0 15 -7 15 -15z m180 -9 c0 -3 -4 -8 -10 -11 -5 -3 -10 -1 -10 4 0 6 5
11 10 11 6 0 10 -2 10 -4z m260 -11 c0 -8 -4 -15 -10 -15 -5 0 -7 7 -4 15 4 8
8 15 10 15 2 0 4 -7 4 -15z m-235 -5 c-3 -5 -11 -10 -16 -10 -6 0 -7 5 -4 10
3 6 11 10 16 10 6 0 7 -4 4 -10z m75 -6 c0 -8 -4 -12 -10 -9 -5 3 -10 10 -10
16 0 5 5 9 10 9 6 0 10 -7 10 -16z m-130 -14 c0 -5 -5 -10 -11 -10 -5 0 -7 5
-4 10 3 6 8 10 11 10 2 0 4 -4 4 -10z m430 6 c0 -3 -4 -8 -10 -11 -5 -3 -10
-1 -10 4 0 6 5 11 10 11 6 0 10 -2 10 -4z m-474 -33 c13 -14 22 -29 19 -31 -7
-7 -57 30 -63 46 -7 21 18 13 44 -15z m144 17 c0 -5 -7 -10 -16 -10 -8 0 -12
5 -9 10 3 6 10 10 16 10 5 0 9 -4 9 -10z m-64 -27 c-3 -3 -13 -2 -23 2 -17 7
-17 8 2 15 19 7 34 -5 21 -17z m344 10 c0 -9 -3 -14 -6 -10 -3 3 -15 -3 -27
-13 -11 -11 -23 -17 -26 -14 -4 4 46 52 57 54 1 0 2 -7 2 -17z m120 8 c0 -10
-39 -63 -54 -73 -21 -14 -17 1 11 41 27 39 43 51 43 32z m-727 -51 c6 -17 16
-29 22 -26 6 2 24 -8 40 -21 l30 -25 -30 7 c-49 11 -124 95 -84 95 6 0 16 -14
22 -30z m337 20 c0 -5 -15 -10 -32 -9 -31 1 -32 1 -8 9 35 11 40 11 40 0z
m-90 -10 c0 -5 -7 -10 -15 -10 -8 0 -15 5 -15 10 0 6 7 10 15 10 8 0 15 -4 15
-10z m-135 -10 c3 -5 1 -10 -4 -10 -6 0 -11 5 -11 10 0 6 2 10 4 10 3 0 8 -4
11 -10z m285 0 c0 -5 -8 -10 -17 -10 -15 0 -16 2 -3 10 19 12 20 12 20 0z
m-185 -10 c3 -5 -1 -10 -10 -10 -9 0 -13 5 -10 10 3 6 8 10 10 10 2 0 7 -4 10
-10z m-55 -24 c0 -25 -18 -28 -40 -6 l-20 20 30 0 c19 0 30 -5 30 -14z m195
-16 c-10 -12 -25 -18 -32 -16 -7 3 -13 1 -13 -5 0 -6 -5 -7 -12 -3 -9 6 -9 9
0 12 7 2 12 11 12 19 0 10 6 14 20 10 11 -3 23 -1 26 5 3 5 9 7 12 4 3 -3 -3
-15 -13 -26z m-155 -13 c0 -16 47 -37 81 -37 15 0 29 -6 32 -14 5 -12 15 -11
63 4 32 9 67 27 80 39 30 29 35 26 18 -8 -8 -17 -24 -33 -34 -36 -11 -4 -20
-10 -20 -15 0 -4 -14 -13 -32 -19 -25 -9 -42 -8 -80 5 -26 8 -48 19 -48 24 0
4 -9 6 -20 3 -12 -3 -22 1 -26 11 -3 9 -12 16 -19 16 -7 0 -12 10 -11 24 1 24
16 26 16 3z m80 13 c0 -5 -7 -10 -16 -10 -8 0 -12 5 -9 10 3 6 10 10 16 10 5
0 9 -4 9 -10z m130 -15 c-14 -17 -40 -20 -40 -6 0 8 18 16 44 20 5 0 3 -6 -4
-14z m110 5 c0 -5 -4 -10 -10 -10 -5 0 -10 5 -10 10 0 6 5 10 10 10 6 0 10 -4
10 -10z m-350 -10 c0 -5 -5 -10 -11 -10 -5 0 -7 5 -4 10 3 6 8 10 11 10 2 0 4
-4 4 -10z"/>
<path d="M4125 3650 c3 -5 10 -10 16 -10 5 0 9 5 9 10 0 6 -7 10 -16 10 -8 0
-12 -4 -9 -10z"/>
<path d="M3660 3563 c0 -17 19 -35 29 -29 6 4 11 2 11 -5 0 -7 3 -10 6 -7 9
10 -16 48 -31 48 -8 0 -15 -3 -15 -7z"/>
<path d="M3280 3391 c0 -5 5 -13 10 -16 6 -3 10 -2 10 4 0 5 -4 13 -10 16 -5
3 -10 2 -10 -4z"/>
<path d="M3150 3264 c0 -8 5 -12 10 -9 6 3 10 10 10 16 0 5 -4 9 -10 9 -5 0
-10 -7 -10 -16z"/>
<path d="M2957 3116 c-4 -10 -5 -21 -2 -24 9 -9 17 6 13 25 -3 17 -4 17 -11
-1z"/>
<path d="M2357 2520 c-3 -11 -2 -20 2 -20 3 0 12 9 19 20 10 16 10 20 -2 20
-7 0 -16 -9 -19 -20z"/>
<path d="M2260 2430 c-8 -5 -10 -10 -5 -10 6 0 17 5 25 10 8 5 11 10 5 10 -5
0 -17 -5 -25 -10z"/>
<path d="M2165 2070 c3 -5 8 -10 11 -10 2 0 4 5 4 10 0 6 -5 10 -11 10 -5 0
-7 -4 -4 -10z"/>
<path d="M1501 2032 c-8 -15 -5 -18 16 -20 20 -2 23 1 14 11 -6 8 -8 17 -4 20
3 4 1 7 -5 7 -6 0 -16 -8 -21 -18z"/>
<path d="M1478 1993 c7 -3 16 -2 19 1 4 3 -2 6 -13 5 -11 0 -14 -3 -6 -6z"/>
<path d="M2005 1640 c4 -6 11 -8 16 -5 14 9 11 15 -7 15 -8 0 -12 -5 -9 -10z"/>
<path d="M1587 1656 c-4 -10 -1 -13 9 -9 15 6 19 23 5 23 -5 0 -11 -7 -14 -14z"/>
<path d="M1096 1603 c-6 -14 -5 -15 5 -6 7 7 10 15 7 18 -3 3 -9 -2 -12 -12z"/>
<path d="M2820 3599 c0 -5 5 -7 10 -4 6 3 10 8 10 11 0 2 -4 4 -10 4 -5 0 -10
-5 -10 -11z"/>
<path d="M4391 3515 c0 -5 11 -23 24 -40 14 -16 25 -25 25 -18 0 7 -11 25 -25
40 -13 15 -24 24 -24 18z"/>
<path d="M3544 2765 c-4 -8 -11 -12 -17 -8 -6 3 -7 1 -3 -5 5 -9 13 -9 27 -2
11 6 17 15 14 21 -9 13 -15 11 -21 -6z"/>
<path d="M1398 2203 c7 -3 16 -2 19 1 4 3 -2 6 -13 5 -11 0 -14 -3 -6 -6z"/>
<path d="M564 1823 c2 -16 5 -31 5 -35 1 -5 5 -8 9 -8 4 0 6 16 4 35 -2 19 -8
35 -13 35 -6 0 -8 -12 -5 -27z"/>
<path d="M2247 1503 c-4 -3 -7 -11 -7 -17 0 -6 5 -5 12 2 6 6 9 14 7 17 -3 3
-9 2 -12 -2z"/>
<path d="M1555 590 c-3 -5 -1 -10 4 -10 6 0 11 5 11 10 0 6 -2 10 -4 10 -3 0
-8 -4 -11 -10z"/>
</g>
</svg>
