<svg width="250" height="250" viewBox="0 0 250 250" fill="none" xmlns="http://www.w3.org/2000/svg">
<g clip-path="url(#clip0_137_2371)">
<path d="M63.0768 169.885C63.0003 169.808 62.9237 169.764 62.9675 169.797L61.5791 169.655H60.4531C60.2673 169.655 59.9502 169.371 59.8846 169.251C59.8518 169.283 59.7425 169.371 59.7534 169.371C59.7425 169.371 58.2667 169.141 57.4031 168.649L56.8018 168.31L56.2443 167.895L55.7961 167.622L55.4025 167.316C55.2385 167.239 54.8778 167.152 54.7138 167.141L53.6862 167.053C52.8991 166.102 52.2104 165.118 51.5982 164.058L50.7455 162.582C50.4612 162.09 50.1224 161.751 49.9365 161.161L49.3353 160.254L48.8652 158.668L48.3732 156.712L47.8376 154.372V153.804L47.5533 152.721C47.6189 152.175 47.6408 151.595 47.4878 151.06C47.3347 150.524 47.5205 149.999 47.5096 149.507C47.5096 148.928 47.0395 148.808 48.1436 147.671C48.1218 147.026 48.3623 146.49 48.6247 145.954L48.8433 144.752L48.8214 143.703L49.3899 142.128L49.6742 141.243L49.8381 140.521C49.9037 140.226 50.0239 139.811 50.2535 139.69L51.2921 139.122L51.8933 138.575L52.6695 138.247C52.8882 138.16 53.1177 137.712 53.2708 137.471C53.4566 137.187 53.6097 136.947 53.7081 136.619C53.883 136.006 54.0797 135.416 54.4951 134.957L55.5993 133.722L55.9601 133.361C56.0475 133.273 56.3318 133.361 56.452 133.361L56.8565 133.394C57.0314 133.404 56.9111 132.771 57.6217 132.65C58.1027 132.563 58.529 132.377 58.9226 132.115C59.3817 131.809 59.7207 132.388 60.2563 131.896L60.7264 131.94L62.071 131.852C62.3662 131.83 62.6504 131.634 62.88 131.36C63.0658 131.284 63.5469 131.415 63.7874 131.48C64.815 131.776 65.7223 131.481 66.7281 131.174C67.1326 131.131 67.9415 131.284 68.2913 131.131L69.1222 130.748L69.636 130.267L70.7511 130.693L72.5986 131.229C73.1561 131.393 73.6152 131.655 74.1072 131.951L75.4081 132.749C76.075 133.153 75.9984 133.634 76.709 133.7C76.9167 133.82 77.1354 134.399 77.3431 134.541L78.1302 135.099C78.5346 135.383 79.2234 135.208 79.7263 135.547L80.5133 136.072L81.5191 136.63L81.6721 137.132L82.1313 137.274L83.0824 138.324L83.0605 138.728C83.5415 138.663 83.6509 138.422 83.7711 137.985C83.946 137.318 84.7003 136.979 85.1267 136.52C85.4765 136.148 85.7607 135.744 86.2089 135.547L87.2147 135.088L88.0674 134.629L88.286 134.52L88.3516 134.476L89.0512 133.995L89.1387 133.951L89.6088 133.645L89.6744 133.579L89.8711 133.415L89.9696 133.328L90.5817 132.902L91.3907 132.377C91.5 132.311 91.6968 132.082 91.7842 131.983L92.156 131.787L92.0138 131.666C92.0904 131.644 92.1887 131.623 92.1231 131.644L92.2653 131.732L92.5604 131.295L92.9868 131.164C92.9868 131.109 92.9868 130.978 93.0305 130.978C93.0742 130.978 93.2601 130.989 93.2273 130.978L93.6973 130.387L94.0472 129.994L94.3424 129.447C94.7578 128.671 94.3423 127.993 95.2825 127.949L95.9493 127.436C96.157 127.272 96.3648 126.998 96.5178 126.747L96.9114 126.496C96.9551 126.102 97.0863 125.599 97.3158 125.402L98.0046 124.812C98.2669 124.582 99.0104 124.757 99.4258 124.823L100.41 124.681L101.459 123.642L101.547 123.096L101.951 122.527C102.06 122.363 102.366 122.221 102.552 122.265L102.924 122.341C102.924 122.341 103.011 122.166 103.022 122.112L103.252 120.986C103.307 120.691 104.116 120.527 104.367 120.505C104.542 120.111 104.673 119.772 104.957 119.466C105.427 118.952 105.985 119.28 105.854 118.799C105.701 118.253 106.324 117.63 107.002 117.444L107.209 116.668L107.996 116.044C108.139 115.935 108.51 115.771 108.565 115.607C108.893 114.744 109.396 114.984 109.997 114.164L110.434 113.563C110.861 113.268 111.123 112.94 111.287 112.448L111.724 111.967C112.26 111.387 112.511 111.781 113.2 111.387C113.616 111.147 113.539 110.819 114.403 110.262L115.212 109.737C115.474 109.573 115.769 108.982 116.01 108.764C116.349 108.469 116.709 108.184 116.917 107.845C117.321 107.168 117.639 107.605 117.726 107.113C117.956 105.911 118.852 105.867 118.688 105.276L119.082 104.959C119.202 104.566 119.453 104.303 119.847 104.129C120.284 103.943 120.197 103.385 120.798 103.604C121.093 103.713 121.541 103.582 121.541 103.363C121.541 103.079 121.585 102.828 121.694 102.697L122.296 102.019L122.328 101.68L122.744 100.926L123.301 100.838C123.4 100.816 123.607 100.816 123.618 100.74L123.673 100.434C123.717 100.16 124.001 99.8213 124.252 99.6464L124.668 99.2748C125.772 99.0124 125.892 98.2471 126.548 98.0176L127.565 97.6678C127.685 97.4273 127.936 96.7932 128.166 96.5527C128.483 96.2138 129.696 96.192 130.068 95.7547L130.877 94.8146L131.402 94.5084L131.719 93.2403L132.364 93.1965L133.862 92.6609L134.441 92.4204C134.518 92.3876 134.769 92.4095 134.78 92.333L134.835 92.0159C134.867 91.8191 135.119 91.5131 135.316 91.371L135.611 90.9008C136.606 90.7368 136.857 89.9826 137.863 89.8842L138.661 88.8894L139.251 88.2771L139.787 87.6322C140.126 87.2167 139.907 86.7248 140.749 86.364L140.727 85.9487L141.055 85.2053L142.542 85.1396C142.771 85.1396 143.012 84.6586 143.077 84.4509L143.351 83.5326L144.105 83.0953C144.313 82.9751 144.509 82.7347 144.662 82.516L145.209 81.7179L146.39 81.0401L147.089 80.3733C147.319 80.1546 147.745 79.9251 148.029 79.7721C148.128 79.4332 148.325 78.8866 148.489 78.6242L149.363 78.493C149.407 78.3181 149.451 77.848 149.298 77.7715L148.664 77.4764L147.964 76.7658L147.395 76.2628C147.395 76.2628 147.516 75.8475 147.428 75.76L146.991 75.29L146.28 73.9671L145.985 73.4205L145.832 73.0051L145.635 72.4476L145.209 71.5184L145.296 71.3653C145.165 71.1029 145.023 70.7859 145.001 70.5345L144.903 69.496L144.848 68.9384L144.706 67.8671C144.739 67.8125 144.826 67.6812 144.826 67.6484C144.826 67.6484 144.706 67.5283 144.673 67.4955C144.706 67.4189 144.783 67.233 144.783 67.233L144.706 66.588L144.63 66.4568L144.75 66.424L144.826 66.5116V66.0305L144.903 65.8119V65.6479L144.826 65.3091L144.925 64.1611L144.794 62.095C144.783 61.8545 144.652 61.3735 144.706 61.1548L145.187 59.2308L145.493 57.9626L145.515 57.8205L145.788 56.9242L146.062 56.0386L146.313 55.2734C146.433 54.8908 146.958 54.5628 147.188 54.3333L147.483 54.0381L147.767 53.9834L148.587 53.3713L149.134 52.9668C149.779 52.4858 149.571 51.9719 150.391 51.5456L151.67 50.8678L152.49 50.3978L153.157 50.026L154.02 49.6543L154.862 49.1515L156.447 48.6268C156.83 48.4956 157.201 48.2988 157.54 48.0802L158.426 47.7522L158.896 47.7741C159.005 47.7741 159.289 47.8615 159.355 47.8834C159.497 47.7631 159.716 47.6429 159.869 47.6429H160.765L161.782 47.621L163.072 47.5882C163.258 47.5882 163.64 47.4679 163.804 47.4242L164.635 47.5008L165.586 47.6538L166.384 47.6975L167.401 47.7412C167.401 47.6866 167.401 47.9053 167.401 47.949C167.51 47.8616 167.598 47.7741 167.652 47.7741L167.904 47.8178L168.33 48.1567C168.385 48.2004 168.505 48.2769 168.604 48.3316L168.866 48.6377L169.697 48.9875L170.593 49.381L170.976 49.6762L171.501 49.9167L171.949 50.1245L171.982 50.3649C171.982 50.3649 172.167 50.3431 172.2 50.3649L173.009 50.7147L173.25 50.8787L173.359 50.7694C173.807 51.1192 174.266 51.3815 174.846 51.6548L175.633 52.2562L176.278 52.7918L176.803 53.3165C176.901 53.4149 176.912 53.7866 176.89 53.885C176.912 53.885 177.131 53.8523 177.163 53.9288L177.295 54.2349C177.349 54.377 177.524 54.6285 177.655 54.7815L178.519 55.82L178.781 56.3119L179.197 57.1865C179.153 57.3068 179.142 57.5255 179.197 57.6457L179.82 59.2855L180.126 60.149L180.312 61.0674L180.443 61.7452C180.519 62.1497 180.541 62.5978 180.509 63.0351L180.421 63.9643L180.377 64.8499L180.279 65.9102L180.028 67.0582L179.885 67.5719C179.853 67.6813 179.885 67.9983 179.907 68.1185C180.006 68.359 180.06 68.6541 180.017 68.8837C179.94 69.3101 179.689 69.5725 179.306 69.66L178.956 69.9769C178.814 70.1081 178.803 70.622 178.814 70.7532C178.595 70.8406 178.399 70.9281 178.355 71.0265L178.125 71.4529L177.83 71.9885C177.83 71.9885 177.797 72.0212 177.732 72.065L177.535 72.2071L177.251 72.8303C177.502 73.4206 177.983 73.3658 178.497 73.9343C178.694 74.1529 179.065 74.5465 179.306 74.6559C179.546 74.7652 181.394 74.634 182.192 74.2514C182.542 74.0874 182.728 73.9781 183.099 74.1421C183.69 74.4045 185.133 73.989 186.882 74.2295L188.5 74.4482L189.965 74.798L191.954 75.4212L192.785 75.9786C193.113 76.1972 193.343 76.3394 193.725 76.4925C194.086 76.6455 194.414 77.0172 194.709 77.2905L195.671 78.1542L196.229 78.493L197.202 79.2364L197.989 80.2312C198.054 80.3186 198.339 80.4607 198.404 80.5045L198.973 81.1822L199.355 81.6305L199.629 82.024L200.175 82.6253C200.252 82.7019 200.372 82.9205 200.427 83.0079L200.7 83.3796L200.962 83.8497L201.924 85.7957C202.056 86.0471 201.99 86.6811 201.924 86.9544L201.728 87.665L201.564 88.5068C201.509 88.8019 201.739 89.3923 201.848 89.7312L201.465 90.6932L200.94 91.3162C201.039 91.994 200.853 92.5298 200.438 93.0545L200.394 94.1477C199.541 94.749 200.208 95.5579 199.978 95.7328L199.629 95.9952C199.541 96.0608 199.486 96.3888 199.465 96.4544C198.207 96.7714 198.284 97.4382 198.186 97.6569L197.628 98.9141L197.136 99.1655L196.6 100.106C196.185 100.827 195.912 100.783 195.638 101.177C195.464 101.439 195.332 101.57 195.114 101.724L194.13 102.412C194.02 102.489 193.725 102.631 193.649 102.729L192.993 103.669C192.884 103.823 192.468 103.877 192.282 103.899L191.058 104.085L189.932 104.216C189.823 104.227 189.582 104.522 189.473 104.555L188.358 104.959L187.254 105.397L186.16 105.583L185.33 105.758C185.078 105.812 184.553 105.758 184.258 105.747L183.81 106.184L182.968 106.151L182.4 106.074L179.864 106.457C179.568 106.348 179.317 106.315 179.011 106.337L177.863 106.424C177.644 106.446 177.218 106.14 176.978 106.074L175.545 105.692L174.288 105.101C173.829 104.883 173.425 104.358 173.108 104.238L172.113 103.855L172.277 104.599L171.326 104.686C171.107 104.708 170.637 104.839 170.56 105.036C170.364 105.528 169.97 105.823 169.413 105.736L168.647 106.151C168.604 106.293 168.527 106.741 168.396 106.796L167.652 107.124L167.434 108.042C167.281 108.676 166.712 109.037 166.067 108.993C166.013 109.07 165.871 109.376 165.783 109.431L164.777 110.076C164.318 110.371 164.318 111.213 163.422 111.3C163.127 111.333 162.941 111.464 162.7 111.606C162.482 111.737 161.913 111.868 161.782 112.076L161.17 113.06L160.875 113.672L160.186 114.011C159.464 114.011 159.038 114.306 158.688 114.897C158.448 115.301 157.912 115.607 157.464 115.859C157.081 116.066 156.895 116.558 156.677 116.886L156.086 117.783C155.911 118.045 155.354 118.307 155.037 118.45L154.949 119.269L154.141 119.554L153.353 119.925C153.091 120.046 152.938 120.275 152.807 120.527L152.391 121.325C151.998 122.09 151.418 121.27 150.752 122.156C150.555 122.418 150.435 122.735 150.391 123.118C150.314 123.172 150.041 123.282 149.888 123.336L148.74 123.763L147.33 124.561L146.86 124.932L146.783 125.009L146.171 125.468L145.187 126.2L144.608 126.78L143.788 127.523L143.34 127.982L142.968 128.42L142.891 128.507L142.312 129.043L141.787 129.447C141.645 129.556 141.437 129.83 141.328 129.972L140.847 130.54C140.76 130.639 140.574 130.868 140.454 130.89L139.535 131.032C139.043 131.109 138.715 131.524 138.519 131.962C138.213 132.661 137.666 132.519 137.535 133.328L136.77 133.612C136.627 133.667 136.573 134.06 136.616 134.203L136.704 134.476C136.704 134.476 136.125 134.585 135.337 135.285C135.173 135.427 134.835 135.678 134.78 135.864C134.627 136.312 134.408 136.815 134.135 137.176C133.228 137.078 132.233 137.274 131.752 138.029C131.457 138.499 131.216 139.089 130.757 139.352L129.707 139.209C129.467 139.603 129.445 139.964 129.565 140.423L129.117 140.849L128.297 141.472L128.417 142.096L127.532 142.555C127.149 142.751 127.018 143.32 127.215 143.757L126.264 144.49L125.094 145.025L124.591 145.944C124.252 146.567 124.613 147.113 123.323 147.321L123.454 148.075L122.219 148.644C121.487 149.136 121.159 149.693 121.104 150.644C120.557 151.016 120 150.808 119.289 151.519C119.038 151.759 118.732 151.902 118.36 152.033L118.251 152.59L116.983 152.896L116.512 154.361L115.386 154.908L114.796 155.695L114.26 156.471L113.856 157.083L112.85 157.925L112.26 158.242L111.429 158.734C111.221 158.854 111.014 159.073 110.839 159.281L110.194 160.024C109.844 160.199 109.636 160.341 109.439 160.592L108.434 161.817L107.636 162.812C107.078 162.844 106.761 163.129 106.641 163.675L105.941 163.894C105.209 164.123 105.69 165.129 104.531 165.326L104.148 165.993L104.214 166.441L104.673 166.594C104.739 167.053 105.143 166.999 105.296 167.294L105.001 167.534C105.001 167.534 104.979 167.687 105.001 167.84C105.067 168.671 105.941 168.354 106.094 168.715L106.422 169.513C106.51 170.038 106.652 170.541 106.892 170.978L107.275 171.699L107.734 172.497L108.477 173.416L108.849 174.76L109.024 175.307C109.024 175.657 109.046 175.941 109.112 176.247L109.232 176.794C109.254 176.881 109.407 177.078 109.494 177.122C110.62 177.614 110.248 178.335 110.62 179.417C110.642 179.483 110.926 179.625 110.893 179.691L110.729 180.008C110.587 180.303 110.708 180.696 110.817 181.024C110.642 181.822 111.309 182.391 110.948 182.839L110.664 183.189C110.533 183.353 111.003 183.812 110.85 183.976L110.598 184.26C110.391 184.698 110.128 185.594 109.8 185.955C109.527 186.261 109.243 186.49 109.243 186.851L109.221 188.021C108.685 188.065 108.401 188.425 108.467 188.961C108.488 189.125 108.27 189.42 108.128 189.508L107.789 190.098L107.078 191.333L106.63 192.055L105.941 193.203C105.067 193.673 105.34 194.602 104.17 194.908L103.646 196.067L103.033 196.603L102.465 196.81C102.52 197.237 102.06 197.379 101.951 197.565C101.743 197.925 101.612 198.286 101.208 198.439C100.923 198.537 100.716 198.68 100.464 198.876L99.7318 199.018C99.4585 199.62 99.0432 199.664 98.4638 199.751L97.4798 199.893C97.1082 200.177 96.7256 200.363 96.2664 200.385L94.6703 200.472C93.8832 200.516 93.8286 201.085 92.8666 201.282L91.2049 201.62L89.893 201.686L87.7941 201.566C87.4005 201.544 86.8977 201.413 86.7009 201.085C86.4276 200.604 86.1434 200.396 85.553 200.374C84.9627 200.352 85.1048 199.86 84.5145 199.598L83.629 199.193C83.4322 199.106 83.2136 199.008 83.0278 198.898L81.6721 198.056L81.1037 198.002C80.896 197.98 81.1365 196.679 79.7372 196.603C79.3764 196.581 79.1687 196.307 79.0157 196.012L78.4909 194.952C78.327 194.624 77.8897 194.394 77.4414 194.329L77.0588 193.716L76.3592 193.509C75.9656 192.579 75.1676 192.787 75.0146 192.361L74.7194 191.508L74.9599 190.819L74.5007 189.759L73.9651 189.027C73.7246 188.699 73.5606 188.524 73.5387 188.13C73.5278 187.955 73.3638 187.682 73.2545 187.54L72.7844 186.917L73.003 185.747C72.533 185.146 73.0905 184.949 72.6751 184.315C72.3362 183.801 72.0629 182.97 72.1941 182.391C72.3581 181.658 71.5382 181.735 71.724 180.948L71.9208 180.172L72.5002 179.877V178.827L72.8172 177.373C72.85 177.231 72.8063 176.881 72.7735 176.695L72.6642 175.93C72.6423 175.733 72.8719 175.318 73.003 175.187L73.2326 174.946C73.2982 174.881 72.9593 174.662 73.2982 173.798L73.5934 173.022C73.8449 172.355 74.1728 172.29 74.2603 171.732L73.8011 171.251L73.4185 170.836L72.4893 169.775H72.2706C72.2706 169.775 72.2159 169.732 72.2378 169.688C72.2597 169.644 72.3362 169.458 72.3253 169.48C72.1831 169.557 71.8661 169.71 71.7021 169.721L70.6964 169.775L68.5428 170.147L67.8759 170.256L66.4876 170.53L65.7442 170.442L65.0446 170.366L64.487 170.202L63.1205 170.005L63.0768 169.885ZM179.918 60.4552L179.853 60.5208L179.918 60.5864L180.038 60.5208L179.918 60.4552ZM142.804 128.277C142.782 128.354 142.804 128.256 142.826 128.168L142.804 128.277ZM89.9805 133.536V133.426C90.0024 133.317 89.9914 133.426 89.9805 133.536ZM89.1934 134.126C89.1934 134.126 89.1934 134.126 89.3355 133.973L89.2262 134.006L89.1934 134.137V134.126ZM88.9638 134.29L88.8982 134.356L88.9638 134.421L89.0294 134.356L88.9638 134.29ZM88.45 134.771V134.596C88.45 134.465 88.45 134.498 88.45 134.771ZM86.6244 135.416L86.5588 135.514L86.6244 135.58L86.69 135.514L86.6244 135.416ZM56.78 168.026L56.7144 168.092L56.78 168.179L56.8456 168.092L56.78 168.026Z" fill="black"/>
</g>
<defs>
<clipPath id="clip0_137_2371">
<rect width="250" height="250" fill="white"/>
</clipPath>
</defs>
</svg>
