<svg width="250" height="250" viewBox="0 0 250 250" fill="none" xmlns="http://www.w3.org/2000/svg">
<g clip-path="url(#clip0_137_2322)">
<path d="M152.78 175.062C151.98 175.789 152.62 176.42 151.14 177.41C150.65 177.74 150.4 178.215 150.3 178.778L149.89 179.438C149.66 179.807 149.44 180.069 149.09 180.37L148.97 181.107C148.73 181.34 148.34 181.515 147.97 181.689C147.54 181.893 147.2 182.359 146.79 182.689L145.98 183.097L145.61 184.077L144.97 184.484C144.72 184.804 144.48 185.057 144.18 185.29L143.43 185.862C143.13 186.095 142.91 186.202 142.73 186.541C142.59 186.794 142.36 186.939 142.07 187.114C141.25 187.609 141.16 188.298 140.43 188.589C140.05 188.744 139.8 188.919 139.49 189.132L138.09 190.083L136.91 190.598C136.44 190.801 135.87 190.976 135.5 191.258L134.72 191.859L134.17 192.276C133.02 193.14 130.38 193.421 129.21 194.198L128.04 194.974C127.53 195.314 126.99 195.401 126.39 195.556L124.15 196.119L122.51 196.585L120.78 197.07L119.39 197.41L118.3 197.672L115.86 198.176L114.49 198.429L112.48 198.817L110.02 199.157L108.99 199.021L107.43 198.535L105.11 198.361L103.54 198.099L101.73 197.817C100.98 197.701 100.31 197.468 99.74 196.973C99.43 196.701 99.02 196.352 98.69 196.216C97.91 196.498 97.87 196.012 97.21 195.44C97.07 195.323 96.79 195.032 96.62 194.945C95.44 194.402 94.36 194.605 93.91 193.994L93.37 193.266C93.26 193.121 92.9 192.985 92.68 192.907C92.13 192.723 91.68 192.461 91.21 192.17L89.94 191.403L89.58 191.19C89.47 191.122 89.19 191.054 89.07 191.093L88.81 191.16C88.65 191.209 88.81 190.821 88.27 190.442L87.77 190.093L87.18 189.598L86.57 189.171C86.34 189.006 85.93 188.647 85.85 188.385C85.7 187.948 85.51 187.725 85.2 187.405L84.68 186.862L84.15 186.134C83.99 185.92 83.68 185.406 83.41 185.367L82.73 185.26L82.33 184.591L81.5 183.523L80.74 182.757L80.19 182.194C79.96 181.961 79.74 181.398 79.49 181.243C79.16 181.039 78.88 180.913 78.77 180.593C78.35 179.36 77.26 179.991 76.65 178.769C76.29 178.05 76.84 177.808 76.45 177.556C76.19 177.391 75.84 177.061 75.74 176.828L75.55 176.401L75.01 175.003L74.54 173.975L74.15 173.296C73.81 173.092 73.35 172.772 73.17 172.49L73.14 171.762L72.24 170.967C71.95 170.714 71.76 170.501 71.55 170.19C70.9 169.249 71.58 169.065 71.04 168.541C70.76 168.269 70.78 167.473 70.14 167.027L69.4 166.503C69.06 166.27 68.93 165.562 69.03 164.96C69.15 164.222 68.4 164.397 68.66 163.65C68.68 163.446 68.66 163.048 68.62 162.854L68.49 162.194C68.43 161.884 68.12 161.573 67.99 160.884L67.82 159.972C67.05 159.118 67.79 158.575 67.15 158.167C67.34 157.818 67.36 157.624 67.21 157.255C66.83 156.333 67.49 155.46 66.68 154.916C66.74 154.47 66.65 154.053 66.28 153.713C65.82 153.286 65.45 152.432 65.83 151.792C65.92 151.646 65.65 151.297 65.61 151.141L65.05 149.045C64.89 148.424 65.05 147.609 65.25 147.037C65.33 146.794 65.38 146.59 65.31 146.445L65.01 145.795C64.87 145.504 64.66 145.115 64.61 144.805L64.39 143.446L64.23 142.35L63.95 141.176L64.02 140.166C64.06 139.604 63.61 139.749 63.76 139.322C63.96 138.75 63.7 138.614 64.1 138.09C64.39 137.711 64.32 137.381 64.15 137.003L63.79 136.207C63.61 135.8 63.72 135.159 63.79 134.713C63.65 134.441 63.46 134.004 63.47 133.752L63.52 133.015V132.005L63.57 130.919C63.62 129.997 63.11 129.715 63.57 129.114C63.59 128.861 63.66 128.667 63.82 128.444C63.89 128.289 64 127.901 64.03 127.755L63.72 126.921C63.66 126.765 63.61 126.445 63.6 126.29L63.55 125.222C64.02 124.795 63.94 124.349 63.7 123.873L63.09 122.651L63 121.865L63.59 120.632L63.92 119.633L64.54 118.333C64.57 118.265 64.35 117.973 64.42 117.944L64.76 117.809C65.12 117.663 64.66 117.149 65.23 116.877C65.43 116.78 65.61 116.644 65.71 116.498C65.91 116.207 66.2 116.169 66.51 116.372C66.84 116.586 67.05 116.062 67.77 115.936C68.08 115.509 68.74 115.392 69.19 115.635C69.64 115.877 70.2 115.101 71.47 115.062L72.22 115.043L73.57 115.188L74.71 115.315L76.65 115.256L78.27 115.431L79.93 115.645L83.11 115.965L84.29 115.751L85.32 115.829L87.56 116.013L89.14 116.207C90.09 116.324 91.02 116.334 92.01 116.314C92.82 116.295 93.41 116.896 95.2 116.314L96.15 116.004C96.82 115.79 97.48 115.907 98.2 115.926L99.8 115.984C100.83 116.023 101.38 115.751 101.76 115.79L102.76 115.877H103.63L106.16 115.654C106.65 115.615 107.06 115.654 107.62 115.693C107.91 115.712 108.44 115.586 108.76 115.528L109.69 115.353C110.51 115.198 111.31 115.256 112.13 115.266L113.44 115.286L114.98 115.518C115.58 115.606 116.13 115.489 116.76 115.548L118.06 115.674L119.46 115.538C120.92 115.392 122.02 115.877 123.03 115.703C124.04 115.528 124.94 115.402 125.95 115.548C126.37 115.606 126.83 115.586 127.26 115.518C128.01 115.218 128.79 115.402 129.5 115.722C130.15 115.538 130.83 115.518 131.49 115.693L132.93 115.8L134.69 115.848L135.67 115.703C136.14 115.635 136.55 115.635 137.02 115.761C137.66 115.936 138.35 115.771 139 115.81L140.14 115.868L141.32 116.023L142.6 116.207C143.68 116.363 144.59 116.382 145.68 116.169C145.99 116.11 146.58 116.236 146.93 116.285L149.22 116.596L150.54 116.722L153.49 116.77L155.34 116.799L157.59 116.77L159.06 116.489C159.91 116.605 160.6 116.644 161.45 116.479C161.81 116.411 162.27 116.528 162.66 116.537L164.74 116.596L166 116.702L167.5 116.935H168.93C169.62 116.935 170.24 117.052 170.93 117.023L173.38 116.935L175.14 116.906H176C176.73 116.887 177.38 117.032 178.03 117.362L178.86 117.382C179.47 117.391 180.02 117.585 180.62 117.731L182.23 118.109L183.66 118.536L186.28 119.284C186.89 119.458 187.44 119.497 187.97 119.837C188.91 120.429 189.62 120.302 190.14 120.72C191.39 121.719 192.17 121.632 193.02 122.117L194.89 123.194C195.18 123.359 195.41 123.553 195.67 123.776L196.55 124.223L196.96 124.931L197.42 125.562L198.33 126.358C198.73 126.707 199.2 127.241 199.39 127.687C199.55 128.075 200.27 128.066 200.29 128.725C200.32 129.579 200.92 129.599 201 129.9L201.37 131.443C201.46 131.84 201.72 132.151 201.88 132.481L202.43 133.655C202.66 134.16 201.68 134.49 202.14 135.111L202.58 135.703L203.19 136.537C203.42 136.857 202.86 137.129 202.78 137.546C202.63 138.332 202.94 138.429 202.89 138.711C202.87 138.866 202.8 139.264 202.86 139.409L203.34 140.7L203.7 141.67L203.8 141.865C203.8 141.865 203.72 141.991 203.68 142.01C203.32 142.214 203.2 142.66 203.45 143C203.82 143.495 203.79 144.038 203.36 144.485L203.26 146.066C203.24 146.319 202.93 146.794 202.99 147.027C203.07 147.367 203.03 147.658 202.87 147.91L202.48 148.531C202.17 148.706 201.98 148.958 201.9 149.288L201.69 150.191C201.64 150.404 201.3 150.763 201.13 150.899C200.77 151.18 201.19 152.267 200.79 152.849L199.92 154.121C199.59 154.596 199.02 154.654 198.7 155.149L198.21 155.906L197.47 157.216C197.24 157.624 196.84 157.886 196.35 157.944C195.92 157.992 195.88 158.478 195.22 158.846C194.81 159.079 194.4 159.283 194.13 159.584C193.74 160.001 193.59 159.953 193.05 160.351L192.27 160.923L190.99 161.496C190.54 161.699 190.01 161.893 189.6 162.165C189.06 162.534 188.33 162.67 187.75 162.466C187.63 162.427 187.31 162.544 187.19 162.582L186.15 162.893C185.89 162.971 185.63 163.097 185.37 163.213L184.28 163.708L183.32 163.854C182.83 163.931 182.44 164.048 181.96 164.087L180.6 164.184L179.13 164.251H177.52L175.91 164.125L174.4 164.038L171.99 163.912C171.33 163.873 170.76 163.766 170.1 163.776H168.37L166.56 163.601L164.39 163.301L163.18 163.174L161.57 163.048L159.63 162.864C159.26 162.825 158.66 162.757 158.61 163.262L158.52 164.154C158.49 164.455 158.41 165.067 158.17 165.232L157.57 165.649C157.05 166.008 156.94 166.901 157 167.561L156.59 168.036C156.46 168.191 156.45 168.676 156.36 168.871L155.73 170.161C155.66 170.307 155.32 170.53 155.18 170.627C154.67 170.986 155.18 171.888 154.39 172.248C154.21 172.335 153.83 172.568 153.8 172.752L153.49 174.509L152.86 175.081L152.78 175.062ZM139.39 173.781L139.85 173.043L140.32 172.461L141.24 171.52L141.49 171.025C141.61 170.782 141.86 170.433 141.91 170.171C141.99 169.822 141.99 169.22 142.18 168.987L142.68 168.376L143.14 167.842C143.6 167.318 144.49 167.046 144.11 166.338C143.93 165.998 144.63 165.824 144.74 165.338L144.97 164.358L145.27 163.679L145.61 162.417C145.67 162.175 146.03 161.835 146.24 161.612C146.46 161.369 146.46 161.01 146.46 160.69C146.46 160.438 146.81 160.021 146.92 159.797L147.4 158.759C147.5 158.536 147.66 158.041 147.83 157.866L148.61 157.041L148.68 155.683L148.94 154.994L149.37 154.674L149.42 153.771C149.78 153.422 149.89 153.024 149.92 152.568L150.25 151.869C150.47 151.413 150.08 150.947 150.49 150.171C150.64 150.074 150.87 149.919 150.93 149.841L151.42 149.123C151.47 149.045 151.6 148.929 151.56 148.88L151.38 148.638C151.26 147.978 151.47 147.279 151.9 146.687C151.99 146.561 151.96 146.241 152 146.066L152.23 145.028C152.75 144.931 152.96 144.62 152.95 144.126C152.94 143.388 153.55 143.136 153.77 142.592L154.23 141.467L154.18 140.545L154.1 139.584L154.69 139.283L154.43 138.255L154.84 137.119C155 136.673 155.23 136.333 155.61 136.032C155.68 135.8 155.81 135.363 155.94 135.179C156.34 134.616 155.94 134.761 155.97 133.995L156 133.228L156.53 133.044C156.73 132.743 156.69 132.258 156.75 131.918L157.11 131.016L157.38 130.123C157.45 129.88 157.35 129.482 157.21 129.23L157.38 128.648C157.23 128.328 157.29 127.949 157.61 127.765C158.2 127.425 157.93 127.124 158.18 126.299C158.19 126.261 158.18 126.134 158.18 126.076L158.13 125.29C158.13 125.29 157.93 125.116 157.86 125.125L156.55 125.184C156.31 125.193 156.04 125.261 155.83 125.319L154.47 125.717C153.84 125.174 153.16 125.358 152.47 125.368H150.75L149.64 125.3C148.87 125.242 148.23 125.184 147.49 124.97C147.16 124.873 146.68 124.815 146.3 124.844L145.18 124.912L144.4 125.019C143.8 125.106 143.1 125.019 142.47 124.96L141.22 124.844L139.77 124.669C139.45 124.63 139.11 124.592 138.82 124.621L138.15 124.669L137.08 124.64C136.2 124.165 135.44 124.883 134.13 124.514C133.85 124.436 133.54 124.397 133.27 124.407L131.53 124.495L129.96 124.475L128.83 124.368L127.77 124.33C126.71 124.106 125.8 124.029 124.77 124.126L123.57 124.242L122.55 124.349L121.67 124.407L120.5 124.63C120.04 124.718 119.22 124.776 118.8 124.63C118.35 124.475 118.06 124.349 117.61 124.31C116.76 124.242 115.87 124.087 115.07 124.281L113.77 124.592C113.46 124.669 113.09 124.63 112.74 124.63H111.66C111.12 124.64 110.41 124.33 109.85 124.368L108.69 124.436L107.35 124.572C106.68 124.64 106.12 124.718 105.48 124.941C104.88 125.145 104.43 124.854 103.27 125.067C102.57 125.193 101.97 125.125 101.27 125.096L99.31 125.028L97.56 125.135C96.36 125.213 95.91 124.921 95.14 124.999C93.93 125.116 93.12 124.834 91.79 124.97C90.7 125.086 90.24 124.572 89.46 124.718C89.06 124.786 88.75 124.824 88.41 124.718C87.61 124.436 87.35 124.757 86.33 124.747L83.97 124.718C83.34 124.718 82.83 124.543 82.22 124.388C81.61 124.233 80.79 124.388 80.16 124.31L77.67 123.99L76.3 123.786C75.93 124.184 75.83 125.048 76.02 125.669L76.25 126.445C76.32 126.697 76.37 127.28 76.25 127.512L75.93 128.201C75.97 128.522 76.11 128.871 76.25 129.201L76.01 129.531C76.05 130.404 76.8 130.938 76.26 131.608C76.13 131.772 75.97 132.141 76.05 132.287C76.12 132.413 76.32 132.539 76.52 132.694C76.72 132.85 76.86 133.412 76.75 133.636C76.51 134.14 76.33 134.606 76.34 135.101V135.809C76.36 136.11 76.31 136.382 76.35 136.654C76.44 137.168 76.4 137.624 76.3 138.148L76.51 138.74C76.57 139.118 76.71 139.312 76.83 139.671L77.26 140.914C77.3 141.04 77.2 141.389 77.17 141.554C77.14 141.68 77.36 141.894 77.51 142.02L76.92 143.087C77.11 143.407 77.19 143.602 77.24 143.951C77.34 144.543 77.86 144.446 78.16 145.183C77.8 145.63 77.86 145.979 77.97 146.454L77.84 147.425C77.93 147.658 77.88 147.794 77.84 148.056L77.96 149.162C77.99 149.395 77.87 149.812 77.93 149.996L78.19 150.821L79.14 151.733C79.5 152.083 78.69 152.471 79.16 153.121C79.75 153.936 79.07 154.848 79.16 155.537C79.21 155.906 79.32 156.527 79.47 156.789L80.01 157.798C80.05 157.876 80.25 158.051 80.36 158.157C80.39 158.361 80.16 158.672 79.88 158.895C79.9 159.467 80.87 159.225 81.04 160.147L81.26 161.331L81.79 162.417L81.92 163.271L82.27 163.873C82.41 164.746 83.12 165.193 83.33 165.833L83.71 167.007C84.07 167.095 84.38 167.221 84.51 167.425C84.88 168.026 84.22 168.521 84.86 168.793L85.42 169.026L85.56 170.054C85.59 170.258 85.61 170.549 85.65 170.675C85.94 170.908 86.21 171.209 86.41 171.529L86.96 171.714C87.31 171.83 87.48 172.053 87.43 172.49C87.41 172.645 87.61 172.839 87.73 172.995L88.26 173.703L89.24 173.955L89.46 175.469L90.32 175.809L90.62 176.915C90.79 177.536 91.58 177.352 92.25 178.332C92.66 178.943 93.16 178.633 93.44 179.322C93.74 180.069 94.14 180.777 94.64 181.379L95.42 181.748L96.13 182.349L96.95 182.912C97.37 183.203 97.25 183.553 97.89 183.766C98.52 183.98 98.64 184.465 99.62 184.63L100.6 185.484L101.38 185.911L102.81 186.561L103.23 187.201L103.52 187.638C103.59 187.745 103.9 187.657 104.09 187.619C104.27 187.58 104.63 187.764 104.83 187.813L105.48 187.968C105.69 188.016 105.98 188.395 106.11 188.589L107.22 188.55L108.13 189.161L109.14 189.559C109.96 189.88 110.31 189.443 111.33 189.773L112.03 189.996C112.48 190.142 112.91 190.19 113.39 190.151L114 190.277L114.84 190.142L117.43 189.637L118.74 189.317C119.44 189.142 119.91 189.006 120.54 188.599L121.83 188.191L123.77 187.424L124.63 187.056L126.23 186.211L127.86 185.377C128.37 185.115 128.79 184.513 129.26 184.135C129.94 183.591 130.96 183.611 131.72 182.854L132.41 182.029L133.01 181.272L133.88 180.331C134.3 179.885 134.83 179.671 135.43 179.574L136.28 178.798L136.83 178.177C136.91 177.827 137.09 177.556 137.37 177.361C137.74 177.119 137.69 176.77 138.23 176.478C138.37 176.304 138.62 175.877 138.69 175.654L138.94 174.819C139.04 174.479 139.18 174.101 139.39 173.771V173.781ZM182.73 154.47C182.89 154.421 183.13 154.091 183.26 153.956C183.59 153.616 184.23 153.461 184.69 153.325L185.6 152.413C186.2 151.811 186.92 151.656 187.44 150.928C187.38 150.588 187.46 150.511 187.6 150.288L188.07 149.181L188.65 148.415L189.23 147.755C189.4 147.551 189.31 146.979 189.24 146.707L189.58 146.357L190.14 145.203L190.5 144.271L190.72 143.194C190.82 142.709 190.54 142.078 190.76 141.622C191.19 140.71 190.28 140.875 190.24 140.021L190.2 139.118L190.1 138.74L189.71 137.304L190 136.498C189.75 136.013 189.71 135.576 189.7 135.091C189.69 134.819 189.6 134.257 189.51 134.014L189.02 132.782L188.76 132.258L188.38 130.938C188.54 130.482 188.38 130.094 187.9 129.803L187.22 129.395L186.32 128.958C185.89 128.745 185.45 128.551 185.14 128.182C184.78 127.755 184.37 127.454 183.82 127.309L182.28 126.882L180.52 126.29C179.99 126.115 179.51 126.037 178.95 125.989L177.57 125.872L174.99 125.853C174.45 125.853 174.07 125.834 173.52 125.805L171.95 125.737L170.79 125.513L171.05 126.396C170.56 126.853 170.52 127.406 170.77 127.998L170.46 128.871C170.18 129.657 170.47 130.171 170.33 130.618L170.1 131.336L169.8 132.578L170.29 133.48C170.13 133.801 169.88 134.325 169.65 134.49C169.19 134.82 169.11 134.975 169.1 135.518C169.1 135.955 168.61 136.566 168.35 136.906L168.4 137.546C168.43 137.964 167.85 138.294 167.7 138.614C167.35 139.342 167.39 140.186 167.34 140.962C167.32 141.263 167.38 141.486 167.54 141.816L167.15 142.398C166.88 143.058 166.61 143.66 166.19 144.261C165.97 144.572 166.12 145.154 166.31 145.416C166.13 145.562 165.92 145.785 165.87 145.94L165.61 146.755C165.44 147.279 165.31 147.784 165.01 148.25C164.41 149.162 165.15 149.395 164.62 150.123L164.23 150.656C164.03 150.909 163.51 151.297 163.46 151.617L163.27 152.811C163.23 153.073 163.16 153.635 162.94 153.752L162.18 154.169C162.01 154.266 161.86 154.654 161.79 154.897H164.74L168.08 155.004L169.84 155.256L171.53 155.334L173.65 155.45C174.26 155.489 174.84 155.78 175.42 155.935C176.39 156.188 177.44 155.926 178.4 155.741L180.18 155.402L181.69 154.771L182.76 154.48L182.73 154.47Z" fill="black"/>
<path d="M88.573 108.711L88.3431 108.35C87.2128 108.11 87.3182 107.427 86.8009 107.233C86.5327 107.131 86.4656 106.984 86.3411 106.744L85.8621 105.792C85.8621 105.626 85.843 105.303 85.7759 105.146L85.3065 103.992L85 103.299L85.3353 102.8C85.5843 102.431 84.8084 102.071 85.0479 101.461L85.2586 100.916C85.3927 100.584 85.4502 100.224 85.4981 99.8727L85.6035 99.1616C85.6322 98.9307 85.6322 98.589 85.6035 98.3212C85.5843 98.1735 85.7663 97.9241 85.8813 97.7209C86.0441 97.4162 85.9962 96.9083 85.977 96.5389L85.9292 95.7169C85.91 95.4491 85.7759 95.089 85.843 94.9043L86.1974 93.9623L85.6514 93.6483L85.9962 93.3251L85.91 92.891C86.2262 92.4478 86.571 91.8659 86.5518 91.3488C86.5327 90.9979 86.5806 90.9055 86.7338 90.6192L87.2703 89.6311L87.6439 88.9477C87.7205 88.7999 87.7588 88.4121 87.7492 88.2366L87.6822 86.7682L88.0462 86.2695C87.9696 85.8355 88.0749 85.5123 88.324 85.2167V84.5333C88.3048 83.4806 88.7933 83.7022 88.9179 83.1019L89.0999 82.2431L89.6747 81.9937L90.0674 81.0333L90.3835 80.2668C90.4793 80.0174 90.4985 79.7311 90.5464 79.4079L90.6997 78.3644C91.7151 78.2074 91.3031 77.4409 91.6767 76.9976L92.127 76.462C92.6921 75.7878 93.6501 75.483 93.8033 75.2614L94.3494 74.4395L95.5563 73.8854C96.064 73.6545 96.5238 73.4052 96.907 73.0081L97.5967 72.3062L99.1773 71.9553C99.4838 71.8906 100.078 71.6967 100.288 71.512L100.873 70.9948C101.199 70.7085 101.63 70.3391 102.08 70.2653L103.555 70.0067C103.823 69.9605 104.216 69.5449 104.408 69.2864L105.155 68.9908L106.467 68.0673C106.956 67.7256 107.454 67.5963 108.038 67.4024L108.737 67.1623C108.938 67.0977 109.178 66.6728 109.303 66.4789L109.58 66.0356L110.213 65.0567L110.557 64.5211L110.883 63.7546L111.19 63.0343L111.343 62.6371C111.228 61.9722 111.305 61.3627 111.688 60.7717C111.956 60.3653 111.582 60.1899 111.851 59.5065L112.176 58.703L111.927 58.0843L112.119 57.2162C112.435 57.1239 112.674 56.8837 112.751 56.5975L112.866 56.1449C113.105 55.9418 113.22 55.8125 113.412 55.5724C113.747 55.1568 114.801 55.1476 115.433 55.3877C116.056 55.0829 116.621 55.1199 117.34 55.2676L118.336 55.48L119.102 55.7109L119.926 55.9787C120.798 56.265 121.851 56.7175 122.254 57.3824L122.522 57.8257C123.796 58.5276 123.47 59.3403 123.585 59.9221L123.882 61.4089L123.997 62.2493C124.064 62.748 122.953 63.1358 123.719 64.438L123.03 65.1214C122.618 65.5369 123.24 66.5805 122.273 67.4855C122.072 67.6702 121.813 68.0581 121.861 68.2982C122.062 69.3602 121.066 69.1109 120.98 69.942L120.855 71.1334C120.798 71.7336 120.252 71.5212 119.811 71.9368C119.562 72.1677 119.284 72.2693 118.978 72.4078L117.799 72.9711L117.416 73.4052C116.947 73.5529 116.353 73.7746 116.113 74.1624L115.826 74.5965C115.29 74.7442 114.772 75.0028 114.351 75.3445C114.188 75.4738 113.757 75.5477 113.575 75.64L112.31 76.268C111.477 76.6836 111.295 77.33 110.72 77.4316C110.145 77.5332 109.619 77.6533 109.13 77.8564L108.028 78.3274L106.668 79.0016L106.084 79.1586L105.691 79.7219L105.011 79.9436L104.082 80.747C103.747 81.0333 103.421 81.218 103.507 81.7074L102.808 82.4093C102.415 82.8064 102.52 83.8315 101.438 84.164C101.285 84.3302 100.988 84.6626 100.892 84.8381L100.269 85.9278L100.327 86.4081C99.7616 87.193 100.145 88.2089 99.5988 89.3356C99.3784 89.7788 99.2443 90.1482 99.206 90.6377L99.1294 91.8198L98.7366 92.5216C98.478 92.9834 98.545 93.6206 98.8515 94.0085C99.0431 94.2486 98.6983 94.2486 98.3822 95.1813C98.0948 96.0125 98.7654 96.2156 98.2193 96.7882C97.9032 97.1114 97.8266 97.4162 97.7979 97.8133L97.7404 98.6629C97.7116 99.0231 97.5297 99.5218 97.3955 99.8819L97.635 100.436C97.3668 100.796 97.4434 101.027 97.453 101.452V102.154V103.197L97.4721 104.869C97.4721 104.98 97.3093 105.284 97.3285 105.386L97.5296 106.633C97.6541 107.418 96.7729 107.335 96.4472 107.658L95.9108 108.184C95.1444 108.932 94.311 108.581 93.7841 108.757C93.2956 108.923 92.8166 109.172 92.3281 109.126C91.3414 109.034 90.6901 109.255 90.1345 109.098L89.349 108.868C89.1286 108.803 88.937 108.784 88.5635 108.757L88.573 108.711Z" fill="black"/>
<path d="M124.599 107.879C124.284 108.324 123.444 109.046 123.349 109.093L122.098 109.593C121.688 109.76 121.296 109.871 120.905 109.862L119.988 109.843L118.489 109.787C118.251 109.787 117.879 109.686 117.64 109.621L116.571 109.343C116.208 109.25 115.339 108.731 115.005 108.361L114.308 107.61L114.365 107.194C114.136 107.036 114.022 106.767 114.108 106.564C114.318 106.091 114.155 105.887 113.974 105.452C113.821 105.091 114.022 104.359 114.089 103.97C113.879 103.571 113.783 102.793 113.821 102.562L113.974 101.58C113.85 101.218 113.764 100.866 113.745 100.505L113.716 99.9585C114.069 99.486 113.936 98.9672 113.611 98.5411C113.678 98.3002 113.659 98.0408 113.478 97.8092L113.898 97.0403L113.688 96.3548L113.974 95.0301L114.003 94.4835C114.003 94.3909 113.955 94.1963 113.907 94.1222L113.678 93.798C113.544 93.6127 114.299 93.5108 114.509 92.3621L114.68 91.3986L114.814 90.815L115.129 90.2128L115.416 89.5458L115.836 88.5268C116.026 88.0544 116.026 87.4152 116.313 87.0353C116.494 86.7945 116.571 86.6833 116.647 86.4054C116.762 85.9885 117.019 85.5531 117.277 85.2011C117.583 84.7657 118.05 84.988 118.26 84.5711L118.7 83.6911L119.291 83.2649L120.265 82.7091L121.163 82.0699L122.127 81.7735C122.881 81.5419 123.463 80.2912 125.029 79.652L125.783 79.3463L126.575 78.985L127.998 78.5033C128.666 78.281 128.819 77.3268 129.506 77.0303L130.499 76.6042L131.664 75.8631L132.179 75.4833L133.22 74.6217C133.583 74.316 134.289 74.3068 134.824 74.2234C135.053 74.1863 135.358 73.7509 135.492 73.5564L136.284 73.1488L136.447 72.6393L136.886 72.1483C137.926 71.4442 137.153 70.5642 138.194 70.3233L138.7 69.6934C138.7 68.8411 139.501 69.1005 139.664 68.2019L139.845 67.1643L139.33 66.6733C139.482 66.3861 139.53 66.1823 139.482 65.8303C139.416 65.3301 139.788 65.0429 139.731 64.3018C140.026 64.2184 140.265 64.0424 140.322 63.7645C140.361 63.5885 140.246 63.2179 140.189 63.0882C140.361 62.8937 140.475 62.6343 140.494 62.3656L140.571 60.6425C140.59 60.1238 140.294 59.642 140.847 59.1788L140.494 58.0672C140.37 57.6688 140.981 56.7702 140.685 56.3256L140.256 55.6771C140.065 55.3992 139.902 54.9638 140.055 54.6303L140.427 53.8243C140.466 53.0554 140.647 52.305 141.22 51.7122L141.821 51.5176L142.594 50.6653C142.919 50.304 143.186 49.9428 143.759 50.0076L144.714 50.1188L145.745 50.267L146.871 50.5171L149.42 51.4064L150.022 52.1476C150.308 52.4996 150.585 52.8146 151.043 53.0184C151.205 53.0925 151.425 53.426 151.492 53.5835L151.177 53.8706L151.626 54.2412L151.893 55.9365C151.912 56.0754 151.864 56.3534 151.816 56.5386L152.227 57.0111L152.313 57.7615C152.351 58.0672 152.714 58.6137 152.838 58.9195C152.895 59.0491 152.571 59.2622 152.466 59.3549C152.103 59.6976 152.179 60.448 152.532 60.8093C152.733 61.0038 153.077 61.467 152.933 61.6801L152.294 62.625C152.026 63.0141 152.017 63.2642 152.084 63.7459L152.208 64.765C152.275 65.3023 152.361 65.7099 152.59 66.2287L152.055 66.7752C151.874 66.9698 151.836 67.4793 151.816 67.8035C151.769 68.5539 152.361 68.8781 151.731 69.295L151.568 70.1102C151.969 71.2497 151.272 71.2404 150.843 71.8333C150.833 72.3891 150.709 73.1488 150.404 73.5286C150.069 73.6768 149.869 73.788 149.649 74.0011L148.867 74.3068L148.532 75.6037L147.549 76.5764L147.53 77.3453L146.528 77.9845C146.06 78.281 145.64 78.8275 145.201 79.1703L144.657 79.5964C144.437 79.6242 143.855 79.6242 143.711 79.791L143.1 80.4765C142.938 80.6525 142.652 80.8749 142.451 80.9768C142.375 81.0138 142.222 81.2176 142.155 81.2825C141.306 82.0699 140.513 81.6808 140.361 82.3571L140.179 83.1723C139.883 83.2371 139.606 83.2742 139.473 83.3483L138.814 83.7096L137.879 84.108C137.497 84.2654 137.134 84.4322 136.695 84.4415C136.332 84.4507 136.17 84.6267 135.96 84.8769L135.425 85.5346C135.053 85.9885 134.585 85.6735 134.318 86.1182C134.174 86.3498 133.993 86.4888 133.793 86.5351L132.542 86.8223C132.103 86.9242 131.769 87.165 131.387 87.4152L130.614 87.9154C129.917 88.0173 129.392 88.3693 129.038 88.9344C128.924 89.1197 128.485 89.2401 128.246 89.2957L127.75 90.1943L127.081 90.4815C126.948 90.5834 126.805 90.991 126.757 91.167L126.489 92.1953C126.337 92.7882 126.805 93.0754 126.251 93.5293C126.117 93.6405 125.907 93.835 125.898 93.9555C125.888 94.0944 125.974 94.3538 126.022 94.5113L125.773 95.1598L125.449 96.0862C125.401 96.2344 125.353 96.642 125.392 96.7902L125.563 97.5498C125.688 98.0964 125.105 98.2354 125.344 98.7264C125.812 99.6713 124.857 99.7454 125.239 100.44L125.611 101.116C125.01 101.932 124.867 103.053 125.535 103.59L125.22 104.553L125.688 104.979L125.506 105.924L125 107.11C124.886 107.37 124.771 107.629 124.609 107.861L124.599 107.879Z" fill="black"/>
<path d="M149.802 107.231C149.602 107.444 149.296 107.805 149.086 107.907L148.055 108.426L147.635 108.62L146.938 108.963C146.327 109.269 145.688 109.324 145.019 109.25L143.788 109.12L143.034 108.972C142.594 108.889 142.327 108.713 141.907 108.537L141.162 108.222C140.924 108.12 140.723 107.842 140.666 107.592L140.456 106.665C140.17 106.425 140.055 106.212 139.931 105.878L139.654 105.109L139.396 104.479L139.587 104.146L139.53 103.358L139.301 102.663L139.578 102.098L139.33 100.959L139.053 100.607L139.1 99.8009C139.11 99.5878 139.225 99.1246 139.32 98.9394L139.816 97.9018C139.969 97.5868 140.007 97.3645 140.065 97.0032L140.256 96.2806L140.485 95.6692L140.771 94.6872C140.847 94.4279 141.306 94.0203 141.248 93.7423C141.172 93.3533 141.277 93.1217 141.602 92.992C142.165 92.7789 141.878 92.1212 142.06 91.8432L142.48 91.1855C142.604 90.991 143.11 90.7686 143.253 90.5741L143.979 89.5643C144.456 88.8973 145.124 89.166 145.917 88.6101L147.387 87.5726C147.673 87.3688 148.437 87.3966 148.771 87.2484L149.85 86.7666L151.043 86.2293L153.497 85.5901C154.012 85.4604 154.614 85.2566 155.062 84.9787L156.265 84.2283L157.038 83.9319L158.356 83.3668C159.005 83.0889 159.53 82.8295 160.236 82.6349C160.685 82.5145 161.268 82.181 161.611 81.8475L162.547 80.9396C162.671 80.8192 162.747 80.4023 162.814 80.2356L163.272 79.1795L163.645 78.67L163.902 77.4935L163.921 76.5393C163.921 76.2892 164.332 75.8353 164.246 75.5944C164.16 75.3443 164.074 75.0571 164.122 74.8996L164.341 74.177L164.618 73.1487C164.399 72.7874 164.37 72.3428 164.513 71.9537L164.771 71.2496L164.571 70.5734L164.657 69.9619L164.542 69.3876C165.153 68.98 165.105 68.4612 164.857 67.8961C164.657 67.4329 164.618 66.8122 164.523 66.2657L164.361 65.8303C164.504 65.5338 164.427 65.2188 164.16 65.0243L164.017 64.4592L164.198 63.8385C164.227 63.7459 164.351 63.5421 164.437 63.505C165.162 63.2086 164.38 62.7361 164.914 62.0321C165.048 61.8653 165.268 61.5874 165.43 61.5226C165.955 61.291 166.404 61.0408 166.881 60.7166C167.177 60.6517 167.769 60.5406 168.055 60.5776L169.516 60.7259L170.299 60.8926L171.406 61.2168L172.475 61.643L173.64 62.3656L174.308 62.7824C174.69 63.0233 174.995 63.5513 175.177 63.9682C175.253 64.135 175.559 64.3758 175.702 64.4963C176.055 64.7927 175.721 65.4041 175.979 65.7098C176.151 65.9136 176.418 66.312 176.313 66.5158L175.95 67.2754C175.635 67.9239 176.456 68.4705 176.179 69.156C175.902 69.8415 175.836 70.3881 175.941 71.0644L175.769 71.7591L175.883 72.7782V74.0288C176.265 74.2697 176.504 74.7328 176.275 75.1219L175.435 75.6963C175.263 75.8075 175.215 76.317 175.215 76.5208L175.511 76.9469C175.606 77.4935 175.521 78.0123 175.282 78.5496L175.511 79.5315L174.881 79.8836C174.375 80.1707 174.919 80.7636 174.127 81.5881C174.184 81.7919 174.279 82.2088 174.165 82.3478L173.688 82.9221L173.239 83.6632L172.561 84.9046L172.408 85.4697L171.759 86.1737L171.215 86.9519L170.795 87.5541L169.974 87.6004L169.239 88.6009L168.523 89.2586L167.75 89.3976L166.728 89.9441L165.85 90.2406C165.716 90.2869 165.449 90.4166 165.353 90.5185C164.676 91.204 164.189 90.5926 163.559 91.2133C163.425 91.343 163.005 91.4356 162.833 91.5283L161.821 92.0563C161.63 92.1582 161.22 92.3898 161.019 92.3528C160.532 92.2694 160.112 92.3435 159.654 92.4361L158.251 92.714L157.325 92.8623C156.771 92.9456 156.847 93.2236 156.065 93.4737C155.769 93.5663 155.358 93.7979 155.158 94.0203C154.489 94.7706 154.108 94.4186 153.907 94.854C153.707 95.2894 153.363 95.5303 152.905 95.6692C152.714 95.8082 152.303 96.1139 152.227 96.327L151.931 97.1144C151.711 97.3553 151.396 97.7073 151.32 98.0037C151.225 98.3557 151.625 98.9857 151.253 99.7175C150.948 99.8565 150.719 100.042 150.642 100.227L150.852 100.653C150.604 100.95 150.566 101.265 150.709 101.58L150.957 102.154C150.413 102.895 150.203 103.386 150.7 103.896C150.843 104.044 151.015 104.544 150.957 104.748L150.738 105.526L150.337 105.498C150.165 105.6 150.098 106.082 150.251 106.221L150.499 106.443C150.499 106.443 150.413 106.665 150.365 106.712L149.821 107.295L149.802 107.231Z" fill="black"/>
</g>
<defs>
<clipPath id="clip0_137_2322">
<rect width="250" height="250" fill="white"/>
</clipPath>
</defs>
</svg>
