<?xml version="1.0" standalone="no"?>
<!DOCTYPE svg PUBLIC "-//W3C//DTD SVG 20010904//EN"
 "http://www.w3.org/TR/2001/REC-SVG-20010904/DTD/svg10.dtd">
<svg version="1.0" xmlns="http://www.w3.org/2000/svg"
 width="500.000000pt" height="500.000000pt" viewBox="102 69 355 346"
 preserveAspectRatio="xMidYMid meet">
<metadata>
Created by potrace 1.16, written by Peter Selinger 2001-2019
</metadata>
<g transform="translate(0.000000,500.000000) scale(0.100000,-0.100000)"
fill="#000000" stroke="none">
<path d="M2474 4211 c-97 -59 -181 -252 -167 -384 7 -58 45 -141 103 -223 101
-142 115 -172 114 -247 0 -61 -5 -77 -47 -157 -26 -50 -47 -98 -47 -108 1 -29
26 -53 62 -59 31 -4 39 -1 71 33 34 37 52 66 92 159 10 22 20 74 22 120 4 65
1 91 -16 136 -22 57 -85 163 -120 200 -10 11 -34 50 -52 87 -29 56 -34 76 -33
132 1 70 21 116 90 207 70 92 22 161 -72 104z"/>
<path d="M3014 4048 c-68 -51 -115 -119 -143 -208 -31 -101 -3 -217 80 -327
101 -135 110 -204 44 -337 -26 -52 -36 -81 -28 -83 7 -3 9 -11 6 -19 -6 -17
42 -37 74 -29 25 6 73 47 73 62 0 6 6 16 14 23 8 6 25 41 37 77 17 52 20 80
16 137 -4 67 -31 147 -60 178 -13 15 -18 23 -79 123 -38 62 -43 75 -41 127 0
32 6 64 12 72 6 7 9 15 6 18 -3 3 1 11 10 18 8 7 15 17 15 23 0 5 8 17 18 26
48 42 66 97 39 119 -28 23 -62 23 -93 0z"/>
<path d="M1854 3998 c-77 -85 -108 -214 -76 -323 17 -56 42 -98 119 -201 29
-39 53 -76 53 -82 0 -7 4 -12 8 -12 9 0 16 -40 15 -90 0 -20 -17 -67 -38 -108
-45 -89 -41 -121 18 -136 31 -8 42 -6 64 10 15 11 31 29 37 40 6 10 14 21 18
24 4 4 17 33 29 65 22 63 26 156 10 212 -10 35 -60 130 -84 159 -78 95 -96
121 -106 156 -23 74 -7 151 48 226 24 35 31 76 14 93 -5 5 -25 12 -44 15 -33
6 -39 2 -85 -48z"/>
<path d="M1947 2824 c-1 -2 -110 -5 -242 -8 -332 -7 -540 -20 -561 -34 -6 -4
-16 -16 -21 -27 -13 -23 6 -68 34 -81 10 -4 560 -9 1222 -11 662 -1 1211 -5
1219 -8 12 -4 13 -31 8 -168 -3 -89 -8 -173 -10 -187 -2 -14 -7 -47 -11 -75
-18 -133 -72 -319 -126 -430 -10 -22 -19 -47 -19 -57 0 -9 -4 -18 -9 -20 -4
-1 -35 -45 -67 -97 -82 -133 -237 -288 -363 -364 -188 -112 -356 -157 -566
-150 -153 4 -175 6 -175 14 0 3 -13 6 -30 6 -26 0 -79 12 -130 31 -8 3 -19 4
-24 3 -4 -1 -13 2 -20 7 -6 5 -29 15 -51 22 -47 15 -168 79 -173 91 -2 5 -8 9
-13 9 -39 0 -253 208 -327 320 -31 47 -60 87 -64 88 -5 2 -8 9 -8 15 0 7 -14
40 -30 75 -40 81 -99 244 -111 307 -20 101 -23 114 -32 135 -3 8 -8 44 -11 80
-13 155 -18 186 -32 208 -17 26 -58 29 -82 5 -32 -32 -22 -303 18 -483 6 -25
13 -60 16 -77 4 -18 9 -33 13 -33 3 0 7 -15 8 -32 2 -18 7 -34 13 -36 5 -2 10
-11 10 -20 0 -10 8 -33 19 -52 10 -19 18 -39 19 -43 0 -15 25 -72 43 -97 9
-14 17 -28 18 -32 7 -34 121 -194 198 -278 28 -31 87 -83 130 -115 43 -33 80
-63 83 -67 13 -17 218 -120 275 -138 22 -7 49 -16 60 -21 23 -9 83 -22 87 -18
2 1 12 -3 23 -9 58 -31 415 -46 505 -22 25 7 54 13 65 15 47 6 174 51 255 91
157 76 306 196 415 331 84 103 94 117 112 153 10 19 20 37 23 40 21 21 87 159
120 250 89 247 126 531 106 830 -5 83 -37 127 -106 148 -23 7 -288 11 -805 12
-423 1 -798 2 -833 4 -34 1 -63 1 -65 0z"/>
<path d="M4038 2599 c-93 -18 -190 -93 -208 -160 -10 -34 -9 -44 5 -59 20 -22
66 -21 88 2 9 9 42 29 72 44 49 23 64 26 124 22 79 -6 120 -26 164 -80 27 -33
30 -45 30 -105 0 -153 -90 -295 -263 -417 -41 -30 -102 -66 -135 -81 -33 -15
-67 -31 -76 -35 -9 -5 -35 -14 -59 -20 -43 -12 -84 -46 -92 -78 -8 -29 10 -65
28 -58 14 5 15 4 5 -8 -10 -12 -7 -15 16 -19 50 -10 69 -7 138 19 11 4 25 8
30 9 69 10 354 189 355 223 0 6 7 12 15 12 8 0 15 3 15 8 0 4 23 32 50 62 27
30 50 60 50 66 0 6 7 17 15 24 8 7 15 21 15 31 0 11 4 19 9 19 29 0 76 265 52
293 -6 8 -9 21 -5 30 3 8 1 18 -5 22 -6 3 -11 15 -11 26 0 10 -4 19 -10 19 -5
0 -9 3 -8 8 8 26 -79 120 -140 151 -68 35 -176 47 -264 30z"/>
</g>
</svg>
