<svg width="250" height="250" viewBox="0 0 250 250" fill="none" xmlns="http://www.w3.org/2000/svg">
<g clip-path="url(#clip0_137_2710)">
<path d="M181.38 71.0511H181.548L182.31 71.4775L182.788 71.7745L183.434 72.2134L184.7 73.1563C184.7 73.1563 184.894 73.376 184.868 73.3373C185.061 73.3373 185.41 73.4146 185.565 73.505L186.753 74.2155L187.296 74.5771L188.2 75.1842C188.226 75.2875 188.226 75.3393 188.265 75.3522L188.458 75.4683L188.91 75.7268C188.885 75.8043 188.755 76.1917 188.846 75.8946L189.853 76.4757L190.964 77.1474L191.739 77.6125C191.804 77.6512 191.92 77.7285 191.92 77.7156L191.894 77.9354C192.243 78.0904 192.591 78.3355 192.914 78.6455L193.379 79.0718L193.844 79.4335L193.87 79.5887L194.606 80.1569L195.472 81.1644L196.079 81.8489L196.66 82.6754C196.57 83.0371 196.402 83.8121 196.621 84.0963L197.306 84.9874C197.642 85.4265 197.861 85.9042 197.939 86.408C198.081 86.6404 198.274 87.0281 198.339 87.2735L198.597 88.281L198.675 88.9911C198.985 89.2494 199.088 89.624 199.204 89.9857C199.036 90.0761 199.036 90.1021 199.23 90.1796L199.889 91.2773C199.889 91.2773 200.07 91.2902 200.057 91.3419L199.979 91.6131L200.199 91.6648C200.199 91.6648 200.147 91.8456 200.121 91.936H200.418C200.418 91.936 200.509 92.2719 200.548 92.3364L200.987 93.2146L201.284 93.8734C201.645 94.2221 202.149 94.7905 202.317 95.2425L202.588 95.94C202.95 96.8829 202.614 96.8182 202.872 97.7481L203.17 98.8461C203.777 99.6469 203.17 100.164 203.893 100.9C204.125 101.132 204.203 101.416 204.19 101.804C204.19 102.23 204.384 102.592 204.539 102.953L204.978 103.974L205.029 104.878C205.042 105.201 205.288 105.859 205.236 106.182C205.171 106.621 205.133 107.073 205.223 107.526C205.339 108.171 204.9 108.21 205.081 108.752C205.262 109.295 205.314 109.824 205.43 110.393L205.727 111.801C205.779 112.072 206.024 112.382 205.998 112.627L205.791 114.642C205.636 114.733 205.546 114.732 205.766 114.823L205.817 115.817V118.736L205.83 119.731C205.83 119.886 205.753 120.17 205.714 120.261C205.74 120.325 205.817 120.467 205.817 120.532V120.829L205.701 120.958L205.675 121.526L205.262 123.102C205.223 123.27 205.016 123.645 204.952 123.774C204.758 123.916 204.564 124.096 204.539 124.251L204.28 125.362L203.957 126.176C203.854 127.041 203.725 127.816 203.454 128.617L203.053 129.779L202.898 130.412L202.562 131.536L202.149 132.828L202.201 132.97L202.072 133.008L202.033 132.97C201.891 133.37 201.697 133.693 201.387 134.068C200.754 134.856 201.142 136.005 199.966 137.852C199.837 138.046 199.424 138.394 199.372 138.614L199.049 140.06C198.985 140.345 198.559 140.887 198.313 141.055L197.952 141.326L197.138 143.289L196.479 144.581C196.285 144.956 195.588 144.736 195.265 145.873L194.916 147.112L194.464 147.642L193.754 147.991C193.573 148.404 193.353 148.585 192.979 148.817L192.359 149.877C192.217 150.109 191.778 150.522 191.545 150.677L190.525 151.388C189.995 151.762 190.357 152.524 189.827 152.641C188.936 152.847 187.709 153.338 187.567 153.596C187.386 153.919 187.115 154.255 186.728 154.32C185.901 154.449 186.069 155.508 185.359 155.792C184.919 155.96 184.545 156.128 184.183 156.36C183.447 156.825 182.646 157.019 181.768 157.213C181.497 157.277 181.045 157.652 180.748 157.82C180.089 158.194 179.611 158.052 178.616 158.595L176.912 159.525L175.852 160.015L174.6 160.442C173.269 160.894 173.243 161.488 172.301 161.695C171.655 162.03 171.099 162.792 170.221 162.767C169.692 162.767 168.917 162.767 168.503 163.025L166.966 164.007C166.269 163.942 165.416 164.097 164.809 164.381C164.37 164.588 163.699 164.317 162.652 164.678L161.606 165.04L160.25 165.479L158.881 165.647L155.42 165.776L154.038 165.931L152.888 166.138C152.294 166.241 151.842 166.267 151.261 166.409L149.685 166.758L148.626 166.835L146.456 167.145L144.389 167.326L143.175 167.558L142.155 167.61L139.236 167.92L138.241 168.14L136.524 168.411L134.832 168.579L132.197 168.682C132.016 168.682 131.577 168.953 131.396 168.992L130.402 169.16L129.149 169.457L126.695 169.754H126.139L124.112 169.883L122.265 169.961L121.038 169.87L118.906 169.741L116.595 169.715L115.639 169.535C114.98 169.418 114.476 169.405 113.805 169.431L110.95 169.547L109.581 169.702L108.186 169.741L106.585 169.625L105.022 169.586L103.446 169.276L101.612 169.082L100.036 168.605C99.8556 168.553 99.3519 168.656 99.1581 168.695C98.6803 168.372 98.0603 168.398 97.6082 168.695C97.6082 168.695 97.4016 168.669 97.4661 168.785L96.9883 169.005L95.5417 169.883L94.2114 171.02C93.6689 171.485 92.6227 171.485 91.9123 171.898L89.962 173.061L88.6576 173.81L88.1538 174.12L87.5597 174.507L86.746 175.037L85.674 175.657L84.3178 176.419L83.3362 176.961L83.2329 177.052L82.2642 177.736L81.7217 178.162L81.6184 178.279L80.598 178.679L79.9135 179.054C78.7769 179.661 78.5444 180.216 77.7566 180.591L76.4133 181.236L75.0184 181.972L74.4114 182.192L72.9648 182.851C72.474 183.083 71.8282 183.303 71.3761 183.6L69.9037 184.543L68.638 185.266L68.018 185.666L67.6305 185.925L66.184 186.932L65.5123 187.41L65.409 187.513L64.4403 188.095L63.5362 188.598L60.7206 190.213L60.0748 190.6L59.2223 191.22C58.9769 191.401 58.809 191.905 58.8736 192.163L59.5452 192.473C58.5378 193.429 57.5562 194.191 56.4325 194.824L54.9988 193.868L53.6685 193.184C53.4877 193.093 53.0614 192.873 52.9064 192.731L52.1057 191.995C52.1057 191.995 51.9119 191.97 51.9249 191.97L51.2145 191.336L50.9562 191.362C50.9562 191.362 50.9562 191.182 50.9174 191.169L50.4395 190.923L49.7938 190.277C49.3288 189.813 48.6571 189.606 48.0242 189.348L47.3656 189.089L46.4485 188.508L45.4153 187.797L45.8931 186.416L46.2419 185.602C46.3194 185.486 46.3323 185.46 46.3194 185.473L46.5648 184.685L46.9006 183.651C46.9652 183.509 47.0039 183.471 46.8231 183.471C46.7714 183.251 46.7714 182.851 46.8618 182.593L47.6755 180.345L47.7272 179.958L47.7789 179.854L48.1147 179.183L48.5022 177.839C48.5022 177.749 48.4505 177.581 48.5022 177.568L48.8638 177.439L48.6313 177.219C48.6313 177.219 48.6184 177.129 48.6313 177.09L48.7217 176.948L48.9671 176.367L49.6517 174.727L49.3934 174.287C49.6904 174.158 49.6775 174.042 49.3546 174.055L49.755 173.409H49.4709L49.755 172.66L50.207 171.407C50.2458 171.291 50.2587 171.02 50.2716 170.878L50.4008 169.677L50.4783 169.573L51.3049 167.894L51.6149 166.693L51.9249 165.724L52.209 164.988L52.5448 164.123C52.6481 163.865 52.6352 163.374 52.5835 163.051L52.8289 162.483L53.1131 161.876L53.7718 160.313L53.8106 160.145L54.0043 159.576L54.7793 157.381L54.7276 156.451L55.3863 156.205L55.3605 155.547L56.2775 153.816C56.4067 153.571 56.2646 152.925 56.6004 152.757C56.7941 152.666 57.0783 152.163 56.9879 152.021L55.89 151.246L55.1538 150.354L54.4047 149.554L53.436 148.353L53.3972 148.198L53.0098 147.009L52.209 145.666L51.6407 144.672L50.4654 142.747L50.3621 142.075L50.3362 141.908L50.0392 141.52L49.3288 140.5L48.9929 139.88L48.373 138.562L48.1663 138.304C48.1663 138.304 48.2826 138.175 48.3084 138.149C48.0888 137.916 47.8176 137.529 47.7143 137.193L47.3785 136.096L47.0039 134.842C47.0943 134.739 47.1072 134.713 46.9781 134.688L46.8748 133.861L46.6552 132.867L46.4485 132.053L46.2419 131.136L45.9577 130.038L45.7769 129.328C45.9448 129.353 45.8544 129.276 45.7382 129.172L45.5574 127.92C45.5186 127.674 45.1311 127.455 44.8082 127.39L44.7307 126.628L44.4982 125.117L44.3045 124.239C44.3433 124.161 44.3562 124.148 44.2787 124.11L44.1107 123.025V122.572V122.392L43.9687 121.565V121.229L43.9429 119.499C44.072 119.395 44.0979 119.356 43.9816 119.33L43.9429 117.509C43.9429 117.509 44.2529 116.98 43.5812 116.36C43.2325 116.037 43.6458 115.818 43 115.107L43.1937 112.459L43.2583 111.736L43.3616 110.6L43.5296 109.088L43.6587 108.016L43.8008 107.151L43.917 106.609L43.9945 106.195C44.0333 106.105 44.0979 105.976 44.0591 106.053L44.1107 104.839L44.2916 103.651L44.6145 102.269L44.8728 101.171L45.0149 100.641L45.454 99.3238L45.7123 98.4715L45.8544 97.6579L45.9706 96.8699C46.074 96.7537 46.1127 96.7151 45.9706 96.7022L46.1515 95.94L46.3323 95.0877C46.6035 93.8478 46.9523 94.2867 47.3656 93.5763L47.9468 92.5947L48.0242 92.4916L48.4376 91.7165L48.6959 91.2129L48.7734 91.1095L49.0705 90.6315L49.4063 90.0891L49.6517 89.6886L50.3749 88.1776L51.0337 86.7179L51.137 86.6148L51.3953 86.1238L51.8086 85.4781L52.2606 84.7162C52.6869 83.9929 53.2035 82.8044 53.901 82.5332C54.3789 82.3524 54.7276 82.0425 55.0505 81.6679L55.6059 81.0092L57.1429 79.343L57.6724 79.4982L58.8865 78.4648L59.3902 78.0385L59.6744 77.6768L60.7851 76.7081L61.5471 76.0497C62.038 75.6235 62.5804 75.2487 63.11 74.8613L63.8074 74.3448C63.8978 74.0994 64.0399 73.8281 64.1949 73.686L65.3961 72.5493L66.6619 71.374L67.7855 70.3795C68.1343 70.0695 68.5734 69.8243 69.0125 69.5789L69.9941 69.0233C70.5108 68.7262 71.0145 68.481 71.6215 68.5585C71.9832 68.6101 72.5902 68.5842 72.8356 68.4033L73.4943 67.9515L75.3026 66.6984L76.2196 66.0913L77.2916 65.4197L77.4078 65.3554L78.0795 65.0454L78.8673 64.5803L79.7714 64.0509L81.3342 63.1594L81.6701 62.9141L82.4579 62.4881L82.6129 62.4364L84.1886 61.9325C84.6924 61.7646 85.2994 61.5837 85.816 61.532C86.1906 61.4933 86.6556 61.5322 86.9656 61.3643L88.0763 60.7314C88.2571 60.6281 88.6963 60.4602 88.903 60.4085C89.4713 60.5247 90.1299 60.4732 90.6078 60.2149L91.2536 59.8661C91.4344 59.7628 91.8607 59.6334 92.0802 59.6334H93.6172C93.8756 59.6334 94.3018 59.3236 94.4955 59.1816L96.3166 58.8845C97.1949 58.7424 97.0141 58.2772 98.0732 57.9802C98.719 57.7993 99.4164 57.6059 100.049 57.6188L101.083 57.6446L102.284 57.3344L104.105 57.3731C104.738 56.4949 105.409 56.1981 106.378 56.3531L107.993 56.6113C108.845 56.7405 109.271 56.7276 110.137 56.6113L111.906 56.3531C112.5 56.2626 112.926 56.5209 113.366 56.973C114.141 56.9213 114.618 55.9268 115.613 56.0043L117.098 56.1203L118.519 56.2496H119.733L121.025 56.1721L122.329 56.3531L123.672 56.5725L126.114 57.0761L127.198 57.0244C127.806 57.1665 128.49 57.1668 129.071 56.9988C130.389 56.6243 130.867 57.0763 131.629 56.9342C132.391 56.7921 132.972 56.8824 133.695 57.0632C134.612 56.8565 135.077 57.3217 136.278 57.3088C136.795 57.3088 137.182 57.425 137.725 57.5283C138.668 57.6962 140.024 57.58 140.967 57.6317C141.173 57.6446 141.587 57.8771 141.768 57.9417L144.286 58.7811L145.655 58.8587C146.663 58.9232 147.683 59.9824 148.38 59.8791L149.478 59.711H150.705C151.235 59.711 151.661 59.9693 152.191 60.0727L153.999 60.4473L155.407 60.7831C156.233 60.8089 156.75 60.9638 157.357 61.5708L159.579 61.6096C160.715 61.9196 161.684 62.6171 162.64 63.3016L164.357 63.728L165.662 64.2445C166.372 64.5157 167.147 64.9421 167.845 65.0713C168.116 65.1229 168.62 64.6836 168.852 64.5803C169.291 64.3995 169.898 64.8386 170.273 65.1873L171.526 65.2132L172.972 66.027L173.993 66.5177L174.173 66.8018C174.845 66.9568 175.284 67.0215 175.969 66.9698L176.821 67.4734L177.596 67.9256L179.004 69.1267L179.701 69.6561L180.386 70.173L181.458 70.9736L181.38 71.0511ZM96.7687 158.776H96.9495L98.3961 159.098L99.4294 159.266L101.044 159.434L102.8 159.499L102.955 159.46L104.286 159.434L104.402 159.615L106.107 159.499L107.153 159.525L108.768 159.434H110.563L111.738 159.641C112.332 159.757 112.797 159.615 113.391 159.693L115.148 159.925L117.021 159.951C117.899 159.964 118.726 160.067 119.63 159.886L120.999 159.602L122.872 159.46L123.75 159.486C124.254 159.499 124.925 159.628 125.39 159.525L127.767 158.982L129.239 158.763L131.861 158.582L133.553 158.362L135 158.233C135.516 158.182 135.839 158.13 136.356 158.091L138.616 157.91L141.07 157.691L142.517 157.497L144.932 157.006L146.249 156.838L148.109 156.748L149.452 156.593L152.849 155.999L154.593 155.65L156.259 155.275L157.112 155.069L160.302 154.423L162.291 154.061C162.885 153.958 163.828 153.803 164.28 153.545C164.887 153.222 165.287 153.028 165.869 152.783L167.147 152.24L168.749 151.53C169.188 151.336 169.627 151.013 170.053 150.716C170.983 150.083 171.5 150.161 171.913 149.89L172.972 149.192L173.851 148.74L174.961 148.314L175.749 147.991C176.666 147.616 176.924 147.797 177.234 147.513L177.674 147.138L178.591 146.105L179.404 145.188C180.011 144.503 180.476 145.124 181.187 144.465L181.355 144.31L181.987 143.522L182.905 142.282L183.757 141.133L184.429 140.241C184.971 139.505 185.01 138.963 185.888 138.343L185.72 138.304L186.353 137.439L186.87 136.522L187.128 135.966L187.696 134.739L189.505 131.691L189.905 130.942L190.422 129.689L190.564 129.508L191.429 127.429L191.713 126.68L192.217 125.259C192.217 125.259 192.475 125.117 192.475 125.104C192.475 125.104 192.359 124.962 192.333 124.923C192.54 124.226 192.656 123.567 192.695 122.74L191.752 122.831C191.804 122.753 192.062 122.301 192.062 122.12L192.139 120.79C192.359 120.261 192.54 119.796 192.501 119.214C192.424 118.052 193.341 117.496 192.462 117.083L192.436 116.063L192.54 115.921L192.604 115.366L192.811 113.958C193.095 113.958 192.953 113.958 192.708 113.958L192.85 113.17V112.924L192.953 112.434L192.992 112.278L193.224 111.659C193.134 111.452 193.031 111.129 193.069 110.974L193.186 110.445C192.553 109.489 192.876 108.675 192.733 108.559L192.294 108.21L192.217 107.216L192.062 106.247L191.739 104.878L191.765 104.619C191.765 104.619 191.545 104.607 191.584 104.607L191.274 103.237L191.093 102.527L190.744 101.52C190.615 101.145 190.628 100.641 190.77 100.318L189.647 98.5361L189.401 97.9808L188.73 96.5987L188.381 96.0305L187.774 95.0101L187.386 94.3902L187.051 93.7444L186.379 92.3752C185.979 91.5615 185.862 90.7349 185.049 90.115C184.674 89.8308 184.597 89.0816 184.312 88.6941L183.163 87.1313L182.582 86.6407C182.323 86.4211 181.794 86.1756 181.626 85.9432L180.735 84.8064L179.404 83.3988C179.185 83.1663 178.991 83.0113 178.81 82.7401C178.604 82.4172 178.319 82.2621 177.971 82.0555L177.041 81.4614L175.168 80.5444L173.721 79.6142L172.029 78.6843L170.428 77.6768L168.594 76.437C168.09 76.0882 167.457 75.8429 166.85 75.8946C165.998 75.985 165.559 75.5845 164.951 75.1583C164.202 74.6417 163.105 74.4996 162.239 74.2155L159.579 73.3502L158.455 72.9627L157.551 72.4332C157.112 72.1749 156.375 72.1878 155.794 72.0457L155.006 71.8521C154.322 71.9554 153.689 71.9036 153.017 71.6582C152.423 71.9423 151.726 72.0715 151.132 71.6582C150.124 71.4128 149.039 71.0899 148.019 71.0641C147.593 71.0641 147.205 71.1673 146.843 70.9219C145.746 70.1598 145.1 70.5861 144.079 69.9661L142.594 69.9147L141.664 69.7078L140.127 69.7983C139.533 69.8371 138.952 69.6303 138.396 69.372L137.647 69.7078L135.62 69.1913C135.258 69.1009 135 69.0879 134.56 69.1008C132.83 69.1396 131.603 68.4681 130.13 68.9072L129.123 68.9331L128.335 68.4163C126.553 68.61 125.209 67.6027 124.796 67.8998L123.789 68.6357C123.569 68.7907 122.923 68.6618 122.639 68.5714C122.316 68.4681 121.993 68.5198 121.645 68.5973L120.547 68.8426L119.436 68.4292L117.731 68.5714L116.995 68.8038L115.639 68.6231L113.74 68.6487L111.854 68.8426C111.377 68.8942 111.041 69.0363 110.55 68.8426C110.343 68.7522 109.878 68.7781 109.697 68.8943L108.264 69.8242C107.553 69.4496 106.662 69.3074 105.965 69.6691L105.216 70.0695C104.273 69.7079 104.002 70.47 102.762 70.4312L101.186 70.3795L100.036 70.4441L99.791 70.9736L98.1895 71.2835C97.8536 71.3481 97.2724 71.9164 96.9366 71.9293H96.1229L95.3738 71.981L94.4309 72.0845C93.7593 72.1491 93.1135 72.4591 92.4677 72.4979C92.2094 72.4979 91.9123 72.5235 91.7832 72.6139C91.1245 73.0789 90.9436 72.4977 90.2591 72.9497C90.0266 73.1047 89.7037 73.1307 89.4454 73.092C89.0838 73.3244 88.5413 73.6859 88.128 73.8279C86.2423 74.4737 86.1519 75.4556 85.3898 74.7581L84.6536 75.1454L84.0208 75.9334C83.517 76.5663 82.135 76.14 81.6571 76.8374C81.1405 77.5736 80.5593 77.8448 79.7714 78.1032L78.6478 78.4778L76.8137 79.7306L76.5942 80.1569L75.5867 80.4798C74.3339 80.8802 74.9538 81.9005 73.7526 82.0296C72.9777 82.12 73.2748 82.6755 72.3319 83.05L71.2857 83.4634C70.8337 83.6442 70.0587 84.1607 69.7875 84.574L69.1029 85.6332L68.4055 86.8731C68.3538 86.9635 68.2247 87.196 68.1342 87.2606L67.1397 87.9581C66.8298 88.1777 66.481 88.4746 66.2615 88.7458L65.6802 89.4433L64.9311 90.4896L64.0787 91.9489L63.3167 92.117C62.49 93.5894 60.7981 94.3643 60.8497 95.953L60.1652 97.2575C60.0102 97.5674 59.8681 97.8775 59.7777 98.252C59.0027 98.252 58.6023 99.014 58.6798 99.776L58.7961 100.951C58.2666 101.055 57.8274 101.907 57.7111 102.411L57.2204 104.413L56.9491 105.265L56.82 106.13L56.665 107.745C56.6133 108.3 56.5487 108.778 56.5487 109.359V110.419C56.5487 110.716 56.665 111.271 56.7296 111.581L56.3679 112.356C56.6262 112.485 56.8587 112.989 56.6908 113.144L56.0579 113.686C55.9158 113.816 56.3421 114.306 56.4454 114.423L56.2517 115.714C56.0709 116.864 56.5617 117.69 56.2517 118.439C56.0063 119.046 56.0838 119.589 56.2129 120.157L56.3937 120.945L57.0266 122.521C57.1041 122.728 56.8974 123.322 57.0266 123.503C57.2203 123.761 57.6724 124.2 57.6724 124.484V125.556L57.7628 126.77L58.2924 128.152L58.499 129.573C58.5636 129.973 58.6023 130.709 58.8477 130.981C59.1706 131.355 59.3644 131.652 59.2869 132.143C59.1319 133.086 59.8294 133.241 60.5139 133.835L61.0564 135.54C61.2114 136.018 61.6246 136.418 61.7151 136.87C61.7926 137.271 61.87 137.594 62.0767 137.865L63.265 139.479C63.5491 139.867 63.8204 140.06 64.3112 140.332C65.0474 140.745 64.5824 141.985 65.0086 142.773C65.1249 142.98 65.7965 143.057 65.9773 143.238L67.5143 144.723L68.2892 144.943C68.9092 145.963 68.3151 146.673 68.9867 147.242C69.8521 147.978 70.317 147.061 70.9886 147.487L72.2027 148.262C72.1769 148.701 71.9315 149.231 71.7895 149.67L70.7691 152.822L70.1233 154.888L69.7229 155.095C69.555 155.185 70.0716 156.541 69.0254 157.807L68.5605 159.796C68.2247 161.268 68.8059 161.914 68.2763 162.431C67.6176 163.064 66.9202 164.368 67.0881 165.285L65.9902 165.892L66.2744 166.383C66.0806 166.499 65.7577 166.822 65.7577 167.003L65.8352 168.449C65.8611 168.876 65.7965 169.07 65.3573 169.225C64.5566 169.509 65.3703 170.439 64.4274 170.878C64.2078 170.981 63.9882 171.265 64.0528 171.446L64.5307 172.854L63.7299 173.422C63.1745 173.81 63.6395 174.029 63.4845 174.778L63.42 175.101C63.42 175.101 63.575 175.205 63.7041 175.256C64.7245 175.631 64.7116 174.094 66.5327 173.887C67.101 173.823 66.9848 173.306 67.5918 173.125C68.5347 172.854 68.1859 172.182 69.0254 171.924L69.4258 171.381L70.782 171.343C71.1178 171.343 71.6861 170.826 71.9315 170.594L72.6031 169.961C73.4426 169.173 74.1143 169.534 74.3209 168.824C74.4243 168.45 74.6439 168.114 74.9022 167.868L75.6384 167.197C76.5166 167.261 77.4078 167.094 77.9503 166.461C78.1699 166.202 78.4153 165.983 78.6994 165.828L81.1534 164.446L82.0317 163.903H82.8712C83.1037 163.89 83.5816 163.658 83.8141 163.567C84.2791 163.076 84.7828 162.741 85.4544 162.547C85.7256 162.418 86.281 162.043 86.5135 161.837L87.056 160.674L88.5284 159.693L89.0838 159.408L90.5303 158.595L91.4345 158.027L92.4936 158.414L93.1394 158.595L94.0434 158.685L95.8517 158.75L96.7687 158.776ZM180.554 70.7024L180.476 70.78L180.554 70.8575L180.631 70.78L180.554 70.7024ZM50.6203 170.736L50.5429 170.813L50.6203 170.891L50.6978 170.813L50.6203 170.736ZM49.3934 175.954L49.3158 176.031L49.3934 176.109L49.4709 176.031L49.3934 175.954ZM47.4043 188.818L47.301 188.895L47.4043 188.973L47.4818 188.895L47.4043 188.818Z" fill="black"/>
<path d="M205.766 114.836L205.791 114.655C205.972 114.746 205.882 114.745 205.766 114.836Z" fill="black"/>
<path d="M46.2289 185.589C46.1514 185.654 46.2289 185.512 46.3064 185.46L46.2289 185.589Z" fill="black"/>
<path d="M205.714 120.971L205.83 120.842C205.83 120.842 205.817 120.855 205.714 120.971Z" fill="black"/>
<path d="M44.2787 124.303C44.2787 124.303 44.227 124.226 44.2528 124.174L44.2787 124.303Z" fill="black"/>
<path d="M43.9426 106.247C43.8651 106.273 43.9167 106.118 44.0072 106.105L43.9426 106.247Z" fill="black"/>
<path d="M185.952 138.395C185.694 138.33 185.629 138.304 185.784 138.356L185.952 138.395Z" fill="black"/>
<path d="M53.7847 160.338C53.7072 160.338 53.733 160.248 53.8234 160.171L53.7847 160.338Z" fill="black"/>
<path d="M96.9626 158.789C96.9626 158.789 96.9367 158.789 96.7817 158.789C96.9109 158.659 96.9367 158.621 96.9626 158.789Z" fill="black"/>
<path d="M51.9116 191.982L52.0925 192.008C52.1312 192.176 52.0279 192.086 51.9116 191.982Z" fill="black"/>
<path d="M122.239 108.765L123.285 108.727L123.97 108.701L124.861 108.637H125.765L126.901 108.598L128.438 108.546L129.394 108.404V109.812L129.291 110.574C129.201 111.31 129.885 111.749 129.523 112.744L129.188 113.247C129.265 113.622 129.252 114.164 129.226 114.526L129.149 115.43C129.084 116.166 129.252 116.864 129.394 117.561L128.903 117.871L129.188 119.266L129.304 120.454C129.317 120.596 128.865 120.868 128.839 120.997L128.503 122.495L125.907 122.456L125.029 122.366L121.516 122.211H120.276L118.287 122.056L116.672 121.888L116.026 121.048V119.989C116.065 118.724 116.646 118.065 116.53 117.548L116.311 116.58C116.207 116.166 116.13 115.921 116.181 115.508L116.323 114.229L116.298 112.95C116.298 112.769 116.517 112.395 116.556 112.214L116.956 110.432L117.047 109.631V109.256C117.06 109.166 117.202 109.114 117.292 109.063L117.215 108.985L117.279 108.869L117.434 108.934L117.538 108.972L117.641 108.882L117.977 109.011C118.287 108.933 118.739 108.882 119.126 108.882H120.366C120.547 108.882 120.792 108.856 120.973 108.804L121.399 108.908L122.123 108.74L122.226 108.765H122.239ZM118.648 108.985L118.571 109.088L118.648 109.166L118.726 109.088L118.648 108.985Z" fill="black"/>
<path d="M156.414 108.83C156.504 108.908 156.517 108.907 156.569 108.791L158.119 108.662L159.475 108.688C159.604 108.649 160.017 108.597 160.082 108.714L160.792 109.979C160.934 110.225 160.883 110.806 160.896 111.129L161.412 111.478L160.766 111.775L160.999 112.898C161.038 113.105 160.857 113.35 160.611 113.57C160.198 113.945 160.792 114.939 160.469 115.973L160.069 117.264L159.772 118.349C159.63 118.866 159.475 119.227 159.578 119.77L159.862 121.178L159.901 121.591C159.901 121.681 159.604 121.707 159.514 121.707L158.39 121.823L156.866 122.03L154.593 122.366L153.637 122.456L151.79 122.624L149.375 122.844L148.561 122.921L147.528 123.05C147.618 122.43 147.399 122.12 146.817 121.927L146.766 120.39C146.766 120.273 147.037 120.015 147.153 119.925C147.683 119.486 147.024 118.943 147.308 118.323L147.747 117.38L147.967 116.489C148.07 116.192 148.199 115.779 148.199 115.494V114.229C148.199 113.648 148.161 113.183 148.316 112.64L148.574 111.762L148.522 111.129C149.349 110.664 148.69 109.915 148.845 109.786L149.142 109.54L149.452 108.908H150.912L151.738 108.985L151.816 108.895H152.345L153.947 108.921H154.825L155.264 108.752L155.536 108.908C155.536 108.908 155.703 108.778 155.755 108.778L156.401 108.83H156.414ZM151.906 108.985L151.829 109.101H152.319L151.906 108.985Z" fill="black"/>
<path d="M88.903 107.9L89.058 107.939H89.5359L90.9824 107.745L92.0803 107.706L92.9844 107.668C93.4752 107.655 93.9273 107.693 94.3922 107.797L95.038 107.939L97.1175 108.171L97.5953 108.249C97.6987 108.262 97.6987 108.559 97.7245 108.675L97.9828 109.812L98.3832 111.232C98.4349 111.413 98.7707 111.801 98.8869 111.943C98.6932 112.278 98.4866 112.834 98.4736 113.234V114.771L98.6415 116.347L98.3832 117.587L98.1636 119.899C98.0991 120.661 96.9625 120.751 96.8721 121.862C96.6654 121.978 96.1617 121.978 95.8388 121.991L94.3147 122.03L92.9456 122.056L91.3957 122.017L89.7038 121.927H88.593L87.5985 121.991C87.1077 122.017 86.746 121.823 86.5394 121.307C86.3844 120.919 86.3586 120.377 86.4619 119.989L86.1777 119.227C86.0615 118.93 85.9711 118.207 86.1002 117.923C86.9268 116.115 87.3273 114.448 86.1519 112.911L86.1132 111.555C86.1132 111.375 86.1648 111.064 86.2165 110.793L85.9194 110.096L86.6427 108.649C86.746 108.43 86.9914 107.965 87.2627 107.965H88.0376L88.8513 107.9H88.903Z" fill="black"/>
<path d="M89.0583 107.952L88.9033 107.913C88.9033 107.913 88.955 107.913 89.0583 107.952Z" fill="black"/>
</g>
<defs>
<clipPath id="clip0_137_2710">
<rect width="250" height="250" fill="white"/>
</clipPath>
</defs>
</svg>
