<svg height="100" viewBox="0 0 100 100" width="100" fill="none" stroke="#000" stroke-width="2.5" stroke-linejoin="round" stroke-linecap="round" xmlns="http://www.w3.org/2000/svg"><path d="m38.2 54.762c-5.461-.5-10.495-.722-15.447-1.484-3.938-.606-5.138-2.256-5.546-6.2-.177-1.711-.2-3.441-.223-5.163-.053-3.44-.075-6.881-.086-10.322-.018-5.221 1.836-7.909 6.871-8.461a120.845 120.845 0 0 1 31.3.218c3.936.593 5.14 2 5.533 5.923.266 2.654.187 5.342.258 8.015.013.49 0 .981 0 1.5 4.292.326 8.42.573 12.533.969 4.563.44 7.466 3.626 7.573 8.29.133 5.868.191 11.738.238 17.608.022 2.708-1.133 4.4-3.874 4.547a119.406 119.406 0 0 1 -12.387-.211c-4.777-.24-9.546-.65-14.315-1.024-1.176-.092-1.732.465-2.425 1.379a71.757 71.757 0 0 1 -5.715 6.654c-1.392 1.435-3.2.813-3.467-1.28-.546-4.231-.931-8.493-1.122-12.754-.117-2.6.26-5.22.389-7.832.012-.287-.143-.582-.088-.372zm4.23 18.038c1.114-1.595 2.323-3.132 3.312-4.8a3.707 3.707 0 0 1 3.667-2.2c4.45.273 8.906.46 13.356.738 4.255.265 8.5.738 12.759.853 2.458.067 2.768-.62 2.677-3.049-.194-5.139-.341-10.281-.409-15.422-.048-3.541-1.754-5.788-5.243-5.965-6.613-.335-13.241-.631-19.856-.532-2.858.043-5.728 1-8.538 1.749-1.592.423-2.107 1.761-2.169 3.422-.121 3.244-.454 6.479-.667 9.72-.337 5.097-.497 10.186 1.111 15.486zm-2.661-47.442c-5.334.334-10.372.5-15.373 1.017-3.311.341-4.16 1.435-4.183 4.8-.035 5.031.057 10.065.209 15.094.085 2.809.59 3.546 3.431 3.911a102.742 102.742 0 0 0 11.787.8c3.273.04 3.063.258 3.094-3.186.019-2.175.252-4.372 2.3-5.555a18.691 18.691 0 0 1 5.766-2.363 74.67 74.67 0 0 1 9.5-.844c1.145-.06 1.639-.4 1.587-1.552-.115-2.541-.241-5.084-.286-7.627a3.134 3.134 0 0 0 -3.252-3.453c-4.949-.37-9.901-.71-14.58-1.042zm22.264 35.1c3.115-.17 6.24-.26 9.341-.577.66-.067 1.236-.962 1.85-1.476a9.292 9.292 0 0 0 -1.919-1.365 5.451 5.451 0 0 0 -1.893.01c-3.371.032-6.742.115-10.111.072-3.5-.046-7.005-.247-10.508-.314-1.095-.021-2.1.361-2.041 1.724.06 1.294 1.081 1.425 2.086 1.427q6.592.015 13.186 0zm-5.143-7.966c4.581.236 9.164.445 13.742.729 1.132.07 2.193.076 2.246-1.321.05-1.289-.929-1.64-2.081-1.694-2.8-.133-5.6-.38-8.4-.459-4-.112-8.012-.166-12.017-.13-1.154.01-2.49.388-2.206 1.975.251 1.408 1.461 1.29 2.609 1.181 2.028-.192 4.065-.281 6.1-.413zm-18.55-18.449c-3.826 0-7.653-.022-11.479.013-1.181.01-2.525.185-2.468 1.74.058 1.582 1.4 1.546 2.592 1.508 3.952-.126 7.9-.289 11.856-.367 3.825-.075 7.653-.014 11.475-.142.547-.018 1.479-.741 1.5-1.176a2.411 2.411 0 0 0 -1.1-1.7 3.766 3.766 0 0 0 -1.865-.166c-3.505-.011-7.011 0-10.516 0zm-7.131 9.48a35.061 35.061 0 0 0 4.564-.344c.543-.106.935-.987 1.4-1.514-.54-.445-1.071-1.26-1.621-1.273a67.03 67.03 0 0 0 -7.827.239c-.546.05-1.007 1.031-1.507 1.583.582.459 1.116 1.2 1.757 1.312a14.55 14.55 0 0 0 3.229-.139z"/></svg>