<?xml version="1.0" standalone="no"?>
<!DOCTYPE svg PUBLIC "-//W3C//DTD SVG 20010904//EN"
 "http://www.w3.org/TR/2001/REC-SVG-20010904/DTD/svg10.dtd">
<svg version="1.0" xmlns="http://www.w3.org/2000/svg"
 width="500.000000pt" height="500.000000pt" viewBox="61 54 377 390"
 preserveAspectRatio="xMidYMid meet">
<metadata>
Created by potrace 1.16, written by Peter Selinger 2001-2019
</metadata>
<g transform="translate(0.000000,500.000000) scale(0.100000,-0.100000)"
fill="#000000" stroke="none">
<path d="M2366 4371 c-4 -6 -17 -11 -30 -11 -12 0 -27 -5 -33 -11 -8 -8 -17
-8 -33 1 -16 8 -29 9 -48 1 -15 -5 -44 -13 -65 -17 -20 -3 -40 -10 -43 -15 -3
-5 -17 -9 -32 -9 -15 0 -35 -7 -45 -15 -11 -7 -25 -11 -33 -8 -8 3 -21 0 -29
-7 -8 -6 -20 -10 -27 -7 -7 2 -25 -5 -41 -15 -15 -11 -38 -21 -52 -22 -14 -2
-31 -8 -37 -14 -7 -7 -22 -12 -35 -12 -13 0 -31 -4 -41 -9 -51 -28 -125 -61
-138 -61 -8 0 -14 -4 -14 -10 0 -5 -7 -10 -16 -10 -17 0 -107 -50 -112 -62 -2
-4 -12 -8 -22 -8 -10 0 -40 -20 -66 -45 -27 -25 -52 -45 -56 -45 -14 0 -158
-135 -158 -149 0 -5 -18 -25 -40 -45 -22 -20 -40 -39 -40 -43 0 -3 -7 -13 -15
-22 -44 -48 -52 -60 -64 -88 -7 -17 -19 -34 -26 -36 -7 -3 -16 -18 -20 -34 -3
-15 -10 -30 -14 -33 -14 -9 -61 -89 -61 -104 0 -8 -7 -16 -15 -20 -8 -3 -12
-12 -9 -21 4 -8 -1 -17 -10 -21 -9 -3 -13 -10 -10 -15 3 -5 0 -9 -6 -9 -6 0
-9 -4 -6 -9 9 -14 -4 -41 -19 -41 -7 0 -13 -12 -14 -27 -1 -56 -3 -65 -26
-128 -12 -35 -20 -66 -17 -69 3 -3 0 -6 -7 -6 -8 0 -11 -7 -7 -15 3 -8 1 -28
-5 -43 -6 -15 -12 -42 -14 -60 -1 -18 -7 -38 -13 -44 -7 -7 -7 -16 0 -28 7
-11 8 -23 1 -35 -7 -12 -7 -27 1 -47 8 -23 8 -31 -3 -38 -11 -6 -12 -12 -4
-22 10 -13 21 -86 29 -201 2 -33 9 -68 15 -78 5 -11 7 -24 4 -29 -3 -6 -1 -10
6 -10 6 0 9 -8 6 -20 -5 -19 5 -60 26 -107 5 -11 6 -26 3 -32 -4 -6 -3 -11 2
-11 5 0 17 -19 27 -42 9 -24 21 -51 26 -60 5 -10 11 -33 14 -52 2 -19 13 -44
24 -55 12 -12 21 -28 21 -36 0 -8 7 -15 15 -15 9 0 15 -9 15 -25 0 -14 4 -25
8 -25 5 0 15 -12 23 -28 8 -15 26 -40 42 -57 15 -16 30 -40 33 -52 4 -13 9
-23 13 -23 3 0 12 -13 19 -30 8 -18 21 -30 33 -30 11 0 19 -7 19 -17 0 -9 20
-36 45 -60 25 -23 45 -47 45 -53 0 -5 4 -10 9 -10 4 0 20 -11 35 -25 15 -14
31 -25 37 -25 5 0 9 -9 9 -19 0 -13 15 -27 45 -42 25 -12 45 -25 45 -29 0 -3
13 -14 30 -23 l29 -18 -4 -104 c-2 -57 -6 -109 -10 -114 -3 -6 -8 -36 -11 -68
-10 -118 -12 -132 -18 -142 -4 -5 -1 -13 5 -17 6 -3 9 -19 5 -35 -3 -16 -1
-40 4 -53 5 -13 6 -27 2 -30 -13 -13 -11 -44 3 -50 8 -3 15 -15 15 -26 0 -11
6 -20 14 -20 7 0 16 -9 19 -21 3 -12 10 -18 17 -14 17 11 60 -4 60 -20 0 -8 7
-15 15 -15 8 0 15 4 15 10 0 5 11 12 25 16 14 3 25 10 25 15 0 5 12 9 26 9 14
0 41 12 59 26 19 14 36 24 39 22 3 -2 15 5 26 15 11 9 29 17 40 17 11 0 19 3
18 7 -3 15 14 43 27 43 7 0 16 7 19 16 3 8 10 12 16 9 5 -3 14 5 20 19 5 14
17 26 25 26 14 0 53 35 186 165 35 34 38 35 80 26 23 -5 46 -8 49 -6 3 2 39 6
80 10 40 3 77 8 81 11 4 2 11 0 14 -6 5 -8 11 -8 20 0 10 8 15 8 20 0 5 -7 11
-8 19 -1 6 6 30 8 53 6 22 -2 76 4 119 15 44 10 80 15 82 9 2 -5 13 -4 25 3
12 6 38 13 57 15 19 2 39 8 45 14 5 5 17 9 27 9 10 0 18 5 18 11 0 6 7 9 15 5
8 -3 30 1 50 10 19 8 35 12 35 9 0 -4 12 0 28 8 55 29 78 37 107 39 17 1 40
10 52 21 13 12 30 17 42 14 11 -3 28 1 38 9 10 7 26 14 36 14 11 0 31 8 45 19
44 31 119 71 124 66 3 -3 13 4 23 15 10 11 24 20 32 20 12 0 52 19 63 30 3 3
23 18 46 33 23 15 46 39 53 53 7 16 17 24 26 20 8 -3 19 2 24 11 5 9 24 24 42
32 19 9 35 25 37 36 4 23 48 65 68 65 7 0 16 9 19 20 3 11 11 20 16 20 5 0 9
7 9 15 0 8 6 15 14 15 8 0 17 8 20 18 3 9 17 29 30 43 27 29 80 121 91 158 4
14 18 36 31 49 12 14 26 37 29 51 4 14 11 28 16 32 6 3 11 17 13 30 3 30 22
75 34 83 5 3 10 17 10 32 0 14 5 30 12 34 7 4 10 15 7 23 -3 8 0 23 8 34 7 10
11 29 9 43 -3 14 0 48 6 75 19 86 14 295 -9 372 -6 20 -6 35 0 38 5 4 5 13 -1
23 -8 15 -21 68 -49 207 -12 57 -31 106 -53 134 -10 13 -18 30 -18 37 0 8 -4
14 -10 14 -5 0 -7 7 -4 15 4 8 1 15 -5 15 -6 0 -11 9 -11 19 0 11 -7 26 -15
35 -8 8 -15 20 -15 26 0 6 -7 13 -15 16 -8 3 -19 23 -25 44 -6 21 -17 41 -25
44 -8 3 -15 14 -15 25 0 10 -6 21 -14 24 -8 3 -25 24 -38 46 -13 23 -29 41
-35 41 -8 0 -11 9 -10 22 4 21 -34 68 -54 68 -5 0 -9 8 -9 18 0 23 -65 85
-111 106 -20 10 -44 25 -53 34 -8 9 -27 29 -41 45 -14 15 -32 27 -39 27 -8 0
-16 8 -18 18 -3 9 -31 31 -63 47 -31 17 -66 34 -76 40 -10 5 -20 17 -22 26 -3
9 -19 20 -36 24 -17 4 -31 11 -31 16 0 5 -12 12 -27 15 -16 4 -47 17 -71 30
-23 13 -49 24 -57 24 -8 0 -15 5 -15 10 0 6 -6 10 -14 10 -8 0 -27 5 -43 11
-15 6 -40 13 -56 14 -15 2 -33 7 -40 12 -14 11 -67 27 -81 24 -4 -1 -14 4 -22
10 -8 6 -14 8 -14 4 0 -4 -6 -2 -14 4 -7 6 -30 12 -50 13 -20 1 -36 4 -36 7 0
3 -28 7 -63 8 -96 2 -221 17 -274 32 -20 6 -35 6 -38 0 -8 -12 -49 -11 -62 2
-8 8 -13 8 -17 0z m289 -325 c55 -3 127 -12 159 -21 33 -9 76 -18 95 -21 20
-3 41 -10 47 -15 6 -5 14 -6 17 -3 4 4 17 0 29 -8 13 -8 42 -20 66 -26 23 -7
42 -17 42 -22 0 -6 8 -10 18 -10 11 0 27 -9 37 -20 10 -11 23 -19 29 -18 15 2
66 -23 66 -34 0 -4 7 -8 15 -8 8 0 15 -7 15 -16 0 -10 6 -14 14 -11 8 3 22 -3
31 -13 10 -11 22 -17 26 -14 5 3 9 0 9 -6 0 -6 11 -15 25 -20 14 -5 25 -14 25
-20 0 -6 4 -9 9 -5 6 3 22 -10 38 -30 15 -19 33 -35 38 -35 25 0 183 -172 214
-233 13 -26 30 -52 38 -58 7 -6 13 -17 13 -25 0 -7 6 -17 13 -21 8 -4 27 -35
42 -68 16 -33 33 -62 37 -63 5 -2 6 -8 3 -12 -3 -5 3 -24 14 -43 19 -33 37
-95 33 -111 -2 -4 7 -24 18 -43 12 -20 24 -54 27 -76 3 -23 11 -58 19 -78 10
-29 10 -39 1 -42 -9 -3 -9 -8 -1 -18 24 -30 2 -375 -25 -402 -6 -6 -11 -20
-11 -32 0 -12 -4 -25 -9 -31 -7 -7 -29 -64 -36 -94 -1 -3 -7 -18 -13 -33 -7
-16 -12 -30 -12 -32 0 -11 -135 -197 -158 -218 -8 -7 -28 -27 -45 -44 -18 -18
-38 -33 -44 -33 -7 0 -13 -6 -13 -13 0 -8 -8 -18 -19 -23 -18 -9 -69 -50 -134
-106 -17 -16 -35 -28 -41 -28 -6 0 -28 -11 -49 -25 -20 -14 -37 -23 -37 -20 0
4 -12 -3 -26 -14 -15 -12 -31 -21 -37 -21 -6 0 -25 -11 -43 -25 -18 -14 -39
-25 -46 -25 -7 -1 -31 -9 -53 -20 -22 -11 -48 -19 -57 -20 -9 0 -20 -5 -23
-10 -3 -6 -17 -10 -30 -10 -13 0 -26 -4 -29 -9 -3 -4 -20 -12 -38 -16 -18 -4
-40 -9 -48 -12 -8 -2 -28 -6 -45 -8 -58 -9 -90 -17 -103 -28 -7 -6 -25 -12
-40 -13 -15 -2 -65 -8 -112 -13 -139 -17 -268 -22 -275 -11 -4 7 -12 7 -25 0
-13 -7 -21 -7 -25 0 -4 7 -11 8 -18 1 -8 -6 -25 -5 -50 4 -21 7 -40 9 -43 4
-3 -5 -11 -9 -17 -7 -48 9 -158 -49 -172 -91 -7 -20 -50 -68 -95 -105 -19 -16
-66 -58 -105 -94 -76 -72 -86 -70 -67 12 5 22 8 68 7 101 -1 33 2 65 6 71 7 9
5 147 -3 199 -2 10 -11 27 -20 37 -10 10 -20 29 -24 43 -4 15 -13 25 -24 25
-10 0 -55 36 -101 80 -45 44 -86 80 -91 80 -12 0 -128 119 -128 131 0 5 -7 9
-15 9 -8 0 -15 4 -15 10 0 5 -12 24 -27 42 -37 44 -48 61 -83 138 -17 36 -47
98 -68 139 -20 41 -36 79 -34 84 1 5 -2 15 -7 21 -6 7 -15 41 -20 77 -5 35
-17 83 -26 106 -9 24 -15 50 -12 58 4 8 2 17 -3 20 -5 3 -7 45 -4 93 3 48 6
114 8 147 6 104 19 195 28 195 5 0 8 6 7 13 -4 21 12 80 36 127 12 25 32 68
45 95 13 28 31 59 40 70 10 11 23 38 30 60 7 22 18 45 24 51 6 7 26 31 45 53
19 23 39 41 46 41 7 0 18 14 26 31 14 35 41 65 96 105 21 16 55 42 75 59 68
56 96 75 108 75 7 0 23 11 36 26 13 14 24 22 24 19 0 -3 10 1 22 9 12 9 34 16
49 16 15 0 32 7 39 15 7 8 19 15 27 15 8 0 20 6 27 13 8 7 33 19 57 26 24 7
66 22 93 32 27 11 80 22 118 26 37 3 68 10 68 16 0 5 11 6 26 3 14 -4 31 -2
38 3 6 6 66 12 132 14 66 2 129 9 139 15 11 6 22 9 25 7 3 -2 51 -6 105 -9z"/>
<path d="M3350 2970 c0 -7 -7 -10 -15 -6 -8 3 -15 1 -15 -5 0 -6 -7 -9 -15 -6
-8 4 -17 2 -20 -3 -4 -6 -13 -10 -21 -10 -9 0 -30 -11 -48 -25 -18 -14 -38
-25 -44 -25 -6 0 -9 -7 -6 -15 4 -8 2 -15 -3 -15 -8 0 -35 -43 -37 -60 -1 -3
-11 -21 -24 -41 -27 -44 -23 -75 21 -167 16 -35 27 -65 24 -69 -9 -9 49 -53
70 -53 10 0 23 -4 29 -10 5 -5 27 -12 49 -16 22 -3 45 -10 51 -15 12 -10 104
19 104 33 0 4 6 8 14 8 8 0 16 6 19 14 3 8 16 16 28 18 16 2 26 15 36 43 7 21
17 42 21 45 20 15 33 52 22 65 -7 8 -7 16 -1 19 11 7 12 74 1 81 -5 3 -11 24
-15 48 -8 44 -27 81 -38 71 -3 -4 -9 5 -12 19 -5 18 -16 28 -36 32 -16 4 -29
13 -29 21 0 9 -5 12 -11 8 -22 -13 -79 -12 -79 2 0 7 -4 16 -10 19 -5 3 -10 1
-10 -5z"/>
<path d="M1660 2958 c0 -5 -4 -6 -10 -3 -5 3 -10 2 -10 -2 0 -5 -9 -9 -20 -10
-11 -1 -25 -6 -32 -12 -7 -6 -28 -22 -45 -37 -18 -14 -33 -31 -33 -37 0 -6 -9
-21 -21 -33 -11 -12 -21 -36 -21 -53 -1 -18 -7 -35 -14 -39 -18 -10 -20 -73
-4 -112 33 -82 81 -137 144 -169 43 -22 146 -36 146 -20 0 5 9 9 19 9 10 0 21
7 25 15 3 8 13 15 23 15 10 0 29 12 42 25 13 14 27 25 32 25 5 0 9 9 9 20 0
14 5 18 17 13 12 -5 15 -2 10 10 -4 10 0 20 10 25 11 7 14 19 11 41 -2 17 -1
31 4 31 5 0 6 5 3 10 -4 6 -2 17 4 24 8 10 8 21 0 42 -6 16 -13 43 -16 59 -2
17 -13 36 -24 44 -10 7 -19 20 -19 28 0 22 -22 40 -42 35 -10 -2 -18 1 -18 7
0 6 -9 11 -20 11 -11 0 -20 5 -20 10 0 6 -12 15 -27 22 -36 14 -103 18 -103 6z"/>
<path d="M2485 2940 c-3 -5 -17 -10 -31 -10 -14 0 -32 -7 -40 -15 -9 -8 -24
-15 -35 -15 -10 0 -19 -6 -19 -13 0 -7 -8 -20 -17 -29 -28 -26 -43 -46 -43
-58 0 -5 -4 -10 -9 -10 -9 0 -27 -103 -23 -130 2 -8 3 -34 4 -58 1 -31 6 -47
19 -55 11 -7 19 -17 19 -24 0 -7 4 -13 10 -13 5 0 7 -7 4 -15 -4 -9 1 -18 12
-22 11 -3 23 -12 27 -20 4 -7 13 -13 19 -13 6 0 19 -7 29 -16 13 -12 22 -13
37 -5 11 6 23 6 28 1 14 -13 80 -16 96 -3 7 7 35 21 61 32 26 11 50 27 53 36
4 8 12 15 20 15 8 0 14 9 14 21 0 11 7 27 15 36 8 8 13 19 10 24 -4 5 1 9 9 9
12 0 14 5 7 23 -6 14 -5 30 1 41 5 10 7 20 4 23 -3 3 -1 14 5 25 12 23 -21
105 -47 115 -8 3 -13 12 -10 20 4 9 -6 19 -29 29 -19 8 -35 20 -35 28 0 15
-47 39 -60 31 -5 -3 -11 -1 -15 5 -3 5 -17 7 -30 4 -12 -3 -26 -1 -29 5 -9 14
-23 14 -31 1z"/>
</g>
</svg>
