<svg width="250" height="250" viewBox="0 0 250 250" fill="none" xmlns="http://www.w3.org/2000/svg">
<g clip-path="url(#clip0_137_2509)">
<path d="M49.0635 132.346L49 132.41L49.0636 132.473L49.1271 132.41L49.0635 132.346Z" fill="black"/>
<path d="M200.188 82.9615L200.218 81.2415V79.6015L200.118 78.7715L199.978 77.7615V76.7015L199.988 75.8915L199.848 75.1716C199.908 74.6516 199.998 73.9815 199.758 73.4915L199.318 72.5915L199.348 72.3715C199.348 72.3715 199.238 72.3415 199.208 72.3415C199.188 72.2315 199.098 71.9116 199.038 71.7916L198.488 70.7515C198.328 70.1915 198.098 69.7415 197.728 69.3515L197.528 68.9715L197.368 68.6115L197.148 67.9116L196.958 67.3515L196.568 66.4515C196.488 66.2715 196.178 66.0015 196.058 65.8615L195.838 65.4915C195.708 65.5315 195.768 65.4215 195.768 65.3815L195.338 64.7615V64.6215L195.358 64.4815C195.358 64.4315 195.388 64.3915 195.358 64.4015L195.118 64.4715C195.158 64.2915 195.118 63.9215 194.988 63.7415L194.668 63.2615C194.558 63.1015 194.368 62.7915 194.218 62.7015L193.238 62.0915C193.168 62.0415 193.018 61.9015 192.958 61.8415L192.488 61.2816C192.188 61.2316 192.178 61.1915 192.488 61.1515L192.028 60.7415L191.858 60.6115L191.358 60.0915C191.188 59.9115 190.808 59.7115 190.548 59.5815C190.228 59.0815 189.748 58.4415 189.108 58.3615C188.488 58.2815 188.018 58.1616 187.518 57.7816C187.258 57.5916 186.808 57.4415 186.488 57.3415C185.758 56.6815 184.968 56.3015 183.968 56.2515C183.508 56.2315 183.058 55.9716 182.628 55.7816L181.718 55.3515C181.288 55.4115 180.958 55.3715 180.588 55.2115L179.328 54.6515L177.848 54.1115L176.958 53.7816L175.768 53.5015C175.348 53.4015 175.088 53.3215 174.728 53.0015L173.658 53.2015L172.668 53.5115C172.098 53.6915 171.828 53.0515 171.148 53.2715C169.878 53.6815 169.568 52.5315 168.868 53.2315L168.398 53.5316C168.258 53.8416 167.888 54.0615 167.518 53.9915L165.588 53.6215L165.158 53.3715C164.558 53.6015 164.088 53.4516 163.508 53.2916C162.718 53.0716 161.878 53.5615 161.348 54.1415L160.548 54.2415C160.158 54.2915 159.648 54.6115 159.298 54.7315L158.248 55.1015C157.588 55.3315 156.778 55.2016 155.728 55.5516C155.348 55.6816 155.158 55.8915 154.698 55.7115L153.938 56.2415C153.718 56.4015 153.328 56.6415 153.098 56.6215C152.088 56.5415 151.828 56.9015 151.248 56.7515L150.768 57.1315C150.258 57.5415 149.548 58.6415 148.588 58.7415C147.638 58.8415 147.188 59.2315 146.568 59.7215L145.798 60.3215C145.488 60.5615 144.998 60.8415 144.788 61.1315L144.008 62.2015L143.628 62.7215L143.128 63.3415L142.538 64.2115L142.058 64.6315C141.648 65.0015 141.238 65.4615 140.868 65.9015L140.128 66.7715L140.298 66.9915L139.518 67.8815L138.338 69.0715L138.248 69.1616C137.998 69.4616 137.528 69.9015 137.358 70.2615L137.018 71.1616L136.958 71.2615C136.648 71.5615 136.498 72.0415 136.528 72.4715L136.418 72.3615C136.418 72.3615 136.408 72.4415 136.398 72.4715L136.458 72.5715L136.288 72.7916C136.338 73.6516 135.818 74.0116 136.158 74.4316L135.948 74.9016C135.888 75.0316 135.948 75.3215 136.018 75.4515C135.458 76.0515 135.788 76.1715 135.688 76.7515C135.578 77.3815 135.598 78.0216 135.648 78.6816L135.728 79.7215L135.808 80.6915L135.878 81.3116L135.998 82.0015L136.208 82.8515L136.238 83.2315L136.348 83.9815L136.548 85.6315L136.608 86.2215V87.0616L136.538 87.8515C136.538 88.3615 136.508 88.8116 136.288 89.3116C136.218 89.4616 136.298 89.8215 136.338 90.0015L136.428 90.3915C136.498 90.4715 136.728 90.7415 136.758 90.8615L136.928 91.6616C137.028 91.6816 137.008 91.7016 136.928 91.7816L137.218 92.3815L137.558 93.0815L137.808 93.5915L138.178 94.8315L138.198 95.0215L138.318 95.0616L138.468 95.7415L138.508 95.8715L138.828 96.5616L139.438 96.8815L139.768 97.5915C140.118 98.3415 139.898 98.7016 140.258 99.1716L140.798 99.8715C141.128 100.302 141.348 100.711 141.808 100.951L142.228 101.172L143.358 101.812L144.958 102.841L145.828 103.412L146.528 103.971L147.708 104.852L148.208 105.372C148.508 105.682 149.058 105.681 149.488 105.841L150.718 106.302L152.638 107.022C153.098 107.192 153.668 107.582 154.118 107.642L155.118 107.782L156.228 108.022C156.538 108.092 156.758 108.452 157.188 108.482L158.048 108.542C158.048 108.542 158.098 108.602 158.128 108.732L158.898 108.672L158.998 108.612C159.218 108.612 159.628 108.612 159.828 108.682C160.148 108.782 160.338 108.821 160.628 108.841L161.028 109.122L161.608 109.701L161.348 110.721C161.258 111.071 161.348 111.352 161.618 111.632C161.778 111.792 161.858 112.322 161.718 112.492C161.668 112.562 161.488 112.712 161.458 112.772L161.158 113.471L161.418 114.902C161.448 115.092 161.068 115.352 160.998 115.492L160.648 116.341C160.698 116.481 160.868 116.751 160.998 116.941C161.228 117.261 161.328 117.602 161.458 117.982C161.688 118.652 161.568 119.322 160.938 119.682C160.898 120.052 160.818 120.402 160.668 120.782L160.948 121.542L161.238 122.331C160.608 122.701 160.618 123.602 161.098 124.272L160.798 124.882C160.638 125.192 160.648 125.592 160.768 125.982L160.568 126.701V127.552C160.578 127.742 160.858 128.092 160.978 128.252L160.568 129.482C160.448 129.842 160.398 130.182 160.478 130.552L160.708 131.581C160.728 131.751 160.708 132.151 160.688 132.331L160.538 133.382C160.508 133.582 160.498 133.852 160.408 133.932L159.978 134.272C160.198 134.912 159.668 135.321 160.138 135.961C159.878 136.361 159.878 136.702 160.098 137.182C160.388 137.792 159.888 138.652 159.978 139.422C159.438 140.002 160.078 140.241 159.738 141.451C159.668 141.711 160.038 142.191 160.108 142.461L160.318 143.262C160.448 143.752 160.428 144.172 160.338 144.662L160.108 145.982C159.988 146.682 160.568 146.892 160.148 147.352C160.058 147.612 159.988 148.041 159.968 148.321L159.938 148.992C159.938 149.092 159.978 149.392 160.068 149.482C160.358 149.772 160.438 150.491 160.028 150.821C159.878 150.941 159.828 151.362 159.868 151.532L160.078 152.402C160.148 152.702 160.078 153.271 159.968 153.581L159.688 154.382C159.448 155.072 160.448 155.122 160.048 155.772C159.728 156.292 159.878 157.001 160.268 157.471L161.078 157.392L161.678 157.352L162.988 157.232L163.918 157.211L164.848 157.162L165.508 157.081L166.218 157.102H166.898L169.208 157.052L170.058 157.022L171.088 156.982L171.228 156.812L170.968 156.252C170.688 155.642 170.938 155.021 171.208 154.471L171.538 153.792L171.358 153.682C171.298 153.982 171.208 153.941 171.138 153.721L171.238 153.201L171.188 152.362C171.188 152.272 171.018 152.002 170.968 151.912L171.238 151.032L171.528 150.081C171.558 149.871 171.488 149.362 171.398 149.162L171.088 148.432C171.278 148.362 171.558 148.232 171.598 148.102L171.718 147.672L171.488 147.012L171.618 145.961L171.708 145.282C171.738 145.052 171.968 144.811 172.288 144.591L171.868 143.711C171.408 142.751 172.488 141.952 172.008 141.612C171.388 141.162 172.308 140.612 171.918 140.142L171.458 139.571C171.328 139.011 171.458 138.362 171.888 137.982C172.178 137.722 172.278 137.332 172.018 137.042C171.918 136.932 171.788 136.781 171.768 136.691C171.708 136.401 172.278 136.162 172.268 135.362C172.108 135.142 172.008 134.902 172.098 134.792C172.178 134.702 172.338 134.541 172.298 134.471L172.118 134.182C172.048 134.062 171.918 133.762 171.918 133.622C171.918 133.482 172.108 133.312 172.298 133.112L172.008 132.642L172.198 131.872L172.588 130.302L172.908 130.132C173.148 130.002 172.188 129.382 172.198 128.892V128.112C172.288 127.402 172.298 126.722 172.198 126.002L172.308 124.802C172.318 124.662 172.578 124.422 172.718 124.302L172.548 123.152C172.468 122.592 173.058 121.832 172.828 121.032C172.578 120.152 173.498 120.252 173.478 119.662C173.278 119.392 173.048 119.022 172.968 118.792L173.388 118.201V116.912L172.858 116.382L173.538 115.512C172.878 114.642 172.868 114.102 173.568 113.242L172.938 112.742C172.718 112.572 172.638 112.362 172.648 112.052L172.678 111.302C172.698 110.782 173.168 111.021 173.688 110.451C173.288 110.001 173.148 109.802 173.038 109.412C173.978 109.232 174.738 109.161 175.538 108.841L176.418 108.492L176.988 108.321L178.248 108.152L180.078 107.711L181.148 107.422C181.728 107.112 182.178 106.901 182.838 106.701C183.438 106.521 183.648 105.902 184.618 105.922L185.238 105.341L186.748 104.362L188.338 103.591C188.588 103.471 189.058 103.322 189.228 103.162L190.328 102.122L191.048 101.642L191.928 100.622L192.588 100.191C193.108 99.7115 193.558 99.3716 194.208 99.0616L194.708 98.2916C195.008 97.8316 195.098 97.3316 195.108 96.8116L195.158 96.7115L195.698 95.5215L196.238 94.1215L196.298 94.2015L196.368 94.1415L196.288 94.0215L197.198 92.5815L197.448 92.1115C197.398 92.1815 197.448 92.1015 197.518 92.0115L197.738 91.5416L198.188 90.6015L198.348 90.2315L198.888 89.1915L199.088 88.7415C199.308 88.4115 199.648 87.8615 199.658 87.4815C199.478 87.0615 199.418 86.7215 199.758 86.3915L199.908 85.8915V85.4116L200.038 84.7315L200.298 83.3016L200.128 83.0015L200.188 82.9615Z" fill="black"/>
<path d="M195.798 65.3815L195.868 65.4915C195.868 65.4915 195.838 65.3915 195.798 65.3815Z" fill="black"/>
<path d="M145.288 146.312L144.328 146.172C144.178 146.152 143.928 146.361 143.768 146.571L142.428 146.241C142.008 146.141 141.428 146.642 141.258 146.552L140.478 146.131C140.168 145.961 139.918 146.001 139.588 145.991H138.988L138.228 146.031L137.588 146.182C137.448 146.212 137.128 146.131 136.958 146.101L136.618 146.161C136.098 145.911 135.598 145.872 135.048 146.062C134.488 146.262 134.178 145.881 133.598 145.971L132.888 146.091C132.658 146.131 132.438 146.161 132.208 146.151L130.628 146.052L130.088 145.591C129.868 145.701 129.748 145.741 129.578 145.781C129.278 145.981 128.928 146.151 128.578 145.981L128.048 145.721L127.438 145.891C127.338 145.921 127.128 146.202 127.028 146.182L126.158 146.011C125.968 145.971 125.798 145.961 125.628 145.961V157.172C125.718 157.232 125.808 157.301 125.898 157.361C126.248 157.631 126.648 157.201 126.888 156.841C127.028 156.621 127.648 156.671 128.028 156.821L128.758 157.131L129.358 157.281C129.358 157.281 129.338 157.381 129.358 157.391L129.588 157.422L130.328 157.451L131.178 157.351L133.248 156.971L133.948 156.941L134.308 157.001H134.868L135.498 156.991L136.448 157.062C136.588 157.062 136.678 157.091 136.738 157.081C137.248 157.291 137.788 157.312 138.328 157.292C138.558 157.292 138.698 157.261 138.888 157.071L139.578 156.371C139.948 156.201 140.098 157.021 140.618 156.711C141.728 156.051 142.198 156.941 142.678 156.781C143.058 156.651 143.418 156.441 143.738 156.721C143.938 156.891 144.198 157.031 144.408 156.911L144.958 156.601C145.078 156.531 145.328 156.741 145.488 156.831C145.668 156.941 145.868 156.961 146.068 156.941V146.422H146.028L145.308 146.302L145.288 146.312Z" fill="black"/>
<path d="M110.328 146.312L109.368 146.172C109.218 146.152 108.968 146.361 108.808 146.571L107.468 146.241C107.048 146.141 106.468 146.642 106.298 146.552L105.518 146.131C105.208 145.961 104.958 146.001 104.628 145.991H104.028L103.268 146.031L102.628 146.182C102.488 146.212 102.168 146.131 101.998 146.101L101.658 146.161C101.138 145.911 100.638 145.872 100.088 146.062C99.5281 146.262 99.2182 145.881 98.6382 145.971L97.9282 146.091C97.6982 146.131 97.4783 146.161 97.2383 146.151L95.6582 146.052L95.1182 145.591C94.8982 145.701 94.7782 145.741 94.6082 145.781C94.3082 145.981 93.9582 146.151 93.6082 145.981L93.0781 145.721L92.4683 145.891C92.3683 145.921 92.1581 146.202 92.0581 146.182L91.1882 146.011C90.9982 145.971 90.8282 145.961 90.6582 145.961V157.172C90.7482 157.232 90.8382 157.301 90.9282 157.361C91.2782 157.631 91.6782 157.201 91.9182 156.841C92.0582 156.621 92.6781 156.671 93.0581 156.821L93.7883 157.131L94.3882 157.281C94.3882 157.281 94.3682 157.381 94.3882 157.391L94.6182 157.422L95.3582 157.451L96.2083 157.351L98.2783 156.971L98.9783 156.941L99.3381 157.001H99.8982L100.528 156.991L101.478 157.062C101.618 157.062 101.708 157.091 101.768 157.081C102.278 157.291 102.818 157.312 103.358 157.292C103.588 157.292 103.728 157.261 103.918 157.071L104.608 156.371C104.978 156.201 105.128 157.021 105.648 156.711C106.758 156.051 107.228 156.941 107.708 156.781C108.088 156.651 108.448 156.441 108.768 156.721C108.968 156.891 109.228 157.031 109.438 156.911L109.988 156.601C110.108 156.531 110.358 156.741 110.518 156.831C110.698 156.941 110.898 156.961 111.098 156.941V146.422H111.058L110.338 146.302L110.328 146.312Z" fill="black"/>
<path d="M77.3281 146.312L76.3682 146.172C76.2182 146.152 75.9681 146.361 75.8081 146.571L74.4683 146.241C74.0483 146.141 73.4681 146.642 73.2981 146.552L72.5183 146.131C72.2083 145.961 71.9582 146.001 71.6282 145.991H71.0283L70.2683 146.031L69.6282 146.182C69.4882 146.212 69.1683 146.131 68.9983 146.101L68.6582 146.161C68.1382 145.911 67.6381 145.872 67.0881 146.062C66.5281 146.262 66.2182 145.881 65.6382 145.971L64.9282 146.091C64.6982 146.131 64.4783 146.161 64.2383 146.151L62.6582 146.052L62.1182 145.591C61.8982 145.701 61.7782 145.741 61.6082 145.781C61.3082 145.981 60.9582 146.151 60.6082 145.981L60.0781 145.721L59.4683 145.891C59.3683 145.921 59.1581 146.202 59.0581 146.182L58.1882 146.011C57.9982 145.971 57.8282 145.961 57.6582 145.961V157.172C57.7482 157.232 57.8382 157.301 57.9282 157.361C58.2782 157.631 58.6782 157.201 58.9182 156.841C59.0582 156.621 59.6781 156.671 60.0581 156.821L60.7883 157.131L61.3882 157.281C61.3882 157.281 61.3682 157.381 61.3882 157.391L61.6182 157.422L62.3582 157.451L63.2083 157.351L65.2783 156.971L65.9783 156.941L66.3381 157.001H66.8982L67.5283 156.991L68.4783 157.062C68.6183 157.062 68.7083 157.091 68.7683 157.081C69.2783 157.291 69.8182 157.312 70.3582 157.292C70.5882 157.292 70.7282 157.261 70.9182 157.071L71.6082 156.371C71.9782 156.201 72.1282 157.021 72.6482 156.711C73.7582 156.051 74.2283 156.941 74.7083 156.781C75.0883 156.651 75.4483 156.441 75.7683 156.721C75.9683 156.891 76.2282 157.031 76.4382 156.911L76.9883 156.601C77.1083 156.531 77.3583 156.741 77.5183 156.831C77.6983 156.941 77.8981 156.961 78.0981 156.941V146.422H78.0581L77.3381 146.302L77.3281 146.312Z" fill="black"/>
</g>
<defs>
<clipPath id="clip0_137_2509">
<rect width="250" height="250" fill="white"/>
</clipPath>
</defs>
</svg>
