<?xml version="1.0" standalone="no"?>
<!DOCTYPE svg PUBLIC "-//W3C//DTD SVG 20010904//EN"
 "http://www.w3.org/TR/2001/REC-SVG-20010904/DTD/svg10.dtd">
<svg version="1.0" xmlns="http://www.w3.org/2000/svg"
 width="500.000000pt" height="500.000000pt" viewBox="123 182 273 130"
 preserveAspectRatio="xMidYMid meet">
<metadata>
Created by potrace 1.16, written by Peter Selinger 2001-2019
</metadata>
<g transform="translate(0.000000,500.000000) scale(0.100000,-0.100000)"
fill="#000000" stroke="none">
<path d="M3350 3086 c-50 -14 -125 -51 -149 -73 -78 -71 -114 -115 -142 -177
-27 -59 -33 -83 -35 -160 -2 -50 1 -109 7 -131 5 -22 12 -49 14 -60 10 -45 98
-206 156 -285 72 -99 170 -200 216 -224 47 -24 85 -5 164 85 221 249 326 500
290 691 -23 126 -116 254 -222 305 -85 42 -209 54 -299 29z m251 -113 c155
-69 220 -264 154 -463 -39 -116 -142 -280 -253 -401 l-50 -54 -59 62 c-74 75
-170 207 -211 289 -119 236 -69 457 128 562 76 41 205 43 291 5z"/>
<path d="M3365 2821 c-119 -74 -139 -205 -46 -304 81 -88 229 -71 293 34 61
100 28 221 -74 275 -40 21 -136 18 -173 -5z m156 -102 c48 -51 32 -133 -30
-159 -37 -15 -71 -8 -108 24 -63 54 -16 166 70 166 31 0 45 -7 68 -31z"/>
<path d="M1327 2072 c-10 -10 -17 -25 -17 -33 0 -34 22 -39 185 -39 169 0 185
4 185 45 0 41 -16 45 -180 45 -139 0 -159 -2 -173 -18z"/>
<path d="M1999 2069 c-18 -18 -19 -23 -6 -42 13 -21 24 -22 163 -27 82 -3 159
-1 171 4 31 12 39 43 17 67 -15 17 -32 19 -171 19 -141 0 -155 -2 -174 -21z"/>
<path d="M2677 2072 c-10 -10 -17 -25 -17 -33 0 -34 22 -39 185 -39 165 0 185
4 185 40 0 9 -8 24 -18 33 -16 14 -43 17 -169 17 -133 0 -152 -2 -166 -18z"/>
</g>
</svg>
