<?xml version="1.0" standalone="no"?>
<!DOCTYPE svg PUBLIC "-//W3C//DTD SVG 20010904//EN"
 "http://www.w3.org/TR/2001/REC-SVG-20010904/DTD/svg10.dtd">
<svg version="1.0" xmlns="http://www.w3.org/2000/svg"
 width="612.000000pt" height="408.000000pt" viewBox="194 139 218 134"
 preserveAspectRatio="xMidYMid meet">
<metadata>
Created by potrace 1.16, written by Peter Selinger 2001-2019
</metadata>
<g transform="translate(0.000000,408.000000) scale(0.100000,-0.100000)"
fill="#000000" stroke="none">
<path d="M3545 2585 c-148 -52 -263 -158 -339 -312 -69 -138 -93 -218 -95
-318 -3 -116 11 -183 54 -272 71 -144 207 -223 383 -223 55 0 222 38 222 51 0
5 9 9 20 9 11 0 20 7 20 16 0 8 4 13 8 10 12 -7 104 83 122 119 8 17 22 42 32
57 28 41 58 172 65 278 11 183 -36 390 -104 456 -12 12 -19 25 -16 28 4 3 -1
6 -9 6 -9 0 -19 11 -22 24 -9 37 -112 83 -201 90 -58 4 -82 1 -140 -19z m220
-103 c54 -29 145 -166 145 -218 0 -13 4 -24 8 -24 4 0 8 -8 8 -17 1 -10 6 -47
12 -83 7 -35 8 -68 4 -72 -5 -5 -24 0 -43 9 -51 26 -114 20 -157 -14 -102 -82
-99 -239 4 -288 44 -21 104 -13 104 13 0 14 2 14 9 3 5 -7 14 -10 20 -7 39 24
-26 -90 -75 -134 -144 -126 -416 -110 -520 32 -90 122 -91 329 -3 511 67 137
144 223 246 273 82 41 181 48 238 16z"/>
<path d="M2410 2556 c-30 -7 -78 -24 -106 -38 -58 -28 -144 -96 -144 -114 0
-6 -8 -18 -18 -28 -31 -27 -69 -116 -94 -216 -32 -132 -32 -315 0 -410 25 -73
58 -131 99 -175 51 -55 126 -115 143 -115 9 0 31 -7 49 -16 25 -13 55 -15 134
-12 96 3 107 6 188 46 105 50 176 122 233 236 93 187 95 447 4 617 -56 106
-175 203 -273 222 -66 14 -163 15 -215 3z m170 -99 c93 -21 161 -69 217 -152
35 -52 78 -209 66 -242 -3 -9 -10 -9 -28 3 -113 74 -244 -12 -245 -161 0 -109
78 -168 188 -141 l33 8 -21 -42 c-46 -91 -118 -149 -223 -181 -153 -47 -287
-1 -369 126 -75 115 -88 226 -55 455 6 40 48 131 86 187 49 71 138 129 216
140 82 12 84 12 135 0z"/>
</g>
</svg>
