<svg width="250" height="250" viewBox="0 0 250 250" fill="none" xmlns="http://www.w3.org/2000/svg">
<g clip-path="url(#clip0_140_22)">
<path d="M78.6681 170.687C78.0776 171.072 77.6375 170.966 77.2247 170.545L75.7814 170.222L75.1909 170.627L73.876 169.921C72.9329 169.416 72.1401 169.675 70.9865 169.036L70.1555 168.576C69.9641 168.47 69.5978 168.281 69.4092 168.317C68.8488 168.421 68.7067 167.945 68.4388 167.792L66.7384 166.81C66.5197 166.805 66.0386 166.868 65.8281 166.947C65.2677 167.158 64.8987 166.928 64.6827 166.425L63.6658 165.804C63.4444 165.668 63.2503 165.088 63.0999 164.908L62.2716 164.342C61.9381 164.112 61.7331 163.782 61.5937 163.358C61.4242 162.833 61.0552 163.074 60.3061 162.513L59.1115 161.622C58.4199 161.105 57.9497 161.072 58.029 160.731C58.0591 160.6 58.2094 160.241 58.1329 160.168L57.5123 159.561C57.0531 159.372 56.7005 159.104 56.4517 158.691L55.7218 157.48L54.9482 156.231L54.5327 155.515L53.6989 154.933C52.7913 154.298 53.8164 153.987 53.1166 153.197L52.7941 152.65C51.892 152.188 52.1325 151.712 51.6869 151.223L51.0035 150.469C50.4705 149.884 50.8149 149.558 50.4787 148.968C50.3365 148.716 50.331 148.5 50.2928 148.208L50.1643 147.229L49.9893 146.467C49.8308 145.78 49.3797 145.644 49.7734 145.061L49.0517 143.979C48.8002 143.602 48.7182 143.402 48.6389 142.951L48.4476 141.869L48.3874 140.936L48.1851 140.526C48.125 140.406 48.2808 140.146 48.3819 140.01L48.2261 138.741C48.5788 137.517 47.1463 137.842 47.4279 136.598L47.5974 135.849C47.663 135.565 46.7472 135.346 47.0397 134.225C46.9604 133.974 46.8156 133.542 46.7882 133.288L46.6597 132.15L46.5723 131.497L46.9987 130.554C47.0397 130.464 47.0917 130.264 47.0999 130.188C47.1053 130.138 46.4356 129.594 46.7117 129.398L47.2119 129.04L47.4552 127.911L47.2529 126.987C47.1655 126.587 47.2584 126.221 47.4771 125.863L47.3268 124.679C47.283 124.327 47.2502 123.999 47.3705 123.692C47.6302 123.034 47.2611 123.072 47.5482 122.369L47.8872 121.536C47.9172 121.462 47.7395 121.21 47.7969 121.164L48.1441 120.891C48.9888 120.226 48.6252 119.562 48.7155 119.187C48.7619 118.996 48.9232 118.6 48.9095 118.386C48.8713 117.812 48.8275 117.2 48.9779 116.724L49.4563 115.221C49.6449 114.633 49.8171 114.059 49.7706 113.392C49.7351 112.875 50.1971 112.971 50.2572 112.225C50.2846 111.853 50.4213 111.659 50.7356 111.468L50.8422 110.74L51.1621 110.21L51.0445 109.395C51.5585 109.062 51.7307 108.537 51.43 108.007L51.9849 107.777L52.8952 107.312C52.8187 106.943 52.8624 106.421 53.0374 106.028L53.2752 105.033C53.6442 104.735 53.8028 104.396 53.759 103.865L54.4534 103.671L54.3796 103.078L55.1095 102.873C55.6425 101.577 56.3341 101.498 56.4435 101.323C56.8453 100.683 55.9924 99.9835 57.3866 99.2509L57.5315 98.1465C57.6928 98.029 58.0126 97.7966 58.1247 97.6298C58.2368 97.4631 58.1985 97.0667 58.1602 96.8289L59.0623 96.7578L59.1717 95.9022C60.1804 95.4046 59.8906 94.9071 60.5139 94.6119C61.0142 94.3741 60.7435 93.9722 61.3285 93.7645C61.3723 93.3845 61.5472 92.9908 62.0776 92.8596L62.0393 92.25L62.843 92.1352L63.4307 91.3998C63.6029 91.1866 63.7341 90.5633 63.8189 90.3283L64.8713 89.8553C65.2486 89.6858 65.4427 89.2621 65.2486 88.8821L65.9238 88.4174L66.5826 88.2835L66.8751 87.9062C67.5722 87.7012 68.1299 87.4278 68.3404 86.7581L68.9691 86.6488L69.1495 85.8943L69.9313 85.8533C70.2594 85.8369 70.1309 85.3721 71.2544 84.6149L71.9734 84.1283L72.1893 83.6691C72.2549 83.5297 72.6431 83.7237 72.788 83.9178L73.3839 83.762C73.4906 83.7347 73.753 83.5707 73.7257 83.4695L73.6163 83.0622C74.0127 83.0185 74.3708 82.9337 74.6797 82.756L75.8825 82.3952L76.5714 82.1956L77.4161 82.0726L77.2712 81.504L78.2034 81.4794L79.0945 81.1322C79.5866 80.7741 80.1388 80.6074 80.7484 80.796C81.358 80.9846 81.861 80.0087 82.8041 80.4024L83.7554 79.9595L84.365 79.8338C85.4968 79.1941 85.8849 79.6752 86.4891 79.5631L87.3721 79.3991L89.2856 79.503L89.5535 79.0109C89.7285 79.0929 89.9226 79.1859 89.8105 79.1312L89.682 79.5495C89.6629 79.6123 89.8897 79.5631 89.9745 79.5303C90.1494 79.462 90.5458 79.6096 90.7563 79.6178L91.9455 79.6752L93.1264 79.5549L93.9356 79.6943L95.0782 79.5686L94.9415 80.1837C95.0454 80.2356 95.4227 80.3996 95.5894 80.416L96.7047 80.5336L98.3723 80.4926C98.7058 80.5855 99.1049 80.7085 99.3673 80.714L99.7528 80.7195C99.9359 80.7222 99.627 81.3673 100.146 81.6024L101.013 81.9906C101.322 82.13 101.696 82.1328 102.057 82.1218L102.957 82.0972L103.913 82.0425L103.851 82.4089C103.815 82.6221 104.411 83.1087 105.267 83.0376L105.19 83.3438C105.133 83.5652 105.95 84.1037 106.527 83.8823C107.013 83.6964 107.227 83.7647 107.672 83.8905L108.861 84.2213L109.594 84.0983C109.638 84.7789 110.335 85.2874 111.062 85.2437C111.281 85.7138 111.669 86.4656 112.153 86.7362L112.809 87.1053L113.421 87.4825L114.391 87.5454L114.326 88.36C114.309 88.5568 114.788 88.8165 114.985 88.863L115.693 89.0325C115.63 89.2321 115.482 89.6694 115.578 89.8061C115.701 89.9838 116.212 90.0932 116.428 90.1287C116.332 90.8476 116.95 91.4873 117.576 91.6021L118.363 91.7443C118.019 92.6245 118.858 92.9444 118.823 93.0756L118.689 93.5758L119.378 94.057C119.555 94.7622 120.537 94.5271 120.529 94.7376L120.509 95.2406C120.498 95.5331 121.037 95.8803 121.327 95.8721L121.261 96.8207L121.083 97.7501C121.032 97.9661 121.349 98.3898 121.526 98.5511L122.013 98.9885C122.215 99.1689 122.363 99.6719 122.483 99.9808C122.579 100.227 122.797 100.64 122.751 100.875C122.639 101.424 122.858 101.872 123.21 102.179C123.235 102.586 123.325 103.04 123.505 103.42L123.667 104.079L124.334 104.248C123.798 105.372 124.725 105.623 124.716 106.011C124.708 106.427 124.044 106.427 124.039 106.558L124.03 106.897C124.003 107.895 124.763 108.094 124 108.876L124.093 109.486C124.011 110.013 124.115 110.44 124.151 110.976L124.255 112.457C124.271 112.69 124.511 113.19 124.413 113.403C124.214 113.829 124.238 114.248 124.501 114.57C124.837 114.989 124.793 115.511 124.224 115.817L124.602 116.853C124.678 117.061 124.432 117.438 124.249 117.678L123.899 118.493C123.94 118.851 123.916 119.089 123.798 119.371L123.41 120.295C123.577 121.15 123.09 121.615 123.249 122.337L123.085 122.736C123.303 123.318 122.931 123.414 122.83 124.22L122.688 125.36L122.538 126.317C122.51 126.489 122.494 126.902 122.423 127.044L122.065 127.76C122.426 128.43 122.417 129.184 122.253 129.862C122.204 130.067 122.27 130.458 122.3 130.729C122.382 131.459 121.625 131.754 121.72 132.254C121.816 132.755 121.668 133.118 121.291 133.433C121.023 133.657 120.884 134.02 120.734 134.365L120.444 135.026C120.348 135.245 120.261 135.734 120.25 135.98L120.195 137.098C120.181 137.35 120.113 137.883 119.916 138.039C118.921 138.821 119.574 139.411 119.192 140.477C119.17 140.854 119.118 141.232 119.025 141.587C119.123 141.83 119.372 142.336 119.025 142.626C118.719 142.885 118.24 143.222 118.074 143.517L117.696 144.176C117.609 144.332 117.259 144.556 117.073 144.649C117.019 145.225 116.904 145.843 116.655 146.39C116.628 146.956 116.507 147.451 116.1 147.902C115.799 148.194 116.352 148.962 115.605 149.285C114.859 149.608 114.528 150.143 114.293 150.873C113.41 151.693 113.82 152.407 112.91 152.904L112.306 153.765C112.185 154.323 112.035 154.651 111.532 154.944C111.24 155.113 111.13 155.468 111.035 155.835C110.963 156.1 110.488 156.433 110.255 156.644C109.886 156.975 109.528 157.226 109.023 157.349L108.544 158.074L107.831 159.151C107.716 159.326 107.473 159.738 107.281 159.796C106.94 159.894 106.294 159.99 106.073 160.198L105.529 160.701C105.302 160.911 104.884 161.362 104.608 161.463L103.49 161.882C103.252 162.344 102.951 162.573 102.459 162.83C102.008 163.063 101.743 163.883 100.346 164.364C100.223 164.52 99.9469 164.943 99.7555 164.984L98.3723 165.288C98.129 165.34 97.7135 165.711 97.492 165.845C97.2105 166.018 97 166.198 96.8332 166.433C96.4779 166.933 95.8655 166.942 95.2969 166.641L94.3183 167.628C93.1647 168.792 92.227 168.369 90.9258 169.295C90.3599 169.7 90.1248 168.954 89.4524 169.284C88.9876 169.514 88.5776 169.462 88.0937 169.569C87.681 169.659 86.9702 170.096 86.5957 170.378C86.3169 170.588 86.0708 171.069 85.6553 170.894L84.827 170.547C84.6001 170.452 84.0835 170.613 83.8839 170.802C83.1732 171.471 82.6756 170.58 82.2574 170.689L81.5603 170.873C80.527 170.181 79.7752 171.018 79.1164 170.413L78.6681 170.706V170.687ZM89.98 160.569C90.1604 160.526 90.5076 160.364 90.5923 160.239C90.677 160.113 90.5868 159.815 90.5404 159.604L91.7377 159.544C91.9154 159.536 92.3145 159.293 92.4621 159.194L93.2603 158.65C93.3014 158.623 93.438 158.448 93.3998 158.418L93.2002 158.251C93.1947 158.229 93.1373 157.956 93.1674 158.098L93.8125 157.953C94.2773 157.85 94.5698 157.702 95.07 157.798C95.3215 157.844 95.6496 157.699 95.8327 157.527L96.8797 156.535C96.9207 156.248 97.0738 156.064 97.2925 155.966L98.375 155.49L99.217 155.121L100.084 154.744C100.291 154.654 100.494 154.203 100.589 153.932L101.382 153.738L102.24 153.26C102.358 153.194 102.467 152.825 102.516 152.694L103.047 151.264L104.042 151.226L104.813 150.556L104.974 149.438L105.534 149.02L105.887 147.579L106.549 147.47L107.434 146.844L107.538 145.901L108.008 145.198C108.462 144.52 107.987 143.995 108.238 143.069C108.749 142.757 108.902 142.003 108.599 141.587L108.891 141.434C108.971 141.393 109.211 141.355 109.26 141.428L109.444 141.71L109.949 140.898C110.012 140.797 110.023 140.507 110.018 140.381C110.059 140.327 110.239 140.086 110.277 139.988L110.819 138.542L111.103 137.697L111.152 136.636C111.166 136.327 111.442 135.898 111.598 135.66C111.483 135.056 112.352 135.177 112.071 134.526C111.931 134.201 112.142 134.042 112.254 133.804L112.924 132.405L112.817 132.06L113.539 131.792L113.56 130.972L113.478 129.955L113.369 128.848L113.533 128.075L113.528 127.219C113.528 127.041 113.435 126.637 113.541 126.5C114.156 125.721 113.637 125.396 114.329 125.057C114.771 124.841 114.334 124.496 114.583 124.004C114.73 123.714 114.771 123.477 114.771 123.206V122.399C114.777 121.921 114.618 121.101 114.826 120.683C115.094 120.144 115.261 119.822 114.785 119.289L115.225 119.004L115.299 118.08C115.332 117.654 116.209 117.137 115.81 116.457C115.726 116.312 115.575 115.973 115.663 115.874L116.04 115.44L116.105 114.294L116.174 113.149C116.209 112.567 115.977 111.867 115.969 111.263L115.963 110.765L115.657 109.262C115.466 108.313 115.756 108.056 115.545 107.291L115.195 106.003C115.089 105.607 115.004 105.257 114.739 104.951C114.473 104.644 114.452 104.387 114.542 103.98C114.709 103.198 113.987 102.635 114.389 101.665C114.361 101.465 114.115 101.189 113.897 100.981L113.571 100.254L112.913 99.5079C112.68 99.2454 112.139 98.9092 112.002 98.5702C111.581 97.5232 111.119 97.3619 110.917 96.6129L110.176 96.3587C109.599 95.9896 109.378 95.4292 108.602 94.8142C108.35 94.6146 108.161 94.303 108.09 93.9394C107.951 93.2123 107.281 93.6059 106.841 92.928C106.625 92.5917 106.33 92.2664 106.024 92.1297L104.829 91.5994L104.189 91.7224L103.156 91.4299L102.027 90.3884C101.568 89.9647 100.953 90.8613 100.614 90.3201C100.174 89.6202 99.5587 89.6476 98.8971 89.5874C97.5248 89.4617 96.8332 89.0216 95.6359 88.2097L94.3757 88.7181L93.4626 88.3901C93.1674 88.2835 92.6535 88.1003 92.4539 88.2835C92.1286 88.5814 91.8826 88.6416 91.5108 88.4448C91.2074 88.2835 91.0187 88.0265 90.8575 87.7094C90.6552 87.313 90.0893 87.3048 89.6875 87.5099C89.3813 87.6657 89.1435 87.5755 88.8045 87.4743C88.4218 87.3595 87.8586 87.3513 87.3994 87.3322L85.7455 87.2556C85.4858 87.9117 84.6111 88.2616 83.8948 88.3819C83.5941 88.4311 83.0884 88.4448 82.8807 88.576L82.1098 89.1664C81.5548 88.9614 81.1339 88.9997 80.6609 89.2184L79.86 89.2403L79.2476 89.9073C78.9387 90.2408 78.608 90.7766 78.217 91.0308C77.2056 91.6896 76.1203 91.5584 75.6501 92.1243C75.2182 92.6437 74.8246 92.7913 74.1712 92.9225C73.7366 93.01 73.4304 93.5266 73.168 93.9531C73.0313 94.1745 72.5775 94.4014 72.3014 94.5681C72.0554 94.713 71.6481 95.0602 71.4075 95.1149C71.0631 95.1969 70.5382 95.2734 70.2949 95.391C70.1473 95.4593 70.0735 95.9213 70.0407 96.1291C69.9969 96.397 69.6006 96.6567 69.4475 96.8453L68.6274 97.8567C68.0424 98.5812 68.3841 98.8955 67.6761 99.2154C67.3617 99.3575 67.1567 99.5844 66.9571 99.866C66.3229 100.76 66.897 101.178 66.3749 101.7L65.0518 103.015C64.68 103.384 64.2399 103.767 63.9692 104.24L63.5811 104.915L63.1136 105.954L62.3427 107.307L62.3591 107.999C62.3646 108.206 61.7933 108.269 61.1153 109.166L60.2925 110.262L59.7239 111.197C59.4888 111.585 59.4642 112.028 59.3275 112.471L59.0159 113.466L58.86 113.876C58.8327 113.947 59.1033 114.144 59.0979 114.22C59.0787 114.464 58.7316 114.827 58.5949 115.071L58.0454 116.052L57.526 116.804C57.0668 117.471 57.7556 117.982 57.6545 118.149L57.4495 118.493C57.3702 118.627 57.3101 118.993 57.3046 119.152L57.2745 120.109C57.2527 120.762 56.7688 121.352 56.2795 121.828L56.2221 123.001C56.2002 123.452 56.818 123.723 56.408 124.092C56.192 124.283 56.1182 124.554 56.1483 124.8L56.2494 125.636C56.2767 125.858 55.9405 126.276 55.771 126.44L55.9378 126.948C55.8503 127.377 55.8503 127.659 55.9706 128.124C56.2084 129.031 55.4976 129.616 56.1319 130.261L55.7847 131.251C55.4156 131.924 55.3254 132.489 55.6425 133.197V133.72C55.8421 134.168 55.8968 134.515 55.8585 135.04C55.8339 135.362 55.9596 135.688 56.0635 136.005L56.3533 136.885C56.3998 137.027 56.2385 137.456 56.3423 137.566L56.7387 137.981L56.7333 138.979C56.7333 139.37 56.6923 139.75 56.9301 140.051C57.034 140.182 57.1679 140.431 57.0996 140.524L56.8863 140.822C57.0312 141.111 57.075 141.519 57.0176 141.885L56.9574 142.265C56.9492 142.32 57.1652 142.355 57.2171 142.366L57.6026 142.44L57.8213 143.41C58.5949 143.626 58.2422 144.214 58.8136 144.87L58.7097 146.409L60.1749 146.674C59.7621 147.374 60.0765 147.888 60.6096 148.164C60.4975 148.618 60.492 149.17 61.0251 149.422L60.9349 150.094L62.3919 150.794L62.1322 151.185L62.7883 151.972L62.7336 152.481C62.8238 152.716 63.1464 153.282 63.4034 153.344L64.4066 153.593C64.3684 153.839 64.3355 154.192 64.4449 154.337C64.7702 154.758 65.5958 154.64 65.5384 154.87L65.4399 155.258L65.604 156.073L66.5525 156.644L67.1676 157.12L67.851 157.557L68.447 157.767C68.3513 158.093 68.2392 158.514 68.3157 158.727C68.3732 158.891 68.8078 159.096 68.9308 159.216C69.1112 159.399 69.3983 159.662 69.6416 159.689C70.3578 159.777 70.7733 160.157 71.156 160.646C71.6453 160.548 72.5502 160.419 72.9302 160.755C73.2527 161.04 73.4906 161.245 73.8268 161.403L74.8765 161.898C75.508 162.196 75.7923 161.969 76.5687 162.21C76.7873 162.278 77.2685 162.439 77.4708 162.365L78.2909 162.062C79.4171 162.223 79.7889 162.762 80.2536 162.751L82.1316 162.713L82.9381 162.185C83.1048 162.076 83.4438 161.857 83.6461 161.843L84.7997 161.761L85.0129 161.365L85.9752 161.422C86.038 161.261 86.3469 160.824 86.5547 160.818L87.886 160.783C88.0965 160.777 88.5557 160.933 88.7772 160.878L89.98 160.583V160.569Z" fill="black"/>
<path d="M87.6265 125.836C87.4024 125.879 87.1153 125.573 86.8912 125.409L86.0875 124.819C85.3139 124.253 84.666 124.693 84.4118 124.239C84.2641 123.977 84.0482 123.712 83.8541 123.567L82.9711 122.911C82.8563 122.826 82.5693 122.714 82.3861 122.676C82.0253 122.596 81.8121 122.298 81.8804 121.921L81.2435 121.353C81.0767 120.319 79.8274 120.623 80.109 119.505C79.4556 118.939 79.7181 118.258 79.2233 117.495L79.3217 115.669C79.3299 115.511 79.144 115.125 79.226 115.005C79.3026 114.893 79.5841 114.622 79.5951 114.499C79.6251 114.13 79.6743 113.335 79.8138 112.993L80.2238 111.992L80.5272 111.593C80.6065 111.489 80.4507 111.224 80.3031 111.03L81.3118 110.62L81.4621 109.789L81.8066 109.103C81.8585 108.395 82.5064 108.34 82.4709 108.152L82.3369 107.479L83.3374 107.389C83.742 106.747 84.45 107.023 84.5758 106.085L85.6583 105.899C85.9918 105.24 86.4948 105.566 86.9978 105.044L88.4986 104.863C89.3925 104.757 89.2148 104.308 89.8353 104.284L90.9124 104.243C91.0163 104.281 91.3634 104.415 91.4892 104.39L92.938 104.103L93.9303 103.975C94.1408 103.947 94.5099 104.018 94.8461 104.084C95.3546 104.182 96.1583 103.581 97.9789 104.223C98.2003 104.3 98.4245 104.819 98.5803 105.003L99.7066 106.323C99.8542 106.495 100.171 106.621 100.406 106.689C100.398 106.763 100.609 107.151 100.756 107.189L102.372 107.583C102.057 108.302 102.889 108.455 103.025 108.854L103.345 109.803C103.454 110.131 103.747 110.656 103.739 110.948C103.728 111.377 103.673 111.793 103.761 112.107C104.089 113.275 103.903 113.685 104.119 114.477C104.367 115.399 103.927 115.814 104.151 116.317L104.354 116.776C104.449 116.992 103.829 117.132 103.575 118.026C103.334 118.876 102.875 118.87 103.274 119.589C103.381 119.781 103.113 120.202 102.916 120.336L102.249 120.792C102.047 121.227 101.773 121.549 101.388 121.864L100.997 122.646L100.27 123.083L99.0204 123.816C98.9302 123.867 98.501 123.744 98.4819 123.742L97.7493 124.349C97.2736 124.745 96.7679 124.204 96.0763 124.442L94.4142 125.007L92.6756 125.579L91.8282 125.92L90.8167 125.743C90.5324 126.235 89.7014 126.429 89.428 126.024L89.1 125.538L87.6183 125.833L87.6265 125.836Z" fill="black"/>
<path d="M153.59 169.971C152.994 169.651 152.433 169.55 151.712 169.484L150.572 169.022L149.779 168.574C149.577 168.459 149.216 168.278 149.024 168.314C148.47 168.415 148.322 167.939 148.057 167.786L146.356 166.805C146.138 166.799 145.657 166.862 145.446 166.942C144.883 167.152 144.517 166.923 144.301 166.42L143.281 165.799C143.062 165.665 142.866 165.085 142.718 164.902L141.89 164.339C141.553 164.11 141.351 163.779 141.212 163.355C141.042 162.83 140.673 163.071 139.921 162.51L138.727 161.619C138.035 161.103 137.565 161.072 137.647 160.725C137.674 160.602 137.825 160.233 137.745 160.159L137.13 159.558C136.674 159.369 136.318 159.099 136.07 158.686L135.34 157.475L134.566 156.228L134.148 155.51L133.314 154.927C132.407 154.293 133.432 153.981 132.732 153.191L132.409 152.645C131.504 152.183 131.745 151.704 131.305 151.218L130.619 150.463C130.086 149.878 130.43 149.553 130.094 148.962C129.952 148.711 129.946 148.495 129.908 148.202L129.78 147.224L129.605 146.458C129.449 145.778 128.995 145.641 129.389 145.056L128.667 143.973C128.415 143.599 128.333 143.397 128.254 142.948L128.063 141.863L128 140.931L127.798 140.521C127.737 140.401 127.893 140.141 127.994 140.004L127.839 138.736C128.191 137.511 126.759 137.836 127.04 136.593L127.21 135.844C127.275 135.557 126.376 135.354 126.644 134.217L126.403 133.282L126.272 132.145L126.188 131.492L126.628 130.529C126.66 130.458 126.712 130.256 126.704 130.179C126.688 130.029 126.141 129.761 126.289 129.496C126.543 129.042 126.824 129.217 126.945 128.673C127.005 128.4 127.076 128.02 127.038 127.826L126.868 126.987C126.783 126.568 126.865 126.224 127.087 125.852L126.937 124.671C126.89 124.319 126.86 123.988 126.98 123.684C127.24 123.025 126.871 123.064 127.158 122.361L127.497 121.527C127.524 121.462 127.349 121.202 127.407 121.156L127.757 120.882C127.91 120.762 128.265 120.42 128.276 120.202L128.322 119.185C128.331 118.985 128.53 118.594 128.517 118.378C128.473 117.766 128.445 117.14 128.615 116.615L129.066 115.218C129.255 114.63 129.427 114.054 129.38 113.389C129.345 112.87 129.807 112.966 129.864 112.219C129.894 111.848 130.028 111.653 130.343 111.462L130.449 110.735L130.769 110.205L130.652 109.39C131.165 109.057 131.335 108.532 131.037 108.001L131.589 107.769L132.5 107.304C132.423 106.935 132.467 106.413 132.642 106.019L132.879 105.024C133.249 104.726 133.407 104.387 133.363 103.857L134.058 103.663L133.984 103.07L134.714 102.868C134.897 102.526 135.168 101.905 135.425 101.73L136.048 101.312C136.461 101.036 135.572 99.9207 136.988 99.2427L137.13 98.1383C137.294 98.018 137.611 97.7911 137.726 97.6189C137.833 97.4576 137.797 97.0558 137.762 96.818L138.661 96.7469L138.771 95.8912C139.779 95.391 139.489 94.8962 140.113 94.601C140.613 94.3631 140.342 93.9613 140.927 93.7535C140.971 93.3736 141.146 92.9772 141.676 92.8487L141.638 92.2364L142.436 92.1215L143.03 91.3835C143.199 91.173 143.33 90.5442 143.42 90.3119L144.473 89.8389C144.85 89.6695 145.047 89.2485 144.85 88.863L145.528 88.4038L146.181 88.2507C146.269 88.1523 146.471 87.9117 146.583 87.8598L147.444 87.4661C147.636 87.3786 147.854 86.9631 147.945 86.7417L148.576 86.6324L148.759 85.8779L149.533 85.8369C149.872 85.8177 149.738 85.3557 150.861 84.5985L151.58 84.1147L151.796 83.6554C151.862 83.516 152.253 83.7128 152.395 83.9042L152.994 83.7484C153.098 83.721 153.363 83.557 153.335 83.4586L153.226 83.0513C153.622 83.0103 153.981 82.9228 154.289 82.7451L155.492 82.3843L156.181 82.1847L157.026 82.0617L156.884 81.4931L157.824 81.4767L158.68 81.1022C159.273 80.8425 159.71 80.5828 160.361 80.7796C161.012 80.9764 161.454 80.0087 162.414 80.3832L163.371 79.9458L163.978 79.8174C165.107 79.1804 165.492 79.6588 166.104 79.544L166.985 79.38L168.898 79.4839L169.169 79L169.426 79.1203L169.3 79.5413C169.281 79.6014 169.508 79.5522 169.59 79.5221C169.767 79.4565 170.167 79.5987 170.358 79.6096L171.563 79.6697L172.753 79.5467L173.556 79.6861L174.699 79.5577L174.557 80.1809C174.715 80.252 175.123 80.4051 175.311 80.4215L176.328 80.5226L177.993 80.4816C178.313 80.5719 178.737 80.7031 178.98 80.7058H179.368C179.548 80.7085 179.25 81.3673 179.751 81.5888L180.628 81.9824C180.945 82.1246 181.303 82.1191 181.678 82.1136L182.577 82.0972L183.417 82.0207C183.501 82.0125 183.482 82.2968 183.468 82.3843C183.66 82.89 184.308 83.1169 184.887 82.9829L184.805 83.3356C184.751 83.5679 185.568 84.0955 186.139 83.8768C186.623 83.6909 186.839 83.7593 187.285 83.885L188.474 84.2158L189.206 84.0928C189.25 84.7735 189.95 85.2819 190.674 85.2382C190.893 85.7111 191.284 86.4601 191.765 86.7308L192.427 87.1053L193.02 87.4607L193.919 87.5509C193.966 87.5563 193.996 87.5946 193.993 87.6329L193.971 87.816C193.955 87.9445 193.922 88.3245 193.971 88.4475C194.059 88.6662 194.586 88.8494 194.824 88.9204L195.302 89.0653C195.218 89.325 195.103 89.6913 195.188 89.8061C195.3 89.9565 195.743 90.0686 196.019 90.126C196.019 90.4103 196.188 91.0363 196.442 91.2003L197.049 91.5885L198.001 91.7361C197.569 92.7421 198.648 92.7421 198.359 93.4474C198.219 93.7863 198.946 93.7125 199.206 94.4397L200.144 94.6912L200.133 95.2379C200.127 95.5167 200.485 95.7792 200.934 95.9131C200.986 95.8065 200.947 95.883 200.876 96.0307L200.885 96.9546C200.885 97.1433 200.773 97.4713 200.696 97.6927C200.63 97.8786 200.874 98.234 201.021 98.4035L201.445 98.8955C201.511 98.9092 201.74 99.0131 201.762 99.0787L202.098 99.9781C202.191 100.224 202.415 100.642 202.363 100.883C202.254 101.405 202.473 101.867 202.823 102.179C202.847 102.583 202.938 103.037 203.118 103.42L203.282 104.076L203.935 104.251C203.446 105.369 204.28 105.577 204.329 106.009C204.373 106.386 203.662 106.44 203.657 106.555L203.643 106.897C203.607 107.859 204.315 108.042 203.711 108.778C203.626 108.882 203.681 109.248 203.673 109.398C203.648 109.904 203.719 110.437 203.758 110.965L203.862 112.457C204.362 113.425 203.523 113.868 204.105 114.57C204.449 114.986 204.4 115.511 203.834 115.817L204.211 116.85C204.291 117.069 204.045 117.438 203.856 117.678L203.509 118.496C203.553 118.851 203.525 119.084 203.405 119.376L203.025 120.289C203.175 121.147 202.711 121.612 202.853 122.334L202.7 122.733C202.913 123.313 202.544 123.408 202.446 124.217L202.303 125.355L202.153 126.309C202.126 126.486 202.109 126.888 202.038 127.033L201.683 127.752C202.008 128.411 202.055 129.053 201.885 129.761C201.732 130.404 202.227 131.008 201.472 131.773C201.111 132.139 201.718 132.774 200.917 133.422C200.63 133.654 200.513 134.007 200.352 134.365L200.059 135.013C199.963 135.226 199.879 135.732 199.865 135.969L199.808 137.085C199.797 137.309 199.734 137.793 199.603 137.951C199.444 138.143 198.993 138.487 198.982 138.708L198.922 140.029L198.75 140.567C198.867 140.841 198.771 141.303 198.583 141.562C198.845 141.877 198.979 142.372 198.569 142.686C198.288 142.905 197.848 143.241 197.686 143.514L197.268 144.23C197.047 144.608 196.776 144.4 196.678 144.832L196.314 146.395C196.196 146.901 196.164 147.382 195.778 147.82C195.365 148.284 196.027 148.935 195.138 149.318C194.395 149.638 194.225 150.217 193.867 150.84C193.627 151.259 193.208 151.789 193.154 152.284L192.55 152.896L191.918 153.752C191.806 154.32 191.659 154.64 191.147 154.935C190.858 155.105 190.748 155.458 190.65 155.829C190.579 156.092 190.106 156.425 189.871 156.636C189.502 156.967 189.144 157.218 188.638 157.341L188.159 158.063L187.449 159.137C187.331 159.317 187.088 159.733 186.902 159.785C186.547 159.883 185.91 159.984 185.685 160.192L185.147 160.687C184.912 160.903 184.502 161.349 184.223 161.452L183.105 161.868C182.867 162.33 182.566 162.562 182.074 162.817C181.623 163.052 181.358 163.866 179.967 164.35C179.835 164.509 179.559 164.927 179.368 164.968L177.985 165.274C177.744 165.326 177.331 165.695 177.107 165.829C176.817 166.007 176.621 166.165 176.446 166.433C175.932 167.226 175.104 166.428 174.625 166.898L173.488 168.016C172.911 168.582 171.785 168.41 170.538 169.284C169.967 169.683 169.748 168.943 169.065 169.273C168.608 169.495 168.182 169.454 167.706 169.552C167.313 169.634 166.662 170.055 166.244 170.318C165.946 170.506 165.774 171.1 165.235 170.87L164.448 170.534C163.707 170.217 163.084 171.698 162.171 170.638L161.217 170.854C160.077 170.184 159.374 170.993 158.737 170.4L158.043 170.818C157.586 171.094 157.182 170.818 156.84 170.572L155.399 170.217L154.806 170.632L153.587 169.976L153.59 169.971ZM169.595 160.569C169.778 160.526 170.126 160.364 170.21 160.239C170.295 160.113 170.208 159.818 170.158 159.605L171.358 159.544C171.531 159.536 171.932 159.293 172.08 159.192L172.829 158.686C172.917 158.629 173.048 158.418 172.974 158.355L172.681 158.098L173.357 157.989C174.327 157.412 174.789 158.153 175.448 157.524L176.495 156.532C176.539 156.248 176.689 156.062 176.908 155.966L177.99 155.49L178.832 155.121L179.699 154.744C179.904 154.654 180.106 154.206 180.205 153.932L180.989 153.744L181.864 153.257C181.965 153.178 182.08 152.833 182.132 152.694L182.662 151.261L183.657 151.223L184.428 150.553L184.589 149.435L185.15 149.017L185.502 147.576L186.164 147.467L187.05 146.838L187.153 145.898L187.624 145.195C188.077 144.517 187.602 143.993 187.851 143.069C188.364 142.752 188.515 142.005 188.214 141.579L188.635 141.371C188.739 141.319 188.988 141.565 189.062 141.688L189.565 140.895C189.627 140.797 189.636 140.499 189.63 140.379C189.674 140.319 189.849 140.081 189.887 139.98L190.398 138.64L190.612 138.063C190.92 137.224 190.497 136.546 191.243 135.603C191.054 135.095 191.973 135.185 191.686 134.518C191.552 134.203 191.757 134.039 191.872 133.799L192.539 132.407L192.435 132.057L193.157 131.79L193.178 130.969L193.096 129.953L192.987 128.845L193.151 128.072L193.146 127.219C193.146 127.038 193.055 126.637 193.165 126.495C193.758 125.721 193.31 125.368 193.856 125.117C194.403 124.865 193.938 124.545 194.223 123.982C194.365 123.703 194.384 123.4 194.387 123.086L194.392 122.394C194.398 121.916 194.231 121.098 194.441 120.677C194.709 120.141 194.876 119.813 194.4 119.283L194.84 118.996L194.909 118.08C194.942 117.648 195.822 117.132 195.423 116.448C195.338 116.303 195.188 115.964 195.275 115.866L195.652 115.431L195.718 114.286L195.786 113.141L195.581 111.254L195.576 110.757L195.27 109.253C195.078 108.305 195.368 108.048 195.158 107.282L194.808 105.995C194.701 105.598 194.616 105.249 194.351 104.942C194.086 104.636 194.064 104.379 194.154 103.972C194.321 103.193 193.602 102.632 193.999 101.659C193.988 101.462 193.72 101.167 193.512 100.979L193.184 100.246L192.522 99.4997C192.29 99.2372 191.749 98.8983 191.612 98.562C191.191 97.515 190.729 97.3538 190.524 96.5993L189.791 96.3614C189.204 95.9678 188.98 95.4129 188.211 94.806C187.495 94.2401 187.87 93.5786 187.323 93.4474C186.243 93.1849 186.44 92.4796 185.639 92.1243L184.439 91.5939L183.799 91.7142L182.76 91.4245L181.593 90.3447C181.208 89.9866 180.554 90.8477 180.215 90.3064C179.797 89.6366 179.152 89.623 178.507 89.5847L177.269 89.3496C176.596 89.0954 175.943 88.6553 175.243 88.2015L173.983 88.7099L173.07 88.3819C172.774 88.2753 172.261 88.0921 172.061 88.2753C171.736 88.5733 171.49 88.6334 171.118 88.4366C170.814 88.2753 170.626 88.0183 170.464 87.7012C170.262 87.3048 169.696 87.2966 169.294 87.5017C168.988 87.6575 168.75 87.5673 168.412 87.4661C168.029 87.3513 167.466 87.3431 167.006 87.324L165.353 87.2474C165.096 87.9035 164.218 88.2534 163.502 88.3737C163.201 88.4229 162.695 88.4366 162.488 88.5678L161.717 89.1583C161.165 88.9532 160.741 88.9915 160.271 89.2102L159.47 89.2321L158.857 89.8991C158.548 90.2326 158.218 90.7684 157.827 91.0226C156.815 91.6814 155.73 91.5502 155.26 92.1161C154.828 92.6355 154.434 92.7831 153.781 92.9143C153.346 93.0018 153.04 93.5184 152.778 93.9449C152.641 94.1663 152.187 94.3932 151.911 94.56C151.665 94.7048 151.258 95.0493 151.015 95.1094L149.905 95.3855C149.749 95.4238 149.686 95.9158 149.65 96.1236C149.607 96.3915 149.21 96.6512 149.057 96.8398L148.237 97.8513C147.652 98.5757 147.994 98.8901 147.286 99.2099C146.971 99.3521 146.766 99.5789 146.567 99.8605C145.933 100.754 146.507 101.173 145.985 101.695L144.662 103.01L143.579 104.234L143.191 104.91L142.723 105.948L141.952 107.302L141.969 107.993C141.972 108.152 141.63 108.286 141.455 108.406C141.223 108.567 140.988 108.86 140.796 109.089L140.244 109.748L139.626 110.678C139.421 110.986 139.142 111.588 139.058 111.949L138.814 112.982C138.768 113.184 138.587 113.51 138.459 113.761L138.735 114.286L138.194 115.09L137.661 116.046L137.133 116.801C136.677 117.457 137.363 117.976 137.264 118.143L137.057 118.488C136.98 118.616 136.917 118.985 136.914 119.146L136.884 120.103C136.862 120.757 136.379 121.347 135.889 121.823L135.832 123.001C135.81 123.444 136.431 123.717 136.015 124.086C135.807 124.272 135.725 124.548 135.755 124.791L135.856 125.628C135.884 125.855 135.548 126.268 135.378 126.432L135.545 126.94C135.457 127.364 135.46 127.662 135.578 128.11C135.815 129.026 135.107 129.608 135.739 130.253L135.392 131.243C135.023 131.915 134.932 132.481 135.25 133.189V133.711C135.449 134.16 135.504 134.507 135.466 135.032C135.441 135.354 135.564 135.677 135.671 135.997L135.958 136.863C136.01 137.019 135.848 137.446 135.952 137.555L136.348 137.976L136.343 138.968C136.343 139.362 136.299 139.739 136.54 140.04C136.644 140.168 136.78 140.42 136.709 140.515L136.488 140.816C136.974 141.53 136.288 142.251 136.693 142.328L137.212 142.429L137.434 143.402C138.207 143.615 137.855 144.203 138.426 144.859L138.322 146.398L139.785 146.661C139.375 147.36 139.681 147.872 140.222 148.151C140.107 148.602 140.102 149.156 140.635 149.405L140.545 150.08L142.002 150.78L141.742 151.171L142.398 151.958L142.343 152.467C142.436 152.705 142.756 153.268 143.013 153.331L144.019 153.582C143.978 153.828 143.945 154.181 144.057 154.323C144.383 154.744 145.208 154.627 145.151 154.856L145.052 155.244L145.216 156.059L146.168 156.63L146.783 157.103L147.466 157.541L148.062 157.754C147.967 158.074 147.852 158.506 147.928 158.713C147.988 158.875 148.418 159.082 148.543 159.205C148.721 159.383 149.014 159.646 149.251 159.678C149.968 159.779 150.397 160.105 150.758 160.657C152.499 160.168 152.575 160.982 153.439 161.392L154.489 161.887C155.12 162.185 155.405 161.955 156.181 162.199C156.397 162.267 156.881 162.428 157.086 162.352L157.903 162.048C159.03 162.21 159.401 162.748 159.866 162.737L161.741 162.699L162.551 162.171C162.717 162.062 163.059 161.843 163.25 161.83L164.409 161.748L164.623 161.351L165.585 161.409C165.651 161.245 165.951 160.813 166.181 160.805L167.498 160.769C167.712 160.764 168.165 160.919 168.381 160.867L169.59 160.569H169.595Z" fill="black"/>
<path d="M167.244 125.836C167.02 125.879 166.733 125.573 166.509 125.409L165.705 124.819C164.932 124.25 164.284 124.696 164.03 124.234C163.893 123.985 163.663 123.706 163.472 123.564L162.589 122.908C162.477 122.823 162.187 122.714 162.004 122.673C161.643 122.594 161.43 122.296 161.498 121.918L160.861 121.35C160.695 120.316 159.448 120.623 159.727 119.502C159.076 118.936 159.339 118.255 158.841 117.495L158.942 115.669C158.951 115.511 158.759 115.125 158.844 115.008C158.929 114.89 159.202 114.625 159.213 114.502C159.243 114.133 159.292 113.335 159.434 112.993L159.844 111.995L160.145 111.599C160.23 111.489 160.071 111.224 159.926 111.033L160.932 110.626L161.086 109.795L161.427 109.108C161.482 108.4 162.133 108.343 162.094 108.154L161.955 107.485L162.958 107.394C163.365 106.752 164.071 107.028 164.196 106.091L165.282 105.905C165.607 105.246 166.113 105.571 166.618 105.052L168.122 104.869C169.016 104.759 168.841 104.316 169.451 104.292L170.536 104.248C170.637 104.286 170.987 104.42 171.113 104.396L172.559 104.109L173.535 103.986C173.77 103.956 174.152 104.029 174.459 104.089C174.983 104.191 175.782 103.589 177.6 104.232C177.821 104.308 178.045 104.828 178.201 105.011L179.327 106.334C179.475 106.506 179.792 106.632 180.027 106.7C180.019 106.771 180.227 107.162 180.377 107.2L181.993 107.594C181.678 108.313 182.512 108.469 182.643 108.862L182.966 109.816C183.075 110.142 183.365 110.667 183.359 110.962C183.348 111.391 183.294 111.807 183.381 112.118C183.709 113.285 183.523 113.696 183.737 114.486C183.988 115.412 183.548 115.825 183.769 116.328L183.972 116.787C184.067 117.003 183.447 117.14 183.193 118.037C182.938 118.933 182.493 118.881 182.895 119.6C183.001 119.792 182.733 120.213 182.537 120.347L181.87 120.806C181.67 121.232 181.38 121.568 181.011 121.875L180.615 122.659L179.89 123.097L178.641 123.829C178.551 123.881 178.122 123.758 178.105 123.755L177.373 124.362C176.892 124.761 176.394 124.217 175.697 124.455L174.035 125.021L172.299 125.59L171.452 125.931L170.448 125.754C170.15 126.238 169.325 126.429 169.06 126.038L168.723 125.543L167.242 125.838L167.244 125.836Z" fill="black"/>
</g>
<defs>
<clipPath id="clip0_140_22">
<rect width="250" height="250" fill="white"/>
</clipPath>
</defs>
</svg>
