<svg width="250" height="250" viewBox="0 0 250 250" fill="none" xmlns="http://www.w3.org/2000/svg">
<g clip-path="url(#clip0_137_2523)">
<path d="M77.1682 132.351L77.1045 132.415L77.168 132.478L77.2317 132.414L77.1682 132.351Z" fill="black"/>
<path d="M228.29 82.9615L228.32 81.2415V79.6015L228.22 78.7714L228.08 77.7616V76.7015L228.09 75.8916L227.95 75.1715C228.01 74.6515 228.1 73.9815 227.86 73.4915L227.42 72.5915L227.45 72.3715C227.45 72.3715 227.34 72.3415 227.31 72.3415C227.29 72.2315 227.2 71.9115 227.14 71.7915L226.59 70.7515C226.43 70.1915 226.2 69.7415 225.83 69.3515L225.63 68.9715L225.47 68.6115L225.25 67.9115L225.06 67.3515L224.67 66.4515C224.59 66.2715 224.28 66.0015 224.16 65.8615L223.94 65.4915C223.81 65.5315 223.87 65.4215 223.87 65.3815L223.44 64.7616V64.6215L223.46 64.4815C223.46 64.4315 223.49 64.3914 223.46 64.4014L223.22 64.4715C223.26 64.2915 223.22 63.9215 223.09 63.7415L222.77 63.2616C222.66 63.1016 222.47 62.7915 222.32 62.7015L221.34 62.0915C221.27 62.0415 221.12 61.9015 221.06 61.8415L220.59 61.2815C220.29 61.2315 220.28 61.1914 220.59 61.1514L220.13 60.7415L219.96 60.6115L219.46 60.0915C219.29 59.9115 218.91 59.7115 218.65 59.5815C218.33 59.0815 217.85 58.4415 217.21 58.3615C216.59 58.2815 216.12 58.1615 215.62 57.7815C215.36 57.5915 214.91 57.4415 214.59 57.3415C213.86 56.6815 213.07 56.3015 212.07 56.2515C211.61 56.2315 211.16 55.9715 210.73 55.7815L209.82 55.3515C209.39 55.4115 209.06 55.3715 208.69 55.2115L207.43 54.6514L205.95 54.1115L205.06 53.7815L203.87 53.5015C203.45 53.4015 203.19 53.3215 202.83 53.0015L201.76 53.2015L200.77 53.5116C200.2 53.6916 199.93 53.0514 199.25 53.2714C197.98 53.6814 197.67 52.5315 196.97 53.2315L196.5 53.5315C196.36 53.8415 195.99 54.0615 195.62 53.9915L193.69 53.6215L193.26 53.3715C192.66 53.6015 192.19 53.4515 191.61 53.2915C190.82 53.0715 189.98 53.5616 189.45 54.1416L188.65 54.2415C188.26 54.2915 187.75 54.6115 187.4 54.7315L186.35 55.1015C185.69 55.3315 184.88 55.2015 183.83 55.5515C183.45 55.6815 183.26 55.8915 182.8 55.7115L182.04 56.2415C181.82 56.4015 181.43 56.6415 181.2 56.6215C180.19 56.5415 179.93 56.9015 179.35 56.7515L178.87 57.1315C178.36 57.5415 177.65 58.6415 176.69 58.7415C175.74 58.8415 175.29 59.2315 174.67 59.7215L173.9 60.3215C173.59 60.5615 173.1 60.8415 172.89 61.1315L172.11 62.2015L171.73 62.7215L171.23 63.3415L170.64 64.2115L170.16 64.6315C169.75 65.0015 169.34 65.4614 168.97 65.9014L168.23 66.7714L168.4 66.9915L167.62 67.8815L166.44 69.0715L166.35 69.1615C166.1 69.4615 165.63 69.9016 165.46 70.2616L165.12 71.1615L165.06 71.2616C164.75 71.5616 164.6 72.0415 164.63 72.4715L164.52 72.3615C164.52 72.3615 164.51 72.4415 164.5 72.4715L164.56 72.5715L164.39 72.7915C164.44 73.6515 163.92 74.0115 164.26 74.4315L164.05 74.9014C163.99 75.0314 164.05 75.3215 164.12 75.4515C163.56 76.0515 163.89 76.1715 163.79 76.7515C163.68 77.3815 163.7 78.0215 163.75 78.6815L163.83 79.7215L163.91 80.6915L163.98 81.3115L164.1 82.0015L164.31 82.8515L164.34 83.2315L164.45 83.9815L164.65 85.6315L164.71 86.2215V87.0615L164.64 87.8515C164.64 88.3615 164.61 88.8115 164.39 89.3115C164.32 89.4615 164.4 89.8215 164.44 90.0015L164.53 90.3916C164.6 90.4716 164.83 90.7415 164.86 90.8615L165.03 91.6615C165.13 91.6815 165.11 91.7015 165.03 91.7815L165.32 92.3815L165.66 93.0815L165.91 93.5915L166.28 94.8315L166.3 95.0214L166.42 95.0615L166.57 95.7415L166.61 95.8715L166.93 96.5615L167.54 96.8815L167.87 97.5915C168.22 98.3415 168 98.7015 168.36 99.1715L168.9 99.8715C169.23 100.302 169.45 100.711 169.91 100.951L170.33 101.171L171.46 101.811L173.06 102.842L173.93 103.411L174.63 103.972L175.81 104.852L176.31 105.372C176.61 105.682 177.16 105.682 177.59 105.842L178.82 106.301L180.74 107.021C181.2 107.191 181.77 107.582 182.22 107.642L183.22 107.781L184.33 108.021C184.64 108.091 184.86 108.452 185.29 108.482L186.15 108.541C186.15 108.541 186.2 108.602 186.23 108.732L187 108.671L187.1 108.612C187.32 108.612 187.73 108.611 187.93 108.681C188.25 108.781 188.44 108.822 188.73 108.842L189.13 109.122L189.71 109.701L189.45 110.722C189.36 111.072 189.45 111.352 189.72 111.632C189.88 111.792 189.96 112.322 189.82 112.492C189.77 112.562 189.59 112.711 189.56 112.771L189.26 113.472L189.52 114.901C189.55 115.091 189.17 115.351 189.1 115.491L188.75 116.342C188.8 116.482 188.97 116.752 189.1 116.942C189.33 117.262 189.43 117.601 189.56 117.981C189.79 118.651 189.67 119.322 189.04 119.682C189 120.052 188.92 120.401 188.77 120.781L189.05 121.541L189.34 122.331C188.71 122.701 188.72 123.601 189.2 124.271L188.9 124.882C188.74 125.192 188.75 125.591 188.87 125.981L188.67 126.702V127.551C188.68 127.741 188.96 128.091 189.08 128.251L188.67 129.481C188.55 129.841 188.5 130.181 188.58 130.551L188.81 131.581C188.83 131.751 188.81 132.151 188.79 132.331L188.64 133.382C188.61 133.582 188.6 133.852 188.51 133.932L188.08 134.271C188.3 134.911 187.77 135.321 188.24 135.961C187.98 136.361 187.98 136.702 188.2 137.182C188.49 137.792 187.99 138.652 188.08 139.422C187.54 140.002 188.18 140.242 187.84 141.452C187.77 141.712 188.14 142.191 188.21 142.461L188.42 143.261C188.55 143.751 188.53 144.172 188.44 144.662L188.21 145.981C188.09 146.681 188.67 146.892 188.25 147.352C188.16 147.612 188.09 148.041 188.07 148.321L188.04 148.991C188.04 149.091 188.08 149.391 188.17 149.481C188.46 149.771 188.54 150.491 188.13 150.821C187.98 150.941 187.93 151.361 187.97 151.531L188.18 152.402C188.25 152.702 188.18 153.271 188.07 153.581L187.79 154.382C187.55 155.072 188.55 155.121 188.15 155.771C187.83 156.291 187.98 157.001 188.37 157.471L189.18 157.392L189.78 157.352L191.09 157.231L192.02 157.211L192.95 157.162L193.61 157.081L194.32 157.102H195L197.31 157.051L198.16 157.021L199.19 156.981L199.33 156.811L199.07 156.251C198.79 155.641 199.04 155.021 199.31 154.471L199.64 153.791L199.46 153.682C199.4 153.982 199.31 153.941 199.24 153.721L199.34 153.202L199.29 152.362C199.29 152.272 199.12 152.002 199.07 151.912L199.34 151.031L199.63 150.081C199.66 149.871 199.59 149.362 199.5 149.162L199.19 148.432C199.38 148.362 199.66 148.232 199.7 148.102L199.82 147.672L199.59 147.011L199.72 145.961L199.81 145.281C199.84 145.051 200.07 144.812 200.39 144.592L199.97 143.711C199.51 142.751 200.59 141.952 200.11 141.612C199.49 141.162 200.41 140.612 200.02 140.142L199.56 139.571C199.43 139.011 199.56 138.361 199.99 137.981C200.28 137.721 200.38 137.331 200.12 137.041C200.02 136.931 199.89 136.782 199.87 136.692C199.81 136.402 200.38 136.162 200.37 135.362C200.21 135.142 200.11 134.901 200.2 134.791C200.28 134.701 200.44 134.541 200.4 134.471L200.22 134.182C200.15 134.062 200.02 133.762 200.02 133.622C200.02 133.482 200.21 133.312 200.4 133.112L200.11 132.642L200.3 131.872L200.69 130.301L201.01 130.132C201.25 130.002 200.29 129.382 200.3 128.892V128.112C200.39 127.402 200.4 126.721 200.3 126.001L200.41 124.801C200.42 124.661 200.68 124.421 200.82 124.301L200.65 123.152C200.57 122.592 201.16 121.831 200.93 121.031C200.68 120.151 201.6 120.252 201.58 119.662C201.38 119.392 201.15 119.021 201.07 118.791L201.49 118.202V116.912L200.96 116.382L201.64 115.511C200.98 114.641 200.97 114.102 201.67 113.242L201.04 112.742C200.82 112.572 200.74 112.361 200.75 112.051L200.78 111.301C200.8 110.781 201.27 111.021 201.79 110.451C201.39 110.001 201.25 109.801 201.14 109.411C202.08 109.231 202.84 109.162 203.64 108.842L204.52 108.492L205.09 108.321L206.35 108.151L208.18 107.712L209.25 107.421C209.83 107.111 210.28 106.901 210.94 106.701C211.54 106.521 211.75 105.901 212.72 105.921L213.34 105.342L214.85 104.362L216.44 103.592C216.69 103.472 217.16 103.321 217.33 103.161L218.43 102.122L219.15 101.642L220.03 100.622L220.69 100.191C221.21 99.7115 221.66 99.3715 222.31 99.0615L222.81 98.2915C223.11 97.8315 223.2 97.3315 223.21 96.8115L223.26 96.7115L223.8 95.5214L224.34 94.1215L224.4 94.2015L224.47 94.1416L224.39 94.0214L225.3 92.5815L225.55 92.1115C225.5 92.1815 225.55 92.1016 225.62 92.0116L225.84 91.5415L226.29 90.6015L226.45 90.2315L226.99 89.1915L227.19 88.7415C227.41 88.4115 227.75 87.8615 227.76 87.4815C227.58 87.0615 227.52 86.7216 227.86 86.3916L228.01 85.8916V85.4115L228.14 84.7315L228.4 83.3015L228.23 83.0015L228.29 82.9615Z" fill="black"/>
<path d="M223.9 65.3816L223.97 65.4916C223.97 65.4916 223.94 65.3916 223.9 65.3816Z" fill="black"/>
<path d="M174.12 146.322L173.16 146.182C173.01 146.162 172.76 146.372 172.6 146.582L171.26 146.251C170.84 146.151 170.26 146.652 170.09 146.562L169.31 146.142C169 145.972 168.75 146.011 168.42 146.001H167.82L167.06 146.042L166.42 146.192C166.28 146.222 165.96 146.142 165.79 146.112L165.45 146.172C164.93 145.922 164.43 145.882 163.88 146.072C163.32 146.272 163.01 145.891 162.43 145.981L161.72 146.102C161.49 146.142 161.27 146.172 161.04 146.162L159.46 146.062L158.92 145.602C158.7 145.712 158.58 145.752 158.41 145.792C158.11 145.992 157.76 146.161 157.41 145.991L156.88 145.731L156.27 145.902C156.17 145.932 155.96 146.212 155.86 146.192L154.99 146.021C154.8 145.981 154.63 145.971 154.46 145.971V157.182C154.55 157.242 154.64 157.312 154.73 157.372C155.08 157.642 155.48 157.212 155.72 156.852C155.86 156.632 156.48 156.682 156.86 156.832L157.59 157.142L158.19 157.292C158.19 157.292 158.17 157.392 158.19 157.402L158.42 157.432L159.16 157.461L160.01 157.362L162.08 156.981L162.78 156.952L163.14 157.011H163.7L164.33 157.001L165.28 157.072C165.42 157.072 165.51 157.102 165.57 157.092C166.08 157.302 166.62 157.322 167.16 157.302C167.39 157.302 167.53 157.272 167.72 157.082L168.41 156.382C168.78 156.212 168.93 157.031 169.45 156.721C170.56 156.061 171.03 156.952 171.51 156.792C171.89 156.662 172.25 156.451 172.57 156.731C172.77 156.901 173.03 157.042 173.24 156.922L173.79 156.612C173.91 156.542 174.16 156.752 174.32 156.842C174.5 156.952 174.7 156.972 174.9 156.952V146.432H174.86L174.14 146.312L174.12 146.322Z" fill="black"/>
<path d="M139.91 146.322L138.95 146.182C138.8 146.162 138.55 146.372 138.39 146.582L137.05 146.251C136.63 146.151 136.05 146.652 135.88 146.562L135.1 146.142C134.79 145.972 134.54 146.011 134.21 146.001H133.61L132.85 146.042L132.21 146.192C132.07 146.222 131.75 146.142 131.58 146.112L131.24 146.172C130.72 145.922 130.22 145.882 129.67 146.072C129.11 146.272 128.8 145.891 128.22 145.981L127.51 146.102C127.28 146.142 127.06 146.172 126.82 146.162L125.24 146.062L124.7 145.602C124.48 145.712 124.36 145.752 124.19 145.792C123.89 145.992 123.54 146.161 123.19 145.991L122.66 145.731L122.05 145.902C121.95 145.932 121.74 146.212 121.64 146.192L120.77 146.021C120.58 145.981 120.41 145.971 120.24 145.971V157.182C120.33 157.242 120.42 157.312 120.51 157.372C120.86 157.642 121.26 157.212 121.5 156.852C121.64 156.632 122.26 156.682 122.64 156.832L123.37 157.142L123.97 157.292C123.97 157.292 123.95 157.392 123.97 157.402L124.2 157.432L124.94 157.461L125.79 157.362L127.86 156.981L128.56 156.952L128.92 157.011H129.48L130.11 157.001L131.06 157.072C131.2 157.072 131.29 157.102 131.35 157.092C131.86 157.302 132.4 157.322 132.94 157.302C133.17 157.302 133.31 157.272 133.5 157.082L134.19 156.382C134.56 156.212 134.71 157.031 135.23 156.721C136.34 156.061 136.81 156.952 137.29 156.792C137.67 156.662 138.03 156.451 138.35 156.731C138.55 156.901 138.81 157.042 139.02 156.922L139.57 156.612C139.69 156.542 139.94 156.752 140.1 156.842C140.28 156.952 140.48 156.972 140.68 156.952V146.432H140.64L139.92 146.312L139.91 146.322Z" fill="black"/>
<path d="M107.65 146.322L106.69 146.182C106.54 146.162 106.29 146.372 106.13 146.582L104.79 146.251C104.37 146.151 103.79 146.652 103.62 146.562L102.84 146.142C102.53 145.972 102.28 146.011 101.95 146.001H101.35L100.59 146.042L99.95 146.192C99.81 146.222 99.4898 146.142 99.3198 146.112L98.98 146.172C98.46 145.922 97.9599 145.882 97.4099 146.072C96.8499 146.272 96.54 145.891 95.96 145.981L95.25 146.102C95.02 146.142 94.7998 146.172 94.5598 146.162L92.98 146.062L92.4399 145.602C92.2199 145.712 92.0999 145.752 91.9299 145.792C91.6299 145.992 91.2799 146.161 90.9299 145.991L90.3999 145.731L89.79 145.902C89.69 145.932 89.4799 146.212 89.3799 146.192L88.51 146.021C88.32 145.981 88.15 145.971 87.98 145.971V157.182C88.07 157.242 88.16 157.312 88.25 157.372C88.6 157.642 89 157.212 89.24 156.852C89.38 156.632 89.9999 156.682 90.3799 156.832L91.1099 157.142L91.71 157.292C91.71 157.292 91.69 157.392 91.71 157.402L91.9399 157.432L92.6799 157.461L93.53 157.362L95.5999 156.981L96.2998 156.952L96.6599 157.011H97.22L97.8499 157.001L98.7998 157.072C98.9398 157.072 99.0298 157.102 99.0898 157.092C99.5998 157.302 100.14 157.322 100.68 157.302C100.91 157.302 101.05 157.272 101.24 157.082L101.93 156.382C102.3 156.212 102.45 157.031 102.97 156.721C104.08 156.061 104.55 156.952 105.03 156.792C105.41 156.662 105.77 156.451 106.09 156.731C106.29 156.901 106.55 157.042 106.76 156.922L107.31 156.612C107.43 156.542 107.68 156.752 107.84 156.842C108.02 156.952 108.22 156.972 108.42 156.952V146.432H108.38L107.66 146.312L107.65 146.322Z" fill="black"/>
<path d="M73.9199 146.322L72.96 146.182C72.81 146.162 72.5599 146.372 72.3999 146.582L71.0598 146.251C70.6398 146.151 70.0599 146.652 69.8899 146.562L69.1099 146.142C68.7999 145.972 68.55 146.011 68.22 146.001H67.6199L66.8599 146.042L66.22 146.192C66.08 146.222 65.7598 146.142 65.5898 146.112L65.25 146.172C64.73 145.922 64.2299 145.882 63.6799 146.072C63.1199 146.272 62.81 145.891 62.23 145.981L61.52 146.102C61.29 146.142 61.0698 146.172 60.8298 146.162L59.25 146.062L58.71 145.602C58.49 145.712 58.37 145.752 58.2 145.792C57.9 145.992 57.55 146.161 57.2 145.991L56.6699 145.731L56.0598 145.902C55.9598 145.932 55.7499 146.212 55.6499 146.192L54.78 146.021C54.59 145.981 54.42 145.971 54.25 145.971V157.182C54.34 157.242 54.43 157.312 54.52 157.372C54.87 157.642 55.27 157.212 55.51 156.852C55.65 156.632 56.2699 156.682 56.6499 156.832L57.3799 157.142L57.98 157.292C57.98 157.292 57.96 157.392 57.98 157.402L58.21 157.432L58.95 157.461L59.7998 157.362L61.8699 156.981L62.5698 156.952L62.9299 157.011H63.49L64.1199 157.001L65.0698 157.072C65.2098 157.072 65.2999 157.102 65.3599 157.092C65.8699 157.302 66.41 157.322 66.95 157.302C67.18 157.302 67.32 157.272 67.51 157.082L68.2 156.382C68.57 156.212 68.72 157.031 69.24 156.721C70.35 156.061 70.8198 156.952 71.2998 156.792C71.6798 156.662 72.0399 156.451 72.3599 156.731C72.5599 156.901 72.82 157.042 73.03 156.922L73.5798 156.612C73.6998 156.542 73.9499 156.752 74.1099 156.842C74.2899 156.952 74.4899 156.972 74.6899 156.952V146.432H74.6499L73.9299 146.312L73.9199 146.322Z" fill="black"/>
<path d="M41.6699 146.322L40.71 146.182C40.56 146.162 40.3099 146.372 40.1499 146.582L38.8098 146.251C38.3898 146.151 37.8099 146.652 37.6399 146.562L36.8599 146.142C36.5499 145.972 36.3 146.011 35.97 146.001H35.3699L34.6099 146.042L33.97 146.192C33.83 146.222 33.5098 146.142 33.3398 146.112L33 146.172C32.48 145.922 31.9799 145.882 31.4299 146.072C30.8699 146.272 30.56 145.891 29.98 145.981L29.27 146.102C29.04 146.142 28.8198 146.172 28.5798 146.162L27 146.062L26.46 145.602C26.24 145.712 26.12 145.752 25.95 145.792C25.65 145.992 25.3 146.161 24.95 145.991L24.4199 145.731L23.8098 145.902C23.7098 145.932 23.4999 146.212 23.3999 146.192L22.53 146.021C22.34 145.981 22.17 145.971 22 145.971V157.182C22.09 157.242 22.18 157.312 22.27 157.372C22.62 157.642 23.02 157.212 23.26 156.852C23.4 156.632 24.0199 156.682 24.3999 156.832L25.1299 157.142L25.73 157.292C25.73 157.292 25.71 157.392 25.73 157.402L25.96 157.432L26.7 157.461L27.5498 157.362L29.6199 156.981L30.3198 156.952L30.6799 157.011H31.24L31.8699 157.001L32.8198 157.072C32.9598 157.072 33.0499 157.102 33.1099 157.092C33.6199 157.302 34.16 157.322 34.7 157.302C34.93 157.302 35.07 157.272 35.26 157.082L35.95 156.382C36.32 156.212 36.47 157.031 36.99 156.721C38.1 156.061 38.5698 156.952 39.0498 156.792C39.4298 156.662 39.7899 156.451 40.1099 156.731C40.3099 156.901 40.57 157.042 40.78 156.922L41.3298 156.612C41.4498 156.542 41.6999 156.752 41.8599 156.842C42.0399 156.952 42.2399 156.972 42.4399 156.952V146.432H42.3999L41.6799 146.312L41.6699 146.322Z" fill="black"/>
</g>
<defs>
<clipPath id="clip0_137_2523">
<rect width="250" height="250" fill="white"/>
</clipPath>
</defs>
</svg>
