<?xml version="1.0" standalone="no"?>
<!DOCTYPE svg PUBLIC "-//W3C//DTD SVG 20010904//EN"
 "http://www.w3.org/TR/2001/REC-SVG-20010904/DTD/svg10.dtd">
<svg version="1.0" xmlns="http://www.w3.org/2000/svg"
 width="500.000000pt" height="500.000000pt" viewBox="70 187 386 126"
 preserveAspectRatio="xMidYMid meet">
<metadata>
Created by potrace 1.16, written by Peter Selinger 2001-2019
</metadata>
<g transform="translate(0.000000,500.000000) scale(0.100000,-0.100000)"
fill="#000000" stroke="none">
<path d="M4040 3047 c-3 -3 -27 -7 -54 -10 -107 -13 -246 -106 -304 -205 -62
-107 -75 -256 -32 -382 64 -192 319 -500 413 -500 58 0 289 280 364 440 44 94
56 158 51 261 -4 70 -11 100 -36 154 -51 109 -166 205 -273 229 -44 10 -124
18 -129 13z m167 -130 c107 -55 169 -149 177 -268 8 -127 -31 -234 -144 -391
-65 -91 -170 -208 -187 -208 -32 0 -227 238 -278 339 -80 159 -75 324 15 432
38 47 123 103 175 116 73 19 184 9 242 -20z"/>
<path d="M4005 2784 c-59 -14 -119 -74 -135 -135 -32 -118 65 -239 191 -239
61 0 131 44 159 100 24 47 29 134 9 172 -43 85 -133 126 -224 102z m108 -104
c52 -42 52 -121 -2 -159 -104 -74 -214 80 -114 159 14 11 40 20 58 20 18 0 44
-9 58 -20z"/>
<path d="M796 2049 c-34 -49 -3 -62 164 -64 134 -2 170 7 170 45 0 33 -33 40
-179 40 -131 0 -141 -1 -155 -21z"/>
<path d="M1346 2055 c-22 -23 -20 -42 7 -58 16 -11 58 -14 161 -13 123 2 140
4 152 21 12 16 12 22 0 39 -12 19 -25 21 -159 24 -122 2 -148 0 -161 -13z"/>
<path d="M1922 2058 c-16 -16 -15 -43 3 -58 17 -14 269 -21 304 -9 23 9 29 47
9 67 -8 8 -58 12 -158 12 -100 0 -150 -4 -158 -12z"/>
<path d="M2442 2058 c-17 -17 -15 -43 3 -58 19 -16 269 -21 303 -7 24 11 30
45 10 65 -17 17 -299 17 -316 0z"/>
<path d="M2986 2051 c-14 -15 -15 -24 -7 -39 14 -27 27 -29 180 -27 116 1 135
4 147 19 13 19 9 45 -10 58 -6 4 -74 8 -152 8 -126 0 -143 -2 -158 -19z"/>
<path d="M3503 2058 c-22 -29 -22 -38 -3 -56 18 -17 35 -19 131 -18 113 2 128
7 129 47 0 32 -22 39 -136 39 -77 0 -115 -4 -121 -12z"/>
</g>
</svg>
