<?xml version="1.0" standalone="no"?>
<!DOCTYPE svg PUBLIC "-//W3C//DTD SVG 20010904//EN"
 "http://www.w3.org/TR/2001/REC-SVG-20010904/DTD/svg10.dtd">
<svg version="1.0" xmlns="http://www.w3.org/2000/svg"
 width="500.000000pt" height="500.000000pt" viewBox="89 55 331 378"
 preserveAspectRatio="xMidYMid meet">
<metadata>
Created by potrace 1.16, written by Peter Selinger 2001-2019
</metadata>
<g transform="translate(0.000000,500.000000) scale(0.100000,-0.100000)"
fill="#000000" stroke="none">
<path d="M2415 4334 c-92 -48 -200 -114 -303 -183 -46 -31 -103 -67 -126 -81
-24 -14 -57 -36 -73 -50 -17 -14 -72 -52 -123 -85 -51 -33 -104 -68 -119 -77
-14 -10 -42 -25 -61 -35 -20 -10 -77 -43 -128 -73 -51 -30 -105 -62 -121 -70
-32 -18 -128 -80 -188 -121 -23 -16 -46 -29 -52 -29 -6 0 -16 -9 -23 -20 -7
-11 -17 -20 -21 -20 -18 0 -71 -63 -73 -87 -2 -13 -8 -31 -15 -39 -8 -10 -9
-18 0 -27 6 -8 9 -16 7 -18 -23 -23 -23 -1184 -1 -1644 14 -289 20 -717 10
-757 -8 -31 27 -106 53 -114 9 -3 25 -10 36 -16 12 -6 195 -11 485 -14 256 -2
606 -6 776 -9 549 -9 1528 -14 1609 -8 68 5 83 10 103 31 15 16 21 32 17 44
-3 10 -1 25 6 33 6 7 10 30 10 52 -1 21 2 106 5 188 8 229 11 2060 4 2228 l-7
147 -35 43 c-20 25 -53 51 -79 61 -62 26 -95 42 -163 81 -33 19 -67 37 -75 41
-8 3 -22 10 -30 15 -8 5 -25 14 -38 19 -13 6 -30 17 -38 25 -9 8 -23 15 -32
15 -10 0 -25 9 -35 20 -9 11 -23 20 -31 20 -7 0 -19 6 -25 13 -6 8 -30 20 -53
27 -24 8 -54 24 -67 37 -13 13 -29 23 -36 23 -7 0 -30 12 -51 26 -34 24 -85
54 -149 88 -11 6 -53 31 -93 56 -85 53 -133 81 -228 134 -38 21 -94 53 -124
71 -72 42 -123 61 -185 69 -46 7 -57 4 -120 -30z m285 -165 c30 -17 71 -41 90
-54 19 -13 46 -29 60 -35 28 -12 52 -26 95 -55 38 -25 61 -39 108 -65 21 -11
48 -29 59 -40 12 -11 25 -20 30 -20 4 0 42 -20 84 -45 41 -25 80 -45 84 -45 5
0 13 -6 17 -13 4 -8 33 -26 63 -41 30 -15 64 -33 75 -39 110 -65 204 -117 214
-117 6 0 11 -4 11 -8 0 -5 18 -17 40 -27 22 -10 40 -21 40 -25 0 -4 13 -10 29
-13 16 -3 35 -12 43 -20 7 -8 29 -21 48 -30 19 -10 48 -28 64 -40 l29 -24 4
-134 c7 -250 -1 -2171 -10 -2251 -2 -21 -5 -55 -5 -76 -1 -21 -8 -47 -16 -57
-13 -19 -33 -19 -452 -21 -242 0 -449 1 -460 3 -21 4 -21 6 -22 341 0 564 -10
913 -27 939 -14 21 -53 33 -105 32 -14 0 -54 0 -90 1 -250 4 -695 -27 -747
-52 l-28 -13 2 -240 c7 -730 7 -984 2 -989 -5 -5 -51 -6 -191 -5 -16 0 -59 1
-98 0 -38 0 -78 0 -87 0 -10 1 -36 0 -58 0 -22 -1 -49 -1 -60 0 -11 0 -29 0
-40 -1 -20 -1 -315 6 -346 9 -15 1 -16 25 -16 214 0 116 -3 271 -8 342 -4 72
-9 186 -11 255 -13 482 -18 842 -19 1210 0 491 -14 431 120 521 44 30 82 57
83 62 2 4 8 7 12 7 5 0 44 22 87 50 43 27 83 50 90 50 7 0 16 6 20 13 4 6 35
26 68 42 32 17 65 35 72 42 7 6 23 15 36 19 12 4 24 10 27 14 3 4 22 16 42 26
21 11 97 61 168 112 72 50 135 92 139 92 4 0 16 9 25 19 16 18 62 49 286 193
141 91 134 90 210 51 36 -19 90 -47 120 -64z m180 -2097 l25 -2 3 -576 c1
-317 0 -585 -3 -595 -6 -18 -24 -18 -383 -16 l-377 3 -2 204 c-1 220 -8 421
-24 754 -5 114 -8 210 -6 213 3 2 78 6 168 9 90 3 164 6 166 7 2 3 400 1 433
-1z"/>
</g>
</svg>
