<svg width="250" height="250" viewBox="0 0 250 250" fill="none" xmlns="http://www.w3.org/2000/svg">
<g clip-path="url(#clip0_137_2750)">
<path d="M61.0305 139.982C60.854 139.944 60.8667 139.931 61.0431 139.881C61.0053 139.982 60.9801 140.083 61.0305 139.982Z" fill="black"/>
<path d="M166.624 198.754L166.612 198.943L166.233 198.855L166.624 198.754Z" fill="black"/>
<path d="M128.615 52.0379L129.585 52.3025C130.897 52.6555 131.338 53.1597 132.031 53.79L132.674 54.3828L133.481 55.1138L133.67 55.1517L134.956 55.8829L137.049 56.9796C137.616 57.2821 138.158 58.0764 138.473 58.5933C138.574 58.7571 139.053 58.8959 139.242 58.9968C139.797 59.3119 140.213 59.8919 140.654 60.3205L142.23 61.8585L142.596 62.7283C143.175 63.1191 143.705 63.4847 144.121 63.9889L145.369 65.5143L146.529 66.5986L147.411 67.3422C148.079 67.8969 148.622 68.3508 149.201 69.0064C149.542 69.3846 150.172 69.6871 150.664 69.9771C151.357 70.3805 151.609 71.1998 152.139 71.7419L153.248 72.8893L154.295 73.7843L155.732 74.8308L157.32 76.2804L158.266 77.3016L159.438 78.5623C159.829 78.9783 160.232 79.3942 160.711 79.6841L161.859 80.3776C162.136 80.5415 162.728 80.8188 162.943 81.0458L163.737 81.8903L164.834 82.9115L165.88 83.8318C166.636 84.4873 166.296 84.9033 168.011 85.6218C168.338 85.7605 168.729 86.1136 169.044 86.3405C169.574 86.7313 170.292 87.1348 170.608 87.6643L171.225 88.6728C171.767 89.051 171.931 89.4167 172.284 89.9461C172.662 90.5134 173.419 91.1186 173.999 91.5851C174.415 91.9128 174.591 92.2278 174.982 92.6186L176.419 94.0559C176.873 94.5097 177.478 94.1063 178.172 95.2409L178.726 96.1485C178.915 96.4637 180.579 96.7285 181.638 98.7582L182.42 99.5775L183.63 100.8L184.677 101.834L185.773 102.414L186.946 103.776L187.916 104.759C188.232 105.074 188.522 105.364 188.975 105.515C189.908 105.83 189.606 106.625 190.236 107.431C191.03 107.91 191.383 108.528 192.039 109.108L193.325 110.217L194.585 111.276C195.317 111.894 195.745 111.705 196.01 112.235C196.275 112.764 196.565 113.142 197.031 113.533C198.052 114.403 197.283 114.857 197.712 115.815C197.888 116.218 198.065 116.748 197.977 117.063L197.283 117.744L194.674 117.567C194.245 117.542 193.627 117.504 193.249 117.592C192.543 117.756 191.951 117.882 191.295 117.844L189.354 117.756C188.786 117.731 188.169 118.097 187.979 118.525L188.042 118.714C188.244 118.916 188.32 119.231 188.269 119.534L188.093 120.53L187.664 123.442L187.538 125.081C187.5 125.156 187.437 125.27 187.463 125.22L187.5 126.14L187.374 127.526L187.248 128.195C187.135 128.169 187.16 128.283 187.185 128.384V129.077L187.084 130.25L187.021 131.233L187.084 131.775C186.933 131.888 186.908 131.926 187.072 131.939L187.009 132.758L186.971 134.309L186.996 135.544L187.122 137.095V139.44C186.946 139.541 186.92 139.566 187.009 139.591L186.921 141.469L186.82 142.39C186.794 142.629 186.429 143.083 186.303 143.247L186.441 143.562L185.899 145.453L185.748 146.084L185.572 146.878L185.534 146.991L185.244 148.769C185.156 148.794 185.105 148.945 185.118 148.933L185.244 149.424C185.093 149.512 185.042 149.55 185.143 149.576L185.067 151.315V152.652L185.105 153.534L185.042 154.958L184.979 155.841L184.903 157.051C184.765 157.102 184.55 157.127 184.878 157.215L184.916 157.719L184.891 159.686L184.689 161.514L184.588 162.296V163.039V163.581L184.525 163.67L184.626 164.577C184.487 164.729 184.424 164.804 184.424 164.792C184.424 164.792 184.588 164.968 184.588 165.006V166.595L184.487 167.086L184.437 167.83L184.412 169.28C184.185 169.393 184.109 169.482 184.487 169.406L184.462 170.339L184.26 171.423V172.116C184.172 172.52 184.185 172.973 184.349 173.339C184.714 174.121 184.097 174.864 184.046 175.545L183.908 177.65C183.882 177.94 183.756 178.281 183.63 178.583L183.592 179.907L183.756 181.483C183.567 181.609 183.529 181.634 183.668 181.659L183.428 183.008L183.403 184.483L183.063 186.299V187.08L183.025 187.194L183 188.543V189.11C182.886 189.211 182.76 189.223 183 189.312L182.924 190.648L182.899 192.426L182.874 193.938C182.874 194.077 182.798 194.304 182.723 194.506C182.622 194.506 182.899 194.506 182.987 194.506L182.659 194.972H182.886L182.836 195.955L182.912 197.657C182.937 198.325 182.294 198.792 181.689 198.792L180.214 198.817H178.071L176.205 198.855H175.234H173.658L172.524 198.905H169.624L168.666 198.968H166.8L166.599 198.742L166.523 198.552L166.699 198.224C166.662 197.884 165.993 197.594 165.54 197.531L164.745 197.43L160.913 197.456L158.417 197.418H156.513L154.03 197.443L150.588 197.418H149.302L148.42 197.342L148.105 196.661L148.067 196.485H147.726H147.046H145.936H144.865H143.516H141.927H140.881H139.885H138.536H137.54L136.532 196.447L135.385 196.233L134.628 196.333L131.754 196.498L130.581 196.573L128.627 196.762L126.056 196.926L123.345 196.989L122.362 197.103L121.278 197.14H119.399L118.403 197.166C118.038 197.166 117.622 197.115 117.244 197.065L115.92 196.888H114.684H112.73L110.146 196.939L107.927 197.014L106.44 197.09L104.082 197.279L101.889 197.456L100.515 197.569L97.6529 197.821L96.2661 197.998C95.8375 198.048 95.4088 198.061 94.9802 197.998L93.6818 197.796L92.1942 197.657H91.1226L88.6012 197.607H87.0003L85.6387 197.632H84.5293L82.2097 197.657H81.0121L77.52 197.834L73.6372 197.796C73.7506 197.594 73.9145 197.241 73.9145 197.09C73.9145 196.888 73.3725 196.598 73.1329 196.598L70.8133 196.649L69.0609 196.687H68.0273L66.7666 196.712L65.0773 196.75L63.3502 196.813H62.1147C61.6987 196.813 60.9297 196.838 60.6019 196.687L59.6691 196.245C59.0891 195.968 58.5596 195.451 58.5344 194.808L58.4966 193.812L58.5848 192.085V191.921L58.6479 190.724L58.7109 189.249L58.6353 188.681L58.5848 188.517L58.7109 187.37L58.837 186.765L58.9252 185.315L58.9631 184.017L59.0009 183.097L58.9756 182.693V181.685V180.638L59.1395 178.697C59.2152 178.583 59.2404 178.533 59.0891 178.52L59.2278 178.218L59.2656 178.117C59.2656 178.117 59.1899 178.041 59.2152 178.003L59.3917 177.764L59.4169 176.226L59.379 175.369L59.3539 174.133V173.112V172.066L59.3917 171.007L59.4673 170.112C59.5682 169.998 59.5934 169.973 59.5556 170.011L59.4799 169.582L59.5429 168.662L59.6312 167.918C59.7447 167.817 59.7825 167.78 59.7195 167.83V164.855L59.8581 164.401C59.8077 164.199 59.7572 163.96 59.7572 163.796V162.006V161.892L59.7068 160.631L59.5682 160.001L58.9756 160.064L59.0261 159.169L59.2908 157.392L59.4673 156.534C59.5556 156.421 59.5933 156.383 59.4421 156.37L59.4925 155.98L59.7068 154.442C59.7068 154.379 59.9212 154.139 59.9086 154.114L59.7195 153.824L60.085 152.841H59.8329C59.8329 152.841 59.9086 152.563 59.9086 152.513L60.0094 151.517L60.085 150.66H59.896C60.0346 149.966 60.085 149.412 60.0976 148.756V147.659L60.5641 147.067L60.6019 146.096V145.97L60.5893 145.062L60.6902 144.382L60.8541 143.6L61.207 142.73C61.2701 142.566 61.1692 142.213 61.1692 142.037L61.0936 140.549L61.0558 139.944C61.2322 139.944 61.1818 139.919 61.0684 139.843L61.0431 139.187V137.939L61.0558 137.171L61.1062 135.456L60.9549 134.637C60.9171 134.41 61.0179 133.981 61.1314 133.805C61.1314 133.805 60.8289 133.805 60.8541 133.805C60.8667 133.805 60.9297 133.578 60.9297 133.54L60.9801 132.645C61.2323 132.594 61.1818 132.582 61.0054 132.481L61.2827 131.863L61.2323 130.439L61.2827 129.367L61.4213 127.514L61.6608 125.661L61.787 125.068C61.9761 124.148 61.3205 124.438 61.3962 123.669L61.5222 122.408C61.5222 122.408 61.5726 122.307 61.4592 122.118L61.5852 121.337C61.5978 121.236 61.5348 120.984 61.5096 120.896L61.6735 119.862L61.976 117.958C62.0895 117.265 61.2448 117.076 61.2827 116.029L60.5515 115.525C60.2111 115.286 59.4673 115.223 59.0639 115.21L57.5385 115.159L56.1644 115.084L54.4499 114.781C53.7313 114.655 53.2648 114.579 52.7732 114.088C52.5084 113.823 52.0041 113.394 51.8781 113.104L51.3865 111.907L51.1091 110.949C50.9704 110.482 50.9074 109.701 51.273 109.348L52.6093 108.036C53.0001 107.646 53.3278 107.394 53.6178 106.902C53.8573 106.499 54.3743 105.944 54.7903 105.73C55.9753 105.112 56.5678 104.192 57.5385 103.372L58.6605 102.414L59.6438 101.695L59.5178 101.595L59.7068 101.544L59.7951 101.595L59.9716 100.737C60.0094 100.535 60.3372 100.221 60.5263 100.082L61.9382 99.0229C62.1778 98.8464 62.5055 98.2917 62.7829 98.1278C63.6401 97.6488 64.7747 97.5857 65.4428 97.1445L66.3379 96.5394L66.8674 95.846L67.8759 95.4929L68.7584 94.7869L69.8678 93.5893L70.2586 92.7574L70.9772 92.1144C71.3554 91.7741 71.9479 91.4336 72.4144 91.1311L74.0028 90.072C74.2675 89.8955 74.7718 89.6434 74.9609 89.4417L75.9316 88.4208C76.9779 87.324 78.0117 87.6769 78.1377 86.7566C78.2638 85.8363 78.8437 85.332 79.7892 85.1177L80.9365 84.2984L82.1089 83.7059C82.7518 82.9873 83.5208 82.5459 84.2268 81.8903L84.9201 81.26C85.1849 81.0205 85.853 80.7686 86.1052 80.5542L87.5676 79.3437L89.0803 78.2724L90.0889 77.5032C90.2402 77.3898 90.5427 77.0747 90.7192 77.0117C91.047 76.8982 91.6395 76.7216 91.8916 76.5325L93.3287 75.499L95.2576 74.3137L96.3544 73.6206L97.5646 72.801L97.6907 72.7126L97.905 72.5363L98.0437 72.4227L98.8253 71.8933L99.4808 71.3639L101.006 70.1411L102.519 69.0316L103.427 68.3382L104.511 67.5062L105.166 66.9642L106.793 65.779L108.079 65.1111L109.352 64.5814L110.297 64.0773L111.621 63.3586C112.466 62.9048 112.327 62.6022 113.096 62.1358L113.928 61.6317L114.457 61.2786L115.92 60.3205L116.651 59.7656L118.176 58.669L119.185 57.9882L119.702 57.6856L120.383 57.1436L122.375 55.9713L122.765 55.6684L122.866 55.5804L123.522 55.3533L124.316 54.8239L125.4 54.1304L126.61 53.3111L126.699 53.2354L127.442 52.7565L128.4 52.0631L128.602 52L128.615 52.0379ZM112.705 104.721L114.155 104.696C114.546 104.696 115.353 104.86 115.68 104.721L117.08 104.141C117.647 103.902 118.668 103.977 119.198 104.254C119.677 104.507 119.979 104.582 120.484 104.645L121.757 104.834L123.623 105.049C123.849 105.074 124.291 104.923 124.555 104.772C124.871 104.595 125.312 104.784 125.614 104.809L128.237 105.011L129.371 105.137L130.947 105.377C131.086 105.402 131.514 105.225 131.653 105.2L132.977 105.074C133.494 105.024 134.338 104.898 134.805 104.986L137.502 105.515C138.019 105.616 138.851 106.045 139.343 105.931C140.49 105.692 141.474 105.654 142.621 105.856C143.39 105.994 144.033 105.818 144.764 105.49C145.167 105.301 145.961 105.49 146.428 105.591L148.231 106.02L149.693 106.057C150.374 106.07 151.206 106.284 151.761 106.057C152.555 105.73 153.16 105.629 153.979 105.654L156.488 105.717C157.081 105.73 157.925 105.767 158.429 105.629C159.249 105.389 159.879 105.326 160.686 105.553L162.527 106.07C163.132 106.234 163.623 106.272 164.266 106.196L165.943 105.982L167.595 105.679C167.985 105.604 168.716 105.515 169.044 105.641C169.775 105.906 170.418 106.12 171.162 106.057L172.725 105.931L173.028 105.73L171.969 104.948L171.15 104.343L170.683 103.813L168.653 101.922C168.364 101.645 168.162 101.053 168.036 100.637L167.115 99.9431L165.993 98.9724L164.695 97.8L163.976 97.0435L163.346 96.2495L161.758 95.2409L160.711 94.4339C160.484 94.2574 160.106 93.7282 159.98 93.4761C159.753 93.0348 159.564 92.8709 159.287 92.5053L158.266 91.1437L157.824 91.5851L157.61 90.9421L157.358 90.1982C156.992 90.0973 156.589 89.9083 156.362 89.6057C155.681 88.7359 154.761 88.9249 153.689 87.0465C153.387 86.5045 152.857 86.1767 152.315 85.8364L150.386 84.6388C150.046 84.4245 149.239 84.3361 149.025 83.8949L148.092 82.0417C147.638 81.1341 146.453 80.5038 145.621 79.8861L144.487 79.0286L143.655 78.3856L142.268 77.0496L141.549 76.1542L140.894 75.4611L140.074 74.7046L138.688 73.4692L137.944 72.7883L137.187 71.616C136.797 71.0109 136.418 70.4688 135.826 70.0528L134.653 69.2458L133.115 68.1618L131.224 66.775C131.01 66.6111 130.682 66.1321 130.531 65.9052L129.737 64.7076L128.35 64.8082C127.934 65.6529 127.215 65.3632 126.623 66.0314L125.602 67.1911L124.076 68.3508C123.736 68.6155 123.156 69.8134 121.53 70.1538L120.912 71.2125C120.13 72.5488 118.794 72.1453 117.912 72.7126L116.601 73.5449C115.945 73.9609 115.983 74.8936 115.327 75.2466L113.764 75.8391C112.995 76.129 112.365 76.3434 112.239 77.2259C112.188 77.5411 111.495 77.7177 111.079 77.6294C109.982 77.4151 109.831 78.9908 109.15 79.369L107.826 80.1003C107.562 80.2515 107.259 80.8567 107.095 81.1215C106.73 81.7266 105.961 80.9701 105.166 81.6509L104.271 82.4074L102.116 84.2984C101.75 84.6135 101.334 84.6387 101.258 85.2313C101.195 85.6599 100.868 85.9622 100.325 85.937C99.6699 85.9118 99.7582 86.353 98.8883 86.5799L96.6569 87.1601L95.9005 88.5719C95.4845 89.3283 94.2994 88.6222 93.48 90.3746C93.3792 90.5889 92.9632 90.8915 92.7236 91.0427L92.1816 91.6226C91.7151 91.7991 91.2739 92.0639 90.9209 92.3539L90.0889 92.5681L89.5846 93.4634C89.0299 93.6651 88.2609 93.9803 87.9331 94.3837C87.4667 94.951 87.1137 95.2661 86.4582 95.5813L85.6387 96.5268C85.2983 96.9176 84.8949 97.0815 84.3024 97.2328C83.8234 97.3589 83.2939 97.8631 82.8652 98.1531L81.7937 98.884L80.3187 100.044C79.2976 100.838 79.0958 101.796 77.8856 102.452C76.4989 103.208 76.7006 103.864 75.9694 104.141L74.5196 104.696L73.8263 105.112L73.0825 105.389L72.3765 106.284L74.8348 106.398C75.15 106.41 75.7803 106.486 76.0451 106.385L77.2679 105.931C78.2386 105.566 78.7177 105.982 79.8271 105.83C81.2768 105.629 81.9702 106.31 83.1804 105.667L84.0755 105.54C84.9201 105.313 85.6513 105.263 86.496 105.364L87.6306 105.515C87.9331 105.553 88.6517 105.654 88.866 105.452C89.3577 104.986 89.9376 104.986 90.5805 105.011C91.3747 105.049 92.2194 104.923 93.001 105.011C93.4549 105.061 93.9213 105.099 94.3121 105.011C95.0307 104.835 95.6358 104.872 96.3291 104.834L98.2832 104.734L99.8464 104.696L101.019 104.784L102.67 105.049C103.175 105.137 103.868 105.099 104.36 104.935L105.671 104.532C106.553 104.254 107.322 104.292 108.242 104.532C109.465 104.847 110.285 104.418 111.318 104.658C111.76 104.759 112.163 104.734 112.667 104.734L112.705 104.721ZM99.6195 71.6034L99.5313 71.6791L99.6195 71.7545L99.7077 71.6791L99.6195 71.6034ZM98.1319 72.5994L97.9932 72.6372C97.9932 72.6372 98.2075 72.5742 98.1319 72.5994ZM75.1626 124.892V125.068L75.2509 125.408C75.15 125.648 75.1248 125.938 75.15 126.14L75.1752 126.316L75.15 127.262L75.1122 129.127L74.9609 129.644V130.892L74.7466 132.619L74.9609 132.582L74.797 133.716L74.7339 135.141L74.5575 136.502L74.507 137.095L74.4819 137.687V138.772L74.4566 140.209V140.763L74.444 142.226L74.381 145.453L74.2927 146.739V148.365L74.4188 150.218C73.7254 150.962 73.7759 151.567 73.9019 152.525C73.965 152.967 74.091 153.332 74.2675 153.723C74.1792 153.874 73.8893 154.341 73.8767 154.543L73.7759 155.601L73.8263 157.202C73.8515 157.934 74.5322 157.833 74.2675 158.337C74.1288 158.602 73.9397 159.081 73.8641 159.346L73.5741 160.253C73.4481 160.669 73.5742 161.338 73.5994 161.867C73.612 162.195 73.4355 162.888 73.5615 163.178C73.8389 163.783 73.9901 164.212 73.322 164.741C73.032 164.981 73.1834 165.624 73.3851 166.052C73.7003 166.733 72.4774 167.326 72.9564 168.561C72.5908 170.011 73.5363 170.477 72.8556 171.398C72.49 171.902 72.5152 172.494 72.49 173.049C72.4648 173.49 72.4521 173.805 72.5278 174.284C72.7925 176.037 72.0613 177.045 72.2882 178.407C72.4269 179.214 71.9605 179.39 71.8597 180.26L71.721 181.483L71.6958 182.718C71.4058 183.159 71.1411 183.651 71.7966 184.118L71.3932 184.836C71.0528 185.429 70.6494 185.908 70.8385 186.614C70.9898 187.194 70.8007 187.875 70.3847 188.265L72.2001 188.581L74.2801 188.706L76.8267 189.312C79.0076 187.811 80.6086 189.337 81.5163 189.072C82.1593 188.883 82.6761 188.732 83.2687 188.82C83.8234 188.908 84.4411 188.997 84.9201 188.921L86.6851 188.656L86.4329 188.051C86.3321 187.811 86.269 187.257 86.2564 187.005L86.2312 185.92C86.2312 185.605 86.2186 184.988 86.4707 184.672L87.3658 183.563L88.0718 182.189C88.0088 181.937 87.971 181.609 87.9331 181.294L87.7945 179.945C87.7441 179.516 87.6936 179.315 88.0844 179.025C88.7652 178.508 88.3617 178.004 88.9164 177.209L88.7651 176.239C88.6643 175.57 88.7399 175.129 89.0803 174.537C89.2568 174.234 89.4333 173.906 89.6729 173.679C90.0763 173.301 90.1645 172.973 90.2527 172.457L90.4671 171.183C90.9335 170.805 90.9966 170.414 90.7192 169.91L90.9713 168.801L91.7278 168.145C91.463 167.427 91.9673 166.481 92.7489 166.216C94.1356 165.75 93.5557 165.056 93.7952 164.527L94.2112 163.594C94.3625 163.254 94.9676 162.712 95.0558 162.333C95.2323 161.59 95.6232 161.262 96.0644 160.707L97.199 159.295C97.4637 158.968 97.552 158.753 97.9932 158.577C98.2075 158.488 98.4975 158.211 98.5227 158.022L98.6866 156.711L100.174 155.98C100.313 155.917 100.565 155.551 100.666 155.45L101.914 154.126L102.733 153.257C102.96 153.017 103.565 152.727 103.906 152.551C104.271 151.618 104.977 151.013 106.024 150.697C106.288 150.609 106.641 150.206 106.894 149.954C107.663 149.172 109.125 149.979 109.907 149.059C110.499 148.365 111.167 148.315 112.075 148.605C112.693 148.479 113.386 148.025 114.004 147.622C114.268 147.458 114.949 147.344 115.29 147.269L116.828 146.941L118.945 146.411L120.496 146.323C120.837 146.298 121.303 146.121 121.694 145.983C122.198 145.806 122.778 145.869 123.345 145.831L124.808 145.731L126.358 145.756L127.896 145.882L130.871 146.411L132.951 146.991L135.763 147.861L137.074 148.479L138.738 149.122C139.406 149.386 139.999 149.55 140.49 150.042L141.272 150.824C141.7 151 141.99 151.139 142.268 151.353L143.566 152.336L145.003 153.358L145.936 154.089C146.201 154.29 146.453 154.543 146.63 154.845C147.235 155.917 148.004 155.551 148.054 156.206L148.117 157.039L148.369 158.602L149.113 159.56L150.109 159.913L150.424 161.451C150.563 162.119 150.765 162.712 151.181 163.266C151.634 163.859 151.08 164.703 151.319 165.208C151.786 166.166 153.109 166.115 152.542 167.01C152.24 167.489 152.416 168.069 152.756 168.536L153.046 169.381C153.324 169.746 153.5 170.15 153.589 170.566L153.778 171.524C153.878 172.053 153.841 172.431 153.664 173.011L154.017 174.839C154.055 175.053 154.471 175.507 154.408 175.709L154.118 176.642L154.761 177.487C155.253 178.142 154.383 178.331 154.597 178.949C154.786 179.478 155.026 180.184 155.064 180.676C155.076 180.89 155 181.458 154.887 181.609L154.509 182.101C154.358 182.302 154.408 183.714 154.61 184.534L154.912 185.719C154.622 186.236 154.358 186.816 154.383 187.37L154.408 188.19L156.249 188.505C157.963 187.345 158.354 188.177 158.719 188.278C159.022 188.366 159.627 188.278 160.018 188.24L161.153 188.101L162.716 188.291C163.018 188.328 163.712 188.29 164.002 188.391C164.96 188.757 166.019 188.933 167.065 188.845L168.477 188.719L168.994 187.925L169.322 187.547L169.435 187.471L169.536 187.156C169.196 187.181 169.221 187.03 169.511 186.916L169.385 186.437C169.448 186.084 169.435 185.895 169.397 185.63L169.347 184.156L169.41 184.042V183.777C169.41 183.777 169.599 183.588 169.574 183.538L169.423 183.261C169.423 183.261 169.372 183.223 169.322 183.197C169.347 183.147 169.397 182.996 169.372 183.071L169.561 183.16L169.334 182.63L169.536 182.214L169.347 182.075L169.473 181.874L169.574 180.878L169.612 180.474L169.788 178.684L169.902 177.562V177.411L169.939 177.184L169.851 177.045L169.876 176.907L170.015 177.07L170.141 175.873L170.355 173.906L170.444 173.188L170.406 172.759C170.481 172.658 170.57 172.545 170.519 172.608L170.633 171.284L170.658 170.843L170.734 169.998H170.557L170.696 168.75C170.734 168.435 170.759 168.133 170.86 167.805H170.645L170.734 167.086C170.998 167.048 170.948 166.998 170.734 166.973V165.611V164.325L170.771 162.926L170.734 162.018L170.759 161.174C170.86 161.123 171.137 161.06 170.784 161.01L170.721 160.442L170.809 160.316L170.746 160.089L170.771 159.926L170.897 159.623L170.973 159.522L171.213 158.968L171.112 157.871L171.25 157.102L171.452 155.576L171.843 154.076C171.868 153.988 171.578 153.698 171.503 153.622L171.742 152.072L171.969 151.101L172.07 150.294L172.007 149.185L172.448 146.928C172.549 146.436 172.713 146.071 172.398 145.63V144.987L172.612 142.654L172.688 142.112L172.877 140.801L173.179 138.772L173.305 136.843L173.494 135.771L173.81 132.909L173.873 132.266L174.024 130.628L174.213 128.169L174.163 127.64C174.024 126.215 174.982 125.118 173.973 124.4C173.948 124.148 174.062 123.757 174.112 123.442L174.301 122.232V122.131L174.39 121.236L174.869 119.332C175.032 118.689 174.982 117.908 174.919 117.189C174.894 116.937 174.226 116.785 173.986 116.811L172.814 116.924C172.209 116.987 171.793 116.811 171.225 116.571C170.494 116.269 169.435 116.483 168.641 116.533L167.431 116.596L165.451 116.559L163.964 116.256L162.552 116.206L161.001 116.08L159.173 115.84C158.14 115.702 157.131 115.764 156.249 116.281L155.278 116.105L153.639 116.281L152.404 116.256L150.336 116.672L148.546 116.596L146.012 116.231L143.629 116.042L142.696 115.941C142.104 115.651 141.549 115.588 140.919 115.853C140.326 116.105 140.15 115.714 138.914 115.701H137.414L134.767 115.273C133.531 115.071 133.405 115.752 132.321 115.727L130.947 115.701L128.816 115.588C128.489 115.575 127.896 115.084 127.568 115.096L125.703 115.134L124.581 115.021L122.866 114.806C122.337 114.743 121.58 114.743 121.076 114.832L119.992 115.033L118.328 115.26C117.609 115.361 117.055 115.399 116.386 115.071L114.949 115.033L113.046 115.008C112.655 115.008 112.087 114.983 111.747 115.071C110.676 115.336 109.907 115.235 108.898 114.832C108.545 114.68 107.763 114.832 107.284 114.895C106.679 114.983 106.049 114.857 105.469 114.857C104.738 114.857 103.855 115.159 103.149 115.046C102.494 114.932 102.002 114.945 101.397 115.046L99.9095 115.285L98.9513 115.437L96.2914 115.727L94.8038 115.853L93.3287 115.828L91.11 115.701L89.7737 115.676L88.2735 115.878L85.8909 115.815L84.0125 116.004L83.0417 116.105H80.9742H79.4614L78.2512 116.395L76.5872 116.319C76.3602 116.319 75.9316 116.634 75.8307 116.786L75.087 117.92C74.9735 118.084 74.8979 118.412 75.0366 118.475L75.4651 118.677C75.5408 118.715 75.4904 118.929 75.4904 119.029V120.227L75.4651 121.059L75.6921 121.11L75.3643 122.345L75.2761 123.833L75.213 124.362L75.1878 124.904L75.1626 124.892ZM60.9297 144.066L60.8036 144.142L60.9297 144.218L61.0179 144.142L60.9297 144.066ZM171.767 153.42L171.654 153.496L171.767 153.572L171.856 153.496L171.767 153.42ZM113.222 188.303C113.84 188.492 114.243 187.748 115.806 187.963C118.265 188.291 118.265 187.572 119.261 187.37C120.257 187.169 121.152 187.282 122.122 187.433L123.572 187.66C124.303 187.774 125.022 187.66 125.728 187.421C126.736 187.08 128.224 187.383 129.434 187.711L131.489 187.282C131.93 187.194 132.397 187.345 132.876 187.484C134.552 187.963 135.889 186.79 137.023 187.232C137.893 187.559 138.763 187.635 139.709 187.559L139.772 186.677C139.822 185.933 139.91 185.391 139.57 184.71L139.62 183.437L139.393 182.895L139.809 182L140.528 180.462C140.692 180.109 140.263 179.302 140.099 178.924C139.936 178.545 139.999 178.117 139.961 177.739L139.671 175.533C139.633 175.28 139.734 174.738 139.646 174.524L139.255 173.566C138.7 172.204 139.658 171.536 138.864 170.553C138.675 170.326 138.498 169.948 138.448 169.671C138.208 168.385 138.965 168.006 138.347 167.389L138.801 167.2L137.994 165.838L137.792 165.031L137.502 164.187C136.986 163.972 136.683 163.607 136.57 163.128L136.355 162.283C136.292 162.031 136.242 161.602 136.116 161.426L135.082 160.014C134.414 159.106 133.632 159.459 133.367 158.287C133.216 157.606 132.447 157.139 131.779 156.837C130.834 156.408 130.695 155.778 129.674 155.526C128.88 155.337 128.224 155.425 127.48 155.664C126.093 156.093 124.984 155.488 123.875 156.043L122.639 156.32C122.4 156.547 122.021 156.837 121.795 156.9L119.929 157.404L117.899 158.198L116.828 158.539C116.449 158.665 115.97 159.257 115.706 159.598L114.798 159.888L113.625 160.631L112.68 160.833C112.44 161.905 111.684 161.703 111.155 162.548C110.625 163.392 110.196 162.863 109.806 164.451L109.49 165.737C109.415 166.04 108.86 166.506 108.646 166.784C108.318 167.2 108.621 168.007 107.625 168.788L106.679 169.532L105.86 170.465L105.948 171.12C104.75 171.801 103.717 173.125 104.423 173.856C104.637 174.083 104.738 174.738 104.498 174.902L103.742 175.419C104.057 176.1 103.994 176.856 103.439 177.424L102.544 178.306C103.036 178.873 102.948 179.479 102.607 180.046C102.62 180.979 101.851 180.727 101.8 182.038L101.737 183.626L101.284 184.017L100.805 185.24C100.615 185.706 101.41 185.845 101.221 186.009L100.968 186.248C100.288 186.866 99.8716 188.328 100.199 188.82C100.313 189.009 100.804 189.198 101.057 189.173L103.212 188.883L104.914 188.555L107.662 188.253C108.242 188.19 109.049 188.064 109.579 187.9C110.411 187.635 110.991 187.622 111.835 187.874L113.235 188.291L113.222 188.303ZM171.087 161.678L170.998 161.754L171.087 161.829L171.175 161.754L171.087 161.678ZM170.582 173.528L170.481 173.604L170.582 173.679L170.671 173.604L170.582 173.528ZM170.078 177.89L169.977 177.966L170.078 178.041L170.166 177.966L170.078 177.89ZM169.574 187.698V187.61C169.599 187.534 169.586 187.61 169.574 187.698Z" fill="black"/>
<path d="M187.5 125.194L187.576 125.055C187.576 125.055 187.626 125.169 187.5 125.194Z" fill="black"/>
<path d="M184.891 157.177L184.916 157.013C185.004 157.177 185.042 157.215 184.891 157.177Z" fill="black"/>
<path d="M170.796 161.211C170.746 161.098 170.645 160.909 170.822 161.047C170.822 161.098 170.822 161.161 170.796 161.211Z" fill="black"/>
<path d="M170.784 167.111C170.771 167.2 170.797 167.01 170.784 166.998V167.111Z" fill="black"/>
<path d="M60.9546 132.695L60.9798 132.531C60.9924 132.657 60.9798 132.746 60.9546 132.695Z" fill="black"/>
</g>
<defs>
<clipPath id="clip0_137_2750">
<rect width="250" height="250" fill="white"/>
</clipPath>
</defs>
</svg>
