<?xml version="1.0" standalone="no"?>
<!DOCTYPE svg PUBLIC "-//W3C//DTD SVG 20010904//EN"
 "http://www.w3.org/TR/2001/REC-SVG-20010904/DTD/svg10.dtd">
<svg version="1.0" xmlns="http://www.w3.org/2000/svg"
 width="500.000000pt" height="500.000000pt" viewBox="77 66 342 379"
 preserveAspectRatio="xMidYMid meet">
<metadata>
Created by potrace 1.16, written by Peter Selinger 2001-2019
</metadata>
<g transform="translate(0.000000,500.000000) scale(0.100000,-0.100000)"
fill="#000000" stroke="none">
<path d="M2420 4252 c-14 -4 -138 -84 -249 -158 -24 -16 -69 -46 -100 -66 -31
-20 -61 -41 -67 -46 -20 -18 -131 -92 -138 -92 -4 0 -29 -18 -57 -40 -28 -22
-57 -40 -65 -40 -8 0 -17 -7 -20 -15 -4 -8 -12 -15 -19 -15 -7 0 -37 -16 -66
-36 -30 -20 -76 -47 -104 -61 -27 -14 -63 -35 -80 -47 -74 -55 -136 -96 -145
-96 -5 0 -10 -5 -10 -10 0 -6 -12 -16 -27 -22 -16 -7 -51 -32 -79 -55 -28 -24
-55 -43 -59 -43 -4 0 -27 -19 -51 -42 -43 -42 -52 -64 -36 -83 5 -6 5 -80 1
-165 -4 -85 -10 -247 -13 -360 -4 -113 -9 -257 -12 -320 -3 -63 -5 -155 -5
-205 1 -49 1 -94 1 -100 -6 -84 -6 -369 1 -430 5 -44 12 -150 15 -235 3 -85 7
-193 9 -240 2 -47 4 -154 4 -238 l1 -154 40 -38 c26 -25 54 -42 78 -46 20 -3
53 -9 72 -13 19 -3 58 -6 85 -5 156 5 323 5 420 -1 61 -3 160 -8 220 -10 61
-2 191 -8 290 -12 99 -4 340 -7 535 -5 195 1 375 2 400 1 92 -2 106 -2 140 5
19 3 141 7 271 9 201 3 239 6 260 20 13 9 32 17 43 17 11 0 36 17 55 38 35 37
41 63 20 88 -5 7 -5 33 1 65 11 58 16 571 6 588 -4 5 -9 216 -12 468 -7 507
-7 477 -4 868 4 422 4 421 -122 554 -21 22 -52 45 -70 53 -17 7 -55 25 -82 41
-28 15 -67 35 -86 45 -19 9 -37 20 -40 23 -9 10 -94 64 -120 77 -14 6 -32 16
-40 22 -30 20 -163 90 -172 90 -5 0 -14 4 -21 10 -61 50 -126 99 -156 116 -19
12 -37 27 -39 33 -2 6 -10 11 -17 11 -8 0 -18 6 -22 13 -4 6 -26 26 -47 42
-74 57 -197 145 -203 145 -3 0 -22 14 -43 30 -21 17 -42 30 -48 30 -5 0 -31 9
-57 21 -30 13 -58 19 -76 15 -16 -3 -39 -2 -52 3 -12 4 -29 6 -37 3z m117
-135 c62 -29 121 -65 153 -94 14 -13 28 -23 32 -23 3 0 13 -6 20 -12 7 -7 34
-29 61 -48 26 -19 60 -45 75 -57 15 -13 33 -23 40 -23 6 0 12 -4 12 -9 0 -7
143 -101 155 -101 6 0 139 -93 145 -101 8 -12 77 -57 120 -79 22 -11 44 -29
50 -40 6 -11 16 -20 22 -20 6 0 36 -17 67 -38 61 -42 208 -122 223 -122 10 0
12 -2 80 -60 l47 -41 5 -82 c4 -45 8 -224 10 -397 4 -367 15 -933 17 -940 12
-33 12 -902 0 -932 -7 -20 -19 -28 -43 -32 -96 -14 -226 -27 -333 -31 -66 -3
-127 -8 -135 -10 -8 -2 -91 -7 -184 -10 -120 -4 -172 -2 -182 6 -9 8 -14 35
-15 83 -1 39 -4 96 -7 126 -4 30 -4 89 0 130 17 196 28 784 15 888 -4 33 -29
61 -57 62 -87 6 -428 -15 -575 -36 -22 -3 -89 -9 -150 -14 -142 -12 -131 -10
-157 -37 -21 -23 -23 -36 -28 -186 -3 -89 -4 -308 -2 -487 5 -460 4 -513 -11
-522 -6 -4 -48 -5 -92 -2 -111 7 -514 5 -527 -2 -6 -4 -59 -7 -119 -8 l-109
-1 -1 50 c-1 28 -2 143 -4 256 -1 113 -5 211 -8 216 -3 5 -7 70 -8 144 -1 74
-6 142 -11 152 -6 12 -5 23 3 33 8 10 8 18 1 27 -11 13 -10 261 2 626 3 101 1
202 -4 224 -5 23 -6 46 -2 51 10 17 11 130 0 143 -5 6 -5 13 -1 16 5 3 10 79
11 169 6 285 8 315 25 342 10 14 17 30 17 35 0 5 4 11 10 13 5 2 29 18 52 36
138 105 226 162 253 162 7 0 17 9 20 20 3 11 15 20 25 20 10 0 41 16 69 36 29
19 83 51 120 69 38 19 71 41 75 50 3 8 14 15 24 15 11 0 25 7 32 15 7 8 18 15
25 15 6 0 20 9 31 21 10 12 37 30 59 41 22 11 59 36 82 54 23 19 46 34 52 34
6 0 11 4 11 8 0 5 10 14 23 19 12 6 31 18 42 27 27 23 152 104 195 127 19 11
51 28 70 39 19 11 35 20 36 20 1 0 24 -10 51 -23z m367 -2124 c5 -18 -11 -648
-20 -768 -2 -33 -5 -139 -7 -235 l-2 -175 -75 -7 c-90 -9 -92 -9 -205 -4 -49
3 -175 7 -279 10 -104 3 -193 9 -199 15 -5 5 -11 152 -13 327 -4 323 -13 746
-17 796 l-2 28 175 5 c96 4 216 10 265 14 50 4 154 9 232 10 127 1 142 -1 147
-16z"/>
<path d="M930 3234 c0 -8 5 -12 10 -9 6 3 10 10 10 16 0 5 -4 9 -10 9 -5 0
-10 -7 -10 -16z"/>
<path d="M3965 640 c-3 -5 -2 -10 4 -10 5 0 13 5 16 10 3 6 2 10 -4 10 -5 0
-13 -4 -16 -10z"/>
</g>
</svg>
