<?xml version="1.0" standalone="no"?>
<!DOCTYPE svg PUBLIC "-//W3C//DTD SVG 20010904//EN"
 "http://www.w3.org/TR/2001/REC-SVG-20010904/DTD/svg10.dtd">
<svg version="1.0" xmlns="http://www.w3.org/2000/svg"
 width="181.000000pt" height="181.000000pt" viewBox="6 5 169 169"
 preserveAspectRatio="xMidYMid meet">
<metadata>
Created by potrace 1.16, written by Peter Selinger 2001-2019
</metadata>
<g transform="translate(0.000000,181.000000) scale(0.100000,-0.100000)"
fill="#000000" stroke="none">
<path d="M369 1706 c-54 -15 -144 -71 -186 -116 -40 -43 -62 -135 -68 -292 -3
-67 -7 -159 -11 -202 -10 -143 -6 -722 6 -767 15 -55 104 -144 185 -184 l60
-30 480 -2 c274 -2 514 1 559 7 95 12 145 36 207 99 63 63 82 123 85 266 7
365 16 643 24 730 5 55 8 114 6 130 -3 17 -7 56 -10 88 -10 97 -85 188 -196
238 l-57 27 -317 1 c-175 1 -328 6 -341 11 -36 14 -372 10 -426 -4z m368 -57
c7 -7 116 -10 344 -10 376 2 398 -1 476 -65 27 -22 55 -58 69 -88 23 -49 24
-56 18 -216 -4 -91 -7 -235 -8 -320 -1 -85 -5 -252 -10 -370 -6 -195 -9 -220
-30 -266 -32 -69 -99 -117 -185 -130 -20 -3 -39 -8 -42 -10 -4 -2 -134 -3
-290 -2 -156 1 -378 2 -494 2 l-210 1 -55 29 c-71 37 -98 59 -130 103 l-25 35
0 342 c0 422 12 719 31 794 19 71 49 103 138 147 l69 35 161 0 c103 0 166 -4
173 -11z"/>
<path d="M822 1105 c-89 -42 -107 -141 -42 -233 17 -24 28 -47 25 -52 -11 -18
-94 -37 -151 -36 -102 4 -171 61 -193 163 -14 59 -23 73 -53 73 -25 0 -31 -34
-18 -93 26 -109 59 -145 190 -207 8 -3 49 -7 91 -8 65 0 84 4 134 29 32 16 63
29 69 29 6 0 38 -14 71 -31 183 -94 407 2 469 203 20 66 10 101 -27 96 -17 -2
-26 -17 -42 -66 -21 -66 -93 -162 -122 -162 -9 0 -22 -8 -29 -17 -20 -28 -166
-24 -216 6 -36 22 -37 23 -22 47 9 13 20 24 26 24 19 0 58 104 58 156 0 45 -4
54 -32 78 -28 23 -41 26 -86 25 -30 -2 -74 -12 -100 -24z m138 -55 c37 -23
-51 -181 -91 -165 -22 8 -49 63 -49 98 0 42 38 74 88 75 21 0 44 -3 52 -8z"/>
</g>
</svg>
