<svg width="250" height="250" viewBox="0 0 250 250" fill="none" xmlns="http://www.w3.org/2000/svg">
<path d="M47.3228 3.4373C47.3228 3.4373 47.445 3.24482 47.4541 3.18066L47.3228 3.4373Z" fill="black"/>
<path d="M187.273 248.081C186.671 248.173 185.941 248.06 185.269 248.445C184.795 248.716 183.787 248.313 183.32 247.821L181.859 247.733C180.989 247.253 179.531 246.673 178.722 246.761C177.768 247.342 176.998 247.705 176.009 247.754L172.465 247.928L169.489 247.699L166.678 248.05L163.907 247.693L160.25 247.537C159.755 248.099 159.315 248.588 158.933 248.637C158.484 248.692 157.531 248.307 157.057 248.081C156.758 247.94 155.997 248.078 155.612 248.102L151.86 248.362C150.595 248.451 149.7 248.555 148.542 247.47L147.674 248.377C147.213 248.857 145.774 248.503 145.087 247.971L142.224 248.148C139.676 248.307 138.958 247.436 137.913 248.567C137.623 248.781 136.721 249.049 136.382 249.08L134.675 248.273L132.188 248.053L127.739 248.335L125.909 248.46L122.31 248.429L120.819 248.396C120.184 248.805 118.754 249.101 118.237 248.683L117.33 247.947C116.743 247.47 115.647 249.337 114.159 248.194C112.744 247.109 111.715 248.246 109.747 248.078C108.339 247.959 107.123 247.904 105.742 248.16C104.443 248.402 104.171 246.883 103.23 246.795C102.845 246.758 102.176 247.418 101.721 247.693C100.963 248.151 99.237 247.94 98.4365 247.467C97.6941 247.027 97.3916 246.981 96.6187 247.323C96.0412 247.577 95.1308 247.522 94.4159 247.522C93.5268 247.522 92.8485 247.837 92.2497 246.731L89.0387 246.758L86.8725 247.009C84.8805 248.487 84.1289 247.024 81.9139 246.41C79.9158 245.857 79.5247 248.332 77.1783 246.795C76.6864 247.07 75.4857 247.69 74.9388 247.5L73.6373 247.045C72.2747 248.46 71.5781 247.378 69.3203 247.821C67.0289 248.27 67.0075 246.627 64.3464 247.72C63.8942 247.907 62.8768 247.864 62.2719 247.809L60.1302 247.617C59.6108 247.571 58.5048 248.008 57.9549 248.197L56.0331 247.323L53.2681 247.791L50.9737 248.267L49.0886 248.603L46.6627 247.739C45.3826 247.284 44.0903 247.259 42.7093 246.893L39.7457 246.107C38.8597 245.872 36.8921 245.939 36.3117 245.285C34.9551 243.177 34.1669 244.986 32.5018 243.963L30.8764 242.963L28.475 241.515L26.813 240.425L24.6163 239.38L23.2628 238.298L20.6812 237.027C19.9296 236.658 19.3185 236.141 18.7411 235.432L16.9996 235.5C15.6248 234.507 16.5261 233.016 14.8793 232.457C13.8008 232.09 13.4128 231.461 12.7192 230.712L9.67626 227.431L8.45417 225.873L7.3054 224.192L5.6953 222.249L4.65957 220.862L3.41611 218.818C2.4415 217.217 3.22363 215.855 2.03821 213.572C1.66853 212.86 1.53714 211.904 1.41799 211.033L1.14301 209.026L0.785574 207.031L0.385322 205.345C0.272279 204.862 0.287555 203.93 0.308942 203.353L0.376148 201.678C-1.04453 199.812 1.35687 198.314 -0.616799 197.141L-0.237955 195.204C-0.192126 194.966 -0.317358 194.297 -0.357076 193.973C-0.0362774 193.319 0.586953 191.929 0.486131 191.193L0.0217688 187.792C0.483107 186.784 0.583925 185.904 0.360894 184.82L0.675591 182.913C0.742805 182.498 0.400595 181.544 0.305883 181.129L0.962763 179.855L1.19496 177.472L0.800828 175.107L0.690844 172.528C0.663347 171.902 1.17665 170.549 0.941393 169.968C-0.182928 167.163 0.657256 167.49 0.672532 165.691L0.703077 162.425L0.779458 160.87L0.871092 156.776L0.226445 155.502L0.556432 152.996L0.626697 149.162L0.718331 147.705L-0.390716 145.438C0.159224 143.739 0.150063 142.263 -0.347938 140.571L-0.259325 138.518L-0.25015 135.029C-0.25015 134.097 0.174533 133.18 -0.662598 132.334L0.0278479 130.592C0.266155 129.991 0.12869 128.753 0.00953601 127.928C-0.21044 126.413 -0.0943534 124.901 0.0736837 123.397L0.241736 121.916L0.360894 118.503L0.638892 116.404L0.385322 113.911C0.311997 113.19 0.315042 112.793 0.0309061 112.105C-0.341831 111.213 0.0431569 110.092 0.672532 109.346C-0.0362789 107.443 1.5616 107.055 1.50966 105.805C1.48827 105.314 0.981099 104.458 0.623638 103.933L0.962763 101.58C1.05136 100.975 1.0208 99.9853 0.984134 99.3315C0.956637 98.8579 1.6227 97.7947 1.61659 97.2814L1.57075 93.716L1.89768 91.837C2.26125 89.7381 1.41494 89.6525 2.23069 87.465C2.6462 86.3529 2.25513 84.8467 2.19403 83.4993C2.15431 82.6041 2.62173 81.046 2.66756 80.1355C2.38037 78.1038 1.96793 76.1759 2.22457 74.1839C2.34984 73.2215 2.39567 72.4913 2.19403 71.4587C1.93433 70.1388 3.21142 69.8119 2.50261 68.0735L3.20834 67.0347L2.31013 64.9847C2.06876 64.4317 2.18484 63.5548 2.51786 62.9835V61.8592L3.31221 59.1584C1.99235 57.8782 3.63304 56.87 2.54233 55.3668C2.54233 55.1407 2.90283 54.6214 3.14114 54.1997C3.55359 53.4695 3.24501 51.7708 3.17168 50.8054C3.12891 50.2493 3.89885 49.067 3.92023 48.5109L4.08825 44.2244C4.68707 43.0573 4.76039 41.9666 4.54042 40.769C4.81233 40.2435 5.12397 39.4522 5.27368 38.8289L6.06191 35.5384C6.18412 35.0282 6.30328 34.0994 6.49576 33.7114L7.2382 32.2021L7.87673 30.8181C7.87062 29.5197 8.2739 27.4696 8.66802 26.6722L9.63042 24.7321C9.84123 24.3075 10.4676 23.4856 10.7822 23.1556L12.1846 21.6769C12.6612 21.1728 13.0767 20.7206 13.6816 20.2898C15.4201 19.0525 14.143 17.8121 16.1014 17.3813C17.2563 17.1277 18.0934 16.538 18.7961 15.6367C19.7096 14.4666 21.225 12.8657 21.8146 12.7129C22.6212 12.5021 23.718 12.163 24.2527 11.6833L26.3242 9.82571C28.0656 8.26144 32.2666 9.36437 32.624 6.08918C32.7951 4.51574 35.6762 6.42831 37.7476 3.76721L40.5676 3.99635C41.2184 4.04829 42.3977 3.18672 43.0057 2.86286L45.0557 2.20905C45.627 2.02573 46.5222 1.63467 47.0416 1.67438C48.0254 1.75382 48.6639 1.61022 49.5866 1.49413C50.9248 1.32914 52.7427 1.86992 54.1297 1.24665C54.976 0.86475 56.14 0.406466 56.8702 0.232319L59.3511 1.4208C59.9774 1.72021 61.5417 1.67133 62.0764 1.28637C62.776 0.788369 63.5337 0.287313 64.1875 0.00012207L66.5125 1.55828L69.2133 1.00834C70.631 2.02573 72.2014 1.23443 75.3299 1.3047L77.9207 1.3597C78.4218 1.37192 79.3169 0.773093 79.931 1.09389C80.5085 1.39636 81.089 1.42997 81.6725 1.46052L83.6462 1.84853L86.1393 0.663105C87.0436 0.996124 87.8074 1.19166 88.6781 1.25887L91.0215 1.43913L95.6838 1.55217L98.5129 1.42385L100.52 1.3322L105.497 1.18249L107.119 2.11433C108.354 2.2121 109.631 2.40153 110.52 2.67955L110.917 4.58906L113.047 4.62573C114.44 2.89647 115.115 4.39353 117.471 4.31104L119.796 4.22855L121.525 3.18366L123.282 3.40058C124.901 2.77732 125.344 3.62361 127.036 3.76415C127.803 3.82831 128.362 3.91997 128.903 4.18272C130.831 5.11762 131.5 3.3792 133.575 4.55851C135.435 3.80082 136.373 3.3517 138.405 4.31104L139.734 3.07673L141.35 3.43113C142.511 2.81093 143.758 3.11339 144.656 3.99635C145.466 3.53807 146.51 3.28448 147.451 3.69388C148.426 4.11856 149.223 3.7061 150.354 3.87109L153.968 4.39964C154.255 4.29271 155.05 3.67555 155.355 3.76721L157.277 4.33242L159.819 3.15922C160.842 2.68872 161.594 4.65628 163.244 3.69083C164.478 2.9698 165.486 4.2591 167.057 3.44641C168.765 2.56345 168.752 4.67461 170.579 3.7886C171.126 3.52279 172.458 3.03701 173.024 3.22644L175.639 4.10023C176.39 3.21116 178.031 3.37003 178.832 3.72444C179.217 3.89553 180.188 3.27226 180.582 3.23255C181.52 3.13783 183.124 3.67555 184.099 3.96274C186.491 2.41375 187.628 4.70822 189.012 4.24077L191.065 3.54723C191.508 3.39753 192.33 3.62667 192.95 3.89858C194.031 4.36909 195.541 3.80693 196.598 3.74582L200.747 3.50446C201.657 3.45252 202.345 3.76415 203.209 4.10939L206.228 5.3101C207.807 5.93947 209.008 3.70916 210.591 4.54935L212.335 5.47813C214.095 6.41609 214.798 7.3296 215.122 7.3907L217.786 7.90398L220.945 8.2981L223.291 10.5926C224.107 11.39 226.951 10.559 227.193 12.2699C227.312 13.1162 227.999 12.4868 229.258 14.1336C229.661 14.6621 230.065 15.0226 230.556 15.429L232.649 17.1582L234.107 19.0922L236.169 20.8734L237.327 21.2583C237.687 22.1719 238.103 23.0212 238.745 23.6323C240.956 25.7342 240.843 27.4268 242.386 28.5328C244.024 29.7091 242.9 30.3751 244.528 31.5758C245.655 32.4068 244.305 33.3601 245.53 33.9008C246.022 34.1178 246.642 34.4538 246.835 34.7624C247.464 35.7615 246.04 36.6811 246.768 37.6465C248.118 39.443 247.55 40.9095 248.203 42.3149L249.169 44.3803L248.362 45.3426L248.943 48.2604L249.765 53.8362C249.474 54.1814 248.869 55.0521 248.998 55.4371L249.862 58.0096C249.542 59.2653 249.685 60.5638 249.792 61.8408L250 64.3186L249.982 66.6742C249.814 67.0347 249.624 67.6794 249.627 68.0338L249.646 69.7294L249.691 72.2194L248.76 76.0232C248.093 78.7515 249.591 79.2556 248.167 81.0307C247.421 81.9595 248.784 82.6194 248.439 83.9301L247.831 86.2429L247.253 88.4304C247.076 89.1087 247.11 90.6241 247.232 91.3237C247.58 93.3004 247.437 95.2222 246.67 97.1561C246.331 98.0116 246.419 98.6715 246.835 99.5606C247.547 101.085 246.349 103.095 246.444 104.916L246.554 107.043L246.505 109.169L246.786 111.268L246.884 113.938L247.11 117.009C247.247 118.888 247.388 120.507 247.113 122.374L247.98 125.279L247.379 127.999L247.849 129.737C247.54 130.382 247.476 130.803 247.473 131.28L247.467 133.238L247.418 135.954L247.547 138.615C247.605 139.792 245.943 141.628 246.835 143.987C247.192 144.931 247.473 145.679 246.914 146.599C246.538 147.219 246.688 148.102 247.207 148.704L246.392 151.038C247.11 152.825 245.576 153.992 246.236 154.775C246.902 155.56 247.107 156.965 246.324 158.038C245.423 159.272 246.881 162.083 246.117 163.687C245.717 164.527 245.448 165.043 245.344 165.896L244.983 168.85L245.264 170.316C245.112 171.163 245.115 172.147 245.237 173.011C245.27 173.543 244.852 174.606 244.617 175.153C245.136 176.308 244.944 177.252 244.882 178.587L244.727 182C244.653 183.582 244.94 185.525 244.604 187.08C244.513 187.508 245.047 188.397 245.258 188.739L245.185 191.275C245.164 192.042 245.53 192.956 245.909 193.753L245.225 196.332L245.585 198.861L245.274 200.927L244.852 205.036C244.721 206.307 244.494 207.373 243.663 208.32L243.352 210.929C242.533 212.695 243.391 213.163 242.86 214.241L242.011 215.968C241.201 217.611 242.353 218.769 241.06 219.933C240.196 220.715 238.925 221.901 238.858 222.897C238.741 224.657 238.198 225.393 237.214 226.551L235.622 228.424L233.954 230.599C232.927 231.94 232.304 231.323 231.675 232.67C230.871 234.387 230.147 233.764 228.409 235.072L226.716 236.346L225.161 238.161L223.105 239.594L220.318 240.4C219.671 240.59 219.005 241.173 218.638 241.821C218.186 242.618 217.337 242.637 216.6 242.832L213.658 243.62L212.586 244.399L209.912 244.567C209.314 244.604 208.067 245.075 207.505 245.273C206.124 246.621 204.832 245.802 201.816 246.541L200.469 246.871L198.428 246.932L193.463 247.061C193.118 247.424 192.262 248.325 191.813 248.252L189.015 247.806L187.246 248.078L187.273 248.081Z" fill="white"/>
<path d="M185.409 244.812C184.829 244.901 184.126 244.791 183.478 245.163C183.02 245.426 182.052 245.038 181.603 244.561L180.197 244.476C179.36 244.012 177.958 243.449 177.176 243.535C176.256 244.097 175.517 244.448 174.563 244.494L171.151 244.662L168.285 244.439L165.578 244.778L162.911 244.433L159.388 244.283C158.911 244.827 158.49 245.304 158.12 245.347C157.689 245.399 156.77 245.026 156.311 244.809C156.024 244.671 155.291 244.806 154.918 244.83L151.304 245.081C150.088 245.166 149.223 245.267 148.108 244.216L147.271 245.093C146.828 245.561 145.441 245.215 144.778 244.699L142.019 244.873C139.566 245.026 138.872 244.183 137.867 245.276C137.586 245.484 136.721 245.744 136.394 245.771L134.751 244.992L132.355 244.781L128.072 245.053L126.309 245.176L122.842 245.145L121.406 245.111C120.791 245.506 119.417 245.796 118.922 245.389L118.048 244.675C117.486 244.213 116.429 246.019 114.993 244.913C113.63 243.862 112.64 244.965 110.743 244.8C109.386 244.684 108.213 244.632 106.884 244.879C105.634 245.111 105.372 243.642 104.464 243.556C104.095 243.523 103.45 244.158 103.01 244.427C102.28 244.87 100.618 244.665 99.8479 244.207C99.133 243.779 98.8428 243.737 98.0973 244.07C97.5412 244.317 96.6644 244.262 95.9769 244.262C95.1215 244.262 94.4677 244.568 93.8902 243.498L90.7984 243.526L88.7116 243.77C86.7929 245.203 86.0688 243.785 83.9363 243.193C82.0115 242.658 81.6357 245.053 79.3749 243.565C78.9013 243.834 77.7434 244.433 77.2179 244.25L75.9652 243.81C74.6546 245.179 73.9824 244.134 71.8071 244.561C69.6012 244.998 69.5798 243.404 67.0165 244.464C66.5796 244.644 65.6019 244.601 65.0184 244.549L62.9561 244.363C62.4581 244.317 61.3888 244.742 60.8603 244.925L59.0088 244.079L56.3446 244.531L54.1357 244.992L52.3209 245.316L49.9867 244.479C48.7554 244.036 47.5089 244.015 46.1799 243.657L43.3233 242.896C42.4709 242.667 40.5736 242.734 40.0145 242.099C38.7068 240.055 37.9492 241.809 36.3452 240.819L34.7809 239.853L32.4681 238.451L30.8671 237.394L28.7499 236.383L27.4483 235.335L24.9614 234.103C24.2373 233.746 23.6507 233.245 23.0916 232.561L21.4143 232.625C20.0883 231.662 20.9591 230.22 19.3734 229.676C18.3346 229.319 17.9619 228.711 17.2928 227.987L14.3628 224.809L13.1866 223.3L12.0806 221.672L10.5286 219.79L9.53255 218.445L8.33489 216.466C7.39693 214.914 8.14853 213.597 7.00893 211.385C6.65453 210.694 6.52618 209.772 6.41008 208.925L6.14428 206.982L5.79904 205.051L5.41408 203.42C5.30409 202.952 5.31937 202.051 5.34076 201.492L5.40494 199.873C4.0362 198.064 6.349 196.616 4.44865 195.479L4.81527 193.603C4.86109 193.374 4.73889 192.724 4.70222 192.412C5.0108 191.779 5.60964 190.432 5.51492 189.72L5.06582 186.427C5.51188 185.452 5.60963 184.6 5.39271 183.546L5.69517 181.7C5.76239 181.297 5.42936 180.374 5.34076 179.974L5.97321 178.74L6.19623 176.43L5.81739 174.139L5.71046 171.639C5.68602 171.031 6.17789 169.724 5.9518 169.159C4.87025 166.443 5.67684 166.76 5.69211 165.016L5.7196 161.854L5.79598 160.347L5.88459 156.385L5.26437 155.15L5.58213 152.725L5.64934 149.012L5.73795 147.601L4.67168 145.404C5.20023 143.758 5.19412 142.331 4.7114 140.69L4.79695 138.701L4.80609 135.322C4.80609 134.418 5.21551 133.532 4.40894 132.713L5.07189 131.026C5.30104 130.443 5.16968 129.245 5.05358 128.445C4.84277 126.978 4.95275 125.512 5.11773 124.057L5.27967 122.622L5.39577 119.316L5.66463 117.284L5.42019 114.867C5.34992 114.171 5.35298 113.786 5.07801 113.12C4.72055 112.258 5.09024 111.171 5.69517 110.45C5.01386 108.607 6.55064 108.228 6.50175 107.022C6.48342 106.545 5.99152 105.717 5.64934 105.207L5.97627 102.928C6.06181 102.341 6.0343 101.385 5.99764 100.749C5.97014 100.291 6.61479 99.2613 6.60868 98.7633L6.5659 95.3109L6.8806 93.49C7.23195 91.4583 6.41316 91.3727 7.20141 89.2554C7.60165 88.18 7.22585 86.7196 7.16475 85.415C7.12503 84.5473 7.5772 83.0381 7.61998 82.1582C7.34501 80.1906 6.94477 78.3208 7.1953 76.393C7.31445 75.4611 7.36028 74.7523 7.16475 73.7532C6.91422 72.4762 8.14547 72.1584 7.4611 70.475L8.14241 69.4668L7.27779 67.4809C7.04254 66.9432 7.15861 66.0938 7.47941 65.5439V64.4532L8.24321 61.8379C6.97224 60.5975 8.55181 59.6198 7.50082 58.1655C7.50082 57.9455 7.84911 57.4414 8.0752 57.0351C8.47238 56.3293 8.17601 54.6826 8.10269 53.7477C8.05991 53.2069 8.80233 52.0642 8.82371 51.5235L8.98565 47.3714C9.56309 46.241 9.63334 45.1839 9.42253 44.0229C9.68527 43.5157 9.9847 42.7458 10.1283 42.1439L10.886 38.9573C11.0021 38.4624 11.1182 37.5642 11.3015 37.1884L12.0164 35.728L12.6305 34.3867C12.6244 33.131 13.0124 31.1451 13.3943 30.3722L14.3201 28.4932C14.5217 28.0838 15.1266 27.2864 15.4291 26.9656L16.7795 25.5358C17.2378 25.05 17.638 24.61 18.2216 24.1915C19.8958 22.9938 18.6646 21.7931 20.5527 21.3745C21.6648 21.1301 22.4714 20.5557 23.1466 19.685C24.0265 18.5515 25.4869 16.9995 26.0521 16.8528C26.8312 16.6512 27.8853 16.3182 28.3985 15.8538L30.3936 14.0542C32.0709 12.5388 36.116 13.6082 36.4612 10.4338C36.6262 8.9123 39.4004 10.7638 41.3954 8.18516L44.1115 8.40819C44.7378 8.46013 45.8744 7.623 46.4579 7.31136L48.4316 6.67893C48.9815 6.50173 49.8462 6.12288 50.3442 6.1626C51.2913 6.23898 51.9054 6.09844 52.7945 5.98845C54.0838 5.82653 55.8344 6.35203 57.1695 5.75015C57.9853 5.38047 59.1065 4.9344 59.8092 4.76942L62.1984 5.91818C62.8003 6.20843 64.3065 6.15955 64.8229 5.78987C65.4981 5.30714 66.2252 4.82442 66.8546 4.54333L69.0941 6.05261L71.6941 5.52101C73.0597 6.50479 74.5721 5.74098 77.5845 5.8082L80.0806 5.86319C80.5633 5.87236 81.4249 5.29492 82.0177 5.60655C82.5737 5.89985 83.1328 5.93346 83.695 5.96401L85.5953 6.3398L87.9967 5.19104C88.8674 5.5149 89.6007 5.70126 90.4409 5.76848L92.6987 5.94263L97.1899 6.05261L99.9151 5.93041L101.849 5.8418L106.643 5.69821L108.207 6.5995C109.395 6.69421 110.624 6.87752 111.482 7.14944L111.867 8.99785L113.917 9.03451C115.258 7.36025 115.909 8.81148 118.179 8.72899L120.419 8.64955L122.084 7.63827L123.776 7.84908C125.338 7.24415 125.762 8.066 127.394 8.20043C128.133 8.26154 128.671 8.3532 129.19 8.60678C131.045 9.51112 131.692 7.8277 133.691 8.97341C135.484 8.24015 136.388 7.80326 138.344 8.73204L139.624 7.53745L141.179 7.88269C142.297 7.28081 143.498 7.57411 144.362 8.42958C145.145 7.98657 146.15 7.7391 147.054 8.13627C147.992 8.54873 148.762 8.1485 149.85 8.30737L153.333 8.81759C153.611 8.71371 154.374 8.11794 154.668 8.20349L156.519 8.75037L158.969 7.61383C159.953 7.15555 160.677 9.06506 162.269 8.12711C163.458 7.42746 164.429 8.67705 165.941 7.8888C167.585 7.03334 167.573 9.07728 169.333 8.22182C169.858 7.96518 171.145 7.49468 171.685 7.67799L174.203 8.52429C174.927 7.66272 176.509 7.81548 177.276 8.15766C177.646 8.32264 178.584 7.71771 178.963 7.68105C179.864 7.58939 181.413 8.10878 182.351 8.3868C184.655 6.88669 185.748 9.10783 187.084 8.65566L189.063 7.98351C189.488 7.83992 190.282 8.05989 190.881 8.32264C191.923 8.77787 193.374 8.23404 194.395 8.17599L198.391 7.9438C199.268 7.89186 199.931 8.19738 200.762 8.52734L203.667 9.69138C205.189 10.2994 206.347 8.13933 207.868 8.95507L209.549 9.85331C211.244 10.7607 211.92 11.6467 212.231 11.7078L214.798 12.2028L217.841 12.5847L220.098 14.8089C220.884 15.5818 223.624 14.7753 223.856 16.4343C223.972 17.2561 224.632 16.6451 225.845 18.2399C226.233 18.7501 226.621 19.1015 227.095 19.4925L229.111 21.1668L230.517 23.0396L232.503 24.7658L233.618 25.1386C233.966 26.0215 234.363 26.8464 234.983 27.4392C237.113 29.4739 237.003 31.1115 238.491 32.187C240.07 33.3266 238.986 33.9712 240.553 35.1322C241.638 35.9388 240.339 36.8615 241.518 37.3839C241.992 37.5947 242.588 37.9186 242.774 38.218C243.379 39.1865 242.01 40.0756 242.71 41.0104C244.008 42.7519 243.462 44.1695 244.094 45.5322L245.023 47.5333L244.247 48.4652L244.806 51.2913L245.597 56.6929C245.319 57.029 244.736 57.8692 244.861 58.2419L245.695 60.735C245.386 61.9509 245.524 63.2097 245.628 64.444L245.829 66.8454L245.814 69.1276C245.652 69.479 245.469 70.1023 245.472 70.4444L245.49 72.0851L245.536 74.4987L244.641 78.1833C243.999 80.8261 245.441 81.3119 244.07 83.032C243.352 83.9332 244.665 84.5718 244.332 85.8397L243.746 88.0792L243.19 90.1995C243.019 90.8564 243.052 92.3229 243.171 93.0011C243.504 94.9137 243.37 96.7774 242.631 98.6502C242.304 99.4782 242.389 100.117 242.789 100.981C243.474 102.457 242.322 104.403 242.414 106.169L242.518 108.228L242.469 110.288L242.741 112.322L242.835 114.907L243.052 117.88C243.187 119.701 243.321 121.268 243.055 123.074L243.889 125.888L243.309 128.521L243.764 130.205C243.468 130.831 243.404 131.237 243.404 131.702L243.397 133.599L243.349 136.229L243.474 138.808C243.529 139.948 241.928 141.726 242.789 144.011C243.135 144.925 243.404 145.652 242.866 146.541C242.502 147.14 242.646 147.995 243.147 148.579L242.362 150.84C243.052 152.569 241.577 153.702 242.212 154.457C242.854 155.218 243.049 156.58 242.298 157.619C241.43 158.817 242.832 161.539 242.096 163.088C241.711 163.901 241.451 164.402 241.353 165.227L241.008 168.089L241.28 169.51C241.134 170.332 241.137 171.282 241.253 172.122C241.286 172.635 240.88 173.665 240.657 174.197C241.158 175.315 240.972 176.231 240.914 177.524L240.764 180.83C240.694 182.36 240.969 184.242 240.648 185.752C240.559 186.167 241.075 187.029 241.277 187.359L241.207 189.815C241.185 190.557 241.537 191.443 241.903 192.216L241.247 194.712L241.595 197.163L241.295 199.161L240.889 203.142C240.764 204.373 240.544 205.406 239.746 206.322L239.447 208.852C238.659 210.563 239.487 211.015 238.973 212.06L238.155 213.731C237.376 215.323 238.482 216.444 237.241 217.572C236.407 218.329 235.185 219.478 235.121 220.444C235.011 222.148 234.485 222.86 233.538 223.981L232.005 225.796L230.401 227.901C229.411 229.2 228.812 228.601 228.207 229.906C227.434 231.568 226.734 230.963 225.06 232.231L223.429 233.465L221.931 235.225L219.952 236.612L217.269 237.394C216.643 237.577 216.004 238.142 215.65 238.769C215.213 239.542 214.397 239.557 213.685 239.749L210.853 240.513L209.821 241.268L207.245 241.43C206.671 241.467 205.47 241.922 204.929 242.114C203.6 243.419 202.357 242.624 199.451 243.342L198.156 243.663L196.191 243.724L191.41 243.85C191.077 244.201 190.255 245.075 189.821 245.004L187.126 244.574L185.425 244.836L185.409 244.812ZM181.648 235.567C182.715 235.39 183.109 235.157 183.925 235.619C185.085 236.279 185.422 234.852 187.056 235.454C187.792 235.726 188.504 235.753 189.201 235.625L191.41 235.219L193.991 235.096L198.932 234.452L200.621 233.135C201.315 232.594 202.696 234.644 203.359 233.715C205.18 231.167 207.667 232.982 208.968 231.427C209.753 230.492 210.917 231.287 211.672 230.501C212.488 229.655 213.67 229.108 214.733 228.641L217.22 227.541C217.474 227.125 218.024 226.145 218.449 225.992C220.147 225.387 221.614 223.988 222.833 222.741C223.627 221.928 224.324 221.262 224.996 220.291L226.117 218.675C227.44 216.765 226.768 215.577 228.014 214.51C228.821 213.82 229.038 213.041 229.304 212.057L229.924 209.772L230.504 207.673C230.636 207.193 230.602 206.255 230.578 205.586L231.571 203.716L231.375 202.506C231.922 201.73 232.008 200.505 231.769 199.659C231.491 198.666 232.31 198.37 232.047 196.937L231.647 194.764C231.458 193.732 231.583 193.035 232.567 192.308L231.778 190.319C232.331 188.431 229.985 188.361 231.534 186.048L231.479 184.817L231.528 183.307C231.552 182.562 231.357 181.639 231.693 180.888C232.197 179.763 231.146 179.879 231.342 178.153L231.626 175.639L231.739 172.917C231.788 171.783 231.568 170.647 231.974 169.55C232.655 167.71 231.537 167.399 231.84 165.77L232.438 162.532L232.918 160.045C233.184 158.664 233.346 156.99 232.918 155.719C232.625 154.845 232.668 154.408 232.784 153.534L233.431 148.731L233.578 145.768L232.845 143.244C233.257 141.976 233.48 140.925 233.486 139.499C233.492 138.173 234.724 137.885 234.152 137.018C233.019 135.291 234.699 134.635 234.55 133.116L234.226 129.789L234.284 125.512L234.171 123.914L233.911 120.498L233.523 118.747C233.123 117.849 233.114 117.089 233.651 116.267L233.587 115.161C233.648 114.678 233.725 113.929 233.679 113.523L233.34 110.639C233.422 110.471 233.642 109.857 233.618 109.634L233.138 105.323C233.025 104.305 232.646 103.731 233.44 102.76C234.476 101.495 231.552 100.028 232.713 98.9924L233.331 98.4394C233.444 98.3386 233.294 97.8192 233.355 97.6634C233.636 96.9302 233.865 95.6164 233.932 94.7121L234.149 91.7241L234.204 89.9643L234.238 88.9469C234.455 88.3205 234.73 87.3948 234.76 86.8021L234.861 84.639L234.843 81.5135L235.185 80.1662C235.133 78.9318 235.316 78.0611 235.775 76.7474C236.065 75.9225 235.775 74.2451 235.903 73.4172C236.209 71.471 235.848 70.5605 236.435 68.9932L235.995 68.0644L235.689 65.7669C236.661 64.3126 236.459 62.9378 236.386 61.3429C236.346 60.4966 236.505 59.5006 236.205 58.6635C235.46 56.589 236.875 56.5951 235.475 54.4656C235.099 53.8943 235.521 52.3636 235.561 51.6732C235.197 50.7505 234.568 49.2962 234.864 48.5141C235.695 46.3204 234.498 46.797 234.085 44.8967L233.456 42.0034C233.318 41.3771 233.031 40.8241 232.539 40.268C232.249 39.9411 231.928 39.0704 231.727 38.6671L230.486 36.1832C230.327 35.8685 230.135 34.9397 229.86 34.6861L227.856 32.8286C227.049 32.08 226.545 31.6431 226.404 30.476L224.913 29.3028C224.25 28.5177 223.627 27.6683 222.759 27.1611L220.786 26.0093L218.54 24.6895C218.259 24.5245 217.816 23.724 217.614 23.4185C216.851 23.0855 215.515 22.4805 215.002 21.8328C213.23 19.5995 211.779 21.0232 208.733 19.5597L206.955 18.7073C205.479 17.9985 204.376 18.6279 203.417 17.858C200.936 18.8418 199.592 17.0056 197.108 17.4639L194.389 16.639C193.771 16.4526 192.87 16.639 192.229 16.6756L190.154 16.7917C189.726 17.14 188.795 17.5311 188.293 17.4303L185.868 16.9323C184.532 16.6573 183.133 16.6939 181.783 16.9292L179.058 17.3997L177.689 17.1919C176.879 17.6013 176.149 17.6808 175.321 17.5586L172.99 17.2133C172.119 17.085 171.603 17.1033 170.668 16.8803C168.471 16.3579 167.008 18.634 165.81 17.5983C164.362 16.3457 163.739 18.3285 162.135 17.1461L160.864 17.6227C160.363 17.8091 159.33 17.1736 158.811 17.0178L156.498 16.7092C153.669 16.3334 153.907 18.2704 151.897 17.4089C150.534 16.8253 149.675 17.308 148.417 16.3365C147.625 16.5809 146.244 16.9567 145.371 16.9384L142.948 16.8864C140.369 16.8314 139.743 18.7318 137.858 17.7327L136.141 16.8253C133.917 17.6686 131.726 17.5189 129.557 16.8131C128.356 16.422 127.736 17.0667 126.835 17.7052C124.928 19.0587 121.418 16.144 118.524 17.3264C117.69 17.6655 116.682 17.5983 115.921 17.4669C113.877 18.8357 112.096 17.6991 109.887 17.8274C108.736 17.8946 108.152 18.0688 107.141 17.4364C106.673 17.1431 105.757 17.1339 105.231 17.3233L102.561 18.2857C101.357 18.7196 101.247 17.3142 99.8571 16.5626C98.9772 16.086 98.5342 15.5024 98.1584 14.4209L96.7102 14.5034C95.5064 14.5736 93.9513 14.0878 92.7751 13.7945C91.9624 14.4881 91.2322 14.7875 90.1781 14.2498C89.729 14.0206 88.8216 14.0909 88.2442 14.152L85.7297 14.427C85.0515 14.5003 84.3152 14.3964 83.753 14.5003L82.0207 14.818C79.9371 15.1999 80.1723 13.7518 77.2759 13.7609C76.3594 13.7609 74.9723 13.6235 74.1841 13.8526C72.8825 14.2314 72.2837 14.427 70.973 13.8404C70.4872 13.6235 69.6715 13.9442 68.9474 14.1734C67.6734 14.5767 65.7211 14.0573 64.5021 14.2803C63.283 14.5034 62.4459 14.7142 61.3216 14.1551L59.3784 13.8251L57.0901 14.5797C55.425 15.1297 53.7874 14.3231 51.3768 14.6744C49.1465 15.0014 47.6189 16.5717 45.4497 16.309C44.2551 17.2653 43.2347 17.3325 41.5757 18.5118L39.8739 19.7217C39.1559 20.2319 37.5244 20.406 36.504 20.4946L35.948 21.4968L34.1179 22.7005C33.2685 23.2596 32.1534 23.6262 31.1727 24.0143C29.1318 24.8239 29.3915 25.6549 27.7386 26.9962L25.6763 28.6704L24.717 30.0789C24.2556 30.5341 23.7332 31.0779 23.4369 31.5332L22.1964 33.4427C21.3226 34.79 20.8521 36.4123 20.7574 38.1691L19.8897 39.382L19.8225 41.3587C19.3153 42.0431 19.2084 42.6114 19.5139 43.4638L18.6982 45.2541C18.0322 46.7115 19.7675 47.7533 18.7226 48.563C16.7917 50.057 18.7043 50.8208 17.6411 52.9961C17.4089 53.4696 17.6686 54.6153 17.5311 55.1256L17.0576 56.8548C16.9384 57.2917 17.1706 58.0922 17.4517 58.6666L16.9995 60.35C18.3743 62.2442 15.7591 63.6924 17.4395 65.9135L16.7459 68.0369L16.7215 71.1349L16.642 72.9467C16.6023 73.8999 16.9017 74.8378 17.415 75.7239L16.5168 78.168C16.1807 79.0846 17.8794 79.7354 16.7306 82.1154C16.8345 82.5676 17.1095 83.4658 16.8864 83.8783C15.7102 86.0413 16.7948 87.4559 16.089 90.1109L16.5229 92.1793L15.9912 95.9372C15.8049 97.2601 16.1929 96.9546 16.0035 97.8406C15.8477 98.5647 15.9546 99.3316 15.8324 100.19L15.4536 102.885L15.6338 105.622L15.5574 108.158C15.5391 108.739 15.3252 109.38 15.2122 110.083L14.8517 112.335L14.7875 114.207L14.5064 117.373C14.427 118.274 15.0441 119.875 15.2274 120.853L14.4698 122.838C14.3017 123.275 14.5248 124.387 14.5553 124.833C13.3516 126.767 15.6246 127.498 14.2956 129.755C14.6195 131.573 13.4799 132.12 14.2559 133.88C14.6653 134.806 13.6082 134.821 13.9076 137.904L14.1031 139.914L14.4576 142.095L14.6225 143.919L14.1184 145.111L14.6775 147.256C15.756 148.405 13.544 149.193 14.8883 152.205L14.9464 154.329C15.2427 154.998 15.2855 155.92 15.1786 156.464C14.9067 157.863 16.1318 158.325 15.2091 159.44L15.3191 162.7L15.4383 164.286L15.0655 167.442L15.5605 168.914L15.1205 172.461C15.0197 173.283 15.3161 173.974 15.4383 174.863L15.7407 177.072C15.4597 178.028 15.4077 178.841 15.2366 179.916L14.87 182.211C14.3873 183.43 14.094 184.591 14.9097 185.77L14.6347 187.722C13.8679 188.975 13.8557 190.292 15.0105 191.343L14.2315 193.701C14.1184 194.138 14.4148 195.265 14.4392 195.754L14.5461 197.856C14.592 198.755 14.4026 199.674 14.5706 200.481L15.2427 203.728L15.6185 206.567L15.7866 208.84L16.199 210.358L17.0453 212.806C17.36 213.713 17.9619 214.92 18.6463 215.699L19.7797 216.988C20.1219 217.379 20.9193 217.932 21.1607 218.339C21.8328 219.469 22.3156 221.204 23.4063 221.834C24.497 222.463 25.7649 222.949 26.657 223.832C27.1275 224.299 27.4972 224.614 28.1358 224.846C28.9301 225.136 29.3823 225.827 29.9628 226.362C31.7165 227.969 33.9071 228.268 35.6638 229.823C36.3574 229.994 37.4603 230.3 37.9522 230.816C38.6732 231.574 39.2293 231.736 40.1336 232.102L41.5971 232.692L43.308 233.499L46.1158 235.167C46.9865 234.293 48.1261 234.058 49.2443 234.531L50.9827 235.274C51.9176 236.45 52.4248 235.029 53.8699 235.411C54.5665 235.594 55.0339 235.619 55.6694 235.677L58.3611 235.924L60.5639 235.888C61.9968 235.863 63.6466 235.735 65.0092 235.937C66.2588 236.12 67.212 236.202 68.3364 235.695L70.2673 234.828C71.2907 235.555 72.7237 235.851 73.6769 235.234C75.8736 233.813 76.5518 235.417 77.1843 234.745C78.9624 232.86 79.8026 235.118 81.651 235.072C82.592 234.091 83.695 233.948 84.7154 234.956C85.6472 235.875 86.8174 234.073 88.4122 234.84L89.8879 234.669C90.887 235.054 92.6468 235.481 93.6122 235.057L95.647 234.161C96.1267 233.951 97.2174 233.486 97.6115 233.795L99.2185 235.051C100.96 236.41 102.68 233.822 103.505 234.357L105.793 235.845L107.272 235.546L108.491 236.034C111.009 235.115 112.365 237.342 115.277 235.915L117.623 235.695L120.153 236.364C120.52 236.462 121.5 236.245 121.91 236.184C123.116 236.673 124.473 236.899 125.787 236.609C127.886 236.147 129.129 237.101 130.648 236.572C131.106 236.413 131.806 235.573 132.221 235.665C132.71 235.772 133.636 236.028 134.06 235.995C136.245 235.817 136.602 236.373 137.73 235.726C138.625 235.212 139.722 235.594 140.168 236.636L142.975 235.995C145.016 235.527 145.75 236.575 147.769 235.704C148.734 235.289 149.507 235.472 150.158 236.432L152.511 236.233C152.951 235.686 153.748 234.916 154.292 234.852C154.631 234.812 155.416 235.478 155.658 235.683L157.607 236.001C159.406 236.294 159.837 234.769 161.576 235.995C163.363 234.736 163.809 235.536 165.896 235.677C167.808 235.808 169.519 235.811 171.438 235.564L174.065 236.117C175.22 234.43 176.201 235.515 178.165 235.497C179.213 235.487 180.799 235.71 181.633 235.573L181.648 235.567Z" fill="black"/>
<path d="M100.251 111.146C100.147 111.082 100.153 111.063 100.22 111.036L100.251 111.146Z" fill="black"/>
<path d="M101.888 124.745C101.812 124.647 101.763 124.577 101.815 124.65L101.888 124.745Z" fill="black"/>
<path d="M100.758 108.573C100.688 108.604 100.752 108.479 100.84 108.445L100.758 108.573Z" fill="black"/>
<path d="M195.683 136C195.677 136.022 195.701 135.936 195.714 135.902C195.775 135.902 195.759 136.046 195.683 136Z" fill="black"/>
<path d="M61.5499 97.8037C61.4399 97.8037 61.3635 97.7915 61.4032 97.8007H61.5499V97.8037Z" fill="black"/>
<path d="M195.711 135.902C195.675 136.003 195.592 136.086 195.681 136L195.396 137.186L194.782 139.205C194.663 139.349 194.422 139.666 194.345 139.844L193.902 140.864L193.496 141.561C193.408 141.71 193.353 142.138 193.304 142.324L192.595 142.728L191.742 144.451C191.422 144.622 190.957 144.894 190.725 145.175L189.851 146.223L188.189 147.857C187.875 148.166 187.606 148.646 187.346 149.058C187.236 149.235 186.906 149.495 186.732 149.633L186.041 150.176L185.317 150.726C185.177 150.833 184.825 150.946 184.642 150.992L183.946 151.637L183.102 152.318C182.836 152.33 182.558 152.388 182.433 152.514L181.434 153.507C181.126 153.812 180.411 153.83 179.518 154.42C179.024 154.75 178.495 154.982 177.921 155.153L175.492 155.871L173.316 156.537L171.407 157.087L169.739 157.451L168.779 157.57L166.931 157.909L165.62 158.114L163.879 158.352C162.846 158.187 161.982 158.123 160.982 158.325L159.941 158.187L158.829 158.053L157.851 157.94L156.32 157.591L155.031 157.515L153.57 157.304C152.471 157.145 151.661 157.781 150.356 156.983C150.091 156.821 149.629 156.718 149.305 156.705L148.044 156.663L147.231 156.626L145.957 156.391L144.677 156.033C144.026 155.85 143.235 155.664 142.648 155.331C140.803 154.283 139.458 154.894 138.029 154.35L136.837 153.895L135.728 153.149C135.38 152.914 134.802 152.837 134.494 152.605L133.565 151.906C132.957 151.447 131.695 152.156 130.934 151.692L129.657 150.91C129.395 150.519 129.135 150.186 128.689 150.079L127.293 149.733C126.168 149.455 125.835 149.458 124.662 148.536L123.745 147.818L122.722 147.207L121.68 146.608C121.225 146.345 120.495 146.626 120.027 146.819L117.971 147.665L116.364 148.23L114.791 148.835L113.015 149.651L110.474 150.787L108.766 151.414C107.886 151.738 107.079 152.11 106.15 152.33C105.435 152.498 104.721 152.886 104.033 153.131L101.904 153.888L100.627 154.252L99.0928 154.606L97.1894 155.019L95.4755 155.373L93.8929 155.712L92.5455 156.015L91.0637 156.397L89.1634 156.806L87.0492 156.895L85.4421 157.206C83.9481 157.494 82.6863 157.42 81.2259 156.941C80.6699 156.757 79.7655 156.898 79.1453 156.88L77.743 156.837L75.5646 156.788C74.9811 156.776 74.4097 156.525 73.9514 156.207L73.3312 155.774L73.3251 155.505C73.3251 155.453 73.1479 155.434 73.0899 155.422C72.601 154.921 71.5898 154.805 70.7435 154.723L69.7597 154.359C69.6069 154.301 69.332 154.099 69.222 153.971L67.3552 153.241L64.9141 152.181C64.8499 152.098 64.7186 151.964 64.6391 151.906L64.2908 151.664L63.5637 151.032L63.5423 150.87L63.2826 150.622L62.638 149.801L62.5157 149.492L62.0605 149.287L62.0422 149.107L61.8711 148.798C61.81 148.777 61.6878 148.734 61.6419 148.679L61.4831 148.484C61.4495 148.527 61.3364 148.673 61.3364 148.661C61.3364 148.649 61.257 148.56 61.2142 148.502L60.8629 148.022L60.6337 147.705L59.9585 147.188L59.2008 146.544L58.4004 145.841C58.1529 145.624 57.7985 145.202 57.6182 144.891L56.8941 143.632L56.6436 143.128C56.7872 143.165 56.7139 143.097 56.5917 143.012L56.3014 142.126L55.8982 141.417C55.8432 141.319 55.7209 141.167 55.7637 141.096C55.8004 141.035 55.892 140.876 55.8737 140.91L55.5651 140.345L55.3177 139.831L54.783 138.603C54.7311 138.582 54.6852 138.579 54.6699 138.542L54.6027 138.337L54.3614 137.772L54.2269 137.424C54.2178 137.403 54.2453 137.393 54.3155 137.344L54.068 136.788C53.8908 136.388 53.7931 135.967 53.842 135.569L53.6678 135.527C53.5609 135.502 53.6984 135.212 53.4051 134.702L52.846 133.73L52.3785 132.743L52.2594 132.536L51.7675 132.059L52.0027 131.897L51.4986 131.671C51.4406 131.646 51.3336 131.445 51.3581 131.384L51.4467 131.152C51.5414 131.081 51.5414 131.069 51.4406 131.014L51.4467 130.244C51.4161 129.945 51.4406 129.63 51.4772 129.331L51.4681 128.866L51.5231 128.154L51.5414 128.072L51.6483 127.207L51.7278 127.128C51.6942 127.082 51.6728 126.996 51.6911 126.944L51.7583 126.74L51.8744 125.527L51.8988 124.931L51.8255 123.251C51.9538 123.162 51.9813 123.135 51.905 123.113L51.8744 122.621L51.96 121.595L52.0974 121.112L52.1066 120.412V120.26L52.0455 119.817C51.9661 119.762 51.7614 119.618 51.7919 119.539L51.9172 119.233C51.8744 119.178 51.7858 119.08 51.8194 119.041L52.0088 118.83H51.7583L51.8714 118.433L51.7919 118.332C51.7736 118.372 51.8225 118.274 51.8408 118.231L51.9447 118.35L52.0761 117.962L52.1402 117.883L52.1952 117.626L52.3571 116.926L52.1708 116.936L52.2686 116.37C52.623 116.117 52.5282 115.497 52.3877 114.913L52.2471 114.329C52.2533 114.021 52.293 113.453 52.3632 113.181L52.7085 111.815L53.0476 111.03C53.0659 110.709 53.0934 110.397 53.1362 110.208C53.1393 110.19 53.1606 110.177 53.1973 110.132L53.1515 109.2L52.8735 108.781L52.5527 108.766C52.5068 108.766 52.5099 108.69 52.5252 108.671L52.8276 107.712L53.1759 106.609L53.1668 106.132L53.237 106.053L53.4234 105.509C53.3837 105.433 53.3287 105.332 53.3379 105.341C53.4418 105.448 53.4112 103.529 54.563 102.258C55.0854 101.681 54.5844 100.914 54.8471 100.663C55.6415 100.306 55.0824 99.5117 55.3665 99.0106L55.8157 98.2193C56.3198 97.5655 57.3035 97.4677 58.0246 97.5838C58.1162 97.5441 58.1804 97.5013 58.2232 97.5135L58.4462 97.5716C58.5531 97.5441 58.7853 97.4799 58.9197 97.4647L59.5491 97.3883L59.5766 97.6266L61.4067 97.8099C61.4495 97.9902 61.4647 97.9504 61.5533 97.813L62.4088 97.6602L62.4485 97.9535C62.9068 98.1826 63.4445 98.2101 63.9823 98.1887L64.7186 98.3354C64.7675 98.3904 64.9997 98.5859 65.0974 98.6318L65.7604 98.9312C65.8643 98.977 66.2156 98.9342 66.347 98.9587L67.3125 99.1267L68.3176 99.307C68.5559 99.3497 68.7759 99.3558 68.9867 99.3009C69.005 99.31 69.1853 99.3986 69.1731 99.3925C69.167 99.3925 69.2922 99.2978 69.3136 99.2795L69.4633 99.2734L69.8605 99.5728C70.0591 99.7225 69.3747 100.077 69.6588 100.807C69.4969 101.476 69.4144 102.06 69.5397 102.775C69.5977 103.105 69.3503 103.765 69.0814 103.945C68.6628 104.223 68.4795 104.461 68.397 104.932C68.3145 105.393 68.1282 105.808 67.9388 106.227L67.5507 107.089C66.9855 107.669 67.3033 108.305 66.4845 108.888C65.6504 109.481 67.1994 110.972 65.9682 111.51C65.5038 111.711 65.1127 112.884 65.0057 113.679L65.296 114.406C65.5221 114.971 64.6574 115.289 65.186 115.973C65.3449 116.178 65.3327 116.48 65.1677 116.673C64.911 116.966 65.0302 117.232 65.0394 117.583L65.0791 119.551L64.6758 120.174L64.7491 122.31C64.7675 122.826 65.3052 123.556 65.351 124.338C65.351 124.525 65.2563 124.998 65.3174 125.191L65.7879 126.648C65.9132 127.039 65.9162 127.476 65.6565 127.739C65.1646 128.237 65.3479 128.634 65.6137 129.15C66.2339 130.348 65.6443 131.332 65.6871 132.056L65.7543 133.232C65.7665 133.418 65.8429 133.803 65.9895 133.923C66.9886 134.738 66.2339 135.487 66.9397 136.226L67.9479 137.286C68.2351 137.589 68.5834 137.757 68.6292 138.252C68.6506 138.463 68.7942 138.884 68.9348 139L69.9002 139.792C70.2852 140.106 70.5204 140.488 70.9176 140.702L71.7364 141.142C72.4972 141.548 72.6743 142.392 73.3923 142.551L74.095 142.706C74.755 143.36 75.7846 143.712 76.7317 143.73L77.7521 143.751L79.6647 143.849L80.3582 143.748C81.6506 143.562 82.225 144.347 83.1477 144.277C83.609 144.243 84.0306 144.225 84.4431 144.286L86.1998 144.543C86.3801 144.57 86.6764 144.466 86.9361 144.451L87.816 144.396L91.5098 144.512C91.9711 144.527 92.298 144.417 92.7196 144.206C93.4957 143.822 94.2412 144.329 95.4083 143.928L96.942 143.406C97.2475 143.302 97.4155 143.131 97.7669 143.149C97.993 143.162 98.381 143.076 98.4818 142.939L99.0165 142.227L99.933 142.529C100.064 142.572 100.397 142.48 100.523 142.416L101.345 141.979C101.543 141.875 102.059 141.762 102.283 141.762L103.502 141.753C104.21 141.747 103.89 141.176 105.005 141.173C105.255 141.173 105.698 140.849 105.921 140.708C106.019 140.647 106.318 140.559 106.431 140.522L107.394 140.198L108.188 140.042L109.319 139.566L110.412 139.074L111.314 138.512C111.521 138.264 111.204 137.598 110.807 137.457C110.272 137.268 110.556 136.599 110 136.501C108.708 136.275 109.129 135.734 108.356 135.029L107.922 134.631C107.586 134.564 107.321 134.314 107.094 134.066L106.196 133.076L105.561 132.114C105.338 131.775 104.901 131.475 104.776 131.182L104.388 130.29L104.003 129.532C103.914 129.358 103.657 128.985 103.505 128.866L102.866 128.371L102.588 126.838L102.735 126.492C102.667 126.437 102.49 126.285 102.466 126.22L102.075 125.166C102.026 125.029 101.925 124.855 101.867 124.769L101.794 124.674L101.25 123.889L101.201 123.205L100.966 122.716L100.721 121.876L100.611 121.384C100.694 121.28 100.724 121.243 100.584 121.24L100.593 120.156C100.703 120.055 100.727 120.027 100.611 120.015L100.605 119.884C100.694 119.786 100.715 119.756 100.605 119.743L100.614 119.478C100.7 119.377 100.721 119.346 100.581 119.334L100.639 118.836C100.498 118.601 100.339 118.164 100.361 117.883L100.434 116.948L100.501 116.56L100.452 116.346L100.526 116.098L100.407 115.313L99.9269 115.047L100.055 113.773L99.9819 113.193L100.177 111.574L100.229 111.173L100.199 111.063L100.33 110.465L100.526 109.569L100.74 108.601L100.822 108.473L100.947 108.188L101.131 107.752C101.28 107.639 101.305 107.617 101.21 107.687L101.448 106.985L101.711 106.444L102.298 105.314C102.374 105.167 102.417 105.042 102.469 104.806L103.114 103.997C103.282 103.786 103.56 103.331 103.783 103.184L105.133 102.283L104.873 101.583L105.176 101.238C105.191 101.22 105.212 101.21 105.249 101.186L105.894 100.777L106.768 100.065C107.324 99.6125 107.797 99.2092 108.228 98.6073C109.138 98.4271 109.841 98.7142 110.397 97.6846L111.106 97.703L111.836 97.1286C111.925 96.8719 111.989 96.655 112.096 96.5756C112.395 96.3434 112.786 96.7375 113.608 96.5481C113.96 96.4656 114.302 96.3923 114.619 96.4014C115.371 96.4228 115.939 96.0898 116.385 95.4513C117.595 94.718 118.539 95.714 120.055 94.9105C120.382 94.7364 120.861 94.8922 121.258 95.0724C121.631 95.2374 122.294 95.048 122.575 94.7608C122.789 94.5408 123.079 94.4186 123.324 94.4492L124.463 94.5958L125.924 94.7852C126.132 94.8127 126.52 94.9105 126.724 94.8861L127.635 94.7791L128.967 94.4858C129.135 94.4492 129.526 94.5897 129.703 94.6294L131.692 95.0633L132.685 95.3504C133.589 95.6132 134.072 95.3443 134.601 95.5979L135.236 95.9004C135.606 96.0776 136.195 96.1081 136.495 96.264L137.515 96.7986L138.465 97.3272L140.577 98.4943C140.968 98.7112 141.288 99.0381 141.646 99.3253L142.605 100.095L143.302 100.795L144.478 101.934L145.242 102.387C145.532 102.558 145.74 102.765 145.978 103.034L146.782 103.942L147.24 104.935L147.353 105.417L147.937 106.655C148.083 106.966 148.257 107.571 148.334 107.923L148.468 108.567L148.597 109.172L148.893 110.55L149.021 111.106L149.223 111.733L149.48 112.609L149.874 112.735L149.868 113.208L149.758 113.291L149.834 113.728L149.965 114.482C149.993 114.635 149.975 114.983 149.956 115.185L149.849 116.309L149.767 116.557C149.758 116.587 149.794 116.63 149.819 116.682L149.437 117.809L149.431 117.907L149.363 118.408L149.241 119.309L149.281 119.536C149.312 119.722 149.315 120.137 149.241 120.312L148.96 120.965L148.719 121.592L148.309 122.783L148.147 123.229L147.539 124.818C147.384 125.224 147.268 125.851 146.993 126.156C146.803 126.364 146.479 126.624 146.455 126.819C146.4 127.256 146.241 127.623 146.027 127.928L145.022 129.37C144.521 129.438 143.772 130.232 143.65 130.559C143.436 131.133 143.216 131.408 142.621 131.524C142.049 131.637 141.67 132.294 141.554 132.856L140.742 133.29L139.853 134.848C139.743 135.038 139.318 135.261 139.101 135.304C137.708 135.569 138.475 136.685 137.289 136.92C136.709 137.036 136.751 137.467 136.04 137.965L135.117 138.609C134.497 139.04 135.502 140.027 136.599 140.565L137.806 140.601C138.077 140.61 138.514 141.09 138.722 141.264C139.492 141.912 139.932 141.9 140.424 142.297C140.794 142.593 141.02 142.541 141.539 142.523C141.948 142.508 142.618 143.012 143.009 143.223L144.105 143.812L145.095 143.892L146.351 144.316C146.577 144.393 146.907 144.677 147.124 144.869L148.056 145.007C148.563 145.322 149.033 145.539 149.599 145.673L150.595 145.908L152.428 146.348C153.503 146.608 153.696 147.008 154.536 146.99L155.388 146.968L157.985 147.198L159.742 147.436C159.876 147.454 160.213 147.35 160.341 147.314L161.554 147.295L162.379 147.283L163.173 147.295C163.503 147.301 164.019 147.32 164.325 147.204L165.804 146.638C166.002 146.562 166.363 146.186 166.574 146.217C167.264 146.324 168.196 146.339 168.807 146.027C168.85 145.859 168.92 145.572 169.015 145.569L169.412 145.551L170.606 145.285C171.654 145.053 171.923 143.531 173.57 144.054L174.38 143.638C174.584 143.299 174.813 143.171 175.238 143.1L175.492 142.321L176.084 141.616C176.234 141.435 176.747 141.503 177.083 141.634L177.78 140.974L177.902 140.351C177.936 140.174 178.226 139.819 178.413 139.755L179.632 139.33C180.249 139.113 180.539 138.386 180.67 137.839L181.737 136.981L182.146 136.608L182.131 135.951C182.788 135.658 182.384 134.995 183.408 133.721C183.79 133.247 183.793 132.481 183.982 131.866L184.165 131.286C184.147 131.014 184.132 130.562 184.19 130.333L184.37 129.615L184.511 128.399L184.648 127.501L185.122 126.572C185.271 126.278 185.22 125.878 185.296 125.57L185.504 124.745L185.617 123.822C185.653 123.513 185.687 123.19 185.65 122.872L185.525 121.818L185.601 120.825C185.647 120.254 186.151 120.33 186.274 119.771L186.552 118.509C186.744 117.632 186.704 116.343 186.28 115.539L186.408 114.748C186.298 114.198 186.307 113.755 186.39 113.223L186.341 112.695L186.405 111.772L186.616 110.523C186.793 109.481 186.319 109.792 185.95 108.974L185.574 108.143L185.363 106.698L185.611 106.047L185.452 104.926L185.262 103.462L185.103 102.784C185.388 101.913 184.712 101.632 185.375 101.009C185.693 100.709 185.919 100.22 186.063 99.8172L187.771 99.7805L190.001 99.6064L190.954 99.533L192.726 99.5178L193.545 99.5392H194.355C194.617 99.5422 195.073 99.5697 195.286 99.4903C195.818 99.3008 196.249 99.2245 196.765 99.2611L197.312 99.2336L197.694 100.343C198.039 101.345 198.559 101.36 198.531 101.482L198.443 101.855C198.342 102.274 198.394 102.665 198.678 103.034C199.106 103.596 198.323 103.942 198.595 104.724C199.154 106.343 198.284 106.908 198.91 107.403C199.781 108.091 198.394 108.751 199.301 109.741L199.252 111.024L199.219 113.663L199.274 116.664C199.277 116.841 199.399 117.146 199.46 117.305L198.846 118.1L198.791 119.795L198.745 120.48L198.717 121.491L198.779 122.242C198.84 122.976 199.897 123.455 199.038 124.335C198.931 124.445 198.876 124.736 198.806 124.934L198.498 125.799L198.345 126.526C198.244 127.003 198.036 127.534 198.058 127.974L198.11 128.979C198.134 129.462 197.422 129.896 197.795 131.133L196.839 131.848L196.732 132.355L196.286 133.617L196.108 134.518L195.665 135.933L195.711 135.902ZM187.483 99.8538L187.416 99.9211L187.483 99.9883L187.551 99.9211L187.483 99.8538ZM125.096 131.882C125.533 131.335 125.915 131.069 126.431 130.773L127.198 130.333C127.818 129.978 128.044 129.389 128.386 128.768L128.771 128.066C129.199 127.284 130.488 127.051 130.745 125.799C131.402 124.94 132.254 125.111 132.63 124.326L133.116 123.315C133.748 122.698 134.087 122.074 134.292 121.167C134.359 120.874 134.784 120.419 134.961 120.147C135.649 119.09 136.079 119.071 136.098 118.39L136.128 117.262L136.14 115.882C136.147 115.27 135.578 114.95 136.229 114.452L136.495 113.728C136.556 113.563 136.693 113.236 136.687 113.086L136.654 112.282C136.012 111.745 136.345 111.25 135.612 110.926C135.349 110.81 135.123 110.669 134.94 110.517L134.185 109.89C133.84 109.603 133.443 109.337 133.214 108.961L132.85 108.366C132.236 107.361 131.701 108.13 131.304 107.269C131.182 107.006 130.387 106.814 129.905 106.847L128.689 106.933C128.576 106.942 128.334 106.789 128.276 106.688L127.742 106.334L126.116 106.258L125.136 106.157L123.816 106.151L122.3 106.502C121.918 106.591 121.628 106.783 121.289 107L120.073 106.908C119.642 106.875 118.924 107.028 118.475 107.217L117.898 107.461L117 107.99C116.572 108.906 115.603 108.381 115.539 109.001C115.49 109.469 115.307 109.759 114.794 109.994L114.998 110.859C115.093 111.256 114.956 111.571 114.583 111.72L113.929 111.98L114.412 112.976L114.045 113.682C113.773 114.204 114.687 114.989 113.419 116.163L113.819 117.226C113.575 117.544 113.568 118.182 113.66 118.469L114.308 120.492C114.403 120.788 114.662 121.091 114.901 121.256C115.267 121.509 115.261 121.784 115.093 122.23C114.965 122.569 115.481 122.97 115.625 123.22L116.294 124.396L117.507 125.029C117.632 125.096 117.614 125.594 117.702 125.713L118.484 126.78C118.961 127.427 119.499 127.293 119.994 128.008L121.063 129.557L121.769 129.829C122.358 130.058 121.964 130.968 122.551 131.133L123.391 131.368C123.828 132.093 124.735 132.334 125.099 131.879L125.096 131.882ZM51.8133 127.247L51.7827 127.329C51.8011 127.281 51.8347 127.183 51.8133 127.247ZM53.3042 133.868L53.237 133.935L53.3042 134.002L53.3715 133.935L53.3042 133.868ZM54.3675 137.528L54.4041 137.445C54.4255 137.393 54.3858 137.488 54.3675 137.528Z" fill="black"/>
<path d="M63.5573 151.029C63.5573 151.029 63.5329 150.854 63.5359 150.867L63.5573 151.029Z" fill="black"/>
<path d="M102.481 126.495L102.575 126.59L102.481 126.657L102.414 126.59L102.481 126.495Z" fill="black"/>
</svg>
