<?xml version="1.0" encoding="iso-8859-1"?>
<!-- Generator: Adobe Illustrator 16.0.0, SVG Export Plug-In . SVG Version: 6.00 Build 0)  -->
<!DOCTYPE svg PUBLIC "-//W3C//DTD SVG 1.1//EN" "http://www.w3.org/Graphics/SVG/1.1/DTD/svg11.dtd">
<svg version="1.1" id="Capa_1" xmlns="http://www.w3.org/2000/svg" xmlns:xlink="http://www.w3.org/1999/xlink" x="0px" y="0px"
	 width="190.559px" height="190.559px" viewBox="0 0 190.559 190.559" style="enable-background:new 0 0 190.559 190.559;"
	 xml:space="preserve">
<g>
	<path d="M190.385,165.073c-16.088-34.842-26.698-89.557-2.825-123.497c2.988-1.369,3.69-6.068-0.344-7.204
		c-18.26-5.145-33.919-16.581-52.121-22.169c-11.595-3.56-24.218,9.56-32.665,15.227c-9.473,6.354-18.491,12.111-29.054,16.541
		c-4.626,1.939-24.069-7.783-28.511-9.332c-10.986-3.833-27.379-13.524-39.47-12.655c-2.161-1.865-6.262-0.275-5.232,3.113
		c7.392,24.338,18.603,43.657,18.176,70.188c-0.231,14.373-4.164,28.621-8.06,42.356c-1.908,6.727-5.507,11.174-6.285,18.13
		c-0.07,0.624,0.108,1.102,0.42,1.443c-0.448,0.938-0.313,2.22,0.721,2.701c16.562,7.719,34.817,12.217,52.309,17.375
		c12.561,3.704,20.795,1.23,30.908-7.43c5.266-4.51,10.244-9.26,15.151-14.155c7.58-7.562,17.967,0.049,25.937,2.424
		c18.446,5.499,38.804,5.639,56.797,11.449c2.406,0.776,3.881-0.945,4.014-2.853C190.567,166.309,190.686,165.723,190.385,165.073z
		 M103.845,146.368c-17.165,6.099-20.533,29.476-44.328,23.406c-17.07-4.353-33.868-10.842-51.345-13.314
		c0.018-0.042,0.052-0.07,0.067-0.115c2.877-8.292,7.715-15.654,10.657-23.98c4.167-11.794,5.236-24.687,5.798-37.08
		C25.829,70.26,16.038,49.478,7.683,26.92c13.816,5.415,27.473,11.369,41.428,16.617c10.068,3.786,18.892,10.7,29.598,6.508
		c14.571-5.705,27.457-15.067,40.057-24.224c17.344-12.607,42.444,9.151,61.68,15.009c-21.92,33.608-16.582,87.868,4.2,121.077
		c-14.753-5.018-31.767-5.747-46.853-9.723C126.608,149.239,115.328,142.29,103.845,146.368z"/>
	<path d="M160.028,126.496c-1.303-2.197-4.076-3.53-6.627-2.95c-1.122-1.428-2.35-2.624-3.953-3.898
		c-6.686-5.309-8.597-9.568-5.822-17.62c1.478-4.287,5.564-12.086,3.501-16.756c-3.743-8.477-16.458-10.316-26.56-10.956
		c0-0.026,0.009-0.049,0.009-0.075c0-3.737-3.118-6.855-6.855-6.855c-3.858,0-6.485,2.909-6.828,6.584
		c-0.124,1.329,0.254,2.618,0.933,3.734c-4.257,6.635-2.629,15.873-8.483,21.485c-5.515,5.287-14.879,6.753-22.337,9.552
		c-0.703-0.359-1.467-0.615-2.275-0.722c-0.328-2.267-1.092-4.434-1.325-6.785c-0.33-3.324-0.181-6.716-0.236-10.053
		c-0.08-4.852-0.441-11.203-4.398-14.632c-3.206-2.778-8.415-3.66-12.415-4.465c-1.455-0.293-4.178-1.147-6.733-1.559
		c1.711-3.106,0.107-7.372-2.809-9.079c-4.161-2.437-8.797-0.013-10.328,4.201c-0.022,0.062-0.045,0.123-0.067,0.185
		c-1.061,2.922,0.672,6.417,3.218,7.909c1.795,1.051,3.676,1.174,5.384,0.639c1.401,1.075,3.664,1.47,5.119,1.917
		c4.599,1.412,9.565,2.477,13.816,4.774c4.243,2.292,2.698,14.188,2.83,18.196c0.12,3.625,0.354,7.593,2.377,10.507
		c-1.436,1.296-2.365,3.146-2.365,5.196c0,3.839,3.204,7.043,7.043,7.043s7.043-3.204,7.043-7.043c0-1.032-0.254-2.002-0.668-2.888
		c7.934-1.849,16.107-3.178,22.815-8.11c7.061-5.193,6.802-15.22,9.255-23.062c2.02,0.429,4.018-0.121,5.552-1.28
		c4.694,1.075,9.438,1.931,14.081,3.246c3.622,1.026,6.5,2.816,9.539,4.915c0.547,0.378-2.326,8.962-2.585,9.771
		c-2.06,6.45-4.104,11.576-1.603,18.185c1.775,4.69,7.273,7.73,11.269,11.094c-1.593,2.487-1.683,5.848,0.831,8.361
		c4.311,4.312,11.576,1.073,11.716-4.853C161.118,128.992,160.716,127.653,160.028,126.496z"/>
</g>
<g>
</g>
<g>
</g>
<g>
</g>
<g>
</g>
<g>
</g>
<g>
</g>
<g>
</g>
<g>
</g>
<g>
</g>
<g>
</g>
<g>
</g>
<g>
</g>
<g>
</g>
<g>
</g>
<g>
</g>
</svg>
