<svg width="250" height="250" viewBox="0 0 250 250" fill="none" xmlns="http://www.w3.org/2000/svg">
<g clip-path="url(#clip0_137_2703)">
<path d="M41.3194 86.9017L41.466 87.0085L41.3194 87.0885L41.2393 87.0085L41.3194 86.9017Z" fill="black"/>
<path d="M197.726 195.925L197.806 196.019L197.726 196.1L197.631 196.019L197.726 195.925Z" fill="black"/>
<path d="M205.533 195.433H205.681C205.627 195.581 205.587 195.581 205.533 195.433Z" fill="black"/>
<path d="M172.957 60.9627L173.143 61.0957L173.449 61.2287L173.901 61.4416L174.912 61.9071L176.069 62.4126L177.333 62.9713C177.838 63.1974 178.371 63.6098 178.73 64.0355C179.288 64.7006 179.9 65.1794 180.659 65.6051C181.191 65.8977 181.709 66.0175 182.295 66.2702L184.543 67.2413L186.099 67.9995L186.724 68.4118L187.536 68.9572C187.602 69.0104 187.682 69.1833 187.722 69.2765C187.642 69.3031 187.722 69.2765 187.948 69.2099L188.068 69.4095L188.693 69.875L189.717 70.7131L191.247 71.6176L193.216 72.6153C193.654 72.8414 194.093 73.134 194.492 73.4533L195.211 74.0386L196.834 74.8234L197.432 75.1027L198.536 75.8077C199.148 76.1935 199.6 76.566 200.133 77.0714C200.478 77.3907 201.13 77.7897 201.569 78.0425L203.179 78.9337L204.083 79.4791L205.493 80.7428C205.892 81.1019 206.172 81.5941 206.478 82.0597L207.622 83.1106L207.808 85.1724L207.582 86.3296L207.422 87.1544L207.089 88.8038L206.757 89.8813C206.65 90.2138 206.597 90.6661 206.597 91.0253V92.555L206.704 93.4196C206.824 94.4572 206.398 95.5612 206.651 96.9712C206.717 97.357 206.903 97.929 206.877 98.2349L206.784 99.8578L206.691 101.121L206.557 102.611V104.061L206.371 105.551L206.198 106.801L206.052 107.945L205.972 109.794V111.59C205.972 111.776 205.986 112.149 206.039 112.308L206.411 113.612C206.305 114.836 206.185 116.1 206.331 117.323L206.438 118.201V119.186C206.863 120.343 206.93 122.192 206.664 123.362L206.464 124.254L206.345 124.852L206.318 127.034L206.424 127.726C206.438 127.845 206.318 128.138 206.318 128.297L206.278 129.122L206.358 131.131C206.358 131.237 206.757 131.41 206.81 131.503C206.89 131.65 206.89 131.956 206.943 132.195L207.422 134.27C207.475 134.51 207.329 135.015 207.302 135.241L207.116 136.691L207.063 137.769C207.063 137.941 207.116 138.301 207.156 138.447C207.036 138.5 206.97 138.487 207.183 138.633L207.289 139.445L207.369 139.963L207.316 141.294V141.959L207.356 142.544V142.717L207.395 143.515L207.356 146.069L207.236 147.785L207.276 151.536L207.435 152.441L207.582 152.946L208.034 155.088L208.22 156.112L207.901 157.469L207.702 158.387L207.502 159.85L207.462 160.063L207.582 160.289L207.382 161.459L207.688 163.109C207.741 163.375 207.449 163.987 207.409 164.24L207.808 165.61C208.034 166.368 207.09 167.206 207.183 167.272L207.542 167.552C207.608 167.605 207.715 167.831 207.662 167.898L207.382 168.243L207.981 169.254C208.207 169.627 208.287 170.491 208.047 170.811C207.449 171.609 207.821 171.782 207.542 173.006C207.435 173.471 207.688 173.87 208.127 173.99L207.768 174.735C207.701 174.881 207.688 175.28 207.794 175.373L208.14 175.679L207.688 176.211C207.595 176.331 207.848 176.69 207.914 176.837L208.42 177.861C208.646 178.34 208.34 178.912 207.914 179.111C207.209 179.444 207.329 180.175 207.648 181.013L207.968 181.851L208.433 182.929L208.087 183.74L207.622 184.738L208.446 185.842C208.699 186.188 208.792 186.52 208.779 186.946L208.752 187.744L208.805 188.981C208.805 189.181 208.619 189.54 208.46 189.66L207.276 190.498L208.127 191.03C208.38 191.189 208.273 191.908 208.247 192.227L208.127 193.863L207.981 195.034C207.502 195.286 206.837 195.459 206.292 195.473H205.68C205.68 195.473 205.56 195.486 205.533 195.499L204.469 195.552L204.363 195.592L203.019 195.619L201.583 195.712L200.612 195.765H199.614L199.813 195.898L199.574 195.952L199.507 195.845L199.361 195.819L199.268 195.938L198.59 195.912H197.672L196.78 195.965C196.647 195.779 196.621 195.765 196.461 195.739L195.517 194.994L194.772 194.409L193.947 193.757L193.202 193.185L192.444 192.639L191.593 191.988L190.821 191.389L190.489 191.016C189.77 190.83 189.105 190.977 188.347 191.376L187.123 190.431L186.91 190.218L185.394 189.181C185.354 188.928 185.261 188.715 185.154 188.609L184.183 187.691H183.811C183.811 187.691 183.878 187.425 183.904 187.358C183.811 187.372 183.372 187.305 183.239 187.212L182.401 186.614C181.975 186.467 181.536 186.228 181.23 185.922L180.778 185.589L179.847 184.977L179.076 184.778C179.435 184.552 179.341 184.538 179.129 184.565L178.677 184.405V184.286L177.745 184.166L178.131 183.887H177.705L177.506 183.86C177.492 183.86 177.559 183.621 177.559 183.634L176.468 183.328C176.362 183.301 176.109 183.275 175.963 183.261C175.963 183.288 176.003 183.115 176.029 183.062C176.043 183.022 176.029 182.942 175.976 182.942L175.604 182.982C175.63 183.049 175.59 182.929 175.537 182.796L174.845 182.503C174.845 182.503 174.713 182.304 174.699 182.277C174.619 182.29 174.407 182.357 174.393 182.304L174.353 182.091H173.968C173.901 182.104 173.834 181.945 173.808 181.891L173.941 181.745L173.622 181.705L172.465 181.027C172.265 180.907 171.946 180.814 171.733 180.774C171.733 180.747 171.626 180.468 171.693 180.654L170.895 180.441L170.921 180.162C170.615 180.162 170.575 180.162 170.575 180.162C170.575 180.162 170.575 179.989 170.575 179.949L170.349 179.337C170.137 178.752 169.232 179.058 168.221 177.927L167.516 177.661L167.037 176.983C165.787 176.717 165.76 175.852 165.694 175.852H165.361L165.002 175.307C164.922 175.187 164.563 175.24 164.35 175.267C164.151 175.307 163.871 174.961 163.858 174.735C163.831 174.296 163.26 174.615 162.102 174.163L160.187 173.418L157.659 172.327L156.262 171.729C155.863 171.556 155.637 171.223 155.358 170.837L154.693 169.893C153.363 169.614 152.644 168.909 151.859 167.884C151.42 167.326 149.652 167.791 149.08 168.257L147.709 169.387L146.459 170.425L145.701 170.505C144.251 170.664 143.838 172.354 142.295 173.471L141.418 174.11L140.792 174.815L139.795 175.759L138.065 177.342L135.219 179.258L134.261 179.963L133.49 180.468L131.893 181.373L131.029 181.838C130.723 181.998 130.35 182.264 130.098 182.503L129.658 182.916L128.461 184.033L127.716 184.725L126.506 185.709L125.668 186.481L124.564 187.505L123.473 188.409L122.396 189.314L121.571 190.032C120.826 190.139 119.815 190.139 119.083 189.859C118.658 189.7 118.339 189.62 117.9 189.606L116.503 189.553L115.838 188.782C115.745 188.675 115.492 188.489 115.385 188.409L114.68 187.837L114.321 187.558L113.629 187.066C113.177 186.893 112.765 186.627 112.446 186.401L111.794 185.962L110.65 185.177C110.65 185.177 110.597 185.071 110.557 185.057L110.304 184.977L109.466 184.525L108.322 183.86L107.072 183.142L105.569 182.211L104.81 181.585L104.225 181.067L103.44 180.335C102.509 179.47 101.418 180.441 101.365 179.164L100.501 178.393L100.008 177.994L99.1437 177.009C98.8245 176.996 98.3856 176.783 98.2792 176.557L97.9467 175.892L97.8402 175.599L97.2017 174.775L96.2839 173.737C96.2041 173.644 95.9513 173.378 95.8315 173.325L94.0756 172.553L92.9584 171.955L91.7211 171.196L91.7477 170.984L91.4551 170.518L90.9764 169.959C90.8567 169.813 90.6704 169.467 90.5507 169.228C90.5773 169.188 90.4042 169.414 90.3776 169.454L89.2737 168.243C89.1141 168.071 88.8082 167.738 88.6353 167.632L87.6906 167.099L86.6796 166.634L86.0411 165.596L85.1367 164.346C84.5514 163.535 84.4451 164.945 82.9686 165.157C82.0375 165.304 82.3166 166.168 81.7712 166.7L80.5875 167.339C79.7229 167.804 78.9912 168.35 78.2463 168.962L77.1821 169.84C76.3042 169.653 75.5726 169.893 74.8809 170.358L73.79 171.077L72.7258 171.875L71.9012 172.327L69.9059 173.484L68.8151 174.017L66.5005 175.653L65.7422 176.265L65.636 176.371L65.0375 176.797L63.2682 178.007L62.8425 178.26L61.6188 179.005L60.3019 179.829L59.6102 180.468L57.6282 181.931L56.8433 182.463L55.0873 183.66L54.6352 184.113L53.6509 184.871C53.6509 184.804 53.4778 184.831 53.4778 184.937L53.0524 185.323L52.6133 185.11C51.9748 185.177 51.3628 185.456 50.8574 185.869L49.9396 186.6L49.0218 187.332L48.5428 187.664L46.7206 189.034C46.2949 189.354 45.9624 189.58 45.4037 189.593C44.4061 189.62 43.4881 189.5 42.6235 189.008L41.7324 189.194L41.759 188.263L41.7324 184.419V180.973L41.7057 180.096L41.4397 178.1V176.171L41.2933 175.294C41.2667 175.107 41.32 174.708 41.3599 174.495L41.3066 173.99L41.1868 172.873C41.2533 172.74 41.2801 172.7 41.1072 172.713C41.0939 172.633 41.0673 172.513 41.0939 172.46L41.2267 172.154C41.1735 171.968 41.0806 171.582 41.0806 171.383L41.1202 170.252L41.1468 169.747L41.1072 169.56L41.1734 168.323C41.8119 168.403 42.1315 168.19 42.4374 167.645C42.5438 167.459 42.5436 167.033 42.517 166.807L42.4504 165.969V164.971V163.002L42.3708 161.952L42.2909 161.034V160.848L42.2776 158.932C42.2776 158.826 42.3708 158.493 42.3841 158.44L42.2776 157.456V156.245L42.3042 155.274V152.813L42.2643 151.536L42.1178 150.951L42.0915 145.75L42.2909 143.568L42.1578 142.052L42.1178 141.147L42.0915 138.434L42.1445 137.463L42.2909 135.826L42.3708 135.667C42.5571 135.387 42.6235 135.082 42.6102 134.682L42.4903 130.838L42.5569 129.455V128.164L42.4903 126.954L42.4108 124.679V123.163L42.4374 120.862L42.3176 120.09V118.627L42.3575 118.082L42.4374 117.949L42.3442 116.938L42.3975 115.488L42.477 113.04C42.477 112.708 42.6898 112.069 42.7963 111.75C42.9825 111.244 42.8894 110.938 42.8495 110.446C42.7298 109.049 42.7962 107.666 42.7829 106.269L42.7566 104.447L42.956 101.427L42.9827 100.071C42.9827 99.8179 42.69 99.339 42.6634 99.0996L42.4637 97.49V94.2842L41.9318 93.8054L42.1711 92.5816C42.4238 91.3046 42.597 91.1849 43.3818 90.1739L42.1578 89.1364C41.9183 88.9368 41.586 88.4979 41.3998 88.2318L41.6391 87.8062L41.7057 87.6731C41.8653 87.5667 41.8385 87.5401 41.506 87.5401L41.8519 86.8883L41.4794 86.7686L41.6658 85.3586L42.0116 85.1192L41.1734 84.8132L41.4527 84.5339L41.5459 84.3742C41.8785 83.6692 42.5836 83.3367 43.3418 83.0041L44.5123 82.1927L44.8848 81.4212L45.4966 80.9157L46.428 80.1708L47.399 79.4924L47.9177 79.1865C48.197 79.0268 48.6226 78.6544 48.8754 78.4149L49.6603 77.67L50.4849 76.9783L50.6047 76.8852L51.589 76.1802L52.4269 75.4885L53.8503 74.6505C54.7814 73.9056 55.686 73.4267 56.8166 73.1473L57.7876 72.6419C58.1335 72.4556 58.3864 72.3093 58.5859 71.9369C58.9584 71.2452 59.2511 72.0167 60.3685 71.1387L61.4723 70.2608L62.4434 69.5558L63.5475 68.8774L64.6517 68.3187L66.2745 67.4009L67.4183 66.6294L68.7219 65.645L70.1586 64.6075L71.7681 63.5699L73.5507 62.3993C74.0428 62.0668 74.5348 61.6943 75.0403 61.415L77.7673 59.9251L78.5389 59.3532L79.3635 58.8876L79.8159 58.6748C80.1883 58.5018 80.6007 58.3289 80.8668 58.1161L81.452 57.6505C81.9309 57.2647 82.4631 56.9455 82.9952 56.7593L83.4073 56.3336L83.7665 55.9744L85.0568 55.0832L85.7086 54.7374L86.2941 54.5511L87.1985 54.2053C87.9169 53.9392 88.7682 54.059 89.553 54.1654C90.2314 54.2585 90.75 54.458 91.3619 54.7108C92.0669 54.9901 92.8253 55.0965 93.4771 55.602C93.7431 55.8148 94.0888 56.4267 94.3416 56.6395C94.8603 57.0918 95.4325 57.4776 95.8049 57.983C96.0843 58.3688 96.2703 58.5683 96.6561 58.8078C97.2015 59.1536 97.787 59.5394 98.2526 60.005L100.141 61.9071L103.148 64.9533C103.454 65.2726 104.518 65.1528 104.584 67.3211L105.462 68.5715L106.101 69.4095L107.058 70.4869L108.189 71.4447C108.814 71.9768 109.28 72.6951 109.945 73.134C110.557 73.5597 110.876 73.9987 111.368 74.5574C112.06 75.3422 112.938 76.0605 113.709 76.7921L114.64 77.67L116.037 79.0933L116.742 80.1575L117.607 80.9423L118.844 82.073L119.536 81.3148L119.868 80.8359C119.935 80.7295 120.201 80.7827 120.454 80.8359C120.653 80.8758 120.972 80.6098 121.199 80.4901L121.85 80.1442L122.821 79.4924L123.686 78.8406L124.617 78.2952C124.723 78.242 125.016 78.0691 124.989 77.9627L124.857 77.3508L126.812 76.0871L127.876 75.4486L128.621 75.3954L129.472 74.6771L130.297 73.7991C130.603 73.4799 130.882 73.1873 131.295 72.9877C131.627 72.8148 131.88 72.602 132.133 72.3492L132.957 71.4979L133.756 71.2186C134.075 70.8461 134.261 70.6466 134.633 70.3539L134.873 69.6888L136.203 68.5182L136.709 68.0527L137.174 67.6004L137.094 67.5206C137.094 67.5206 137.121 67.4541 137.161 67.3876L137.294 67.5339L137.866 67.494C138.238 67.4674 138.837 67.0417 139.183 66.7757L139.954 66.2037L140.792 65.7248L141.431 65.1794L143 63.9291C143.293 63.6896 143.665 63.1309 143.905 62.7984L144.437 62.4392C145.714 61.5746 146.353 61.7608 146.725 61.1356C147.457 60.7898 148.215 60.4705 148.84 59.9784L150.609 58.5816L152.059 57.4776L154.054 56.1208L155.505 55.1098L156.223 54.4314C156.528 54.1388 157.486 54.2186 157.925 54.2984L158.963 54.4979C159.854 54.6708 160.679 53.1677 161.849 54.6842L163.047 55.4025C163.153 55.5887 163.193 55.6818 163.179 55.6552L164.124 55.8946C164.124 55.8946 164.284 56.1474 164.257 56.1075C164.43 56.1075 164.896 56.1341 165.109 56.2139L166.332 56.7194L167.476 57.1849L168.381 57.5175C168.806 57.6771 169.565 57.8899 169.897 58.1826L171.374 59.5261L172.784 60.6834C172.81 60.7632 172.863 60.9494 172.85 60.9361C172.85 60.9361 173.036 60.9893 173.05 60.9893L172.957 60.9627ZM162.355 55.1896L162.275 55.2694L162.355 55.3493L162.435 55.2694L162.355 55.1896ZM149.372 59.7921L149.292 59.8719L149.372 59.9517L149.452 59.8719L149.372 59.7921ZM161.543 85.6379C161.397 85.6778 161.397 85.7044 161.477 85.7843V86.9415C161.357 86.9814 161.357 87.008 161.503 87.0879L161.397 88.4846C161.397 88.4846 161.57 88.6841 161.543 88.724L161.371 89.0033L161.517 90.4134L161.424 90.8789V92.5284L161.384 93.6857L161.477 94.3375V95.8938L161.331 97.5698V97.6896V99.2592V100.23L161.344 101.082L160.852 102.359C160.852 102.359 160.812 102.438 160.799 102.465L160.679 103.236C160.586 103.808 160.4 104.54 160.493 105.125C160.559 105.551 160.692 106.057 160.666 106.349C160.639 106.668 160.639 106.841 160.639 107.121L160.679 108.584L160.652 109.954V110.872L160.546 111.178L160.666 111.47V112.295L160.639 113.798L160.386 115.128C160.346 115.315 160.572 115.727 160.546 115.887L160.4 116.751L160.519 117.11L160.067 118.175C159.921 118.521 159.774 119.053 159.761 119.452L159.721 120.33L159.774 121.301L159.854 122.272C159.894 122.697 159.907 123.203 159.748 123.602L159.482 124.267L159.255 125.105C159.255 125.105 159.282 125.158 159.335 125.265V125.89L159.269 126.063V127.26L159.375 128.031L159.628 130.16L159.788 131.583L159.389 132.049C159.322 132.421 159.256 132.607 159.069 132.94L159.176 133.193C159.082 133.459 159.043 133.685 159.029 133.924L158.936 135.481L158.843 136.478L158.497 137.356C158.418 137.556 158.444 137.995 158.444 138.247V138.859L158.431 139.684L158.537 141.52C158.444 141.586 158.404 141.746 158.537 141.719L158.431 142.265L158.324 143.954L158.657 144.792C158.763 145.058 158.803 145.151 159.056 145.43L158.883 146.535L158.75 148.251C158.737 148.437 158.684 148.876 158.75 149.035C158.91 149.448 159.043 150.219 158.95 150.592L158.258 151.071C158.098 151.656 158.058 152.693 158.51 153.079L158.963 153.478C159.242 153.718 158.298 154.197 158.138 154.808C157.766 156.298 156.994 156.564 157.447 157.482C158.178 157.801 158.777 158.174 159.322 158.746C160.173 159.65 160.971 159.198 161.237 160.089C161.41 160.648 161.73 160.781 162.195 160.967L163.858 161.619C164.204 161.752 164.523 162.204 164.842 162.417L166.824 163.747C167.489 164.186 168.101 164.545 168.859 164.851L169.432 165.583L170.575 165.929C170.802 165.995 171.108 166.541 171.307 166.661L172.97 167.632L173.276 168.283L173.914 168.762C173.968 168.842 174.127 168.922 174.101 168.789L174.832 169.6L175.298 169.973L176.468 170.837L176.987 171.183L178.65 172.314C178.65 172.314 178.889 172.407 178.903 172.447L178.956 172.673L180.007 173.085L181.084 173.524L181.949 173.91L183.212 174.655C183.159 174.841 183.253 174.868 183.425 174.801L184.25 175.453L185.008 175.919L185.673 176.318C185.673 176.318 185.913 176.384 185.939 176.437L186.019 176.624C186.152 176.664 186.445 176.783 186.591 176.876L187.709 177.621L189.145 178.579C189.345 179.098 189.571 179.537 189.957 179.75L191.14 180.415L192.231 181.146L193.295 181.812L194.666 183.049C195.384 182.889 194.785 182.078 195.623 181.798C196.288 181.572 195.53 180.787 195.65 179.909L195.783 178.885L195.903 178.247L195.996 178.14L196.195 176.384C196.275 175.746 196.262 174.894 196.142 174.256L195.956 173.245L195.756 172.114L195.543 170.638L195.437 169.76C195.543 169.294 195.463 169.028 195.45 168.576L195.411 167.073L195.517 166.82L195.45 166.594L195.557 165.57L195.49 161.938L195.543 160.848C195.543 160.848 195.73 160.608 195.703 160.555L195.557 160.302L195.73 159.544C195.916 158.746 195.929 158.041 195.583 157.296L195.557 156.312V154.782L195.583 154.489C195.583 154.489 195.437 154.449 195.357 154.436L195.397 153.425L195.437 152.733L195.224 151.376C195.876 150.233 194.972 149.7 195.025 148.809L195.144 147.08L195.184 146.561L195.251 145.045C195.291 143.967 194.479 144.287 194.852 143.808V142.624C194.852 142.065 195.357 142.145 195.61 141.613C195.69 141.453 195.437 141.107 195.264 140.948C194.812 140.509 195.184 140.256 194.626 139.618C194.213 139.152 194.998 138.966 194.985 137.981C194.985 137.476 195.038 136.997 195.184 136.585L195.623 135.414C195.57 135.188 195.158 134.483 195.211 134.177L195.411 132.767C195.078 131.942 195.011 131.304 195.517 130.758C195.796 130.452 196.062 129.854 196.182 129.455C196.022 129.282 195.61 128.949 195.663 128.776L195.876 127.952L195.903 127.859L196.022 127.26L196.288 125.956L196.036 126.289L196.076 125.078C196.076 124.919 196.009 124.586 195.969 124.413L195.65 122.95L195.57 121.979L195.344 120.05L195.583 119.558C195.357 118.973 195.224 118.441 195.277 117.895C195.437 117.842 195.437 117.816 195.304 117.776L195.344 117.204L195.463 114.942V114.091L195.57 113.28C195.597 113.027 195.41 112.694 195.158 112.441C194.892 112.162 195.025 111.47 195.291 111.231L194.852 111.165L195.45 110.872L195.889 110.3C195.996 110.167 195.823 109.741 195.783 109.568L195.583 108.371L195.45 107.546L195.371 105.205L195.503 104.46L195.543 102.957L195.437 102.558C195.517 102.212 195.49 102.053 195.45 101.733L195.317 100.456L195.251 99.6716L195.065 98.5941C195.065 98.5941 195.237 98.3547 195.211 98.3148L195.078 98.1019L195.038 96.7717L195.104 94.5104L195.224 93.7788L195.557 92.3821C195.597 92.2357 195.77 91.85 195.65 91.7702L195.078 91.3046C194.666 90.972 195.118 90.0941 194.719 89.2827L195.011 88.5511L195.397 87.58C195.331 87.447 194.918 87.048 194.732 86.9282L193.801 87.2475C193.694 87.2874 193.375 87.008 193.362 86.8883C193.362 86.742 193.428 86.6223 193.668 86.2232L191.805 85.2655L190.675 84.6137C190.183 84.3343 189.584 84.0284 189.198 83.6293C188.866 83.2702 188.467 82.645 188.068 82.5386C187.097 82.2592 186.392 81.9799 185.567 81.5276L183.971 80.6364L182.827 79.9846L180.725 78.4415L179.568 77.6434L178.397 76.9783L177.187 76.393L176.123 75.6481C175.883 75.4752 175.165 75.3821 174.965 75.1693C174.566 74.7569 174.021 74.2115 173.582 73.9588L172.491 73.3602L171.054 72.6818L169.418 71.6708C168.74 71.2452 168.154 70.7796 167.503 70.2874L166.186 69.3031C165.72 68.9572 165.268 68.1724 164.829 67.9463L163.818 67.4275C163.566 67.2945 162.9 67.2412 162.581 67.2146C162.355 67.188 161.889 67.5738 161.796 67.7733L161.982 68.904C162.302 69.4494 162.328 69.915 162.235 70.4869L162.022 71.8438L161.996 73.0675C161.996 73.3868 161.903 73.7725 161.823 74.012H162.022L161.863 74.8633V76.2068C161.863 76.2068 161.996 76.3797 161.969 76.4196L161.863 76.6857L161.796 79.2796L161.65 79.825L161.53 81.368L161.503 84.9196V85.771L161.543 85.6379ZM90.4841 79.7052C90.2846 79.825 90.2579 79.8383 90.3776 79.7717L90.564 80.091C90.564 80.091 90.4574 80.2639 90.351 80.3703C90.3243 80.3304 90.3777 80.3969 90.4575 80.5167V82.0863L90.351 82.8312L90.4442 83.8156L90.5507 84.9462L90.6306 85.6512C90.6572 85.904 90.6838 86.4095 90.6439 86.6489L90.524 87.5534C90.4043 88.4846 90.7101 88.6974 90.6702 88.9767L90.564 89.7217C90.6837 90.1606 90.6571 90.7459 90.524 91.2514L90.2714 92.1825L89.5264 92.9407L90.045 93.6857L89.8323 94.7631C89.5131 95.3883 89.5795 96.1864 90.0583 96.7451C89.7923 97.0245 89.7126 97.4235 89.8057 97.7827L89.4731 98.8734C89.38 99.1528 89.5129 99.6982 89.6725 99.9642C88.9276 101.108 89.5796 101.68 88.9012 102.505C88.715 102.731 88.6751 103.503 88.848 103.742C89.2071 104.234 89.686 104.846 89.553 105.405C89.3934 106.057 89.3932 106.495 89.6859 107.041L89.1006 107.985C88.9676 108.198 89.2738 108.81 89.3004 109.049L89.3666 110.087L88.7415 110.739C88.1961 111.298 88.9146 111.683 88.2495 112.189C88.0898 112.308 87.9566 112.654 88.0764 112.708C88.2626 112.801 88.7017 113.12 88.5953 113.266L88.3027 113.665C88.1697 113.838 88.7681 114.184 88.7814 115.009L88.808 116.525L88.6619 118.068L88.2228 118.813L88.7281 119.385C87.9433 120.276 89.0475 120.835 88.8613 121.553L88.5154 122.87L88.1962 124.533L88.1296 125.331C89.5662 126.768 88.3692 127.632 88.5953 128.138L89.0474 129.189C88.1828 129.468 88.0365 130 88.1563 130.692L88.3956 131.995L88.1696 132.78L87.9835 134.204C87.9436 134.483 88.0498 134.962 88.1696 135.241L87.7305 136.638C87.6507 136.877 87.7173 137.33 87.8104 137.596C87.6774 138.38 87.3849 139.298 87.6642 140.123L88.3423 141.254C88.2625 141.413 88.1296 141.706 88.1296 141.839L88.103 142.996C88.0764 144.114 87.6907 144.553 87.8237 144.952C88.1962 146.082 88.5288 146.934 87.9302 147.798C87.3981 148.57 88.2493 148.809 88.0497 149.661C87.7571 150.951 88.3292 151.443 87.8636 152.268L87.2784 153.319C87.5312 154.09 88.4355 155.234 89.0208 155.287C89.8189 155.354 90.165 155.7 90.6173 156.232L91.6812 157.136C92.0536 157.456 92.2799 157.628 92.7986 157.855L93.6368 158.759C94.2753 159.105 94.7008 159.491 95.1398 160.116C95.5389 160.675 96.3635 160.754 96.696 161.459C96.869 161.819 97.0685 162.43 97.3212 162.617L98.2393 163.255L99.5162 163.761L100.461 164.612L101.817 165.304C102.283 166.488 101.684 166.927 102.483 167.525L104.199 168.789L105.356 169.414L106.181 170.119C106.393 170.305 106.686 170.505 106.965 170.611C107.989 171.01 107.577 171.609 108.269 171.782C108.575 171.862 109.147 172.008 109.333 172.194L110.224 173.085L111.541 173.697L111.608 173.87L111.767 173.897L112.512 174.15L113.244 173.644C113.457 173.498 113.629 173.006 113.616 172.74C113.723 172.633 113.803 172.646 113.523 172.553L113.47 171.13V170.119V169.414L113.55 169.348L113.497 168.802V167.445L113.577 166.368C113.683 165.822 113.749 165.384 113.51 164.851L113.55 164L113.736 162.989L113.882 162.231C113.936 161.978 113.922 161.725 113.882 161.499L113.936 159.876L113.869 158.786L113.843 156.963V156.458L113.896 156.312C114.082 156.192 114.015 156.179 113.816 156.218L113.936 155.194V154.489L113.975 153.492C114.068 153.425 114.135 153.438 113.949 153.305V152.653L114.002 150.751V150.113L114.042 148.583L114.188 146.029L114.242 144.579L114.281 143.289V142.251L114.228 140.921C114.202 140.416 114.069 139.591 114.228 139.165C114.468 138.487 114.64 138.008 114.654 137.369V135.494V132.261L114.627 131.423V130.452L114.654 127.925L114.707 125.717L114.747 124.6L114.188 124.24V122.751L114.202 121.7L114.321 121.021L114.361 119.744V118.121V116.765V116.02L114.64 113.878L114.8 110.686L114.428 108.916L114.601 106.961C114.614 106.801 114.308 106.482 114.175 106.389L114.401 105.458L114.986 105.152C114.441 103.702 115.093 102.758 114.374 101.999L114.401 99.7514L114.508 98.3281C114.8 97.9024 115.04 97.4368 115.106 96.9979C114.428 96.3727 114.295 95.6544 114.667 94.9094L114.694 94.1379V93.0073L113.909 92.1559C113.217 91.411 112.18 91.1583 111.501 89.9611L110.89 89.4423C110.823 89.1497 110.623 88.6309 110.41 88.4846L109.519 87.886L108.402 86.9947C108.029 86.7021 107.484 86.3562 107.045 86.2764C106.38 86.1434 106.247 85.8508 106.007 85.2655L105.449 83.9486L104.132 82.7381C103.932 82.5652 103.48 82.2858 103.374 82.0464C103.187 81.6207 102.935 81.3414 102.549 81.2217C101.379 80.8359 101.684 79.7851 100.514 79.0135L99.4763 78.3218L98.6514 77.537C98.1725 77.0847 97.7205 77.1646 97.5609 76.8586C97.4678 76.6857 97.5609 76.2467 97.6274 76.0206L96.4167 74.3046L95.9247 73.4666C95.5789 72.868 95.1398 73.1207 94.7673 72.3625C94.5678 71.9635 94.3017 71.8038 93.7697 71.6309L93.7297 70.5801L93.1179 70.1012C93.1578 69.9682 93.2642 69.4494 93.1445 69.3563L92.1069 68.6247L91.4285 67.9197L91.3486 68.8375L90.9099 69.476C90.7369 70.3672 90.7899 71.2452 91.0161 72.163L90.9498 73.5597L90.3909 73.7991V74.983L90.3376 77.1113L90.4708 78.9736L90.4974 79.6786L90.4841 79.7052ZM124.564 149.208V149.421V149.887V150.073V151.337V152.52V153.478L124.604 154.649C124.617 155.114 124.604 155.646 124.511 156.125L124.152 158.254L123.978 159.358L123.886 159.876L123.992 161.526C124.032 162.138 124.351 162.603 124.87 163.029C124.936 163.268 125.136 163.907 125.096 164.213L124.843 166.328C124.697 166.527 124.378 166.9 124.378 167.113V168.097L124.444 169.866L124.564 170.797V171.848L124.577 172.873C124.577 173.538 124.351 174.123 124.032 174.801C124.058 175.174 124.75 175.36 125.176 175.28L126.174 175.067C126.373 175.027 126.626 174.562 126.759 174.336L127.796 174.203L128.674 173.112L130.483 171.17L131.654 170.039C131.84 169.999 132.252 169.906 132.399 169.786L133.955 168.523L135.019 167.618L135.724 167.006C136.07 166.807 136.522 166.554 136.762 166.301L137.853 165.157L139.848 163.255L140.566 162.776L141.803 161.433L141.976 161.233L142.734 160.369L143.187 159.823L144.73 158.267L145.182 157.682C146.166 157.229 147.151 156.498 147.483 155.447C147.364 155.128 147.204 154.556 147.257 154.276L147.403 153.398V152.135L147.31 150.977L147.43 149.035V147.692C147.43 147.559 147.536 147.306 147.63 147.133H147.443L147.297 145.67L147.23 143.329L147.31 141.945C147.35 141.147 147.417 140.522 147.31 139.711C147.284 139.524 147.31 139.232 147.35 139.085L147.377 138.42L147.51 136.691L147.749 134.709V133.738L147.895 131.211L147.776 130.2C148.109 129.588 147.683 129.189 147.776 128.031L147.975 125.491L148.015 124.772C147.989 124.52 147.989 124.2 148.015 123.908L148.241 121.979C148.361 121.833 148.747 121.474 148.747 121.301V120.064V116.805V115.168L148.854 113.346L149 111.085V111.031L148.96 110.18C149.106 109.701 149.159 109.169 149.133 108.65L149.053 106.934V105.006C149.04 104.673 149.133 104.46 149.412 104.181L149.239 102.758C149.518 102.784 149.505 102.718 149.279 102.651L149.239 100.709V97.8093C149.226 97.4634 149.292 97.0644 149.372 96.8116L149.119 96.4791C149.053 96.3993 149.239 96.1598 149.292 96.0667L149.625 95.4947L149.04 94.6966L149.306 93.2201C149.452 92.3954 149.665 91.5307 149.585 90.706L149.439 89.2428L149.532 89.0832L149.479 88.2584L149.519 88.0589V87.0479L149.665 85.7177C149.718 85.2655 149.518 84.7999 149.705 84.3343C149.811 84.0816 149.984 83.483 149.957 83.217L149.745 81.1419L149.864 79.9979L149.931 78.0159L149.718 77.9095L150.144 77.3242L150.569 76.5926C150.17 75.4752 151.128 75.5151 150.809 74.584L150.569 73.8923C150.476 73.5996 150.064 73.0941 149.877 72.8414V71.7772C150.197 71.4979 150.41 71.1653 150.17 70.6599L149.638 71.325L147.989 72.2694L146.845 73.3735L145.967 73.8923C145.887 73.9322 145.687 74.0652 145.714 74.145L145.834 74.5574L145.248 74.3844L144.756 75.3023L143.626 76.2866L143.014 76.8453L141.072 78.2021L139.409 79.3195C138.85 80.5965 137.68 80.4368 138.345 81.7138C136.589 81.767 136.695 82.4055 135.924 83.0174L133.968 84.5605C133.716 84.76 133.37 85.4783 133.037 85.5315C132.558 85.6113 132 85.6911 131.654 85.8508L131.268 86.7819C130.856 87.7796 129.978 87.1411 129.685 87.5534C129.459 87.8727 128.9 88.4314 128.528 88.6309L127.384 89.2295L127.025 89.9478L125.854 91.2381C125.774 91.3312 125.655 91.6238 125.641 91.7436C125.628 91.8633 125.814 92.0096 126.014 92.1692L125.987 94.3907L125.801 96.0534L125.641 97.6363L125.468 99.3523L125.202 100.536L125.229 101.654L125.362 102.319L125.668 102.798L125.708 104.101V106.017L125.562 107.772L125.522 109.821C125.522 110.021 125.455 110.38 125.429 110.513L125.522 111.031L125.681 112.016C125.734 112.335 125.615 112.867 125.562 113.266L125.482 113.905L125.349 116.352V118.108L125.123 120.05L124.963 120.848C124.883 121.221 124.963 121.607 124.963 121.979L125.043 123.469L124.897 124.653L124.857 129.508V132.235L124.883 134.603V136.265V137.223V138.234L124.857 139.152L124.803 145.125L124.657 147.173L124.551 149.168L124.564 149.208ZM53.6642 99.2991C53.5445 99.3124 53.5444 99.339 53.5843 99.4321C53.744 99.8578 53.7439 100.27 53.5444 100.762C53.5444 100.749 53.5578 100.802 53.611 100.922L53.5044 101.986C53.4113 102.891 53.3849 103.729 53.305 104.633L53.1852 105.87L53.1586 107.001V108.118L53.2118 110.965C53.2118 110.952 53.2252 111.005 53.2784 111.111L53.305 111.949L53.3583 113.492L53.3849 114.251L53.4512 114.477L53.3317 114.756L53.2385 115.913L53.1985 116.459L53.092 119.132L53.1586 120.915V123.376C53.1586 123.495 53.1056 123.788 53.0657 123.934L53.1852 124.892V124.999L53.0257 126.276L53.1319 126.422C53.1319 126.422 53.039 126.621 52.9991 126.715C52.9459 126.821 52.9989 126.941 53.1186 127.313C53.3049 127.167 53.0523 127.366 52.9991 127.406L52.9459 127.473L52.8393 127.619C52.8393 127.619 52.9059 127.792 52.9325 127.845C52.9458 127.898 52.9059 128.045 52.8926 128.111L52.866 128.683L52.8393 128.883L52.9592 129.362C52.9858 129.481 53.0257 129.734 52.9592 129.814L52.5867 130.16L53.1453 130.08L53.2118 130.439C53.2118 130.439 53.0124 130.532 52.9991 130.519L52.9325 130.585L53.1053 130.891L53.1852 131.024C53.1852 131.024 53.1452 131.091 53.1186 131.144L52.9858 130.998L53.0257 131.69C53.0257 131.836 52.8526 132.142 52.7861 132.222L53.1319 132.261L52.9325 133.445L52.8527 133.605C52.7994 134.084 53.3583 134.483 53.0391 135.427L52.9858 136.651C52.6 136.651 52.8262 136.651 53.0124 136.651L53.079 138.327C53.079 138.58 53.0256 138.859 52.866 139.139C52.9059 139.139 53.1452 139.578 53.1319 139.751L53.0391 141.36C53.0391 141.546 53.079 141.772 53.0657 141.919L52.9991 143.209L53.1586 143.768L52.9991 144.06C52.9991 144.06 53.1586 144.326 53.1586 144.393V146.388V148.051L53.2651 148.889C53.4513 150.339 53.0789 150.964 53.2651 151.669L53.3716 152.494V153.146L53.3317 154.862L53.3716 156.378C53.3982 157.189 53.5177 157.921 53.4379 158.706L53.4778 159.743L53.5044 160.808L53.345 163.162C53.345 163.162 53.5044 163.508 53.5044 163.588V165.583L53.3583 166.541L53.4245 167.312V167.911L53.3583 168.643L53.2518 170.239L53.1852 170.398L53.4645 170.864L53.8769 171.596C53.9301 171.689 54.2762 171.742 54.3826 171.702L55.5264 171.196C55.7392 171.103 56.0452 170.625 56.2048 170.425C56.8433 169.627 57.4153 169.933 57.269 169.148L59.8762 167.525L61.4856 166.674L62.3771 166.049L63.1883 165.397L64.2526 164.293C64.4255 164.107 64.8643 163.88 65.1171 163.707L67.0328 162.337L67.9373 161.592L68.4026 161.127C68.9081 160.967 69.201 160.768 69.6133 160.502L70.7172 159.783L72.2604 158.905L73.2714 158.067L74.3622 157.163C74.5485 157.017 74.8941 156.711 75.0936 156.644C75.8119 156.431 76.118 155.926 76.5569 155.394L77.9537 154.343L78.0732 154.223L78.5123 153.891L77.9404 152.733C77.7941 152.733 77.4747 152.56 77.488 152.441C77.5279 152.015 77.7274 151.869 77.754 151.164L77.6611 150.02C77.7941 150.033 77.7542 149.913 77.6877 149.833L77.8871 148.703L77.9937 147.386L78.0466 147.213L78.1398 146.362L78.1797 145.191L78.2596 143.728L78.3528 140.323L78.3925 139.631L78.4857 138.726L78.2729 138.766C78.2729 138.766 78.3661 138.487 78.3528 138.434L78.2463 137.33C78.2064 136.904 78.1399 136.691 78.2596 136.319L78.1797 135.853L78.3395 133.445L78.4457 132.408L78.5256 128.909L78.5789 126.994C78.6188 125.677 78.7384 124.546 78.8582 123.256L79.0576 121.035L79.1907 119.718L79.3239 118.015L79.47 115.807L79.4434 115.009L79.47 113.346L79.4966 112.402L79.5366 111.59L79.6431 109.901L79.5898 108.531L79.4833 106.602L79.5765 106.057L79.4966 105.857C79.4966 105.857 79.6431 105.564 79.6431 105.498V103.928L79.6165 102.172V101.188L79.6431 99.3656L79.736 97.3703L79.8824 96.5855L79.9091 96.4259V94.4572C80.082 94.3508 80.0554 94.3242 79.8958 94.2443L79.8691 92.3688L79.9357 91.2913L80.0419 89.0699C80.0552 88.7639 80.3747 88.1919 80.3481 87.886L80.2416 86.1301L80.175 85.3852L80.1484 83.9087L80.2549 82.8711L80.5209 81.8868C80.614 81.5143 80.6538 81.2882 80.441 80.9157L80.6674 79.958C80.9866 79.519 81.0398 79.1599 80.9999 78.6677L80.8135 76.2334C80.7736 75.7545 80.7336 75.4353 81.0262 75.0362C81.3854 74.5574 81.3989 73.9588 81.2126 73.4267L80.7336 72.03C80.3612 72.1497 79.9622 72.2827 79.7892 72.4423L78.6588 73.4666L77.5013 74.4908C77.2486 74.717 76.69 74.8234 76.3176 74.9165L75.0403 75.2491C74.056 75.5018 73.1781 75.8477 72.4598 76.6591C71.3823 77.8829 70.4512 77.537 70.1186 78.2154C69.8393 78.7741 69.3738 79.0002 68.8284 79.1199C68.6821 79.785 68.3894 80.6098 67.7642 80.9689H66.4473C65.2634 81.7803 64.1993 81.8203 62.9091 82.7115L62.0312 83.3234C60.701 84.2412 58.7855 83.9486 58.3599 85.7444L57.1625 86.1833L55.7128 86.9016C54.755 87.3805 54.8747 87.8062 54.2894 88.0722C54.2096 88.1121 53.9701 88.1387 53.9701 88.2052L54.0101 88.6708C54.0101 88.8171 53.9302 89.1497 53.9036 89.3359L53.7042 91.411V92.4752L53.6775 93.4595V94.8562L53.7042 96.7717C53.7042 96.9713 53.5976 97.4102 53.5577 97.5299L53.611 98.062C53.5444 98.062 53.5578 98.1551 53.6908 98.3414L53.6642 99.2592V99.2991ZM41.4927 84.6935V84.5472C41.4794 84.4275 41.4794 84.5073 41.4927 84.6935ZM54.4755 87.58L54.3959 87.6598L54.4755 87.7397L54.6086 87.6598L54.4755 87.58ZM41.6258 87.8328L41.759 87.8062C41.6526 87.8195 41.5194 87.8461 41.6258 87.8328ZM195.251 96.785L195.144 96.8648L195.251 96.9446L195.331 96.8648L195.251 96.785ZM52.9991 110.433L52.9192 110.513L52.9991 110.593L53.079 110.513L52.9991 110.433ZM52.6666 129.269C52.6799 129.029 52.6799 128.949 52.6666 129.149V129.269ZM52.7065 130.413C52.8661 130.413 52.9724 130.413 52.8527 130.413H52.7065ZM141.963 161.499H142.109C141.936 161.499 141.817 161.499 141.963 161.499ZM113.643 169.574L113.749 169.507C113.749 169.507 113.603 169.587 113.643 169.574ZM41.3199 170.119L41.2001 170.199L41.3199 170.279L41.3998 170.199L41.3199 170.119ZM171.241 180.149L171.161 180.229L171.241 180.348L171.32 180.229L171.241 180.149ZM41.8119 181.639L41.719 181.718L41.8119 181.798L41.8918 181.718L41.8119 181.639ZM176.827 183.115L176.748 183.195L176.827 183.355L176.907 183.195L176.827 183.115ZM185.873 189.034L185.793 189.114L185.873 189.194L185.953 189.114L185.873 189.034ZM204.163 195.38C204.323 195.366 204.443 195.353 204.323 195.366H204.163V195.38ZM199.095 195.699C199.215 195.686 199.334 195.659 199.228 195.685H199.095V195.699Z" fill="black"/>
<path d="M149.385 89.2981C149.358 89.2172 149.385 89.1633 149.479 89.1364L149.385 89.2981Z" fill="black"/>
<path d="M53.4111 184.831L53.5844 184.765C53.5844 184.765 53.3444 184.858 53.4111 184.831Z" fill="black"/>
<path d="M79.8956 94.4977C79.8289 94.3643 79.7756 94.2709 79.8956 94.2842V94.4977Z" fill="black"/>
<path d="M79.8829 96.6409C79.7615 96.6274 79.802 96.587 79.9098 96.4791L79.8829 96.6409Z" fill="black"/>
<path d="M173.795 181.812C173.795 181.812 173.661 181.665 173.608 181.625L173.928 181.665L173.795 181.812Z" fill="black"/>
<path d="M111.794 173.924L111.634 173.897L111.567 173.724L111.794 173.924Z" fill="black"/>
<path d="M113.63 172.78C113.349 172.66 113.47 172.673 113.536 172.593L113.63 172.78Z" fill="black"/>
<path d="M149.199 102.825L149.239 102.718C149.307 102.785 149.347 102.933 149.199 102.825Z" fill="black"/>
<path d="M53.2789 111.1L53.2114 110.952C53.3732 110.952 53.3328 110.979 53.2789 111.1Z" fill="black"/>
<path d="M148.961 111.139C148.705 111.166 148.813 111.152 148.961 111.085C148.961 111.112 148.961 111.354 148.961 111.139Z" fill="black"/>
<path d="M195.277 117.831C195.21 117.831 195.237 117.79 195.304 117.709L195.277 117.831Z" fill="black"/>
<path d="M174.14 168.762L173.954 168.736C173.954 168.736 174.1 168.749 174.14 168.762Z" fill="black"/>
<path d="M113.989 153.519C113.709 153.385 113.749 153.385 113.962 153.332L113.989 153.519Z" fill="black"/>
<path d="M159.282 126.051L159.336 125.877C159.416 125.903 159.389 125.944 159.282 126.051Z" fill="black"/>
<path d="M77.6875 150.06C77.6875 150.06 77.7272 149.9 77.7139 149.874L77.6875 150.06Z" fill="black"/>
<path d="M52.8525 128.87L52.8792 128.67C52.9993 128.67 52.9593 128.803 52.8525 128.87Z" fill="black"/>
<path d="M124.577 149.408V149.195C124.751 149.248 124.711 149.288 124.577 149.408Z" fill="black"/>
<path d="M78.0195 147.428C78.0195 147.428 78.0461 147.32 78.073 147.253C78.073 147.293 78.033 147.374 78.0195 147.428Z" fill="black"/>
<path d="M207.182 138.581L207.155 138.394C207.395 138.527 207.355 138.527 207.182 138.581Z" fill="black"/>
<path d="M149.905 78.0696C149.651 77.9362 149.571 77.8961 149.692 77.9628C149.785 77.9628 149.705 78.163 149.905 78.0696Z" fill="black"/>
</g>
<defs>
<clipPath id="clip0_137_2703">
<rect width="250" height="250" fill="white"/>
</clipPath>
</defs>
</svg>
