<?xml version="1.0" standalone="no"?>
<!DOCTYPE svg PUBLIC "-//W3C//DTD SVG 20010904//EN"
 "http://www.w3.org/TR/2001/REC-SVG-20010904/DTD/svg10.dtd">
<svg version="1.0" xmlns="http://www.w3.org/2000/svg"
 width="500.000000pt" height="500.000000pt" viewBox="59 83 389 339"
 preserveAspectRatio="xMidYMid meet">
<metadata>
Created by potrace 1.16, written by Peter Selinger 2001-2019
</metadata>
<g transform="translate(0.000000,500.000000) scale(0.100000,-0.100000)"
fill="#000000" stroke="none">
<path d="M2995 4079 c-16 -5 -46 -14 -65 -20 -50 -16 -199 -103 -236 -138 -38
-36 -220 -174 -299 -227 -33 -23 -107 -67 -165 -100 -104 -58 -106 -59 -190
-61 -67 -1 -101 4 -160 23 -122 40 -242 85 -282 105 -10 5 -24 9 -32 9 -8 0
-34 11 -57 25 -24 14 -53 25 -64 25 -12 0 -25 4 -30 9 -6 5 -57 26 -115 46
-58 21 -114 41 -125 45 -28 11 -166 51 -190 55 -24 4 -54 11 -116 25 -25 6
-50 10 -55 9 -5 -1 -25 1 -45 5 -69 14 -114 -37 -84 -94 8 -16 15 -42 15 -57
0 -15 6 -39 13 -53 8 -14 26 -68 41 -120 16 -52 32 -104 36 -115 21 -53 32
-87 54 -165 13 -47 34 -119 46 -160 28 -97 46 -186 70 -340 15 -102 18 -165
15 -345 -2 -121 -9 -258 -15 -305 -28 -210 -101 -467 -211 -740 -33 -79 -59
-152 -59 -160 0 -26 38 -60 66 -60 23 0 149 -34 229 -61 17 -6 35 -11 40 -13
12 -3 117 -35 265 -82 257 -81 302 -94 320 -94 10 0 31 -7 46 -15 16 -8 40
-15 52 -15 13 0 38 -6 55 -14 18 -8 66 -21 107 -29 128 -26 232 -6 340 64 59
39 81 56 174 143 152 140 234 204 314 243 49 24 68 28 138 27 70 -1 106 -10
290 -69 115 -37 216 -70 224 -73 8 -3 19 -4 24 -3 4 1 14 -3 22 -10 8 -6 20
-9 29 -6 8 4 17 2 20 -3 3 -5 12 -7 20 -3 8 3 15 1 15 -5 0 -5 10 -10 23 -10
34 0 100 -9 117 -14 34 -12 99 -28 107 -26 4 1 33 -4 64 -11 30 -6 63 -9 72
-5 9 3 17 2 17 -4 0 -5 21 -12 47 -16 25 -3 92 -18 147 -32 235 -60 275 -65
307 -33 27 27 26 36 -51 294 -34 116 -66 224 -70 240 -9 36 -66 214 -74 235
-6 15 -62 261 -72 315 -2 17 -12 68 -20 114 -33 184 -37 490 -9 691 10 66 12
75 17 90 4 8 6 22 7 30 0 35 26 150 33 150 4 0 8 8 8 18 0 40 124 345 155 382
30 36 22 104 -14 114 -9 3 -52 8 -95 11 -44 4 -89 11 -100 17 -12 6 -21 10
-21 9 0 -5 -61 11 -100 26 -22 8 -58 22 -80 30 -22 9 -54 22 -72 29 -17 8 -35
14 -41 14 -5 0 -45 16 -88 36 -83 37 -109 48 -146 63 -33 12 -117 50 -158 71
-19 10 -79 32 -134 49 -103 32 -199 40 -261 20z m164 -144 c19 -3 48 -12 65
-20 16 -8 33 -15 39 -15 5 0 39 -14 76 -31 63 -30 85 -40 193 -88 26 -12 52
-21 58 -21 5 0 24 -8 42 -18 18 -10 56 -26 83 -36 28 -10 64 -24 80 -32 72
-31 248 -84 299 -90 31 -4 56 -10 56 -14 0 -5 -16 -43 -36 -87 -49 -107 -51
-113 -65 -158 -7 -22 -16 -44 -20 -50 -7 -10 -39 -133 -65 -255 -37 -169 -50
-470 -31 -665 25 -238 111 -615 177 -770 4 -11 23 -67 40 -125 18 -58 46 -145
62 -193 17 -48 29 -90 26 -92 -3 -3 -27 2 -54 10 -27 8 -64 15 -82 17 -19 1
-36 6 -38 10 -3 4 -15 8 -27 8 -13 0 -50 7 -82 16 -33 8 -76 17 -96 19 -19 2
-53 8 -75 14 -21 5 -59 12 -84 15 -25 3 -70 10 -100 17 -30 6 -64 12 -75 14
-11 1 -21 4 -22 5 -2 1 -6 3 -10 4 -73 17 -148 39 -293 86 -226 74 -297 90
-390 85 -100 -5 -116 -8 -175 -39 -68 -35 -89 -49 -98 -63 -4 -7 -13 -13 -19
-13 -9 0 -84 -59 -143 -113 -21 -19 -106 -96 -185 -167 -92 -82 -208 -110
-322 -76 -30 8 -72 18 -94 22 -21 3 -57 13 -79 21 -22 8 -60 19 -85 24 -25 6
-59 17 -77 25 -17 8 -42 14 -55 14 -14 0 -28 3 -32 7 -3 4 -12 8 -19 10 -36 7
-106 27 -127 36 -8 3 -40 13 -70 21 -30 8 -80 22 -110 31 -147 43 -233 65
-251 65 -36 0 -34 14 27 148 13 29 24 59 24 67 0 7 4 16 9 19 4 3 18 38 30 78
12 40 26 82 31 93 4 11 16 49 25 85 10 36 20 72 23 80 3 8 5 18 4 22 -1 3 5
28 12 55 14 49 45 216 44 243 0 8 3 42 8 75 9 74 11 432 2 500 -21 159 -39
267 -53 320 -9 33 -20 80 -25 105 -5 25 -14 59 -21 75 -7 17 -11 34 -10 38 2
10 -65 209 -120 356 -21 57 -39 107 -39 111 0 4 19 3 42 -3 62 -15 376 -122
433 -147 17 -8 98 -40 270 -107 22 -9 55 -22 73 -30 18 -8 90 -33 160 -56 225
-73 308 -60 557 85 114 67 139 84 441 319 74 57 127 85 196 103 50 12 71 13
147 1z"/>
<path d="M1440 3174 c-69 -28 -106 -127 -72 -194 24 -48 72 -78 124 -78 46 0
66 -5 148 -40 14 -6 72 -25 130 -42 161 -49 165 -55 176 -277 3 -65 9 -145 14
-178 21 -136 22 -175 6 -200 -37 -57 -6 -154 59 -181 92 -38 190 10 205 101 5
27 12 32 109 67 147 53 278 120 329 168 42 40 92 127 92 162 0 9 4 19 9 23 6
3 10 13 10 23 -1 22 46 216 55 231 4 6 16 11 27 11 11 0 36 7 57 16 20 9 51
16 67 14 17 -2 37 -4 45 -4 9 -1 20 -5 27 -9 6 -4 34 -9 61 -12 78 -7 206 -52
236 -82 47 -46 47 -93 0 -249 -20 -69 -27 -112 -27 -189 -1 -95 0 -104 34
-175 25 -53 56 -96 106 -147 l69 -71 -4 -59 c-6 -78 13 -114 74 -143 41 -20
50 -21 87 -10 119 35 145 171 47 247 -8 6 -32 15 -52 18 -30 5 -52 22 -105 79
-38 40 -81 97 -97 127 -26 47 -30 64 -30 134 1 53 8 105 23 155 67 222 61 294
-32 382 -60 58 -234 115 -400 132 -21 2 -39 5 -40 7 -1 2 -10 21 -19 41 -34
73 -118 97 -198 56 -37 -19 -48 -31 -63 -71 -13 -38 -15 -57 -8 -84 8 -29 6
-44 -9 -77 -22 -49 -26 -65 -55 -217 -16 -87 -48 -152 -93 -189 -32 -27 -124
-76 -187 -100 -11 -5 -55 -22 -97 -39 -80 -32 -113 -38 -123 -21 -3 6 -17 10
-30 10 -13 0 -26 3 -28 8 -6 8 -13 106 -22 272 -12 227 -22 273 -76 327 -40
41 -78 57 -283 118 l-88 26 5 39 c8 59 -23 116 -75 140 -51 23 -71 24 -118 4z"/>
</g>
</svg>
