<?xml version="1.0" standalone="no"?>
<!DOCTYPE svg PUBLIC "-//W3C//DTD SVG 20010904//EN"
 "http://www.w3.org/TR/2001/REC-SVG-20010904/DTD/svg10.dtd">
<svg version="1.0" xmlns="http://www.w3.org/2000/svg"
 width="500.000000pt" height="500.000000pt" viewBox="-8 22 516 457"
 preserveAspectRatio="xMidYMid meet">
<metadata>
Created by potrace 1.16, written by Peter Selinger 2001-2019
</metadata>
<g transform="translate(0.000000,500.000000) scale(0.100000,-0.100000)"
fill="#000000" stroke="none">
<path d="M3373 4686 c-35 -5 -63 -13 -63 -18 0 -4 -15 -8 -34 -8 -19 0 -38 -5
-41 -10 -9 -14 -85 -52 -85 -43 0 5 -5 0 -11 -9 -5 -10 -17 -18 -26 -18 -14 0
-49 -24 -95 -65 -10 -8 -22 -15 -28 -15 -5 0 -10 -4 -10 -9 0 -5 -13 -14 -30
-21 -16 -7 -30 -16 -30 -21 0 -5 -10 -14 -22 -19 -37 -16 -86 -52 -132 -96 -6
-6 -24 -19 -41 -30 -36 -23 -50 -33 -76 -56 -10 -10 -23 -18 -28 -18 -5 0 -14
-7 -21 -15 -7 -9 -15 -13 -18 -11 -2 3 -11 -2 -19 -10 -8 -8 -19 -12 -24 -9
-5 4 -9 0 -9 -8 0 -9 -24 -29 -52 -46 -29 -17 -62 -36 -73 -43 -11 -7 -37 -23
-57 -35 -21 -13 -46 -23 -56 -23 -9 0 -25 -9 -35 -20 -10 -12 -22 -18 -27 -15
-6 4 -13 -1 -16 -9 -3 -9 -12 -16 -19 -16 -16 0 -73 -29 -80 -41 -4 -5 -17 -9
-31 -9 -13 0 -24 -4 -24 -9 0 -8 -50 -32 -72 -35 -4 -1 -17 -9 -29 -19 -17
-15 -33 -18 -83 -14 -33 2 -72 7 -86 12 -14 4 -41 8 -62 9 -26 1 -34 4 -27 13
7 8 5 10 -10 6 -13 -3 -21 -1 -21 7 0 6 -10 10 -22 8 -13 -2 -27 2 -33 9 -5 7
-22 14 -36 15 -15 2 -33 8 -40 14 -29 21 -68 37 -93 37 -15 0 -29 3 -31 8 -6
9 -131 69 -145 69 -6 0 -10 5 -10 11 0 5 -4 8 -9 4 -6 -3 -25 4 -43 15 -18 11
-43 20 -54 20 -12 0 -27 7 -34 15 -6 7 -31 17 -56 21 -24 3 -41 10 -38 15 3 5
-7 9 -21 9 -15 0 -24 4 -20 10 3 6 -2 10 -12 10 -10 0 -37 9 -58 20 -22 11
-45 18 -52 16 -7 -3 -12 -1 -10 5 1 6 -20 18 -48 27 -27 9 -52 19 -55 23 -3 3
-21 10 -40 14 -19 4 -37 10 -40 14 -6 7 -120 46 -135 46 -5 0 -13 4 -16 8 -7
9 -58 24 -131 37 -27 5 -54 12 -60 17 -7 4 -24 8 -38 9 -114 5 -146 8 -156 15
-22 17 -71 13 -102 -10 -26 -18 -32 -29 -32 -59 0 -21 6 -46 13 -57 13 -19 35
-89 40 -126 2 -10 8 -23 14 -30 14 -18 43 -104 43 -130 0 -11 4 -18 9 -15 5 3
11 -12 15 -34 3 -22 11 -40 17 -40 6 0 8 -8 5 -18 -4 -10 1 -27 9 -38 8 -10
15 -29 15 -41 0 -13 5 -23 10 -23 6 0 10 -6 9 -12 -3 -16 17 -64 28 -71 5 -3
10 -23 11 -43 2 -21 7 -43 11 -49 5 -5 11 -22 15 -37 3 -16 11 -28 16 -28 6 0
10 -16 10 -35 0 -25 4 -35 16 -35 8 0 12 -5 9 -10 -7 -12 35 -161 44 -156 3 2
7 -14 8 -36 2 -21 9 -46 17 -53 9 -9 13 -29 11 -52 -3 -47 3 -63 24 -64 9 0
11 -3 6 -5 -12 -5 -8 -73 5 -89 5 -5 11 -34 14 -62 3 -29 10 -62 16 -73 8 -15
8 -20 -1 -20 -9 0 -9 -3 0 -14 14 -16 25 -168 23 -306 -3 -199 -6 -250 -14
-250 -4 0 -5 -7 -2 -15 4 -8 3 -23 -1 -32 -4 -10 -9 -38 -12 -63 -2 -25 -6
-58 -8 -75 -1 -16 -4 -30 -5 -30 -3 0 -8 -27 -15 -94 -3 -30 -10 -62 -16 -72
-5 -10 -11 -34 -14 -54 -8 -63 -29 -145 -38 -145 -4 0 -5 -5 -2 -10 4 -6 3
-16 -2 -23 -5 -7 -10 -28 -12 -47 -2 -19 -7 -42 -12 -51 -4 -9 -9 -33 -11 -54
-1 -20 -8 -39 -14 -42 -6 -2 -14 -22 -18 -44 -3 -21 -11 -39 -17 -39 -5 0 -8
-4 -4 -10 5 -8 -12 -75 -33 -130 -3 -8 -4 -18 -4 -22 1 -5 -3 -8 -8 -8 -6 0
-10 -5 -10 -10 0 -6 -11 -33 -25 -62 -14 -28 -25 -59 -25 -68 0 -9 -3 -20 -7
-24 -5 -4 -8 -11 -9 -14 0 -4 -3 -14 -7 -22 -25 -61 -33 -108 -30 -163 3 -34
9 -63 14 -65 5 -2 9 -10 9 -18 0 -13 25 -19 58 -15 6 1 12 -2 12 -8 0 -5 12
-14 28 -19 15 -6 61 -25 102 -42 41 -17 82 -33 91 -35 9 -2 36 -13 59 -24 24
-11 59 -24 79 -27 20 -4 49 -13 65 -21 15 -8 37 -13 47 -10 12 3 19 0 19 -9 0
-9 11 -14 29 -14 17 0 33 -5 36 -10 4 -6 11 -8 16 -5 5 4 9 1 9 -4 0 -6 18
-11 40 -11 27 0 39 -4 37 -12 -1 -8 8 -12 23 -11 14 1 44 -5 68 -13 23 -9 49
-13 57 -11 7 3 15 1 17 -5 5 -13 33 -20 101 -27 5 -1 6 -5 3 -10 -3 -4 2 -8
12 -8 20 1 69 -11 97 -23 30 -13 87 -28 131 -35 12 -2 30 -7 40 -13 11 -6 33
-12 49 -15 17 -3 41 -9 55 -15 52 -20 97 -32 124 -32 15 0 36 -5 47 -10 13 -7
19 -7 19 0 0 13 37 13 45 0 4 -6 11 -8 16 -5 5 4 9 1 9 -6 0 -7 8 -6 24 4 16
11 43 15 85 13 41 -1 66 3 73 11 6 7 23 13 39 13 16 0 29 4 29 9 0 9 57 27 73
23 5 -2 6 1 3 6 -3 5 13 19 34 31 22 12 40 27 40 32 0 6 8 9 17 7 10 -2 32 11
49 29 17 18 34 30 37 26 3 -3 31 20 61 51 31 31 60 56 65 56 6 0 15 9 21 19 5
11 19 23 30 26 11 4 18 10 15 14 -2 5 7 13 21 20 14 6 22 16 19 21 -4 6 -1 9
6 8 7 -2 18 7 24 20 5 12 15 22 21 22 21 0 147 133 137 144 -4 3 0 6 7 6 7 0
33 16 56 36 24 19 44 32 44 28 0 -4 11 3 25 16 14 13 25 19 25 14 0 -5 35 -9
78 -8 87 0 158 -19 264 -73 14 -7 33 -10 41 -7 8 3 18 0 23 -7 5 -8 3 -10 -7
-4 -8 5 -11 4 -6 0 4 -5 19 -11 32 -12 13 -2 36 -10 52 -18 15 -8 38 -15 51
-15 12 0 22 -4 22 -9 0 -5 16 -11 35 -13 20 -2 35 0 35 7 0 5 5 3 10 -5 5 -8
10 -10 10 -5 0 6 6 3 13 -5 7 -9 21 -17 32 -18 32 -3 49 -7 61 -14 6 -4 30 -8
55 -9 24 -1 50 -7 58 -13 8 -6 16 -10 18 -8 2 2 18 0 36 -3 17 -3 41 -7 52 -8
11 -1 26 -7 34 -11 10 -6 12 -5 7 2 -9 16 -1 15 32 -2 15 -7 51 -13 79 -12 29
1 48 -1 42 -5 -18 -11 2 -16 76 -18 38 -2 77 -7 86 -12 25 -13 42 -11 33 4 -6
9 -5 9 8 -1 21 -17 107 -32 114 -20 3 5 15 3 27 -5 12 -8 42 -17 67 -20 25 -4
70 -11 100 -18 30 -6 69 -11 85 -13 17 -1 36 -5 42 -9 7 -4 29 -9 50 -11 21
-2 54 -11 74 -19 20 -9 47 -18 60 -21 13 -2 36 -9 50 -14 61 -24 119 22 119
93 0 24 -6 50 -13 57 -8 7 -20 31 -27 53 -7 22 -18 50 -26 62 -8 12 -16 30
-17 40 -5 23 -24 73 -37 95 -6 10 -10 27 -10 38 0 11 -4 20 -10 20 -5 0 -10 9
-10 21 0 12 -6 35 -14 52 -7 18 -21 55 -31 82 -9 28 -19 57 -22 65 -4 8 -7 17
-8 20 -6 24 -18 59 -25 75 -5 11 -11 41 -15 68 -3 26 -10 45 -16 42 -5 -4 -9
14 -9 40 0 25 -4 44 -8 41 -5 -3 -9 13 -10 35 -1 22 -7 49 -13 60 -12 24 -18
49 -21 102 -2 20 -6 37 -9 37 -6 0 -8 7 -13 62 -2 20 -7 42 -11 48 -4 7 -9 33
-11 59 -2 25 -6 57 -10 71 -3 14 -7 34 -8 45 -2 11 -4 20 -6 20 -1 0 -4 31 -6
69 -2 37 -9 75 -16 84 -10 12 -10 16 0 19 17 6 15 33 -5 56 -10 11 -12 17 -5
13 6 -4 13 -2 13 3 4 34 2 46 -9 43 -10 -2 -10 3 -3 17 8 13 8 20 0 23 -7 2
-7 12 -1 28 5 14 6 34 2 45 -4 12 -3 23 4 27 7 5 7 8 1 8 -15 0 -11 336 4 373
14 36 14 44 -1 50 -10 3 -10 7 -2 18 16 21 26 69 14 69 -5 0 -10 5 -10 11 0 5
5 7 11 3 8 -5 10 1 7 20 -3 14 -1 26 4 26 6 0 8 7 4 15 -3 8 -2 15 2 15 4 0 7
15 6 32 -1 18 3 36 8 39 9 6 22 90 21 136 -1 12 4 21 10 20 6 -1 14 14 18 33
3 19 11 47 17 61 6 15 8 30 4 34 -3 3 0 10 8 15 7 5 15 14 16 22 1 7 8 27 15
43 7 17 13 32 14 35 0 3 6 14 11 25 6 11 14 32 18 48 3 15 11 27 16 27 6 0 10
11 10 25 0 14 4 25 10 25 5 0 12 11 16 25 3 14 10 25 14 25 4 0 11 11 14 25 4
14 11 25 16 25 6 0 10 9 10 21 0 11 5 17 10 14 6 -3 10 0 10 7 0 8 20 35 43
62 33 36 43 54 39 72 -3 17 0 24 12 24 9 0 16 5 16 10 0 6 -7 10 -15 10 -8 0
-15 6 -15 13 0 6 -14 25 -30 40 -20 21 -34 27 -49 22 -12 -4 -21 -2 -21 4 0
12 -76 34 -93 28 -7 -2 -19 2 -28 9 -8 7 -24 15 -35 17 -11 1 -36 13 -55 25
-20 12 -48 22 -63 22 -14 0 -26 4 -26 10 0 5 -3 9 -7 8 -9 -2 -95 41 -103 51
-3 3 -18 8 -35 9 -16 2 -37 9 -45 16 -33 28 -126 73 -139 68 -8 -3 -11 0 -7 7
5 7 -3 11 -22 11 -17 0 -32 6 -36 15 -3 8 -13 15 -22 15 -9 0 -28 8 -42 19
-15 10 -44 24 -64 30 -21 7 -38 17 -38 22 0 5 -9 9 -20 9 -10 0 -25 6 -32 13
-7 8 -20 12 -30 9 -10 -2 -18 0 -18 6 0 6 -21 20 -47 32 -27 12 -56 26 -65 31
-10 5 -24 9 -32 9 -7 0 -19 7 -26 15 -7 8 -22 15 -35 15 -12 0 -35 7 -52 15
-16 8 -42 16 -58 17 -15 2 -29 7 -32 13 -2 6 -18 10 -36 9 -18 -2 -45 0 -62 4
-16 4 -58 3 -92 -2z m52 -267 c66 1 122 -2 140 -9 16 -6 52 -14 80 -17 27 -3
61 -11 75 -18 14 -7 30 -10 36 -8 6 2 17 -3 24 -12 7 -8 20 -15 30 -15 9 0 31
-7 48 -16 18 -8 41 -13 52 -9 15 5 18 3 14 -9 -6 -15 17 -22 49 -17 4 0 7 -3
7 -9 0 -5 6 -10 13 -10 8 0 22 -9 32 -20 10 -11 28 -20 39 -20 12 0 41 -11 65
-25 23 -14 50 -25 58 -25 8 0 11 -4 8 -10 -6 -9 22 -15 54 -11 7 2 10 -3 6 -8
-7 -12 34 -32 48 -24 4 2 10 -3 13 -11 3 -9 12 -16 20 -16 8 0 14 -4 14 -10 0
-5 9 -10 19 -10 11 0 26 -6 33 -12 7 -7 19 -14 26 -15 6 -2 18 -4 24 -5 7 -2
18 -8 26 -15 7 -7 19 -10 27 -7 9 4 15 0 15 -10 0 -15 18 -20 58 -19 8 1 11
-5 8 -14 -3 -8 -2 -12 2 -10 4 3 37 -5 73 -17 58 -19 66 -24 62 -44 -1 -13
-11 -32 -21 -43 -11 -11 -25 -37 -32 -59 -7 -21 -19 -41 -26 -44 -8 -3 -14
-13 -14 -23 0 -10 -11 -36 -24 -57 -13 -22 -22 -46 -19 -53 3 -8 -2 -19 -11
-26 -9 -7 -18 -22 -21 -35 -2 -12 -7 -27 -11 -34 -4 -6 -8 -27 -10 -46 -2 -20
-8 -38 -14 -42 -16 -10 -41 -60 -29 -60 5 0 9 -4 9 -10 0 -5 -7 -10 -16 -10
-8 0 -12 -5 -9 -10 4 -6 0 -23 -8 -39 -11 -21 -12 -32 -4 -40 8 -8 8 -11 0
-11 -10 0 -30 -73 -25 -92 1 -5 -2 -8 -6 -8 -5 0 -8 -20 -8 -44 1 -24 -2 -42
-6 -39 -5 2 -8 -6 -9 -19 0 -13 -2 -32 -5 -43 -2 -11 -5 -43 -7 -70 -1 -28 -6
-55 -9 -61 -4 -6 -5 -25 -2 -43 3 -18 2 -40 -1 -49 -12 -30 -16 -114 -15 -292
1 -187 4 -236 17 -315 5 -27 8 -81 7 -120 -1 -38 3 -79 9 -90 12 -22 13 -25
22 -105 7 -60 10 -78 17 -100 17 -47 32 -108 31 -127 0 -13 3 -23 7 -23 4 0
10 -9 13 -20 3 -11 0 -20 -5 -20 -7 0 -7 -4 0 -12 5 -7 12 -26 15 -43 3 -16 9
-41 15 -55 15 -38 35 -109 35 -125 0 -8 3 -12 7 -10 4 2 17 -27 29 -66 13 -38
27 -72 32 -75 5 -3 9 -16 9 -29 0 -13 7 -30 15 -39 8 -8 15 -21 15 -30 0 -8 4
-17 9 -21 5 -3 17 -28 26 -55 9 -28 21 -50 26 -50 5 0 8 -3 7 -7 -3 -12 55
-127 72 -143 10 -10 31 -63 26 -67 -3 -3 -43 7 -89 22 -46 14 -97 29 -113 31
-41 7 -57 10 -74 17 -8 3 -31 8 -50 11 -19 3 -66 12 -104 20 -38 8 -73 13 -78
10 -4 -3 -8 -1 -8 4 0 5 -6 9 -12 9 -38 1 -130 13 -136 17 -4 3 -14 1 -22 -4
-8 -5 -18 -3 -26 4 -7 7 -43 16 -80 19 -37 4 -70 10 -73 15 -3 4 -28 9 -56 10
-27 1 -51 6 -53 12 -2 5 -8 10 -13 10 -6 0 -8 -4 -5 -8 5 -8 -68 8 -106 23
-12 5 -18 2 -18 -6 -1 -10 -5 -8 -15 5 -7 10 -20 16 -27 13 -7 -2 -25 2 -39 9
-15 7 -29 10 -32 7 -4 -3 -13 0 -22 7 -8 7 -15 9 -15 5 0 -4 -6 -3 -12 2 -14
11 -68 27 -81 24 -4 -1 -18 5 -30 14 -12 8 -32 15 -44 15 -13 0 -23 4 -23 9 0
8 -104 42 -123 40 -4 0 -19 7 -33 16 -16 11 -41 15 -70 14 -25 -2 -48 2 -52 8
-4 6 -23 13 -42 15 -19 3 -44 9 -54 13 -13 6 -17 5 -13 -2 4 -6 -6 -10 -28 -9
-19 0 -35 5 -35 10 0 5 -7 3 -15 -4 -10 -8 -15 -9 -15 -1 0 7 -8 8 -26 1 -14
-6 -41 -10 -60 -10 -19 0 -34 -4 -34 -10 0 -5 -5 -10 -11 -10 -5 0 -7 6 -3 13
6 9 5 9 -7 0 -9 -7 -24 -14 -35 -16 -34 -7 -59 -20 -72 -39 -7 -10 -22 -18
-33 -18 -11 0 -17 -4 -14 -10 3 -5 -1 -10 -10 -10 -9 0 -22 -6 -30 -13 -7 -6
-28 -23 -45 -37 -50 -37 -120 -108 -120 -120 0 -5 -5 -10 -11 -10 -6 0 -37
-28 -68 -62 -85 -93 -164 -168 -178 -168 -7 0 -17 -8 -22 -19 -13 -24 -119
-87 -163 -96 -18 -4 -38 -12 -45 -17 -16 -13 -121 -17 -208 -8 -38 4 -74 4
-78 0 -12 -10 -48 0 -41 11 4 8 -24 13 -63 12 -7 -1 -10 4 -6 10 4 6 0 8 -10
4 -9 -3 -19 -2 -22 3 -4 6 -19 10 -34 10 -15 0 -31 3 -35 7 -4 5 -12 9 -17 9
-5 1 -10 2 -11 4 -2 1 -16 4 -33 6 -16 3 -34 9 -39 15 -6 5 -19 9 -30 9 -11 0
-38 6 -61 14 -88 31 -212 66 -233 66 -11 0 -24 5 -27 10 -4 6 -10 8 -15 5 -5
-3 -17 -2 -27 3 -52 27 -72 34 -82 28 -6 -4 -11 -2 -11 5 0 7 -3 9 -7 6 -3 -4
-17 0 -31 9 -15 10 -21 11 -17 3 6 -8 4 -10 -4 -4 -11 6 -59 19 -266 71 -33 8
-76 17 -95 19 -74 9 -90 12 -97 18 -3 4 -18 7 -32 7 -14 0 -32 4 -39 9 -14 8
-13 11 16 68 7 13 12 34 12 48 0 16 6 25 15 25 8 0 14 3 13 7 -1 9 9 40 23 65
5 10 9 25 9 33 0 8 4 15 9 15 8 0 17 21 19 44 0 5 5 12 10 15 6 3 12 15 14 26
1 11 5 22 8 25 17 16 40 62 40 79 0 11 7 24 15 28 8 5 16 21 17 36 1 15 6 27
10 27 4 0 8 8 8 18 0 10 7 27 15 38 8 10 15 28 15 39 0 12 5 26 11 32 10 10
17 39 22 88 1 11 7 23 14 28 7 4 10 14 6 22 -3 9 -1 21 5 28 5 6 10 19 11 27
5 70 15 116 24 122 9 6 8 11 -3 18 -13 9 -13 12 1 20 11 7 17 26 18 62 1 29 3
64 5 78 1 14 -2 31 -7 38 -7 9 -5 17 6 25 12 9 16 37 19 122 1 61 6 112 9 115
12 9 16 190 5 190 -6 0 -5 4 2 8 9 6 10 26 6 73 -3 35 -6 79 -5 98 1 19 -3 47
-10 63 -8 20 -8 32 -1 41 7 8 7 18 2 27 -6 8 -10 40 -11 70 0 30 -3 49 -6 42
-10 -26 -21 -1 -13 32 4 19 6 36 5 38 -2 2 -6 23 -9 48 -3 25 -11 47 -16 48
-6 2 -10 20 -10 41 0 20 -4 41 -10 47 -5 5 -12 30 -14 54 -2 24 -9 46 -15 48
-6 2 -11 19 -11 38 0 20 -5 45 -12 57 -14 26 -19 45 -19 70 0 9 -4 17 -9 17
-4 0 -11 18 -15 40 -4 22 -11 42 -16 46 -5 3 -9 17 -9 32 0 15 -6 36 -13 47
-7 11 -19 40 -27 65 -7 25 -18 51 -23 58 -6 7 -7 15 -3 19 3 3 -1 17 -10 31
-8 13 -13 26 -10 29 3 3 -1 15 -9 27 -8 11 -15 31 -15 43 0 13 -4 23 -8 23 -4
0 -13 20 -20 46 -7 25 -21 57 -32 72 -10 15 -21 38 -23 52 -4 27 -11 48 -32
96 -19 45 -6 59 36 37 19 -10 36 -20 39 -23 3 -3 14 -6 25 -8 11 -2 30 -10 42
-18 12 -8 33 -14 47 -14 13 0 27 -7 30 -16 4 -10 14 -14 25 -11 11 3 22 -1 25
-8 2 -7 31 -21 63 -30 32 -9 72 -24 88 -32 59 -31 65 -33 90 -33 14 0 25 -6
25 -13 0 -8 6 -14 13 -15 56 -6 117 -27 117 -39 0 -9 120 -49 134 -45 5 2 12
-1 15 -5 14 -20 63 -43 91 -43 16 0 30 -4 30 -10 0 -5 8 -10 18 -10 9 0 34 -9
55 -20 20 -11 44 -20 52 -20 8 0 15 -4 15 -10 0 -5 11 -10 25 -10 14 0 25 -4
25 -9 0 -9 57 -27 73 -23 4 1 7 -2 7 -8 0 -5 9 -10 19 -10 11 0 26 -7 35 -15
8 -8 22 -15 30 -15 9 0 16 -4 16 -10 0 -5 10 -10 23 -10 12 0 31 -6 42 -14 11
-7 22 -14 25 -13 14 0 50 -15 50 -23 0 -4 23 -7 51 -6 33 1 53 -3 58 -11 11
-21 224 -18 239 3 4 5 20 10 37 12 16 2 33 8 36 14 4 6 11 8 17 4 5 -3 21 3
35 14 14 11 32 20 41 20 9 0 16 5 16 10 0 6 11 10 25 10 14 0 28 7 31 15 4 10
13 13 25 10 12 -4 22 1 29 15 6 12 17 19 23 17 15 -5 68 21 84 42 7 9 13 13
13 9 0 -11 80 32 80 43 0 5 7 9 16 9 8 0 22 7 31 15 8 8 18 13 23 10 4 -3 10
2 14 10 3 8 12 15 19 15 8 0 22 9 32 20 10 11 20 18 23 15 3 -2 15 7 28 20 13
14 31 25 40 25 9 0 27 11 40 25 13 14 28 25 34 25 6 0 13 7 16 15 4 8 12 15
20 15 7 0 24 11 38 25 14 14 30 25 37 25 11 0 71 45 116 86 13 12 38 28 55 35
17 7 45 25 62 41 27 25 39 30 62 27 4 0 10 5 14 11 4 7 19 13 33 13 14 1 23 5
20 10 -7 12 8 28 20 20 7 -4 62 -6 122 -4z m-645 -299 c0 -5 -5 -10 -11 -10
-5 0 -7 5 -4 10 3 6 8 10 11 10 2 0 4 -4 4 -10z m-370 -3440 c0 -5 -2 -10 -4
-10 -3 0 -8 5 -11 10 -3 6 -1 10 4 10 6 0 11 -4 11 -10z"/>
<path d="M1125 3412 c-62 -7 -112 -42 -156 -112 -18 -29 -26 -130 -9 -130 5 0
10 -8 10 -17 0 -17 73 -102 88 -104 4 0 16 -3 27 -5 17 -4 76 -9 163 -15 12 0
22 -7 22 -15 0 -12 28 -19 78 -17 6 1 12 -3 12 -8 0 -5 13 -9 28 -9 16 0 37
-7 48 -15 10 -8 34 -15 52 -15 17 0 32 -5 32 -11 0 -5 5 -7 11 -3 6 3 14 3 18
-2 11 -16 82 -44 94 -38 7 4 9 4 5 -1 -4 -4 7 -17 24 -29 66 -45 78 -91 82
-326 5 -257 20 -380 47 -380 14 0 16 -40 3 -51 -8 -6 -14 -17 -14 -24 0 -8 -5
-15 -11 -17 -19 -6 -30 -97 -17 -141 14 -47 82 -117 113 -117 12 0 26 -5 33
-12 18 -18 113 9 151 44 53 50 80 132 61 184 -8 19 -5 26 13 36 12 7 36 14 52
16 17 2 51 9 78 17 26 8 47 12 47 10 0 -2 16 3 35 11 19 7 44 14 55 14 12 0
29 7 37 16 13 13 17 13 24 2 7 -11 9 -11 9 0 0 7 4 11 8 8 5 -3 22 2 38 10 16
9 47 23 69 32 22 9 45 21 52 26 34 29 43 36 50 36 12 1 93 77 93 88 0 5 7 15
16 22 18 16 44 74 46 107 2 13 6 23 9 23 7 0 23 52 24 75 0 6 4 13 8 16 5 3
10 29 13 57 2 28 8 62 14 77 5 14 10 41 10 59 0 44 36 86 75 86 17 0 43 9 58
19 21 13 38 17 60 12 18 -4 47 -7 64 -6 18 0 35 -6 38 -12 2 -7 9 -13 15 -13
6 0 8 5 5 10 -8 12 0 13 23 1 27 -15 55 -24 79 -25 12 -1 25 -4 29 -8 4 -5 18
-8 30 -8 13 0 25 -4 28 -9 3 -4 28 -11 56 -15 27 -4 50 -11 50 -15 0 -5 16
-12 35 -15 19 -4 35 -10 35 -14 0 -4 14 -16 30 -25 17 -10 30 -16 30 -13 0 3
11 -5 25 -18 26 -24 36 -88 15 -101 -5 -3 -10 -22 -10 -41 0 -20 -7 -42 -15
-50 -8 -9 -15 -26 -15 -40 0 -13 -3 -24 -7 -24 -7 0 -12 -22 -16 -77 -1 -11
-5 -19 -9 -17 -7 5 -28 -60 -28 -88 0 -9 -4 -19 -9 -22 -11 -7 -15 -222 -4
-239 4 -6 8 -22 9 -35 4 -31 63 -117 91 -133 13 -7 21 -14 19 -17 -6 -5 114
-102 126 -102 5 0 6 -5 3 -10 -3 -6 0 -10 7 -10 7 0 24 -9 38 -19 21 -17 22
-21 10 -37 -10 -11 -15 -40 -15 -84 0 -62 2 -70 35 -107 42 -49 133 -82 169
-63 9 5 33 17 54 26 72 32 115 136 88 215 -12 35 -64 99 -80 99 -5 0 -11 5
-13 10 -2 6 -28 13 -58 15 -50 4 -58 8 -102 54 -27 28 -52 51 -56 51 -19 0
-139 144 -158 190 -18 40 -17 181 0 214 8 16 12 35 9 42 -3 8 -1 14 5 14 5 0
13 15 16 34 4 19 10 36 14 38 12 5 54 127 47 137 -3 5 -1 11 5 13 15 5 22 45
22 124 0 61 -5 79 -28 115 -33 53 -75 98 -91 99 -7 0 -13 4 -13 10 0 17 -153
84 -222 97 -18 3 -37 9 -43 13 -11 9 -96 22 -132 21 -12 0 -25 4 -28 10 -5 7
-12 6 -22 -2 -9 -8 -17 -9 -21 -3 -4 5 -23 9 -42 9 -47 0 -70 12 -70 36 0 71
-91 149 -175 149 -54 0 -97 -22 -135 -68 -47 -57 -55 -101 -32 -184 8 -29 7
-42 -7 -65 -21 -34 -51 -124 -51 -152 0 -12 -5 -21 -11 -21 -6 0 -8 -7 -5 -16
4 -9 1 -23 -5 -30 -6 -8 -9 -25 -7 -39 3 -14 -1 -30 -8 -36 -8 -6 -14 -27 -14
-46 0 -20 -4 -32 -10 -28 -5 3 -10 0 -10 -8 0 -21 -39 -97 -50 -97 -6 0 -10
-4 -10 -10 0 -9 -32 -42 -73 -75 -6 -6 -28 -19 -47 -28 -19 -10 -42 -21 -50
-26 -31 -18 -91 -41 -105 -41 -8 0 -15 -4 -15 -10 0 -5 -10 -10 -23 -10 -13 0
-28 -5 -33 -10 -6 -6 -22 -12 -35 -13 -28 -3 -134 -35 -167 -50 -13 -6 -39
-11 -59 -11 -47 0 -70 29 -78 99 -4 30 -11 55 -14 55 -4 0 -8 75 -9 168 -1
232 -3 305 -10 317 -4 6 -16 39 -29 74 -13 38 -34 75 -49 88 -15 13 -23 23
-18 23 8 0 -31 28 -80 57 -12 7 -32 13 -45 13 -13 0 -29 7 -35 15 -6 8 -28 15
-48 17 -21 1 -38 5 -38 9 0 4 -18 7 -39 7 -22 0 -48 5 -58 10 -10 6 -21 10
-25 11 -5 1 -9 1 -10 2 -2 0 -16 3 -33 5 -16 3 -35 10 -41 15 -7 5 -16 9 -20
8 -27 -5 -35 2 -28 23 11 35 6 105 -10 135 -32 63 -118 112 -181 105z"/>
</g>
</svg>
