<?xml version="1.0" standalone="no"?>
<!DOCTYPE svg PUBLIC "-//W3C//DTD SVG 20010904//EN"
 "http://www.w3.org/TR/2001/REC-SVG-20010904/DTD/svg10.dtd">
<svg version="1.0" xmlns="http://www.w3.org/2000/svg"
 width="500.000000pt" height="500.000000pt" viewBox="144 161 211 157"
 preserveAspectRatio="xMidYMid meet">
<metadata>
Created by potrace 1.16, written by Peter Selinger 2001-2019
</metadata>
<g transform="translate(0.000000,500.000000) scale(0.100000,-0.100000)"
fill="#000000" stroke="none">
<path d="M2060 3296 c-155 -45 -259 -174 -268 -335 -2 -42 1 -94 7 -116 18
-67 72 -146 131 -191 75 -58 141 -78 240 -72 136 8 246 82 306 205 25 51 29
69 29 148 0 133 -27 199 -115 283 -78 75 -223 109 -330 78z m171 -106 c83 -23
165 -132 173 -231 8 -99 -50 -206 -138 -251 -125 -64 -279 -11 -342 119 -50
102 -28 216 60 302 66 65 155 87 247 61z"/>
<path d="M2850 3174 c-132 -50 -208 -143 -217 -265 -13 -167 94 -301 259 -325
81 -11 197 28 239 81 9 11 26 31 38 44 26 30 54 121 54 176 0 73 -33 156 -83
205 -62 62 -109 83 -200 87 -41 1 -82 0 -90 -3z m140 -106 c74 -25 129 -104
130 -184 0 -23 -10 -61 -25 -90 -73 -144 -267 -144 -340 0 -29 58 -30 75 -10
143 11 39 27 62 61 92 25 22 55 42 67 44 43 8 85 7 117 -5z"/>
<path d="M2835 2529 c-121 -11 -195 -44 -195 -87 1 -46 33 -55 110 -31 88 27
263 27 354 -1 157 -49 247 -174 263 -369 7 -83 12 -93 49 -93 44 -1 55 25 49
116 -7 102 -19 146 -58 221 -55 102 -133 168 -272 227 -31 13 -221 24 -300 17z"/>
<path d="M1985 2519 c-227 -28 -408 -198 -452 -424 -23 -124 -11 -195 36 -195
36 0 49 23 56 100 7 91 19 139 47 188 65 118 136 175 263 214 58 18 94 22 215
22 149 0 222 -14 305 -58 41 -22 122 -103 151 -151 29 -51 55 -151 58 -226 3
-65 17 -89 52 -89 52 0 63 76 33 224 -24 120 -129 266 -233 325 -104 58 -165
72 -325 75 -80 1 -173 -1 -206 -5z"/>
</g>
</svg>
