<svg width="250" height="250" viewBox="0 0 250 250" fill="none" xmlns="http://www.w3.org/2000/svg">
<g clip-path="url(#clip0_137_2558)">
<path d="M140.8 86.4586L140.964 86.3004L142.039 85.961L142.828 85.6215L143.047 85.7685L143.31 85.3727C143.31 85.3727 143.376 85.3274 143.398 85.3161L144.056 85.1012L144.582 84.875L146.007 84.5922C146.654 84.4564 147.465 84.6601 148.134 84.6035L149.887 84.4563L151.422 84.3657L154.776 84.8524L156.761 85.4406L158.383 86.0176L159.063 86.2551C160.06 86.6058 160.477 87.1373 161.617 87.5219L162.965 87.9859C163.152 88.0538 163.612 88.1556 163.755 88.2914L164.664 89.1511C164.993 89.4566 165.213 89.6939 165.432 90.0559L165.75 90.418L166.66 91.3231C166.857 91.5267 167.098 91.9226 167.284 92.1828C167.537 92.5335 167.701 92.7597 167.778 93.2235C167.898 93.9362 168.808 94.5357 169.181 95.4746L169.575 96.4816L169.817 97.1715C169.883 97.3525 169.97 97.7823 169.838 97.9747C169.542 98.3932 169.948 98.8911 169.981 99.2644L170.156 101.414L169.959 102.262L169.806 103.427L169.619 104.853L169.937 105.577L169.422 106.267L169.389 107.455L168.688 107.715L168.216 109.163C168.085 109.57 167.909 109.808 167.482 109.989L166.89 111.176C166.758 111.448 166.396 111.652 166.1 111.753L165.355 112.387C164.818 112.851 165.355 113.326 164.73 113.654C163.886 114.106 163.941 114.627 162.889 114.774C162.735 114.796 162.439 114.966 162.286 115.057L160.488 116.052C160.203 116.21 159.523 116.29 159.161 116.335L157.846 116.505C157.254 116.584 156.454 116.561 155.917 116.765C155.127 117.07 154.502 117.296 153.68 117.319L152.201 117.342L150.457 117.477L148.813 117.534L147.575 117.455L144.691 117.274C144.088 117.24 143.277 117.014 142.729 116.81L141.008 116.188C140.734 116.086 140.296 115.916 140.197 115.69C139.879 114.955 139.243 114.864 138.728 114.491L137.117 113.326C136.843 113.122 136.667 112.489 136.481 112.228L135.648 111.086L134.288 109.152V108.337L133.937 107.998L133.455 107.036C133.258 106.64 133.071 105.724 133.126 105.316L133.258 104.434C133.302 104.163 133.126 103.665 133.006 103.337C132.808 102.737 132.83 102.172 133.006 101.584C132.765 101.244 132.589 100.599 132.82 100.26C133.05 99.9204 133.411 97.8956 133.422 98.0652V97.3751C133.422 97.1714 133.653 96.7529 133.784 96.6059L134.179 96.1535C134.036 95.4521 134.267 94.8863 134.475 94.2755C134.65 93.7777 134.738 93.1671 135.11 92.8164C135.538 92.4091 135.472 92.2168 135.922 91.6738L136.601 90.8367L137.511 89.6488L138.136 89.4677L138.75 88.6079L139.44 87.3184L139.66 86.911C139.66 86.911 139.693 86.8773 139.747 86.8434L140.307 86.4813L140.8 86.436V86.4586ZM141.436 86.3681L141.37 86.436L141.436 86.5039L141.501 86.436L141.436 86.3681ZM142.85 106.674L143.014 106.742L143.475 106.855L143.727 107.817L144.878 108.609L145.579 108.891L146.654 109.581C147.87 110.362 148.66 110 149.822 110.634L150.71 111.12L151.181 110.803L152.365 110.283L153.735 110.023C154.294 109.921 154.755 109.875 155.314 109.989L156.202 109.638C156.465 109.536 156.739 109.457 157.035 109.502C157.605 109.593 158.153 109.163 158.581 108.654L159.172 107.952L160.038 107.047L160.17 106.199C160.839 105.622 161.2 104.966 161.42 104.106C161.496 103.801 161.77 103.224 161.672 102.952C161.562 102.647 161.442 102.307 161.42 102.104L161.321 101.323L161.2 100.678L161.233 98.8344L161.157 97.8957L159.688 96.0289C159.534 95.8253 159.216 95.4748 159.008 95.373L157.901 94.8298L156.892 94.366C156.432 94.1511 155.972 94.0379 155.577 93.7551L154.974 93.3367C154.612 93.0878 154.064 93.1444 153.68 93.3594L152.793 93.4836C152.343 93.5515 151.992 93.4385 151.499 93.3367C150.556 93.1557 149.23 93.1896 148.353 93.6082C147.476 94.0268 146.763 93.7666 146.27 94.1965C145.941 94.4906 145.766 94.6263 145.349 94.7055C145.064 94.7507 144.669 94.9429 144.472 95.1465L143.705 95.9386L143.266 96.5832C143.069 96.7869 142.85 97.0245 142.729 97.2508L142.302 98.0652L142.28 98.8118L142.576 99.6715L142.291 100.667L142.148 101.323L141.995 103.269L141.863 105.611L142.894 106.719L142.85 106.674ZM141.841 102.443L141.776 102.511L141.841 102.579L141.918 102.511L141.841 102.443Z" fill="black"/>
<path d="M140.964 86.3004L140.8 86.4586C140.811 86.3003 141.019 86.3004 140.964 86.3004Z" fill="black"/>
<path d="M176.02 141.496C175.91 141.393 175.86 141.352 175.94 141.424L176.02 141.496Z" fill="black"/>
<path d="M188.56 171.66C188.49 171.557 188.42 171.485 188.45 171.578L187.83 171.516H187.02L186.32 171.536C186.27 171.547 186.26 171.567 186.24 171.567L185.67 171.547L185.17 171.526H184.29H183.54H182.87L181.06 171.578L179.87 171.701L179.77 171.474C179.85 171.402 179.85 171.382 179.77 171.34L179.95 171.031L179.75 171.062L179.81 170.422L179.86 169.988L179.92 169.441C179.99 169.349 180.02 169.317 179.89 169.317L180.01 168.843H179.83L179.86 168.255L179.95 167.481L180.06 166.861C180.06 166.861 180.08 166.83 180.07 166.789L180.25 166.067L180.29 165.107C180.34 165.014 180.35 164.994 180.34 165.004L180.44 164.808V164.509L180.21 164.292L180.46 163.786L180.18 163.301L180 162.816L179.97 162.62C179.97 162.62 179.81 162.62 179.86 162.62L179.73 162.094L179.7 161.557L179.77 161.454L180.06 160.845C180.06 160.845 180 160.742 179.98 160.701C179.96 160.659 180 160.546 180.02 160.484L180.22 159.803H180.09L180.23 159.246L180.36 158.699C180.36 158.699 180.36 158.647 180.33 158.699L180.2 158.884L180.24 158.007L180.2 156.986L180.11 156.129H179.99C180.01 155.892 179.99 155.644 179.92 155.489L179.59 154.726L179.44 154.705C179.44 154.705 179.47 154.519 179.48 154.488L179.57 153.962L179.47 153.642C179.47 153.642 179.48 153.611 179.55 153.57L179.44 153.116L179.35 152.765C179.35 152.765 179.37 152.734 179.43 152.693L179.26 152.125C179.37 152.022 179.4 152.001 179.3 151.981L179.28 151.867L179.26 151.733L179.21 151.299L179.07 150.505L178.98 149.752L178.9 149.731L178.78 149.133L178.54 148.472C178.49 148.348 178.52 148.09 178.54 147.853L178.38 147.822V147.234C178.36 147.172 178.3 146.976 178.25 146.955L178.14 146.914L178.05 146.387L177.99 146.026C177.98 145.954 177.85 145.923 177.77 145.902L177.66 145.438L177.74 145.273L177.54 144.808C177.5 144.705 177.5 144.437 177.52 144.344C177.52 144.344 177.26 144.385 177.29 144.385L177.11 143.787C177.08 143.684 176.8 143.591 176.75 143.591C176.77 143.529 176.83 143.322 176.78 143.312H176.55L176.34 142.6L176.01 141.486L175.93 141.414L175.72 140.918L175.38 140.454L175.01 140.01L175.13 139.927C174.97 139.814 174.86 139.762 174.87 139.711L174.91 139.515C174.83 139.515 174.67 139.484 174.67 139.494C174.67 139.494 174.67 139.35 174.67 139.298L174.05 139.009L174.15 138.854L174.19 138.803C173.96 138.73 173.71 138.627 173.46 138.472L172.68 138.018C172.51 137.585 172.32 137.409 171.9 137.213C171.53 137.048 171.38 136.326 171.13 136.026C170.37 135.149 169.26 134.861 168.26 134.386L167.32 133.942L165.18 132.951C165 132.869 164.64 132.621 164.43 132.601C163.82 132.528 163.17 132.487 162.65 132.281C162.3 132.136 161.97 131.95 161.61 131.94H160.62H158.9L158.39 131.62C157.64 131.796 157.07 131.269 156.29 131.548C155.8 131.723 155.52 131.723 154.98 131.61C154.59 131.527 154.05 131.816 153.68 132.054L152.72 132.085C151.81 132.982 150.99 132.384 150.04 132.797L149.25 133.137L148.34 133.571L147.68 133.942C147.53 134.025 147.2 134.097 147.04 134.107L145.83 134.179C145.78 134.128 145.51 133.829 145.43 133.695L145.25 133.375L144.98 132.89L145.13 132.745L144.69 132.229L144.71 132.085L144.06 131.548L143.98 131.311L143.79 131.104L143.37 130.619L142.82 129.886L142.08 128.782V128.648L141.98 128.493C141.96 128.452 141.95 128.4 141.93 128.39L141.75 128.297V128.06L141.3 127.255C141.24 127.152 141.22 127.1 141.15 126.894L140.98 126.698L140.73 126.037C140.68 125.913 140.63 125.614 140.62 125.532C140.57 125.47 140.46 125.325 140.48 125.346L141.19 124.923L141.81 124.551C142.79 123.963 143.92 123.973 145.05 124.056C145.63 123.53 146.32 123.024 147.11 122.869L148.79 122.549C149.48 122.425 150.61 123.313 151.44 122.24L152.23 121.909C152.42 121.734 152.7 121.61 152.91 121.641L154.2 121.796C155.26 121.92 155.76 122.57 156.58 122.044C157.14 121.693 157.43 122.085 158.37 122.136L159.31 122.198L160.47 122.446L162.24 122.962L163.41 123.189L165.38 123.881L166.26 124.087L167.58 124.376L168.97 124.851L170.04 125.305L172.64 126.677C173.26 127.007 173.76 127.358 174.37 127.719L176.09 128.741C176.39 128.927 176.74 129.113 177.08 129.236C178.85 129.876 178.87 131.249 179.99 131.744C180.3 131.878 180.54 132.208 180.71 132.518L181.14 133.292L182.12 134.231L183.5 136.016C183.59 136.14 183.74 136.47 183.79 136.625C184.44 137.286 184.87 138.06 185.37 138.844C185.6 139.205 185.91 139.463 186.07 139.938C186.16 140.227 186.39 140.66 186.56 140.887L186.89 141.331L187.56 142.27C187.23 143.271 187.71 143.932 187.65 144.53C187.59 145.129 187.57 145.479 188.17 145.82L188.06 146.635C187.95 147.43 188.49 148.41 189.08 149.133C189.69 149.876 188.71 150.391 189.32 151.072C189.72 151.516 189.57 152.455 189.11 153.054C188.91 153.91 189.23 154.777 189.66 155.572C189.78 155.789 189.72 156.119 189.61 156.356L189.64 157.213C189.66 157.656 189.76 158.069 189.87 158.503L190.06 159.235C189.69 159.504 189.57 159.937 189.76 160.277L190.22 161.093L189.86 161.485L189.58 163.002C189.53 163.26 189.43 163.683 189.44 163.941L189.5 165.128L189.56 166.242C189.79 166.707 189.9 167.13 189.95 167.646L190.26 168.42L189.77 168.709C189.67 168.771 189.55 169.08 189.55 169.204L189.6 170.577L189.34 171.093C189.26 171.258 189.3 171.609 189.36 171.877C189.09 171.836 188.75 171.753 188.51 171.67L188.56 171.66ZM143.4 130.279L143.31 130.341L143.4 130.402L143.46 130.341L143.4 130.279ZM143.65 130.537L143.59 130.599L143.65 130.66L143.71 130.599L143.65 130.537ZM145.01 132.198L144.95 132.26L145.01 132.322L145.07 132.26L145.01 132.198ZM179.53 152.713L179.48 152.827C179.48 152.827 179.51 152.755 179.53 152.713ZM179.61 153.766L179.63 153.663C179.64 153.59 179.63 153.683 179.61 153.766ZM180.24 155.789L180.18 155.851L180.24 155.912L180.3 155.851L180.24 155.789Z" fill="black"/>
<path d="M142.1 128.762L141.93 128.628H142.09C142.09 128.628 142.09 128.7 142.09 128.762H142.1Z" fill="black"/>
<path d="M137.26 155.159C137.26 155.159 137.23 155.015 137.23 155.025L137.26 155.159Z" fill="black"/>
<path d="M84.3798 133.519L84.4799 133.447C84.4799 133.447 84.3298 133.55 84.3798 133.519Z" fill="black"/>
<path d="M136.43 149.669C136.36 149.556 136.32 149.494 136.36 149.556L136.43 149.669Z" fill="black"/>
<path d="M137.4 169.049L137.36 168.915C137.38 168.802 137.24 168.471 137.23 168.327L137.19 167.151L137.23 167.058L137.25 166.294L137.16 166.201L137.24 166.15L137.35 166.222L137.26 165.83C137.33 165.768 137.35 165.737 137.26 165.757C137.31 165.654 137.38 165.458 137.35 165.386L137.19 164.973C137.06 164.643 137.05 164.302 137.21 163.993L137.19 163.549L137.16 162.837V162.496C137.05 162.176 137.11 161.867 137.34 161.547L137.06 161.464C137.15 161.186 137.23 160.659 137.19 160.37L137.12 159.875L137.08 159.101L137.52 158.905L137.21 158.833L137.19 157.677L137.3 157.522C137.24 157.295 137.21 157.12 137.2 156.944L137.18 156.057L137.24 155.985C137.23 155.923 137.19 155.758 137.19 155.685L137.23 155.159L137.2 155.025L136.98 154.55L136.87 153.818C136.82 153.498 136.68 153.167 136.5 152.909L136.32 152.187L136.52 151.785L136.28 151.754C136.19 151.743 136.55 151.31 136.37 150.763C136.24 150.825 136.38 150.763 136.44 150.732L136.5 150.65L136.33 150.515C136.33 150.515 136.33 150.361 136.35 150.309C136.67 150.247 136.63 150.206 136.41 150.175L136.39 149.69L136.32 149.576L136.45 149.339C136.33 149.349 136.19 149.37 136.18 149.318L136.16 149.05L136.09 148.678C136.19 148.575 136.21 148.544 136.13 148.534L135.91 148.328L136.15 148.039L135.78 148.162L135.96 147.729L135.72 147.399H135.82L135.88 147.327L135.75 147.265L135.65 146.542L135.45 146.429L135.47 145.933L135.36 145.913L135.1 145.355L134.73 144.241C134.68 144.076 134.64 144.004 134.49 143.756L134.57 143.643C134.37 143.426 134.29 143.199 134.34 142.889L134.04 142.239C134.01 142.167 133.95 142.033 133.94 142.012C133.94 142.002 134.03 141.919 134.15 141.826C134.16 141.826 134.02 141.764 133.98 141.775L133.81 141.826L133.4 141.094L133.21 140.691C133.17 140.608 133.22 140.371 133.24 140.299H133.02C133.02 140.299 132.9 140.175 132.88 140.134L132.66 139.535L132.44 139.071L132.21 138.823C132.21 138.823 132.14 138.565 132.09 138.555L131.92 138.534L132.02 138.183C132.02 138.183 131.92 138.152 131.85 138.142L131.69 137.564L131.54 137.42L131.34 137.131C131.26 136.966 131 136.78 130.85 136.615L130.33 136.047L129.54 135.511C129.58 135.366 129.59 135.332 129.57 135.408L129.08 135.211C129.08 135.15 129.1 134.984 129.06 134.984C129.02 134.984 128.85 135.015 128.81 134.984L128.43 134.665L128.26 134.603C128.26 134.603 128.23 134.52 128.21 134.458L127.78 134.035C127.72 133.973 127.62 133.756 127.61 133.715L127.4 133.664C127.4 133.664 127.4 133.447 127.36 133.426L126.53 132.828C126.19 132.58 125.91 132.374 125.67 132.054L125.18 131.393C125.07 131.249 124.73 131.001 124.57 130.908L123.78 130.444L122.89 129.959L121.93 129.401L120.37 128.689L118.99 128.627L116.81 127.895C116.55 127.802 116.1 127.864 115.79 127.854L114.71 127.823L112.4 127.534C111.62 127.43 110.7 127.616 109.88 127.431C108.81 127.193 108.61 127.606 107.67 127.41L106.94 127.255L105.87 127.059C105.65 127.018 105.33 127.245 105.06 127.358C104.57 127.554 103.78 127.74 103.26 127.709L101.72 127.616C100.9 127.565 100.55 128.091 99.6899 127.854C99.1899 127.719 98.6601 127.792 98.3201 128.173C98.0201 128.514 97.67 128.72 97.25 128.865L96.51 129.123C96.14 129.247 95.42 128.947 94.76 129.257L93.72 129.742C93.55 129.825 93.32 129.856 93.28 129.959C93.22 130.093 93.06 130.423 92.96 130.392L92.55 130.268C91.83 130.248 91.0499 130.402 90.3699 130.712L88.4399 131.569L88.3699 131.661C88.2399 131.744 87.98 131.909 87.95 132.064L87.8799 132.405C87.8699 132.477 87.6799 132.456 87.6099 132.456L86.8201 132.828L86.9199 132.921C86.8399 132.941 86.7301 132.962 86.8101 132.941H86.72C86.42 133.282 85.98 132.879 85.25 133.168L84.4199 133.498C84.3799 133.436 84.3501 133.436 84.3201 133.571L83.9399 133.746L83.0798 134.19L82.53 134.417L81.9399 134.788L81.1499 135.253L80.6599 135.366L80.3 135.82L80.22 135.882L79.74 136.346L79.4099 136.666L78.8899 137.048L78.98 137.131L78.8599 137.172H78.8298L78.3398 137.564L77.53 138.132L77.26 138.39C77.29 138.276 77.1699 138.348 77.1299 138.41L76.3298 139.061C76.3798 139.412 76.3299 139.742 76.1299 139.969L75.46 140.774L75.1399 141.537L74.8398 142.827L74.5999 143.013C74.5999 143.013 74.6599 143.302 74.6399 143.354L74.03 144.695L73.8298 145.314L73.7 145.913L73.2 146.8C73.09 146.996 73.5599 147.502 72.6599 148.41L72.8201 148.988L72.0701 149.618C71.8701 149.793 71.95 150.412 72.02 150.67L71.6299 151.475C72.0799 151.867 72.0998 152.301 71.8398 152.816L71.76 153.838L71.73 154.819L71.98 155.262L71.2 155.685C71.18 155.871 71.2 156.408 71.25 156.697L71.45 157.966C71.54 158.534 70.96 159.122 71.2 160.35L71.4099 160.835L70.95 161.186C70.69 161.392 71.26 161.939 71.26 162.486C70.76 162.981 70.7399 163.724 71.1299 164.178L70.8999 164.55C70.7499 164.798 71.7799 165.355 71.6699 165.871L71.3499 167.408L71.6399 168.451L71.5999 169.163L70.8298 170.164L69.4399 170.009L68.6699 169.885L67.79 169.906L67.1099 169.761L67.1599 169.844L67.1099 169.947L67 169.844H65.6799L63.8101 169.916L63.3499 169.988L62.52 170.081L61.2 170.257L61.0798 169.782C61.0798 169.782 61.1499 169.648 61.1699 169.606L61.0999 168.698L61.26 168.513C61.26 168.513 61.1599 168.461 61.1199 168.43L61.0798 167.274L61.05 166.5L61.03 166.015C61.03 166.015 61.03 165.881 60.95 165.892C61.03 165.861 60.95 165.706 60.95 165.695C60.95 165.695 60.82 165.695 60.77 165.706L60.9399 165.448L60.76 164.963L60.6699 164.602C60.6699 164.602 60.68 164.571 60.75 164.54L60.6399 164.354C60.6999 164.261 60.72 164.23 60.7 164.261L60.6399 163.652L60.5701 163.539C60.5501 163.601 60.5899 163.487 60.6099 163.425L60.73 163.539L60.5999 163.198C60.5699 163.115 60.5 162.961 60.55 162.909L60.72 162.734L60.5798 162.527L60.6499 161.784V161.64L60.54 161.506L60.46 160.928L60.49 160.804L60.5898 160.329L60.46 160.04L60.55 159.297L60.4299 159.174L60.5701 159.122L60.6199 159.256L60.76 158.926C60.76 158.926 60.58 158.853 60.54 158.812L60 158.152V157.811C60.19 157.791 60.16 157.77 60.05 157.698L60.3 156.676L60.6299 155.84H60.3899V155.015L60.45 154.54L60.54 153.776L60.6199 153.116L60.6499 153.023C60.6599 152.951 60.7 152.796 60.77 152.765L60.97 152.651C60.83 152.528 60.8299 152.166 60.9199 151.919L61 151.434L61.04 151.31L61.1499 150.804L61.3398 149.948L61.46 149.452L61.5898 148.482C61.8598 148.41 61.8101 148.297 61.5701 148.317L61.8298 147.832C61.8298 147.832 61.74 147.719 61.76 147.677L61.8101 147.512C61.7901 147.45 61.71 147.306 61.75 147.265L61.8799 147.11C61.9699 147.027 61.9899 146.996 61.8999 146.986L62.05 146.326L62.1699 145.675L62.3298 144.819L62.4199 144.747L62.3799 144.509L62.52 144.097C62.68 144.035 62.76 144.004 62.72 143.962L62.5898 143.787L62.79 143.302L63.1099 142.528L63.3799 141.899L63.4399 141.785L63.5898 141.403C63.5898 141.403 63.5301 141.207 63.5701 141.197C63.6101 141.186 63.7399 141.166 63.6799 141.176C63.7099 140.929 63.73 140.743 63.77 140.609C63.77 140.588 63.8099 140.578 63.8799 140.547L63.8 140.454L63.8201 140.34L63.9399 140.495L64.1099 140.433C64.1099 140.433 63.9799 140.278 63.9299 140.227C63.8799 140.175 64.0899 140.072 64.1399 139.989L64.73 139.102C64.79 139.019 65.0799 138.875 65.1399 138.834C65.1399 138.782 65.1699 138.658 65.1699 138.689L65.4399 138.07L65.5 137.987L65.9399 137.378L66.28 136.904L66.4199 136.862L66.55 136.522L66.8 136.274C66.81 136.182 66.8199 136.037 66.8699 136.016L67.04 135.934L67.3999 135.17L67.8101 134.314L67.75 134.221L67.8101 134.138L67.8799 134.211L67.95 133.818C68.22 133.86 68.17 133.787 68.02 133.695L68.5 133.127L68.76 132.828L68.79 132.735L69.29 132.518C69.42 132.466 69.5599 132.167 69.6499 131.992C69.7299 131.827 70.1 131.62 70.25 131.507L71.3699 130.609L71.97 130.217L72.1299 129.639L72.77 128.989C73.31 128.442 73.6 128.659 74.04 128.194L74.54 127.658C74.7 127.111 75.0999 126.708 75.6099 126.615C75.6699 126.522 75.74 126.399 75.8 126.409L76.02 126.45L76.0798 126.213C76.0798 126.213 76.2898 126.099 76.3398 126.068L77.47 125.573L78.23 125.243L78.1199 124.758C78.9899 124.335 78.76 123.447 79.25 123.272L80.9399 122.694C81.2899 122.818 81.7 122.776 81.98 122.446L82.9299 122.126L84.0999 121.559C84.7599 121.239 84.9999 121.652 85.1199 121.455L85.3101 121.156L85.8999 120.754C86.5499 119.98 87.5 120.403 88.05 119.959C88.3 119.753 88.5801 119.474 88.8101 119.453L89.8499 119.35C90.2699 119.309 90.65 119.237 91.05 119.072C91.21 119.01 91.5499 118.886 91.6699 118.772C91.8899 118.545 92.2999 118.277 92.6699 118.422L93.1099 118.133L93.99 117.864L94.76 117.503C95.74 117.049 96.77 118.184 97.55 117.709L98.25 117.286L101.28 117.369L102.87 117.348C103.73 117.348 104.54 117.276 105.42 117.379L106.51 117.503L108 117.369C108.38 117.338 108.8 117.369 109.17 117.482L110.03 117.74L111.88 118.195L113.38 118.37L115.2 118.649L116.44 118.803H118.17C118.49 118.824 118.84 118.958 119.14 119.072L120.95 119.784L122.34 120.258L124.74 121.104L125.81 121.538L126.95 122.116L128.57 123.003L130.09 123.87L131.2 124.603L133.31 126.017L134.43 126.667L135.2 127.369C135.52 127.657 135.68 127.936 136 128.246L136.58 128.803C136.99 129.195 137.21 129.959 137.62 130.237L138.57 130.887C138.57 131.249 138.53 131.775 138.69 131.961L140.08 133.56L140.97 134.84L141.59 135.593L142 136.326C143.01 136.811 142.49 137.647 142.74 138.111L143.27 139.092L143.72 139.618L144.57 140.794C144.97 141.362 145.2 141.929 145.33 142.6L145.49 143.436C145.53 143.663 145.63 143.942 145.75 144.169L146.18 145.015L146.37 145.603C146.82 146.274 146.45 146.8 146.76 147.76C146.85 148.039 146.79 148.255 146.68 148.606C146.56 148.988 146.88 149.669 146.89 150.03C146.91 150.526 146.91 150.938 147.07 151.362L147.51 152.548C147.03 152.971 147.09 153.415 147.38 153.9C147.53 154.158 147.56 154.571 147.61 154.85C147.66 155.128 147.74 155.458 147.7 155.727C147.61 156.253 147.61 156.686 147.63 157.182L147.68 158.224C147.71 158.874 148.44 159.08 148.16 159.524C147.96 159.844 147.75 160.267 147.72 160.608L147.61 162.053C147.58 162.445 147.72 162.795 147.93 163.115C148.04 163.291 148.12 163.683 148.16 163.9L148.43 165.437C148.51 165.86 148.63 166.469 148.49 166.841C148.4 167.089 148.21 167.429 148.24 167.615L148.42 168.76C148.48 169.111 148.49 169.514 148.39 169.813C148.22 170.35 148.23 170.711 148.48 171.258L147.1 171.299L146.03 171.381L145.39 171.412L143.32 171.433L142.35 171.526L140.17 171.557L137.59 171.588L137.52 170.504C137.52 170.401 137.43 170.164 137.4 170.133L137.74 169.864L137.47 169.895C137.47 169.895 137.35 169.792 137.37 169.772L137.55 169.637L137.33 169.059L137.4 169.049ZM75.8899 126.584L75.8298 126.646L75.8899 126.708L75.95 126.646L75.8899 126.584ZM81.0898 134.995L81.03 135.057L81.0898 135.15L81.1499 135.057L81.0898 134.995ZM129.55 134.995L129.49 135.057L129.55 135.119L129.61 135.057L129.55 134.995ZM67.3599 135.769L67.3 135.831L67.3599 135.892L67.4199 135.831L67.3599 135.769ZM130.91 136.274L130.85 136.336L130.91 136.398L130.97 136.336L130.91 136.274ZM64.8899 139.195L64.78 139.277L64.8899 139.339L64.95 139.277L64.8899 139.195ZM64.03 140.99L63.97 141.052L64.03 141.114L64.0898 141.052L64.03 140.99ZM133.63 140.99L133.57 141.052L133.63 141.114L133.69 141.052L133.63 140.99ZM134.37 142.27L134.31 142.332L134.37 142.394L134.43 142.332L134.37 142.27ZM134.87 143.673L134.81 143.735L134.87 143.797L134.93 143.735L134.87 143.673ZM134.99 144.179L134.9 144.241L134.99 144.303L135.05 144.241L134.99 144.179ZM135.12 144.437L135.06 144.499L135.12 144.561L135.18 144.499L135.12 144.437ZM135.12 144.695L135.05 144.757L135.12 144.819L135.18 144.757L135.12 144.695ZM135.24 145.077L135.18 145.139L135.24 145.201L135.3 145.139L135.24 145.077ZM135.96 147.502L135.99 147.409C136.01 147.347 135.99 147.44 135.96 147.502ZM61.8 148.648V148.73L61.78 148.813V148.895L61.8101 148.813V148.73L61.8 148.648ZM61.55 150.051L61.49 150.113L61.55 150.175L61.6099 150.113L61.55 150.051ZM60.78 153.24L60.8201 153.147C60.8201 153.147 60.8 153.198 60.78 153.24ZM60.8101 153.745V153.828L60.8 153.91V153.993L60.8201 153.91V153.735L60.8101 153.745ZM60.6899 155.531L60.6099 155.593L60.6899 155.654L60.75 155.593L60.6899 155.531ZM137.47 155.789L137.41 155.851L137.47 155.912L137.53 155.851L137.47 155.789ZM137.47 156.428L137.41 156.49L137.47 156.552L137.53 156.49L137.47 156.428ZM137.47 158.08L137.41 158.142L137.47 158.204L137.53 158.142L137.47 158.08ZM60.6899 158.472L60.6299 158.534L60.6899 158.596L60.75 158.534L60.6899 158.472ZM60.8101 159.483L60.75 159.545L60.8101 159.607L60.8699 159.545L60.8101 159.483ZM137.34 159.617L137.28 159.679L137.34 159.741L137.4 159.679L137.34 159.617ZM60.8101 160.505L60.75 160.566L60.8101 160.628L60.8699 160.566L60.8101 160.505ZM60.9299 163.693L60.8398 163.755L60.9299 163.817L60.99 163.755L60.9299 163.693ZM60.9299 164.746V164.633C60.9499 164.55 60.9399 164.632 60.9299 164.746ZM137.47 166.882L137.41 166.944L137.47 167.006L137.53 166.944L137.47 166.882Z" fill="black"/>
<path d="M136.17 148.513L136.14 148.658L135.92 148.586L136.17 148.513Z" fill="black"/>
<path d="M60.0898 157.821L60.1299 157.708C60.1299 157.801 60.1098 157.873 60.0898 157.821Z" fill="black"/>
<path d="M60.7502 161.784L60.6201 161.65H60.7603L60.7502 161.784Z" fill="black"/>
<path d="M77.1903 138.368L77.3204 138.348C77.3204 138.348 77.1603 138.378 77.1903 138.368Z" fill="black"/>
<path d="M65.2299 138.844C65.0999 138.865 65.1799 138.772 65.2599 138.699L65.2299 138.844Z" fill="black"/>
<path d="M137.28 165.829C137.21 165.799 137.21 165.788 137.28 165.757V165.829Z" fill="black"/>
<path d="M61.1396 166.005C61.0896 165.922 61.0098 165.799 61.0598 165.881L61.1396 166.005Z" fill="black"/>
<path d="M61.22 168.678C61.22 168.678 61.1099 168.471 61.1099 168.492C61.1099 168.492 61.23 168.42 61.24 168.409L61.22 168.678Z" fill="black"/>
<path d="M63.4601 141.888C63.3901 141.909 63.4401 141.785 63.5201 141.775L63.4601 141.888Z" fill="black"/>
<path d="M80.834 135.379L80.7705 135.444L80.8342 135.51L80.8977 135.444L80.834 135.379Z" fill="black"/>
<path d="M137.09 155.283L137.18 155.345L137.09 155.407L137.03 155.345L137.09 155.283Z" fill="black"/>
<path d="M121.658 104.101L121.625 103.955L121.81 103.933L121.658 104.101Z" fill="black"/>
<path d="M83.7334 82.9496L83.603 82.8487L83.7334 82.7026V82.9496Z" fill="black"/>
<path d="M99.6387 114.216C99.6387 114.216 99.7476 114.194 99.7367 114.216C99.6932 114.272 99.6713 114.272 99.6387 114.216Z" fill="black"/>
<path d="M124.051 98.4087C124.018 98.3413 124.073 98.4537 124.116 98.5435L123.997 98.8916L123.888 99.453L123.409 100.688L123.159 101.305C123.116 101.395 123.072 101.485 123.105 101.418L122.713 102.316L122.147 103.326L121.832 103.809L121.636 103.966L121.669 104.101L121.223 104.561L121.288 104.886L120.548 105.818L120.222 106.324L119.83 106.862L119.188 107.783L119.145 107.895L118.721 108.344L118.057 109.018L117.404 109.624L116.664 110.253L115.751 110.983C115.566 111.129 115.391 111.712 115.326 111.903L114.695 112.049L112.585 112.88L111.845 113.149C110.833 113.52 109.811 113.902 108.701 113.935L107.591 113.958H106.71L106.721 113.845L105.296 113.958H104.36L103.022 113.857C102.609 113.823 102.01 113.778 101.608 113.857L99.7694 114.205C99.715 114.092 99.6932 114.092 99.6714 114.205L98.3986 114.238H96.6361L95.5918 114.283L94.765 114.216L94.1012 114.092L93.3942 113.812L93.2635 113.643C93.1874 113.711 93.1331 113.778 93.144 113.767L92.5021 113.464L91.5122 112.914L91.0118 112.656C90.5984 112.442 89.9237 112.42 89.4668 112.464L88.8142 112.532L88.7815 112.364L87.9329 111.993L87.4108 111.735C87.4108 111.735 87.2259 111.679 87.215 111.634L87.1715 111.488L86.8341 111.409C86.8341 111.409 86.7797 111.275 86.7688 111.185L86.0073 110.893L84.9194 110.376L83.8097 109.669C83.6357 109.557 83.2659 109.299 83.1463 109.153L82.4063 108.232L81.1553 106.874L81.0356 106.582L80.916 105.92C80.8943 105.796 80.7529 105.549 80.6876 105.448L80.3067 104.842C80.2632 104.785 80.2087 104.696 80.2087 104.696C80.2087 104.696 80.2959 104.595 80.3394 104.55C80.2306 104.426 79.8934 104.056 79.8281 103.854L79.4255 102.473L79.2624 102.271L78.9687 101.496L78.8165 101.013C78.8165 101.013 78.8162 100.968 78.8598 100.901L78.8815 99.9581V99.3069L78.8489 98.0609L78.8165 97.1177L78.762 96.1971L78.7402 95.0744L78.9033 93.6936L79.1971 92.2565C79.1971 92.2565 79.2296 92.0883 79.1317 92.1332C79.2405 92.0546 79.2515 91.9533 79.2188 91.9197L79.0231 91.6727L79.2406 91.6168C79.2406 91.6168 79.3822 91.3473 79.3604 91.3024L79.2624 90.8757C79.2189 90.6848 79.3603 90.3145 79.4908 90.1797L79.567 90.1123L79.5453 89.7755L79.567 89.6184C79.567 89.6184 79.6648 89.4386 79.6539 89.4498C79.6539 89.4498 79.7846 89.4274 79.7955 89.4161C79.7955 89.3263 79.7955 89.1244 79.8281 89.0458L80.0021 88.6528C80.2741 88.6191 80.2741 88.5631 80.0021 88.5295L80.0239 88.3721C80.0239 88.3721 80.0675 88.3384 80.1437 88.3159L80.4374 87.9791C80.4374 87.9791 80.4374 87.8333 80.4374 87.8108L80.5678 87.4515L80.8834 86.9014L80.9814 86.8118L81.2966 86.183L81.3293 86.0819L81.6231 85.7562L81.6884 85.4643L82.0039 85.1278L81.8841 85.0154L81.993 84.9592L82.0693 85.0491L82.1997 84.6448L82.3086 84.6001L82.5588 84.2633L83.3747 83.1406L83.5051 83.0395C83.5051 83.0395 83.5705 82.8936 83.614 82.8599C83.6358 82.9049 83.7444 82.972 83.7335 82.9608L83.8751 82.7251C83.9948 82.7026 83.9404 82.6354 83.8751 82.5568L84.0926 82.3099L84.8976 81.2431L85.2458 80.7492L85.6267 80.5472L85.5505 80.4573L85.6049 80.3677L85.6918 80.4685L85.8551 80.2778C85.8551 80.2778 85.9094 80.2778 85.9529 80.3002C85.9964 80.2553 86.0182 80.2328 86.0291 80.2216L86.943 79.7614L87.487 79.492L87.8349 79.3234L87.922 79.2784L88.7053 78.9419L89.6737 78.5151C89.6519 78.5825 89.7823 78.5375 89.7932 78.4589L90.4134 78.2457L90.5114 78.212L91.1531 77.965L91.0118 78.2457L91.2293 78.0886L91.2946 78.01V77.9201L91.5557 77.8304L91.697 77.8529L92.4152 77.561C92.8286 76.9997 93.2528 77.5832 93.416 77.0443L94.9934 76.3372C95.4721 76.1239 95.8855 75.978 96.3968 75.8208L97.4194 75.5064C99.2144 74.9563 99.9869 75.3717 100.988 75.439C102.13 75.5176 103.142 74.7766 104.295 75.0684L105.416 75.3381L106.362 75.439C106.938 75.5064 107.548 75.4054 108.124 75.484C108.647 75.5625 109.278 75.8657 109.778 76.0565L112.628 77.1455L114.01 77.808L115.935 79.0202C116.479 79.3683 116.806 79.8399 117.295 80.2778L118.144 81.0411L119.134 81.8381C119.634 82.2423 120.004 82.8936 120.429 83.3988L121.125 84.2183C121.56 85.1052 122.071 85.9472 122.691 86.7556L122.996 87.9119L122.963 88.5295C123.409 89.1132 123.094 89.854 123.79 90.595L123.834 91.0217L124.356 92.0208C124.573 92.4474 124.573 92.9976 124.465 93.4691L124.715 93.8731C124.878 94.1313 124.878 94.7938 124.878 95.0969C124.878 95.153 125.019 95.2765 124.998 95.3326L124.878 95.602C124.845 95.6806 124.9 95.894 124.845 95.9501L124.595 96.1634L124.726 96.4103L124.29 97.5217L124.214 97.724L124.356 97.8698L124.095 98.3303L124.051 98.4087ZM83.5487 83.1856V83.2415C83.5487 83.1404 83.5378 83.0845 83.5487 83.1856ZM102.119 104.909C102.848 104.92 103.468 104.808 104.11 104.684L105.394 104.449L106.144 104.157C106.536 104 106.851 103.82 107.2 103.562C107.874 103.045 108.473 103.741 109.539 102.956L110.398 102.574L111.051 102.001L112.617 100.856L112.77 100.205C113.488 99.9356 112.868 99.1497 113.825 98.4874L113.934 97.6229L114.195 96.6014C114.412 95.7257 113.749 94.8163 114.304 93.5253C113.988 92.8404 113.77 91.9984 113.683 91.2462L113.444 90.8082L112.759 89.4498C112.487 88.9222 112.28 88.5631 111.769 88.1926C111.464 87.9681 111.236 87.3617 111.094 86.9688C111.029 86.7667 110.659 86.5197 110.485 86.3625L109.452 85.3522C109.31 85.2063 108.799 85.0266 108.592 84.9929L106.743 84.903C106.384 84.8918 105.818 84.5664 105.459 84.499L104.045 84.2296L102.837 84.1621L100.988 84.1846L99.9325 84.2071C99.073 84.0499 98.3877 84.0947 97.5609 84.3754L96.5926 84.4316L95.8964 85.1502L95.1674 85.3073C94.9498 85.6778 94.6563 86.0146 94.3299 86.1493L93.3289 86.5648L92.8503 87.1596L92.1214 87.2158L91.1422 88.1701C90.9464 88.361 90.7071 88.7315 90.6527 89.0009L90.4025 90.348L89.8368 90.55L89.0862 91.4482C88.7489 91.8412 89.4559 92.5486 89.2275 92.7395L88.8577 93.0536L88.9555 93.6598L88.3138 95.1081L88.7489 95.8377L88.4442 96.5339L88.7489 98.0943L88.9446 99.2956L89.3581 99.9356L89.2275 100.643L89.7279 101.227L91.0553 102.675L92.0779 103.236L93.786 103.809L95.1023 104.157L97.1256 104.673L99.4539 105.1L100.803 104.886L102.13 104.92L102.119 104.909ZM81.3946 86.4524L81.3293 86.5198L81.3946 86.587L81.46 86.5198L81.3946 86.4524ZM79.6215 90.3256L79.6539 90.2357C79.6757 90.1795 79.6433 90.2694 79.6215 90.3256Z" fill="black"/>
<path d="M80.002 88.6641C79.9476 88.6641 79.9367 88.518 80.002 88.5405V88.6641Z" fill="black"/>
<path d="M83.875 82.7138L83.7334 82.7026L83.875 82.5568V82.7138Z" fill="black"/>
<path d="M89.7821 78.4816L89.6626 78.5378C89.7388 78.5041 89.8365 78.4591 89.7821 78.4816Z" fill="black"/>
<path d="M124.117 98.5437L124.051 98.4088C124.149 98.3639 124.127 98.4875 124.117 98.5437Z" fill="black"/>
</g>
<defs>
<clipPath id="clip0_137_2558">
<rect width="250" height="250" fill="white"/>
</clipPath>
</defs>
</svg>
