<?xml version="1.0" standalone="no"?>
<!DOCTYPE svg PUBLIC "-//W3C//DTD SVG 20010904//EN"
 "http://www.w3.org/TR/2001/REC-SVG-20010904/DTD/svg10.dtd">
<svg version="1.0" xmlns="http://www.w3.org/2000/svg"
 width="500.000000pt" height="500.000000pt" viewBox="47 126 407 227"
 preserveAspectRatio="xMidYMid meet">
<metadata>
Created by potrace 1.16, written by Peter Selinger 2001-2019
</metadata>
<g transform="translate(0.000000,500.000000) scale(0.100000,-0.100000)"
fill="#000000" stroke="none">
<path d="M3372 3645 c-63 -27 -86 -78 -63 -138 11 -28 70 -91 95 -100 9 -4 16
-13 16 -22 0 -8 7 -15 15 -15 8 0 15 -7 15 -15 0 -8 5 -15 10 -15 6 0 18 -8
28 -17 10 -10 70 -65 132 -123 62 -58 150 -141 195 -185 46 -44 129 -124 185
-177 55 -54 97 -98 93 -98 -4 -1 -116 -1 -248 0 -132 0 -265 -1 -295 -1 -57
-1 -85 -1 -135 2 -32 1 -228 1 -285 -1 -40 -1 -93 -1 -130 0 -27 0 -311 1
-345 1 -11 0 -45 0 -75 0 -30 0 -59 0 -65 0 -5 -1 -431 -2 -945 -4 l-935 -2
-29 -23 c-16 -12 -35 -34 -42 -47 -20 -38 -5 -115 21 -115 7 0 15 -6 17 -12 5
-15 128 -17 998 -17 327 -1 732 -1 900 -1 168 0 595 0 949 0 l644 0 -19 -22
c-10 -12 -73 -78 -139 -146 -66 -68 -175 -181 -243 -250 -67 -70 -169 -175
-227 -234 -58 -58 -105 -111 -105 -116 0 -6 -5 -12 -12 -14 -16 -6 -40 -90
-28 -102 6 -6 10 -17 10 -25 1 -23 39 -47 84 -54 32 -5 43 -2 62 16 12 12 34
31 49 42 24 18 110 104 485 485 271 275 430 444 430 456 0 8 5 14 10 14 6 0
10 24 10 53 0 39 -5 59 -20 75 -11 12 -20 26 -20 32 0 5 -3 10 -7 10 -5 0 -17
14 -28 30 -11 17 -28 33 -37 36 -10 3 -18 10 -18 15 0 6 -44 52 -97 102 -53
51 -138 133 -188 182 -99 97 -427 412 -487 467 -55 50 -66 58 -82 58 -8 0 -16
4 -18 8 -6 17 -54 20 -86 7z"/>
</g>
</svg>
