<svg width="250" height="250" viewBox="0 0 250 250" fill="none" xmlns="http://www.w3.org/2000/svg">
<g clip-path="url(#clip0_137_2447)">
<path d="M174.375 123.32L173.855 122.86C173.785 122.8 173.545 122.72 173.515 122.71C173.355 122.56 173.115 122.41 172.865 122.32L172.465 121.75C172.405 121.66 172.145 121.58 172.045 121.59C171.975 121.42 171.815 121.19 171.605 121.03L170.795 120.4C170.795 120.4 170.495 120.52 170.485 120.48L170.415 120.21L169.675 119.66L169.715 119.39L169.545 119.17L168.565 118.64L167.325 117.26C167.035 116.93 166.745 116.6 166.555 116.17L166.215 115.41C166.175 115.32 165.905 115.24 165.795 115.25C164.845 115.3 165.435 114.18 164.625 114.06C163.755 113.92 164.225 113.28 163.345 112.84C163.115 112.73 162.945 112.48 162.715 112.35L161.865 111.84C161.685 111.73 161.635 111.22 161.635 110.98L160.515 110.93L159.905 109.71L159.245 108.65L159.225 107.91L158.435 107.51L157.855 107.36L157.415 106.81L156.735 106.36C155.915 106.4 156.045 105.58 154.895 105.08C154.735 105.01 154.605 104.63 154.545 104.43C154.215 104.41 153.585 104.11 153.575 103.8L153.545 103.28C153.545 103.14 153.225 103 153.105 102.94L152.455 102.57C152.225 102.44 151.935 102.24 151.815 102C151.235 100.82 150.685 101.22 150.255 100.72L149.635 99.98L149.115 99.24C148.555 98.45 147.725 97.99 146.855 97.51C146.705 97.33 146.385 96.97 146.295 96.77L145.935 96C145.095 95.79 145.125 95.11 144.645 95L144.395 95.36L144.245 95.49L144.065 95.6L143.505 96.13L143.025 96.53L142.945 96.62L142.695 96.89C142.605 96.89 142.385 96.95 142.335 97.03L141.995 97.41C141.995 97.41 141.895 97.4 141.865 97.39L141.605 97.63L141.345 97.91L141.195 97.8401L141.145 97.9501L141.205 98.0601L140.975 98.1L140.715 98.38L140.145 98.79L140.195 98.9L139.855 99.03C139.765 99.07 139.565 99.21 139.505 99.27C139.485 99.29 139.445 99.4001 139.435 99.4301L139.125 99.8401L139.015 99.88L138.635 100.31L138.115 100.98L137.585 101.32L137.515 101.45L137.045 102.07C137.165 102.07 137.145 102.1 136.995 102.18L137.555 103.07C137.695 103.3 138.055 103.52 138.245 103.7C138.545 103.99 138.735 104.16 139.135 104.36C139.535 104.56 139.835 105.04 140.145 105.41L140.695 106.06L141.135 106.78C141.265 106.99 141.565 107.28 141.775 107.46L142.365 108L143.085 108.62L144.155 109.33C144.325 109.44 144.395 109.73 144.365 109.97C144.495 110.12 144.725 110.4 144.825 110.58L145.265 111.4C145.425 111.7 145.715 111.61 146.395 112.24C146.705 112.53 147.175 112.93 147.585 112.98C148.905 113.12 148.445 113.73 149.215 114.59L149.395 115.05C149.745 115.31 149.965 115.65 150.045 116.11L151.055 116.7L151.315 117.17L152.015 117.58C152.405 117.67 152.895 117.77 153.115 118.09L153.595 118.78C153.885 119.2 154.525 119.11 154.675 119.55L153.645 119.57C152.735 119.59 152.715 120.1 151.945 119.97C151.265 119.85 150.725 119.9 150.045 119.92L148.845 119.96L148.305 120.21C147.555 120.09 146.905 119.77 146.205 119.46C145.365 119.08 144.265 119.2 143.435 119.5C143.035 119.64 142.705 119.53 142.245 119.49L141.335 119.41L140.245 119.34C139.995 119.32 139.745 119.34 139.495 119.46L138.475 119.55L137.595 119.64L136.505 119.78C136.215 119.82 135.905 119.79 135.655 119.66C134.875 119.24 134.245 119 133.475 119.36C133.085 119.54 132.755 119.57 132.355 119.58L131.055 119.62L130.125 119.67C129.325 119.71 129.235 119.26 128.705 119.54C128.115 119.84 127.635 119.65 127.095 119.4C126.595 119.17 125.905 119.28 125.365 119.3L123.895 119.38C123.685 119.39 123.445 119.38 123.255 119.35L122.395 119.21C121.135 119.01 120.795 119.45 120.185 119.38C118.975 119.25 118.555 119.64 117.635 119.41C116.685 119.17 115.835 119.38 114.945 119.78L101.235 119.47L100.265 119.5H98.755H98.0149L96.735 119.29C96.495 119.25 95.965 119.31 95.725 119.35C95.065 120.15 93.8749 118.98 92.5149 119.54C92.1249 119.7 91.885 119.75 91.485 119.58C91.275 119.49 90.805 119.25 90.575 119.24C89.845 119.19 88.9449 119.18 88.1649 119.2L87.4249 119.33C86.9849 119.41 86.555 119.4 86.125 119.36L85.125 119.27C84.545 119.22 84.035 119.21 83.455 119.34C83.135 119.41 82.7749 119.36 82.4349 119.34L81.3149 119.26C81.0649 119.24 80.7149 119.37 80.4049 119.44C80.0149 119.54 79.425 119.47 78.995 119.46L77.2649 119.39L76.595 119.37C76.395 119.37 76.0149 119.55 75.7649 119.64C75.8049 119.59 76.025 119.32 75.985 119.37L75.235 119.45L75.205 120.27C75.205 120.37 75.2649 120.61 75.2949 120.7L75.115 121.11C75.235 121.13 75.2149 121.16 75.0449 121.2L75.355 121.42L75.225 121.58L75.095 121.49L75.0449 121.58L75.1549 121.68L75.1749 122.06C75.3749 122.13 75.3949 122.17 75.0549 122.21L75.1449 122.54L75.075 122.76C75.135 123.04 75.1449 123.34 75.1549 123.66L75.1749 124.59L75.225 125.12L75.3049 125.9C75.0749 126.25 75.505 126.39 75.225 126.65L75.2849 127.79C75.2849 127.89 75.2449 128.07 75.1949 128.23C75.2349 128.23 75.3249 128.22 75.3949 128.21L75.355 128.54L75.245 128.46H75.1449L75.245 128.59V128.65C75.355 128.73 75.395 128.74 75.235 128.75C75.235 128.73 75.235 128.7 75.235 128.65L75.215 128.75L75.235 129.06V129.77L75.1449 130.29C75.1149 130.49 75.485 130.66 75.725 130.56C75.835 130.6 75.8249 130.58 75.9249 130.73L76.715 130.75H77.6749L78.465 130.64L80.2849 130.35C81.0949 130.22 81.8849 130.19 82.6849 130.22L83.365 130.25L84.225 130.23L85.1949 130.25L85.875 130.33L86.325 130.43L88.0649 130.49C88.3049 130.49 88.6649 130.45 88.8049 130.33L89.6449 129.57C90.1049 129.16 90.4249 130.3 91.3049 129.83C92.5249 129.18 93.265 130.07 94.085 129.87L94.7849 129.7C95.4349 129.54 95.7749 130.59 97.0449 129.61L97.715 129.87C98.295 130.09 98.995 129.96 99.615 129.79C100.675 129.5 113.405 130.65 114.225 130.03C114.615 129.74 114.855 130.08 115.445 129.97L116.515 129.76C117.095 129.65 117.675 129.7 118.255 129.77L119.005 129.63C120.065 130.13 120.875 129.74 121.385 129.99C121.755 130.17 122.095 130.22 122.475 130.05C122.655 129.97 122.955 129.98 123.175 129.99L124.485 130.04L125.385 130.08C125.725 130.1 126.025 130.23 126.395 130.1C127.005 129.88 127.745 130.06 128.365 130.08L129.535 130.12L130.335 130.23L131.095 130.34L132.105 130.46L132.645 130.15C132.875 130.02 133.285 130.03 133.555 130.15C134.395 130.56 134.595 129.59 135.325 129.91L136.045 129.98C136.445 130.24 136.995 130.28 137.425 130.11C137.985 129.88 138.285 130.5 138.955 130.03C139.675 130.36 140.435 130.54 141.245 130.29C141.725 130.67 142.325 130.84 142.885 130.44C143.305 130.39 143.655 130.46 144.105 130.42L145.285 130.32C145.785 130.28 146.165 130.23 146.615 130.47C147.325 130.84 147.945 130.01 148.495 130.11L149.625 130.32L150.885 130.41L151.715 130.49C152.225 130.54 152.555 130.63 153.025 130.4C153.155 130.34 153.495 130.3 153.625 130.4C153.865 130.58 154.275 130.59 154.595 130.61L155.805 130.68V131.1C155.805 131.2 155.595 131.27 155.465 131.34L155.185 131.81C154.375 131.94 154.565 132.27 154.125 132.95C153.705 133.6 153.395 133.15 152.595 133.77C151.835 134.36 152.415 134.82 151.665 135.05C151.565 135.08 151.425 135.29 151.325 135.38L150.745 135.9C150.585 136.05 150.005 136.03 149.845 136.18L149.245 136.7L148.985 137.56L148.475 137.75L147.995 138.8L147.795 139.43C146.875 139.6 146.365 140.14 145.865 140.77L145.515 141.2C145.515 141.2 145.435 141.24 145.425 141.25L144.915 141.73L144.615 142.07L144.025 142.63C143.835 142.81 143.655 143.1 143.515 143.36L143.035 143.69C143.035 143.69 142.955 143.82 142.945 143.84L142.495 144.28L141.995 144.77L141.895 144.87L141.745 145.17L141.195 145.88C141.045 146.07 140.605 146.3 140.395 146.47L140.265 146.57C140.205 146.62 140.185 146.83 140.245 146.89L140.645 147.24L141.115 147.65C141.065 147.74 140.975 147.91 141.025 147.81L141.725 148.27V148.49C141.745 148.55 141.935 148.56 142.085 148.58L142.245 148.77C142.335 148.8 142.605 148.93 142.705 149.03L143.105 149.44L143.855 150.21L144.255 150.59L144.775 151.2H144.965C144.965 151.22 145.005 151.35 145.015 151.42L145.585 151.84L146.835 152.69L147.585 153.18C147.585 153.18 147.725 153.34 147.685 153.34H147.925L148.805 154.31L149.075 153.62C149.255 153.15 149.415 153.26 149.715 152.89L150.095 152.41L150.625 151.85C150.815 151.65 150.985 151.46 151.105 151.28L151.185 151.38C151.185 151.38 151.195 151.31 151.205 151.28L151.165 151.18L151.435 150.8L152.145 149.77L152.105 149.74L152.545 149.3L153.485 148.26L154.385 147.46C154.655 147.22 154.935 147.01 155.155 146.75L155.715 146.08L155.825 146.15C155.825 146.15 155.855 146.07 155.865 146.05L155.815 145.96L156.105 145.85C156.105 145.85 156.205 145.78 156.225 145.76L156.645 145.29L157.665 144.31L158.315 143.62C159.145 142.75 159.435 141.46 159.935 140.92L160.975 139.88H161.065L161.815 139.31L162.375 138.91L162.505 138.82L163.045 138.18L163.425 137.73L163.525 137.61L163.935 137.02L164.055 136.9L164.735 135.55L165.135 134.94L165.435 134.61L166.335 133.66L166.685 133.26L167.835 132.46L168.525 131.79L168.935 131.43L169.465 130.89L170.585 129.87L171.065 129.33L171.505 128.72L172.555 127.4L173.235 126.73L173.955 126.21C174.285 125.97 174.555 125.74 174.745 125.39L175.135 124.67L174.385 123.26L174.375 123.32ZM137.655 101.55C137.575 101.55 137.655 101.55 137.765 101.54H137.655V101.55ZM140.445 99.0701L140.385 99.01L140.445 98.9501L140.505 99.01L140.445 99.0701ZM142.325 97.5L142.265 97.4401L142.325 97.38L142.385 97.4401L142.325 97.5ZM143.055 96.74C143.055 96.74 143.115 96.6901 143.125 96.6801L143.055 96.74ZM143.465 96.53L143.405 96.47L143.465 96.41L143.525 96.47L143.465 96.53ZM144.215 95.8101L144.145 95.75L144.215 95.6901L144.275 95.75L144.215 95.8101ZM75.4149 124.39L75.355 124.33L75.4149 124.27L75.475 124.33L75.4149 124.39ZM75.505 119.94L75.4349 119.88L75.505 119.82L75.5649 119.88L75.505 119.94ZM141.645 145.79L141.585 145.73L141.645 145.67L141.705 145.73L141.645 145.79ZM143.035 144.21L142.975 144.15L143.035 144.09L143.095 144.15L143.035 144.21ZM143.025 143.9C143.025 143.9 142.995 143.9 142.985 143.9C143.005 143.9 143.065 143.9 143.135 143.9H143.025ZM145.975 151.93L145.915 151.87L145.975 151.81L146.035 151.87L145.975 151.93ZM146.335 152.18L146.275 152.12L146.335 152.06L146.395 152.12L146.335 152.18ZM148.535 153.83L148.475 153.77L148.535 153.71L148.595 153.77L148.535 153.83ZM168.735 119.01L168.675 118.95L168.735 118.86L168.795 118.95L168.735 119.01Z" fill="black"/>
<path d="M137.035 102.21L137.085 102.1C136.835 102.11 136.865 102.16 137.035 102.21Z" fill="black"/>
<path d="M75.0049 123.21L75.0648 123.27L75.1448 123.21L75.0648 123.15L75.0049 123.21Z" fill="black"/>
<path d="M75.0649 123.521L75 123.583L75.0624 123.648L75.1273 123.586L75.0649 123.521Z" fill="black"/>
</g>
<defs>
<clipPath id="clip0_137_2447">
<rect width="250" height="250" fill="white"/>
</clipPath>
</defs>
</svg>
