<svg width="250" height="250" viewBox="0 0 250 250" fill="none" xmlns="http://www.w3.org/2000/svg">
<g clip-path="url(#clip0_137_2422)">
<path d="M111.472 186.857C111.031 186.371 110.331 186.033 109.699 185.717L109.124 184.893C108.785 184.419 108.469 183.73 107.939 183.47C107.453 183.233 106.934 183.053 106.629 182.669L106.054 181.958L105.489 181.292L104.056 179.926C103.683 179.565 103.3 179.136 103.108 178.662C102.476 177.082 101.46 177.229 100.614 176.393L99.7896 175.57L98.4124 174.7C98.1866 174.554 97.6676 174.407 97.408 174.328L96.0988 173.922L95.0828 173.538L93.3897 172.748L92.2158 172.24L91.0648 171.54L89.8231 170.705C89.5635 170.536 89.1119 170.31 88.8184 170.208L87.6335 169.824C87.2159 169.689 86.945 169.475 86.5161 169.373L85.647 169.17L83.1526 169.113C82.8479 169.113 82.2835 168.718 82.0013 168.628L80.9514 168.256L79.597 167.793L78.7505 167.274L77.4526 166.901L76.3917 166.404L75.2291 165.908L74.1343 165.186L72.8135 164.249L72.0348 163.91L70.9174 163.222L70.1048 162.635L67.8926 160.795L67.2152 160.208C67.4071 159.79 67.3394 159.373 66.9669 159.057C66.6396 158.774 66.5719 158.47 66.4026 158.029C66.2333 157.589 65.5673 157.149 65.1835 156.833L64.7886 156.077C64.5742 155.671 64.2693 154.914 63.8404 154.734C63.2648 154.497 63.0502 154.361 62.8583 153.819L62.5425 152.939C62.4748 152.296 62.4069 151.81 62.0796 151.19L62.283 149.801C62.3281 149.519 62.2489 149.158 62.1361 148.853L62.4183 147.939C62.4747 147.77 62.2716 147.375 62.2491 147.205L62.1135 146.133C62.2715 145.749 62.6326 145.14 62.5987 144.779L62.5312 144C62.5199 143.819 62.5423 143.39 62.5987 143.187L62.9374 142.002L63.2874 140.794L63.7613 140.478C63.8516 139.304 63.0728 138.447 63.7726 137.645C63.9081 137.499 64.1904 137.171 64.2017 136.991C64.213 136.483 64.3032 135.614 64.6757 135.252L65.3417 134.609L66.1882 133.627L66.7752 132.984C67.2154 132.51 67.4072 132.149 67.5878 131.494C67.7232 130.986 68.1972 130.275 68.5922 129.959C68.9873 129.643 69.1114 129.451 69.1792 128.92C69.292 128.074 70.4772 128.198 70.6691 127.803C71.0642 126.99 71.6284 127.385 71.9331 126.686L72.4862 126.539L73.0392 125.546L73.7391 125.444L74.3148 124.451C74.5405 124.056 75.3081 123.74 75.7709 123.627L77.1817 123.288C77.4526 123.22 77.9153 122.769 78.1862 122.701C78.6038 122.6 78.8521 122.453 79.0553 122.137C79.4278 121.539 79.7778 121.877 80.8613 121.302C81.1322 121.166 81.4144 121.053 81.6965 121.042C82.3512 120.997 82.8478 120.771 83.4235 120.545L84.4618 120.128C84.7778 120.004 85.1163 119.947 85.4775 119.891L86.911 119.654L87.7349 119.552C88.0058 119.518 88.4348 119.112 88.6605 118.898C90.094 118.423 91.392 118.706 92.1031 118.491L93.2092 118.153C94.1573 117.859 94.8796 118.423 95.128 118.141C95.9519 117.227 96.4372 117.171 97.848 117.34L98.3675 117.08L99.2366 116.787L100.139 116.471L100.93 116.381C102.171 115.895 103.334 116.426 104.112 115.692C104.248 115.568 104.451 115.331 104.587 115.32C104.891 115.308 105.422 115.184 105.636 114.992C106.031 114.62 106.415 114.586 106.9 114.496C107.273 114.428 107.589 114.36 107.995 114.417C108.526 114.484 109.372 114.123 109.745 113.785C109.936 113.615 110.219 113.164 110.456 113.085L112.205 112.441L112.95 111.809C113.323 111.493 113.853 111.392 114.305 111.516L114.937 111.155L116.009 110.59C116.235 110.466 116.472 110.229 116.641 110.308C117.668 110.771 117.612 109.608 118.357 109.552L119.655 109.45C119.767 109.45 120.005 109.292 120.084 109.202L120.941 108.22C121.088 108.051 121.438 107.904 121.709 107.881L123.684 107.667H124.745L127.036 107.689C127.194 107.689 127.431 107.87 127.533 108.006L127.68 107.87C127.68 107.87 127.951 107.938 128.018 107.938L130.626 108.13L131.924 108.491L133.922 109.055L135.31 109.563L136.077 109.902L136.867 110.229C137.319 110.41 137.94 110.556 138.312 110.873L139.588 111.99L140.728 112.983L141.867 113.604L142.364 114.225C143.199 114.687 144.136 115.523 144.226 116.29L144.305 116.945L144.418 116.979L144.542 117.306C144.757 117.848 144.667 118.265 145.253 119.157L145.728 119.868L146.111 119.925C146.19 119.925 146.281 120.173 146.281 120.252V121.02V122.351L146.518 122.95L146.902 123.909L147.105 124.293C147.172 124.417 147.319 124.631 147.353 124.733L147.68 125.681C147.861 126.189 148.098 126.595 148.436 127.047C149.08 127.905 148.967 128.627 149.306 129.056C149.678 129.541 149.757 129.88 149.78 130.433L149.836 131.652L149.96 133.187C150.017 133.932 149.994 134.665 150.163 135.354L150.378 136.268L150.592 137.171C150.728 137.735 150.096 137.882 150.333 139.237L150.525 140.365C150.773 141.833 150.423 142.126 150.671 142.657C150.976 143.323 151.111 144.271 150.942 144.892C150.818 145.354 150.739 145.885 150.875 146.314L151.326 147.724L151.089 148.673C151.055 149.688 151.484 150.727 151.913 151.596L151.743 152.521C151.653 152.984 151.529 153.616 151.552 154.045L151.608 154.892C151.145 155.118 150.773 155.558 150.829 156.032L150.965 157.262L150.513 157.397C150.288 157.465 150.197 157.996 150.739 158.797C151.021 159.215 151.021 159.96 151.157 160.468C151.337 161.167 151.518 161.743 151.123 162.42L151.292 163.413L151.349 165.264C151.349 165.377 151.529 165.648 151.608 165.75C152.014 166.235 151.473 166.709 151.732 167.059C151.947 167.353 152.015 168.154 151.631 168.493C151.507 168.605 151.631 168.967 151.665 169.136L152.139 170.953C152.251 171.382 152.624 171.89 152.624 172.42C152.624 172.815 152.24 173.493 152.139 173.831C152.037 174.17 152.297 175.05 152.759 175.581C153.222 176.111 153.042 176.755 152.839 177.342L152.353 178.719C152.308 178.99 152.59 179.452 152.782 179.847C152.421 180.051 151.98 180.186 151.473 180.242C151.382 180.321 151.032 180.66 150.999 180.818L150.818 181.732L150.897 182.263L150.412 182.737L150.705 183.865C150.096 184.069 149.757 184.362 149.441 184.87C149.227 185.22 148.989 185.581 148.922 185.999C148.809 186.653 148.504 187.207 148.042 187.647C147.692 187.974 148.233 188.832 147.827 188.832H147.003C146.597 188.832 146.303 189.137 146.315 189.532L146.337 190.423L144.938 190.988L143.956 191.518L142.646 192.162L141.743 192.511L140.739 192.94L139.937 193.482L139.125 194.114C138.515 194.588 138.019 193.809 137.556 194.487L136.675 194.633C136.224 194.712 135.716 195.277 135.422 195.66L134.362 195.728L132.228 196.372L131.303 196.62L130.084 196.439C128.436 196.191 127.364 196.936 126.303 196.609L124.339 196.01L122.522 195.435L121.02 194.882L120.005 194.385C119.519 194.148 118.898 193.888 118.56 193.471C118.244 193.076 117.837 192.748 117.318 192.726C116.912 192.715 117.138 192.308 116.855 191.394C116.709 190.909 117.172 190.909 116.957 190.604L115.501 189.836L114.677 189.261L112.589 187.974C112.126 187.692 111.81 187.297 111.426 186.879L111.472 186.857Z" fill="black"/>
<path d="M167.771 121.855C167.309 121.719 166.857 121.787 166.451 121.776C165.762 121.753 165.187 121.697 164.487 121.821C164.159 121.877 163.798 121.776 163.527 121.584C162.557 120.907 161.812 121.843 160.717 121.189L159.837 121.076L158.663 120.681L157.703 120.15C157.308 119.936 156.992 119.665 156.688 119.36L155.875 118.559C155.672 118.367 155.085 118.322 154.78 118.164L153.753 117.633C153.493 117.498 153.042 117.125 152.861 116.922L152.263 115.963C152.071 115.658 151.958 115.365 151.642 115.161C151.496 115.071 151.507 114.766 151.45 114.541L151.213 113.683V112.825C151.213 112.249 151.134 111.798 151.247 111.211L150.818 110.049L150.423 108.276L150.322 107.825C150.299 107.723 150.547 107.61 150.671 107.52L150.728 105.398L150.908 104.563C150.976 104.258 150.908 103.739 151.518 103.592L151.315 103.028C151.202 102.723 151.225 102.576 151.304 102.181C151.484 101.29 150.999 100.985 151.529 99.9353C151.834 99.3145 152.116 98.8179 152.624 98.3326L152.59 97.723L152.906 97.0796C153.03 96.82 153.313 96.5492 153.561 96.5492H153.967C154.193 96.5492 153.798 95.9285 154.328 95.3754L154.893 94.7998L155.83 93.6372L156.462 92.9824C156.631 92.8131 156.721 92.2827 156.879 92.0569L157.365 91.3798C157.466 91.2443 157.647 91.0185 157.692 90.9057L158.076 89.9802C158.426 89.1449 159.633 89.8335 160.141 88.3097L160.751 87.6211L161.383 87.4406L162.41 87.0456L162.647 86.1539C162.816 85.5444 163.448 85.1944 163.922 84.5398L164.453 83.8174L165.57 83.4337C166.033 83.2756 166.372 83.0838 166.744 82.8017L167.794 82.0228L168.787 81.7745L169.972 81.56C170.356 81.4923 170.548 81.3907 170.853 81.165L171.507 80.691C171.846 80.4427 172.219 80.2507 172.58 80.6119C172.738 80.7699 173.2 81.0408 173.438 81.0069L174.6 80.8489C175.266 80.7586 175.424 81.6391 176.327 81.3682C177.23 80.4539 178.708 80.3975 179.555 81.4584L180.887 81.5713C181.124 81.5939 181.587 81.4133 181.846 81.2778L183.099 81.6052C183.765 81.7745 184.115 81.9777 184.691 82.3276L185.876 83.0612L186.914 83.8626C187.241 84.1109 187.546 84.4383 187.817 84.7656L188.381 85.4428C188.72 85.8491 189.149 86.12 189.386 86.5489L189.837 87.3954L190.695 88.4676C191.124 89.0094 191.034 89.9349 191.068 90.6009L191.44 91.5828C191.271 91.9553 191.158 92.2601 191.113 92.61L190.966 93.5807V94.2015C190.627 94.89 190.91 95.3302 190.673 95.9285C190.368 96.6621 190.797 96.6395 190.469 97.5763C190.323 97.9714 190.436 98.5244 190.469 99.0098L190.549 100.082L190.887 101.008L190.515 101.673L189.657 102.622C189.397 102.904 189.205 103.525 189.002 103.908L188.122 104.687L187.185 106.425V107.498L186.35 108.604L186.462 109.62C186.113 109.902 186 110.06 185.876 110.455L185.289 110.793L184.532 112.001L183.618 112.498C183.291 112.678 183.133 113.198 183.155 113.536L182.535 114.326L181.733 115.342L181.034 115.794C180.74 115.985 180.571 116.561 180.559 116.922C180.006 117.013 179.521 117.193 179.16 117.633L178.325 118.198C178.189 118.288 178.223 118.694 178.246 119.067L176.801 119.01C176.474 119.146 175.83 119.552 175.469 119.609L174.555 119.733C174.25 120.207 173.855 120.59 173.37 120.794L172.501 120.624C172.343 120.591 171.925 120.782 171.778 120.816C171.428 120.782 171.101 120.85 170.841 121.019L169.814 121.719C169.272 122.092 168.505 122.08 167.805 121.877L167.771 121.855Z" fill="black"/>
<path d="M182.432 165.298C181.812 165.118 180.784 165.332 180.333 165.817C179.881 166.303 179.543 166.167 178.967 166.134L177.658 166.032C177.376 166.032 176.834 166.28 176.541 166.393C175.017 166.957 171.902 166.924 170.773 166.348L169.317 165.603C168.832 165.355 168.448 165.106 167.996 164.824L166.902 164.136L165.491 163.142L164.644 162.612L163.245 161.201C162.872 160.829 162.42 160.219 162.206 159.802C161.766 158.932 161.371 158.267 160.761 157.544L159.926 156.54C159.734 156.303 159.7 155.964 159.666 155.625L159.475 153.752C159.463 153.616 159.644 153.368 159.825 153.232L160.062 152.262C159.813 150.512 159.633 149.293 160.761 147.961C161.01 147.679 161.235 147.499 161.111 147.16C160.931 146.675 161.111 146.426 161.326 146.031C161.495 145.727 161.619 145.523 161.879 145.253C162.093 145.027 162.104 144.372 162.195 144.067L162.488 143.063L163.233 142.284L163.312 141.528L163.764 140.715C164.046 140.207 164.61 140.557 164.667 139.699C164.723 138.842 164.937 138.243 165.592 138.119L166.123 138.018L166.247 137.431L166.8 136.663C166.992 136.629 167.5 136.663 167.895 136.708L168.448 136.37C168.662 135.851 169.012 135.489 169.475 135.151L169.599 134.631L170.22 134.045L171.574 133.774C172.014 133.683 172.274 133.548 172.759 133.525C173.753 133.458 174.012 133.176 174.577 132.329L175.152 131.99C175.705 131.663 175.796 132.34 176.416 131.968L177.489 131.324L177.94 130.658L178.132 130.105L180.073 130.026C180.841 129.383 181.315 130.681 182.026 130.568L183.042 130.41C183.392 130.354 183.9 130.433 184.238 130.523L185.491 130.862C186.733 131.2 187.85 130.534 188.313 130.636L189.476 130.884L190.04 130.534L191.09 130.252C191.36 130.173 191.789 130.67 191.981 130.896L192.794 131.46L193.584 132.126C194.013 132.498 194.701 132.724 195.277 132.905L196.022 133.548L197.004 134.519L197.862 135.489L198.539 136.313L199.916 138.616C200.153 139.022 200.221 139.767 200.334 140.241L200.559 141.144L200.875 142.284C200.977 142.634 201.033 142.984 200.977 143.334L200.808 144.451L200.604 145.659C200.514 146.223 200.763 146.234 200.435 147.025L199.713 148.774C199.611 149.022 199.566 149.632 199.577 149.892L199.679 151.269H198.765L198.528 151.855L197.975 152.521C197.636 152.928 197.139 153.244 197.026 153.797C196.981 154 196.846 154.248 196.71 154.293C195.853 154.576 196.823 155.558 196.191 155.84C195.345 156.212 195.853 156.72 194.611 157.533C193.855 158.029 194.509 158.684 193.923 159.44L192.794 159.519L192.331 160.704C192.06 161.404 191.462 161.811 190.706 161.867L189.927 162.77C189.746 162.973 189.092 162.962 188.821 162.894L187.997 163.357C187.015 163.91 186.688 163.538 186.304 164C185.604 164.836 184.972 163.876 183.696 165.039C183.324 165.377 182.929 165.434 182.421 165.287L182.432 165.298Z" fill="black"/>
<path d="M126.021 100.127L125.05 99.5065L124.339 98.9535C123.176 98.5584 123.447 97.5088 122.375 96.8993C121.19 96.2221 121.348 95.5786 120.501 95.1159L119.485 94.5515C118.842 94.1903 118.91 93.2875 118.063 92.3958C117.386 91.8879 116.731 91.3461 116.427 90.5334C116.336 90.3077 116.336 89.7546 116.325 89.5176L116.291 88.4791L115.896 87.0232C115.795 86.662 115.704 86.2444 115.715 85.9058L115.761 84.5965L115.704 83.8515C115.704 83.716 115.682 83.3774 115.738 83.2532L116.246 82.2826C115.761 81.944 115.806 81.6392 115.885 81.1765L116.009 80.4428L116.438 79.6753L116.37 79.3367C116.348 79.2464 116.641 79.1109 116.686 79.0206C116.946 78.5578 117.138 77.9371 117.296 77.4179L117.533 76.6617L117.713 76.1199C117.634 75.7023 117.612 75.3298 117.713 74.9234C117.894 74.0995 118.447 74.1447 118.312 73.6368C117.962 72.3614 118.526 72.3275 118.707 71.3568C118.786 70.9279 118.853 70.7473 119.113 70.4538C119.26 70.2845 119.564 69.9346 119.621 69.7427L119.948 68.8173L120.603 67.5869L120.648 66.5486C120.648 66.3905 120.964 66.1309 121.111 66.0632L121.788 65.7584L122.962 65.1151C123.436 63.8397 124.248 63.5687 123.955 62.8238C124.519 62.3497 124.282 61.8418 124.745 61.8418H126.021L126.867 60.1827L127.161 59.3248C127.228 59.1104 127.623 58.8395 127.838 58.659C128.165 58.3768 128.312 58.2526 128.842 58.2074C129.091 58.0043 129.373 57.4173 129.531 57.011L130.975 56.9207C131.167 56.8078 131.585 56.5256 131.788 56.4692L132.815 56.1983C133.639 55.9726 133.921 54.9229 133.854 54.9681C133.944 54.9116 134.125 54.8552 134.294 54.81L136.077 54.3698C136.258 54.3247 136.585 54.3134 136.766 54.2344C136.946 54.1554 137.161 54.1102 137.319 54.0877L138.391 54.0087L139.407 53.8733C139.757 53.8281 140.321 53.862 140.502 54.1442C140.739 54.5053 140.987 54.4715 141.281 54.6859L143.741 56.5257L144.757 57.2255L145.31 57.7446C145.694 57.9478 146.078 58.1961 146.281 58.5912C146.563 59.1329 147.161 59.449 147.455 59.9005L148.29 61.1985L149.588 62.9931L150.006 63.9299L150.547 65.0812C150.649 65.2956 150.897 65.7472 150.92 65.9616L151.055 67.2596L151.179 68.5577C151.224 69.043 151.269 69.5058 151.179 69.9798L150.987 71.1085C150.942 71.3456 151.1 71.8309 151.19 72.0905L151.315 73.1401L151.461 74.4608C150.999 75.0815 151.563 75.5104 151.484 76.0973C151.416 76.5488 151.394 77.1132 151.495 77.6662L151.055 78.3999C150.965 78.5466 151.066 78.9869 151.145 79.1336C151.45 79.7657 151.179 80.2622 150.762 80.7588L149.972 81.6956L150.265 82.576C150.197 83.0952 149.893 83.8854 149.667 84.3595C149.475 84.7545 150.062 85.3866 149.385 86.0525L148.82 86.6056C148.493 86.9329 148.312 87.1699 148.47 87.6665L147.883 87.9826L147.601 89.3369L147.308 90.1271C146.811 91.459 145.705 91.2897 146.281 92.3958L145.242 92.8247C144.215 93.2536 145.174 94.2581 144.147 94.7661C143.865 94.9015 143.64 95.1047 143.47 95.3417L142.624 96.4817C142.511 96.6284 142.24 96.9557 142.059 96.9896C141.743 97.0573 141.089 97.1476 140.965 97.3959L140.479 98.3439L140.005 99.1454L139.035 99.8113C138.617 100.105 138.21 99.8113 137.127 100.319C136.743 100.5 136.371 100.5 135.908 100.387L135.603 100.771C135.378 101.042 135.084 101.211 134.723 101.301L132.364 101.877C131.077 102.193 130.603 100.996 129.474 101.47L128.639 101.256L127.307 100.793L126.055 100.139L126.021 100.127Z" fill="black"/>
<path d="M88.514 110.297L87.498 110.444C86.8998 110.534 86.4032 110.523 85.7937 110.466L84.0893 110.32L82.938 110.06L81.674 109.755L80.7258 109.338C79.8116 108.931 79.473 109.01 78.4684 108.254C78.0395 107.927 77.7575 108.344 76.8884 107.171L76.3466 106.448C76.2902 106.369 76.0191 106.223 75.9063 106.211C75.1162 106.076 75.5001 105.568 75.2179 104.563L74.9809 103.728C74.5633 102.227 73.7731 102.08 73.7505 101.64C73.728 101.346 73.694 101.087 73.615 100.85L72.9944 98.9197L72.5992 98.0619C72.2606 97.3508 71.9785 95.8046 72.351 95.0822C72.4074 94.5743 71.5834 93.9309 71.4479 93.4681L70.9627 91.9218C70.9401 91.8428 70.8272 91.572 70.8949 91.5268L71.3014 91.1994C71.3239 90.8383 71.3352 90.1836 71.2788 89.7886L71.1206 88.6486C71.098 88.5018 71.0529 88.1519 71.1319 88.0503C71.3238 87.8359 71.7414 87.3845 71.7188 87.1249L71.6284 86.2105C71.5494 85.3979 72.3058 85.5559 72.0688 84.6868L71.6623 83.2196L71.3126 82.0344C71.5271 81.5491 71.9671 81.1653 72.5315 80.9057C72.7572 79.8447 71.8994 79.6642 72.5541 78.8628C72.7572 78.6032 72.9829 78.4903 73.3554 78.3661C73.4344 78.1743 73.5587 77.5761 73.7618 77.4181L74.4954 76.8424C74.8566 76.5602 75.2854 76.8424 76.4028 76.1652L77.1479 75.7137L77.5541 74.8672C77.6896 74.585 77.5204 73.9303 77.464 73.5353C77.3963 73.0386 77.9267 72.6776 78.2427 72.3728C78.6039 72.0116 78.9651 71.4359 79.3714 71.1876L80.1841 70.6909L80.7823 70.3072C81.2451 70.0024 81.7418 69.7768 82.2497 69.5398L83.1863 69.0883C83.4911 68.9415 83.6379 68.8061 83.8185 68.4111L84.7102 68.253C84.9698 68.2079 85.3422 68.0273 85.5228 67.858L86.2679 67.192C87.5208 67.1468 88.2091 66.5374 88.5702 66.8196L89.0784 67.2259C89.4734 67.3387 90.0038 67.4742 90.3311 67.6548L91.6292 68.3659L92.3515 68.9867C92.7917 69.3705 93.4802 69.4945 94.0107 69.7203L95.6698 70.4313L96.8211 70.928L98.0515 71.6504C98.2095 71.7407 98.5028 72.068 98.6946 72.1357C99.1348 72.2824 99.5866 72.6662 99.801 73.1177L100.207 73.9642C100.456 74.4721 100.997 74.4269 101.009 75.0816C101.02 75.5895 101.144 75.8605 101.483 76.1878L101.641 76.865C102.013 77.1472 102.419 77.4971 102.679 77.8809L103.018 78.4113C103.616 79.3481 104.146 79.1111 104.237 80.0931L104.327 80.9848L104.44 82.057C104.462 82.3053 104.632 82.8471 104.767 83.0729L105.309 83.987C105.614 84.495 104.722 85.3867 104.587 86.4364C104.564 86.6282 104.688 87.0797 104.722 87.3055C104.79 87.7118 103.909 87.8811 103.988 89.0098L103.842 89.6305L103.616 90.432C103.356 91.3463 104.045 91.3237 103.65 92.1251C103.435 92.554 103.345 93.1747 103.402 93.6262L103.492 94.247C103.063 94.3825 102.95 94.4953 102.871 94.8677L102.149 95.4773C101.528 95.9965 101.291 96.5834 101.697 97.2945C101.528 97.6556 101.347 98.1635 101.313 98.536L101.234 99.6308L101.449 100.184L100.219 100.805L99.3268 102.024L99.4398 102.554L99.1237 103.491C98.7174 103.762 98.4352 104.123 98.5255 104.721L98.0854 105.534L97.7015 106.381C97.4306 106.956 97.1937 107.396 96.6858 107.78C95.8844 108.367 94.9474 107.645 94.2363 108.83C93.9993 109.236 93.6608 108.954 92.961 109.518C92.7353 109.699 92.1936 109.992 91.9001 110.094C91.5051 110.241 90.9745 109.552 90.0715 110.229L88.514 110.32V110.297Z" fill="black"/>
</g>
<defs>
<clipPath id="clip0_137_2422">
<rect width="250" height="250" fill="white"/>
</clipPath>
</defs>
</svg>
