<?xml version="1.0" standalone="no"?>
<!DOCTYPE svg PUBLIC "-//W3C//DTD SVG 20010904//EN"
 "http://www.w3.org/TR/2001/REC-SVG-20010904/DTD/svg10.dtd">
<svg version="1.0" xmlns="http://www.w3.org/2000/svg"
 width="500.000000pt" height="500.000000pt" viewBox="1 55 499 390"
 preserveAspectRatio="xMidYMid meet">
<metadata>
Created by potrace 1.16, written by Peter Selinger 2001-2019
</metadata>
<g transform="translate(0.000000,500.000000) scale(0.100000,-0.100000)"
fill="#000000" stroke="none">
<path d="M1585 4363 c-22 -2 -51 -6 -65 -9 -30 -7 -160 -141 -160 -164 0 -9
-8 -27 -19 -39 -11 -13 -19 -37 -19 -63 -1 -22 -5 -44 -10 -47 -6 -3 -13 -34
-16 -69 -4 -42 -3 -61 4 -57 5 3 10 -3 10 -14 0 -12 -5 -21 -10 -21 -15 0 -8
-61 8 -67 7 -3 12 -13 11 -22 -1 -9 3 -27 8 -41 6 -14 9 -28 6 -32 -2 -5 0 -8
6 -8 6 0 24 -15 40 -32 16 -18 38 -42 48 -53 33 -37 68 -48 127 -42 31 3 61 9
68 14 7 4 16 8 20 8 15 0 88 68 88 81 0 8 4 14 9 14 5 0 14 15 22 33 7 17 15
34 18 37 17 14 39 72 34 86 -3 8 1 20 10 27 16 13 26 48 34 118 4 35 1 50 -13
63 -10 10 -13 21 -8 24 9 7 10 18 6 65 -1 11 -7 15 -13 11 -8 -4 -9 3 -5 23 8
34 -10 72 -56 124 -53 59 -65 62 -183 52z"/>
<path d="M724 4195 c-62 -28 -124 -103 -124 -151 0 -18 -4 -34 -9 -36 -14 -5
-16 -88 -3 -128 6 -19 13 -46 16 -60 13 -80 101 -229 168 -285 72 -61 191 -83
271 -50 39 16 85 65 91 98 23 109 23 175 0 221 -8 16 -14 39 -14 51 0 12 -11
39 -25 59 -14 20 -25 45 -25 55 0 35 -110 167 -174 208 -46 30 -126 38 -172
18z"/>
<path d="M2114 3816 c-42 -15 -134 -87 -134 -104 0 -8 -6 -20 -13 -26 -8 -6
-25 -38 -40 -71 -24 -55 -33 -117 -41 -265 -3 -53 49 -160 69 -142 5 4 5 2 2
-4 -3 -6 5 -27 18 -46 18 -26 35 -38 69 -47 55 -14 103 -14 111 -1 3 6 13 10
21 10 15 0 86 43 115 70 10 8 27 35 39 60 12 25 26 52 31 60 22 37 29 66 31
141 1 44 5 82 9 85 9 5 -1 44 -11 44 -13 0 -20 43 -9 56 22 27 -69 152 -126
172 -47 17 -107 20 -141 8z"/>
<path d="M296 3562 c-3 -5 -18 -8 -32 -6 -15 1 -39 -5 -53 -14 -31 -20 -81
-71 -81 -82 0 -5 -5 -10 -11 -12 -5 -2 -11 -11 -13 -20 -1 -10 -5 -21 -9 -24
-11 -11 -8 -73 4 -96 6 -11 12 -30 14 -42 5 -42 19 -81 32 -95 10 -9 11 -16 4
-21 -13 -7 50 -75 71 -75 7 0 12 -8 12 -17 -4 -44 137 -131 231 -142 60 -7
163 8 179 27 6 7 27 25 47 40 42 30 49 54 52 170 1 53 -2 80 -10 85 -7 5 -15
23 -17 41 -2 18 -8 36 -12 40 -5 3 -13 13 -19 22 -39 65 -80 119 -90 119 -6 0
-40 18 -76 39 -42 25 -68 36 -75 30 -16 -13 -44 0 -37 17 4 12 -3 15 -33 13
-22 -1 -46 2 -55 5 -10 4 -20 3 -23 -2z"/>
<path d="M425 3540 c3 -5 8 -10 11 -10 2 0 4 5 4 10 0 6 -5 10 -11 10 -5 0 -7
-4 -4 -10z"/>
<path d="M1284 3332 c-4 -13 -16 -19 -42 -20 -26 -2 -45 -11 -62 -30 -14 -15
-42 -35 -63 -44 -20 -10 -37 -23 -37 -29 0 -6 -11 -20 -25 -31 -14 -11 -25
-25 -25 -32 0 -7 -11 -26 -25 -42 -27 -31 -65 -107 -65 -131 0 -7 -7 -16 -15
-19 -8 -3 -17 -16 -21 -27 -4 -12 -18 -39 -31 -60 -13 -21 -21 -42 -18 -47 4
-6 -1 -10 -9 -10 -9 0 -17 -7 -17 -15 -1 -8 -2 -21 -3 -27 -1 -7 -9 -21 -19
-31 -12 -12 -17 -27 -13 -42 4 -14 -1 -30 -14 -45 -11 -13 -20 -31 -20 -40 0
-9 -3 -20 -7 -24 -16 -16 -13 -54 4 -59 14 -4 15 -5 2 -6 -18 -1 -39 -41 -39
-76 0 -13 -4 -27 -10 -30 -14 -9 -13 -68 2 -83 9 -9 8 -12 -4 -12 -12 0 -16
-11 -15 -47 0 -27 3 -52 7 -58 4 -5 6 -20 5 -33 -1 -13 2 -25 7 -28 5 -3 6
-14 3 -24 -4 -13 1 -26 14 -37 12 -10 21 -25 21 -35 0 -10 5 -18 10 -18 6 0
10 -5 10 -10 0 -14 59 -74 87 -89 12 -6 30 -11 39 -11 10 0 36 -9 58 -19 35
-16 52 -18 115 -10 41 4 81 11 90 15 9 4 19 8 23 8 3 1 10 4 14 9 4 4 15 7 25
7 10 0 26 8 36 19 10 10 43 29 73 41 30 12 78 32 107 45 33 16 73 25 110 26
32 1 61 7 65 13 5 7 14 7 30 -2 13 -6 41 -14 63 -17 22 -3 57 -10 77 -16 28
-7 43 -6 58 3 17 11 22 11 30 -1 7 -12 11 -12 23 -2 10 7 16 8 19 2 4 -12 75
4 97 22 8 7 24 10 36 9 12 -2 28 4 35 12 7 9 19 16 26 16 8 0 14 10 14 25 0
19 5 25 22 25 12 0 18 3 15 6 -4 4 7 22 23 41 17 19 28 38 25 43 -3 4 0 10 7
12 7 3 12 21 11 44 -1 21 2 43 5 49 7 11 11 35 13 89 1 27 -4 43 -16 52 -9 7
-14 17 -11 23 9 14 -16 104 -31 114 -7 4 -13 17 -13 28 0 11 -7 22 -16 26 -8
3 -13 12 -10 20 6 13 -15 54 -41 81 -7 7 -13 18 -13 23 0 5 -7 9 -16 9 -11 0
-14 5 -10 16 4 11 -1 18 -14 21 -11 3 -18 9 -15 13 8 13 -34 78 -55 85 -10 3
-21 13 -24 23 -15 40 -71 111 -118 148 -8 7 -24 22 -34 35 -11 13 -27 29 -36
34 -9 6 -42 30 -73 54 -30 24 -65 45 -78 47 -12 1 -42 10 -67 19 -47 18 -68
21 -188 30 -66 5 -74 4 -78 -13z m526 -227 c11 -13 10 -14 -4 -9 -9 3 -16 10
-16 15 0 13 6 11 20 -6z m-990 -399 c0 -3 -4 -8 -10 -11 -5 -3 -10 -1 -10 4 0
6 5 11 10 11 6 0 10 -2 10 -4z m5 -35 c3 -5 1 -12 -5 -16 -5 -3 -10 1 -10 9 0
18 6 21 15 7z m1145 -565 c0 -2 -9 -6 -20 -9 -11 -3 -18 -1 -14 4 5 9 34 13
34 5z"/>
<path d="M3694 3131 c-3 -3 -14 -6 -25 -8 -42 -6 -89 -33 -100 -57 -6 -13 -17
-22 -23 -20 -27 10 -84 -131 -106 -264 -19 -112 21 -281 81 -343 50 -52 111
-83 164 -83 73 -1 109 19 161 87 44 58 83 142 70 154 -3 3 0 15 6 26 18 34 27
179 16 252 -11 76 -21 110 -34 126 -8 9 -11 18 -8 22 4 3 -17 28 -45 56 -46
44 -58 50 -102 53 -28 1 -53 1 -55 -1z"/>
<path d="M4445 2870 c-3 -5 -16 -10 -29 -10 -35 0 -124 -47 -142 -75 -12 -19
-19 -23 -25 -14 -9 15 -39 -11 -39 -34 0 -7 -11 -19 -25 -25 -14 -6 -25 -18
-25 -26 0 -7 -7 -16 -15 -20 -8 -3 -15 -12 -15 -21 0 -8 -5 -15 -11 -15 -7 0
-9 -9 -6 -21 4 -16 -2 -30 -24 -49 -24 -23 -28 -33 -23 -59 4 -17 3 -31 -2
-31 -11 0 -15 -58 -7 -80 3 -8 8 -28 10 -45 16 -126 77 -183 192 -181 54 1 78
7 134 35 37 19 67 38 67 43 0 5 11 13 25 18 14 5 25 14 25 20 0 5 7 10 15 10
14 0 19 11 16 36 -1 7 10 15 24 18 13 3 33 19 42 34 10 15 20 29 23 32 11 11
41 77 39 86 -2 5 5 26 15 47 15 31 16 41 6 47 -7 4 -9 13 -6 19 4 6 12 9 17 6
11 -7 3 86 -13 138 -6 20 -15 37 -20 37 -4 0 -8 6 -8 14 0 14 -45 40 -93 51
-15 4 -30 11 -33 16 -7 12 -81 11 -89 -1z"/>
<path d="M2899 2802 c-25 -9 -54 -25 -63 -34 -10 -10 -21 -18 -25 -18 -10 0
-31 -46 -31 -69 0 -9 -9 -36 -20 -59 -11 -23 -18 -53 -16 -67 3 -17 1 -23 -6
-19 -8 5 -9 -10 -4 -52 4 -32 12 -61 17 -65 8 -5 8 -8 0 -10 -19 -7 11 -92 38
-105 14 -8 18 -13 10 -16 -16 -5 23 -73 58 -101 13 -10 29 -24 36 -32 7 -7 38
-24 68 -38 48 -23 62 -26 126 -20 63 5 76 10 105 38 18 17 34 38 36 46 2 8 8
16 12 19 18 11 43 85 41 118 -1 17 2 32 7 32 6 0 8 37 5 93 -5 82 -8 96 -34
131 -16 22 -29 48 -29 58 0 10 -4 18 -10 18 -5 0 -10 7 -10 15 0 9 -10 26 -21
38 -17 17 -20 18 -16 5 3 -10 1 -20 -5 -24 -8 -5 -9 2 -5 22 5 27 1 31 -66 70
-82 46 -127 52 -198 26z"/>
<path d="M3697 2114 c-3 -3 -31 -6 -61 -5 -30 0 -58 -4 -61 -9 -4 -6 -17 -10
-31 -10 -14 0 -45 -11 -70 -25 -24 -13 -44 -22 -44 -18 0 4 -10 -2 -22 -13
-25 -21 -96 -69 -113 -75 -33 -12 -124 -72 -120 -79 3 -4 -4 -6 -16 -3 -14 4
-22 0 -25 -15 -4 -12 -17 -22 -35 -26 -16 -3 -29 -11 -29 -17 0 -6 7 -8 18 -4
14 5 15 4 5 -6 -7 -7 -13 -21 -13 -30 0 -10 -5 -21 -12 -25 -8 -5 -9 0 -5 15
5 20 3 22 -21 16 -14 -3 -32 -15 -40 -26 -7 -10 -20 -19 -28 -19 -8 0 -14 -6
-14 -14 0 -8 -6 -16 -12 -19 -10 -3 -9 -8 2 -22 14 -17 13 -18 -2 -12 -9 3
-22 -1 -28 -9 -7 -8 -18 -14 -26 -14 -7 0 -15 -8 -18 -18 -4 -10 -20 -28 -36
-40 -20 -15 -30 -31 -30 -48 0 -19 -4 -25 -14 -21 -10 4 -22 -9 -37 -39 -11
-25 -19 -48 -16 -51 3 -3 -3 -14 -13 -25 -18 -20 -37 -94 -26 -105 3 -3 1 -14
-4 -24 -7 -12 -7 -20 0 -24 8 -5 8 -11 0 -20 -8 -9 -8 -15 0 -20 5 -3 10 -18
10 -33 0 -26 43 -102 58 -102 4 0 13 -13 20 -29 15 -33 93 -82 163 -102 24 -7
78 -14 119 -15 87 -3 143 -9 156 -16 5 -2 36 -5 68 -7 35 -1 67 -7 75 -15 9
-8 23 -16 31 -18 8 -2 21 -9 29 -16 9 -9 17 -10 24 -3 10 10 36 -8 38 -26 0
-4 30 -34 65 -65 42 -39 68 -56 79 -52 11 5 18 0 22 -15 4 -16 11 -20 24 -16
11 4 19 2 19 -4 0 -13 26 -27 69 -36 23 -5 31 -4 27 4 -5 7 -1 9 8 5 9 -3 16
-10 16 -15 0 -5 21 -9 48 -9 37 0 50 4 60 21 9 14 17 18 24 11 6 -6 19 -5 36
3 15 8 34 15 41 17 8 2 25 13 37 26 12 12 26 22 33 22 6 0 11 8 11 18 0 9 14
30 30 45 17 16 30 35 30 43 0 8 4 14 8 14 11 0 33 61 26 72 -3 5 0 15 6 23 12
15 21 50 24 102 0 17 5 35 9 39 4 4 2 14 -5 21 -9 11 -9 16 -1 21 15 9 13 124
-2 135 -6 4 -5 10 5 17 12 8 10 10 -10 10 -21 1 -23 2 -8 11 14 7 15 15 8 34
-5 14 -6 25 -1 25 5 0 6 15 4 33 -3 17 -5 38 -6 45 0 6 -4 12 -9 12 -5 0 -8
17 -7 38 3 51 -10 122 -27 150 -8 12 -12 27 -9 32 3 5 0 12 -6 15 -5 4 -8 14
-5 22 3 8 -3 27 -14 43 -11 15 -20 38 -20 49 0 29 -39 88 -94 143 -25 26 -46
52 -46 58 0 6 -4 9 -9 6 -5 -3 -24 9 -42 26 -47 45 -117 82 -132 69 -8 -6 -20
-5 -37 4 -26 15 -62 19 -73 9z m76 -1411 c-7 -2 -19 -2 -25 0 -7 3 -2 5 12 5
14 0 19 -2 13 -5z"/>
<path d="M4660 2100 c-62 -10 -145 -56 -206 -115 -16 -16 -94 -123 -94 -130 0
-4 -12 -23 -27 -42 -26 -34 -28 -42 -28 -141 0 -103 0 -105 30 -137 42 -44 86
-76 96 -69 5 3 25 0 44 -6 19 -6 40 -8 47 -4 7 4 28 7 48 6 27 -2 47 7 90 38
30 22 65 44 78 50 12 5 27 21 34 35 6 14 15 25 20 25 4 0 8 9 8 20 0 10 7 23
16 28 9 5 17 20 18 33 0 13 10 28 21 34 13 6 19 19 18 35 -1 14 7 37 18 53 11
15 17 32 14 37 -3 5 -2 18 4 27 16 32 -7 118 -43 155 -68 71 -107 84 -206 68z"/>
</g>
</svg>
