<?xml version="1.0" standalone="no"?>
<!DOCTYPE svg PUBLIC "-//W3C//DTD SVG 20010904//EN"
 "http://www.w3.org/TR/2001/REC-SVG-20010904/DTD/svg10.dtd">
<svg version="1.0" xmlns="http://www.w3.org/2000/svg"
 width="500.000000pt" height="500.000000pt" viewBox="159 152 182 182"
 preserveAspectRatio="xMidYMid meet">
<metadata>
Created by potrace 1.16, written by Peter Selinger 2001-2019
</metadata>
<g transform="translate(0.000000,500.000000) scale(0.100000,-0.100000)"
fill="#000000" stroke="none">
<path d="M1863 3378 c-42 -30 -64 -76 -70 -152 -5 -49 -13 -71 -42 -111 -19
-27 -38 -52 -42 -55 -18 -13 -40 -108 -34 -145 8 -55 49 -120 93 -150 l37 -25
1 -454 c2 -497 0 -481 62 -523 25 -16 67 -17 629 -18 l601 0 38 31 c21 17 42
42 45 55 4 13 7 223 8 465 l1 442 44 33 c73 56 108 152 83 227 -8 22 -35 70
-61 106 -30 42 -46 75 -46 95 0 90 -39 170 -94 191 -18 6 -236 10 -624 10
l-597 0 -32 -22z m1223 -82 c17 -13 33 -74 34 -127 0 -28 13 -54 55 -112 41
-57 55 -84 55 -110 0 -40 -35 -96 -70 -114 -30 -15 -108 -17 -143 -4 -39 15
-79 75 -79 117 0 37 -26 74 -52 74 -23 0 -46 -29 -46 -58 0 -65 -60 -137 -120
-142 -70 -6 -90 0 -130 40 -33 33 -40 47 -40 78 0 21 -7 48 -16 60 -31 44 -84
17 -84 -44 0 -78 -64 -137 -146 -136 -83 2 -144 58 -144 134 0 39 -21 68 -48
68 -31 0 -43 -16 -51 -68 -16 -104 -68 -140 -190 -133 -14 0 -40 18 -63 41
-53 56 -53 105 0 174 60 80 70 99 72 136 1 54 17 113 34 126 22 16 1150 15
1172 0z m-96 -555 c25 -11 60 -21 78 -21 l32 0 -6 -432 c-4 -308 -9 -435 -18
-440 -6 -4 -90 -8 -187 -8 l-177 0 -4 118 c-5 150 -24 192 -111 241 -81 45
-183 28 -253 -43 -49 -49 -64 -103 -64 -231 l0 -85 -178 0 c-125 0 -182 4
-190 12 -9 9 -12 120 -12 440 l0 428 33 0 c40 0 114 33 149 67 l27 26 33 -28
c98 -83 229 -85 317 -5 39 36 42 36 67 9 28 -32 113 -69 160 -69 59 0 129 27
167 64 l32 33 30 -28 c17 -15 50 -37 75 -48z m-430 -628 c40 -23 52 -56 57
-148 6 -131 12 -125 -121 -125 -100 0 -114 2 -118 18 -5 20 -1 144 7 189 12
69 109 105 175 66z"/>
<path d="M2384 2645 c-21 -21 -24 -31 -18 -57 11 -52 26 -68 61 -68 56 0 74
80 28 125 -30 31 -40 31 -71 0z"/>
<path d="M2548 2650 c-50 -39 -40 -130 14 -130 39 0 68 32 68 75 0 22 -8 43
-20 55 -25 25 -31 25 -62 0z"/>
<path d="M2271 2553 c-40 -27 -14 -112 38 -126 53 -13 80 56 41 105 -25 32
-53 40 -79 21z"/>
<path d="M2678 2563 c-27 -7 -61 -69 -54 -99 7 -27 39 -44 68 -36 20 5 58 61
58 85 0 16 -38 58 -49 56 -3 -1 -14 -3 -23 -6z"/>
<path d="M2470 2493 c-8 -3 -41 -31 -72 -61 -65 -64 -72 -89 -32 -128 22 -23
30 -25 62 -18 35 8 64 8 152 2 49 -3 73 18 73 63 0 26 -11 42 -62 90 -60 57
-82 66 -121 52z"/>
</g>
</svg>
