<svg width="250" height="250" viewBox="0 0 250 250" fill="none" xmlns="http://www.w3.org/2000/svg">
<g clip-path="url(#clip0_137_2340)">
<path d="M125.929 168.059L124.561 167.784L122.883 167.37C121.986 167.151 121.148 166.899 120.09 167.071L117.998 167.404C117.136 167.542 116.171 167.381 115.378 167.795C114.884 168.059 114.459 168.243 113.93 168.335L112.942 168.508L110.609 168.715C109.827 168.783 108.85 168.772 108.149 168.473L106.724 167.864L105.54 167.496C105.368 167.358 104.965 167.002 104.851 166.795L104.287 165.784C104.127 165.496 103.943 165.221 103.874 164.91L103.494 163.301L103.173 162.819L103.012 161.876C103.207 161.187 103.368 160.486 103.402 159.761L103.448 158.911L104.172 157.405L104.448 156.566L105.264 155.578L106.414 154.153L107.057 153.521L108.08 152.532L109.091 151.705L109.873 151.084L110.758 150.257L112.321 148.82L113.424 147.671C113.62 147.464 113.838 147.292 113.953 147.085L114.447 146.28L115.01 145.556L115.792 144.614L116.458 143.878C116.677 143.373 117.01 142.901 117.527 142.649L119.067 141.89L120.469 141.338L121.791 141.062H123.584L125.078 141.2C125.434 141.235 125.963 141.867 126.296 142.017C126.63 142.166 126.86 142.281 127.078 142.568C127.848 143.58 129.204 143.913 129.526 144.372L130.342 145.533L130.985 146.326L131.48 147.234L132.261 148.315L132.905 149.234L133.583 150.119C134.054 150.728 134.169 150.935 134.307 151.705L134.433 152.464C134.847 152.762 135.226 153.233 135.537 153.693L135.973 154.36C136.249 154.774 136.468 154.957 136.697 155.417C136.824 155.67 137.192 155.957 137.502 156.153L137.663 156.865L138.375 157.325L138.674 158.463C138.571 158.67 138.433 159.095 138.502 159.325L138.697 159.98C138.651 160.29 138.594 160.796 138.617 161.049L138.686 161.899L138.375 162.186C138.444 162.566 138.387 162.842 138.18 163.117L137.226 164.324L136.824 164.922L136.031 165.83L135.479 166.542C135.169 166.945 133.192 168.209 132.698 168.312L131.02 168.657L129.376 168.68L128.997 168.186L127.089 168.209L125.883 168.048L125.929 168.059Z" fill="black"/>
<path d="M118.872 139.649C117.895 140.028 116.895 140.281 115.941 140.063L115.022 139.844L113.827 139.637L112.62 139.247C112.378 139.166 112.08 138.821 111.896 138.58L111.022 137.454L110.781 136.822C110.723 136.661 110.517 136.339 110.505 136.155C110.379 134.684 109.93 133.925 109.862 132.983L109.724 131.133C110.643 130.052 109.781 129.489 110.344 129.075C110.907 128.662 110.436 128.213 110.666 127.696L111.034 126.857L111.654 126.237L112.16 125.409C112.493 124.857 113.194 124.294 113.827 124.018C114.206 123.858 116.757 124.087 117.769 124.605L118.918 125.191C119.148 125.306 119.493 125.65 119.619 125.869L120.286 126.972L121.596 129.213C121.941 129.799 121.435 130.156 121.837 130.512C121.952 130.719 122.136 131.247 122.124 131.477L122.09 132.673L122.124 133.787L121.987 134.523L121.826 135.546C121.78 135.822 121.55 136.258 121.412 136.523C121.297 136.753 121.32 137.396 121.136 137.569L120.286 138.408C119.837 138.856 119.516 139.396 118.872 139.637V139.649Z" fill="black"/>
<path d="M128.618 140.074C128.365 140.017 127.756 139.844 127.606 139.649L126.802 138.58C126.675 138.419 126.273 138.143 126.192 137.948L125.836 137.017L125.25 135.603C125.124 135.305 125.112 134.42 125.193 134.121L125.342 133.489L125.675 131.133L126.066 130.133L126.445 129.547C126.434 129.144 126.491 128.443 126.698 128.156L127.388 127.191L128.158 126.294C128.411 125.995 128.617 125.823 128.985 125.674L130.008 125.283C130.112 125.168 130.376 124.743 130.548 124.72L131.353 124.628C131.858 124.225 132.468 123.938 133.134 123.984C133.801 124.03 134.456 124.087 135.054 124.363L135.927 124.777C136.111 124.858 136.456 125.271 136.525 125.467L137.157 127.087C137.352 127.593 137.697 128.053 138.007 128.478L137.812 129.604C137.743 130.029 137.743 130.512 137.812 130.926L137.927 131.684C137.984 132.075 137.662 132.788 137.582 133.19L137.283 134.638L137.157 135.029L136.789 135.971C136.341 136.339 135.927 136.787 135.605 137.304C134.743 137.776 134.778 138.327 134.318 138.569L132.824 139.339L132.295 139.546C131.709 139.856 131.1 140.04 130.433 140.051H128.583L128.618 140.074Z" fill="black"/>
<path d="M144.041 150.268C142.628 151.383 141.674 151.326 139.651 151.165C139.375 151.142 138.87 150.923 138.605 150.82L137.226 150.28L136.674 149.521C136.674 148.751 135.916 148.521 136.1 147.498L135.962 146.648V144.545C135.962 143.982 136.169 143.258 136.571 142.901L136.87 141.89C136.962 141.603 137.548 141.235 137.801 141.051L138.1 140.327C138.525 140.051 138.674 139.81 138.824 139.27C138.927 138.89 139.686 138.706 140.019 138.557L141.122 138.086L142.019 137.592L143.007 136.81L144.156 136.879C144.628 136.913 145.133 136.822 145.604 136.96C146.248 137.143 146.995 137.362 147.432 137.833L148.248 138.741C148.512 139.028 148.65 139.672 148.754 140.063L149.064 141.269L148.8 142.545V143.373L148.627 144.372C148.616 144.625 148.581 144.821 148.512 145.039L148.351 145.786C148.282 145.947 148.087 146.384 147.961 146.533L146.903 147.728L146.156 148.498L145.225 149.314L144.03 150.257L144.041 150.268Z" fill="black"/>
<path d="M102.713 151.349L101.61 151.165C101.288 150.728 100.943 150.487 100.449 150.291L99.5412 149.521C99.2194 149.245 98.9321 148.878 98.6678 148.533C98.4724 148.36 97.9782 148.062 97.8518 147.82L97.415 146.981C97.3691 146.889 97.3231 146.613 97.3116 146.499L97.0128 145.66L96.2772 144.878C96.4726 144.487 96.4151 144.188 96.1968 143.936L96.3692 143.154C96.6795 142.419 97.5989 142.097 96.8404 141.338C96.8749 141.12 96.9553 140.591 97.0818 140.396L97.6104 139.511L98.1966 138.649L98.7137 137.89L99.2884 137.327L101.093 137.224L102.426 137.051C102.84 136.994 103.656 136.902 104 137.086L105.242 137.752L106.54 138.281C106.701 138.35 106.954 138.764 107.058 138.902L107.621 139.281L107.874 140.338C108.011 140.936 108.184 141.465 108.471 142.028C108.931 142.924 108.069 143.396 109.046 144.694C108.908 144.936 108.701 145.292 108.736 145.499L108.862 146.395C109.092 148.027 108.667 147.682 108.023 148.763C107.828 149.096 107.563 149.36 107.276 149.567L106.506 150.107L105.644 150.648L104.035 151.199C103.69 151.314 103.035 151.418 102.725 151.36L102.713 151.349Z" fill="black"/>
<path d="M69.418 108.02H68.9697C68.9697 108.02 69.1191 107.859 69.1881 107.894L69.418 108.02Z" fill="black"/>
<path d="M107.034 185.207C106.103 185.092 105.391 185.942 104.563 185.839C104.115 185.781 103.644 185.609 103.288 185.655C102.552 185.747 101.966 185.701 101.265 185.597L99.5409 185.333L97.7021 185.356L95.9666 185.529L95.1621 185.563L93.5646 185.483L92.174 185.379C91.6798 185.345 91.1511 185.299 90.6799 185.391L89.0709 185.712C88.5307 185.816 88.0021 185.873 87.4504 185.862L85.9908 185.827L84.9679 185.701L84.037 185.678L83.0026 185.954L81.2327 185.919L80.1754 185.977L78.9226 185.896L77.8078 185.701C77.3711 185.621 76.9688 185.701 76.5896 185.965C75.8425 186.517 75.4863 186.149 74.6473 186.322C74.2795 186.402 73.9117 186.367 73.521 186.333L71.3028 186.138L69.8203 186.253L67.786 186.551C67.4297 186.609 67.0045 186.896 66.6367 187.115L65.4415 187.069L64.591 187.149L63.5106 186.942L62.5108 186.701L61.7752 186.666L60.6374 187.229L59.3732 187.931C58.902 187.712 58.5572 187.747 58.1435 188.011C57.8906 188.172 57.224 188.16 56.9942 188C56.0058 187.299 55.684 187.908 55.1438 187.333L54.7071 187.574C54.5922 187.643 54.3393 187.712 54.2129 187.678C54.0864 187.643 53.9141 187.39 53.8336 187.276L53.5003 186.747L53.5923 185.988L53.0521 185.161C52.9487 185 52.7303 184.563 52.8337 184.414C52.9946 184.184 53.3624 183.759 53.3969 183.494L53.5118 182.563L53.6037 181.885L53.7302 180.667C53.7532 180.449 53.937 179.966 53.9945 179.794L54.5117 179.46C54.6496 179.368 54.5691 178.943 54.5002 178.794C54.2014 178.127 54.1095 177.541 53.983 176.828L53.7761 175.587C53.7531 175.484 53.9715 175.127 53.8911 175.059L53.5463 174.737L53.5233 173.461C53.5118 172.289 53.5463 171.737 54.3393 170.714C54.7645 170.163 55.1438 169.749 55.8334 169.473C56.0977 169.369 56.1782 169.082 56.1207 168.818L55.8679 167.76C55.9138 167.439 55.9138 167.243 55.8679 167.025L55.707 166.186L55.8219 165.657C55.7529 165.485 55.615 165.14 55.6265 164.991L55.707 164.014L55.8564 162.577L55.9713 161.324C55.9943 161.118 55.9368 160.681 56.0517 160.52C56.7413 159.612 55.3967 159.394 55.7414 158.693L56.1552 157.854L55.9943 156.67L55.9713 155.475L56.0517 154.521C56.0977 154.004 57.27 154.233 57.3734 152.843C57.4079 152.44 57.3734 152.211 57.0976 151.843L57.1895 151.073C57.2125 150.912 56.9252 150.602 56.8563 150.452L56.4885 149.602L57.0516 148.958C57.1436 148.843 56.8792 148.464 56.7298 148.326L57.1666 147.384C57.5228 146.613 56.9367 146.602 57.4194 145.706L58.063 144.487L58.4653 143.442C58.5572 143.2 58.4997 142.625 58.5227 142.361C58.5227 142.223 58.7411 141.867 58.7181 141.729L58.4997 140.683L58.2469 139.741C58.2009 139.557 58.2814 139.166 58.3043 138.982L58.3848 137.569C58.3848 137.408 58.4883 137.063 58.5802 136.948C58.6951 136.822 59.0169 136.764 59.2698 136.718L59.1204 135.339C59.0744 134.914 59.0284 134.443 59.0974 134.04L59.3043 132.879C59.3732 132.5 59.3272 132.075 59.3043 131.615C59.2698 130.834 59.7525 129.995 59.7869 129.248L59.8329 128.236L59.7065 126.685L59.1318 125.524C59.3617 125.283 59.8099 124.892 59.9364 124.639L60.4191 123.662C60.4421 123.455 60.4535 122.915 60.3961 122.708L60.0743 121.605C60.0168 121.421 59.9364 121.019 59.9823 120.858L60.2122 120.088L60.465 118.973C60.0972 118.881 59.6835 118.801 59.3617 118.789L58.3388 118.732L57.3389 118.548L55.638 118.307L54.0405 118.203C53.2245 118.146 52.4085 118.548 51.6844 118.904L50.857 119.088C50.5122 119.812 49.8915 120.272 49.0755 120.421L47.0413 120.789C46.0759 120.961 45.03 120.594 44.1221 120.283C43.5589 120.088 43.0877 119.824 42.582 119.548C42.1913 119.329 41.8005 119.111 41.5132 118.766C41.2489 118.444 41.019 118.226 40.6283 118.065C39.9962 117.789 39.9042 116.881 40.0766 116.18L40.3984 114.916L40.5938 114.158L40.973 113.606C41.2374 113.387 41.4902 113.169 41.6511 112.859L42.0879 112.02C42.72 111.709 43.2601 111.158 43.0762 110.342L43.5934 109.974L44.329 109.365V108.687L44.7657 107.584L45.5013 107.423C45.1335 105.952 46.4551 105.515 47.3861 104.917L48.2136 104.389L48.9721 103.975L49.2135 103.55C50.2593 103.664 49.8111 102.504 50.9029 102.228L51.6729 101.446L52.4775 100.676C52.4775 99.6649 52.5234 99.0098 53.3969 98.5041C53.6842 98.3662 53.8681 98.1938 53.9945 97.941L54.3623 97.1595C54.5232 96.8147 55.0174 96.8377 54.9944 96.7113L54.9254 96.3436C54.8909 96.1712 54.9025 95.8379 55.0289 95.7459L55.707 95.2056L56.3506 95.0562C56.5919 94.2632 57.0746 93.5967 57.8791 93.5162L58.7641 92.3784L59.2238 92.1601C59.5111 92.0222 59.7295 91.3786 59.8329 90.9878L60.488 90.8039L60.9133 89.9189L61.3959 89.5512L62.2005 89.034L62.2349 88.6317L62.3154 87.6088C63.2578 87.2411 63.6601 86.7929 64.2922 86.0688C64.9473 85.3218 65.2346 85.5631 65.4644 85.0114L65.8552 84.0806C66.223 83.2071 66.5333 83.6209 67.4183 82.9313C68.4756 82.1038 67.9469 81.7934 68.3147 81.5751C69.2226 81.0579 68.8663 80.5522 69.7743 80.4603L70.0271 79.6098L70.7627 78.9777L71.6476 78.9318C71.7166 78.2767 72.1303 77.8169 72.7509 77.7365C73.1072 76.932 73.8198 75.9551 74.4174 75.8746L75.4173 75.7252L75.6242 75.1045L76.3138 74.1737C77.0033 73.2428 76.0034 72.6911 76.9459 72.2773L77.1412 71.7602L77.6354 71.5418C77.9457 70.7258 78.7158 70.7258 78.9801 69.8869L79.4054 69.5075L79.8306 68.4961C80.1524 67.7376 80.6581 67.3239 81.3706 66.8412C81.635 66.4275 81.8534 65.6229 81.9683 65.0943C82.0717 64.9678 82.3131 64.6231 82.451 64.5541L83.5198 64.0944L84.3243 63.4163C84.5082 63.2554 84.853 63.1865 85.0369 63.2554L86.2551 63.6692L87.4619 64.0829L88.0595 63.3588C88.163 63.2209 88.3583 62.8992 88.5192 62.8302L89.4961 62.4165C90.2317 62.6348 91.289 62.451 92.2774 62.8647C93.0244 63.1635 93.5646 63.4623 94.3576 63.5082L94.9208 64.0714L96.0241 63.083L96.7252 62.4508C97.3803 62.4393 98.1158 62.5314 98.7824 62.6578C99.6903 62.2095 99.9317 62.8417 100.334 62.6808C100.932 62.4394 101.713 62.3474 102.334 62.3359L103.655 62.3014C104.23 62.2899 104.219 61.8762 104.862 62.0371L105.931 62.3014C106.862 62.5313 107.678 63.3244 108.528 63.5888C109.195 63.7956 109.804 63.8531 110.528 64.1174C111.252 64.3817 112.206 63.2554 113.172 63.9795C113.39 64.1404 113.643 64.3012 113.804 64.3357C113.965 64.3702 114.24 64.1174 114.378 63.9565L115.056 63.738C115.585 63.5312 116.068 63.4853 116.642 63.7037C116.941 63.8186 117.252 63.807 117.631 63.7726C118.562 63.6806 118.941 64.2898 119.619 63.8301L120.332 63.3473C121.01 62.8876 121.619 63.7611 122.63 63.5312C122.918 63.4738 123.412 63.2554 123.653 63.3243L125.331 63.8071C126.86 64.2438 127.331 63.899 127.917 63.8301L129.365 63.6577L130.388 63.3358C130.894 63.1749 131.572 63.1979 132.054 63.3588L133.617 63.8646C133.962 63.7382 134.422 63.6001 134.744 63.6116L136.192 63.6692C136.778 63.6921 137.364 63.784 137.939 63.6346C138.375 63.5197 138.651 63.6116 138.973 64.0369L140.582 63.6922C141.203 63.5542 141.559 63.6692 142.145 63.8761L143.501 64.3587C143.743 64.4506 144.34 64.2667 144.593 64.1863L145.742 63.8071L146.662 63.4967C147.041 63.3703 147.616 63.5887 148.053 63.9105C148.294 63.8185 148.754 63.6116 148.983 63.4507C149.593 63.037 150.064 63.4277 150.615 63.6001L152.293 64.1289C152.638 64.2438 152.914 64.0369 153.201 63.7726C153.569 63.4278 154.328 63.5887 154.81 63.6577C155.442 63.7381 155.845 63.8416 156.419 64.1059C156.856 64.3013 157.557 64.1978 158.051 64.2208C158.546 64.2438 158.844 64.2553 159.27 64.0599L160.051 64.2438C161.189 63.6462 162.936 63.2324 163.419 64.0829L164.281 64.2783C164.533 63.9795 164.855 63.7841 165.154 63.8646C166.05 64.1059 166.82 64.0254 167.659 63.7956L168.671 63.5197L169.464 63.3014C169.74 63.0371 169.992 62.991 170.36 63.0715L171.693 63.3473C172.314 63.4737 172.9 63.6462 173.509 63.6577H174.256L176.509 64.0714L177.428 64.3932C177.716 64.4966 178.198 64.6805 178.394 64.8299L179.474 65.6344C179.716 65.8068 180.095 66.1516 180.233 66.393L180.796 67.3928C181.382 67.9905 181.52 68.611 181.21 69.3466C181.957 70.3809 181.566 71.128 182.531 71.7946C182.819 71.99 183.071 72.3232 183.244 72.645C183.416 72.9668 183.635 73.1968 183.841 73.4611L184.841 74.7598L185.784 76.1159C185.887 76.2653 186.175 76.4493 186.439 76.6102C186.991 76.955 186.887 77.6675 187.531 78.2996C188.036 78.7938 188.324 79.3225 188.623 79.9432L189.094 80.9315L190.059 82.0003L191.105 83.391C191.323 83.6784 191.668 83.9312 191.806 84.253L192.737 86.3101C192.829 86.5055 193.231 86.8503 193.266 87.0572C193.358 87.6089 193.645 88.195 193.944 88.6432L194.587 89.5857L196.886 92.9991C197.127 93.2404 197.702 93.6426 197.851 93.9415L198.495 95.3092L199.001 96.2285L199.817 97.7112L200.552 98.9523L201.127 99.8028C201.368 100.159 201.667 100.469 201.793 100.849L202.391 102.55L202.713 103.469C202.862 103.894 203 104.17 203.23 104.527L204.425 106.434C205.023 106.986 205.667 107.641 205.632 108.503C205.747 108.733 206.103 109.147 206.31 109.239L207.54 109.721L208.436 110.238L209.976 111.422L211.068 112.353C211.39 112.617 211.516 113.318 211.608 113.744L211.965 115.295C212.034 115.571 211.999 115.881 211.884 116.215L211.401 117.582C211.333 117.778 210.838 118.031 210.677 118.169C210.31 118.479 210.85 119.364 210.068 119.306L209.815 119.72L208.885 120.364L208.103 120.915C208.011 120.984 207.77 121.03 207.655 121.007L206.816 120.881L205.241 120.72C204.598 120.651 204.058 120.387 203.632 119.881C203.207 119.375 202.058 119.157 201.437 119.513C201.115 119.559 200.575 119.283 200.15 119.076C199.84 118.927 199.208 119.076 198.863 119.065L197.254 118.962H195.852L194.266 119.111L193.105 119.26L191.921 119.053L189.634 119.318L188.979 120.249L188.657 120.708L189.14 121.479C189.22 122.754 188.186 123.352 188.956 124.168L188.588 124.766L189.22 125.352C189.599 125.696 189.427 126.535 189.22 127.03C188.887 127.834 190.048 128.627 188.691 129.524L188.795 130.753C187.703 131.742 189.013 132.201 188.278 133.178C188.036 133.5 188.22 133.948 188.588 134.259L188.048 134.684C187.933 134.776 187.921 135.167 188.025 135.293C188.496 135.856 188.289 136.603 188.071 137.224C188.22 137.603 188.496 138.362 188.14 138.706C187.749 139.086 187.473 139.419 187.611 139.994L187.921 141.269L188.266 142.085L187.841 142.361C187.726 142.43 187.795 142.763 187.795 142.936V143.763C187.784 144.625 187.071 144.729 187.278 145.717C187.393 146.257 186.922 146.361 187.082 146.786L187.427 147.671L187.002 148.533C186.692 148.774 186.519 149.108 186.588 149.498L186.738 150.395C186.761 150.556 186.876 150.877 186.945 151.027C186.864 151.084 186.577 151.395 186.496 151.555C186.278 152.004 186.462 152.383 186.634 152.762C186.738 152.992 186.738 153.486 186.784 153.797C186.818 154.072 186.956 154.636 186.83 154.865C186.198 155.992 186.979 156.566 186.772 156.946C186.657 157.153 186.381 157.612 186.209 157.773C185.634 158.29 185.313 158.773 185.669 159.451C186.014 160.095 184.726 160.554 185.267 161.175L185.6 161.566C185.841 161.853 184.933 162.186 184.887 162.807L184.818 163.807L185.255 164.083C185.324 164.129 185.531 164.382 185.519 164.462L185.324 165.956C185.301 166.163 185.267 166.439 185.324 166.577C185.68 167.485 185.152 167.611 185.083 168.53C185.06 168.772 185.083 169.312 185.221 169.473L185.416 169.703C185.542 169.852 185.094 169.956 185.037 170.392L184.945 171.128C184.876 171.645 184.784 172.323 184.577 172.771C184.359 173.254 184.232 173.599 184.531 174.001C184.692 174.22 184.623 174.231 184.485 174.403L183.6 175.426C183.6 175.426 183.531 175.61 183.497 175.725C184.002 176.219 184.853 176.909 185.439 177.208C185.577 177.277 185.68 177.633 185.646 177.759L185.588 177.978C185.473 178.047 185.313 178.127 185.416 178.07L185.313 179.437C185.29 179.69 185.278 180.299 185.083 180.472L183.198 182.196L181.922 182.897C181.451 183.149 181.118 183.356 180.623 183.471L179.267 183.793L177.21 184.011C176.452 184.092 175.704 184.034 174.9 183.954C174.429 183.908 173.751 184.218 173.314 184.379C172.946 184.31 172.463 184.207 172.13 184.264L170.487 184.529C170.165 184.575 169.625 184.69 169.349 184.644C169.016 184.598 168.671 184.529 168.383 184.54L166.269 184.644L164.326 184.919C163.637 185.023 163.051 184.724 161.752 184.896C161.384 184.942 161.131 184.885 160.798 184.85L158.051 184.621L156.626 184.598L155.213 184.644L153.776 184.724L152.087 184.885L150.363 184.988L148.087 185.034L146.811 184.919L145.076 184.793L143.145 185.149L141.846 185.23H140.559C140.007 185.253 139.295 185.126 138.789 185.218L137.996 185.356C137.295 185.483 136.709 185.448 135.973 185.333C135.698 185.287 135.169 185.563 134.847 185.552L133.02 185.529L130.606 185.586L129.181 185.448L127.135 185.23L124.837 185.379L123.504 185.46L121.194 185.368L118.941 185.195L117.045 184.977C116.757 184.942 116.137 184.977 115.861 185.057L114.585 185.368C113.884 185.092 113.263 185.161 112.516 185.241L111.264 185.368L110.333 185.402L108.425 185.356L106.977 185.184L107.034 185.207ZM152.972 107.055L154.121 107.158L155.293 107.296C155.523 107.319 155.971 107.239 156.052 107.055C156.144 106.825 156.075 106.423 155.983 106.227L155.649 105.492C155.477 105.136 155.351 104.756 155.259 104.366L155.017 103.308L154.81 102.515C154.776 102.377 154.73 102.136 154.695 102.056L154.167 100.757L153.925 99.9752L153.535 99.1938L153.454 98.2283L153.385 97.194L153.408 95.0449C153.408 94.769 153.581 94.2403 153.489 93.9645L153.052 92.6312L152.914 91.9302C152.753 91.7808 152.512 91.551 152.466 91.4131L152.167 90.5281L152.362 89.5742L152.041 88.7351C151.949 88.5053 152.018 88.0342 152.11 87.6779L151.512 86.7469C151.133 86.1492 151.144 85.5057 151.684 85.092L151.156 84.5518L151.018 83.4714L151.133 82.6555C150.328 82.3337 150.156 81.2763 150.524 80.4258C150.776 79.8396 150.409 79.2995 150.903 78.2881L150.282 76.5642C150.546 76.2539 150.65 75.6218 150.42 75.4494L149.914 75.0817C149.834 75.0242 149.914 74.8058 149.995 74.5529C149.616 74.369 149.087 74.1852 148.593 74.1852H147.42L145.582 74.484C144.593 74.0588 143.524 73.3576 142.846 73.9553C141.961 74.7368 140.892 74.1163 140.467 74.2197L138.881 74.5989L137.824 74.7138C137.307 74.7713 137.065 74.7368 136.548 74.5874C136.111 74.461 135.18 74.53 134.675 74.507C134.169 74.484 134.1 73.8404 132.755 74.0588C131.962 74.1852 131.353 73.5645 129.986 73.714L128.825 73.8404C128.63 73.8633 128.584 74.3346 128.698 74.4725C129.181 75.0472 128.974 75.6448 128.423 76.208C127.963 76.6792 128.469 77.2193 128.744 77.5525C129.262 78.1617 128.882 79.0236 128.584 79.5638C129.158 80.0235 128.882 80.7361 129.457 81.5521C129.377 81.7474 129.296 82.0808 129.25 82.3106L129.043 83.414C128.997 83.6669 129.009 84.1725 129.02 84.5173C129.02 84.7472 128.802 85.2183 128.756 85.4827C128.721 85.6896 128.871 86.1953 128.756 86.3792C128.595 86.655 128.4 87.1147 128.48 87.4136L128.744 88.4019L128.296 89.1834C128.538 89.6086 128.595 89.873 128.595 90.2868V91.0912C129.445 92.0107 128.561 92.6198 129.434 93.091C130.009 93.4013 129.733 94.0795 129.48 94.4587L128.997 95.1828L129.273 95.6654L128.733 95.9642C128.652 96.1021 128.767 96.5159 128.917 96.7343L128.882 97.5272C128.388 98.2743 129.296 98.6306 128.825 99.4121V100.791L128.744 102.228L128.779 102.734C128.227 103.527 129.262 103.998 128.595 104.825C128.342 105.136 128.377 105.825 128.767 105.94L129.618 106.17C129.974 106.273 130.445 106.4 130.802 106.411C131.009 106.411 131.468 106.319 131.675 106.377C132.549 106.664 133.56 106.653 134.548 106.526C134.985 106.469 135.79 106.722 136.169 106.607C137.019 106.331 137.479 106.549 138.18 107.009C139.146 107.319 139.72 106.618 140.605 106.791C141.203 106.906 141.639 106.894 142.26 106.848C143.226 106.768 143.743 107.584 144.789 107.377L146.961 106.952C147.133 106.779 147.386 106.503 147.581 106.457C147.742 106.423 148.144 106.561 148.305 106.664C149.018 107.089 149.685 106.722 150.696 107.285C151.029 107.365 151.753 107.354 152.087 107.262C152.385 107.135 152.742 107.043 153.029 107.066L152.972 107.055ZM98.1273 107.043C99.2651 107.538 100.15 106.676 101.253 107.285L102.196 107.089C102.736 107.181 102.931 106.986 103.391 106.745L104.219 106.308C104.575 106.124 104.885 106.032 105.276 106.113L106.873 106.411L107.804 106.882C108.253 107.112 109.011 106.986 109.39 106.699C109.655 106.492 109.908 106.377 110.16 106.331L110.838 106.227C112.08 106.032 112.045 106.791 112.838 106.572C113.114 106.492 113.62 106.411 113.815 106.538L114.62 107.078H115.608L116.907 107.101C117.734 107.101 118.573 106.871 119.527 106.722C119.504 106.526 119.447 106.055 119.366 105.848L119.033 105.078C119.159 104.986 119.389 104.814 119.378 104.825C119.378 104.411 119.412 104.343 119.527 103.998C119.791 103.216 119.7 102.331 119.596 101.515L120.067 100.469L120.355 98.872L120.516 97.8376C120.55 97.6077 120.056 97.1709 120.021 96.9411L119.895 95.9412C119.837 95.3206 119.688 94.7344 119.504 94.1943C119.608 93.746 119.55 93.3324 119.355 92.8957C119.056 92.2176 120.113 91.7118 120.09 91.6084L119.998 91.2291C119.918 90.9188 119.872 90.5052 119.883 90.1604L119.906 89.1145L119.964 88.2525C120.01 87.5974 119.768 87.0113 119.32 86.5171C119.366 86.4251 119.516 86.1149 119.539 85.9884L119.734 85.0344C119.837 84.5402 119.791 84.1266 119.665 83.6784C119.745 83.2991 120.125 82.5176 120.033 82.1153L119.803 81.1843L119.573 80.1385L118.964 78.9548L119.355 78.2422L119.654 77.9204L119.803 76.5872C119.849 76.1619 120.033 75.7482 120.24 75.346L119.895 74.1852L119.677 73.9324C119.09 74.5415 118.504 74.6448 117.78 74.4035C117.378 74.2656 116.895 74.2886 116.447 74.2656L114.838 74.1852H113.539C112.792 74.1852 112.976 74.8287 111.712 74.5299C111.528 74.4839 111.068 74.6793 110.873 74.6563L108.425 74.392C108.046 74.3575 107.758 74.5759 107.574 74.8863L106.701 76.4263L106.149 77.4491C106.046 77.6445 105.931 77.9089 105.954 78.0813L106.057 78.9318L105.276 79.1271L104.805 80.851C104.586 80.8625 104.276 80.874 104.23 80.9774L104.035 81.4372C103.816 81.9314 103.69 82.3796 103.724 82.9428C103.77 83.6094 103.092 83.5404 103.299 84.0576C103.449 84.4483 103.299 84.8505 102.931 85.0229C102.334 85.2873 103.242 85.7929 102.621 86.7239C102.184 87.3905 102.724 87.7239 102.23 87.9882C102.046 88.0916 101.759 88.2984 101.69 88.4478L101.115 89.5397C101.506 90.4132 100.633 90.4131 100.805 91.0797L101.173 92.5394C101.299 93.068 100.276 93.5622 100.288 93.8035L100.322 94.3323C99.1846 94.5277 100.127 95.6195 98.8513 95.8953L98.7824 97.6308C98.7824 97.8376 98.3342 98.1824 98.2308 98.3548L97.3918 99.8028C97.2424 100.056 97.3343 100.791 97.1734 101.033L96.6218 101.86L96.0701 103.182L95.6563 103.596L95.8172 104.159L95.346 105.136C95.2196 105.4 95.1392 105.63 94.9208 105.883C94.7599 106.055 94.7024 106.687 94.9438 106.733C96.0356 106.905 96.2999 106.262 97.0815 106.607L98.1043 107.043H98.1273ZM65.8552 108.273C65.8207 108.422 65.8897 108.377 66.0046 108.342L66.5908 108.204L66.2804 108.56H66.5103L66.7516 108.583V108.262L67.4183 108.411C67.4757 108.561 67.5217 108.549 67.5676 108.446H67.6366L67.717 108.4L68.2227 108.296C68.3262 108.308 68.4526 108.331 68.4526 108.331L68.8434 108.147L68.9928 108.227L69.3606 108.158L69.4295 108.089V107.997L69.8892 108.101L69.5789 107.744C69.5789 107.744 69.8432 107.664 69.9467 107.641L70.5788 107.538L70.0846 107.365L70.6363 107.296C70.7512 107.285 70.7971 107.572 70.8431 107.836H71.9924L73.9807 108.009C75.3369 108.135 75.7506 108.549 76.6011 108.377L77.5895 108.181C78.4974 107.756 79.4283 107.434 80.4627 107.411C81.0718 106.997 81.8418 107.043 82.336 107.63L83.968 107.986C84.2554 108.043 84.7495 107.572 84.9219 107.331L85.692 106.239L86.0253 104.756C86.554 104.538 86.7723 104.262 86.7608 103.71C86.7493 103.078 87.278 103.159 87.1516 102.665C87.0826 102.412 86.9907 101.883 87.1516 101.745C88.3124 100.734 87.2435 99.8259 87.4734 99.5845L87.7952 99.2397C87.9216 98.8604 88.048 98.6421 88.4388 98.4007L88.2319 97.3778C88.1859 97.171 88.2549 96.8952 88.4158 96.7573C88.8295 96.4125 88.9905 96.1252 89.2893 95.7229L89.772 95.0792C89.8869 94.9183 90.0823 94.6885 90.0823 94.5391L90.0593 93.091L90.6914 92.6312L90.7948 91.4361L91.0707 90.3672L91.5763 89.1949C91.6453 89.0225 91.9441 88.7696 92.1395 88.5972C92.3464 88.4248 92.3234 87.8388 92.1855 87.517L92.9555 86.4711L93.0819 85.7585C93.2083 85.5976 93.4612 85.2758 93.5071 85.0805L93.806 83.5633C94.576 83.2415 94.7484 82.5405 94.4036 81.8509L95.0472 81.1728C95.1851 81.0234 95.2081 80.5292 95.2311 80.3224L95.7023 79.4489L95.7828 78.3341C95.8287 77.9204 95.8287 77.5526 95.7828 77.1273C95.8517 77.0584 96.185 76.7251 96.2425 76.5527L96.4838 75.9206L96.8401 74.9436L95.9896 74.9781C95.5299 75.0011 95.1162 75.0011 94.6794 74.8287C93.6911 74.415 93.2773 74.7828 92.3004 74.4725C92.0705 74.4036 91.6798 74.392 91.3925 74.392H90.6454C90.6914 74.4495 90.9098 74.8402 90.8638 74.9896L90.519 76.208C90.1742 76.6907 90.0593 77.2768 90.45 77.794L89.6111 78.4375L89.2663 79.1386L88.7606 79.0812C88.5537 79.0582 88.6112 79.8857 87.9906 80.6212L88.0825 81.1268L87.2205 81.1843C87.0022 81.9314 86.5195 82.8048 85.738 83.0462L84.738 83.345L84.4967 84.184C84.4277 84.4138 84.4622 84.6322 84.5312 85.0805L83.6692 85.2988C83.3934 85.3677 83.0601 85.5287 82.7957 85.6781C82.3015 85.9425 81.9338 86.2528 81.7844 86.8274C81.612 87.5515 80.8994 86.9538 80.1754 87.2296C79.7616 87.379 80.1409 88.4363 80.0949 88.4708L79.7731 88.6547L79.187 89.057C78.7732 89.3443 78.6698 89.8731 78.4514 90.3098L77.5895 91.9992L76.3138 92.2865C75.992 92.367 75.7276 92.6658 75.6357 93.0221L74.9116 93.1485C74.6013 94.6656 73.2566 94.4932 73.2107 95.7459L72.6705 96.6309L71.9465 96.5389L71.5097 96.4928C71.3948 96.4814 71.3143 96.7688 71.2569 96.9182C70.8891 97.2745 70.4179 97.6537 69.9812 97.8836L69.6134 98.0675C69.418 98.1709 69.9467 98.7456 69.464 99.4811C68.3147 99.4122 68.9123 100.389 67.9124 100.711L67.7056 100.78L67.832 100.964L67.7056 101.021L67.6251 100.941L67.062 101.4L66.246 102.193L66.6022 102.159L66.154 102.837C66.154 102.837 66.223 103.09 66.1885 103.113L66.0851 103.205L66.0276 103.262C66.0276 103.262 66.177 103.492 66.131 103.538L65.8092 103.848L65.1541 104.411C65.0967 104.595 64.9358 105.032 64.7519 105.101L64.4646 105.216C64.4646 105.216 64.4646 105.388 64.5105 105.388L64.7519 105.365L64.2692 105.86L64.1887 105.952V106.078L64.2577 106.193C64.2807 106.135 64.2462 106.227 64.2232 106.296L64.0853 106.158L64.0278 106.802H64.3611L64.0968 107.204L64.614 107.802C64.8209 107.745 64.9128 107.745 64.7979 108.101L65.1082 107.882L65.2231 108.273L65.407 108.055L65.8782 108.239L65.8552 108.273ZM182.554 102.033C182.727 101.964 183.106 101.584 183.267 101.619L185.588 102.239L186.784 102.791L187.933 103.354C188.289 103.527 188.646 103.791 188.829 104.124L189.439 105.239L190.151 106.388L190.622 107.365C190.714 107.561 191.22 107.71 191.438 107.779L192.783 108.239L193.024 108.055L192.243 106.814L191.496 105.182C191.369 104.894 190.887 104.63 190.806 104.343C190.599 103.619 190.427 102.86 189.956 102.343C189.485 101.826 189.048 101.354 188.933 100.653L188.714 99.3547C187.761 98.826 187.542 98.0905 186.703 97.4814C186.22 97.1251 185.933 96.6423 185.692 96.0676C185.565 95.7688 185.336 95.493 185.129 95.2056L183.91 93.5047L183.612 92.3784C183.543 92.1141 183.416 91.7923 183.324 91.6429L182.669 90.5971C183.071 89.8616 182.646 89.126 182.152 88.6893C181.98 88.5398 181.83 88.0342 181.692 87.8388L180.417 86.0113L179.899 85.2414L179.405 84.4828L178.601 83.5404C177.75 82.5521 178.084 82.1038 177.348 81.5177C176.612 80.9315 176.957 80.0121 176.589 79.6098L175.567 78.5065L174.774 77.4607C174.475 77.0699 174.291 76.863 174.072 76.4033C173.785 75.8056 173.291 75.185 172.877 74.6908L171.935 74.7713L170.694 75.2081C170.475 75.2885 169.981 75.4264 169.797 75.3345L168.694 74.8402L167.188 74.8978L165.798 74.8517C165.074 74.8288 164.487 74.8747 163.763 74.8287L162.304 74.7253C161.683 74.9437 161.235 74.9897 160.66 74.7944L159.741 74.4955C159.568 74.4381 159.224 74.4609 158.913 74.5299L159.408 75.7712L159.764 77.0929C160.81 77.9664 159.557 78.541 160.097 79.2995L160.764 80.219L160.81 81.0349C161.12 81.5521 161.396 82.2647 161.143 82.8049C160.925 83.2761 160.89 83.6094 161.246 84.0806C161.212 84.253 160.936 84.4943 160.683 84.6667L161.12 85.2988L161.672 86.0228L162.2 86.9308C162.005 87.0802 161.821 87.2411 161.798 87.3675C161.775 87.494 161.959 87.7124 162.143 87.8503C162.292 87.9652 162.292 88.218 162.304 88.4823V89.6201C163.407 90.528 163.108 90.9993 162.672 92.2635C163.028 93.2174 163.166 94.0794 163.177 95.0792L163.786 96.6883L164.223 97.3778L164.694 98.056C164.809 98.2054 165.142 98.6305 165.085 98.8029L164.66 99.9752L165.234 100.596L164.763 100.837L165.28 101.377C165.844 101.975 165.154 103.136 165.855 103.86L166.05 104.584C166.085 104.71 165.981 104.963 165.878 105.136C165.924 106.112 166.855 106.641 167.188 107.779L168.131 107.641C169.062 107.503 169.36 107.951 169.981 107.561C170.429 107.285 170.671 107.423 171.153 107.538C171.636 107.653 172.498 107.675 173.027 107.584C173.935 107.423 174.705 107.561 175.532 107.813L176.302 108.055C177.118 108.308 177.773 108.078 178.325 107.48C178.67 107.112 178.808 107.009 178.785 106.457L178.727 104.975C178.934 104.871 179.244 104.745 179.325 104.618L179.922 103.71C180.6 102.676 180.796 103.205 181.371 102.561L182.612 102.033H182.554ZM65.9242 103.159C65.9127 103.239 65.9242 103.147 65.9472 103.044L65.9242 103.159ZM64.2232 105.193L64.1543 105.262L64.2232 105.331L64.2922 105.262L64.2232 105.193ZM63.798 106.756L63.729 106.825L63.798 106.894L63.8669 106.825L63.798 106.756ZM64.9358 108.319L64.8668 108.388L64.9358 108.457L65.0047 108.388L64.9358 108.319ZM68.0619 108.606L67.9929 108.675L68.0619 108.744L68.1308 108.675L68.0619 108.606ZM67.6366 108.744L67.5676 108.813L67.6366 108.882L67.7056 108.813L67.6366 108.744ZM112.31 176.587L113.677 176.311L114.884 176.139L117.366 175.989L120.148 176.024L121.734 176.185L123.17 176.3C124.377 175.564 124.894 176.035 125.722 175.851C126.285 175.725 126.837 175.633 127.365 175.714C127.894 175.794 128.308 175.783 128.836 175.702L129.974 175.932C130.25 175.989 130.836 176.047 131.101 176.024L132.376 175.909L133.503 175.805L135.502 175.851H136.939L138.353 175.76L141.042 175.656L142.593 175.691L144.271 175.76L146.834 175.484L147.869 175.392L150.179 175.277L151.282 175.346L152.696 175.403L155.27 175.622L156.81 175.587L158.132 175.553L159.224 175.472H160.361L161.499 175.403C162.108 175.277 162.534 175.415 163.177 175.403L165.499 175.346L166.545 175.07L167.625 174.783C167.901 174.714 168.315 174.783 168.682 174.725L170.567 174.392C170.659 174.38 170.9 174.15 170.9 174.07V172.588L171.13 172.116L170.958 170.875C170.935 170.68 170.958 170.209 170.992 170.025L171.234 169.036L171.602 167.519L171.245 167.094L171.268 165.899C171.268 165.703 171.326 165.278 171.257 165.106C171.153 164.876 171.073 164.519 171.096 164.301L171.061 163.635L171.636 163.267L171.36 162.175C171.314 161.991 171.59 161.589 171.659 161.451C171.682 161.095 171.797 160.853 171.9 160.485L172.096 159.819L172.705 159.474C172.268 158.164 173.05 158.106 173.211 157.325L172.647 156.727C172.532 156.601 172.647 156.141 172.647 155.969C172.647 155.842 172.567 155.521 172.647 155.44L173.05 155.049C172.808 154.544 172.544 153.682 172.854 153.245C173.245 152.693 173.509 152.372 173.44 151.624C173.417 151.349 173.532 151.061 173.785 150.82C174.268 150.36 173.728 149.751 173.958 148.625C174.061 148.131 173.325 148.372 173.348 147.671C173.348 147.51 173.348 147.338 173.314 147.269L173.165 146.786C173.096 146.567 174.027 146.43 174.072 145.602L174.624 144.982C174.854 144.729 174.831 143.97 174.934 143.637C175.13 142.959 175.199 142.453 174.866 141.844L175.118 140.626L173.981 138.741L174.348 138.224C174.452 137.948 174.578 137.752 174.843 137.5L174.774 136.845C175.118 135.5 174.429 134.856 174.429 133.833L175.199 132.937L175.819 132.799C175.877 132.546 175.934 132.075 175.9 131.845L175.762 131.064C175.567 129.972 176.049 130.041 176.118 129.098C176.164 128.489 176.153 127.995 175.923 127.409C175.509 126.305 176.601 125.639 175.877 124.995V123.72C176.268 123.202 176.164 122.708 175.911 122.225L175.865 121.191L176.658 120.651L176.75 119.559L176.831 118.433L176.038 118.467C175.544 118.49 175.13 118.49 174.682 118.284C174.233 118.077 173.739 118.111 173.222 118.169L172.395 118.26C171.372 118.364 171.303 119.479 169.843 118.962C169.602 118.87 169.165 118.916 168.878 118.939L167.786 119.019C167.464 119.042 167.004 118.962 166.809 119.122L165.683 120.042C165.43 120.249 165.143 120.364 164.821 120.352L163.671 120.318L162.614 120.019C162.361 119.617 162.12 119.387 161.637 119.237C160.902 119.019 161.062 118.387 160.086 118.364L159.005 118.341L157.419 118.054C157.178 118.008 156.799 118.077 156.5 118.077H155.006C154.293 118.054 153.65 117.939 152.972 118.077C152.489 118.571 151.868 118.628 151.294 118.41C150.512 118.663 149.914 118.513 149.167 118.237L147.754 118.077C147.11 118.008 146.57 117.95 145.938 118.042C144.857 118.214 144.743 117.663 143.789 118.008C142.731 118.398 142.513 118.077 141.789 117.789C141.467 117.663 140.846 117.778 140.502 117.755L139.191 117.686L138.582 117.651C137.893 117.881 137.284 117.87 136.583 117.582C135.801 117.272 135.594 118.008 134.468 117.755C133.261 117.479 132.893 117.939 131.572 117.674L130.124 117.387L128.354 117.467C127.882 117.49 127.25 117.284 126.71 117.111L126.09 117.674C124.86 118.226 124.17 117.41 123.251 117.732L122.32 118.065L121.09 117.835C120.355 118.329 119.803 117.858 118.401 117.904C117.297 117.95 116.665 117.422 115.125 117.594C113.999 117.72 113.321 117.398 112.493 117.617C111.16 118.651 110.574 117.709 109.574 117.709H108.241C108.057 117.72 107.758 117.766 107.529 117.824C106.965 117.95 106.437 117.939 105.862 117.973L104.713 118.031L103.207 117.881C102.839 117.847 102.437 117.72 102.127 117.766L101.173 117.904L99.9892 117.962L98.7709 118.031C98.5181 117.87 98.0124 117.663 97.7136 117.709C97.4837 117.755 97.1389 118.088 96.9091 118.295C96.5643 118.617 96.1505 118.168 95.1161 118.329C94.5645 118.41 93.9899 118.387 93.4497 118.272C91.8407 117.95 90.4845 118.215 89.5766 117.881C88.8296 117.617 88.2089 117.548 87.5423 118.031L86.416 118.226C85.3932 117.904 84.06 117.973 83.4164 118.697C83.0141 119.157 82.2211 118.318 81.2097 118.893C80.6466 119.203 80.1524 119.088 79.6122 118.72L77.9687 118.651L76.9803 118.778L75.4288 118.835L74.291 118.927L73.1647 119.191L72.0844 119.008C71.5327 119.329 71.0615 119.479 70.4868 119.732L70.1765 119.87C70.0846 119.916 70.7512 120.639 70.3834 120.95C70.188 121.122 69.9352 121.432 69.9122 121.639C69.7858 122.524 69.1652 122.432 69.3835 123.11L69.6938 124.041L69.9237 125.984C69.0273 126.328 69.9007 127.099 69.2111 127.949L69.4755 128.512C69.5214 128.616 69.6364 128.868 69.5904 128.903L69.2456 129.179L69.2686 130.374L69.1077 131.834L69.4065 132.408C69.3261 132.753 69.3835 133.086 69.5214 133.385C69.8318 134.052 69.487 134.776 68.9468 135.19L69.1881 136.833L68.648 137.327L68.671 138.718C68.671 139.04 68.694 139.304 68.5216 139.568C68.4296 139.718 68.3032 139.936 68.3951 139.994L68.7169 140.2C68.648 140.315 68.5216 140.649 68.4986 140.833L68.3606 141.878C68.2917 142.43 68.9238 142.281 68.7629 142.832L68.4066 144.062C68.3492 144.246 68.0389 144.602 68.1308 144.752L68.3377 145.165C68.3722 145.234 68.1538 145.441 68.1423 145.522L67.855 146.924C67.7975 147.188 67.832 147.51 67.878 147.82L67.1999 148.383L67.6711 149.176C66.947 149.786 67.901 150.498 67.2344 151.578L67.1079 152.751C67.3723 153.36 67.1884 153.854 66.6942 154.245C66.8321 154.704 67.0275 155.417 66.8666 155.842C66.6482 156.428 66.6367 156.911 66.7747 157.474L66.131 158.589C66.0046 158.807 66.177 159.371 66.3379 159.566C66.0506 160.037 65.9701 160.577 66.3839 161.095L65.8667 161.819L66.5218 162.646C66.0851 162.991 66.4643 163.232 66.5218 164.267L66.6022 165.588L66.6367 166.393L65.7747 167.301C65.5104 167.577 65.6023 168.22 65.7747 168.622L65.3495 169.519C65.1311 169.99 65.7748 169.944 65.5449 170.841C65.2001 172.208 65.7288 172.737 65.5219 173.197C65.43 173.392 65.2116 173.76 65.1886 173.944L65.0392 175.116C64.9703 175.656 64.6944 176.357 64.7519 176.874L64.9128 178.173L65.1541 179.564C65.1771 179.679 65.6253 179.61 65.7173 179.564C66.0621 179.357 66.5563 179.403 66.9585 179.414L68.3377 179.449C68.6595 179.449 68.9928 179.449 69.2916 179.38L70.4983 179.058L71.3028 179.196L72.7165 179.024L73.9117 178.472C74.7622 178.656 75.2219 178.288 76.3367 178.334L77.5895 178.391C78.2905 178.426 78.9571 178.323 79.6582 178.196L81.1408 177.932L83.7037 177.84L85.1173 177.69L86.5424 177.541L87.9676 177.403L89.2663 177.3L91.6453 177.208H92.944L96.0241 177.173C96.5643 177.173 96.9895 177.035 97.5527 177.035H99.0467L101.311 176.805L102.288 176.702L104.299 176.507L105.414 176.438L106.448 176.53L107.839 176.622L109.563 176.851C109.976 176.909 110.413 176.874 110.838 176.817L112.379 176.61L112.31 176.587Z" fill="black"/>
<path d="M68.9702 108.25L68.8208 108.17L68.9817 108.032L68.9702 108.25Z" fill="black"/>
<path d="M64.2236 106.457L64.2925 106.549L64.2236 106.653L64.1201 106.549L64.2236 106.457Z" fill="black"/>
<path d="M66.3616 102.768L66.4313 102.849L66.3616 102.931L66.2686 102.849L66.3616 102.768Z" fill="black"/>
</g>
<defs>
<clipPath id="clip0_137_2340">
<rect width="250" height="250" fill="white"/>
</clipPath>
</defs>
</svg>
