<?xml version="1.0" standalone="no"?>
<!DOCTYPE svg PUBLIC "-//W3C//DTD SVG 20010904//EN"
 "http://www.w3.org/TR/2001/REC-SVG-20010904/DTD/svg10.dtd">
<svg version="1.0" xmlns="http://www.w3.org/2000/svg"
 width="500.000000pt" height="500.000000pt" viewBox="91 50 317 409"
 preserveAspectRatio="xMidYMid meet">
<metadata>
Created by potrace 1.16, written by Peter Selinger 2001-2019
</metadata>
<g transform="translate(0.000000,500.000000) scale(0.100000,-0.100000)"
fill="#000000" stroke="none">
<path d="M2588 4415 c-3 -3 -36 -8 -74 -11 -202 -15 -399 -52 -456 -84 -10 -6
-25 -10 -33 -10 -8 0 -33 -11 -56 -25 -22 -14 -44 -23 -49 -20 -4 3 -10 2 -12
-2 -1 -5 -19 -16 -38 -25 -19 -10 -42 -22 -50 -28 -8 -5 -35 -18 -60 -29 -25
-11 -67 -40 -95 -65 -27 -25 -53 -46 -57 -46 -33 -1 -249 -230 -317 -335 -14
-22 -38 -54 -53 -72 -14 -18 -36 -52 -47 -75 -12 -24 -32 -63 -47 -88 -14 -25
-32 -67 -39 -95 -8 -27 -26 -86 -40 -130 -58 -175 -82 -462 -54 -635 6 -36 12
-83 14 -105 8 -87 16 -138 21 -147 3 -5 8 -24 11 -41 3 -18 9 -36 13 -42 4 -5
10 -25 13 -44 3 -18 10 -38 16 -44 6 -6 11 -19 11 -28 0 -10 5 -30 12 -46 6
-15 10 -33 9 -39 0 -6 6 -17 14 -24 8 -7 15 -21 15 -31 0 -18 40 -109 74 -169
18 -30 64 -119 113 -217 19 -40 42 -73 49 -73 8 0 14 -9 14 -19 0 -11 36 -68
79 -128 149 -202 143 -195 216 -275 17 -18 43 -51 60 -73 16 -22 41 -51 55
-66 14 -14 49 -51 78 -82 29 -31 55 -57 56 -57 2 0 44 -40 94 -90 50 -49 95
-90 99 -90 5 0 14 -9 21 -20 7 -11 17 -20 24 -20 6 0 31 -17 56 -37 77 -63
195 -133 208 -122 7 6 16 4 25 -7 9 -12 22 -14 48 -8 20 3 47 8 61 9 29 2 91
45 166 114 28 27 74 65 100 86 70 53 125 106 154 148 14 20 34 41 45 47 11 6
31 27 45 48 14 20 40 49 57 65 40 35 133 151 133 165 0 6 3 12 8 14 9 4 92
104 92 112 0 3 20 32 45 65 25 32 45 64 45 69 0 6 4 12 8 14 12 5 92 131 92
145 0 6 8 18 18 25 11 7 39 54 63 103 24 50 55 108 69 130 14 22 25 44 25 50
1 11 12 38 45 109 11 25 20 50 20 55 0 6 9 28 21 50 29 57 79 202 79 231 0 14
4 30 8 36 5 5 14 38 21 74 13 67 13 72 26 175 4 33 10 64 13 70 9 15 11 349 2
360 -5 6 -9 46 -11 90 -1 44 -9 93 -16 108 -8 16 -13 41 -12 55 2 15 -1 34 -6
42 -10 15 -20 41 -51 127 -8 23 -38 84 -67 136 -29 51 -60 109 -70 128 -10 19
-31 49 -47 66 -17 18 -30 36 -30 42 0 5 -14 22 -31 38 -17 15 -36 39 -44 53
-7 14 -32 39 -54 55 -23 17 -60 47 -84 67 -23 21 -48 38 -54 38 -7 0 -13 5
-13 10 0 6 -6 10 -14 10 -8 0 -16 6 -19 13 -3 8 -39 31 -81 51 -42 21 -76 41
-76 46 0 5 -17 14 -37 21 -21 6 -43 16 -49 20 -12 10 -175 70 -184 69 -12 -3
-76 12 -85 20 -12 9 -122 29 -193 35 -28 2 -56 6 -61 9 -4 3 -10 3 -13 1z
m103 -400 c52 -8 128 -24 169 -35 72 -20 201 -77 208 -92 2 -5 10 -8 17 -8 7
0 15 -4 17 -8 2 -4 20 -18 41 -31 20 -12 37 -27 37 -32 0 -5 6 -9 13 -9 7 0
22 -8 33 -18 10 -9 31 -23 47 -29 15 -7 27 -17 27 -22 0 -6 20 -30 45 -54 25
-25 45 -49 45 -53 0 -5 16 -27 36 -49 31 -35 53 -68 89 -136 5 -11 13 -19 17
-19 5 0 8 -8 8 -17 0 -10 10 -38 22 -63 25 -52 22 -46 32 -85 4 -16 14 -51 22
-77 8 -25 17 -59 20 -75 3 -15 9 -46 14 -68 12 -51 13 -291 1 -313 -5 -9 -11
-37 -13 -62 -3 -25 -11 -65 -17 -90 -7 -25 -17 -61 -21 -80 -12 -46 -75 -246
-90 -285 -6 -16 -10 -30 -8 -30 2 -1 -4 -12 -13 -25 -9 -14 -22 -43 -29 -65
-19 -59 -157 -323 -195 -375 -19 -25 -34 -51 -34 -57 -1 -7 -5 -13 -11 -13 -5
0 -10 -6 -10 -14 0 -8 -3 -16 -8 -18 -4 -1 -24 -26 -44 -55 -20 -28 -44 -60
-52 -70 -41 -50 -86 -114 -86 -122 0 -5 -4 -11 -8 -13 -4 -1 -21 -21 -37 -43
-50 -68 -93 -114 -269 -287 -93 -93 -174 -168 -180 -168 -6 0 -27 14 -46 30
-19 17 -56 47 -82 67 -27 21 -48 41 -48 45 0 4 -6 8 -13 8 -13 0 -124 105
-208 196 -20 21 -58 59 -83 84 -26 25 -59 60 -74 79 -15 19 -42 52 -60 74 -18
22 -42 57 -52 78 -11 20 -26 39 -35 42 -8 4 -15 11 -15 17 0 6 -5 16 -11 23
-9 11 -31 44 -61 92 -43 69 -64 101 -69 105 -4 3 -15 24 -25 48 -10 23 -22 42
-26 42 -5 0 -8 6 -8 13 0 6 -27 66 -60 133 -33 66 -63 129 -65 140 -2 10 -16
51 -31 89 -14 39 -30 89 -35 113 -5 24 -11 48 -15 53 -5 9 -9 27 -19 104 -2
17 -6 41 -9 55 -18 84 -20 120 -20 260 0 135 4 169 27 260 15 57 37 125 48
150 48 105 102 206 125 233 13 16 24 32 24 36 0 5 12 22 28 38 15 17 54 61 86
97 33 36 65 66 70 66 6 0 28 17 48 38 20 21 49 44 65 52 15 8 46 27 68 41 37
25 94 53 188 94 57 25 197 64 253 70 27 4 51 8 53 11 10 9 164 3 252 -11z"/>
<path d="M2365 3656 c-155 -38 -259 -98 -382 -217 -57 -55 -123 -137 -123
-153 0 -3 -13 -33 -29 -68 -47 -102 -66 -202 -65 -340 1 -91 21 -225 36 -234
4 -3 8 -14 8 -25 0 -10 4 -27 9 -37 60 -123 78 -154 104 -183 16 -19 37 -43
46 -54 25 -31 131 -120 178 -149 121 -75 263 -107 441 -101 106 4 128 8 170
30 26 14 50 25 55 25 25 0 216 136 260 185 10 11 31 34 46 50 35 39 75 107 96
165 10 25 23 59 31 77 28 62 38 140 38 283 0 134 -2 151 -28 225 -16 44 -36
91 -45 105 -9 14 -29 51 -46 84 -27 52 -107 146 -160 186 -52 40 -114 79 -150
94 -22 10 -47 22 -56 26 -9 5 -56 18 -104 29 -111 27 -214 26 -330 -3z m301
-222 c89 -29 151 -69 230 -149 103 -103 154 -242 150 -408 -2 -82 -6 -103 -44
-197 -37 -93 -50 -113 -110 -175 -38 -38 -75 -74 -83 -80 -9 -5 -37 -24 -64
-42 -77 -52 -252 -82 -329 -58 -22 7 -65 21 -95 30 -69 21 -121 56 -190 128
-59 62 -130 177 -131 214 0 12 -4 24 -8 27 -25 15 -22 250 4 341 16 52 71 150
119 207 80 98 224 177 340 188 88 8 122 4 211 -26z"/>
</g>
</svg>
