<svg width="250" height="250" viewBox="0 0 250 250" fill="none" xmlns="http://www.w3.org/2000/svg">
<g clip-path="url(#clip0_137_2440)">
<path d="M89.5538 93.5836L89.4795 93.6637L89.5598 93.7381L89.6341 93.6581L89.5538 93.5836Z" fill="black"/>
<path d="M143.183 147.497C143.159 147.607 143.183 147.473 143.208 147.351L143.366 147.595L144.156 147.668L147.013 147.947L148.898 148.239C149.226 148.288 149.822 148.579 150.138 148.543C150.928 148.482 151.5 148.555 152.168 148.786L153.044 148.847C153.554 148.883 154.005 149.017 154.491 149.224L155.366 149.431L156.521 149.905L158.09 150.452L158.929 150.732L161.117 151.291L162.613 151.643L163.695 151.972C164.218 152.13 164.692 152.13 165.118 152.409C165.786 152.847 166.406 153.042 167.233 153.2L168.254 154.087L169.081 154.78L169.884 155.486C170.248 155.814 170.589 156.069 171.087 156.239C171.914 156.543 171.975 157.905 172.923 158.744L173.398 159.17C174.164 159.85 173.969 160.3 174.625 160.471C174.966 160.556 175.367 160.884 175.379 161.188L175.428 162.854C175.732 163.024 176.364 163.437 176.401 163.753L176.595 165.273C176.632 165.553 176.729 165.881 176.838 166.1L177.799 168.131C177.921 168.386 178.468 168.836 178.383 169.127L178.018 170.355C177.872 170.866 177.495 171.559 178.139 172.021C178.358 172.179 178.602 172.544 178.516 172.799L178.103 174.015L178.383 175.183C178.759 175.414 179.112 175.948 178.966 176.301C178.614 176.411 178.018 176.654 177.957 176.946L177.641 178.465C177.507 179.085 176.972 179.389 176.279 179.389L176.486 180.228L176.705 181.165L175.732 181.785C175.659 182.368 175.537 183.001 175.282 183.487C175.027 183.973 174.042 183.694 173.325 184.642L172.632 185.566C172.048 186.332 170.82 185.773 170.102 187.475C169.786 188.217 168.947 187.73 168.279 188.314L167.61 188.885C167.416 189.055 167.16 189.238 166.917 189.372L165.324 190.186L164.011 190.867C163.634 191.062 162.905 191.086 162.382 191.171L161.519 192.217C161.361 192.399 160.765 192.399 160.546 192.472L158.296 193.335C157.725 193.554 157.373 193.566 156.959 194.016C156.546 194.466 155.804 194.624 155.208 194.807L152.825 195.524L151.342 195.974H150.636C150.296 195.95 149.591 196.314 149.287 196.509C148.813 196.813 148.472 196.934 147.949 197.032L146.843 197.238C145.7 197.445 145.129 198.041 144.18 198.126L142.211 198.308L139.913 198.697L138.442 198.977C137.797 199.099 137.274 199.099 136.703 199.427C136.338 199.634 135.912 199.682 135.45 199.646C134.332 199.548 133.773 200.096 132.642 200.01C132.192 199.974 132.034 200.023 131.596 200.168C131.025 200.351 130.234 200.29 129.578 200.375L127.328 200.655H125.383L123.608 200.509L122.222 200.837L120.276 201.008L118.793 201.08L117.115 200.983L115.486 200.606L113.322 200.339L111.729 200.242L110.416 199.974C109.577 200.035 109.175 199.852 108.677 199.232L106.999 198.564C106.562 198.393 105.844 198.162 105.419 198.114L103.887 197.919L102.61 197.579L101.516 197.238L100.13 196.63L98.8895 196.314L97.0901 195.743L95.7768 195.208L94.4758 194.721L92.7128 194.199C92.1778 194.041 91.1566 194.053 90.6581 193.749C90.2325 193.493 89.7946 193.907 89.2232 193.335C88.4207 192.521 87.4603 191.974 86.3295 191.852C85.7946 191.791 85.6487 191.524 85.4298 191.037L83.8613 190.125L82.1105 188.837L80.5299 187.84L79.3992 187.025C78.6818 186.502 78.6209 185.797 78.3047 185.286L77.3201 184.46L76.5905 184.168L75.472 182.855C75.3747 182.599 75.1436 182.028 75.1072 181.76L74.9611 180.35C74.9003 179.766 74.4626 178.879 74.0249 178.271C73.6358 177.736 73.575 177.006 73.4169 176.338L73.1982 175.401L72.505 173.626C72.4078 173.383 72.1889 172.86 72.2011 172.629L72.2254 172.058C72.0552 171.584 71.9458 171.17 71.958 170.623C71.958 169.906 71.3866 169.893 71.4596 169.468L71.6418 168.41C71.7512 167.778 72.578 167.158 71.9336 166.538L72.0675 165.395L73.5508 164.629L73.259 163.048L74.0492 162.148L75.2167 161.054L75.4355 160.398L76.0312 159.923L77.0283 159.218C77.2958 159.024 77.5633 158.549 77.5997 158.197C77.6484 157.759 78.0496 157.796 78.1711 157.03L79.083 156.92L80.4933 156.288L81.32 156.191C81.7213 155.68 82.1592 154.926 82.7671 154.683L84.384 154.051C85.0041 153.808 85.4663 153.722 85.6973 153.029L86.4026 152.409C87.5212 151.412 87.8007 152.264 88.6761 152.081L89.965 151.814L91.4605 151.497L91.6671 150.829L92.7007 150.877L93.9774 150.695C94.5367 150.792 95.3027 150.938 95.8012 150.695C96.5672 150.306 96.7615 149.187 97.7464 149.613C98.1598 149.795 98.6706 149.771 99.157 149.686C99.3758 149.637 99.7162 149.735 99.9837 149.771L102.026 150.014C102.476 150.063 102.817 149.929 103.06 149.528L103.874 149.431C105.552 149.054 106.306 149.674 106.865 149.71C107.522 149.759 108.057 149.905 108.556 150.16L108.446 151.473L108.312 151.607C108.312 151.607 108.373 151.68 108.458 151.801L108.41 152.884L108.312 153.832L108.191 154.245L108.069 155.522L107.96 156.592L108.033 156.677L107.984 156.859L107.862 156.689L107.826 157.346L107.899 157.48C107.899 157.48 107.814 157.504 107.777 157.528L107.717 157.48L107.169 157.565C106.732 157.638 106.343 157.942 105.856 158.051L104.166 158.452C103.497 158.61 102.926 158.829 102.245 158.793L100.543 158.683C100.19 158.659 99.5461 158.805 99.1935 158.902L97.7707 159.328C97.6491 159.413 97.2965 159.765 97.1263 159.826L96.1295 160.155L94.8406 161.443L93.9287 161.565L92.8951 162.076L91.497 162.72C90.9985 162.951 90.342 162.489 90.0502 163.401C89.9164 163.814 89.6732 164.118 89.3814 164.374L88.6517 165.042C88.3478 165.03 87.6183 165.164 87.4602 165.431L86.8036 166.599L85.4785 167.316L85.0528 169.03L84.3962 169.444L84.2991 170.83V172.191L84.2261 172.763C84.2261 172.812 85.9038 173.322 85.2594 175.304L85.9526 176.131L86.0986 176.824L86.8279 177.225C87.0468 177.347 87.1078 177.991 87.0348 178.259C86.9011 178.794 87.1319 179.158 87.7033 179.377C88.0316 179.499 88.214 180.241 88.3478 180.642C88.6153 181.469 89.8677 181.274 90.2933 181.772C90.7188 182.271 91.0958 182.77 91.5822 183.061C91.9226 183.268 92.3479 183.475 92.5668 183.73C93.5152 184.849 93.6854 184.411 94.9863 184.982C95.3025 185.116 96.0078 185.092 96.3604 185.25L97.4424 185.761L98.4638 185.846C98.8408 186.235 99.473 186.843 99.9837 186.904C100.628 186.976 101.017 187.062 101.564 187.207L104.227 187.876L105.443 188.119L105.99 188.083L107.303 188.849C107.522 188.97 108.094 189.104 108.349 189.153L109.82 189.481L110.926 189.797C111.388 189.931 112.264 189.688 112.702 189.797L114.464 190.284L115.814 190.587L116.823 190.661L118.513 191.11L119.802 191.256H120.775L122.283 191.317L124.787 191.585H126.647L127.669 191.366L129.663 191.183C130.186 191.135 130.806 190.855 131.292 190.673C131.547 190.685 132.01 190.697 132.241 190.661L133.712 190.417L135.122 190.247C135.718 190.174 136.216 190.04 136.727 189.7L137.651 189.42C138.223 189.153 138.721 189.007 139.317 188.946L141.238 188.752L142.405 188.618C142.514 188.606 142.709 188.35 142.794 188.217L143.025 188.472L144.46 187.949L146.223 187.195C146.551 187.049 146.904 186.733 147.135 186.441C147.536 186.04 148.278 186.624 149.226 185.554L150.028 185.457C150.405 185.104 150.782 184.982 151.281 184.861L152.229 184.642L153.202 184.362C153.445 184.289 153.737 183.815 153.907 183.621C154.138 183.377 154.248 183.183 154.418 182.806C154.527 182.538 155.159 182.539 155.5 182.478L157.47 182.101C158.029 181.991 158.771 181.967 159.184 181.772C159.318 181.055 159.549 180.788 159.95 180.313C160.826 179.292 161.044 179.961 161.75 179.134L162.552 178.21L163.659 178.125C164.072 176.739 164.887 176.508 164.838 175.924C164.777 175.28 164.862 174.903 165.202 174.429L165.045 173.578V172.921L164.996 171.802L164.947 170.781L164.911 169.735C164.911 169.431 164.388 168.969 164.23 168.678C164.133 168.507 164.035 168.058 163.987 167.851L163.804 166.939L163.209 165.954L162.771 164.969L161.944 163.997C161.494 163.462 162.09 163.036 160.631 162.477C160.218 162.319 159.841 161.966 159.512 161.674L158.795 161.018C158.224 160.507 157.579 160.13 156.789 160.045C156.011 159.291 155.099 159.024 154.004 159.121C153.396 159.182 152.643 158.951 152.023 158.817L150.758 158.537C149.542 158.258 148.363 158.695 146.88 158.379L145.372 158.063C145.117 158.015 144.667 157.881 144.46 157.771C143.232 157.103 142.344 157.346 142.49 156.872L142.636 156.397L142.49 156.154C142.49 156.154 142.636 155.972 142.636 155.923V154.78L142.77 154.489C142.794 154.44 142.661 154.306 142.673 154.245L142.733 153.954L142.697 153.674L142.867 151.911L142.928 151.181L142.952 150.197L143.098 149.966L142.965 149.698L142.989 148.798L143.183 147.972L143.281 147.558L143.232 147.449L143.183 147.497ZM142.892 153.71L142.819 153.783L142.892 153.856L142.965 153.783L142.892 153.71Z" fill="black"/>
<path d="M157.883 58.4231C157.507 58.4596 157.519 58.5204 157.883 58.5812L158.455 59.262C158.528 59.335 158.698 59.5173 158.795 59.566L159.987 60.3076C160.169 60.4171 160.4 60.794 160.534 60.9886L160.923 61.5722C161.069 61.7789 161.117 62.2409 161.081 62.4597L161.373 62.3747C161.373 62.3747 161.397 62.4233 161.373 62.4719L161.336 62.6421V62.8124L161.871 63.5662C161.871 63.6148 161.798 63.7486 161.956 63.6999L162.224 64.1498C162.37 64.3079 162.747 64.6483 162.844 64.8671L163.318 65.9614L163.549 66.6424L163.817 67.4934L164.011 67.9311L164.255 68.3931C164.704 68.8673 164.984 69.4145 165.179 70.0954L165.847 71.3599C165.932 71.518 166.03 71.8948 166.054 72.0286C166.09 72.0286 166.224 72.0772 166.224 72.0651C166.224 72.0651 166.163 72.2961 166.188 72.3325L166.722 73.4268C167.014 74.0226 166.905 74.8373 166.832 75.4696L167.002 76.3449L166.978 77.3297V78.6186L167.16 79.8466L167.294 80.8557V82.8498L167.246 84.941L167.452 85.3058L167.136 87.0324L166.99 87.8591V88.4427L166.783 89.0507C166.37 89.4397 166.443 89.8654 166.662 90.3761C166.662 90.8381 166.248 91.5068 165.969 91.9081L165.726 92.4551L165.069 93.7197L164.875 94.1695L164.327 95.3124L164.06 95.8838C163.975 95.9932 163.902 96.0906 163.975 96.0055L163.671 96.5769L162.564 98.3277L162.662 98.4736L162.576 98.5466L162.503 98.4494L161.847 100.151L161.191 101.598L161.13 101.72C161.105 102.352 161.008 102.96 160.643 103.519L160.035 104.456C159.245 104.833 158.698 105.246 158.066 105.83L157.263 106.353L156.193 107.593L155.318 108.176L153.98 109.441C153.761 109.647 153.202 109.818 152.898 109.964L150.965 110.9L149.129 112.091L148.375 112.797C147.196 112.772 146.941 113.526 146.211 113.745C145.421 113.988 144.861 114.231 144.156 114.62L142.855 114.973L140.63 115.508L139.098 115.715L138.405 115.921L137.335 116.347C136.362 116.724 135.438 116.821 134.295 117.04C134.429 117.514 134.6 117.757 135.086 118.304C134.466 118.997 133.894 118.718 133.858 119.338L133.821 120.25C133.809 120.627 133.907 120.87 134.174 121.089L134.94 121.697C134.089 122.742 134.101 123.399 134.903 124.457L134.077 125.514L134.733 126.159V127.727L134.21 128.445C134.308 128.724 134.587 129.174 134.83 129.502C134.855 130.22 133.736 130.098 134.04 131.168C134.32 132.141 133.602 133.065 133.7 133.746L133.906 135.144C133.736 135.278 133.42 135.582 133.408 135.752L133.274 137.211C133.384 138.086 133.372 138.901 133.274 139.777V140.725C133.274 141.321 134.429 142.074 134.138 142.233L133.748 142.439L133.274 144.348L133.043 145.284L133.396 145.856C133.153 146.087 132.922 146.294 132.934 146.476C132.946 146.658 133.092 147.011 133.177 147.157L133.396 147.509C133.444 147.582 133.25 147.777 133.153 147.898C133.043 148.032 133.165 148.336 133.359 148.592C133.384 149.552 132.691 149.856 132.751 150.209C132.776 150.33 132.922 150.5 133.055 150.634C133.371 150.987 133.25 151.461 132.897 151.777C132.375 152.239 132.216 153.029 132.374 153.71L132.934 154.403C133.408 154.987 132.289 155.656 133.043 156.191C133.627 156.616 132.314 157.577 132.873 158.744L133.384 159.814C132.995 160.081 132.715 160.373 132.678 160.653L132.569 161.48L132.411 162.756L132.69 163.559L132.545 164.082C132.496 164.24 132.156 164.386 131.925 164.483L132.302 165.37C132.399 165.614 132.496 166.234 132.46 166.489L132.107 167.644L131.779 168.714C131.839 168.823 132.046 169.152 132.046 169.261L132.107 170.283L131.985 170.915C132.083 171.182 132.18 171.231 132.253 170.866L132.472 171L132.07 171.827C131.742 172.508 131.438 173.261 131.779 173.991L132.095 174.672L131.925 174.879L130.672 174.927L129.639 174.964L126.83 175.024H126.003L125.14 175L124.338 175.097L123.207 175.158L122.076 175.183L120.483 175.328L119.754 175.377L118.769 175.474C118.295 174.903 118.112 174.04 118.501 173.407C119 172.605 117.772 172.544 118.064 171.717L118.404 170.745C118.538 170.368 118.623 169.687 118.538 169.31L118.283 168.252C118.234 168.045 118.283 167.535 118.477 167.389C118.976 166.988 118.878 166.124 118.526 165.76C118.416 165.65 118.356 165.285 118.368 165.164L118.404 164.349C118.416 164.009 118.514 163.486 118.623 163.17C119.134 162.61 118.416 162.355 118.574 161.504L118.854 159.899C118.951 159.303 118.976 158.793 118.83 158.197L118.574 157.224C118.489 156.896 118.039 156.312 118.124 155.996C118.55 154.525 117.76 154.233 118.416 153.528C118.307 152.592 118.915 151.546 118.562 150.804C118.295 150.221 118.295 149.807 118.611 149.321C118.04 148.543 118.684 148.044 118.416 147.266L118.939 146.853C119.061 146.756 119.061 146.427 119.097 146.184L119.28 144.907C119.316 144.689 119.34 144.214 119.304 143.996L119.024 142.743C118.927 142.293 118.988 141.88 119.134 141.442L119.632 139.947C119.498 139.752 119.158 139.327 119.158 139.096V138.062L119.389 137.187C119.243 136.725 119.231 136.238 119.426 135.849L119.79 135.108C119.207 134.293 119.182 133.199 119.96 132.749L119.608 131.788L119.268 130.864C119.45 130.402 119.547 129.977 119.596 129.527C120.362 129.089 120.508 128.287 120.228 127.46C120.07 126.998 119.96 126.584 119.669 126.195C119.498 125.976 119.304 125.636 119.243 125.466L119.669 124.432C119.754 124.274 120.216 123.946 120.179 123.715L119.863 121.976L120.228 121.125C120.264 121.052 120.483 120.858 120.544 120.785C120.714 120.578 120.605 119.934 120.423 119.739C120.082 119.399 119.985 119.046 120.094 118.633L120.41 117.393L119.705 116.687L119.219 116.347C118.866 116.323 118.635 116.274 118.246 116.152C118.003 116.079 117.504 116.067 117.237 116.067L117.115 116.14L116.179 116.213C116.131 116.055 116.118 115.994 116.082 115.982L115.036 115.909C114.526 115.873 114.246 115.435 113.869 115.35L112.519 115.058L111.304 114.888C110.769 114.815 110.063 114.341 109.504 114.134L107.17 113.259L105.674 112.699C105.163 112.505 104.482 112.505 104.118 112.128L103.51 111.496L102.075 110.426L101.224 109.745L100.166 109.052L98.2209 107.799L96.8468 107.021L96.3363 106.754C95.777 106.462 95.5095 105.963 95.1082 105.441L94.4516 104.589C94.0018 104.018 94.2814 103.58 93.8559 102.668L93.4548 101.805L92.713 101.416L92.3239 100.577L92.2752 100.419L92.0929 99.5922L91.9469 99.5436C91.9469 99.5436 91.9228 99.3369 91.9228 99.3126L91.4728 97.805L91.1689 97.1849L90.7554 96.3337L90.403 95.6042C90.4881 95.5191 90.5124 95.4826 90.403 95.4583L90.1961 94.4857C90.1596 94.3276 89.8802 94.0114 89.7951 93.9141L89.6855 93.4399C89.6369 93.2332 89.5396 92.7956 89.6247 92.601C89.8922 91.9809 89.9408 91.446 89.9286 90.8259L90.0017 89.8653V88.8441L89.9286 88.1266L89.6855 86.1205L89.5517 85.2086L89.5151 84.7466L89.2599 83.713L89.1141 82.8741L89.0289 82.1203L88.9316 80.9409L88.8345 79.6764C88.7737 78.8739 88.7373 78.0957 88.8832 77.3297C89.0048 76.6367 88.6033 76.4787 89.2842 75.7492C89.1991 75.6033 89.1264 75.2385 89.1993 75.0804L89.4546 74.509C89.0412 73.9983 89.6733 73.5727 89.6125 72.5149L89.8191 72.2475L89.7464 72.1259C89.7342 72.2232 89.7464 72.1138 89.7707 71.9922L89.9043 72.1259C89.8678 71.6031 90.038 71.0194 90.427 70.6546L90.5001 70.5331L90.9136 69.4388C91.1081 69.0011 91.6794 68.4661 91.9956 68.1014L92.1051 67.992L93.5397 66.545L94.4881 65.463L94.2815 65.1954L95.1813 64.1376C95.6433 63.6026 96.1296 63.0312 96.6281 62.5935L97.2117 62.0829L97.9291 61.0251L98.5371 60.2713L98.9989 59.639L99.9474 58.3379C100.203 57.9853 100.798 57.6571 101.175 57.3532L102.112 56.6237C102.865 56.0279 103.425 55.5537 104.568 55.4322C105.711 55.3106 106.598 53.9608 107.218 53.4745L107.802 53.0124C108.507 53.1827 108.811 52.7573 110.051 52.8545C110.331 52.8788 110.805 52.587 111.073 52.3925L111.997 51.7481C112.556 51.9669 112.787 51.6994 113.249 51.5535C114.525 51.1279 115.51 51.2982 116.313 51.0064L117.59 50.5565C118.015 50.3985 118.635 50.0216 119.109 49.9608L120.082 49.8391C120.727 49.1339 121.736 48.5381 122.708 48.8056C123.401 49.0001 123.985 49.1826 124.715 48.903L125.237 49.2069L127.584 49.6568C128.034 49.7419 128.484 49.4743 128.654 49.0974L129.225 48.7327C130.077 47.8816 130.453 49.2798 131.998 48.7813C132.824 48.5138 133.153 49.2919 133.846 49.0731L135.049 48.6962L136.35 48.453C136.788 48.842 137.104 48.9393 137.615 49.0609L139.062 49.4014L140.144 49.8027L141.943 50.4592L143.475 51.1401C143.925 51.3347 144.326 51.3833 144.849 51.3104L145.956 51.8331C146.466 52.0763 147.013 52.3802 147.585 52.4045C148.801 52.4653 149.773 52.9274 150.649 53.7299C151.038 53.8515 151.585 54.0217 151.901 54.2648C152.521 54.7269 153.081 54.8729 153.835 54.9701C154.588 55.0674 155.196 55.8455 155.585 56.4534C155.914 56.6115 156.363 56.8547 156.57 57.0735L157.178 57.7058L157.385 57.8639L157.944 58.3623L157.883 58.4231Z" fill="black"/>
<path d="M161.956 63.6633L161.871 63.5296C161.871 63.5296 161.968 63.6876 161.956 63.6633Z" fill="black"/>
</g>
<defs>
<clipPath id="clip0_137_2440">
<rect width="250" height="250" fill="white"/>
</clipPath>
</defs>
</svg>
