<svg width="250" height="250" viewBox="0 0 250 250" fill="none" xmlns="http://www.w3.org/2000/svg">
<g clip-path="url(#clip0_137_2533)">
<path d="M122.159 167.47L122.02 167.43C122.02 167.43 122.119 167.46 122.159 167.47Z" fill="black"/>
<path d="M129.159 167.58C129.199 167.74 129.219 167.71 129.289 167.56H129.419H129.549H129.999L131.189 167.51C131.329 167.51 131.729 167.75 131.769 167.77C131.679 167.97 131.579 168.17 131.589 168.29L131.699 169.28C131.789 170.1 131.859 170.79 131.549 171.55L131.839 172.07C131.729 172.35 131.539 172.84 131.529 173.13L131.489 175.1C131.489 175.27 131.369 175.66 131.449 175.81C131.919 176.75 131.309 177.12 131.599 177.99C131.149 179.1 131.459 180.23 131.289 180.25L131.029 180.28L129.369 180.31L127.439 180.34L126.709 180.36L125.329 180.4L122.949 180.3L120.959 180.26C120.349 180.25 119.759 180.37 119.189 180.53L118.949 179.95L118.989 179.08C119.029 178.26 119.439 177.65 119.379 176.83L119.329 176.1L119.369 175.48L118.989 174.37L119.059 173.4L119.109 172.79C119.049 172.26 119.219 171.94 119.439 171.44C119.619 171.03 119.589 170.09 119.469 169.65C119.359 169.24 119.299 169.14 119.489 168.77L119.289 168.3L119.519 168.01L119.419 167.92L119.509 167.87L119.589 167.94L119.779 167.79H119.909L120.609 167.61V167.86L120.889 167.66H121.019L121.429 167.5L121.609 167.65L122.019 167.4C121.979 167.51 122.089 167.47 122.159 167.44H123.139L124.939 167.61L125.509 167.66L125.899 167.7C125.959 167.71 126.079 167.73 126.079 167.73C126.079 167.73 126.179 167.64 126.279 167.54C126.279 167.56 126.279 167.74 126.279 167.74L127.469 167.71L128.119 167.69L128.489 167.65H128.549L129.159 167.56V167.58Z" fill="black"/>
<path d="M129.289 167.57C129.199 167.59 129.109 167.57 129.159 167.59L129.289 167.57Z" fill="black"/>
<path d="M103.63 102.81C103.57 102.76 103.489 102.69 103.529 102.72L103.27 102.84L102.559 102.9V102.78L101.85 102.81L100.75 102.9L99.8995 102.97L97.5495 103.13L96.6195 103.15L95.2395 103.22L95.0995 102.79C94.9995 102.49 94.9295 102.21 95.1195 101.98C95.5195 101.53 95.4995 100.84 95.1495 100.41L95.2995 99.8801L95.0795 99.3801C95.6695 98.9901 95.6195 98.4502 95.6695 97.9002L95.7995 96.5603C95.8495 96.1003 95.1595 95.7003 95.5395 94.5103C95.9295 94.1403 96.2096 93.7102 96.2496 93.1902L96.3095 92.3303L96.5895 91.6702C96.7095 91.4002 96.8695 91.2002 97.1495 90.9602C97.5795 90.2602 97.4495 89.5702 97.9795 89.1902L97.9095 88.0403C97.8995 87.8603 98.0895 87.5004 98.2095 87.3604C98.4495 87.0704 97.9395 86.6702 98.5795 85.6502C98.9795 85.0102 99.3196 85.0604 99.5196 84.6104C99.6696 84.2704 99.8595 83.9701 100.049 83.6401L100.5 82.8604C100.64 82.6204 100.749 82.3702 100.919 82.1602L101.39 81.5303C101.8 80.9803 102.24 80.0503 103.09 79.2603C103.38 78.9803 103.699 78.6901 103.929 78.3801C104.049 78.2201 104.2 77.8903 104.35 77.7903C104.82 77.4603 105.33 77.2102 105.89 76.9602C106.12 76.3902 106.509 75.6903 107.029 75.5203L108.24 75.1204C108.61 75.0004 108.849 74.6703 109.059 74.3203C109.169 74.1403 109.689 74.1503 109.929 74.1003C110.819 73.8903 111.319 73.1302 112.069 72.9402L113.149 72.6702C113.299 72.6302 113.51 72.3002 113.63 72.2202L114.689 71.4302C115.099 71.2802 115.539 71.2603 115.939 71.3003L117.409 70.9102C118.049 70.7402 118.59 70.4203 119.34 70.5303C119.76 70.5903 119.849 70.1201 120.529 69.6301C121.009 69.2801 121.52 68.9903 122.14 69.0003H122.899L124 69.1301L126.039 69.3604L127.319 69.2402L128.95 69.4302L132.14 69.7402C132.85 69.8102 133.609 69.9701 134.299 70.1401L135.48 70.4302C135.99 70.5602 136.5 70.8002 137 70.9802C137.73 71.2402 138.5 71.3903 139.14 71.8203C140.14 72.4903 141.02 72.6203 141.72 73.0603L143.26 74.0203C143.52 74.1803 144.18 74.1802 144.46 74.4002C144.86 74.7202 145.25 75.2802 145.52 75.6802C145.6 75.8002 146 75.8902 146.11 75.9902L146.98 76.8303L147.399 77.2803L148.299 77.4902L149.319 78.5603L149.909 79.1204C150.519 79.7004 150.149 80.1003 150.929 80.2503L151.2 81.6301C151.29 82.0801 151.879 81.8201 152.049 82.6301L152.179 83.2102C152.479 83.3102 152.8 83.5403 152.85 83.7503L153.149 84.8403L153.439 85.6003C153.839 86.6503 153.389 86.8102 153.569 87.6502L153.61 88.5103C153.81 88.7803 154.26 89.2703 154.33 89.5903L154.61 91.2102C154.71 91.7802 154.479 92.5601 154.429 93.1301L154.6 93.7903L154.819 94.6602C154.719 94.9402 154.559 95.5303 154.649 95.7903L155.14 96.2102C154.91 96.6102 154.819 96.9303 154.909 97.3003L155.1 98.0803L154.97 99.4302L154.87 100.47C154.8 101.2 154.36 101.14 154.37 101.67L154.399 103.64L153.89 103.89C152.98 104.33 153.29 104.69 152.99 105.7L152.77 106.41L152.39 107.2C151.48 107.54 152.17 108.26 151.11 108.68C150.67 108.86 150.98 109.21 150.48 109.63C150.16 109.9 150.01 110.21 149.73 110.52L148.679 111.68C148.489 111.89 148.239 112.22 148.029 112.36L146.88 113.12C146.51 113.36 146.279 113.95 145.559 114.45C145.169 114.72 144.92 114.94 144.62 115.27L143.62 116.38C143.4 116.63 143.13 116.77 142.88 117.01L142.39 117.5L141.649 118.12C141.249 118.72 140.819 118.64 140.299 119.09L139.669 119.63L139.1 120.27C138.74 120.68 138.419 121 138.289 121.58C138.229 121.85 137.96 122.05 137.72 122.24L137.039 123.17C136.629 123.72 136.12 124.22 135.61 124.7C135.1 125.18 135.89 126.6 134.48 127.15L133.919 128.83C133.559 129.91 134.039 130.51 133.149 131.13L133.38 131.71L132.89 132.71C133.11 133.41 133 134.01 132.77 134.66L132.45 135.56C132.82 135.87 133.21 136.45 132.99 136.89L132.279 138.3C132.189 138.49 132.17 138.96 132.26 139.13L132.649 139.9C133.069 140.73 132 140.81 132.21 141.79C132.32 142.32 131.739 142.91 131.819 143.22L132.08 144.28C132.17 144.63 132.189 145.08 132.069 145.47L131.779 146.38L131.51 147.49L131.319 148.27C131.149 148.96 131.839 149.24 131.899 149.94C131.639 150.35 131.579 150.61 131.809 151.08L131.179 151.95L131.529 153.01C131.689 153.51 130.85 153.88 131.37 154.63C131.67 155.07 131.75 155.56 131.48 156.03C130.95 156.97 131.84 157.38 131.63 158.24C130.46 159.42 131.28 160.04 130.01 159.99L128.439 159.92L127.38 159.99L126.72 159.97L125.73 159.99L121.33 160.23L119.939 160.34C119.709 160.15 119.729 159.71 119.789 159.4L120.029 158.21C120.079 157.96 120.15 157.57 120.09 157.33L119.88 156.54L119.64 155.82L119.939 153.99C119.959 153.88 119.7 153.61 119.64 153.57V153.15C119.55 152.74 119.51 152.31 119.59 151.88C119.73 151.12 119.589 150.4 119.659 149.66L119.73 148.8L119.909 147.86C119.959 147.58 120.229 147.12 120.149 146.89C119.999 146.47 119.92 146.14 120 145.78L120.279 144.5C120.319 144.31 120.249 144.01 120.169 143.74C120.089 143.47 120.11 143.04 120.1 142.74C120.07 142.17 120.05 141.65 120.33 141.12C120.5 140.8 120.619 140.38 120.539 140.03C120.389 139.35 120.56 138.84 120.73 138.22L121.029 137.11C121.109 136.82 121.07 136.47 121.01 136.13C120.89 135.33 120.989 134.1 121.399 133.42L121.08 132.69C121.11 132.45 121.159 131.91 121.289 131.69L121.99 130.53C122.13 130.29 122.19 129.72 122.21 129.42L122.26 128.92C122.07 128.11 122.369 126.74 122.689 126.46C123.589 125.68 123.02 124.83 123.86 124.15C124.13 123.93 124.299 123.67 124.439 123.35L124.77 122.6L125.51 121.48C125.61 120.81 125.95 120.36 126.39 119.88L127.289 118.9L127.689 118.37C127.399 117.59 128.489 116.65 129.309 115.98L129.529 115.31C129.609 115.08 129.96 114.66 130.2 114.58C130.85 114.38 131.32 114.08 131.73 113.61L132.429 112.82C132.569 112.66 132.92 112.36 133.09 112.27L134.87 111.31C135.06 111.21 135.34 110.96 135.45 110.8L135.96 110.03L136.39 109.44L138.029 107.78C138.189 107.61 138.669 107.4 138.799 107.23L139.39 106.46C139.8 105.93 140.09 105.53 140.37 104.9C140.52 104.56 141.109 104.16 141.309 103.83L141.72 103.15C142.06 102.59 141.469 101.85 141.909 101.07L142.36 100.29C142.97 98.3603 142.18 97.8802 142.2 97.1602C142.2 96.9702 142.52 96.6002 142.58 96.4302L142.97 95.3801L143.399 94.2402L143.319 93.1702L143.22 91.7703C142.92 91.5903 142.72 91.1303 142.76 90.8403C142.8 90.5503 142.25 90.5602 142.49 89.4902C142.31 89.0102 142.219 88.6403 142.149 88.0903C142.109 87.8103 141.88 87.3903 141.74 87.0903C141.58 86.7503 141.37 86.4703 141.1 86.2503L140.52 85.7803C140.36 85.6503 140.169 85.3203 140.029 85.0503L139.429 85.1104L138.929 84.2903C138.589 83.7203 138 83.3402 137.47 82.9402L136.689 82.3604C136.369 81.9504 136.07 81.5602 135.48 81.4502C134.99 81.3502 135.029 80.7203 134.069 80.5003L132.669 80.1802L131.36 79.7803L130.25 79.5103C129.83 79.4103 129.509 79.3402 129.069 79.4102C128.689 79.4702 128.19 79.5202 127.83 79.4902L126.61 79.4002C126.36 79.3802 125.99 79.2302 125.71 79.1802L124.88 79.0503C124.62 79.0103 124.27 79.0702 124.08 79.2402C123.46 79.7602 123.179 79.4203 122.409 79.8203C122.059 80.0103 121.47 80.2803 121.09 80.3003L119.37 80.4002L118.58 81.1802C117.93 81.8302 117.71 81.3703 117.13 81.8003L116.48 82.2803L115.58 83.1003C114.4 83.6003 114.659 84.5103 113.419 85.0203L112.59 85.3604C111.94 85.6304 112.25 86.2302 111.7 86.9002C111.2 87.5102 111.64 88.1003 110.95 88.8503L110.189 89.6802C109.979 90.1902 109.799 90.5703 109.549 91.0403L109.37 92.1104C109.28 92.3704 109.209 92.6402 109.189 92.9002L109.11 93.9402L109.039 94.7402L109.059 95.9102L108.59 96.2302C108.68 96.8802 108.279 96.8802 108.149 97.7402L107.88 99.4802C107.79 100.08 107.72 100.6 107.37 101.15C106.98 101.77 107.56 102.74 106.86 102.75H105.86H105.13H104.23L103.64 102.8L103.63 102.81Z" fill="black"/>
<path d="M103.52 102.72L103.62 102.81C103.55 103.02 103.54 102.92 103.52 102.72Z" fill="black"/>
</g>
<defs>
<clipPath id="clip0_137_2533">
<rect width="250" height="250" fill="white"/>
</clipPath>
</defs>
</svg>
