<?xml version="1.0" standalone="no"?>
<!DOCTYPE svg PUBLIC "-//W3C//DTD SVG 20010904//EN"
 "http://www.w3.org/TR/2001/REC-SVG-20010904/DTD/svg10.dtd">
<svg version="1.0" xmlns="http://www.w3.org/2000/svg"
 width="500.000000pt" height="500.000000pt" viewBox="107 97 286 286"
 preserveAspectRatio="xMidYMid meet">
<metadata>
Created by potrace 1.16, written by Peter Selinger 2001-2019
</metadata>
<g transform="translate(0.000000,500.000000) scale(0.100000,-0.100000)"
fill="#000000" stroke="none">
<path d="M2420 3953 c-57 -8 -169 -35 -225 -55 -91 -31 -221 -111 -273 -168
-52 -56 -92 -108 -92 -117 0 -6 -6 -13 -13 -16 -26 -10 -88 -174 -94 -246 -11
-126 24 -169 128 -162 19 1 60 35 58 47 -1 5 0 11 1 14 1 3 3 16 4 30 7 86 76
220 154 297 137 135 359 197 577 160 108 -19 265 -117 322 -202 18 -27 37 -54
41 -60 4 -5 9 -12 9 -15 4 -13 16 -47 23 -65 19 -45 29 -183 17 -235 -17 -73
-58 -166 -92 -210 -31 -39 -155 -161 -209 -205 -116 -95 -174 -152 -236 -230
-33 -41 -100 -155 -104 -178 -2 -6 -9 -25 -15 -42 -24 -55 -42 -189 -40 -296
1 -93 4 -110 23 -133 46 -58 149 -47 162 17 1 4 3 8 4 10 1 1 4 25 5 52 5 71
13 159 15 165 1 3 2 8 1 12 0 4 4 19 9 33 5 14 12 40 15 58 4 17 10 34 16 37
5 4 11 15 13 26 4 21 49 95 76 127 30 36 120 127 120 122 0 -3 8 3 18 13 19
17 78 67 142 119 53 43 90 79 90 89 0 5 11 18 25 28 14 10 25 25 25 32 0 7 6
17 14 21 8 4 23 25 35 46 12 20 30 53 41 72 11 19 20 38 21 43 1 4 5 16 9 28
15 39 36 169 34 209 -9 161 -27 265 -45 265 -5 0 -9 9 -9 20 0 11 -5 20 -11
20 -6 0 -9 7 -5 15 3 9 -4 24 -19 37 -14 12 -25 28 -25 35 0 7 -4 13 -10 13
-5 0 -13 12 -17 28 -6 25 -136 162 -155 162 -4 0 -16 7 -25 15 -10 8 -22 16
-28 17 -5 1 -16 8 -23 15 -8 7 -18 11 -23 8 -5 -4 -9 -2 -9 3 0 17 -123 55
-220 68 -49 7 -200 11 -230 7z"/>
<path d="M2445 1598 c-29 -4 -55 -14 -62 -24 -7 -10 -13 -14 -13 -8 0 5 -14
-6 -30 -25 -17 -18 -30 -37 -30 -42 0 -4 -5 -20 -12 -36 -6 -15 -10 -32 -9
-38 2 -5 4 -25 6 -43 2 -18 10 -41 19 -51 9 -10 16 -23 16 -29 0 -7 7 -12 15
-12 7 0 18 -6 22 -14 10 -17 99 -35 144 -28 46 7 124 86 133 135 8 43 -2 107
-16 107 -5 0 -8 5 -6 12 4 11 -24 47 -39 49 -5 1 -14 10 -21 20 -7 11 -24 19
-37 19 -13 0 -25 4 -27 8 -1 4 -25 4 -53 0z"/>
</g>
</svg>
