<svg width="250" height="250" viewBox="0 0 250 250" fill="none" xmlns="http://www.w3.org/2000/svg">
<g clip-path="url(#clip0_137_2325)">
<path d="M149.526 191.312C149.536 190.383 149.252 189.665 149.078 189.224C149.065 189.192 149.05 189.153 149.037 189.119L149.025 188.55L149.127 187.652C149.132 187.609 149.134 187.564 149.138 187.521L149.202 186.247L149.384 184.767C149.393 184.688 149.399 184.609 149.399 184.531L149.408 183.634C149.682 182.76 149.727 181.7 149.53 180.781L149.774 179.627L150.213 177.924C150.28 177.66 150.297 177.384 150.262 177.112L150.173 176.456C150.203 176.321 150.228 176.199 150.239 176.125L150.511 174.458C150.517 174.424 150.52 174.392 150.524 174.358L150.67 173.09L150.845 171.522C150.849 171.496 150.85 171.47 150.852 171.444C150.864 171.29 150.869 171.127 150.875 170.958C150.879 170.813 150.886 170.601 150.901 170.511C151.156 169.761 151.198 169.135 151.233 168.581C151.241 168.48 151.246 168.377 151.256 168.268L151.319 167.471C151.756 166.357 152.141 164.845 151.546 163.275C151.642 162.901 151.687 162.44 151.586 161.866L151.413 160.887L151.235 159.866C151.636 159.324 152.235 158.283 151.785 156.813L151.653 156.383C151.88 155.925 151.933 155.524 151.961 155.295C151.961 155.291 151.961 155.29 151.961 155.286C152.556 154.419 152.676 153.358 152.291 152.371L152.043 151.735C152.045 151.726 152.083 151.557 152.083 151.557C152.265 150.698 152.107 149.923 151.612 149.246L151.721 149.113C152.07 148.691 152.242 148.149 152.201 147.603L152.049 145.526L152.222 145.226C152.612 144.553 152.599 143.729 152.21 143.075L152.374 142.392C152.456 142.056 152.591 141.508 152.496 140.839C152.612 140.554 152.709 140.209 152.76 139.773L152.891 138.657C152.897 138.609 152.901 138.56 152.903 138.511L152.959 137.342L153.145 136.275L153.362 135.547C153.525 135 153.46 134.427 153.206 133.947C153.64 133.435 153.809 132.743 153.651 132.081C153.471 131.325 152.891 130.727 152.141 130.522L150.215 129.997L149.643 129.823C149.607 129.811 149.571 129.802 149.536 129.793C149.367 129.571 149.153 129.382 148.902 129.237L147.99 128.716C147.919 128.658 147.772 128.502 147.673 128.397C147.288 127.988 146.759 127.429 145.981 127.159L144.574 126.669L143.434 126.02C143.246 125.913 143.059 125.823 142.894 125.743C142.8 125.698 142.668 125.634 142.582 125.587L142.012 124.835C141.986 124.794 141.958 124.745 141.929 124.694C141.68 124.267 141.339 123.679 140.684 123.312C140.637 123.286 140.588 123.261 140.539 123.239L139.596 122.798L138.227 121.851C138.133 121.785 138.056 121.721 137.949 121.633C137.709 121.432 137.384 121.162 136.863 120.896C136.767 120.81 136.599 120.624 136.492 120.506C136.405 120.41 136.321 120.318 136.242 120.236C136.041 120.024 136.026 119.98 135.98 119.836C135.899 119.594 135.764 119.187 135.428 118.757L134.515 117.583C134.139 117.103 133.764 116.711 133.299 116.325L133.134 116.058C133.085 115.289 132.922 114.396 132.421 113.511C132.478 113.156 132.442 112.793 132.32 112.455L131.986 111.536L131.643 110.57C131.528 110.249 131.549 110.129 131.603 109.806C131.675 109.382 131.793 108.672 131.45 107.88C131.446 107.872 131.442 107.863 131.44 107.856C131.798 106.74 131.382 105.882 131.114 105.451C131.382 104.566 131.384 103.539 131.36 102.99C131.339 102.517 131.163 102.067 130.855 101.707L130.782 101.621C130.984 100.698 130.857 99.9474 130.771 99.4335C130.759 99.3697 130.746 99.2928 130.737 99.229L131.016 98.353C131.031 98.3061 131.054 98.2499 131.078 98.1861C131.309 97.5746 131.656 96.6499 131.348 95.6913C131.305 95.5544 131.249 95.4025 131.191 95.2468C131.164 95.1755 131.129 95.0817 131.103 95.0029L131.185 94.2658L131.388 93.0897C131.699 92.7539 131.898 92.3225 131.945 91.8498L132.055 90.7206C132.069 90.5837 132.078 90.4336 132.085 90.2817C132.089 90.2217 132.093 90.141 132.097 90.0828L132.44 89.0774C132.461 89.0174 132.478 88.9574 132.493 88.8955L132.813 87.5862C132.832 87.5112 132.845 87.4343 132.856 87.3574L132.976 86.442C132.99 86.3764 133.029 86.2413 133.051 86.1757L133.676 84.8664C133.821 84.5625 133.892 84.2305 133.882 83.8947L134.134 83.5252C134.477 83.0188 134.578 82.4016 134.44 81.8295L134.483 81.8014C134.97 81.4882 135.308 80.9892 135.421 80.4209C135.467 80.1789 135.576 79.6255 135.683 79.4211C135.698 79.4061 135.713 79.3892 135.728 79.3742C136.743 78.305 136.732 77.4309 136.61 76.9245C137.002 76.7106 137.324 76.3786 137.52 75.9678L137.975 75.0056C138.225 74.4822 138.292 73.897 138.35 73.383C138.35 73.3755 138.35 73.3699 138.352 73.3624C138.566 73.0998 138.816 72.6928 138.908 72.1169C139.114 71.9331 139.283 71.7099 139.405 71.4566L139.536 71.1828L139.585 71.1528C139.904 70.9446 140.161 70.6557 140.329 70.3162L140.66 69.6522L140.995 68.9694C142.258 68.4292 142.828 67.6132 143.042 66.7898L143.145 66.7129C143.561 66.4071 143.85 65.9607 143.961 65.4561C143.995 65.3548 144.107 65.1766 144.216 65.0397L144.987 64.9121C145.632 64.8052 146.795 64.3025 147.362 63.5147L147.634 63.1377C148.093 62.9557 148.57 62.7982 148.917 62.7888L150.337 62.7569C150.483 62.7532 150.629 62.7344 150.774 62.7025L153.765 62.0047C154.266 61.8884 154.709 61.5921 155.009 61.1738L155.313 60.7517C156.423 60.249 156.808 59.2624 156.975 58.8328C156.984 58.8103 156.994 58.7822 157.005 58.7578C157.123 58.7128 157.307 58.694 157.765 58.6678C157.911 58.6603 158.061 58.6509 158.217 58.6396L160.015 58.5027C160.036 58.5027 160.057 58.4989 160.075 58.4971L161.411 58.3564C161.531 58.3433 161.651 58.3208 161.767 58.287L162.773 58.0019C162.788 58.0019 162.812 58 162.846 58C162.988 58 163.182 58.0188 163.39 58.0525L164.476 58.2288C164.575 58.2438 164.675 58.2532 164.774 58.2551C164.774 58.2551 166.427 58.287 166.442 58.287C166.539 58.287 166.639 58.2795 166.736 58.2664L167.543 58.1538L169.904 58.5215L172.238 58.8816C173.712 59.1104 175.125 59.5606 176.432 60.0146L177.822 60.4966L180.155 61.4683L181.532 62.2673C181.553 62.2786 181.573 62.2898 181.594 62.3011L183.354 63.2446C183.466 63.3496 183.678 63.6029 183.821 63.7754C184.205 64.2369 184.603 64.7133 185.13 65.0641L186.038 65.6699C186.45 65.9457 186.895 66.6791 187.084 66.9924C187.52 67.7108 187.992 68.1459 188.354 68.4236L188.382 68.8944C188.418 69.4946 188.707 70.0461 189.166 70.4175C189.176 70.4531 189.187 70.4906 189.195 70.5225C189.363 71.1415 189.665 72.2595 190.89 73.1467C190.9 73.1579 190.907 73.1692 190.917 73.1786C191.194 73.5162 191.573 73.9795 192.151 74.2553C192.19 74.274 192.233 74.2928 192.276 74.3134L192.28 75.3282C192.28 75.7615 192.284 76.5831 192.89 77.3671C192.854 77.7423 192.867 78.2544 193.106 78.8096L193.676 80.1357C193.918 80.6966 193.993 80.9705 194 81.3043L194.04 83.0844C194.057 83.8666 194.447 84.5419 194.876 85.0558L195.246 86.2C195.137 86.5396 195.06 86.9991 195.133 87.5731C195.158 87.7663 195.152 87.8582 195.143 87.9239L194.936 89.4151C194.807 90.353 195.122 91.7429 195.64 92.5119L195.679 92.5701C195.557 93.0053 195.46 93.4948 195.475 94.0182C195.499 94.7741 195.754 95.4681 196 96.0309C195.897 96.406 195.837 96.7812 195.863 97.1619L195.927 98.036L195.465 98.9627C195.12 99.6548 195.18 100.48 195.619 101.118C195.634 101.14 195.649 101.163 195.662 101.185L195.458 102.204C195.379 102.592 195.413 102.99 195.546 103.352C195.373 103.661 195.182 104.068 195.128 104.575L194.987 105.877C194.925 106.462 194.889 106.756 194.76 107.075C194.525 107.655 194.471 108.214 194.49 108.696L194.323 108.992C194.254 109.114 194.197 109.244 194.154 109.377L193.614 111.035C193.496 111.395 193.477 111.782 193.559 112.151C193.578 112.237 193.586 112.329 193.586 112.417C192.297 112.948 191.389 114.016 191.061 115.419C191.012 115.477 190.95 115.548 190.903 115.601C190.658 115.882 190.352 116.233 190.123 116.698L189.602 117.763C189.564 117.838 189.532 117.917 189.504 117.996L189.054 119.281C188.756 119.468 188.487 119.665 188.227 119.887L187.356 120.629C187.274 120.701 187.195 120.778 187.124 120.862L186.651 121.414C186.621 121.438 186.589 121.464 186.555 121.489C186.368 121.637 186.128 121.826 185.899 122.093C185.501 122.188 184.867 122.351 184.04 122.792C183.477 123.092 182.952 123.389 182.571 123.822C182.571 123.822 181.262 125.308 181.253 125.319L180.816 125.835C179.776 126.154 179.06 126.626 178.553 126.96C178.458 127.022 178.334 127.105 178.261 127.148L177.107 127.455C176.466 127.626 175.787 127.887 175.132 128.609C175.076 128.637 175.008 128.671 174.956 128.697C174.834 128.757 174.714 128.817 174.605 128.877C174.204 129.095 173.845 129.354 173.526 129.584C173.275 129.766 172.898 130.038 172.746 130.085L170.251 130.826L168.604 131.076C167.85 131.19 167.213 131.698 166.939 132.411C166.939 132.411 166.339 133.962 166.333 133.977L165.924 135.103L165.575 135.741C165.281 136.279 165.236 136.913 165.44 137.481C165.119 138.667 164.784 140.385 165.427 141.816C165.348 142.034 165.283 142.279 165.238 142.559L165.02 143.928C164.997 144.074 164.988 144.221 164.996 144.367C164.686 144.808 164.553 145.356 164.632 145.898L164.791 146.98C164.859 147.436 165.007 147.813 165.191 148.126C165.012 148.501 164.949 148.92 165.005 149.33C164.872 149.647 164.724 150.105 164.679 150.728C164.622 151.487 164.538 152.634 164.947 153.763L165.176 154.393C164.735 154.969 164.472 155.753 164.444 156.618C164.431 157.038 164.472 157.441 164.564 157.82C163.977 158.456 163.592 159.469 164.328 160.999C164.093 161.701 164.075 162.474 164.273 163.308L164.483 164.188C164.187 164.772 164.116 165.424 164.273 166.139L164.523 167.274C164.333 167.593 164.187 167.906 164.108 168.253L163.84 169.418C163.818 169.513 163.803 169.609 163.793 169.707L163.688 170.892L163.639 170.973C163.422 171.329 163.313 171.74 163.328 172.158L163.384 173.762L163.219 175.306C162.362 176.114 161.901 177.324 162.506 178.474L162.889 179.2C162.732 179.477 162.64 179.789 162.619 180.11C162.589 180.584 162.643 181.017 162.692 181.402C162.709 181.539 162.733 181.728 162.741 181.854L162.032 183.261C161.891 183.538 161.814 183.844 161.805 184.154L161.769 185.349L161.589 186.506C161.569 186.562 161.533 186.66 161.486 186.767C160.968 187.961 161.143 189.061 161.268 189.863C161.298 190.047 161.325 190.222 161.342 190.379L161.392 190.856L161.15 190.829C161.109 190.826 161.066 190.822 161.025 190.82L159.284 190.739C159.267 190.739 159.248 190.739 159.231 190.739C159.231 190.739 157.464 190.702 157.449 190.702C157.436 190.702 156.084 190.726 156.084 190.726L153.398 190.796C152.102 190.829 151.235 191.118 150.759 191.28L149.521 191.3L149.526 191.312ZM153.767 122.561C154.857 123.831 156.153 124.165 157.282 124.323C157.659 124.375 158.177 124.623 158.723 124.886L158.909 124.974C159.198 125.113 159.511 125.18 159.824 125.18C160.137 125.18 160.451 125.111 160.741 124.972L161.908 124.415L163.034 123.938L166.633 122.822C166.719 122.796 166.821 122.77 166.928 122.743C167.648 122.56 168.636 122.306 169.323 121.498C169.449 121.35 169.621 121.147 169.679 121.102C169.679 121.102 169.694 121.095 169.724 121.085C170.193 120.913 171.067 120.543 171.656 120.003C171.887 119.791 172.138 119.632 172.457 119.429C172.791 119.217 173.17 118.977 173.583 118.639L174.356 118.009L174.997 117.679C175.303 117.521 175.567 117.291 175.766 117.009L177.034 115.201C177.132 115.06 177.192 114.989 177.49 114.863C177.861 114.708 178.182 114.449 178.413 114.117L179.126 113.091C179.484 112.575 179.715 112.102 179.893 111.708L180.589 110.165C180.808 109.679 180.998 109.399 181.29 109.131C181.956 108.521 182.26 107.741 182.194 106.805C182.425 106.434 182.541 105.991 182.508 105.533L182.466 104.965L182.455 104.254C182.47 104.219 182.485 104.181 182.498 104.151C182.577 103.963 182.665 103.75 182.729 103.519L182.806 103.241C183.372 102.423 183.502 101.514 183.19 100.525L183.601 98.777C183.852 97.7078 183.77 97.1075 183.603 96.2447L183.385 95.1174L183.215 93.84C183.202 93.7424 183.183 93.6468 183.157 93.553L183.044 93.1497C183.217 92.7427 183.549 91.9136 183.295 90.9419C183.414 90.6006 183.485 90.1841 183.429 89.6964C183.429 89.6964 183.265 88.2784 183.263 88.2728L183.166 87.4868C183.35 87.0235 183.367 86.5095 183.211 86.0369L182.866 84.9827C182.795 84.7632 182.703 84.555 182.613 84.3524C182.577 84.2718 182.524 84.1536 182.487 84.0617L182.515 83.2964C182.539 82.6624 182.539 81.9177 182.241 81.0999L181.924 80.2333L181.769 79.6087C181.611 78.9784 181.401 78.1437 180.872 77.3109C180.872 77.3052 180.872 77.3015 180.872 77.2959C180.878 77.2246 180.885 77.1495 180.891 77.0745C180.979 75.9097 180.275 74.5423 179.919 74.0621L179.141 73.0098C179.107 72.9629 179.037 72.8409 178.97 72.5558C178.687 71.361 177.861 70.8208 177.464 70.5619C177.24 70.4175 177.107 70.3293 176.927 69.5227C176.252 66.4859 173.549 66.4465 172.095 66.4259L170.351 66.4015L169.216 66.3433C169.128 66.3396 169.006 66.334 168.875 66.334C168.368 66.334 167.623 66.3921 166.988 66.9023C166.963 66.9229 166.943 66.9361 166.929 66.9455C166.873 66.9455 166.808 66.9398 166.74 66.9342C166.609 66.9248 166.445 66.9117 166.262 66.9117C165.823 66.9117 165.429 66.9848 165.057 67.1368L163.988 67.5738C162.966 67.9921 162.416 68.8456 162.052 69.4083C162.036 69.4365 162.015 69.4665 161.994 69.4984L161.1 69.5227C160.492 69.5396 159.92 69.8154 159.528 70.2805C159.518 70.2918 159.509 70.3031 159.5 70.3124L158.205 70.4006C157.142 70.4719 155.711 71.1021 155.651 71.1284C155.334 71.2691 155.056 71.4848 154.842 71.7568L154.022 72.7959C153.81 73.0642 153.668 73.3793 153.604 73.7132L153.469 73.7863C152.867 74.1146 152.203 74.7617 152.167 76.0297L151.408 76.4799C150.832 76.8213 150.451 77.414 150.378 78.078L150.372 78.1212C150.096 78.4007 149.875 78.7252 149.718 79.0872C149.453 79.6987 149.397 80.3665 149.547 81.0155L149.417 81.1149C149.32 81.1899 149.23 81.2724 149.147 81.3644C148.821 81.7226 148.581 82.1953 148.326 82.7318L147.701 84.026C147.534 84.3731 147.467 84.752 147.497 85.1215C147.469 85.1646 147.44 85.2115 147.412 85.2584C146.889 86.1607 146.752 87.1342 146.643 87.9164C146.636 87.9689 146.628 88.0214 146.621 88.0739C146.561 88.1377 146.487 88.2109 146.439 88.2615C145.617 89.0887 145.655 90.1804 145.677 90.8331C145.679 90.8913 145.681 90.9476 145.681 90.9945V91.1126L145.643 91.1558C145.516 91.3058 145.411 91.4728 145.33 91.6529L144.674 93.1047C144.443 93.6149 144.315 94.2451 144.184 95.0986C144.105 95.6144 144.218 96.1415 144.503 96.5805C144.593 96.7193 144.666 96.8412 144.726 96.95C144.12 98.0267 144.058 99.0564 144.06 100.097V101.133L143.856 102.981C143.824 103.264 143.833 103.568 143.878 103.87C143.653 104.361 143.559 105.068 144.036 105.969C144.163 106.211 144.357 106.574 144.447 107.304L144.64 108.857L144.719 110.808C144.726 110.994 144.749 111.556 145.28 112.684L145.355 112.843C145.368 113.616 145.523 114.22 145.713 114.676C145.642 115.085 145.673 115.514 145.807 115.929C146.246 117.287 147.756 118.285 148.945 118.885L150.001 119.418C150.016 119.425 150.029 119.433 150.04 119.438C150.048 119.451 150.053 119.465 150.061 119.478C150.256 119.864 150.71 120.768 151.961 121.192C152.015 121.232 152.134 121.342 152.222 121.423C152.359 121.55 152.529 121.71 152.732 121.871C152.964 122.057 153.206 122.209 153.418 122.342C153.527 122.41 153.685 122.509 153.758 122.563L153.767 122.561Z" fill="black"/>
<path d="M72.433 189.858C72.4049 189.419 72.313 188.985 72.1591 188.565L72.1479 188.319L72.4424 186.069C72.4443 186.052 72.6131 184.467 72.6131 184.467C72.66 184.026 72.5793 183.649 72.5118 183.366C72.615 182.6 72.5155 181.812 72.221 181.124C72.2529 181.019 72.3055 180.875 72.3448 180.768C72.5155 180.306 72.7481 179.674 72.6562 178.937L72.5268 177.888L72.6862 177.566C72.9451 177.042 72.977 176.435 72.7744 175.885C72.7669 175.866 72.7669 175.859 72.765 175.859C72.7556 175.78 72.8325 175.456 72.8832 175.24C72.9976 174.76 73.1514 174.101 73.1908 173.263C73.2171 172.702 73.1383 172.261 73.0539 171.94C73.3202 171.321 73.369 170.641 73.1908 169.977C73.1383 169.78 73.0651 169.588 72.977 169.408L72.9939 169.348C73.1008 168.986 73.1102 168.603 73.0201 168.238C72.932 167.876 72.9076 167.636 72.9057 167.491L73.4553 166.874C74.2281 166.006 74.0705 164.968 73.9843 164.411C73.9805 164.392 73.9786 164.372 73.9749 164.353L74.1043 162.937C74.1156 162.809 74.1156 162.682 74.1043 162.558C74.5676 161.359 74.0386 160.403 73.7348 159.986L74.0086 158.964C74.0311 158.878 74.0499 158.79 74.063 158.699L74.2525 157.315C74.3481 156.614 74.26 156.147 74.1624 155.728C74.1212 155.554 74.1005 155.466 74.1005 155.216C74.6426 154.378 74.9146 153.264 74.5207 152.185L74.4607 151.737C74.7102 151.294 75.1135 150.362 74.5451 149.137C74.562 149.079 74.6183 148.955 74.7514 148.797C75.0047 148.497 75.1697 148.132 75.2298 147.743L75.3385 147.019L75.4548 146.742C75.7287 146.091 75.6593 145.346 75.2748 144.755C75.1997 144.639 75.1547 144.414 75.2166 144.206L75.5749 142.998C75.6199 142.848 75.648 142.692 75.6574 142.534L75.7418 141.257C75.7718 140.812 75.6612 140.37 75.4248 139.991L75.1941 139.621C75.5392 139.12 75.8938 138.389 75.8956 137.385V137.299C76.4996 136.674 76.6741 135.723 76.2858 134.907C76.1958 134.718 76.147 134.574 76.1245 134.48C76.6797 133.45 76.7735 132.512 76.404 131.512L76.4227 131.464C76.4546 131.383 76.479 131.3 76.5015 131.218L76.6459 130.64C76.8335 130.286 77.1824 129.53 76.8748 128.639L76.6384 127.956C76.9629 127.198 76.8204 126.315 76.2614 125.694C75.6818 125.05 74.9184 124.57 74.0518 124.3L72.9338 123.953C72.8982 123.942 72.8644 123.932 72.8288 123.923L71.7052 123.636C71.6433 123.595 71.5401 123.518 71.4595 123.46C70.8799 123.028 69.912 122.308 68.3476 122.308C68.2688 122.308 68.1901 122.308 68.1094 122.314C68.0494 122.317 67.9837 122.317 67.9181 122.317C67.6517 122.317 67.4716 122.291 67.3779 122.269L66.8977 121.813L66.7982 121.571C66.5431 120.95 66.0086 120.487 65.3577 120.322L64.9881 120.228L64.3373 119.631C63.9771 119.301 63.5738 119.112 63.2174 118.945C63.1499 118.913 63.0561 118.87 62.9961 118.838L62.3865 118.311L61.6212 117.499C61.5405 117.414 61.4411 117.279 61.3361 117.137C61.1128 116.833 60.8334 116.456 60.4244 116.103C60.4244 116.103 59.4397 115.255 59.4172 115.235C59.0383 114.353 58.4136 113.657 57.624 113.222L57.0687 112.308C57.035 112.254 57.0031 112.203 56.9731 112.155C56.9824 111.249 56.5998 110.577 56.3353 110.119C56.3128 110.067 56.2678 109.956 56.2378 109.879C56.0746 109.463 55.8889 108.992 55.5419 108.585L54.8066 107.718C54.6865 107.576 54.5477 107.45 54.3939 107.343C54.3864 107.253 54.3733 107.165 54.3526 107.077C54.5196 106.734 54.6453 106.359 54.6846 105.97C54.7522 105.302 54.5008 104.642 54.0056 104.19L54.0019 104.186L54.2514 103.791C54.5571 103.305 54.6546 102.714 54.5177 102.155C54.4295 101.795 54.2514 101.467 54 101.2C54.0375 101.12 54.0919 101.011 54.1369 100.924C54.4408 100.332 55.0879 99.0656 54.4821 97.6438C54.6978 97.2067 54.9979 96.4564 54.6696 95.5748L54.4746 95.0553L54.529 94.7232C54.5684 94.4832 54.5665 94.2374 54.5215 93.9973L54.2157 92.3204C54.1819 92.1328 54.1351 91.8834 54.1294 91.7877C54.1426 91.7408 54.1895 91.5926 54.3639 91.2175C54.664 90.5703 54.7465 89.8876 54.8141 89.3398C54.8385 89.1373 54.8722 88.8615 54.9022 88.7584L55.2305 87.6442C55.4106 87.0345 55.3074 86.378 54.9529 85.8547C54.9285 85.7346 54.891 85.397 54.981 84.5998C55.0204 84.2491 55.0936 83.9658 55.163 83.6901C55.2961 83.1649 55.5137 82.317 55.1817 81.4336C55.2342 81.0715 55.3093 80.672 55.4106 80.3719C55.4387 80.2912 55.4837 80.1787 55.5325 80.0605C55.7801 79.4509 56.1965 78.4323 55.8682 77.2638C55.857 77.2225 55.8401 77.1606 55.8232 77.0987L55.9545 76.6616C56.8042 75.7444 56.9843 74.4501 56.4872 72.8013C56.4722 72.7507 56.4535 72.6907 56.4404 72.6419C56.4479 72.3643 56.4854 72.0792 56.5229 71.7809C56.5848 71.2951 56.6542 70.7587 56.6092 70.1753C57.0368 69.8414 57.7703 69.0273 57.3238 67.5642C57.2863 67.4367 57.2788 67.3485 57.4626 66.7183C57.5339 66.4744 57.5789 66.2231 57.624 65.9811C57.6277 65.9586 57.6333 65.9342 57.6371 65.908C57.8509 65.9192 58.0648 65.9417 58.2204 65.9605C58.3048 65.9699 58.3874 65.9755 58.4718 65.9755C58.6068 65.9755 58.74 65.9624 58.8713 65.938L61.4617 65.9792L61.8481 66.0768C62.0188 66.1199 62.1933 66.1406 62.3677 66.1406C62.3734 66.1406 63.1949 66.133 63.1949 66.133C63.2324 66.1462 63.2718 66.1612 63.3037 66.1724L63.39 66.2156C63.6639 66.3488 63.9602 66.4219 64.2641 66.4313L65.5546 66.4669L67.4154 66.5889C67.6855 66.7127 67.9856 66.7802 68.2951 66.7802C68.3457 66.7802 68.3945 66.7802 68.4452 66.7746L69.4674 66.7502C69.4468 66.979 69.4112 67.2266 69.353 67.4723C69.278 67.7875 69.2761 68.1157 69.3474 68.4308L69.3962 68.6447C68.9066 69.2693 68.8091 70.0159 68.7603 70.573C68.4714 71.2951 68.2013 72.278 68.4058 73.3828L68.432 73.5273C68.0813 73.9399 67.8993 74.4708 67.9275 75.0129L68.01 76.6354C67.9818 76.7479 67.9124 76.9449 67.8693 77.0724C67.6405 77.7383 67.2972 78.7381 67.8899 79.7247L67.8337 80.113C67.7886 80.4225 67.7474 80.4919 67.6573 80.6457C67.4323 81.0284 66.9652 81.8237 67.2766 83.0917C67.3216 83.2737 67.2897 83.6376 67.2559 84.0221C67.2034 84.6167 67.1396 85.3557 67.2653 86.2111C67.3122 86.5318 67.4323 86.8357 67.6142 87.1021C67.496 87.556 67.4848 88.0531 67.5804 88.5989C67.6555 89.0303 67.618 89.3267 67.2522 90.1295C66.9821 90.7223 67.0027 91.3938 67.2841 91.9584C67.1115 92.3936 67.0496 92.8081 67.1021 93.202C66.9783 93.5847 66.9183 93.9917 66.9277 94.4175C66.6857 95.1959 66.697 96.1188 67.2184 96.8635C67.2203 96.9066 67.2222 96.9573 67.224 97.0004C67.2334 97.2949 67.2466 97.7094 67.3797 98.1971C67.2822 98.4504 67.194 98.7411 67.1715 99.0769L66.9858 101.739C66.9821 101.787 66.9802 101.834 66.9802 101.883V103.089C66.5431 104.258 66.7063 104.91 66.7626 105.143L67.119 106.58C67.2428 107.079 67.5429 107.514 67.9612 107.807L68.16 108.728C68.3026 109.384 68.7453 109.934 69.3549 110.213C69.3718 110.236 69.3943 110.266 69.413 110.29C69.6325 110.588 70.1146 111.241 71.06 111.504C71.0637 111.509 71.0675 111.513 71.0712 111.519C71.1294 111.588 71.1856 111.658 71.2457 111.725L71.6902 112.232L72.3055 113.092C72.3411 113.143 72.3805 113.194 72.4218 113.241L73.1927 114.141C73.4816 114.479 73.868 114.717 74.2994 114.824L75.4567 115.109C75.6255 115.15 75.7962 115.171 75.9669 115.171C76.6666 115.171 77.3362 114.824 77.7376 114.222L78.3885 113.244C78.9306 112.43 78.8537 111.573 78.7974 110.947C78.7787 110.737 78.7393 110.301 78.7899 110.198C78.7899 110.198 78.7993 110.183 78.8293 110.157C79.2101 109.821 79.8497 109.112 79.8366 108.131C79.8291 107.591 79.6246 107.079 79.2664 106.687C79.5534 106.265 79.6865 105.745 79.619 105.222C79.5571 104.732 79.5684 104.479 79.5759 104.389C79.6284 104.258 79.7034 104.034 79.7278 103.751L79.8291 102.541C79.8366 102.457 79.8478 102.314 79.8629 102.196C80.4987 101.317 80.6113 100.437 80.1986 99.5739L80.2305 99.0375L80.3468 97.7582C80.3487 97.7282 80.3524 97.6982 80.3524 97.6682L80.3637 97.4243C81.1215 96.539 80.8964 95.4154 80.8195 95.0271L80.6394 94.1305C80.6263 94.0386 80.6638 93.746 80.6919 93.5303C80.7107 93.3915 80.7276 93.2527 80.7426 93.1139L80.8232 92.3504C81.114 91.8927 81.4028 91.2531 81.3578 90.5516L81.3409 90.2871C81.8436 89.503 81.9918 88.5333 81.7217 87.6085C81.8343 87.2596 81.9224 86.7794 81.8211 86.213C81.9956 85.7853 82.2694 84.9056 81.763 83.8383L82.0594 83.1067C82.3201 82.4633 82.2488 81.743 81.8868 81.1709L81.9337 81.1222C82.3689 80.6551 82.5733 80.0174 82.487 79.3852L82.3482 78.3648L82.2938 77.4269L82.3388 76.7067C82.3689 76.2283 82.2357 75.7519 81.9618 75.358L81.8643 75.2173L82.6577 72.4037C82.759 72.0454 82.7628 71.6703 82.6746 71.3157C83.6406 70.6161 84.2727 69.1962 83.7775 67.9281C83.7832 67.8831 83.7869 67.8381 83.7907 67.8156C83.8207 67.5624 83.8132 67.3204 83.7813 67.0916L85.3344 67.1216C85.5633 67.2041 85.8052 67.2454 86.0585 67.2454C86.1935 67.2454 86.3248 67.2322 86.4524 67.2097C86.4524 67.2097 87.1351 67.2472 87.1426 67.2472L87.5516 67.2641C87.7504 67.3279 87.9567 67.3598 88.1668 67.3635L89.84 67.3861C90.1382 67.538 90.4702 67.6205 90.8097 67.6205C90.956 67.6205 91.1024 67.6055 91.2487 67.5755L92.0027 67.4161H92.5185C92.738 67.4142 92.95 67.3804 93.1526 67.3166C93.1526 67.3166 94.6363 67.4236 94.6475 67.4236L95.1859 67.4536C95.2609 67.478 95.3416 67.5005 95.426 67.5174L95.621 67.7612L95.3884 68.4383C95.1896 69.018 95.2027 69.6126 95.214 70.1397C95.214 70.1734 95.214 70.2128 95.2159 70.2541C95.1352 70.3629 95.0583 70.4679 94.9945 70.5654C94.4675 71.3495 94.5068 72.2405 94.8051 73.0133C94.6644 73.6117 94.6907 74.2626 94.8839 74.9303C94.685 75.6581 94.5331 76.4741 94.5612 77.3463L94.565 77.4551C94.0885 77.9634 93.8653 78.5655 93.901 79.2502C93.9104 79.419 93.9329 79.5766 93.9666 79.7247C93.2463 80.5182 93.2238 81.7393 93.946 82.559L94.0435 82.6697C93.7828 83.0354 93.4696 83.5888 93.4902 84.3241L93.5465 86.2561C93.5258 86.3143 93.5014 86.3818 93.4827 86.4343C93.3701 86.7457 93.2407 87.0964 93.2051 87.4979C93.1638 87.9612 93.2745 88.4264 93.5221 88.8184C93.4414 89.0285 93.3814 89.2629 93.3551 89.5218C92.7061 90.3903 92.648 91.5964 92.7511 92.1628C92.798 92.4217 92.8937 92.6674 93.0287 92.8869C93.0588 93.2095 93.1526 93.5584 93.3345 93.9279C93.1807 94.3012 93.1338 94.7157 93.2088 95.1228C92.9425 95.5542 92.6011 96.2632 92.6892 97.2593C92.7117 97.5181 92.6742 97.6082 92.5598 97.8764C92.4041 98.2422 92.029 99.1256 92.3966 100.118C92.2353 100.6 92.0252 101.378 92.2128 102.391C92.2147 102.406 92.2184 102.421 92.2222 102.436C92.089 102.721 92.0196 103.035 92.0233 103.359L92.0365 104.517C92.0421 105.008 91.9427 105.212 91.8339 105.361C91.5544 105.743 91.41 106.21 91.425 106.685L91.4587 107.724C91.4738 108.178 91.5994 108.63 91.772 109.035C91.7364 109.41 91.7682 109.789 91.8714 110.146C91.7045 110.418 91.5563 110.72 91.4212 111.078L90.9898 112.228C90.7497 112.867 90.7497 114.195 90.926 115.223C90.2114 116.022 90.1814 117.182 90.4834 118.009C90.821 118.935 91.6088 119.554 92.5411 119.624C92.5411 119.624 93.9798 119.731 93.9891 119.731L95.7824 119.838C96.1031 119.856 96.4257 119.866 96.7427 119.866C97.9995 119.866 99.2244 119.718 100.385 119.427C100.732 119.341 101.051 119.166 101.314 118.924L102.259 118.046C102.383 117.932 102.492 117.804 102.586 117.664L103.045 116.973L103.642 116.368C103.683 116.326 103.722 116.283 103.758 116.238L104.501 115.347C105.107 114.619 105.195 113.732 105.259 113.083C105.266 113.012 105.274 112.926 105.283 112.843C106.086 112.156 106.568 111.314 106.688 110.382L106.891 108.808C106.898 108.748 106.904 108.686 106.906 108.624L106.977 106.889C107.003 106.844 107.031 106.796 107.054 106.752C107.298 106.325 107.665 105.678 107.872 104.807L108.447 102.361C108.644 101.523 108.438 100.866 108.222 100.441L108.331 100.116L108.566 99.634C108.798 99.1538 108.841 98.6023 108.688 98.0921C108.688 98.0827 108.691 98.0677 108.695 98.0621L109.162 97.158C109.579 96.3495 109.434 95.3723 108.817 94.7214L108.796 94.47L108.772 93.5772L109.07 92.5755C109.091 92.5042 109.11 92.4311 109.123 92.3579L109.307 91.375L109.659 90.0526C109.762 89.6606 109.753 89.2479 109.631 88.8615L109.406 88.1544C109.849 87.6367 110.134 86.8226 109.723 85.5715C109.708 85.5283 109.691 85.472 109.676 85.4233L110.169 83.7782C110.363 83.1311 110.28 82.484 110.044 81.9156C110.364 81.6324 110.595 81.2554 110.698 80.8333L110.974 79.7229L111.036 79.6572C111.625 79.042 111.79 78.1341 111.456 77.3519L110.878 75.9976C110.878 75.9976 111.01 75.2173 111.012 75.2061L111.154 74.2644L111.552 73.0489C111.707 72.5744 111.711 72.0923 111.681 71.5671C111.856 70.8112 111.848 70.1096 111.655 69.4419C111.659 69.4269 112.071 67.9938 112.071 67.9938C112.109 67.8625 112.171 67.6449 112.212 67.3748L113.219 67.3861H113.341C113.428 67.3861 113.739 67.3842 113.808 67.3842C114.05 67.3842 114.129 67.3954 114.152 67.4011L115.256 67.7106C115.521 67.7837 115.812 67.8212 116.063 67.84C116.237 67.885 116.419 67.9094 116.607 67.9094C116.641 67.9094 116.755 67.9056 116.958 67.8981C117.023 67.8963 117.089 67.8906 117.155 67.8812C117.25 67.8944 117.35 67.9 117.449 67.9C117.672 67.9 117.899 67.8644 118.119 67.7912L118.781 67.7706C119.002 67.8475 119.239 67.8869 119.475 67.8869C119.582 67.8869 119.691 67.8794 119.798 67.8625L119.867 67.8512C120.148 67.93 120.372 67.9356 120.432 67.9356C120.642 67.9356 120.931 67.9056 121.236 67.7818H121.473L122.365 67.8043L123.332 67.8287C123.487 67.8681 123.665 67.8944 123.864 67.8944C123.964 67.8944 124.061 67.8869 124.159 67.8737L124.348 68.489C124.155 69.2843 124.264 69.9483 124.337 70.3929C124.352 70.4829 124.371 70.6011 124.376 70.663C124.202 71.2632 124.172 71.7115 124.147 72.0736C124.14 72.1786 124.134 72.2874 124.119 72.4112L123.917 74.1725C123.825 74.9716 123.894 75.6018 123.956 76.0276C123.281 77.1099 123.339 78.151 123.54 78.8844C123.519 78.9182 123.497 78.9538 123.476 78.9857C123.243 79.359 122.853 79.9836 122.765 80.8783C122.724 81.3098 122.814 81.7412 123.024 82.1182L122.857 82.8873C122.748 83.3918 122.656 83.9527 122.726 84.6411C122.735 84.7555 122.675 85.0012 122.613 85.1119C122.099 85.5977 121.366 86.6613 121.795 88.5802L122.266 90.6941C122.275 90.7335 122.285 90.7748 122.296 90.8142L122.322 90.908C121.84 91.4538 121.683 92.131 121.587 92.5436C121.58 92.5755 121.572 92.6055 121.566 92.6299L121.276 93.7591C121.261 93.8135 121.249 93.8698 121.24 93.9261L121.036 95.1059C121.03 95.1378 121.024 95.1716 121.021 95.2034L120.88 96.3083C120.867 96.4133 120.861 96.5183 120.863 96.6234L120.886 97.6588C120.899 98.2459 121.009 98.7317 121.135 99.1219C120.599 99.8891 120.627 100.915 120.841 101.568L121.032 102.151C120.717 102.663 120.27 103.521 120.317 104.674L120.225 104.764C119.788 105.196 119.557 105.798 119.597 106.411L119.655 107.349L119.516 107.582C119.329 107.899 119.227 108.257 119.22 108.624L119.209 109.236L118.997 109.412C118.306 109.988 117.787 111.078 117.639 111.667L116.993 114.237C116.978 114.297 116.952 114.375 116.922 114.466C116.804 114.82 116.618 115.387 116.678 116.109L116.168 116.955L115.688 117.568C115.647 117.621 115.594 117.682 115.538 117.75C115.174 118.185 114.879 118.551 114.682 118.992L114.206 120.053C114.09 120.115 113.968 120.187 113.846 120.271C113.846 120.271 112.394 121.269 112.381 121.278L110.76 122.443L109.747 122.908C109.577 122.987 109.419 123.086 109.275 123.207L108.282 124.032C107.993 124.272 107.671 124.435 107.543 124.471L105.842 124.938C105.324 125.08 104.88 125.366 104.49 125.619C104.388 125.684 104.263 125.765 104.204 125.797C103.859 125.986 103.655 126.011 103.207 126.069C102.781 126.123 102.248 126.191 101.597 126.412C100.95 126.632 100.331 126.733 99.5901 126.739L96.8159 126.761C96.5852 126.763 96.362 126.785 96.1481 126.806C96.0337 126.817 95.9099 126.83 95.8067 126.836C94.9795 126.433 94.2123 126.249 93.3551 126.249C93.1019 126.249 92.8412 126.264 92.5561 126.298L91.6444 126.401C91.0892 126.465 90.2733 126.793 89.8043 127.51C89.5117 127.956 89.3935 128.483 89.4629 128.999C89.2379 129.342 89.1141 129.745 89.1141 130.164V131.231C88.27 132.21 88.3281 133.131 88.542 133.752C88.5626 133.812 88.5851 133.87 88.6095 133.926C88.36 134.412 88.1837 135.082 88.4388 135.868L88.7783 136.907C88.7464 137.016 88.6808 137.183 88.5795 137.406C88.5063 137.571 88.4538 137.744 88.4238 137.922L88.2643 138.867C88.0786 139.972 88.2493 140.749 88.3919 141.253L87.7691 142.23C87.4728 142.696 87.3677 143.26 87.4784 143.8C87.5178 143.992 87.5122 144.005 87.4315 144.249C87.2946 144.663 87.0076 145.524 87.4371 146.548L87.5065 146.715L87.4596 146.775C86.9963 147.364 86.8782 148.156 87.1483 148.856L87.484 149.724C87.0001 150.215 86.7806 150.917 86.9082 151.605L87.1033 152.65C87.0826 152.727 87.0564 152.815 87.0357 152.885C86.9213 153.273 86.7938 153.712 86.79 154.2L86.7863 155.121L86.7375 156.103C86.6981 156.897 86.745 157.493 86.7769 157.887C86.3286 158.786 86.246 159.842 86.5387 160.86C86.4224 161.341 86.3717 161.83 86.3867 162.308L86.0491 163.323C85.6195 164.608 85.7752 165.863 85.8784 166.692C85.8934 166.808 85.9103 166.947 85.9215 167.065L85.7058 167.42C85.3025 168.078 85.2894 168.902 85.6664 169.571L85.1412 170.716C84.8955 171.25 84.8824 171.862 85.1056 172.406C85.2913 172.86 85.265 173.238 85.1787 174.124V174.154C85.1712 174.212 85.1675 174.27 85.1656 174.326L85.1543 175.14L84.9218 176.425C84.7248 177.508 85.1 178.335 85.3944 178.858C85.1787 179.151 84.9874 179.52 84.9199 179.982L84.6723 181.692C84.6667 181.736 84.6479 181.807 84.6291 181.884C84.5372 182.255 84.3515 182.998 84.6685 183.866C84.269 184.619 84.2746 185.311 84.2765 185.703C84.2765 185.761 84.2765 185.836 84.2765 185.879C83.9839 186.466 83.982 187.149 84.2521 187.73L84.1865 188.569C84.1771 188.698 84.179 188.828 84.1921 188.957L84.2071 189.1C84.2071 189.1 82.3764 189.075 82.3651 189.075C82.3501 189.075 80.7857 189.107 80.7857 189.107C80.7501 189.107 80.7144 189.109 80.6807 189.113C80.6807 189.113 79.3695 189.205 79.362 189.205C79.362 189.205 76.5184 189.441 76.5034 189.443L74.2694 189.678L72.7575 189.844L72.433 189.854V189.858Z" fill="black"/>
</g>
<defs>
<clipPath id="clip0_137_2325">
<rect width="250" height="250" fill="white"/>
</clipPath>
</defs>
</svg>
