<?xml version="1.0" standalone="no"?>
<!DOCTYPE svg PUBLIC "-//W3C//DTD SVG 20010904//EN"
 "http://www.w3.org/TR/2001/REC-SVG-20010904/DTD/svg10.dtd">
<svg version="1.0" xmlns="http://www.w3.org/2000/svg"
 width="612.000000pt" height="408.000000pt" viewBox="225 110 169 183"
 preserveAspectRatio="xMidYMid meet">
<metadata>
Created by potrace 1.16, written by Peter Selinger 2001-2019
</metadata>
<g transform="translate(0.000000,408.000000) scale(0.100000,-0.100000)"
fill="#000000" stroke="none">
<path d="M3477 2887 c-75 -19 -148 -90 -196 -190 -84 -176 -81 -331 9 -462 33
-48 113 -107 163 -119 l28 -7 -2 -413 c-1 -281 2 -420 10 -433 28 -54 105 -31
114 34 3 21 6 205 6 408 0 204 0 377 0 387 1 9 20 26 46 38 43 21 135 97 135
112 0 4 11 23 24 43 37 55 52 158 37 257 -7 44 -16 88 -21 97 -4 9 -21 42 -37
74 -72 142 -188 206 -316 174z m124 -130 c77 -51 133 -179 132 -299 -2 -128
-81 -236 -181 -246 -56 -5 -93 10 -141 59 -63 62 -83 165 -55 276 28 114 72
183 139 217 41 22 66 20 106 -7z"/>
<path d="M2383 2879 c-36 -13 -44 -75 -46 -334 -1 -132 19 -255 44 -271 5 -3
9 -14 9 -24 0 -25 73 -87 137 -116 l53 -24 -1 -417 0 -418 26 -22 c32 -28 43
-28 74 -4 l25 19 1 414 c1 228 5 420 9 426 4 7 13 12 21 12 22 0 113 57 141
88 37 40 73 124 80 184 6 45 8 283 5 414 -1 53 -20 77 -60 77 -56 0 -59 -13
-63 -273 -3 -224 -4 -237 -26 -280 -68 -128 -209 -150 -300 -46 -12 15 -22 32
-22 39 0 7 -6 19 -12 25 -9 9 -13 76 -13 250 0 245 -5 274 -43 284 -10 3 -27
1 -39 -3z"/>
<path d="M2617 2877 c-10 -7 -21 -33 -25 -62 -6 -40 -8 -324 -3 -407 1 -26 46
-51 76 -44 13 3 30 16 36 29 15 27 20 408 6 450 -14 43 -56 59 -90 34z"/>
</g>
</svg>
