<?xml version="1.0" standalone="no"?>
<!DOCTYPE svg PUBLIC "-//W3C//DTD SVG 20010904//EN"
 "http://www.w3.org/TR/2001/REC-SVG-20010904/DTD/svg10.dtd">
<svg version="1.0" xmlns="http://www.w3.org/2000/svg"
 width="500.000000pt" height="500.000000pt" viewBox="95 74 315 336"
 preserveAspectRatio="xMidYMid meet">
<metadata>
Created by potrace 1.16, written by Peter Selinger 2001-2019
</metadata>
<g transform="translate(0.000000,500.000000) scale(0.100000,-0.100000)"
fill="#000000" stroke="none">
<path d="M3288 4163 c-16 -10 -28 -28 -32 -47 -4 -27 2 -37 47 -81 29 -27 98
-86 152 -130 55 -44 109 -89 121 -100 12 -12 33 -30 48 -41 26 -19 25 -19
-381 -21 -342 -2 -576 -3 -851 -3 -23 0 -46 -1 -50 -1 -4 -1 -9 -1 -12 0 -12
4 -624 1 -712 -3 -59 -3 -108 -11 -127 -20 -16 -9 -38 -16 -47 -16 -9 0 -39
-13 -66 -30 -26 -16 -53 -30 -58 -30 -6 0 -10 -4 -10 -10 0 -5 -5 -10 -11 -10
-13 0 -139 -120 -139 -132 0 -5 -13 -26 -29 -46 -30 -39 -62 -115 -83 -197
-10 -38 -13 -189 -13 -622 0 -636 -4 -598 68 -610 31 -5 40 -1 67 25 l30 30 1
144 c1 79 1 146 0 151 -2 12 0 458 3 647 1 96 6 183 10 192 4 9 5 21 2 27 -3
5 1 16 9 24 8 9 15 27 15 41 0 14 5 26 11 26 5 0 15 14 20 30 6 17 14 30 19
30 4 0 10 9 13 20 3 11 12 20 21 20 9 0 16 4 16 10 0 10 46 59 58 61 21 4 82
37 92 50 3 4 28 12 55 18 28 6 59 14 70 17 11 2 40 4 65 3 44 -1 289 -1 380 0
278 4 1570 -2 1568 -8 -3 -7 -156 -144 -218 -195 -13 -12 -48 -44 -77 -71 -58
-56 -69 -94 -40 -138 22 -33 85 -48 99 -23 5 9 15 16 22 16 8 0 16 7 20 15 3
8 10 15 17 15 6 0 25 15 43 33 18 17 70 66 116 107 47 41 94 84 106 95 11 11
40 36 65 56 87 71 167 154 173 180 4 18 0 32 -14 47 -11 12 -20 26 -20 32 0 5
-6 10 -13 10 -7 0 -18 9 -25 20 -7 11 -18 20 -26 20 -8 0 -16 6 -19 14 -3 8
-21 22 -40 31 -19 9 -43 24 -53 33 -11 9 -44 37 -75 62 -73 59 -153 126 -203
171 -98 85 -125 95 -178 62z"/>
<path d="M3920 3141 c-14 -3 -34 -11 -45 -18 -20 -11 -20 -24 -23 -560 -1
-309 -7 -570 -12 -598 -6 -27 -12 -61 -14 -75 -2 -13 -9 -26 -15 -28 -6 -2
-11 -12 -11 -22 0 -10 -7 -20 -15 -24 -8 -3 -15 -15 -15 -26 0 -11 -4 -20 -10
-20 -5 0 -10 -6 -10 -14 0 -16 -100 -109 -108 -101 -3 3 -12 -4 -19 -15 -8
-11 -20 -20 -26 -19 -25 3 -38 -1 -32 -11 3 -5 -2 -10 -12 -10 -11 0 -23 -4
-29 -9 -11 -12 -136 -26 -189 -21 -22 2 -51 3 -65 2 -30 -2 -1091 -5 -1175 -4
-33 1 -73 1 -90 1 -16 -1 -43 -1 -60 0 -16 0 -39 1 -50 1 -11 0 -132 0 -269 1
l-248 0 53 51 c30 27 103 95 162 151 60 56 115 108 123 115 27 26 54 112 34
112 -5 0 -11 9 -15 19 -7 24 -66 36 -97 20 -13 -7 -54 -42 -93 -79 -38 -37
-108 -103 -155 -146 -46 -43 -97 -91 -113 -106 -16 -16 -30 -28 -33 -28 -10 0
-101 -95 -125 -132 -27 -40 -27 -43 -12 -72 20 -40 53 -76 70 -76 7 0 13 -7
13 -15 0 -8 5 -15 10 -15 6 0 21 -11 34 -25 13 -14 27 -25 31 -25 4 0 20 -12
35 -27 33 -33 67 -63 140 -123 30 -25 72 -62 92 -82 20 -21 41 -38 45 -38 5 0
13 -8 20 -18 6 -11 27 -27 47 -36 36 -17 37 -17 78 11 78 53 62 84 -121 236
-47 40 -110 93 -138 119 l-53 48 353 -1 c193 0 431 0 527 0 96 0 252 -2 345
-5 294 -7 789 -2 865 9 64 9 155 39 176 58 11 11 27 19 35 19 9 0 26 11 39 25
13 14 29 25 35 25 10 0 95 87 95 97 0 2 15 25 33 51 18 26 39 63 47 82 7 19
17 40 21 45 9 14 21 71 26 125 7 98 8 985 0 991 -4 3 -3 17 4 31 8 18 8 31 1
44 -7 12 -7 26 -1 36 6 11 6 19 -1 23 -5 3 -10 16 -10 29 0 23 -28 57 -46 55
-5 -1 -20 -4 -34 -8z"/>
</g>
</svg>
