<svg width="250" height="250" viewBox="0 0 250 250" fill="none" xmlns="http://www.w3.org/2000/svg">
<g clip-path="url(#clip0_137_2498)">
<path d="M104.27 119.52L104.33 119.59L104.27 119.65L104.18 119.59L104.27 119.52Z" fill="black"/>
<path d="M171.71 144.6L171.42 144.83L171.73 144.79L171.77 147.31C171.66 147.31 171.68 147.36 171.73 147.47L171.75 147.98L171.63 149.18L171.56 149.87L171.07 149.51C169.92 149.62 169.59 148.96 168.94 149.36L168.06 149.9C167.94 149.97 167.59 149.84 167.49 149.72C167.04 149.17 166.33 149.1 165.61 149.37C165.47 149.42 165.14 149.36 164.91 149.31L164.65 149.64C164.5 149.55 164.18 149.39 164.01 149.39C163.86 149.39 163.64 149.55 163.45 149.69C162.6 150.32 161.94 149.51 161.68 149.47L160.91 149.34C160.33 149.06 160.08 149.31 159.5 149.18L158.48 148.94L158.46 149.51L157.95 149.48C157.84 149.68 157.78 149.69 157.82 149.5C157.87 149.36 157.87 149.26 157.76 149.45C157.24 149.52 156.79 149.53 156.29 149.51L154.75 149.43L153.49 149.34C152.89 149.62 151.99 149.66 151.35 149.52C150.76 149.39 150.35 149.43 149.76 149.61C149.42 149.72 148.9 149.56 148.5 149.52L147.7 149.45L146.79 149.36L145.93 149.5C145.59 149.55 145.25 149.58 144.9 149.56L143.28 149.5L141.65 148.97C140.25 149.82 138.86 148.78 138.3 149.09L137.82 149.36H137L135.19 149.13H134.37L133.02 149.14C131.86 149.15 131.37 148.79 130.71 149.07C129.92 149.41 129.21 149.46 128.39 149.23C127.94 149.1 127.44 149.23 126.95 149.26L125.41 149.33C124.75 149.51 124.26 149.52 123.63 149.4L122.9 149.26C122.67 149.22 122.39 149.22 122.13 149.23L120.72 149.27C120.17 149.29 119.52 149.39 119.01 149.13C118.44 148.84 117.88 148.75 117.28 149.02C116.87 149.2 116.71 148.82 116.02 148.85L114.97 148.89L113.11 148.92L112.12 149.3C111.34 149.29 110.65 148.98 110.04 148.58L109.05 148.7L108.05 148.82L106.7 148.97C106.29 149.02 105.93 149 105.53 149H104.81L103.89 148.91L103.06 148.73L101.94 149.03C101.37 149.18 100.23 149.1 99.77 148.83C99.1 148.43 98.4601 148.17 97.7101 148.1C97.5001 148.2 97.1301 148.36 96.9401 148.36L95.65 148.38C95.3 148.38 95.02 148.4 94.66 148.35C93.17 148.13 93.12 148.73 92.51 148.68L91.7101 148.61C91.6601 148.61 91.5001 148.7 91.4501 148.73C91.1901 148.89 92.37 148.96 92.92 150.11C93.16 150.61 94.56 150.51 94.98 151.52C95.16 151.72 95.66 151.96 95.98 152.1L96.14 152.76C96.42 153.06 96.64 153.3 96.8 153.62L97.39 154.77C97.78 155.53 98.43 155.01 99.17 155.69L100.06 156.51L100.66 156.79L100.95 157.37L101.32 158.1L101.61 158.39C101.53 158.65 101.59 158.88 101.75 158.99L102.88 159.77L103.51 160.35L104.1 160.89L104.77 161.59L105.19 162.33C105.28 162.49 105.54 162.71 105.71 162.9C105.97 163.18 106.27 163.76 106.59 163.94L107.35 164.36L107.62 164.79C107.9 164.94 108.2 165.17 108.35 165.41L108.93 166.31L108.55 166.75C108.35 166.98 108.06 167.27 107.84 167.43C107.76 167.49 107.67 167.62 107.56 167.74L106.94 168.45L106.51 168.76L106.16 169.26C106.07 169.39 105.78 169.64 105.64 169.74L104.84 170.28L104.62 170.32L104.68 170.43L104.63 170.56L104.53 170.45L104.41 170.68C104.41 170.68 104.37 170.74 104.35 170.75L103.98 170.96L103.85 170.98L103.36 171.53L103.07 171.47L102.94 171.78L102.84 171.86L102.25 172.31C102.06 172.45 101.88 172.65 101.7 172.87L101.26 173.18C100.77 173.53 100.98 172.91 100.01 172.41C99.48 172.14 99.77 171.74 99.5 171.45L99.02 170.93C98.79 170.67 98.27 170.51 97.98 170.26L97.39 169.76L96.52 168.8L95.9401 167.98C95.6601 167.58 95.29 167.44 94.88 167.15L94.1901 166.66C94.1101 166.05 93.7601 165.9 93.3101 165.65L92.36 165.13V164.33L91.41 163.81C91.23 162.99 90.6101 163.22 89.9601 162.33C89.5701 161.8 88.93 161.92 88.42 161.3C88.14 160.97 87.95 160.88 87.6 160.71L86.67 160.27L86.77 159.79L86.4 159.09L85.74 157.74C85.62 157.5 85.3401 157.22 85.0901 157.21H84.3101C84.3701 156.75 84.26 156.35 83.9 156.15L83.1901 155.76C82.9101 155.18 82.2701 155.44 82.0701 154.62C82.0001 154.36 81.77 154.16 81.5 154.1C80.59 153.91 81.17 153.1 80.4 152.86L79.8301 152.69C79.6201 152.17 79.4201 151.59 79.0701 151.21L78.17 150.23C78 150.05 77.73 149.55 77.51 149.43L76.4601 148.88L76.48 148.42L75.73 147.87L75.67 147.59C75.67 147.59 75.3501 147.81 74.5801 147.05L74.1801 146.65C73.8401 146.38 73.51 146.04 73.23 145.69L72.5701 145.32C71.9801 144.99 71.72 144.46 71.38 143.9L71 143.28L71.66 142.26C71.76 142.11 72.06 141.92 72.25 141.78L73.03 141.2L73.4701 140.79L74.05 140.14C74.69 139.42 75.2 138.56 75.91 137.92L77.2201 136.74L77.78 136.21L78.42 135.59L79.15 135.1C79.41 134.93 79.66 134.73 79.89 134.48L81.12 133.16C81.33 132.94 81.5401 132.63 81.6901 132.33L82.26 131.17C82.26 131.17 82.32 131.11 82.36 131.07L82.88 130.41L83.3201 129.85L83.79 129.44L83.73 129.38L83.78 129.27L83.86 129.35L84.29 128.96L84.92 128.5C85.31 128.22 85.73 128 86.04 127.64L86.51 127.1C87.03 126.5 87 125.99 87.42 125.44L88.39 124.18L89.0901 123.53L89.92 122.74C90.51 122.18 91.07 121.73 91.61 121.07L92.37 120.49L93.4401 119.46L94.36 118.42L95.1 117.38L95.5901 116.68L96.17 116.13L96.6801 115.54L96.9501 115.18C97.6001 114.92 97.43 114.51 97.73 114.03C97.84 113.85 98.29 114.73 98.85 115.06L99.48 115.42C99.55 115.46 99.65 115.62 99.73 115.74L99.8301 115.6L100.31 115.99L101.25 116.69C101.34 116.75 101.47 116.93 101.53 117.02L102.3 117.7L103.37 118.88L104.18 119.68L104.64 119.83L105.15 120.33L105.43 120.63L106.02 121.3C106.1 121.39 106.34 121.56 106.27 121.64C106.22 121.7 106.08 121.85 106.02 121.89L105.23 122.4L104.73 123.15L104.56 123.44C104.53 123.5 104.51 123.53 104.49 123.55L103.37 124.51L103.02 124.92L101.83 126.21L100.98 127.02L100.91 127.1L100.72 127.24C100.38 127.72 100.01 128.11 99.51 128.46C98.91 128.88 98.54 128.7 98.51 128.86L98.4501 129.15C98.4201 129.32 98.2701 129.64 98.1801 129.83L97.86 130.51C97.05 130.63 97.3701 131.23 96.9401 131.69C96.5501 132.1 96.05 132.21 95.53 132.26L94.99 132.84C94.77 133.07 94.7601 133.16 94.3201 133.25L94.05 134.16L93.5901 134.41C93.2101 135.06 92.5601 134.49 92.1801 135.21L91.78 135.97C91.68 136.16 91.2 136.29 91.05 136.41L90.5701 136.96C90.5001 137.04 90.4 137.22 90.39 137.31C90.38 137.4 90.66 137.52 90.76 137.52L91.7001 137.55C92.1401 137.56 92.3301 137.47 92.7001 137.88L93.8 137.56L94.8301 137.73L95.98 137.83L97.4 138.04C98.46 138.2 98.52 137.72 99.36 137.62C99.92 138.01 100.45 138.02 101.05 137.93L102.16 137.78L102.75 137.96L103.93 137.63C104.2 137.56 104.73 137.8 104.99 137.97L105.6 137.89L106.57 138.02L107.31 138.25C108.02 137.93 108.25 138.44 108.9 138.22C109.21 138.12 109.54 138.13 109.82 138.2L110.85 138.46C111.19 138.55 111.45 138.57 111.74 138.34C112.06 138.08 112.37 138.09 112.74 138.28C113.45 138.66 113.92 137.74 114.65 138.09L115.32 138.02L116.36 138.32L117.24 138.38L118.7 138.46L119.65 138.48C119.77 138.48 120.07 138.3 120.19 138.25L120.93 138.46L122.86 138.52C123.09 138.52 123.48 138.61 123.65 138.54C124.71 138.08 124.71 138.89 125.89 138.63C126.25 138.55 126.87 138.9 127.21 138.9L128.73 138.93L129.56 138.88L130.63 138.7C131.43 138.56 131.58 138.85 132.03 138.62C132.96 138.14 133.38 139.04 134.08 138.83C136 138.23 136.48 139.06 136.73 138.96L137.85 138.54C138.04 138.47 138.48 138.82 138.65 138.93L139.48 138.9C139.74 138.79 140.15 138.7 140.37 138.77L141.36 139.09C142.08 139.32 142.9 138.24 143.69 139.09C143.76 139.16 143.98 139.28 144.06 139.22L144.31 139.02L145.31 138.23L146.99 138.26L147.93 138.31V138.46C147.93 138.46 148.15 138.43 148.18 138.43L149.7 138.55L150.45 138.52C151.83 138.6 153.11 138.55 154.44 138.32L155.36 138.16L156.1 138.06L157.24 138.04C157.65 138.04 158.43 137.68 158.81 137.79L160.3 138.22L161.02 137.91C161.36 137.77 161.65 137.73 162.01 137.81L162.6 137.83C163 138.03 163.36 138.13 163.79 138.16L164.92 138.25L167.1 138.27L168.04 138.14C168.43 138.08 168.78 138.17 169.1 138.37L169.42 138.57L170.1 138.42C170.23 138.39 170.61 138.33 170.72 138.4L171.6 138.97L171.9 139.19V139.82L171.87 140.79L171.85 141.68L171.77 142.26L171.7 142.65L171.8 142.81C171.8 142.81 171.8 142.9 171.79 142.94V143.01C171.82 143.15 171.7 143.42 171.7 143.57L171.72 144.54L171.71 144.6ZM97.9701 114.46L97.91 114.52L97.9701 114.58L98.03 114.52L97.9701 114.46ZM100.19 116.19L100.13 116.25L100.19 116.31L100.25 116.25L100.19 116.19ZM104.77 122.61L104.71 122.67L104.77 122.73L104.83 122.67L104.77 122.61ZM103.41 124.22L103.35 124.28L103.41 124.35L103.48 124.28L103.41 124.22ZM82.39 131.31V131.19C82.39 131.09 82.39 131.19 82.39 131.31ZM171.63 142.97C171.63 142.97 171.65 142.92 171.67 142.89L171.63 142.97ZM158.29 149.06L158.23 149.12L158.29 149.18L158.38 149.12L158.29 149.06ZM105.39 169.33L105.33 169.39L105.39 169.45L105.45 169.39L105.39 169.33ZM103.53 170.94L103.47 171L103.53 171.06L103.59 171L103.53 170.94ZM102.71 171.77C102.78 171.75 102.89 171.72 102.82 171.74L102.71 171.77Z" fill="black"/>
<path d="M103.84 170.99L103.97 170.97C103.97 170.97 103.82 170.99 103.84 170.99Z" fill="black"/>
<path d="M144.18 79.86V79.72L144.74 79.3199L145.05 79L145.19 78.95L145.71 78.47C145.71 78.47 145.88 78.2899 145.92 78.3199C145.96 78.3499 146.06 78.4499 146.05 78.4399C146.19 78.2399 146.41 77.95 146.57 77.85L146.92 77.62L147 77.5199L147.95 76.75L148.32 76.35H148.49L148.66 76L149.18 76.4399L150.03 77.08L150.31 77.7999C150.61 78.5499 151.7 78.88 152.54 79.72L153.31 80.48L153.57 81.0499L154.55 82.0399C155.71 82.2999 155.55 83.17 156.31 83.6L157.44 84.24L157.5 85.08L158.51 85.5199C158.53 86.3399 159.19 86.0799 159.84 87.0399C160.22 87.5999 160.94 87.4799 161.37 88.0399C161.64 88.3899 161.84 88.43 162.21 88.61L163.18 89.1L163.03 89.62L163.7 90.71C163.81 90.89 163.96 91.25 164.02 91.47C164.26 92.33 164.88 92.02 165.42 92.13C165.6 92.17 165.33 92.9699 166.04 93.2799L166.63 93.5399C166.81 94.1899 167.47 93.8399 167.75 94.6799C167.86 94.9999 168.06 95.1999 168.39 95.2799C169.16 95.4699 168.78 96.42 169.36 96.5L170.03 96.59C170.28 97.67 170.98 98.3799 171.66 99.1699C172.05 99.6199 172.33 100.05 172.97 100.25C173.55 100.43 173.23 100.99 174.1 101.51C174.1 101.59 174.1 101.74 174.15 101.73C174.2 101.72 174.45 101.64 174.49 101.67L175.37 102.38L175.7 102.69L176.62 103.63C176.72 103.67 176.96 103.78 177.06 103.86L177.69 104.31C177.87 104.44 178.1 104.76 178.22 104.98L178.83 106.1L178.34 106.89C178.15 107.2 177.91 107.42 177.61 107.62L176.92 108.08C176.55 108.33 176.23 108.72 175.94 109.05L175.69 109.34L175.1 110.1L174.67 110.7L174.19 111.25L172.99 112.3L172.59 112.74L172.18 113.08L171.32 113.88L170.32 114.55L169.17 115.7C168.97 115.9 168.59 116.29 168.45 116.53L167.55 118.18L167.48 118.26L167.06 118.89L166.96 118.97L166.57 119.49L166.05 119.97L165.59 120.36L164.35 121.24C163.75 121.67 163.19 122.27 162.91 122.94L162.64 123.57L162.12 124.3L161.44 125.21L160.85 125.74L160.38 126.17L160.04 126.45L159.64 126.94L159.57 127.01C159.45 127.06 159.18 127.19 159.08 127.3L158.61 127.83L157.71 128.68L156.79 129.48L155.47 130.84C155.47 130.84 155.4 131.02 155.38 131.05L154.98 131.61L154.38 132.46C154.34 132.53 154.22 132.71 154.16 132.77L153.65 133.25L153.13 133.86L152.8 134.15C152.15 134.74 152.23 135.49 152.09 135.36L151.87 135.16L151.17 134.43C150.99 134.41 150.98 134.4 150.96 134.33L150.38 133.97L150.14 133.79L148.58 132.65L148.33 132.37L147.56 131.68L147.2 131.23L146.84 130.91C146.75 130.83 146.54 130.71 146.39 130.63L146.56 130.5L146.26 130.27L145.22 129.48L144.72 129.09C144.61 129.01 144.46 128.78 144.39 128.67L143.96 128.23L143.53 127.9L143.69 127.61C143.69 127.61 143.72 127.58 143.75 127.56L144.59 126.97L145.04 126.33L145.85 125.4L146.31 124.95C146.36 124.96 146.51 125 146.52 124.95C146.53 124.9 146.55 124.77 146.58 124.74L147.14 124.11L147.94 123.28L149.16 122.04C149.73 121.46 150.25 120.66 151.28 120.54L151.5 119.93L151.95 118.89L152.47 118.77L152.72 117.9L153.44 117.3C153.6 117.17 154.16 117.22 154.3 117.07L154.82 116.57C155.02 116.37 155.19 116.27 155.53 116.11L155.77 115.31L156.53 114.69L157.35 114.59L157.9 113.85C157.93 113.46 158.21 113.13 158.59 113.06C158.97 112.99 158.82 112.79 159.15 112.51L159.46 112.24C159.53 112.18 159.27 111.88 159.16 111.88L157.81 111.81C157.16 111.78 157.25 111.39 156.45 111.67C156.12 111.79 155.8 111.76 155.44 111.72L154.3 111.58L153.24 111.51L152.01 111.26C151.8 111.22 151.37 111.46 151.16 111.57C150.4 111.95 149.98 111.31 149.34 111.38L148.22 111.5C147.46 111.58 147.24 111.4 146.58 111.53L145.7 111.71C145.46 111.76 145.02 111.51 144.83 111.38C144.19 111.47 143.49 111.49 142.87 111.19C142.31 110.91 142.26 111.41 141.76 111.21C140.9 110.86 140.7 111.51 140.04 111.19C139.69 111.03 139.42 110.96 139.05 110.91L138.35 110.81C137.92 111.33 137.42 111.24 136.83 111C136.55 110.89 135.98 111.27 135.72 111.39L134.58 111.3L133.78 111.16L133 111.01C132.64 110.94 132.27 110.97 131.86 111.04L131.11 110.86L130.24 110.9C129.77 111.03 129.45 111.02 128.99 110.99L127.1 110.87C126.59 110.84 126.24 110.76 125.72 111.02C125.55 111.11 125.18 110.93 124.94 110.79C124.54 110.55 124.02 110.92 123.06 110.59C122.73 110.48 122.47 110.44 122.15 110.49C121.56 110.58 121.2 110.38 120.24 110.51L118.73 110.71L117.9 110.69C117.5 110.99 117 111 116.51 110.67C115.83 110.2 114.64 111.11 113.7 110.68C113.49 110.58 113.14 110.38 112.98 110.45L112.24 110.76C111.95 110.88 111.6 110.75 111.33 110.57C110.9 110.29 110.41 110.5 109.9 110.63C109.25 110.79 108.61 109.91 107.11 110.56C106.4 110.87 106.2 110.05 105.7 110.22L104.77 110.92C104.52 111.11 104.32 111.13 104.01 111.14C103.28 111.16 102.54 111.14 101.85 110.93C101.77 110.93 101.64 110.92 101.46 110.91L100.17 110.84L99.3202 110.86H98.5602L98.0702 110.79L97.1201 110.82L94.3202 111.2L93.1702 111.3L92.1702 111.27L91.8601 111.24C91.8601 111.24 91.8501 111.14 91.8501 111.13L91.0302 110.98L90.0402 110.67C89.5302 110.51 88.7001 110.47 88.5001 110.69C88.1801 111.05 87.6302 111.48 87.1602 111.21C86.2802 110.71 85.4101 110.42 84.3501 110.62L83.6702 110.74C83.2902 111 82.6202 111.04 82.3102 110.45C81.9402 110.42 81.5501 110.45 81.1101 110.53C80.5701 110.63 80.3901 110.01 79.9001 110.49C79.3301 111.06 78.5501 110.83 78.1001 110.26L77.3701 109.81C77.4701 109.52 77.5302 109.32 77.5402 109.07L77.6501 107.5L77.7301 106.78L77.6301 106.45L77.5602 105.88L77.4502 105.06L77.4702 104.79C77.4702 104.79 77.4301 104.73 77.4001 104.68C77.4001 104.79 77.4001 104.69 77.4001 104.55L77.5101 104.71L77.6602 103.42L77.8102 102.53L77.9302 101.85C77.9502 101.74 77.9302 101.58 77.9302 101.41L77.9602 100.72L78.0402 99.45L78.8801 99.36C79.5001 99.09 80.6302 98.8999 80.7002 98.9299L82.3002 99.48C83.1702 99.36 83.7002 99.62 84.3202 99.83C84.6102 99.93 85.2502 99.7199 85.5602 99.6599L86.1001 99.88C86.6101 99.8 86.9901 99.79 87.5101 99.86L88.6902 100.03C88.8302 100.05 89.1201 99.77 89.2501 99.74L90.0802 99.5699L90.8002 99.83C91.2702 100 91.7401 99.83 92.1501 99.63C92.3801 99.59 92.5302 99.5499 92.8402 99.4399L93.5702 99.8999L95.7102 100C96.0202 100.01 96.3201 99.9799 96.6401 99.9399L97.6001 99.8199C98.3801 99.7299 98.8102 100.11 99.5602 99.9099C100.31 99.7099 100.99 99.76 101.69 100.01L102.15 99.95C102.38 99.98 102.81 100.06 103 100.03L103.87 99.88L104.91 99.83H105.73C106.17 99.84 106.51 99.81 106.93 99.98L107.99 100.4C108.21 100.49 109.01 99.99 109.57 100.09L111.38 100.42C111.59 100.21 111.94 99.9899 112.14 100.02L113.44 100.16L114.41 100.28L117.49 100.35C118.18 100.37 118.75 100.52 119.42 100.25C120.09 99.98 120.78 100.03 121.45 100.21C122.44 100.48 122.88 100 123.4 100.11C123.88 100.21 124.3 100.19 124.77 100.03C125.18 99.8899 125.72 99.9599 126.17 100.03L127.22 100.21C127.49 100.26 128.03 100.21 128.37 100.18L129.64 100.11C129.93 100.09 130.49 100.19 130.76 100.25C131.39 100.66 132.08 100.73 132.72 100.29L133.41 100.61L134.04 100.57L136.09 100.53C136.41 100.53 136.77 100.51 137.06 100.38C137.95 99.96 138.78 100.22 139.57 100.79C140.02 100.86 140.72 100.76 141.21 100.71L142.1 100.6L143.15 100.5C143.77 100.13 144.02 100.52 144.63 100.5L145.44 100.47C146.31 100.44 146.62 100.95 147.21 100.5L147.88 100.39L148.71 100.34C149.14 100.31 149.66 100.47 150.04 100.63L151.64 101.31C151.83 101.39 152.23 101.13 152.41 101.13L155.04 101.09C155.41 101.09 155.96 101.27 156.23 101.14L156.84 100.84L158.36 100.78C158.12 100.29 157.67 100.58 157.04 99.62C156.45 98.71 156.13 99.0799 155.37 98.5499C154.74 98.1099 154.92 97.77 153.84 97.37C153.58 97.27 153.9 96.6299 153.18 96.2799L152.97 95.73C152.8 95.56 152.53 95.2399 152.48 95.0299C152.23 93.8299 151.3 94.39 150.7 93.86L149.63 92.9099L149.13 92.71L148.6 91.74L148.18 91.0599L148.16 90.62C148.16 90.54 147.91 90.4499 147.83 90.3899L146.52 89.36L145.96 88.8899L145.65 88.49C145.52 88.41 145.23 88.2499 145.16 88.1399L144.78 87.5399L144.17 86.6499L143.41 85.6699C143.07 85.2399 142.51 85.38 142.16 84.71L141.71 84.4099L141.29 83.87L140.83 83.1499L141.19 82.76L142.06 81.8999L142.54 81.37L143.21 80.72L143.36 80.46L143.43 80.36C143.51 80.25 143.76 80.0999 143.89 80.0499L144.11 79.97L144.18 79.86ZM148.28 76.6399L148.17 76.7L148.28 76.76L148.34 76.7L148.28 76.6399ZM147.03 77.6899H147.13C147.01 77.6899 146.93 77.6899 147.03 77.6899ZM146.31 78.37L146.25 78.4299L146.31 78.49L146.37 78.4299L146.31 78.37ZM144.45 79.85L144.39 79.9099L144.45 79.97L144.51 79.9099L144.45 79.85ZM146.43 125.08L146.36 125.15L146.43 125.21L146.49 125.15L146.43 125.08ZM145.07 126.57L145.01 126.63L145.07 126.69L145.13 126.63L145.07 126.57Z" fill="black"/>
</g>
<defs>
<clipPath id="clip0_137_2498">
<rect width="250" height="250" fill="white"/>
</clipPath>
</defs>
</svg>
