<svg width="250" height="250" viewBox="0 0 250 250" fill="none" xmlns="http://www.w3.org/2000/svg">
<g clip-path="url(#clip0_137_2545)">
<path d="M172.971 176.017C172.971 175.86 172.99 175.527 172.879 175.407C172.196 174.668 172.63 174.05 172.491 173.126L171.873 172.988C171.365 172.877 171.642 172.249 171.051 171.677L170.691 171.612C170.441 171.566 170.903 170.92 170.488 170.532L169.61 169.719L169.296 169.101C169.149 168.824 168.927 168.417 169.084 168.057L168.807 167.706L168.696 167.513C168.604 167.356 168.05 167.605 168.013 167.355L167.884 166.432L167.376 165.518C166.222 165.499 166.979 164.465 166.046 164.354L165.732 164.318C165.52 164.29 165.815 163.505 165.686 163.256L165.289 162.48C165.16 162.24 165.058 162.037 164.91 161.861L164.504 161.372L163.895 160.67C163.812 160.578 163.581 160.393 163.581 160.283L163.609 159.359L162.814 159.064L162.741 157.965L162.039 157.596C161.725 157.429 161.503 157.217 161.346 156.885L160.912 155.952L160.312 155.204C160.1 154.946 160.081 154.668 159.813 154.456C159.333 154.078 159.915 153.32 159.546 153.256L158.863 153.127C158.539 153.062 158.909 152.305 158.244 151.76L157.496 151.15C157.477 150.975 157.524 150.643 157.598 150.347C157.598 150.366 157.524 150.2 157.524 150.19L156.434 149.904C156.286 149.867 156.037 149.645 155.963 149.525L155.298 148.279L154.633 147.088C154.144 146.211 154.227 145.694 153.867 145.343C153.655 145.13 153.119 145.499 152.851 144.973L152.344 144.004C152.242 143.8 152.02 143.542 151.827 143.32C151.54 142.997 152.02 142.12 151.319 142.083C150.626 142.055 150.164 141.52 150.026 140.892L149.767 139.793C149.324 139.618 149.232 139.156 149.343 138.787L149.084 138.242C148.742 137.522 148.179 137.928 147.893 137.189C147.45 136.044 146.508 135.814 146.674 135.37L146.822 134.964L146.129 134.936C145.899 134.706 145.705 134.622 145.326 134.567L146.24 133.764L146.785 133.33C147.08 133.099 147.274 132.933 147.487 132.591C147.736 132.185 148.382 132.185 148.706 130.966L149.25 130.523L149.934 129.516L150.728 128.556L151.392 128.224L151.605 127.429L151.78 126.765C151.771 126.303 151.762 125.721 152.187 125.416C152.999 124.826 152.519 124.17 152.768 123.865C153.064 123.496 153.682 122.905 153.876 122.508L154.246 121.742C154.486 121.234 154.356 121.012 154.606 120.689C154.92 120.292 154.947 120.061 154.957 119.562V118.879C155.206 118.63 155.372 118.344 155.418 118.048L155.538 117.245L155.686 116.589L155.806 116.054L155.898 115.352L156.222 114.281L156.286 113.884L156.425 113.247L156.545 112.6L156.73 111.649L156.896 110.772L157.007 109.858L157.062 109.322L157.099 107.411L157.034 106.626L156.979 105.693L156.951 105.047L156.868 103.551L156.813 103.099L156.776 102.822L156.646 101.972L156.628 101.843C156.637 101.437 156.6 101.012 156.526 100.56L156.443 100.061L156.323 99.9594L156.397 99.8672C156.397 99.8672 156.36 99.7655 156.351 99.7101L156.268 99.47L156.369 99.5439L156.443 99.4792L156.305 99.4055L156.231 98.5189L156.185 98.0205L156.065 96.58L155.926 95.6382L155.843 95.0196H155.769L155.64 94.2808V94.1977L155.603 94.0223L155.418 92.4526L155.289 92.0187L155.224 91.2614L155.114 91.1228C155.114 91.1228 155.114 91.123 155.114 91.1045V91.1228C155.049 91.1413 155.03 91.0213 155.077 91.0121L154.818 90.4303L154.504 89.9686L154.384 89.9411V89.7655L154.218 89.3315L154.144 89.1469C154.144 89.1469 154.033 89.1099 153.996 89.1099L154.052 88.6205C153.941 88.6205 153.959 88.5929 154.024 88.5006L154.006 87.5772C154.006 87.4203 153.673 87.1524 153.562 87.0324C153.405 86.6261 153.119 86.2476 152.851 85.9059L151.928 84.7332L151.374 83.7452L151.014 83.1266C150.959 83.0343 150.774 82.868 150.681 82.8126C149.98 82.4155 150.238 81.9355 149.814 81.52L149.186 80.9014C148.982 80.6982 148.798 80.4304 148.622 80.1811L148.17 79.5348L147.422 78.6484L146.84 78.0666C146.526 78.002 146.231 77.9003 146.019 77.7341L145.28 77.1617L144.301 76.34C143.959 76.0538 143.719 75.6935 143.332 75.4627L142.87 75.1858L141.568 74.1238C141.291 74.0777 140.866 73.9853 140.645 73.8375L139.509 73.1083L138.992 72.6926L138.438 72.6189L137.653 72.2586C137.256 72.074 136.905 71.7509 136.508 71.6308C136.12 71.52 135.742 71.437 135.409 71.2523C134.984 71.0215 134.569 70.7905 134.116 70.6705L132.971 70.3472L131.485 70.0981C131.042 70.0243 130.802 69.9226 130.358 69.9872C129.952 70.0518 129.444 69.8857 129.01 69.8118L127.856 69.6087L125.806 69.3317C125.345 69.267 124.717 69.387 124.273 69.2485C123.258 68.9345 122.307 68.9068 121.309 69.23C120.802 69.0176 120.266 69.0361 119.767 69.23C118.983 69.4424 118.207 69.5072 117.413 69.4056L116.037 69.2392C115.779 69.2115 115.483 69.2762 115.206 69.3039L114.384 69.3686L113.516 69.3964C112.519 69.4241 112.085 68.87 111.328 69.3686L110.008 69.5717C109.731 69.6179 109.426 69.6548 109.167 69.5348C108.152 69.0639 108.069 70.1257 107.145 70.255L105.705 70.4581C105.206 70.532 104.514 69.9595 103.913 70.9013C103.701 71.2337 103.332 71.3539 102.953 71.2523L102.316 71.6493L101.273 72.3326L100.885 72.4895C100.358 72.3325 99.7859 72.5449 99.435 72.9881L98.1147 73.6344L97.3391 74.0776L96.388 74.7332L96.0371 74.9825L95.4184 75.4812C95.1137 75.7212 94.6983 76.2014 94.4397 76.423L94.3566 76.4969L93.5349 77.2909L92.0944 78.4636L92.039 78.519L91.6881 78.8608L91.2633 79.1191C91.171 79.1745 91.0325 79.387 90.9494 79.4424L90.3677 79.8394L90.2846 79.8948L89.869 80.2273C89.6659 80.3935 89.195 80.6613 89.0565 80.8736L88.6225 81.5384L88.2163 82.12C87.9485 82.5079 87.2191 82.2125 87.1729 82.9142L86.7851 83.3944C86.1756 84.1516 85.437 84.4284 85.1784 85.121L84.7445 85.4442L84.5597 85.8782C84.0057 86.2014 84.3012 86.6354 84.0057 86.894C83.8118 87.0694 83.7472 87.3094 83.8765 87.5495L83.6271 88.1773L82.7407 88.4914L82.6484 88.9068C82.2052 89.2392 82.4268 89.5533 81.5127 90.1719C81.2819 90.3289 81.2357 90.532 81.2726 90.7813L81.4295 91.6677C81.1341 91.5753 80.654 91.6032 80.5524 91.7971L80.1553 92.5356L79.9984 93.376C79.943 93.6622 79.9707 93.7822 79.7491 93.9761C79.666 94.0407 79.5459 94.2345 79.4905 94.3546C79.1489 95.0194 79.7214 95.0841 79.509 95.6382L79.2412 96.3399C78.7149 96.9493 79.0474 97.4294 78.5303 97.6325C77.9947 97.8449 77.8284 98.8515 78.0777 99.6179L77.5145 100.006C77.1729 100.246 77.8192 101.003 77.5145 101.372C77.3391 101.594 77.0529 101.917 77.0067 102.157C76.9882 102.277 77.2099 102.563 77.2653 102.665L77.6069 103.339C77.69 103.505 77.4037 103.875 77.1913 103.948L77.2191 104.595L77.1636 104.982L77.0067 105.851C76.979 106.017 77.0436 106.377 77.0805 106.571C77.1175 106.792 77.376 107.208 77.4592 107.411L77.5145 108.307L77.2098 108.925C77.2191 109.175 77.2099 109.295 77.1452 109.553L77.4684 110.661C77.4869 110.735 77.7638 110.855 77.7453 110.929C77.7269 111.003 77.6807 111.169 77.6438 111.252L77.3668 111.834C77.847 113.044 76.5635 113.561 77.4869 114.41C77.6254 114.53 77.5515 114.927 77.57 115.112L77.6161 115.804L77.6623 116.331L77.7085 117.097L78.3086 117.568C78.7703 117.937 77.9116 118.491 78.5949 119.285L78.8442 119.581C79.0289 119.793 78.401 120.052 78.2625 120.458C78.4841 120.726 78.5487 120.837 78.6687 121.132L79.1489 121.585C79.1766 122.019 79.3244 122.351 79.666 122.628L79.8137 123.431L79.8506 124.188C79.8783 124.825 80.0077 124.816 80.0261 125.038L80.0907 125.998C80.1184 126.432 80.0907 126.792 80.3585 127.143L80.931 127.891L81.5127 128.621L81.9189 129.119C82.3621 129.664 81.9374 130.347 82.1867 130.726L82.5746 131.307C82.7316 131.547 83.2302 131.88 83.4702 132.065L83.858 132.905L84.135 133.44C84.2089 133.579 84.4766 133.745 84.6613 133.856L84.9753 134.401C85.6309 134.844 85.3353 135.278 85.6954 135.924C85.9448 136.377 86.3695 136.238 86.1941 136.737L86.5265 137.097L87.0805 137.346C87.2282 137.411 87.3483 137.503 87.5145 137.669L87.8285 137.752L88.0131 137.947L88.5856 138.279C88.6779 138.334 88.9642 138.362 89.0196 138.353L89.0381 138.519C89.0381 138.584 89.2689 138.519 89.786 138.833L90.1184 139.036L90.7001 139.876C90.8571 139.765 90.9032 139.784 90.7832 139.932C90.8386 140.135 91.0418 140.569 91.2265 140.633L92.1682 140.966C92.4544 141.068 92.7038 141.178 92.9439 141.344L93.581 141.778L94.1166 142.24C94.2274 142.332 94.5321 142.415 94.6891 142.462L95.64 142.776L96.1294 142.923C96.6742 143.09 96.7111 143.431 97.6068 143.837C97.9392 143.985 98.1885 144.114 98.4378 144.308C98.604 144.438 98.9642 144.705 99.1858 144.733L100.996 144.945C101.319 144.982 101.55 145.029 101.808 145.158L102.667 145.592L103.304 145.869L104.126 146.109L104.864 146.266C105.308 146.174 105.732 146.127 106.166 146.192C106.6 146.257 106.997 146.229 107.45 146.22L108.853 146.174C109.574 146.155 110.192 146.174 110.885 146.46C111.152 146.571 111.54 146.478 111.827 146.506L112.556 146.571L113.95 146.497L116.213 146.275L117.311 146.33L118.235 146.109L119.777 145.814L121.448 145.407C121.716 145.342 121.91 145.315 122.214 145.287C122.491 145.259 122.851 145.056 123.156 144.964L124.477 144.576L125.603 144.253L127.422 143.708L128.29 143.459L130.358 142.757L131.753 142.351L133.729 141.538C134.089 141.391 134.384 141.197 134.717 140.938C134.929 140.781 135.261 140.753 135.538 140.606L136.305 140.199L136.905 140.523C137.247 140.707 137.191 141.049 137.736 141.215V141.64C137.828 141.889 137.856 142.019 137.884 142.332L138.632 142.776C139.001 142.997 139.176 143.173 139.176 143.588L139.583 144.271C139.657 144.391 139.998 144.53 140.137 144.576L140.312 145.619C140.368 145.924 140.488 146.146 140.811 146.238L141.134 146.783L141.623 147.429C141.762 147.614 142.122 147.863 142.344 148.057L142.233 148.741L142.796 149.442L143.285 149.553C143.378 149.784 143.489 150.236 143.627 150.412L144.163 151.114C144.569 151.64 144.135 152.166 144.652 152.397L144.846 152.868L145.409 152.96C145.308 153.376 145.345 153.828 145.686 154.087L146.185 154.465C146.296 154.548 146.526 154.752 146.61 154.872L147.145 155.684L147.634 156.275L147.976 157.161L148.308 157.706C148.345 157.771 148.512 157.919 148.567 157.965V158.297C148.549 158.371 148.752 158.445 148.826 158.482L149.657 158.861C150.146 159.082 149.657 159.47 149.971 159.812L150.155 160.338L150.765 160.55L151.448 160.975C151.854 161.224 151.365 161.972 151.614 162.351L152.02 162.969L152.417 163.173L153.018 164.198C153.156 164.438 153.11 165.102 153.322 165.25L154.19 165.841C154.393 165.98 154.55 166.478 154.661 166.765C154.846 167.217 155.252 167.078 155.243 167.531L155.224 168.242C155.575 168.362 155.668 168.445 155.834 168.703L156.36 168.74C156.425 169.525 156.896 169.414 157.016 169.895L157.32 170.162C157.422 170.643 157.819 171.067 158.207 171.4C158.465 171.621 158.078 171.898 158.465 172.332L158.724 172.618L158.973 172.979L159.066 173.145C159.084 173.385 159.14 173.533 159.204 173.745L159.527 174.798L159.85 175.546C159.952 175.777 160.257 175.601 160.58 175.97L161.402 176.912C161.78 177.346 161.402 177.854 161.882 178.279L162.417 178.768L162.861 178.851L162.962 179.562C163.544 179.83 163.193 180.116 163.969 180.366C164.375 180.495 164.597 181.289 165.04 181.511L165.668 181.815L166.351 181.381L166.951 180.975L167.394 180.652L168.429 179.83L171.078 177.993L171.503 177.715L172.076 177.346L172.445 177.106L172.897 176.718C173.045 176.589 172.99 176.137 172.99 175.906L172.971 176.017ZM156.102 98.5282L156.157 98.5744L156.111 98.6298L156.055 98.5836L156.102 98.5282ZM155.898 97.1431L155.954 97.1893L155.908 97.2448L155.852 97.1986L155.898 97.1431ZM155.501 116.497L155.557 116.543L155.511 116.598L155.455 116.552L155.501 116.497ZM143.433 119.849L143.295 120.763C143.378 121.003 143.507 121.326 143.387 121.557C142.935 122.443 143.202 122.887 142.824 123.385L142.344 124.013L141.78 124.742C141.55 125.047 141.688 125.804 141.079 126.405C140.737 126.562 140.432 126.737 140.192 126.949L139.712 127.383C139.527 127.549 139.084 127.808 139.056 128.048L138.955 128.925C138.918 129.248 138.696 129.424 138.419 129.581C137.939 129.849 137.57 130.32 137.219 130.735L136.766 131.271C136.563 131.511 136.296 131.585 135.926 131.695C135.557 131.806 135.548 132.6 133.923 133.514L132.704 134.198C131.891 134.65 131.162 134.567 130.294 135.112L129.675 135.306L128.558 135.915L127.45 136.284C126.97 136.441 126.582 136.681 126.056 136.7C125.742 136.709 125.511 136.811 125.252 137.023L124.523 137.189C124.172 137.392 123.839 137.549 123.47 137.669L121.928 138.159C121.503 138.297 120.986 138.344 120.534 138.334C119.389 138.307 118.65 138.805 118.179 138.74L116.803 138.547C116.333 138.482 116.139 138.879 115.492 138.842L114.874 138.805C114.624 138.787 114.366 138.75 114.126 138.685L113.193 138.436C112.842 138.344 112.427 138.381 112.057 138.408L110.959 138.491C110.691 138.51 110.469 138.445 110.201 138.288C109.98 138.159 109.657 138.168 109.315 138.15C108.992 138.14 108.622 137.845 108.327 137.706L107.459 137.3C106.997 137.512 106.527 137.568 106.093 137.374C105.751 137.217 105.446 137.152 105.04 137.189C104.403 137.245 104.43 136.765 103.858 136.709L103.304 136.654L103.285 136.211C103.267 135.767 102.768 135.592 102.325 135.675C102.122 135.712 101.79 135.573 101.596 135.499L101.033 135.287L100.432 134.585C100.322 134.447 99.8599 134.447 99.6567 134.447C99.5182 134.447 99.2504 134.318 99.1119 134.281L97.5792 133.81C97.1637 133.681 97.4498 133.228 96.905 132.997C96.6465 132.886 96.5172 132.785 96.3326 132.554C96.0186 132.175 95.5477 132.342 94.8367 131.76C94.7167 131.668 94.4859 131.446 94.4213 131.326L94.0426 130.578C93.9688 130.44 93.6917 130.181 93.5532 130.098L92.7499 129.599C92.7222 129.461 92.7407 129.239 92.7684 128.944L92.0851 128.417C91.9836 128.344 91.8173 128.067 91.8358 127.946C91.8543 127.826 91.9836 127.669 92.1313 127.485L91.5957 127.005L91.2726 126.718C91.1895 126.644 91.2911 126.414 91.3465 126.294L91.0325 124.844C90.9863 124.622 90.7648 124.216 90.654 124.031L89.906 123.487C89.5367 123.219 89.3427 122.822 89.2966 122.36C89.2042 121.409 88.3733 121.206 89.269 120.236L88.5117 119.599C88.2532 119.378 88.364 118.741 88.6318 118.501L88.0963 117.734L88.0501 116.635C88.0501 116.515 88.0316 116.284 87.967 116.192L87.8007 115.934C87.6992 115.786 88.244 115.555 88.2071 115.472L88.0778 115.213L87.7915 114.567L88.2994 114.281L87.8469 113.828C87.4776 113.459 87.3483 112.212 87.3391 112.222L87.5884 111.871C87.3483 111.483 87.3945 110.827 87.7361 110.384L87.893 109.793L87.4498 109.184L87.6161 108.039C87.6438 107.863 87.4684 107.466 87.533 107.309C87.57 107.217 87.7822 107.06 87.9023 106.959C87.9854 105.777 87.2098 105.416 87.2837 105.232L87.6531 104.29C87.8654 103.754 87.1729 103.247 87.7269 102.61L87.6622 101.834L88.3917 101.363L87.6438 100.596C87.847 100.089 87.7823 99.7748 87.6438 99.3039L87.5606 99.0176C87.5329 98.9345 87.7361 98.8421 87.8469 98.7775L88.0593 98.2881L88.8073 97.3924L89.6844 97.0232L89.4166 96.3769C89.3612 96.2569 89.4628 95.9798 89.5459 95.8228C89.7952 95.3611 89.4074 94.6594 89.9245 94.4932L90.6447 94.2624C90.7556 94.2254 91.0048 94.1147 91.051 94.087L91.014 93.2281C91.2264 92.9418 91.328 92.7665 91.4203 92.3879L92.0205 92.1293C92.196 92.0555 92.4822 92.0371 92.7315 92.0371L93.0455 91.3721C93.0732 91.3075 93.1654 91.1782 93.2116 91.132C93.3316 90.7442 93.5163 90.3842 93.8026 90.098L94.2458 89.6363L94.6613 89.1099L95.1784 88.3989L95.52 87.9557L96.1479 87.254L96.6742 86.7461L96.942 86.543L98.0039 85.7305C98.7703 85.1396 99.1765 85.2595 99.5551 84.8994L100.174 84.3178L101.097 83.5883L101.716 83.1173L102.288 82.7851L102.768 82.5265L102.879 82.4526L103.202 82.231C103.563 81.9817 103.867 81.7509 104.31 81.6124C104.994 81.4 104.754 80.4857 105.806 80.5134C106.61 80.5319 106.517 80.0888 107.256 79.7657L108.272 79.3317L109.481 78.9715L110.321 78.7591C110.968 78.6021 111.383 78.8239 111.67 78.6299C111.845 78.5099 112.15 78.1498 112.344 78.1313L113.405 78.0111L113.913 78.0296C114.818 78.0573 114.56 77.328 115.889 77.4573L116.914 77.5587L118.105 77.5864C118.299 77.5864 118.65 77.6141 118.816 77.5495C119.527 77.2632 119.851 77.5587 120.589 77.2817L121.55 77.3648L122.658 77.5125C123.082 77.5679 123.627 77.7526 124.043 77.7341L125.668 77.6604C126.231 77.6327 126.739 77.5495 127.265 77.3186C127.995 76.9955 128.004 77.448 128.973 77.4388H129.564L130.848 77.6604C131.328 77.7435 131.716 77.7989 132.159 77.9282L133.138 78.205C133.516 78.3158 133.876 78.4728 134.2 78.7037L134.818 79.1376L136.157 79.9318C136.73 80.2642 137.367 80.5412 137.754 81.0952C138.041 81.5015 138.345 81.6861 138.779 81.9447C139.158 82.1755 139.647 82.6373 139.943 82.9512C140.026 83.2836 140.109 83.6345 140.285 83.8561L140.857 84.5486C141.134 84.881 142.048 84.5856 142.621 86.183C142.796 86.6816 143.11 87.2263 143.498 87.531C143.47 87.9004 143.59 88.2697 144.015 88.4452C144.707 88.7406 144.412 89.7286 144.874 90.3196L145.363 90.9289C145.483 91.0859 145.344 91.4738 145.64 92.2218L145.954 93.0157C146 93.145 145.963 93.496 146.083 93.5976C146.36 93.8284 146.333 94.207 146.129 94.5117V95.3426L146.379 95.9704L146.831 96.3954C146.97 96.5339 146.794 96.9954 146.831 97.1893C146.877 97.4202 147.043 97.8172 146.997 98.0665C146.933 98.4728 146.97 98.7037 147.08 99.0915L147.043 99.9317L146.97 101.474C146.97 101.64 147.062 102 147.117 102.157C147.247 102.323 147.367 102.545 147.367 102.693L147.348 103.468L147.173 104.899L147.053 105.749C146.785 106.201 146.637 106.645 146.766 107.115C146.268 108.039 147.21 108.51 146.517 109.285L146.563 109.959L146.545 110.957C146.545 111.086 146.231 111.354 146.194 111.483L145.815 112.683C145.668 113.145 146.111 113.413 146 113.644C145.843 113.976 145.252 113.939 145.492 114.779C145.557 115.001 145.298 115.398 145.141 115.564L145.012 116.1C144.975 116.201 144.892 116.478 144.957 116.561L145.409 117.125L145.372 117.845C145.372 118.011 145.252 118.371 145.197 118.547C144.495 119.332 143.618 119.341 143.387 119.839L143.433 119.849Z" fill="black"/>
<path d="M155.077 91.0398C155.077 91.0398 155.105 91.105 155.114 91.133L155.077 91.0398Z" fill="black"/>
</g>
<defs>
<clipPath id="clip0_137_2545">
<rect width="250" height="250" fill="white"/>
</clipPath>
</defs>
</svg>
