<?xml version="1.0" standalone="no"?>
<!DOCTYPE svg PUBLIC "-//W3C//DTD SVG 20010904//EN"
 "http://www.w3.org/TR/2001/REC-SVG-20010904/DTD/svg10.dtd">
<svg version="1.0" xmlns="http://www.w3.org/2000/svg"
 width="500.000000pt" height="500.000000pt" viewBox="162 148 175 175"
 preserveAspectRatio="xMidYMid meet">
<metadata>
Created by potrace 1.16, written by Peter Selinger 2001-2019
</metadata>
<g transform="translate(0.000000,500.000000) scale(0.100000,-0.100000)"
fill="#000000" stroke="none">
<path d="M2220 3425 c-260 -54 -444 -237 -504 -499 -13 -54 -7 -220 9 -281 33
-122 131 -273 222 -340 69 -50 179 -101 249 -115 58 -12 211 -10 264 4 69 17
157 59 224 107 l50 36 86 -90 c267 -281 386 -397 408 -397 45 0 79 68 54 106
-4 7 -108 116 -232 244 -124 127 -225 235 -225 238 0 4 19 45 42 92 22 47 46
109 53 139 17 72 16 231 -2 281 -3 8 -13 40 -22 72 -20 68 -97 188 -157 244
-83 77 -216 146 -309 160 -64 10 -160 10 -210 -1z m296 -146 c135 -56 243
-181 289 -334 17 -59 20 -196 4 -263 -71 -308 -427 -479 -708 -340 -92 46
-187 141 -230 231 -95 196 -62 427 82 578 84 89 133 119 243 150 103 29 217
21 320 -22z"/>
</g>
</svg>
