<svg width="250" height="250" viewBox="0 0 250 250" fill="none" xmlns="http://www.w3.org/2000/svg">
<g clip-path="url(#clip0_137_2368)">
<path d="M126.992 207.555L127.111 207.631C127.111 207.631 126.971 207.663 126.992 207.555Z" fill="black"/>
<path d="M130.342 160.866C130.266 160.845 130.288 160.942 130.298 161.006L130.363 161.512C130.363 161.512 130.223 161.631 130.255 161.663L130.406 161.846L130.245 162.083C130.363 162.223 130.514 162.428 130.46 162.514L130.277 162.772L130.374 163.181C130.406 163.3 130.352 163.655 130.277 163.752L129.868 164.333L129.997 165.195C130.385 165.421 130.578 165.906 130.46 166.261L130.342 166.616L130.697 167.747L130.051 168.274L130.428 168.856C130.255 169.405 130.245 170.073 130.546 170.579C131.074 171.483 131.084 173.045 130.438 173.895C129.878 174.638 130.589 175.134 130.406 175.263L130.137 175.457C130.008 175.554 129.846 175.683 129.814 175.801C129.674 176.189 130.686 177.007 130.761 178.116L130.428 179.064C130.32 179.355 130.245 179.936 130.363 180.194C130.503 180.485 130.525 180.614 130.449 180.916C130.051 182.628 130.697 183.274 130.525 183.899L130.266 184.868V186.773L130.525 187.646C130.568 187.775 130.363 188.152 130.363 188.292L130.395 189.024L130.546 189.821C130.428 190.241 130.417 190.531 130.578 190.941C130.815 191.554 130.32 192.007 130.654 192.276C130.783 192.384 131.009 192.61 130.944 192.717C130.708 193.094 130.535 192.987 130.406 193.654C130.298 194.214 130.169 195.065 130.525 195.506C130.772 195.819 130.998 196.066 131.084 196.4L130.611 196.766C130.406 197.068 130.546 197.541 130.923 197.724C130.88 198.004 130.794 198.37 130.718 198.586L130.363 199.652C130.288 199.867 130.471 200.233 130.611 200.416C131.084 201.019 130.891 201.676 130.632 202.333C130.482 202.721 130.557 203.259 130.686 203.733L130.309 204.594C129.857 205.628 130.245 207.028 129.071 207.135C128.026 207.232 128.069 207.76 127.639 207.717L127.111 207.663C127.111 207.663 126.971 207.588 126.993 207.588L126.659 207.663L125.464 207.62L125.27 207.501C125.378 207.34 125.345 207.383 125.238 207.555L124.462 207.501L122.524 207.361H121.641H120.489C119.606 207.361 118.906 207.232 118.605 206.285C118.303 205.337 118.443 204.81 118.206 204.336C117.991 204.217 118.002 204.217 118.12 204.282L118.378 203.991C118.378 203.991 118.357 203.722 118.325 203.657L117.937 203.033C117.819 202.85 118.098 202.387 118.195 202.139C118.357 201.73 118.206 201.17 118.195 200.75L118.174 199.856C118.163 199.232 117.539 198.876 117.646 198.629L117.851 198.198C117.722 197.735 117.959 197.552 117.969 196.734L117.991 195.84L117.56 195.442C117.959 194.936 117.345 194.537 117.948 194.182C118.034 194.128 118.249 193.945 118.239 193.88L117.808 193.019L117.948 192.06L117.926 191.285C117.926 191.081 117.711 190.682 117.592 190.521L118.088 189.272L117.797 188.895L117.926 188.109C118.002 187.657 118.152 187.021 118.066 186.601C118.023 186.397 117.894 186.074 117.894 185.923L117.937 184.706C117.948 184.362 117.506 183.435 117.56 183.328L117.991 182.413C117.991 182.262 117.7 181.993 117.539 181.863L117.786 181.476C117.603 181.185 117.517 180.776 117.657 180.496L118.066 179.645C118.195 179.376 118.249 179.182 118.26 178.859C118.271 178.568 118.562 177.998 118.486 177.729L118.228 176.824C118.142 176.501 118.12 176.189 118.12 175.833L117.937 174.864L118.045 173.734L118.335 172.42C118.378 172.215 118.292 171.849 118.271 171.645C118.239 171.322 118.249 170.999 118.131 170.686C118.023 170.385 118.002 169.976 118.109 169.696L118.454 168.824C118.454 168.662 118.389 168.274 118.432 168.134L118.669 167.37C118.906 166.616 118.217 166.702 118.357 165.744C118.486 164.861 118.109 164.097 118.368 163.3C118.508 162.869 118.734 162.309 118.583 161.921L118.228 161.039L118.034 160.328C117.915 159.908 117.862 159.262 117.969 158.917L118.282 158.896L118.734 158.928L119.369 158.896L119.509 159.014H119.628L119.897 158.67L119.951 159.057L120.327 158.799C120.403 158.745 120.575 158.885 120.65 158.939L121.501 158.906L121.996 158.853L122.621 159.025L122.696 158.96L123.547 158.982L123.988 159.046C123.988 159.046 124.29 158.939 124.376 158.96L124.893 159.079H125.754H126.745H127.37L128.629 159.111C128.694 159.111 128.92 159.089 128.899 159.089C128.888 159.089 128.888 159.219 128.888 159.24L129.34 159.197C129.437 159.305 129.405 159.294 129.555 159.369C129.62 159.423 129.814 159.693 129.868 159.822L130.331 160.888L130.342 160.866ZM120.424 159.014L120.36 159.079L120.424 159.143L120.489 159.079L120.424 159.014ZM122.018 159.003L121.953 159.079L122.018 159.143L122.083 159.079L122.018 159.003ZM127.057 159.133L126.993 159.197L127.057 159.262L127.122 159.197L127.057 159.133ZM127.79 159.133L127.725 159.197L127.79 159.262L127.854 159.197L127.79 159.133ZM125.334 159.262L125.27 159.326L125.334 159.391L125.399 159.326L125.334 159.262ZM130.245 162.331L130.18 162.395L130.245 162.46L130.309 162.395L130.245 162.331ZM118.465 163.924L118.357 163.989L118.465 164.053L118.529 163.989L118.465 163.924Z" fill="black"/>
<path d="M119.628 159.014H119.509L119.369 158.885L119.445 158.756C119.445 158.756 119.638 158.777 119.638 158.82V159.003L119.628 159.014Z" fill="black"/>
<path d="M118.292 158.885L117.98 158.907C118.002 158.842 118.185 158.713 118.217 158.767L118.292 158.885Z" fill="black"/>
<path d="M86.1715 123.211C86.1715 123.211 86.1392 123.093 86.1392 123.061C86.1607 123.071 86.1715 123.211 86.1715 123.211Z" fill="black"/>
<path d="M40.9576 126.388V126.495C40.7207 126.463 40.7099 126.409 40.9576 126.388Z" fill="black"/>
<path d="M86.1608 121.219L85.8593 121.262L86.15 121.359L86.2039 122.317L86.1393 122.393V123.05C86.0962 123.136 86.0639 123.201 86.1608 123.201L86.0639 123.502C86.2362 123.491 86.3762 123.556 86.0855 123.653L86.1393 124.223V125.063V125.656L86.1608 126.302L86.2363 127.841L86.2577 129.155L85.4824 129.435C84.8364 129.672 84.2656 129.607 83.8349 128.994L82.7905 128.875L81.3045 129.435C80.8953 129.586 80.5078 129.166 80.2816 128.864C80.1524 128.703 79.6463 128.66 79.4309 128.714L78.2465 129.026L77.6758 128.8C77.3097 129.134 76.9544 129.403 76.556 129.564L75.8453 129.134C75.4146 129.177 74.887 129.231 74.4886 129.155L73.6055 128.972L72.7118 128.886L71.7535 129.047L70.1814 129.134C69.7938 129.155 69.3523 130.006 68.1679 129.09L67.3387 129.026L66.0896 128.724C65.6481 129.403 65.0236 129.252 64.496 128.972C64.1622 129.047 63.6992 129.091 63.3977 129.004L62.4071 128.746L61.8364 128.897C61.2549 128.757 60.7919 128.854 60.2536 129.134C59.7152 129.414 58.8537 128.778 57.6693 128.994C57.217 129.069 56.8832 129.047 56.4525 128.897C56.2048 128.81 55.6341 129.037 55.3865 129.134C55.0634 129.274 54.9557 128.864 54.1374 129.015C53.8682 129.069 53.6205 129.015 53.3298 128.94C52.4145 128.714 51.3377 128.714 50.6271 129.317L49.9164 129.08C49.2164 129.273 48.2797 129.166 47.6551 128.843L45.6416 128.994L44.511 129.187L43.9834 128.886L42.6481 128.649L41.1191 128.38L41.0653 127.949L40.9576 126.786L40.9145 126.485V126.377L40.7853 125.925V125.106L40.7637 124.04C40.7637 123.922 40.8176 123.674 40.8284 123.61C40.7638 123.384 40.7315 123.147 40.7423 122.899L40.7745 121.09C40.8714 121.004 40.893 120.971 40.8284 120.95L40.8068 120.67L40.7745 120.045L40.71 119.949L40.7853 119.895L40.8715 119.949C40.8715 119.949 40.9038 119.873 40.8823 119.841L40.7853 119.679L40.8715 119.249L40.8499 119.109L40.7961 118.99C40.8822 118.904 40.9038 118.883 40.8176 118.872L40.8392 118.15C41.173 118.064 41.6468 118.053 42.0775 118.021L43.1543 117.967L44.1233 117.881C44.2309 117.881 44.4033 117.547 44.511 117.494L45.3186 117.192C46.1693 116.869 46.7722 117.86 46.9768 117.87L48.032 117.903C48.5811 117.924 49.1411 117.903 49.6795 118.097C50.2179 118.29 50.7563 118.247 51.3054 118.075L52.1561 117.806L52.9529 117.461C53.3944 117.278 54.0189 117.407 54.4927 117.58C54.8695 117.72 55.5372 116.826 56.797 117.472C57.2923 117.73 57.6908 117.655 58.1861 117.44C58.6814 117.224 59.2844 117.3 59.8228 117.3H60.7057C61.4056 117.235 61.9764 117.235 62.5363 117.773C62.7194 117.957 63.2362 118.226 63.4731 118.183L64.2484 117.967L65.2498 117.666C65.7667 117.515 66.3911 117.612 66.9188 117.644L67.414 117.677C67.8447 117.698 68.3724 117.623 68.7923 117.677L69.3523 117.429C69.6 117.321 70.1922 117.343 70.4614 117.397L72.2058 117.773L73.1857 117.687L73.9286 117.612L75.0593 117.515C75.7915 117.45 76.5559 117.709 77.2666 117.752L78.871 117.849L79.7217 117.881H80.174L81.746 117.935L82.9951 117.763C84.1904 117.601 85.5686 117.86 86.1608 118.775L86.0963 119.626C86.0855 119.798 86.0962 119.938 86.1177 120.11V120.67V121.165L86.1608 121.219ZM85.9455 126.377L85.8808 126.442L85.9455 126.506L86.0101 126.442L85.9455 126.377Z" fill="black"/>
<path d="M162.203 127.486L162.085 127.357L162.214 127.346L162.203 127.486Z" fill="black"/>
<path d="M208.817 120.746V120.487C208.817 120.487 208.935 120.649 208.935 120.638L208.817 120.746Z" fill="black"/>
<path d="M162.042 123.922V123.793C162.085 123.89 162.074 123.954 162.042 123.922Z" fill="black"/>
<path d="M208.839 120.476C208.774 120.498 208.666 120.638 208.709 120.659L208.828 120.746L208.806 121.736V122.791L208.796 124.17V125.257C208.796 125.257 208.688 125.43 208.666 125.462C208.656 125.483 208.752 125.559 208.796 125.591V126.84L208.828 127.497L208.882 128.305V129.155C209.022 129.091 208.849 129.166 208.731 129.22L208.354 129.058C207.848 128.843 207.546 129.478 206.836 128.983C206.308 128.617 206.017 129.188 205.404 129.005L204.112 128.638C203.164 128.369 202.787 128.875 202.163 128.757C201.495 128.628 201.344 129.284 200.483 128.972C200.16 128.854 199.6 128.617 199.309 128.638L197.985 128.725C197.726 129.037 197.382 129.188 197.005 129.005C196.628 128.821 196.251 128.929 195.82 128.854L193.893 128.509L192.773 128.337C192.213 128.251 191.513 128.24 191.072 128.563C190.781 128.768 190.652 128.8 190.329 128.768L189.478 128.681L188.24 128.638L187.185 128.401C186.818 128.326 186.506 128.337 186.162 128.455C185.968 128.52 185.72 128.531 185.505 128.531L184.773 128.563C184.008 128.595 184.04 128.197 183.244 128.121L182.274 128.035L180.788 128.746C180.132 129.058 179.83 128.455 179.292 128.423L177.623 128.326L176.578 128.423C176.072 128.477 175.695 128.412 175.2 128.261L174.177 128.369L173.283 128.466L172.562 128.541C172.056 128.326 171.388 128.165 170.893 128.358L170.215 128.628C169.978 128.724 169.515 128.574 169.191 128.531C168.728 128.466 168.244 128.886 167.803 129.08C167.48 129.231 166.93 129.252 166.575 129.241L165.746 129.209H165.143L164.755 129.155L162.623 128.886C162.526 128.875 162.225 128.886 162.182 128.897V128.272L162.3 127.992L162.246 127.475L162.343 127.389C162.343 127.389 162.279 127.346 162.268 127.335L162.16 127.195L162.214 126.657H161.956L162.214 126.173C161.923 126.216 161.977 126.086 162.149 125.979C162.096 125.731 162.052 125.419 162.052 125.139L162.074 123.911C162.268 123.879 162.225 123.857 162.074 123.782L162.096 122.974L162.117 122.339L162.171 121.952V121.876L162.268 121.521V120.702L162.354 120.649L162.289 120.444C162.343 120.369 162.451 120.25 162.429 120.175L162.332 119.863C162.279 119.69 162.559 119.421 162.806 119.26C162.806 119.26 162.796 119.238 162.699 119.12L162.763 118.495L162.828 117.914L163.797 118.215C164.971 118.581 166.478 117.784 167.609 118.086L168.739 118.387L169.622 118.14C171.022 117.752 171.733 118.678 172.357 118.355L173.197 117.914C173.66 117.677 174.156 117.591 174.672 117.784C175.523 118.118 175.857 117.612 176.804 117.935L177.752 118.258C178.258 118.43 178.592 118.43 179.12 118.194C179.421 118.064 180.078 118.226 180.401 118.215C181.036 118.183 181.531 118.226 182.156 118.258L183.114 118.29L184.988 118.075C185.354 118.032 185.935 118 186.28 118.064L187.378 118.269L188.617 117.978C189.23 117.838 189.844 117.935 190.49 118L191.696 118.129L192.428 117.871C192.881 117.709 193.451 117.806 193.914 117.849C194.108 117.871 194.582 117.752 194.765 117.849L195.96 118.43L196.488 118.215L197.145 118.237C197.209 117.968 197.199 117.903 197.295 117.881L197.705 117.795C198.006 118.409 198.545 118.366 199.115 118.323L200.655 118.215L201.57 118.247C202.216 118.269 202.787 118.204 203.422 117.946L204.262 117.881C205.371 117.795 205.716 118.581 206.319 118.624C206.825 118.657 207.234 118.71 207.59 118.98L209 120.013L208.914 120.498L208.839 120.476ZM162.516 119.604L162.451 119.69L162.516 119.755L162.58 119.69L162.516 119.604ZM162.268 126.991L162.203 127.055L162.268 127.12L162.332 127.055L162.268 126.991Z" fill="black"/>
<path d="M131.062 150.195C129.953 150.68 127.864 150.82 126.508 150.712L124.785 150.583L122.567 150.228L121.49 150.023C121.113 149.948 120.65 149.926 120.252 149.937L118.884 149.991L117.409 149.862L115.891 149.538L114.297 149.14C113.823 149.022 113.468 148.731 112.983 148.591L110.593 147.891C110.065 147.74 109.656 147.277 109.204 146.954L108.569 146.491C108.224 146.244 106.695 146.233 106.329 145.597C106.06 145.124 105.834 144.844 105.338 144.693C103.723 144.176 103.701 143.261 102.948 142.819C102.269 142.432 101.419 141.796 101.16 141.29C100.837 140.655 100.482 140.353 99.8681 140.063C99.4158 139.858 99.0605 139.266 98.8236 138.835L98.4791 138.189L97.3808 136.09L96.81 135.4C96.2286 134.7 96.5516 134.248 96.3793 133.645L96.0025 132.364C95.8517 131.836 95.1088 131.772 95.2164 130.48L94.6242 130.286L94.6673 129.381L94.5381 128.574C94.4842 128.272 94.6026 127.874 94.4949 127.594L94.0428 126.409C93.5798 125.214 93.8812 124.643 93.612 123.577L93.2782 122.264C93.2351 122.081 93.1167 121.661 93.2029 121.478C93.4182 120.982 93.3644 120.336 92.9121 120.024C93.1382 119.722 93.1274 119.561 92.9874 119.238C92.8474 118.915 93.1812 118.516 93.3858 118.258L93.8812 117.612C93.752 117.246 93.7627 116.837 93.9566 116.503L94.3334 115.846L94.5704 115.48C94.4412 115.189 94.4197 114.898 94.452 114.662C94.495 114.242 94.0858 114.069 94.0212 113.628C93.9997 113.509 94.172 113.359 94.312 113.229L94.4196 112.594L95.0872 112.433C95.0334 111.151 95.9917 110.753 95.4317 110.096L95.6472 109.278C95.8087 108.685 96.7024 108.836 96.9285 108.19L97.4884 106.607L98.3068 105.854C98.6298 105.552 98.8343 105.358 99.0497 104.971L99.7281 104.464C100.159 104.141 100.46 103.905 100.719 103.442L101.44 102.752L102.032 101.826C102.528 101.04 103.142 100.599 103.981 100.2L104.994 99.7158L106.038 99.3174C106.372 99.1882 106.663 99.0914 106.899 98.8222C107.136 98.553 107.535 98.2838 107.869 98.2838C108.612 98.2838 108.418 97.8314 108.924 97.7991C109.43 97.7668 109.667 97.4116 109.936 97.0778L110.604 96.2379L111.228 95.9041L112.348 95.3011L113.199 94.9134C113.532 94.7627 114.017 94.6119 114.372 94.7088C115.32 94.9672 116.095 94.7089 116.817 94.1274L117.28 93.7506L117.829 93.6428C118.216 93.5351 118.593 93.4813 118.981 93.5351L119.81 93.6428L120.682 93.6859L121.554 93.7398L123.805 93.772C124.042 93.772 124.257 93.8582 124.44 93.8367L125.226 93.7506L126.443 93.6967C126.971 93.6751 127.38 93.9013 127.843 94.149L128.737 94.6227C129.081 94.8057 129.673 94.6443 130.05 94.5366L130.976 94.2782C131.31 94.1813 131.59 94.4181 132.333 94.5258L134.002 94.7735C134.368 94.8273 134.863 95.1718 135.187 95.3764C135.682 95.6887 136.156 95.678 136.683 95.9041L137.932 96.4425L139.063 97.0454C139.364 97.207 139.731 97.53 140.054 97.5946C140.743 97.7346 141.249 97.9499 141.787 98.3591C142.326 98.7683 143.359 98.9513 144.328 99.8343L145.491 100.9L146.353 101.762L147.203 102.634L147.957 103.355C148.205 103.592 148.377 103.808 148.603 104.066L150.057 105.778C150.412 106.198 150.778 106.575 150.972 107.092L151.274 107.91L151.467 108.825C151.597 109.396 152.027 109.956 152.458 110.376L152.738 111.453L153.158 112.486L154.429 114.909C154.558 115.168 154.816 115.491 154.773 115.781L154.569 117.429C154.87 117.881 154.881 118.269 154.816 118.796L154.698 119.765L154.859 121.09L155.064 121.994C155.161 122.404 155.172 123.179 155.064 123.588L154.795 124.719C154.633 125.397 154.482 126.011 154.493 126.754C154.493 127.303 153.75 127.497 153.578 127.96C153.513 128.132 153.643 128.541 153.783 128.67C154.246 129.09 153.901 129.812 153.578 130.049C153.481 130.124 153.395 130.426 153.395 130.523V131.233L152.587 132.041C152.49 132.138 152.566 132.536 152.512 132.665L151.898 134.162L151.629 135.12L151.187 135.906C150.778 136.639 150.455 137.263 150.315 138.135C150.272 138.383 149.949 138.706 149.734 138.878L149.454 140.117C149.335 140.655 148.356 140.838 147.893 141.333L147.29 141.969C146.891 142.389 146.385 142.723 145.857 142.981L145.577 143.659L145.05 144.402C144.791 144.768 144.576 144.618 143.919 145.07L143.262 145.522C142.864 146.319 142.229 145.899 142.099 146.427C141.873 147.363 141.163 147.019 140.215 147.751C139.214 148.537 138.331 147.966 137.878 148.257L136.974 148.871L135.951 149.151C135.779 149.302 135.445 149.689 135.219 149.722L134.271 149.872L133.625 149.797L132.064 150.002C131.741 150.045 131.332 150.055 131.095 150.163L131.062 150.195Z" fill="black"/>
<path d="M149.077 95.355C149.077 95.355 149.023 95.215 148.937 95.1935L148.484 94.838C148.43 94.7842 148.323 94.6551 148.28 94.6443L148.075 94.6227C147.774 94.1382 147.171 94.0521 147.181 93.8798L147.203 93.6214L146.945 93.7936C146.74 93.5136 146.665 93.4598 146.482 93.4167L145.857 92.8999L145.039 92.2323L144.974 92.0815C144.974 92.0815 144.845 92.0815 144.791 92.0815L144.371 91.737L145.103 91.0909L145.631 90.4125L146.535 89.2065C146.708 88.9804 147.063 88.6036 147.106 88.3667L147.246 87.6452C147.709 87.5914 147.795 87.4621 148.021 87.096L149.26 86.633L149.841 85.9977C150.013 85.8147 150.218 85.6639 150.476 85.4917C150.681 85.3517 150.896 84.8778 151.058 84.641C151.273 84.3179 151.392 84.0918 151.521 83.7149L151.844 83.0366C152.038 82.6274 153.158 82.7243 153.33 82.2721L153.556 81.7121L154.525 80.7753C154.665 80.6354 154.827 80.4846 154.859 80.3662C155.053 79.5586 155.731 80.0647 156 79.1494L156.269 78.2342L157.109 77.9326C157.185 77.2543 157.454 76.6513 157.938 76.1883L158.617 76.1451C158.8 75.6714 159.015 75.2084 159.317 74.8854L159.995 74.7131L160.286 73.8839C161.029 73.4963 160.641 72.7641 161.481 72.3011L161.233 71.838C161.772 71.7411 161.966 71.429 162.235 71.009C162.515 70.5675 163.086 71.009 163.355 70.2014L163.753 68.9847C164.367 68.8016 164.216 68.4569 164.614 68.1877L164.959 67.9509C165.035 67.897 164.959 67.7032 164.905 67.5309C164.722 66.9387 165.401 66.8634 165.584 66.2819C166.617 66.1312 166.23 65.3128 166.822 64.9252L166.897 64.3868L168.168 63.7514C168.674 63.493 169.019 63.1808 169.072 62.524L170.074 61.7486C170.203 61.6517 170.364 61.2426 170.397 61.1564L170.235 60.801C170.741 60.3272 170.451 59.7781 171.032 59.7674C171.495 59.7566 171.797 59.6058 172.087 59.3151L172.777 58.6367L173.24 58.3783C173.24 58.1629 173.218 57.743 173.293 57.5815L173.616 56.7739C173.713 56.537 174.542 56.3755 175.038 56.7847L175.835 57.4523L176.276 57.7214L176.868 58.1198L177.277 58.4537L177.493 58.5506C177.331 58.7982 177.321 58.8199 177.439 58.626L178.096 59.0566L178.483 59.3905C178.516 59.2075 178.483 59.3367 178.462 59.5521H178.656L178.946 59.7781C178.968 59.7997 179.108 59.8105 179.108 59.8212L179.076 60.0473L179.42 60.2626L179.98 60.5749L179.808 60.7796C180.012 60.8119 180.357 60.9303 180.508 61.0488L181.089 61.5117L181.638 61.9425L182.048 62.3085L182.349 62.6316C182.349 62.6316 182.511 62.6316 182.5 62.6532L182.381 62.89H182.564C182.629 62.89 182.704 63.1054 182.748 63.1485L183.211 63.6761L184.007 64.419L184.266 64.5805L184.556 64.8282L184.126 65.6143C183.76 66.2819 182.909 66.185 182.812 67.0572C182.672 68.3062 181.477 67.9725 181.477 69.2323C181.423 69.48 180.831 69.6199 180.519 69.5984C180.077 69.5661 180.163 69.9967 179.711 70.2228C179.097 70.5351 178.903 71.2566 178.979 71.9888C179.054 72.6779 178.128 72.4087 178.139 73.2163C177.321 73.1087 176.911 73.5824 176.513 74.1531L175.447 75.6714C175.329 75.8329 174.919 76.0483 174.725 76.1667L173.972 77.4803C173.832 77.7172 173.692 77.9542 173.573 78.2234L172.852 79.0741L172.324 79.6339L171.689 80.2477L170.871 81.2814L170.278 81.9167C170.149 82.0566 169.998 82.4336 169.934 82.6274L169.008 83.6073L169.234 84.2318L168.739 84.9533C168.48 85.0609 168.2 85.1471 168.071 85.2656C167.726 85.5671 168.157 86.5038 167.5 86.5577C166.973 86.6007 166.639 86.7515 166.348 87.1499C165.885 87.796 165.422 87.8391 165.616 88.3451C165.67 88.4959 165.745 88.7758 165.648 88.8189L165.228 88.9804L164.41 89.2819C163.958 89.4542 163.656 89.9926 163.516 90.434C162.87 90.6709 162.31 90.9833 161.933 91.5755L161.287 92.0492L161.32 92.7599C161.33 93.0722 161.158 93.3198 160.878 93.4275L160.254 93.6644C160.124 93.9874 159.898 94.4935 159.661 94.6227L158.994 94.978L158.014 95.5919L157.088 96.3133L157.239 96.9486C156.302 97.2609 155.957 97.3901 155.419 98.133L155.01 98.7038L154.579 99.3067L154.428 99.0591C154.428 99.0591 154.288 98.9622 154.234 98.9299L153.535 98.4883L153.104 98.273V98.1007C153.082 97.9823 152.738 98.1654 152.759 97.9177C152.77 97.8208 152.781 97.7778 152.781 97.7885C152.662 97.8208 152.522 97.8531 152.522 97.8638C152.522 97.8746 152.522 97.7562 152.522 97.6162L151.952 97.3362L151.801 97.1639L150.896 96.4748L150.487 96.1948L149.583 95.6887L149.55 95.6026C149.55 95.6026 149.464 95.5057 149.421 95.4842L149.13 95.3227L149.077 95.355ZM174.79 56.8062L174.725 56.8709L174.79 56.9354L174.855 56.8709L174.79 56.8062ZM175.156 57.0538L175.092 57.1185L175.156 57.1831L175.221 57.1185L175.156 57.0538ZM179.205 60.2412L179.14 60.3057L179.205 60.3704L179.269 60.3057L179.205 60.2412ZM180.303 61.1026L180.239 61.1672L180.303 61.2318L180.368 61.1672L180.303 61.1026Z" fill="black"/>
<path d="M125.883 42.6788C125.969 42.765 126.001 42.7865 126.012 42.7004L128.317 42.9265L129.07 42.9588C129.167 43.0019 129.199 43.0233 129.21 42.8833C129.372 43.0018 129.619 43.271 129.619 43.4433L129.641 44.8324C129.641 45.2739 129.641 45.6077 129.523 45.9631L129.781 46.5552C129.35 47.1367 129.942 47.5997 129.749 48.3427V48.9134C129.609 49.538 129.749 50.6471 129.986 51.0778C130.223 51.5085 130.341 51.7453 130.222 52.1867C129.846 53.5327 130.567 54.1357 130.438 54.3295L129.856 55.1371C129.749 55.2771 129.889 55.6971 130.007 55.837L130.438 56.3431C130.782 56.7523 130.169 56.9246 130.072 57.8937C130.05 58.1199 130.072 58.5075 130.126 58.6798C130.244 59.0459 130.244 59.2828 130.233 59.6381L130.212 60.7365L130.707 61.0702L130.621 62.5132L130.395 63.6545L130.201 65.1189L130.147 67.1756C130.685 67.9832 130.772 68.1986 130.481 69.1031L130.136 70.1691C129.942 70.7613 130.804 71.1381 130.685 71.3212L130.405 71.7735C130.298 71.9457 130.212 72.3119 130.158 72.6134L129.716 73.3455L129.975 74.4007L130.298 76.2313C129.404 76.8882 130.438 77.265 130.319 78.2341L130.19 79.257L130.481 79.6232L130.599 80.4415C130.707 81.1844 130.233 81.3568 130.276 82.0997L130.847 82.6489L130.136 83.3596C129.662 83.8334 130.642 84.5656 130.524 84.824L130.169 85.5777L129.813 86.3531C129.759 86.4715 129.706 86.6761 129.609 86.6868L129.318 86.7084C129.232 86.633 129.21 86.6114 129.243 86.6437L128.661 86.6868L127.832 86.6329H126.658L125.172 86.6545H123.482L122.211 86.6329L119.089 86.6761C118.884 85.5239 118.152 85.384 118.346 84.5764C118.507 83.8765 117.689 83.9088 117.807 83.252L117.947 82.4658C118.399 81.9705 117.883 81.5183 118.098 80.7861L117.926 80.4738L118.227 79.9785L118.162 79.0417C118.109 78.331 118.453 78.5249 118.486 77.5881C118.496 77.2974 118.647 76.7698 118.518 76.5221C118.356 76.2206 118.281 75.9944 118.302 75.6822L118.152 75.273L118.593 74.4331L118.55 73.3563C118.475 73.1948 118.141 72.7749 118.184 72.581L118.346 71.6766C118.421 71.2674 118.529 70.9227 118.518 70.5136L118.475 69.3938L118.442 68.6508C118.442 68.4462 118.443 68.1231 118.389 67.9508C117.969 66.4326 118.83 65.8942 118.076 65.3128C118.173 65.1513 118.238 64.9143 118.206 64.7097C118.13 64.3113 118.302 64.096 118.744 63.8484L118.453 62.8577C118.399 62.6746 118.335 62.3193 118.324 62.147L118.238 60.9625C118.195 60.4457 118.152 60.015 118.367 59.5305C118.701 58.7767 117.947 58.6044 118.227 57.5922L118.475 56.7093L118.615 55.7402C118.658 55.4817 118.324 55.008 118.238 54.7926L118.173 53.7697C118.141 53.4036 118.346 52.6821 118.475 52.3267C118.852 51.9176 118.862 51.53 118.529 51.067L118.475 50.3024C117.829 49.2902 118.647 48.9349 118.496 48.3427C118.346 47.7505 118.292 47.2552 118.346 46.7383L118.873 46.6414L118.981 45.4676L119.067 44.6493C119.099 44.3478 119.121 44.2186 118.884 43.9064L119.099 43.5403L118.701 43.2388L119.099 42.9265L119.013 42.2696L119.325 41.8281L119.584 42.022C119.584 42.022 119.605 42.1834 119.605 42.345C119.649 42.5495 119.756 42.6035 119.745 42.302C119.799 42.1512 119.993 41.9144 120.101 41.9359L120.531 42.0328L120.639 41.9251L121.048 42.1189C121.156 42.1619 121.35 42.2051 121.447 42.1728C121.554 42.1405 121.651 42.0973 121.684 42.1189L121.813 42.2158L122.394 42.162C122.394 42.2804 122.394 42.3665 122.394 42.3557C122.394 42.3557 122.61 42.302 122.642 42.302L124.031 42.3989L124.505 42.442L125.097 42.5712L125.905 42.6249L125.883 42.6788ZM120.671 42.1404H120.779C120.65 42.1404 120.553 42.1404 120.671 42.1404ZM120.305 42.2051L120.241 42.2696L120.305 42.3343L120.37 42.2696L120.305 42.2051ZM119.444 43.6803L119.379 43.7448L119.444 43.8095L119.508 43.7448L119.444 43.6803Z" fill="black"/>
<path d="M129.21 42.8941L129.07 42.9695C129.167 42.9157 129.21 42.8941 129.21 42.8941Z" fill="black"/>
<path d="M68.2214 62.7501L68.2969 62.6425C68.2969 62.6425 68.4045 62.6532 68.5122 62.664C68.5122 62.664 68.523 62.5348 68.5337 62.4809L69.1476 61.8886C69.2445 61.7917 69.5459 61.781 69.6644 61.8349L70.4828 62.2655L71.4195 62.8039L72.3132 63.2454L73.0777 63.7085C73.2608 63.8161 73.6915 63.9238 73.8207 64.0745C74.456 64.8283 74.876 64.5914 75.0698 65.0544C75.2852 65.5605 75.522 66.2819 75.9528 66.5726C76.2219 66.7557 76.6312 66.885 76.7927 67.1003L77.4064 67.9186L77.9987 68.0264L78.677 68.8447C79.2585 69.5446 79.9799 69.4261 80.0983 69.6092L80.5937 70.3307L81.7782 71.9781C82.0258 72.3226 82.0905 72.7319 82.6073 72.8826C82.9088 72.9688 83.1241 73.3994 83.3394 73.6148L83.8778 74.1532L84.5562 74.9715C84.7177 75.1654 84.8685 75.273 85.1593 75.3699C85.3746 75.4346 85.5899 75.6823 85.773 75.8222L86.6774 76.5436L87.5389 76.5867L87.8189 77.7496C87.9266 78.2018 88.4111 78.5573 88.8418 78.7834L89.3264 79.4186C89.6925 79.5694 89.9724 79.7955 90.1662 80.1831L90.8232 80.3123C91.0923 80.3662 91.4153 80.8184 91.5337 81.1199C91.8029 81.7875 92.6859 81.163 93.1381 81.9598L93.9996 83.4781C94.1611 83.7689 94.861 84.0704 94.9364 84.4149C95.0225 84.8026 95.1841 85.1148 95.4963 85.2225L96.4439 85.5778C96.6054 85.6424 96.6915 85.9978 96.6484 86.1593C96.6054 86.3208 96.5731 86.4716 96.5731 86.5469C96.5731 86.6438 96.7992 86.7515 96.8961 86.773L97.876 87.053C98.0806 87.1068 98.4037 87.2792 98.6083 87.3976L99.222 87.7529C99.5235 88.2267 99.8573 88.4851 100.31 88.8189C100.579 89.0127 100.902 89.5081 101.203 89.6912C101.505 89.8742 101.806 90.0464 101.968 90.2941L103.012 91.8769L103.605 92.1569C103.734 92.2646 103.874 92.6738 103.917 92.8461L103.045 93.4707L100.783 95.3012L100.116 95.7211L99.7496 95.9903L99.1359 96.4533L98.1775 97.2071L97.8544 97.4871L97.876 97.5624L97.8222 97.6486L97.736 97.5839L97.4991 97.8639L97.0792 98.1008L95.3348 99.6406C95.2056 99.7483 94.8934 99.6083 94.7211 99.5437L93.7949 99.1991C93.2458 98.9945 92.7936 98.6285 92.6105 98.0578L92.1798 97.7455L91.1784 97.0132L90.4785 96.5287C90.3493 96.4318 90.3063 96.0226 90.274 95.8395L89.2402 95.3227L88.6696 94.0199L88.2926 93.2876L87.8834 92.9431C86.7851 92.0278 86.6774 91.3925 86.279 91.1664L85.493 90.7033C85.0731 90.4556 84.5347 90.2834 84.1255 89.9711C83.7701 89.6912 83.6841 89.1635 82.9949 88.6574L82.2089 88.076C82.0366 87.9468 81.5736 87.7744 81.3582 87.7206C80.9167 87.7421 80.5399 87.6237 80.2814 87.3222L78.9786 85.7717C78.7201 85.4594 78.5262 84.9857 78.4832 84.5872L77.6432 84.1781C77.4817 84.1027 77.148 83.8335 77.0619 83.6612L76.728 82.9721C76.6096 82.7352 76.1897 82.3797 75.9635 82.1967L75.4144 81.7445C74.9513 81.3569 74.4022 80.7216 74.3484 80.2586C74.3161 80.0217 74.2515 79.6233 74.0899 79.5694L73.3255 79.3433L72.8301 78.5787L72.3671 77.8574C71.7964 77.7174 71.8826 77.3081 71.2796 76.802C70.9673 76.5328 70.5903 76.1022 70.2565 75.9083C69.9227 75.7145 69.5351 75.6068 69.2982 75.3807L68.5876 74.7131L67.8769 74.1963C67.5431 73.9486 67.2201 73.5502 67.0585 73.1948L66.477 71.9027L65.9818 71.3105L65.4649 70.7291C65.0342 70.546 64.7219 70.3521 64.3881 70.0829L63.6344 69.4584L62.5361 68.5109C62.4069 68.4032 62.0192 68.1232 62.0946 67.9832C62.2238 67.7464 62.5146 67.3803 62.6761 67.2403L63.1714 66.8204L64.0221 66.0989L64.2266 66.002L65.7018 64.7098L65.8418 64.5806C65.8418 64.5806 65.9279 64.7098 65.9386 64.7098L66.4341 64.193V64.1176L66.4878 64.0314L66.5633 64.1069L67.0693 63.7085L67.037 63.6222L67.1446 63.5793L67.1985 63.6115L67.7261 63.1593L68.1677 62.7824L68.2537 62.7393L68.2214 62.7501ZM63.2467 66.8634L63.1283 66.928L63.2467 66.9926L63.3114 66.928L63.2467 66.8634Z" fill="black"/>
<path d="M96.3368 145.145C96.2614 145.124 96.2936 145.264 96.3582 145.274L96.7997 145.716L97.0474 146.06L97.3058 146.427L97.6504 146.922C97.8012 146.943 97.8873 146.954 97.8657 146.943C97.8657 146.943 97.8981 147.105 97.8981 147.094V147.202L98.0273 147.223L98.641 147.826C98.7594 147.934 99.0394 148.074 99.2117 148.149L98.9748 148.429L99.4809 148.332L99.5025 148.569L99.3517 148.634L99.7178 148.849L99.8363 148.871L100.385 149.151L100.741 149.398L101.021 149.614L101.667 150.195C101.667 150.195 101.839 150.228 101.818 150.217L102.227 150.626L101.925 151.078L101.451 151.735C101.451 151.735 101.301 151.81 101.258 151.821C101.215 151.832 101.258 151.961 101.258 152.047L100.655 152.478C100.59 152.747 100.558 152.833 100.472 153.006C100.299 153.027 100.321 153.049 100.472 153.081L100.062 153.716C100.062 153.716 100.03 153.792 100.009 153.802C99.5563 154.158 99.1686 153.63 98.9102 154.362C98.781 154.729 98.5764 155.105 98.3718 155.407C97.7042 155.353 97.3597 155.816 97.3705 156.398V156.871C97.0582 156.904 96.4659 156.925 96.2829 157.141L95.6906 157.808C95.5183 158.002 95.4538 158.497 95.4 158.842L94.4201 159.445L94.1724 160.048L93.7633 160.36L93.4941 161.189C93.4079 161.469 92.6111 161.017 92.105 161.781L91.4697 162.761C91.319 162.987 90.9313 163.289 90.8667 163.623C90.7913 164.064 90.2637 163.709 89.833 164.129L88.9393 164.99L88.0455 165.819C87.604 166.229 87.238 166.616 87.1734 167.295L86.5488 167.887C86.3872 168.038 85.8488 167.854 85.5796 167.822C85.3535 167.79 85.0413 168.253 84.9228 168.458L84.4275 169.34C83.8461 170.385 84.1907 170.708 83.5554 170.913C82.5002 171.257 82.8123 172.614 82.2416 172.915C81.9078 173.088 81.6279 173.411 81.6279 173.906L80.8096 173.96L80.002 175.134C79.8512 175.36 79.3559 175.607 79.0652 175.747L78.8821 176.318L78.2037 177.007C78.0745 177.136 78.1499 177.578 78.2145 177.804C78.3222 178.17 77.8914 178.482 77.5253 178.525C77.0946 178.579 76.6747 178.816 76.4593 179.161L75.9533 180.022C75.6949 180.464 75.361 180.69 74.9949 181.045L73.9936 182.003C73.7998 182.186 73.6597 182.38 73.4874 182.585L73.0352 183.134C72.5292 183.758 72.809 183.995 71.5923 184.749C71.2477 184.964 70.9462 185.008 70.5478 184.975L69.9663 184.921C69.8263 184.911 69.6111 184.738 69.5249 184.641L69.611 184.534L69.3742 184.491L68.6203 183.812L67.6943 183.145L67.6298 182.994L67.4251 183.123L67.3821 182.725C67.3175 182.725 67.0268 182.682 66.9514 182.617L66.3807 182.111C66.273 182.208 66.1977 182.273 66.2838 182.197L65.907 181.842C65.907 181.766 65.8747 181.605 65.907 181.788C65.4116 181.906 65.3254 181.465 65.1747 181.476L64.9271 181.497C64.9271 181.411 64.927 181.282 64.8624 181.26L64.6794 181.185L64.184 180.83L63.1719 180.173C63.0858 180.119 62.9351 179.925 62.9458 179.904C62.8704 179.914 62.4935 179.839 62.3751 179.742L61.6644 179.107L61.1368 178.622L61.1152 178.461L60.8999 178.439C60.8999 178.439 60.8675 178.375 60.8137 178.278L60.6738 177.427L61.1799 177.47L61.4491 176.813C61.7613 176.727 61.9229 176.609 62.0198 176.383C62.2998 175.747 62.6443 175.995 62.9027 175.435L63.3119 174.552C63.4842 174.175 64.0548 174.197 64.5932 173.271L64.9809 172.937L65.4116 172.409L66.0792 171.677L66.973 170.611C67.1345 170.417 67.7267 170.256 67.7698 170.019C67.8344 169.717 67.9312 169.319 68.0927 169.211C68.5234 168.931 68.6097 168.63 68.7497 168.188L68.9542 167.542C69.0403 167.284 69.5249 166.982 69.7402 166.81C69.8156 166.476 70.1602 166.175 70.4294 166.11C70.5478 166.089 70.6663 165.765 70.7309 165.636C70.7955 165.496 71.1401 165.507 71.3985 165.55L71.7323 164.947C72.7337 164.517 72.6691 164.053 73.2613 163.569L73.6813 163.224L73.4552 162.826L73.8644 162.341L74.8226 161.792L75.641 161.286C75.641 160.651 76.1686 160.371 76.5885 159.262C76.89 158.465 77.6977 158.293 77.87 158.023C78.053 157.722 77.4392 157.464 77.913 156.796L78.3437 156.193L78.7852 156.107C78.936 155.827 79.0221 155.676 79.1836 155.482L79.6897 154.879C80.0019 154.761 80.6157 154.653 80.8096 154.449L81.4341 153.802C81.6063 153.63 81.7679 153.49 82.0156 153.393C82.2848 153.296 82.3279 153.135 82.4786 152.866L83.017 151.843C83.0924 151.692 83.1569 151.326 83.2 151.154L84.5136 150.228C84.4383 150.045 84.3306 149.797 84.406 149.743L84.6536 149.538L85.2782 149.022C85.5367 148.806 85.935 148.677 86.3119 148.612L86.8611 148.171C87.0226 148.042 87.1949 147.6 87.3026 147.417L87.6363 146.847C87.7332 146.685 87.8624 146.567 88.0455 146.427L88.8746 145.791L89.4669 145.425C89.9299 145.134 90.339 144.865 90.4359 144.262C90.4682 144.09 90.7806 143.875 90.9206 143.778L91.7174 143.207C91.8789 143.089 92.0511 142.916 92.2234 142.69C92.3849 142.475 92.8802 142.507 93.3002 142.539L93.451 142.733L94.2801 143.272C94.3878 143.336 94.5277 143.627 94.5062 143.659L94.8723 143.745C94.9369 143.767 95.0446 143.788 95.0338 143.831L94.9477 144.122L95.2707 143.853V144.101C95.2707 144.101 95.3891 144.208 95.4214 144.241L96.3045 145.091L96.3368 145.145ZM96.3798 145.511L96.3152 145.576L96.3798 145.641L96.4444 145.576L96.3798 145.511ZM100.913 149.689L100.848 149.754L100.913 149.818L100.978 149.754L100.913 149.689ZM61.0399 177.621L60.9752 177.729L61.0399 177.793L61.1044 177.729L61.0399 177.621Z" fill="black"/>
<path d="M98.0486 147.234L97.9302 147.212L97.9194 147.105L98.0486 147.234Z" fill="black"/>
<path d="M69.5785 184.674L69.4277 184.512L69.6647 184.566L69.5785 184.674Z" fill="black"/>
<path d="M148.808 149.517L148.722 149.582C148.797 149.517 148.873 149.463 148.808 149.517Z" fill="black"/>
<path d="M148.721 149.582L148.808 149.517L148.969 149.495L149.077 149.334L149.744 148.903L150.94 148.128C150.886 148.192 151.004 148.128 151.004 148.052L151.737 147.536L151.855 147.406C151.855 147.406 151.92 147.449 152.092 147.557C152.059 147.643 152.092 147.536 152.135 147.439L152.027 147.342L152.146 147.277L152.2 147.31L152.716 146.846L153.298 146.405L153.502 146.222L154.062 145.694L154.138 145.608L154.644 145.274L155.807 145.737C156.054 145.834 156.216 146.48 156.27 146.674L156.937 146.997C157.045 147.051 157.357 147.213 157.411 147.32L158.046 148.44C158.305 148.537 158.596 148.666 158.692 148.806C159.08 149.366 159.489 149.323 160.125 149.958C160.362 150.206 160.545 150.368 160.857 150.475C161.621 150.744 162.224 151.66 162.72 152.413L163.161 153.081L163.603 153.749L164.141 153.867C164.539 154.47 164.356 155.062 164.69 155.482C166.553 155.353 166.23 157.151 167.081 157.991L167.877 158.788L168.545 159.369C168.911 159.466 169.546 159.854 169.546 160.209V161.178C169.546 161.383 169.74 161.717 169.902 161.911C170.193 162.266 170.526 162.88 170.871 163.084L171.625 163.515C172.335 163.924 171.765 164.28 172.303 165.044L173.003 166.035C173.089 166.153 173.487 166.239 173.649 166.272C174.693 166.455 174.209 167.348 174.661 167.574C175.157 167.822 175.641 168.231 175.792 168.78C175.91 169.222 176.201 169.437 176.675 169.491L177.181 170.202C177.213 170.826 177.568 171.246 178.085 171.537L178.387 172.065L179.291 172.797L180.013 173.852L180.626 174.39C180.777 174.52 180.993 174.961 181.165 175.069L182.08 175.629C182.263 175.747 182.5 175.973 182.662 176.135L183.017 176.479L183.308 177.352C183.405 177.632 183.631 178.084 183.846 178.224L184.546 178.676C184.923 178.924 185.267 179.268 185.547 179.634L185.978 180.194C186.269 180.571 186.57 180.84 187.012 181.185C186.958 181.346 186.764 181.648 186.613 181.809L186 182.445C185.924 182.52 185.666 182.628 185.569 182.692L184.718 183.242L184.32 183.543L182.446 185.266L182.037 185.729L180.67 187.032L178.484 188.787C178.387 188.862 178.118 189.002 178.01 188.949C177.902 188.895 177.773 188.744 177.644 188.626L176.976 188.055C176.405 187.57 176.147 186.924 175.867 186.752L175.167 186.343L174.284 185.74L172.389 184.318L172.001 183.242L171.399 183.123L171.194 182.553C170.806 182.057 171.119 181.573 170.677 181.239L170.429 180.593C169.428 180.184 169.267 179.311 168.588 179.085C168.05 178.902 167.867 178.601 167.813 178.084C167.673 177.922 167.468 177.642 167.382 177.449L166.951 176.447L166.176 175.941L165.541 175.693C165.358 175.618 165.035 175.306 164.906 175.166L164.572 174.078C163.85 174.078 163.872 173.378 163.398 172.851L162.87 172.269L162.16 171.483L161.891 171.225C161.826 171.16 161.955 170.902 161.934 170.805C161.858 170.428 161.449 170.191 161.201 169.868L160.534 168.996C160.222 168.791 160.06 168.673 159.877 168.382L159.392 167.65L158.919 167.23L158.412 166.541L157.637 165.582C157.486 165.399 157.228 165.184 157.12 165.012L156.507 163.978L156.098 163.321C156.022 163.192 155.893 162.966 155.785 162.901L155.042 162.438C155.042 161.846 154.439 161.964 154.644 160.974C154.665 160.866 154.719 160.672 154.644 160.651L154.321 160.521C154.17 160.457 153.955 160.231 153.836 160.069L153.362 159.423L152.738 158.702C152.533 158.454 152.253 158.26 151.984 158.11L150.714 157.399C150.455 157.033 150.164 156.365 149.755 156.204C149.378 156.042 149.002 155.934 148.937 155.493L148.765 154.19L148.312 154.039C147.946 153.479 147.408 153.103 146.751 152.898L146.256 152.263C146.159 152.133 146.126 151.757 146.17 151.649L146.148 151.574L146.191 151.477L146.277 151.563L146.988 150.906L147.505 150.475L147.569 150.411L148.054 150.088L148.7 149.635L148.721 149.582Z" fill="black"/>
<path d="M151.004 148.042L150.94 148.117C151.026 148.02 151.069 147.966 151.004 148.042Z" fill="black"/>
</g>
<defs>
<clipPath id="clip0_137_2368">
<rect width="250" height="250" fill="white"/>
</clipPath>
</defs>
</svg>
