<?xml version="1.0" standalone="no"?>
<!DOCTYPE svg PUBLIC "-//W3C//DTD SVG 20010904//EN"
 "http://www.w3.org/TR/2001/REC-SVG-20010904/DTD/svg10.dtd">
<svg version="1.0" xmlns="http://www.w3.org/2000/svg"
 width="614.000000pt" height="406.000000pt" viewBox="184 78 250 250"
 preserveAspectRatio="xMidYMid meet">
<metadata>
Created by potrace 1.16, written by Peter Selinger 2001-2019
</metadata>
<g transform="translate(0.000000,406.000000) scale(0.100000,-0.100000)"
fill="#000000" stroke="none">
<path d="M3052 3624 c-7 -3 -19 -19 -28 -35 -12 -24 -14 -64 -13 -202 3 -171
15 -263 39 -292 7 -8 25 -15 40 -15 22 0 30 7 44 38 26 58 27 412 1 462 -10
19 -18 36 -19 37 -4 6 -53 11 -64 7z"/>
<path d="M4003 3044 c-138 -142 -183 -201 -183 -242 0 -46 57 -56 113 -18 43
29 209 194 259 256 63 79 58 127 -16 146 -26 6 -37 -3 -173 -142z"/>
<path d="M1946 3138 c-17 -66 -12 -74 140 -225 154 -153 189 -177 235 -161 64
22 34 89 -102 230 -57 59 -126 123 -154 143 -60 42 -109 48 -119 13z"/>
<path d="M2970 2861 c0 -7 -10 -9 -25 -5 -18 4 -25 2 -25 -9 0 -11 -10 -13
-44 -11 -32 3 -50 -1 -69 -16 -14 -11 -31 -20 -39 -20 -7 0 -31 -10 -53 -22
-22 -12 -55 -29 -73 -38 -41 -20 -166 -142 -194 -190 -12 -19 -31 -46 -44 -60
-26 -29 -73 -122 -99 -195 -10 -27 -23 -56 -28 -62 -5 -7 -7 -20 -3 -28 3 -9
2 -13 -3 -10 -5 3 -12 1 -16 -5 -3 -5 -1 -10 6 -10 8 0 8 -4 -1 -15 -10 -12
-9 -15 6 -15 18 -1 18 -1 2 -11 -20 -11 -23 -40 -7 -56 8 -8 7 -17 -5 -34 -11
-17 -13 -26 -5 -36 6 -7 9 -19 6 -27 -3 -8 -1 -17 6 -20 9 -3 9 -7 -1 -14 -27
-19 28 -262 60 -262 4 0 8 -8 8 -18 0 -15 100 -167 119 -182 4 -3 17 -22 30
-42 26 -44 78 -87 141 -118 63 -30 68 -33 130 -67 107 -59 182 -77 314 -76 83
1 121 4 126 13 4 7 17 10 29 7 12 -3 23 -2 26 3 2 4 20 10 39 13 46 7 179 66
189 83 4 8 14 14 22 14 28 0 265 196 265 219 0 6 5 11 10 11 6 0 10 6 10 13 0
6 12 23 26 36 17 17 24 32 21 48 -2 12 0 20 4 17 5 -3 17 13 26 36 10 22 21
40 25 40 5 0 8 16 8 35 0 20 6 46 14 58 17 27 16 277 -1 317 -10 22 -34 119
-48 190 -6 33 -37 111 -54 140 -9 14 -25 41 -36 59 -29 49 -96 121 -112 121
-7 0 -13 4 -13 9 0 5 -12 16 -27 23 -16 8 -37 19 -48 25 -11 6 -37 19 -57 27
-20 9 -40 21 -43 26 -3 6 -16 10 -29 10 -12 0 -26 4 -32 10 -13 13 -155 61
-164 55 -4 -2 -22 0 -41 5 -54 16 -229 24 -229 11z m270 -145 c19 -7 52 -20
72 -29 21 -10 41 -17 46 -17 5 0 15 -7 22 -15 7 -8 19 -15 26 -15 8 0 22 -8
32 -17 37 -36 86 -73 97 -73 28 0 145 -114 145 -141 0 -11 7 -22 15 -25 8 -4
15 -12 15 -19 0 -7 11 -37 24 -67 54 -122 50 -322 -11 -513 -36 -114 -93 -198
-168 -248 -18 -12 -57 -40 -86 -62 -30 -22 -68 -47 -84 -56 -35 -20 -187 -69
-229 -75 -16 -2 -32 -7 -35 -11 -10 -13 -181 -10 -189 4 -4 6 -25 13 -47 15
-22 2 -44 9 -50 15 -12 15 -151 83 -170 83 -22 0 -144 126 -151 157 -4 15 -12
35 -19 43 -10 12 -26 48 -30 70 -3 14 -17 57 -25 75 -25 56 -39 134 -39 218 0
32 -5 57 -11 57 -5 0 -10 5 -10 11 0 6 7 9 15 5 11 -4 15 2 15 22 0 26 13 72
57 207 22 66 69 144 107 175 17 14 40 35 52 48 12 12 25 22 29 22 5 0 23 11
41 25 18 14 37 25 43 25 6 0 11 4 11 10 0 13 71 43 155 65 39 10 72 22 75 26
3 5 19 7 35 5 16 -2 43 3 60 10 34 16 109 11 165 -10z m525 -226 c3 -5 1 -10
-4 -10 -6 0 -11 5 -11 10 0 6 2 10 4 10 3 0 8 -4 11 -10z m35 -710 c0 -5 -5
-10 -11 -10 -5 0 -7 5 -4 10 3 6 8 10 11 10 2 0 4 -4 4 -10z m-40 -110 c0 -5
-5 -10 -11 -10 -5 0 -7 5 -4 10 3 6 8 10 11 10 2 0 4 -4 4 -10z"/>
<path d="M4256 2103 c-1 -1 -20 -5 -42 -8 -39 -6 -74 -35 -74 -61 0 -7 12 -25
27 -39 24 -22 37 -25 108 -27 138 -3 315 0 340 6 40 10 73 50 68 81 -10 48
-43 56 -244 53 -99 -2 -182 -4 -183 -5z"/>
<path d="M1576 2091 c-51 -8 -94 -45 -76 -67 6 -6 6 -14 0 -20 -7 -7 -3 -17
11 -30 20 -18 36 -19 228 -16 197 2 267 11 283 36 17 24 7 55 -23 77 -28 20
-44 22 -202 24 -95 2 -194 0 -221 -4z"/>
<path d="M3850 1303 c-9 -2 -21 -13 -28 -24 -24 -38 16 -100 163 -245 75 -74
147 -139 161 -144 38 -15 64 -12 71 8 4 9 11 20 16 23 22 15 -7 68 -72 134
-210 213 -267 259 -311 248z"/>
<path d="M2282 1288 c-7 -7 -12 -9 -12 -5 0 33 -197 -146 -289 -263 -37 -46
-42 -59 -37 -88 6 -41 32 -64 64 -57 23 6 83 54 126 103 12 13 57 62 101 108
97 102 122 144 109 181 -10 28 -43 40 -62 21z"/>
<path d="M3040 943 c-21 -36 -23 -50 -24 -228 -1 -194 5 -234 42 -277 11 -13
18 -15 28 -7 7 6 17 8 22 5 5 -3 18 4 28 15 18 20 19 38 16 243 -2 214 -10
276 -36 276 -6 0 -20 3 -32 6 -17 4 -26 -3 -44 -33z"/>
</g>
</svg>
