<svg width="250" height="250" viewBox="0 0 250 250" fill="none" xmlns="http://www.w3.org/2000/svg">
<g clip-path="url(#clip0_137_2707)">
<path d="M61.8898 158.223L61.3417 156.801C60.7023 156.553 60.1803 155.822 60.3891 155.235C60.5587 154.778 60.3891 154.595 60.1411 154.282L59.5669 153.525C59.3581 153.016 59.1493 152.625 58.8492 152.181L58.3533 151.45L58.1184 150.824C57.7791 150.445 57.5572 150.119 57.3484 149.623C57.0874 148.997 56.6698 149.284 56.5393 148.697C56.3175 147.679 55.5344 147.013 55.5736 147.013L54.908 146.948L55.404 145.212L54.4643 143.516C54.2686 143.163 54.2164 142.968 53.9032 142.694C53.0027 141.911 53.3029 141.271 53.081 140.841C52.9636 140.606 52.7156 140.214 52.6765 139.966C52.546 139.157 52.1675 138.557 51.6847 137.957C51.1235 137.121 51.241 136.416 51.0191 136.129L50.4319 135.359L50.1056 134.642C48.6179 133.846 48.9311 132.436 48.3178 132.384C47.6261 132.332 47.2476 132.228 46.6865 131.993L45.2379 131.614C45.1466 131.079 45.0552 130.831 44.8203 130.427L44.6637 129.409C44.3114 129.017 44.0112 128.56 43.9721 128.038C43.8807 127.02 43.0716 127.399 42.9411 126.72L42.6932 125.468L42.393 124.841L42.8106 124.215L41.871 123.745C41.3751 123.497 40.9314 123.314 40.292 123.249L39.7961 122.531C39.6134 122.257 39.6003 121.774 39.4568 121.383L39.1044 120.326L39 119.36C39.1175 119.204 39.3654 118.877 39.4045 118.72L39.7699 117.624L39.9918 116.776L40.4486 115.889C40.6835 115.432 41.1011 115.889 42.1842 115.132C42.7062 114.766 43.3848 114.571 43.9721 114.257L45.4728 113.462C45.8904 113.24 46.4516 113.344 46.804 112.965L47.6 112.078L47.9262 111.139C48.5918 110.917 48.383 109.925 48.8659 109.951L50.1056 110.042C50.732 109.364 51.6325 109.063 52.4938 109.298L53.5378 108.529C54.5557 107.785 54.7123 107.093 55.3909 106.871C56.1347 106.636 56.3436 106.153 56.5915 105.514C56.8395 104.874 57.5311 105.644 58.3533 104.783C58.5751 104.548 58.7448 104.365 58.8231 104.039C59.0188 103.23 59.7627 103.791 60.2064 103.648L61.5375 103.23L62.2161 102.995C62.6337 102.852 63.2601 102.486 63.495 102.134L64.1866 101.129C64.3171 100.933 64.6434 100.555 64.8653 100.516L66.5618 100.176L67.4231 98.9497C68.1669 98.767 68.4671 98.3233 68.702 97.6317C69.6677 96.7181 70.8422 96.8486 71.1293 96.3136C71.4816 95.6741 71.847 95.5045 72.5256 95.3871L73.387 95.0608C73.7524 94.9173 74.6006 94.1472 74.705 93.9253C74.8094 93.7035 74.7442 93.3511 74.6137 92.9596L75.5794 92.3986L76.6103 91.6288L77.5369 91.5374L78.085 91.0152L78.9332 91.0805C79.1551 91.0935 79.7032 90.9499 79.9381 91.0152C80.8386 91.237 81.9217 91.5113 82.7177 91.9159L84.0228 92.5684C84.2316 92.6728 84.5187 93.0251 84.6753 93.2339C85.2364 93.9517 85.6149 93.834 85.915 94.6562C86.0455 94.9955 86.2282 95.2045 86.3979 95.5177L86.8807 96.392C86.9721 96.5616 87.1548 96.8225 87.3114 96.9791C87.6768 97.3446 87.8334 97.736 88.0552 98.1927C88.264 98.6103 88.512 98.9626 88.5381 99.4716C88.5903 100.242 89.1515 100.163 89.543 101.26C90.339 101.69 90.0128 102.173 90.4173 102.447C90.7175 102.643 91.0306 102.995 91.135 103.348L91.6962 103.817L92.6097 104.875L92.6619 105.853L93.1056 106.427C92.9621 107.276 93.3797 107.98 94.0322 108.437L94.2932 109.194C94.6977 109.56 94.8804 109.886 95.0501 110.395L95.7417 110.747L96.5378 112.143C96.6552 112.352 97.2425 112.613 97.3338 112.822L97.4382 113.944L97.8428 115.302C98.1429 116.306 98.8477 115.915 99.0434 116.724L99.1609 117.181C99.2261 117.468 99.97 116.959 101.197 116.763L102.397 116.567C102.802 116.502 103.272 115.771 103.572 115.497L104.681 114.492L105.281 114.049C105.49 113.801 105.829 113.501 106.09 113.422L107.161 113.135L109.444 111.974L110.527 111.439C111.493 110.969 112.185 110.329 112.798 109.429C113.412 108.529 113.96 109.024 114.429 108.685L115.291 108.059C115.669 107.785 115.747 107.302 116.778 106.454C117.235 106.075 117.64 105.853 118.305 105.971C118.971 106.088 118.906 105.279 119.649 104.757L120.876 103.883C121.281 103.4 121.855 103.1 122.494 102.969C123.095 102.369 123.786 101.886 124.569 101.521L126.279 100.699C126.697 100.49 127.179 99.524 128.445 99.3282C128.941 99.2499 129.346 99.1065 129.698 98.7802C130.546 97.9842 130.873 98.193 131.238 97.4752C131.851 96.2746 133.443 96.418 133.887 95.7003L134.709 95.5046L135.531 94.5389L135.936 94.0429L136.693 93.4818C137.593 92.8163 137.463 92.2289 138.05 92.0201L139.355 91.5504C139.877 91.3677 140.295 91.185 140.778 90.8718C141.078 90.6761 141.756 90.4541 141.939 90.167L142.409 89.41C143.818 89.5275 144.301 88.1052 145.671 87.6485L146.572 87.3483C147.355 85.8084 148.477 86.1084 149.156 85.5211L150.056 84.7383L150.787 84.1508L151.505 83.642L152.353 83.1721C152.784 82.9372 153.136 82.5982 153.423 82.1675L154.036 81.2537C154.206 81.0058 154.937 81.0974 155.25 81.1887L156.307 80.6404C156.333 80.1445 156.633 79.9226 157.103 79.9226C157.534 79.9226 157.769 79.6748 158.069 79.4269C158.486 79.0745 158.787 78.8265 159.165 78.3828C159.4 78.0957 160 77.7041 160.366 77.6127L161.84 77.2215C162.167 77.1301 162.532 76.5168 162.78 76.295L163.511 75.6552L164.242 75.329L165.168 74.781C165.338 74.6896 165.638 74.3373 165.742 74.1807C166.512 73.1236 166.982 73.5674 167.713 72.8888L168.652 72.0145C169.07 71.623 169.801 71.7535 170.545 70.9835L171.249 70.4744L171.563 69.7699L172.267 69.4045C172.541 69.1565 172.907 69.0649 173.298 69.1432C173.468 69.078 173.755 68.8825 173.925 68.7389L174.538 68.2559C175.06 67.8514 174.773 67.2904 175.295 67.1599L176.861 66.7422C177.148 66.6639 177.5 66.0634 177.748 65.9068L178.819 65.2024L179.601 64.6018L181.233 63.7276C181.729 63.4666 181.964 62.6967 182.655 62.4748C182.995 62.3704 183.517 62.0834 183.791 61.8876C184.065 61.6136 184.273 61.4437 184.574 61.3001L185.109 61C185.931 61.3654 186.635 61.0394 187.679 61.5744L189.441 62.4879L191.268 64.2364L191.999 65.2805C192.169 65.5284 192.378 65.7895 192.639 65.9722C193.422 66.5203 193.121 67.0293 193.565 67.7079L194.1 68.556C194.27 68.817 194.57 69.1827 194.805 69.4306L195.966 70.6442C196.54 71.2314 196.867 71.8057 197.115 72.6539L197.767 73.6196L198.759 74.6637C198.968 74.8856 199.151 75.081 199.268 75.342C199.425 75.6944 199.646 75.9164 199.907 76.1905L201.578 77.9001L202.752 79.4269C203.026 79.7792 203.261 80.1056 203.418 80.5362L203.888 81.8413L204.671 82.3762L205.31 83.4983C205.636 83.7854 205.832 84.0728 206.041 84.4251L206.576 85.3516L207.333 86.4215L207.972 87.831L208.547 88.2879L209.382 89.5145C209.969 90.3758 210.4 90.1931 210.439 90.7934L210.517 92.2552C210.53 92.5292 210.896 93.064 211 93.2859L210.308 94.1082L209.343 95.5958C209.251 95.7393 208.677 95.7003 208.494 95.7264L206.028 96.1441L204.893 95.9873L204.318 97.149L203.862 97.8926C203.718 98.1275 203.353 98.5844 203.079 98.7018L202.256 99.0673L201.369 99.4977L199.92 100.124C199.62 100.255 199.503 100.372 199.216 100.398L198.054 100.503L197.023 100.933L195.744 101.325C195.614 101.364 195.536 101.625 195.601 101.899C195.301 102.134 194.727 102.33 194.205 102.447C193.604 102.708 193.134 103.021 192.913 103.622L192.417 105.031C190.825 104.9 190.916 106.219 189.924 107.145L189.128 106.975L187.901 107.68C187.445 108.333 186.883 108.829 186.061 108.946C185.448 109.807 184.587 109.703 184.352 110.943C184.286 111.282 183.856 111.843 183.543 111.817C182.681 111.778 182.185 111.987 181.533 112.404C181.089 112.678 180.763 112.966 180.515 113.475C180.228 114.075 179.902 113.722 178.975 114.27C177.788 114.962 178.283 115.693 177.514 116.502C177.2 116.815 176.848 116.437 176.195 116.815L175.791 117.05C175.217 117.39 175.53 117.912 174.93 118.042L174.16 118.199L173.246 119.217L172.476 119.412C172.006 119.53 171.524 120.404 171.302 120.978C171.132 121.409 170.78 121.552 170.414 121.748C169.788 122.544 169.148 122.1 168.666 122.975C167.948 123.327 167.569 123.745 167.178 124.463C166.747 125.246 165.925 124.528 165.677 125.455C165.612 125.716 165.494 126.264 165.299 126.381L164.45 126.916L163.524 126.994L162.388 128.078L161.84 128.573L161.605 129.082L160.822 129.435L159.752 130.061C159.256 130.348 158.865 131.236 158.408 131.575C157.951 131.914 157.651 132.175 157.273 132.593L156.151 133.193C155.681 133.441 155.354 133.741 154.989 134.12L154.219 134.955C153.997 135.19 153.775 135.62 153.554 135.725L152.718 136.103L151.805 136.56L150.735 137.134L149.847 137.669L149.417 138.857C149.312 139.144 148.033 138.857 147.707 140.149C147.577 140.645 147.12 140.893 146.624 140.854L145.202 141.963L143.427 143.581C143.166 143.816 142.357 143.855 142.226 144.273C142.043 144.86 141.665 145.265 141.104 145.408C140.543 145.552 140.464 146.413 139.551 146.935L138.455 146.909L137.815 147.901L137.411 148.514C137.124 148.958 136.236 148.344 135.231 149.297C134.735 149.767 134.892 150.067 134.435 151.059C134.174 151.633 133.391 151.202 132.843 151.489L131.669 152.403C131.094 152.846 131.408 153.59 130.337 153.747C130.103 153.786 129.829 153.917 129.62 154.06L128.38 154.882C128.21 154.987 127.767 155.078 127.545 155.143C126.697 155.431 126.592 156.279 126.096 156.448C125.692 156.579 125.418 156.814 125.196 157.231L123.76 157.557C123.421 157.636 123.029 157.923 122.755 158.132L122.142 158.615L121.829 160.35C121.711 161.016 121.072 160.846 120.132 161.277L118.671 161.942L117.836 162.177C117.614 162.243 117.379 162.608 117.261 162.869L116.596 164.396C116.204 164.435 115.682 164.487 115.473 164.631L114.26 165.466C113.829 165.766 113.477 165.805 113.216 166.262C112.824 166.98 112.107 166.758 111.271 167.397L109.849 168.428L109.692 169.107C109.51 169.407 109.118 169.955 108.87 170.164L107.356 171.365C107.069 171.586 106.756 171.743 106.364 171.835C105.229 172.096 103.676 172.931 103.18 173.962C102.971 174.392 101.875 174.301 101.314 175.032L100.649 175.88C100.205 176.441 99.8003 176.872 99.0173 176.95C98.7171 178.177 98.8346 178.79 97.7384 178.894C97.2686 178.947 96.9554 179.221 96.6161 179.573C95.7939 180.421 94.763 180.447 94.6325 180.8L94.0844 182.301L92.8838 182.783C92.6619 182.875 92.2443 183.227 92.0486 183.384L91.1742 184.128L90.4825 185.694L89.6734 185.954L89.034 187.508L88.5903 187.964C88.1727 188.395 88.003 188.003 87.5332 188.317L86.9851 188.682L86.3848 188.995C85.0929 189.674 82.9657 189.413 81.6477 188.813C81.2823 188.643 81.0082 188.591 80.6167 188.447L79.4161 188.043C79.1551 187.951 78.6853 187.482 78.6722 187.208L78.607 186.137C78.5809 185.759 78.4504 185.472 78.4373 185.067L78.346 182.796L77.5499 181.922C77.2628 181.609 76.9757 181.439 76.8583 180.97C76.6886 180.304 76.0361 180.591 75.8143 179.965L75.488 179.051C75.4097 178.829 75.1096 178.359 74.9008 178.242L74.1047 177.863L73.9742 176.624C73.909 175.997 73.6349 175.319 73.2956 174.797L72.5518 173.688C72.0297 172.905 72.63 172.343 71.7948 172.148C71.3511 172.043 71.0771 171.808 70.8161 171.43L69.1065 170.96L68.8977 169.812L69.2501 169.159L68.3888 168.115C68.2061 167.906 67.9581 167.371 67.8276 167.11L67.2665 166.014L66.9402 165.388C66.7184 165.192 66.1964 164.813 66.105 164.513L65.8571 163.6V163.156C65.5439 162.986 65.3481 162.817 65.2307 162.569L64.8 161.629C64.7217 161.46 64.3824 161.186 64.2388 161.042L63.495 160.298L62.464 158.641C62.3596 158.471 62.1117 158.302 61.8768 158.145L61.8898 158.223ZM167.034 108.959L167.086 108.542C167.139 108.176 167.948 108.542 168.104 108.45L169.044 107.915C169.971 107.393 169.788 106.858 170.571 106.336L171.406 105.775C171.602 105.644 172.072 105.501 172.32 105.423L172.672 104.327L173.455 103.53C173.938 103.034 174.147 103.648 174.864 103.256L176.352 102.46C176.73 102.264 176.952 102.017 177.083 101.573L177.566 101.168C177.788 100.933 178.049 100.738 178.323 100.633L179.184 100.281C180.411 99.785 180.502 98.8192 181.141 98.6104C181.964 98.3364 182.459 98.1407 182.851 97.3838C183.19 96.7182 183.947 96.1962 184.587 95.7656C184.691 95.2175 184.991 94.7606 185.578 94.6693L186.662 93.5341L187.523 92.6203L188.737 91.4459L189.089 91.0936L190.864 90.3365C191.49 90.0755 191.856 89.5537 191.921 88.862L192.834 88.2879C192.952 88.1313 193.226 87.7659 193.395 87.6746L194.766 86.9568C194.87 86.9046 195.066 86.7349 195.053 86.6305C195.04 86.5522 194.948 86.3565 194.909 86.3043L194.374 85.6518C194.205 85.443 193.852 85.182 193.722 84.9993L193.043 84.0205L191.999 82.6633C191.79 82.3892 191.699 82.102 191.751 81.6322C191.79 81.6714 191.699 81.5802 191.542 81.4497L191.229 80.758C191.125 80.5231 190.89 80.1967 190.707 80.001L189.533 78.7874L188.593 77.6519C188.162 77.1299 187.849 76.4907 187.157 76.2688C186.988 76.2166 186.675 75.9424 186.622 75.7858L186.27 74.6637L186.048 74.0762L185.278 74.794L183.764 75.1595L183.464 75.812C183.138 76.5167 182.747 76.0598 182.355 76.7123L181.924 77.404C181.611 77.913 181.063 77.4042 180.554 77.9132C180.006 78.4613 179.249 78.174 179.119 78.709C178.988 79.2441 178.31 79.6225 177.814 79.6355C177.566 79.6355 176.626 80.4057 176.156 81.1104C175.621 81.9195 174.486 80.9928 174.525 82.3109C173.964 82.7807 173.207 83.081 172.515 83.4203L171.524 83.916C171.08 84.1379 170.649 84.7512 170.336 85.1949L169.71 85.4689C169.475 85.7821 169.135 86.1216 168.796 86.3173L167.752 86.9045C167.478 87.0611 167.178 87.3353 166.917 87.3745C166.225 87.4919 165.834 87.7921 165.481 88.3663C164.92 89.2928 164.15 88.6272 163.459 89.5668C163.263 89.8278 163.054 90.0497 162.806 90.2585C162.232 90.7544 162.375 91.4329 161.162 91.459C160.535 91.472 159.792 91.8245 159.322 92.216L158.239 93.0903L157.456 93.6905L156.294 94.8391L155.302 95.1784L154.467 95.9612C153.841 96.0004 153.423 96.3006 152.979 96.7313L151.87 97.8276H150.996L149.978 98.2188L148.999 99.2498C148.725 99.537 147.968 99.1453 147.498 100.124L146.676 100.777C146.507 101.116 146.206 101.521 145.945 101.625L144.862 102.082L143.675 102.643C143.505 103.478 142.957 103.269 141.861 103.948L141.012 104.47C140.699 104.666 140.386 104.927 140.242 105.279C140.034 105.788 139.694 105.958 139.238 106.258L138.624 106.662C138.181 106.949 137.593 107.132 137.019 107.302L136.327 108.359C136.21 108.541 135.649 108.594 135.453 108.685L134.305 109.181C134.109 109.259 133.717 109.559 133.548 109.716L132.739 110.421C132.06 111.008 131.408 110.564 131.029 111.53C130.807 112.065 130.455 111.739 129.698 112.208L128.563 112.913C127.845 113.357 127.388 113.266 126.657 113.762L125.979 114.218C125.705 114.401 125.444 114.988 125.287 115.393C125.078 115.967 124.439 115.393 123.708 116.202C123.564 116.358 123.121 116.45 122.86 116.528L120.981 117.076C120.315 117.272 119.937 118.394 119.571 118.956L118.658 119.125C118.253 119.869 117.535 120.117 116.831 120.456L115.734 120.978C115.63 121.031 115.304 121.148 115.252 121.239L114.534 122.675C113.686 122.675 113.137 122.871 112.537 123.419C112.368 123.575 112.028 123.68 111.689 123.745C111.441 123.797 111.102 124.032 110.854 124.189L109.718 124.867L108.674 125.481C108.191 125.768 108.205 126.094 107.382 126.812C107.069 127.086 106.782 127.308 106.378 127.438C106.038 127.543 105.79 127.712 105.49 127.882L104.485 128.482L103.493 129.226C103.232 129.826 102.919 130.022 102.41 130.296L100.675 131.236C100.322 131.431 99.8656 131.575 99.4218 131.614L97.3208 131.771C96.7857 131.81 96.0941 131.927 95.6112 131.836L93.7712 131.497L92.6097 131.105L91.2134 130.374C90.861 130.192 90.587 129.33 90.5609 128.913C90.5087 128.299 90.4956 127.712 90.2607 127.242L89.83 126.355L89.0992 125.402C88.8513 125.076 88.7338 124.75 88.7469 124.28C88.773 123.471 88.1205 123.732 87.7029 123.158L87.1939 122.479L87.0373 121.305C86.9851 120.952 86.8807 120.404 86.7372 120.156L86.176 119.19C85.9672 118.838 85.7976 118.551 85.4061 118.303C84.8058 117.925 85.38 117.585 84.7405 116.75C84.5187 116.463 84.336 115.863 84.2968 115.484L84.1794 114.505C84.075 113.631 83.6574 113.761 82.9396 112.848L82.1958 111.908C81.7129 111.295 80.8646 110.656 80.8385 109.821C80.8385 109.468 80.8385 109.129 80.708 108.881L80.1599 107.759L79.5988 106.61C79.4422 106.297 78.7897 106.049 78.4243 106.049C77.6543 106.049 77.2237 106.336 76.6756 106.728C76.3493 106.949 76.0231 107.158 75.7751 107.458C75.4097 107.902 75.0052 108.085 74.4701 108.268L73.139 108.724C72.7736 108.855 72.1733 109.364 71.9254 109.651C71.4294 110.225 71.0249 110.499 70.2941 110.643L69.0674 110.878C68.6498 110.956 68.18 111.334 67.8668 111.7C67.5536 112.065 67.2012 112.091 66.7575 112.261C66.1572 112.496 65.5439 113.044 64.9827 113.383L63.5733 114.257C63.234 114.466 62.8686 114.949 62.5684 115.262L61.3939 116.489L60.7675 117.181C60.3108 117.324 59.6974 117.468 59.3842 117.703C58.7709 118.16 58.2619 118.551 57.5181 118.682C57.0613 118.76 56.7351 118.929 56.3175 119.112L54.4252 119.947C53.603 120.313 54.5687 120.991 55.8085 121.631C56.2522 121.866 56.1478 122.427 56.8394 123.484L57.6094 124.645L57.6616 125.337C57.7008 125.833 57.8313 126.224 58.2358 126.564C58.9014 127.112 58.2358 127.79 58.8883 127.947C59.3451 128.051 59.593 128.443 59.6583 128.834C59.7366 129.382 60.376 129.043 61.0024 129.461C61.3026 129.774 61.2634 130.544 61.146 131.001C61.0155 131.562 61.4983 132.019 61.9942 132.136C62.5815 132.266 63.0904 132.723 63.1687 133.35L63.0252 134.08L63.743 134.42L64.3041 135.451C64.8913 136.521 65.7135 136.56 65.4655 136.965C65.322 137.2 65.0219 137.774 65.1132 138.048L65.6874 139.797C66.2747 140.005 66.627 140.293 66.7053 140.893C66.8358 141.767 67.5797 141.741 68.18 142.681C68.3105 142.772 68.5323 142.902 68.5454 143.007C68.702 144.573 69.4197 145.03 69.5502 145.917C69.6416 146.543 70.4898 145.774 71.0901 146.726C71.4033 147.209 71.4555 147.6 71.4425 148.188C71.4425 148.54 71.8992 149.075 72.095 149.362L72.5909 150.106C72.7867 150.393 72.9955 150.641 73.0607 150.967C73.139 151.372 73.2956 151.711 73.5305 151.959L74.2483 152.742C75.1618 152.938 75.736 153.721 75.5794 154.673C75.5272 154.974 75.8404 155.509 76.0492 155.665L76.8583 156.239C77.054 156.383 77.4977 156.735 77.563 156.97L77.8892 158.145C78.0197 158.602 78.4243 159.045 78.7375 159.385C78.9202 159.58 79.5596 159.868 79.6249 160.116L79.9381 161.486L80.8255 161.89C80.5775 162.399 80.4601 163.378 80.956 163.822C81.1518 163.991 81.6868 164.148 81.9348 164.226C81.8565 164.513 81.8564 165.009 82.0261 165.27L82.7047 166.275C82.8352 166.458 83.2789 166.666 83.553 166.732C84.4926 167.006 83.6835 167.998 84.3751 168.52C84.6231 168.702 84.8319 168.885 84.9102 169.042L85.3669 169.955L85.8889 170.895L86.3065 171.561L87.1678 171.156C87.4941 171.247 88.1596 171.378 88.4337 171.247L90.0911 170.399C90.2216 169.89 90.5087 169.29 90.861 169.107C92.1269 168.494 91.5526 168.05 92.4401 167.358C92.5314 167.293 92.6489 167.058 92.7663 166.849C92.936 166.575 93.5885 166.523 93.98 166.679C94.1888 166.575 94.5933 166.38 94.7369 166.249L95.546 165.401L95.8853 164.853L97.1642 164.096C97.5035 163.887 97.8036 163.73 97.9602 163.43L98.4822 162.438C98.6649 162.086 98.939 161.76 99.3174 161.682L100.622 161.421C100.91 161.368 101.144 160.951 101.353 160.677L102.058 159.75C102.345 159.372 103.115 159.111 103.441 158.824L104.355 158.054L105.138 157.362C105.999 156.605 106.443 157.179 106.652 156.409C106.769 155.992 106.926 155.731 107.161 155.43C108.126 154.139 108.844 155.143 109.431 153.969L109.94 152.938C110.28 152.259 111.219 153.303 112.237 151.789L113.203 151.241C113.607 150.654 114.064 150.054 114.664 149.767L115.486 149.349L116.831 148.501L117.209 147.835C117.287 147.692 117.509 147.418 117.535 147.274C117.731 146.282 118.619 146.935 119.258 146.53L120.106 145.982L121.124 145.264L123.003 144.416C123.251 143.881 123.551 143.137 124.1 142.876L124.896 142.511L125.783 141.597C126.044 141.336 126.161 141.115 126.566 141.036C126.853 140.984 127.036 140.88 127.297 140.71C128.015 140.266 128.563 140.371 129.202 139.692L130.063 138.752C130.859 137.891 130.651 137.669 131.16 137.369L132.295 136.704C132.686 136.469 133.104 136.234 133.43 135.921L134.226 135.203C134.631 134.837 135.153 134.381 135.727 134.394C136.445 134.394 136.876 134.185 137.385 133.806L138.246 133.167L138.311 132.254L138.898 131.392C139.081 131.118 139.551 130.883 139.955 130.727C140.19 130.635 140.464 130.335 140.686 130.165L141.443 129.578L142.109 129.056L142.918 128.378L144.105 127.334L144.941 126.525L146.089 125.572C146.65 125.115 147.577 125.572 147.942 125.011L148.49 124.176C149.273 122.962 150.069 123.106 150.839 122.531L151.635 122.127L151.975 121.187L153.136 120.365L154.324 120.248C154.48 120.234 154.741 119.83 154.845 119.699L155.511 118.747L156.033 118.238C156.294 117.925 156.568 117.703 156.894 117.468L158.134 116.62C158.774 116.176 159.061 116.215 159.739 115.745L160.457 115.249L161.488 114.492L162.767 113.722L163.772 113.122C163.928 112.652 164.202 112.065 164.516 111.817L165.638 110.956C166.082 110.616 166.734 109.69 166.578 109.272L167.021 109.05V108.933L167.034 108.959Z" fill="black"/>
</g>
<defs>
<clipPath id="clip0_137_2707">
<rect width="250" height="250" fill="white"/>
</clipPath>
</defs>
</svg>
