<?xml version="1.0" standalone="no"?>
<!DOCTYPE svg PUBLIC "-//W3C//DTD SVG 20010904//EN"
 "http://www.w3.org/TR/2001/REC-SVG-20010904/DTD/svg10.dtd">
<svg version="1.0" xmlns="http://www.w3.org/2000/svg"
 width="500.000000pt" height="500.000000pt" viewBox="71 -8 359 516"
 preserveAspectRatio="xMidYMid meet">
<metadata>
Created by potrace 1.16, written by Peter Selinger 2001-2019
</metadata>
<g transform="translate(0.000000,500.000000) scale(0.100000,-0.100000)"
fill="#000000" stroke="none">
<path d="M2268 4988 c-16 -5 -28 -14 -28 -19 0 -5 -7 -9 -15 -9 -34 0 -51 -84
-57 -285 l-3 -90 -105 3 c-58 1 -147 4 -199 7 -71 3 -101 0 -124 -11 -16 -9
-31 -13 -34 -10 -3 2 -20 -11 -38 -29 -35 -37 -48 -84 -47 -182 0 -42 -4 -53
-18 -58 -10 -3 -94 -8 -186 -10 -93 -2 -189 -6 -214 -8 -25 -3 -98 -7 -164
-10 -109 -6 -120 -8 -141 -31 -13 -14 -26 -22 -30 -18 -4 4 -6 0 -3 -8 2 -8
-5 -22 -17 -32 -19 -14 -21 -25 -18 -90 5 -107 3 -240 -3 -265 -3 -12 -3 -27
2 -34 4 -6 6 -47 5 -90 -2 -76 13 -149 32 -149 5 0 6 -56 2 -127 -7 -118 -9
-269 -6 -403 5 -187 3 -447 -4 -605 -3 -71 -6 -139 -6 -150 0 -25 0 -265 -1
-285 0 -8 1 -24 1 -35 2 -67 -5 -202 -12 -213 -5 -6 -3 -28 4 -46 10 -27 10
-38 1 -49 -9 -11 -9 -22 -1 -46 8 -23 8 -36 1 -43 -7 -7 -7 -16 1 -28 7 -13 8
-22 0 -32 -6 -8 -9 -68 -8 -153 2 -77 0 -172 -4 -211 -4 -40 -3 -84 2 -98 5
-15 5 -34 1 -44 -4 -9 -8 -53 -9 -97 -4 -153 -14 -307 -21 -338 -12 -54 -10
-230 3 -257 11 -21 10 -26 -5 -32 -9 -4 -11 -7 -4 -7 7 -1 20 -17 29 -36 12
-24 23 -35 39 -35 14 0 24 -8 27 -21 4 -13 11 -20 20 -16 8 3 70 -1 138 -9 68
-7 153 -13 189 -13 62 1 113 -7 135 -20 13 -8 48 -11 270 -26 84 -6 106 -7
138 -5 6 1 28 -3 49 -8 20 -5 57 -8 83 -6 26 3 53 0 60 -6 8 -7 76 -11 172
-12 87 -1 171 -5 187 -9 16 -5 36 -4 45 0 10 6 30 4 53 -4 21 -7 54 -11 75 -9
77 8 245 4 257 -5 6 -5 56 -7 110 -5 55 3 107 2 115 -2 31 -12 176 -13 211 -1
29 10 43 10 78 -3 35 -12 44 -13 51 -2 7 12 12 12 30 0 18 -11 23 -11 30 0 6
11 20 11 66 3 47 -9 63 -8 91 5 18 9 38 13 44 9 6 -3 32 -9 58 -12 45 -6 58
-7 112 -3 14 1 78 -2 142 -5 107 -7 120 -6 157 14 23 11 41 18 41 15 0 -3 11
7 25 22 14 15 25 31 25 36 0 5 5 6 10 3 6 -3 10 1 10 9 0 9 5 16 10 16 6 0 10
22 10 48 0 27 3 52 8 56 12 12 15 269 6 436 -5 101 -5 91 -2 162 2 31 7 60 10
63 4 4 2 19 -4 34 -5 14 -9 80 -9 146 2 125 2 160 0 198 -1 12 -1 56 0 97 1
78 2 464 1 490 0 8 -3 51 -6 95 -7 107 -6 143 4 190 4 22 5 54 0 71 -4 16 -5
91 -2 165 3 74 5 146 5 162 0 15 0 37 0 50 0 12 0 47 -1 77 0 30 0 62 0 70 3
86 11 630 10 680 -1 168 -9 521 -14 570 -6 69 -26 140 -39 140 -5 0 -4 6 2 14
10 11 7 17 -10 29 -11 9 -18 20 -15 25 3 6 -1 13 -10 16 -8 3 -13 10 -10 14
14 23 -154 42 -181 20 -7 -6 -14 -5 -18 2 -9 14 -138 13 -153 -2 -10 -10 -17
-10 -31 -1 -12 7 -61 11 -139 9 -67 -1 -126 0 -132 4 -5 3 -10 35 -9 71 2 109
-11 181 -36 206 -13 12 -26 19 -29 16 -3 -4 -15 3 -27 15 -15 16 -27 20 -45
16 -34 -9 -321 -11 -329 -3 -3 4 -7 18 -9 31 -1 13 -5 29 -9 34 -3 6 -3 24 1
40 9 36 9 55 -1 72 -5 7 -6 21 -2 32 3 11 -1 30 -10 44 -9 14 -14 29 -11 34 8
13 -13 72 -25 72 -5 0 -9 7 -9 15 0 8 -18 24 -40 35 -37 19 -57 20 -307 19
-148 -1 -280 -5 -295 -11z m457 -313 c2 -106 2 -106 -69 -105 -33 1 -91 1
-128 1 -36 -1 -78 1 -92 5 -24 6 -24 9 -21 72 1 37 3 73 4 79 1 10 38 12 153
10 l152 -2 1 -60z m-525 -351 c52 -3 98 -7 101 -10 4 -2 11 1 15 7 4 7 18 8
38 4 17 -5 168 -9 336 -11 168 -1 353 -3 413 -3 l107 -1 2 -93 c1 -50 2 -103
1 -117 0 -14 -1 -47 -2 -75 -1 -27 1 -79 5 -115 4 -36 7 -101 8 -145 l1 -80
-95 1 c-218 3 -489 13 -540 20 -30 4 -71 6 -90 4 -19 -2 -53 -3 -75 -3 -299 7
-458 14 -495 19 -25 4 -58 6 -74 5 -30 -3 -50 15 -38 34 4 5 8 28 9 50 1 22 5
87 8 145 4 58 8 130 9 161 2 31 6 61 9 66 3 5 7 42 9 81 l2 72 121 -5 c66 -3
163 -8 215 -11z m-629 -273 c15 -1 16 -18 13 -158 -2 -87 -6 -173 -9 -190 -3
-18 -1 -42 5 -52 7 -13 7 -22 0 -26 -7 -4 -7 -13 0 -26 6 -10 8 -19 5 -19 -3
0 -1 -9 5 -20 6 -11 20 -20 31 -20 16 0 19 -4 14 -20 -5 -16 -2 -20 14 -20 12
0 21 -4 21 -9 0 -6 8 -10 18 -10 9 0 85 -2 167 -6 83 -4 193 -8 245 -10 52 -2
102 -4 110 -4 8 -1 54 -1 102 0 48 0 92 -2 97 -5 5 -4 21 -2 35 4 15 5 28 6
31 0 3 -5 25 -9 48 -9 23 0 107 -2 187 -6 80 -3 255 -8 389 -10 218 -4 246 -2
270 13 14 10 35 23 46 29 11 6 19 17 17 26 -1 8 4 17 12 20 7 3 17 27 21 54 4
26 11 53 17 60 5 7 6 18 2 25 -5 7 -9 57 -10 110 -1 53 -5 101 -8 107 -4 5 -4
34 0 63 l6 53 234 -1 c129 0 238 -4 242 -8 4 -4 8 -98 9 -209 1 -111 5 -276 8
-367 3 -91 6 -172 6 -180 0 -8 -2 -91 -6 -185 -4 -93 -7 -177 -7 -185 2 -96 2
-145 1 -295 -1 -71 -1 -141 1 -155 1 -14 1 -34 1 -45 -1 -11 -3 -157 -5 -325
-2 -168 -4 -352 -5 -410 -1 -58 1 -130 4 -160 6 -64 7 -87 2 -438 -2 -145 -1
-265 2 -267 4 -2 4 -34 1 -72 -3 -37 -3 -89 0 -115 3 -26 2 -84 -2 -130 -4
-46 -8 -106 -9 -134 l-2 -51 -101 4 c-55 2 -144 5 -196 7 -57 2 -105 -1 -120
-8 -22 -10 -138 -13 -270 -7 -25 1 -110 2 -190 3 -145 0 -264 4 -415 14 -44 3
-129 7 -190 9 -141 5 -410 16 -500 20 -38 2 -117 8 -175 15 -147 15 -226 21
-294 21 -32 -1 -64 3 -70 8 -6 5 -51 12 -101 16 -49 4 -95 11 -100 16 -6 4
-49 10 -95 11 -84 4 -85 4 -83 28 6 53 20 538 26 845 1 83 -1 166 -5 185 -4
20 -3 39 4 47 9 12 15 193 9 298 -1 22 -2 47 -1 55 0 8 1 38 1 65 1 93 7 280
9 290 1 6 1 15 0 20 -4 20 -1 232 5 318 5 62 3 92 -5 102 -7 8 -9 23 -5 32 5
14 9 204 6 348 0 21 8 202 10 220 1 6 -2 64 -5 130 -4 66 -9 154 -11 195 -2
41 -8 118 -13 170 -5 52 -6 102 -2 110 4 8 6 50 5 93 -2 42 0 79 4 82 5 2 45
7 90 10 46 3 87 7 91 10 5 3 11 1 15 -5 3 -5 20 -7 38 -4 60 11 162 19 202 17
22 -1 47 -2 56 -2z"/>
<path d="M3384 2973 c-25 -12 -126 -97 -147 -122 -7 -7 -49 -50 -94 -95 -46
-45 -83 -87 -83 -94 0 -7 -5 -12 -11 -12 -6 0 -69 -57 -140 -127 -71 -71 -179
-175 -240 -233 -61 -58 -132 -126 -157 -151 -26 -25 -60 -53 -75 -63 -15 -10
-27 -24 -27 -30 0 -6 -10 -18 -22 -26 -12 -8 -38 -30 -56 -47 -19 -18 -35 -33
-37 -33 -2 0 -18 -15 -37 -32 -93 -89 -218 -198 -218 -191 0 4 -23 32 -50 61
-27 29 -66 75 -85 103 -45 61 -113 119 -130 112 -8 -2 -22 0 -32 5 -16 9 -67
-7 -83 -27 -3 -3 -16 -12 -29 -19 -13 -8 -39 -22 -57 -33 -18 -10 -50 -29 -71
-41 -58 -36 -75 -45 -118 -67 -42 -22 -82 -71 -77 -96 2 -8 -2 -15 -7 -15 -13
0 -8 -59 5 -68 5 -4 10 -13 12 -20 3 -16 42 -61 122 -142 59 -60 130 -139 130
-146 0 -1 12 -15 28 -31 15 -15 75 -83 134 -150 59 -67 121 -130 138 -139 16
-10 33 -26 36 -36 3 -10 15 -18 28 -18 12 0 32 -9 43 -20 13 -12 23 -15 25 -8
2 6 19 12 37 13 19 2 44 14 60 29 15 14 32 26 38 26 6 0 21 12 33 27 12 16 40
43 63 61 56 44 90 72 166 137 35 30 67 55 72 55 5 0 9 7 9 15 0 8 4 15 9 15
10 0 144 123 251 230 36 36 79 77 95 91 17 14 50 48 75 75 25 27 64 64 88 83
23 18 42 37 42 41 0 7 62 68 220 219 30 29 62 57 72 62 10 5 18 16 18 25 0 8
16 24 35 35 19 12 35 24 35 28 0 8 46 57 123 129 32 30 57 57 57 61 0 4 20 28
45 52 25 24 45 49 45 55 0 5 9 20 20 32 13 13 16 23 9 28 -6 3 -8 15 -5 27 3
11 0 30 -7 41 -6 12 -11 26 -12 31 -1 18 -38 89 -65 125 -25 34 -71 106 -98
157 -8 13 -21 27 -30 30 -10 3 -23 11 -30 16 -19 15 -61 15 -88 0z m77 -323
c3 -3 13 -19 22 -35 l15 -31 -131 -136 c-73 -75 -166 -171 -208 -215 -41 -43
-97 -94 -122 -113 -26 -19 -47 -39 -47 -43 0 -10 -161 -167 -172 -167 -4 0 -8
-4 -8 -10 0 -9 -138 -148 -252 -255 -24 -22 -88 -83 -144 -135 -117 -111 -205
-190 -211 -190 -5 0 -140 -112 -170 -142 l-22 -22 -101 103 c-55 57 -100 106
-100 109 0 4 -23 29 -50 56 -28 27 -50 53 -50 57 0 4 -20 29 -45 55 -25 25
-45 50 -45 55 0 4 -16 20 -36 35 l-36 28 24 18 c12 9 27 18 31 18 5 0 27 13
50 29 84 57 80 57 123 -7 21 -31 55 -75 76 -97 107 -117 126 -135 141 -135 9
0 17 -6 17 -14 0 -13 4 -13 28 0 15 7 39 14 54 14 20 0 38 13 68 49 23 28 92
93 154 145 61 52 122 107 136 123 14 15 65 64 114 108 119 106 146 134 146
145 0 6 5 10 12 10 6 0 26 15 43 33 17 17 98 95 179 172 236 223 346 332 346
343 0 6 28 33 62 62 l61 51 21 -33 c11 -18 23 -35 27 -38z"/>
</g>
</svg>
