<?xml version="1.0" standalone="no"?>
<!DOCTYPE svg PUBLIC "-//W3C//DTD SVG 20010904//EN"
 "http://www.w3.org/TR/2001/REC-SVG-20010904/DTD/svg10.dtd">
<svg version="1.0" xmlns="http://www.w3.org/2000/svg"
 width="612.000000pt" height="408.000000pt" viewBox="176 96 258 195"
 preserveAspectRatio="xMidYMid meet">
<metadata>
Created by potrace 1.16, written by Peter Selinger 2001-2019
</metadata>
<g transform="translate(0.000000,408.000000) scale(0.100000,-0.100000)"
fill="#000000" stroke="none">
<path d="M3009 3021 c-22 -18 -23 -25 -23 -149 0 -113 3 -134 19 -152 21 -23
34 -25 59 -7 16 12 18 29 17 151 0 76 -3 142 -6 147 -16 24 -43 29 -66 10z"/>
<path d="M3795 2547 c-119 -95 -134 -117 -99 -151 22 -23 51 -20 80 9 14 14
27 25 29 25 4 0 45 34 76 63 10 9 23 17 27 17 14 0 49 44 55 69 3 13 0 29 -6
35 -31 31 -46 25 -162 -67z"/>
<path d="M2146 2614 c-29 -28 -19 -59 30 -100 25 -22 49 -40 54 -42 4 -2 26
-21 49 -42 53 -51 88 -61 112 -32 26 32 14 54 -59 113 -37 30 -74 61 -82 70
-26 25 -63 49 -77 49 -6 0 -19 -7 -27 -16z"/>
<path d="M2949 2489 c-112 -16 -226 -77 -314 -170 -55 -59 -90 -107 -100 -140
-4 -13 -11 -26 -14 -29 -13 -9 -40 -94 -56 -175 -10 -50 -18 -146 -20 -255 -2
-96 -4 -194 -4 -216 l-1 -41 -50 -5 c-28 -3 -59 -13 -69 -22 -20 -19 -46 -132
-35 -159 6 -18 45 -30 68 -21 18 7 18 7 22 53 1 18 7 38 12 43 12 12 1281 16
1300 4 6 -4 12 -22 12 -41 0 -39 24 -67 53 -63 32 5 44 39 37 104 -8 73 -39
104 -106 104 l-44 0 0 128 c-1 277 -15 393 -63 512 -31 76 -81 160 -119 197
-16 15 -43 43 -60 61 -17 17 -39 32 -50 32 -10 0 -18 6 -18 14 0 11 -83 53
-125 63 -5 1 -28 7 -50 12 -59 15 -143 19 -206 10z m244 -119 c185 -70 326
-279 343 -508 7 -99 11 -362 6 -384 -4 -16 -39 -18 -503 -18 l-499 0 -1 62
c-2 193 2 321 12 388 7 41 13 83 14 92 1 10 4 21 8 24 4 4 7 16 7 26 0 10 10
35 23 56 12 20 29 50 37 66 40 79 193 193 286 215 68 15 203 6 267 -19z"/>
<path d="M3166 2214 c-27 -26 -19 -45 43 -100 64 -59 96 -119 111 -212 5 -30
15 -59 22 -64 34 -21 78 5 78 46 0 79 -70 234 -132 292 -58 55 -94 66 -122 38z"/>
<path d="M1857 1929 c-17 -10 -23 -54 -9 -75 8 -13 273 -26 290 -15 5 3 14 16
21 28 16 32 -16 63 -66 64 -21 0 -79 2 -128 4 -50 2 -98 -1 -108 -6z"/>
<path d="M3938 1918 c-21 -21 -23 -38 -5 -62 12 -17 29 -18 153 -17 129 1 140
2 157 22 21 26 21 30 3 54 -12 17 -28 19 -152 20 -119 0 -141 -2 -156 -17z"/>
</g>
</svg>
