<svg width="250" height="250" viewBox="0 0 250 250" fill="none" xmlns="http://www.w3.org/2000/svg">
<g clip-path="url(#clip0_140_38)">
<path d="M172.569 126.547L172.495 126.621L172.569 126.695L172.644 126.621L172.569 126.547Z" fill="black"/>
<path d="M202.464 119.598L202.545 119.571L202.74 120.618L202.98 120.798C203.058 120.858 202.878 121.098 202.821 121.179L202.299 121.92L201.54 122.754L200.919 123.415L200.021 122.991C199.7 123.099 199.19 123.397 198.806 123.649L197.906 123.766L197.15 124.267C196.619 124.621 196.124 124.309 195.559 124.597C194.74 125.014 194.014 124.684 193.012 125.317C192.814 125.443 192.469 125.713 192.298 125.776C191.902 125.686 191.307 125.644 190.956 125.782L190.086 126.13L189.297 125.746L188.163 126.643C187.641 127.057 186.641 126.85 185.33 127.396L184.121 127.901C183.662 127.64 183.365 127.661 182.95 127.898C182.536 128.135 182.239 127.937 181.426 128.288L179.173 129.263C178.431 128.576 177.978 129.731 176.613 129.521C176.481 129.659 176.154 129.929 175.968 129.965C175.782 130.001 175.5 129.74 175.254 129.596C174.75 129.299 174.146 129.953 173.759 129.713C173.726 129.692 173.759 129.644 173.795 129.611L173.957 129.467C173.297 129.092 173.585 128.75 173.369 128.372L172.925 127.604L172.802 126.688C172.73 126.16 172.532 125.665 172.286 125.227C172.319 125.197 172.46 124.885 172.382 124.831L172.136 124.66L171.995 123.889L171.845 123.778C172.004 123.58 171.956 123.553 171.779 123.454L171.467 122.862L172.325 121.929C172.382 121.869 172.481 121.593 172.418 121.551L172.148 121.377C172.316 121.29 172.628 121.083 172.739 121.068L174.203 120.888L176.712 120.666C177.105 120.63 177.819 120.576 177.993 120.294C178.215 119.931 178.422 119.679 178.768 119.649L180.472 119.511C181.414 119.436 180.817 118.754 181.483 118.631L182.722 118.4C183.485 118.259 184.217 118.289 184.832 117.71L185.849 117.725L187.175 117.779L188.028 117.311C188.586 117.005 188.985 117.137 189.927 116.654C190.245 116.492 190.971 116.489 191.346 116.387C192.418 116.099 192.922 116.324 192.937 116.12L192.958 115.799L194.02 115.517L195.136 115.304C195.556 115.223 195.941 115.172 196.343 115.013C196.451 114.971 196.742 114.929 196.865 114.935L198.218 115.007C198.86 115.043 199.484 115.091 200.105 114.914C200.214 114.884 200.526 114.902 200.574 114.989L200.718 115.253L200.958 115.931L201.555 117.635C201.462 117.761 201.465 117.815 201.705 117.779L202.188 118.931L202.473 119.598H202.464ZM173.813 128.966C173.948 128.834 174.005 128.777 173.894 128.888C173.699 129.08 173.639 129.137 173.813 128.966Z" fill="black"/>
<path d="M202.55 119.571C202.43 119.61 202.46 119.598 202.469 119.598C202.643 119.589 202.673 119.598 202.55 119.571Z" fill="black"/>
<path d="M171.997 123.886C171.748 123.706 171.742 123.703 171.847 123.775L171.997 123.886Z" fill="black"/>
<path d="M49.8403 116.294L49.7773 116.075L50.4764 115.922C50.9746 116.24 51.5177 116.489 52.1088 116.51L53.1981 116.552C53.7652 116.573 54.5094 116.903 54.9325 117.284C55.1665 117.497 55.3046 117.59 55.5986 117.677C56.3548 117.908 56.0067 118.451 57.7141 118.004C58.0232 117.923 58.3143 118.4 58.2993 118.808L59.4846 119.505L60.0157 119.277L61.1619 119.538C61.39 119.589 61.6361 119.763 61.8851 120.027L63.3795 120.045C63.7005 120.048 64.3487 120.357 64.6458 120.453C64.7418 120.756 64.8558 121.131 65.0269 121.257C65.537 121.644 65.831 120.81 66.5422 121.128C66.9023 121.29 67.1934 121.308 67.5474 121.404L68.4447 121.647L68.8708 121.845C69.1588 121.692 69.6839 121.533 69.87 121.593C70.029 121.941 70.2211 122.253 70.4251 122.316L71.6554 122.703L72.3636 122.826C72.7507 123.03 72.8527 123.565 72.6456 123.982L71.7034 125.869C71.6914 125.896 71.7244 126.133 71.7214 126.136L71.5174 126.211L71.3343 126.901L71.0463 127.438L70.7582 128.081L70.3561 128.933L70.2901 129.038L69.918 129.839C69.906 129.866 69.879 129.884 69.834 129.929L69.5339 130.229L69.6899 130.352L69.5189 130.391L69.4649 130.331L68.8708 131.003C68.7417 131.147 68.1896 130.997 68.0156 130.901L67.1303 130.418L67.0973 131.345C67.0133 131.435 66.6352 131.543 66.5122 131.465C66.0741 131.183 66.1101 130.64 65.774 130.463L64.8738 129.983C64.5197 129.794 64.2287 129.623 63.8476 129.599C63.3225 129.569 62.9564 129.515 62.4793 129.386C61.411 129.101 60.8289 130.1 59.9617 128.597L57.7652 127.787L56.7059 127.039C56.5949 127.237 56.2438 127.601 56.0638 127.556C55.7907 127.489 55.4756 127.081 55.2986 126.787C54.8005 126.487 53.9273 127.186 53.5882 126.637L53.1501 125.929C52.769 125.311 51.9858 126.136 51.7277 125.911L50.8605 125.146L50.1794 124.879L49.0451 124.153L48.787 124.543L47.7998 124.441C47.6378 124.423 47.2987 124.096 47.2417 123.934L46.9566 123.114C46.9806 123.075 46.8366 123.295 46.7826 123.379L46.1074 122.715C46.2094 122.316 46.4255 121.833 46.6445 121.5L46.4645 121.299L47.0076 120.879C46.9836 120.798 46.8906 120.555 46.9536 120.513L47.2417 120.318L47.5418 119.763C47.5598 119.73 47.5628 119.553 47.5658 119.565C47.5658 119.574 47.6318 119.565 47.6918 119.559L47.8058 119.421L48.2409 118.673L48.58 118.307C48.613 118.274 48.8081 118.223 48.7991 118.175L48.73 117.782L49.2822 117.482C49.2612 117.467 49.0361 117.302 49.0721 117.329L49.4232 116.774L49.8013 116.339L49.8493 116.282L49.8403 116.294ZM48.46 118.913L48.385 118.989L48.46 119.064L48.535 118.989L48.46 118.913ZM48.0429 119.595L47.8658 119.58C47.7218 119.568 47.7098 119.568 48.0429 119.595Z" fill="black"/>
<path d="M151.801 52.778L151.888 52.9701L151.96 52.895L152.044 52.775L152.812 53.4382V54.6054L152.911 55.9558C152.926 56.1568 153.013 56.6159 152.92 56.805C152.737 57.165 152.551 57.7292 152.485 58.1433L152.191 58.8394C152.38 59.3856 152.119 59.7276 151.78 60.1267L150.934 61.126C150.7 61.399 150.619 61.8041 150.616 62.2962L149.79 63.2175L148.776 64.7658C148.821 65.2909 148.71 65.567 148.359 65.8491L147.843 66.5602L147.201 67.6225C147.426 68.2166 147.249 68.4777 146.88 68.8738L146.243 69.5549C146.033 70.2091 145.721 70.4612 145.046 70.6952L143.831 71.7905L144.011 72.7087C143.444 74.047 144.401 74.4221 143.621 75.3403L142.778 76.3365C142.616 76.5286 142.337 76.7266 142.091 76.8166L141.514 77.0267L141.235 76.6996C140.902 76.8677 140.806 76.7866 141.148 76.5526L140.65 76.4386L140.623 76.3095L139.174 75.7334L138.361 75.4093C138.397 75.3973 138.112 75.5683 138.073 75.4873L137.959 75.2413L137.166 75.1362L137.016 74.8992L136.143 74.7462C135.954 74.5091 135.675 74.3951 135.303 74.4101L134.955 74.176L135.063 72.7447C135.075 72.5736 134.88 72.1265 134.841 72.0725L135.105 71.2773C135.159 71.1183 135.099 70.6832 135.072 70.4882L135.762 69.5279C135.576 68.9968 135.621 68.6097 135.792 68.1476L136.155 67.1544L136.917 66.3592C137.241 66.0681 138.136 65.7771 138.337 65.327C138.619 64.6908 138.691 63.9226 138.991 63.3975C139.192 63.0464 139.375 62.8334 139.441 62.4433C139.507 62.0532 139.717 61.8131 140.11 61.5881L140.002 60.9279C140.002 60.9279 140.317 61.069 140.512 61.159L140.794 60.3608C140.872 60.1417 141.205 59.8057 141.418 59.6106L141.748 58.3443C141.784 58.2063 142.178 58.0262 142.262 58.0082L142.076 57.9272L141.892 57.3691C141.952 57.3541 142.169 57.3871 142.172 57.4711L142.19 57.8252L142.334 57.8972L142.652 57.3901L142.385 56.94C142.328 56.844 142.517 56.5709 142.601 56.4809C143.327 55.6797 142.763 55.0916 143.057 54.9625L143.384 54.8155L144.152 53.9813C144.101 53.9213 143.909 53.7322 143.948 53.6482L144.095 53.3211L143.84 52.763L144.827 52.2439C145.589 51.8448 144.875 50.9536 146.054 50.7585C146.466 50.6895 146.934 50.6145 147.297 50.6595L148.479 50.8066L148.887 51.1036L150.093 51.8508C150.144 51.8838 150.396 51.8958 150.396 51.9018C150.396 51.9078 150.378 52.0608 150.372 52.1719L150.817 52.1419C150.856 52.2229 151.018 52.4239 151.108 52.4629L151.807 52.778H151.801ZM138.244 75.0042L138.169 75.0792L138.244 75.1543L138.319 75.0792L138.244 75.0042ZM139.594 75.6014L139.519 75.6764L139.594 75.7514L139.669 75.6764L139.594 75.6014Z" fill="black"/>
<path d="M135.697 74.5421L135.772 74.6292L135.697 74.7042L135.622 74.6292L135.697 74.5421Z" fill="black"/>
<path d="M139.144 75.7214L139.231 75.8264L139.144 75.9014L139.069 75.8264L139.144 75.7214Z" fill="black"/>
<path d="M95.451 83.9703L95.334 83.9373L95.586 83.8383C95.55 83.9463 95.451 84.0334 95.451 83.9703Z" fill="black"/>
<path d="M75.7729 65.447C75.7129 65.588 75.7699 65.459 75.8179 65.342L75.7729 65.447Z" fill="black"/>
<path d="M95.586 83.6973L95.334 83.9374C95.0609 83.8833 95.1659 83.9074 95.451 83.9704L94.8779 84.2404L94.9289 84.3515C94.9349 84.2284 94.9289 84.3425 94.9229 84.4745L94.8179 84.3575L94.0857 84.8586C94.0617 84.8916 93.8816 85.0866 93.7976 85.1586L93.2665 85.6057L93.1525 85.7228L92.6183 86.2749L92.2312 85.5397C91.6491 84.4325 90.3558 85.6268 89.9987 84.0994L89.2846 83.4963C89.0445 83.2922 88.9215 82.7281 88.9275 82.407L87.8052 81.2787L87.07 80.2435C86.98 80.1175 87.1931 79.6163 87.1691 79.4603C87.1361 79.2473 86.74 78.9622 86.5809 78.7942L85.8427 78.008L85.0326 77.1468L84.3034 76.5616C83.7603 76.1265 83.3132 75.6734 82.8721 75.1243L82.2089 74.3051C82.0859 74.1521 82.1039 73.6329 82.0889 73.3719L80.6785 72.0786L79.4963 71.1634C79.1872 70.9233 78.9771 70.7193 78.8451 70.2932C78.7911 70.1191 78.545 69.9001 78.416 69.672L77.7348 68.4507C77.6538 68.3067 77.1887 68.1507 77.0567 68.0336C76.8286 67.8326 76.6096 67.2595 76.4445 67.0314C76.2285 66.7343 76.0094 66.4733 75.9524 66.2152L75.7754 65.441L76.1355 65.252L75.8204 65.333L76.0064 65.15L76.5556 64.6098L77.5968 63.5896L78.0859 63.2445C78.1279 63.1575 78.257 62.9024 78.329 62.8274L78.8691 62.2633L78.9891 62.1463L79.6493 61.5101L79.7633 61.4021L80.2344 61.054C80.2554 61.039 80.2944 61.009 80.3095 60.985L80.1954 60.874L80.2794 60.7989L80.4085 60.841L80.5405 60.6579C80.5405 60.6579 80.6845 60.6669 80.7746 60.6789L81.6958 60.7929L83.0071 60.85C83.1481 60.856 83.3762 60.6579 83.5772 60.4809L83.8413 61.03C83.9523 61.258 84.4654 61.4741 84.7205 61.5881L85.1316 62.6414L85.8668 63.1215C85.9778 64.0217 86.6979 63.9827 86.77 64.6428C86.794 64.8589 86.812 65.258 86.962 65.288L87.7332 65.429L87.9252 66.0592C88.4564 66.5333 89.1495 66.7913 89.9117 66.9324L89.5726 67.4455L90.1518 67.6886C90.0107 68.1447 90.1638 68.6218 90.5418 68.9609L90.7009 69.765C90.8209 69.9121 91.241 69.9931 91.6281 69.9901L91.8862 70.3232C91.7781 71.3524 92.6483 71.0433 92.6633 71.7305C92.6693 72.0816 92.7624 72.3006 92.9904 72.4927C93.7436 73.1318 93.3415 73.744 94.3257 73.861C94.3437 74.1011 94.4488 74.3891 94.6078 74.6232L94.9829 75.7875L95.328 76.0095L95.9671 76.4206C95.9431 76.6487 96.0391 77.2698 96.2462 77.4468L96.6063 77.7559C96.6603 77.8039 96.5883 77.987 96.5433 78.152L97.2004 78.4071C97.1044 79.0012 97.2514 79.5083 97.6295 80.0094L97.8426 81.6268C97.7945 81.8999 97.3504 82.311 97.1344 82.515L96.4172 83.1872C96.3902 83.2142 96.2852 83.3132 96.2552 83.3282L95.583 83.6913L95.586 83.6973ZM79.4873 61.9662L79.4122 62.0412L79.4873 62.1162L79.5623 62.0412L79.4873 61.9662ZM96.2732 83.1962C96.2552 83.3102 96.2732 83.1812 96.2912 83.0732L96.2732 83.1962ZM95.8261 83.2442L95.7511 83.3192L95.8261 83.3942L95.9011 83.3192L95.8261 83.2442Z" fill="black"/>
<path d="M72.1957 171.831L72.1267 171.627C72.1147 171.591 72.1687 171.549 72.2017 171.516V171.831H72.1957Z" fill="black"/>
<path d="M72.1928 174.363H72.2918L72.3698 174.282L72.1778 174.207L72.2618 173.892C72.2768 173.838 72.3518 173.781 72.4958 173.637C72.5349 173.631 72.3818 173.652 72.3248 173.661L72.0457 173.706L72.2948 173.28C72.2438 173.211 72.1208 173.079 72.1568 173.013L72.2708 172.809L72.1058 172.416C72.0968 172.395 72.1178 172.38 72.2318 172.32L72.2168 172.113L72.1958 171.828L72.3668 171.591C72.3848 171.537 72.2738 171.519 72.1988 171.513L72.1328 171.144C72.1178 171.063 72.2888 170.979 72.4118 170.907L72.4058 170.751L72.2978 170.165C72.5709 170.018 72.5499 170.027 72.3428 170.141C72.3248 170.108 72.1058 169.751 72.2558 170L73.09 169.478L74.5483 169.352L75.5296 169.292L76.4928 169.148L76.9519 168.908C77.1469 168.806 77.528 169.598 78.5753 169.352C78.9714 169.259 79.2054 169.271 79.5895 169.409C79.8056 169.484 80.1026 169.397 80.3727 169.367L81.819 169.199L81.792 166.406C81.789 165.992 81.843 165.625 81.9541 165.214C82.0921 164.692 81.9451 164.437 82.1821 163.51C82.3381 162.898 81.9271 162.217 81.4859 161.8L81.828 160.494C81.585 160.26 81.3239 159.951 81.3539 159.756C81.3809 159.588 81.576 159.294 81.699 159.111C81.897 158.814 81.4529 158.754 81.3869 158.277L81.2189 157.013L81.4379 156.56L81.0268 155.996C80.9428 155.879 81.2969 155.537 81.2969 155.396L81.3059 154.136L81.4109 153.35L81.1979 152.176C81.1769 152.056 81.4109 151.759 81.504 151.645L81.4739 149.89L81.4559 148.746C81.4529 148.548 81.525 148.065 81.606 147.882L82.1311 146.676C82.2181 146.478 82.2781 146.004 82.3081 145.782L82.5272 144.164C82.7252 142.697 81.777 142.643 82.2691 141.704C82.8183 140.648 81.888 140.119 82.0531 139.831C82.1281 139.699 82.3321 139.54 82.5092 139.393L82.6562 138.07C82.9743 137.755 83.1243 137.446 83.0703 137.047L83.3074 136.564C82.9983 136.324 82.8123 136.186 82.7012 136.045C82.3892 135.648 83.2954 135.141 83.2564 134.562L83.1933 133.644L82.9563 133.209C82.8993 133.101 83.1003 132.855 83.1723 132.741L83.5504 132.138C83.6405 131.994 83.4904 131.642 83.3164 131.387L84.3366 131.099C84.6487 131.012 84.6847 130.205 84.7147 129.875L84.8467 128.42L84.9218 127.592L85.2068 125.8L85.1528 124.588C85.1438 124.36 85.1288 123.982 85.1708 123.793L85.4109 122.661L85.5999 121.782L85.5729 120.966C85.807 120.786 86.149 120.507 86.125 120.318L86.023 119.541L86.5961 119.337L86.5781 118.355L86.7822 117.125C86.8362 116.792 87.0493 116.492 87.3583 116.189L87.0643 115.682L87.8204 115.247L87.4423 114.668C87.3703 114.556 88.1745 114.382 88.0275 113.182C88.0695 113.134 88.2735 112.9 88.2945 112.822L88.8347 110.974C88.9607 110.545 88.9577 110.271 88.8527 109.806L89.8609 109.659L90.5481 109.104C90.6831 108.741 90.8781 108.285 91.0672 107.979L91.4993 107.28C91.5833 107.145 91.6283 106.749 91.6553 106.578C92.0274 105.959 92.4115 105.194 92.3965 104.471C92.3965 104.339 92.2585 104.09 92.3455 104.072L92.7146 103.997C93.2547 103.886 94.3019 102.971 94.2899 102.143C95.1782 101.677 95.5352 102.143 96.0694 100.936L96.5615 99.826L97.1676 99.3939L97.7918 98.9528C97.9358 98.8508 98.2059 98.4607 98.2119 98.2837L98.2299 97.3024C97.9868 97.3775 98.3379 97.2694 98.4369 97.2364C99.5622 97.1824 100.435 96.7503 101.273 96.1472L102.35 95.37C103.097 94.8329 103.694 95.349 103.709 95.0489L103.736 94.5778L105.393 94.0167L105.693 93.1495L107.178 93.0474C107.484 93.0264 108.114 92.9184 108.321 92.7174L108.945 92.1112L109.813 91.6101L110.812 91.124L111.64 90.7489L111.928 90.1998L112.783 90.5869L114.137 90.2358C114.599 90.1158 114.869 89.9747 115.334 90.0347C115.583 90.0677 115.847 90.0137 116.108 89.9837L117.053 89.8727L117.989 89.8127C118.659 90.1278 119.463 89.3716 120.588 89.4376L122.283 89.5336C122.389 89.2666 122.494 89.0475 122.605 89.0655L122.968 89.1285L123.79 88.9605L124.744 88.7384C125.32 88.6034 126.028 89.0445 127.364 88.2163L128.468 88.6904L129.515 88.9065C129.749 88.9545 130.13 89.1195 130.322 89.1075L131.274 89.0385L132.624 89.1375L134.028 89.3566C134.178 89.3806 134.493 89.4526 134.556 89.3506L134.778 88.9845L135.667 89.3446C136.069 89.5066 136.366 89.6506 136.741 89.9687C136.936 90.1338 137.428 90.1158 137.749 90.1218L139.348 90.1518C139.466 90.2658 139.643 90.5599 139.781 90.5449L140.294 90.4938L140.756 90.4458C140.942 90.4278 140.84 91.184 141.578 91.211L142.286 91.235L142.343 92.0122L143.844 92.7414C144.054 92.8434 144.204 93.0114 144.363 93.3205L145.326 93.7976C146.22 94.2417 145.74 94.6468 146.385 94.9109L147.465 95.352L148.411 95.8201C149.161 96.1922 148.705 96.9424 149.377 96.9904L150.256 97.0534L151.324 97.4285C151.018 98.2267 152.08 98.2417 151.888 99.3759L152.423 100.153C152.774 100.348 153.041 100.585 153.143 100.954C153.308 101.557 153.896 101.083 154.01 101.84C154.175 102.926 154.616 102.851 154.433 103.373C154.289 103.787 154.451 104.075 154.82 104.216L155.114 104.801L156.044 104.816L155.945 105.362L156.275 106.107L156.735 107.412L157.221 107.625C156.804 108.096 156.984 108.72 157.479 109.254L157.296 109.659L157.482 110.413C157.542 110.65 157.59 111.034 157.725 111.157L158.184 111.577C158.376 111.754 157.758 111.967 158.055 112.945L158.487 114.37C158.589 114.704 158.409 115.34 158.514 115.796L158.754 116.831L158.91 118.28L158.694 118.76L158.94 119.364L158.973 120.453C158.985 120.837 158.862 121.302 158.748 121.773L159.453 122.109L159.144 122.637L160.014 123.307L159.864 124.45L159.708 125.809L159.57 127.264L159.075 127.739L159.525 128.084L159.792 129.464L160.005 130.562C160.176 131.444 159.351 131.609 159.597 131.847L159.897 132.135C160.056 132.288 160.368 132.762 160.338 132.984L160.161 134.214C160.113 134.553 160.257 135 160.383 135.372C160.485 135.669 160.305 136.285 160.278 136.615L160.122 138.568L160.035 139.747C160.017 140.005 159.966 140.519 160.134 140.657C160.266 140.768 160.635 141.026 160.563 141.161C160.491 141.296 160.335 141.419 160.047 141.635L160.344 142.625C160.401 142.82 160.623 143.234 160.581 143.42C160.512 143.741 160.452 144.317 160.608 144.533C161.194 145.362 160.155 145.479 160.377 146.586C160.611 147.753 160.224 147.849 160.732 148.84C160.891 149.149 160.566 149.884 160.578 150.238L160.62 151.537L160.822 152.095C160.885 152.272 159.987 152.473 160.575 153.635C160.725 153.929 160.563 154.37 160.326 154.781L160.942 155.249C160.521 156.293 161.404 156.419 161.458 157.049C161.491 157.452 160.578 157.395 160.804 157.998L161.212 159.081C161.281 159.264 160.966 159.708 160.84 159.909C160.744 160.062 160.936 160.461 161.032 160.656C161.116 160.827 161.002 161.265 161.002 161.505V163.084C161.008 163.495 161.071 163.825 160.978 164.188C160.768 165.013 160.738 166.022 161.236 166.607L161.059 167.204C161.212 168.074 160.62 168.629 161.035 169.013L161.617 169.553L162.706 169.511C163.153 169.493 163.522 169.46 163.915 169.583C164.059 169.628 164.314 169.616 164.665 169.598L164.56 168.941L166.193 168.929L167.963 168.95L169.148 168.89C169.344 168.953 169.866 169.289 170.088 169.25L171.369 169.028C171.756 169.16 172.08 169.241 172.539 169.301C173.052 169.367 172.68 169.835 173.286 170.048L173.313 171.051C173.319 171.315 173.268 171.588 173.181 171.867L173.28 172.32L173.256 172.617L173.193 173.604L173.178 173.727L173.127 174.556L173.043 175.048L172.872 176.101L173.055 176.086L172.956 177.424L173.049 177.535L172.959 177.682L172.845 177.496L171.885 177.676C171.372 177.772 170.907 177.766 170.46 177.622C170.247 177.823 169.812 178.006 169.509 177.793C169.139 177.535 168.827 177.589 168.41 177.61L166.616 177.706L165.539 177.625C165.077 177.589 164.236 177.79 163.807 177.958L162.784 178.354L162.844 177.733L161.359 178.231C160.359 178.567 160.455 177.847 159.717 178.027C159.177 178.156 158.892 178.027 158.481 177.706L157.131 177.721L155.708 178.006C155.213 178.105 154.439 178.519 153.959 178.351C153.479 178.183 153.128 177.997 152.705 178.249C152.225 178.537 151.771 178.417 151.33 178.108C151.111 177.955 150.496 178.03 150.223 178.009C150.049 177.994 149.584 177.769 149.425 177.844L148.306 178.393L147.525 177.949L146.139 178.084C145.524 178.144 144.915 178.09 144.294 177.997L142.535 177.736C141.941 177.646 141.383 177.736 140.915 178.048C139.354 177.16 138.982 179.123 138.283 178.946C138.106 178.901 137.764 178.624 137.818 178.477L138.016 177.952L137.113 178.42C136.939 178.51 136.423 178.549 136.24 178.501L135.136 178.198C134.913 178.138 134.484 178.255 134.19 178.33C133.626 178.474 132.909 178.351 132.342 178.345L130.772 178.33L129.935 178.351C129.608 178.36 129.077 178.675 128.798 178.618L127.799 178.411C127.52 178.354 127.277 178.279 127.031 178.111C126.593 177.811 126.115 178.093 125.002 177.748C124.81 177.688 124.387 177.688 124.219 177.769C123.394 178.162 122.62 178.009 121.785 178L120.594 177.988L119.391 177.826C119.163 177.796 118.662 177.904 118.461 177.997L117.599 178.396L117.029 178.114L116.285 178.228C115.691 177.892 114.968 177.907 114.326 178.072C113.665 177.544 112.852 177.628 112.153 178.216L111.046 177.949C109.888 178.744 108.882 177.664 107.514 177.898L106.221 178.12L105.363 178.147C105.137 178.306 104.756 178.585 104.534 178.555C103.937 178.48 104.069 177.685 103.4 177.808L102.14 178.036C100.63 177.397 100.513 178.865 99.9973 178.832C99.8052 178.82 99.4181 178.594 99.3101 178.501L99.5172 178.006L98.4369 178.126L97.4407 178.207L96.2884 178.201L95.3942 178.141C95.0461 178.117 94.419 178.456 94.0409 178.666L93.6088 178.396C93.0177 178.027 92.8286 178.543 91.7874 178.282C91.0612 178.099 90.9442 178.985 90.419 178.648C90.209 178.513 89.7229 178.279 89.5458 178.39L88.8827 178.808C88.6126 178.979 88.0605 178.642 87.8114 178.33C87.2413 178.156 86.3351 177.811 85.768 177.925L84.4056 178.201C84.1116 178.261 83.6285 178.426 83.3794 178.363L82.4852 178.141C82.3411 178.3 81.9931 178.576 81.858 178.504L80.8228 177.961C80.2317 178.228 79.8686 178.249 79.2864 178.03C79.0194 177.928 78.4672 178.015 78.1612 178.003L76.2287 177.94L74.0532 177.712C73.6871 177.673 73.345 177.814 73.075 177.715C72.6699 177.568 72.3908 177.532 72.0877 177.559C72.2528 177.325 72.2738 177.217 71.9287 177.322L72.2318 176.992C72.2198 176.665 72.2978 176.314 72.4418 176.035L72.2048 176.074C72.1628 176.08 72.0787 175.873 72.1208 175.936C72.2138 175.714 72.2708 175.534 72.2378 175.417C72.2138 175.333 72.1448 175.174 72.1748 175.129L72.2648 174.991L72.1838 174.351L72.1928 174.363ZM114.176 169.817C114.44 169.856 115.004 169.568 115.247 169.421C116.009 168.971 116.318 169.796 116.714 169.631L117.641 169.244C118.004 169.094 118.422 169.127 118.824 169.271C119.034 169.346 119.499 169.304 119.736 169.352L120.645 169.535L122.007 169.499C122.509 168.701 122.827 169.493 124.153 169.226L125.23 169.01C125.653 168.926 126.268 168.734 126.632 168.926C126.884 169.061 127.229 169.295 127.445 169.313L129.032 169.439L130.247 169.454L131.571 169.382L132.615 169.316L133.785 169.061C134.373 169.082 134.907 169.022 135.43 168.911L136.384 169.118C136.597 169.163 137.131 169.091 137.302 169.022C137.557 168.716 137.866 168.599 138.238 168.791C138.451 168.902 138.973 168.824 139.198 168.884L140.366 169.202C141.302 169.457 141.257 168.776 142.004 168.98C142.637 169.154 143.342 169.202 143.889 168.989C144.516 168.743 144.978 168.731 145.596 169.073L146.682 169.157L147.498 169.211L148.366 169.268L150.724 169.376C150.883 169.553 151.285 169.376 151.006 169.121L151.228 168.554C150.787 168.128 150.796 167.582 151.204 167.159C150.904 166.304 151.153 165.409 151.552 164.683C151.273 164.458 151.042 164.14 151.039 163.936L151.024 162.841C151.09 162.607 151.192 162.151 151.141 161.926L150.919 160.932C150.784 160.323 151.768 160.134 151.207 158.751L151.711 158.358L151.888 156.701C151.936 156.26 152.155 155.678 152.077 155.264C152.044 155.093 151.909 154.784 151.996 154.709L152.393 154.37L152.213 153.458C151.732 152.929 151.558 152.161 151.591 151.45L151.648 150.226L151.576 148.716L151.624 148.047C151.288 147.699 150.934 147.123 150.937 146.763C151.117 146.457 151.231 146.172 151.186 145.983L150.928 144.903C150.841 144.542 151.045 144.035 151.306 143.744L151.249 143.045L151.213 142.298L151.15 141.362C151.117 140.882 150.658 140.137 150.778 139.615L150.982 138.718L150.955 137.644C150.943 137.119 150.871 136.561 151.108 136.023C151.258 135.684 151.513 135.15 151.42 134.874C150.949 134.172 151.681 133.974 150.97 132.684L150.529 131.886L150.967 130.601C150.871 130.472 150.634 130.193 150.511 130.091C150.028 129.701 149.833 129.023 150.331 128.45L150.022 126.751C150.286 126.28 150.292 125.983 150.28 125.47C150.247 124.264 149.575 124.348 149.482 123.487L150.103 122.253C149.68 121.704 149.323 121.203 149.359 120.624C149.386 120.219 149.545 119.499 149.293 119.277C148.87 118.904 148.573 118.493 148.846 118.031C149.053 117.683 149.158 117.305 149.062 116.918L148.741 115.616L148.525 113.962C148.501 113.776 148.501 113.317 148.39 113.191L147.753 112.471C147.252 111.901 147.669 111.922 147.414 111.064L147.045 109.821C147.606 109.272 147.45 108.54 146.868 108.129C146.352 107.763 146.493 107.424 145.911 107.004C145.071 106.401 145.608 105.755 145.02 104.981C144.39 104.726 144.18 104.477 143.823 103.91C143.633 103.607 142.967 103.352 142.652 103.061L141.806 102.275C140.549 101.924 140.318 101.143 139.703 101.116C139.12 101.092 138.745 100.927 138.481 100.48C138.238 100.072 137.809 99.9881 137.44 99.703L135.673 98.3407C135.382 98.1156 135.103 97.9656 134.754 97.8846L133.929 97.6925C132.408 97.3384 132.024 97.7045 131.319 97.7585L130.157 97.8486H128.423C128.087 97.8546 127.457 97.8276 127.247 98.0496C126.845 98.4697 126.343 98.3647 125.992 98.1816C125.479 97.9116 124.87 98.2927 124.165 97.9056C123.553 97.5665 123.154 97.8396 122.545 97.8636L120.159 97.9626C119.241 98.0016 118.548 97.8606 117.725 98.3347L116.006 99.3249C115.511 99.61 115.037 99.64 114.431 99.4569C114.089 99.532 113.533 99.82 113.161 100.036C112.372 100.492 112.702 100.813 112.264 101.071C111.826 101.329 111.415 100.513 110.785 100.933L110.041 101.431C109.471 102.458 108.279 101.996 107.976 102.581C107.673 103.166 107.331 103.427 106.683 103.181C106.467 103.286 106.104 103.559 105.936 103.754C105.083 104.756 104.159 104.951 103.823 105.404L103.049 106.446C102.872 106.683 102.395 107.046 102.329 107.304L102.083 108.3L100.816 109.119L100.36 109.974C100.429 111.502 99.7482 111.655 99.4512 112.423C99.3191 112.765 99.1661 112.951 98.848 113.215L98.5599 114.064C97.3747 114.658 98.5599 115.7 97.9718 116.039L96.9756 116.612L96.8916 117.599C96.5705 117.857 96.3664 118.175 96.3904 118.472L96.4835 119.541L95.9853 120.33C95.8743 120.507 96.4775 121.362 96.1384 121.464L95.6013 121.626C95.5803 121.953 95.6313 122.517 95.7303 123.015L95.2742 123.673L94.728 124.408C94.533 124.669 94.548 125.149 94.692 125.545L94.2299 126.259C94.1369 126.403 94.1969 126.796 94.2179 127.003C93.2337 128.663 94.416 129.2 94.0589 129.767C93.7018 130.334 93.5788 130.76 93.9119 131.363C93.9059 131.853 93.6298 132.396 93.2607 132.777L92.8856 134.928L92.5015 136.045L92.4055 137.014L92.0664 138.214L91.7514 139.39C91.4183 140.63 92.2195 141.713 91.5293 142.955C91.7333 144.392 90.6921 144.873 91.7694 145.359L91.0642 146.085L91.3102 147.24C91.3913 147.615 91.2262 148.125 91.0492 148.437L90.9592 148.951C90.9112 149.215 90.8811 149.629 90.8932 149.953C90.8992 150.178 90.5451 150.652 90.5451 150.877L90.5301 152.473L90.5571 153.506C90.5811 154.331 90.8781 155.33 91.5623 155.615C91.5263 155.87 91.4783 156.314 91.5053 156.524L91.7003 158.01L91.3823 158.622C91.4513 158.811 91.6313 159.351 91.5473 159.519L90.8481 160.932C90.9652 162.076 91.6013 162.541 91.5023 163.024C91.3913 163.57 91.5023 163.852 91.4993 164.389L91.4933 165.484C91.8294 166.091 91.6163 167.147 91.2922 167.618C91.2142 167.762 91.4333 168.215 91.5203 168.32L91.0282 169.115L92.2855 169.202C92.9666 169.25 93.2727 168.8 94.1339 168.932C94.533 169.028 95.0701 169.157 95.3912 169.166L97.1226 169.223C97.6357 169.241 98.1008 169.052 98.647 169.034L100.135 168.989C100.561 168.977 101.042 168.77 101.423 168.794L102.845 168.89C102.965 168.752 103.367 168.599 103.448 168.734C103.919 169.532 104.486 169.013 105.291 169.559C105.828 169.592 106.647 168.899 107.313 168.971L109.023 169.157C109.483 169.208 110.038 169.019 110.389 169.292C110.86 169.661 111.238 169.682 111.748 169.307C111.988 169.13 112.492 169.58 112.753 169.619L114.179 169.823L114.176 169.817ZM72.4418 171.213L72.3608 171.288L72.4418 171.363L72.5168 171.288L72.4418 171.213ZM173.019 172.113L172.944 172.188L173.019 172.263L173.112 172.188L173.019 172.113ZM72.2918 172.614V172.473C72.2978 172.356 72.2948 172.458 72.2918 172.614ZM72.4418 174.661L72.3668 174.736L72.4418 174.811L72.5168 174.736L72.4418 174.661ZM72.4418 176.458L72.3668 176.533L72.4418 176.608L72.5168 176.533L72.4418 176.458ZM172.722 177.208L172.647 177.283L172.722 177.358L172.797 177.283L172.722 177.208Z" fill="black"/>
</g>
<defs>
<clipPath id="clip0_140_38">
<rect width="250" height="250" fill="white"/>
</clipPath>
</defs>
</svg>
