<svg height="100" viewBox="0 0 100 100" width="100" fill="none" stroke="#000" stroke-width="2.5" stroke-linejoin="round" stroke-linecap="round" xmlns="http://www.w3.org/2000/svg"><path d="m30.689 45.183c-4.184-6.755-3.789-13.756-1.677-20.571 1.851-5.972 5.724-10.352 12.6-10.944 1.384-.119 2.764-.909 4.1-.814 4.309.307 8.8.311 12.291 3.455 5.314 4.776 7.728 11.031 8.336 17.938.292 3.308-1.27 6.327-3.258 9.008-.329.444-.667.881-1.194 1.575 1.893.219 3.51.409 5.128.593 3.16.359 4.234 1.287 4.381 4.446.159 3.437.144 6.9-.023 10.332-.22 4.518-.467 9.05-1.07 13.527-.5 3.686-1.741 4.763-5.432 4.956-6.3.33-12.616.374-18.923.6-1.964.069-3.923.463-5.883.451a36.813 36.813 0 0 1 -6.063-.558c-3.115-.543-6.22-1.19-9.284-1.971a4.115 4.115 0 0 1 -3.143-4.128 99.231 99.231 0 0 1 1.347-22.13c.8-4.3 2.278-5.417 6.63-5.652.311-.02.611-.061 1.137-.113zm17.5 30.625.029.357c5.354-.213 10.707-.447 16.061-.628 1.848-.062 2.849-.932 2.946-2.767q.593-11.167 1.147-22.337c.065-1.308-.526-1.956-1.922-2.019-1.589-.073-3.164-.416-4.754-.53-.737-.054-1.811-.13-2.189.291-2.385 2.663-5.6 3.282-8.83 3.607-5.33.537-10.646.918-15.628-2.048a14.7 14.7 0 0 0 -5.736-1.422c-1.954-.225-3.155.981-3.284 2.926-.463 6.928-.855 13.861-1.256 20.793a2.167 2.167 0 0 0 1.927 2.442c2.8.536 5.605 1.026 8.416 1.5a21.082 21.082 0 0 0 4.156.511c2.976-.114 5.943-.439 8.913-.676zm-3.035-26.826.018-.106c.83 0 1.664.053 2.489-.009 4.62-.349 9.09-.993 11.416-5.855a10.366 10.366 0 0 1 1.181-1.5c2.4-3.234 3.657-6.7 2.24-10.744-.527-1.5-.922-3.054-1.474-4.547-2.322-6.282-6.982-9.6-13.493-10.5a4.024 4.024 0 0 0 -1.322.094c-2.062.415-4.134.8-6.17 1.314a7.3 7.3 0 0 0 -2.954 1.238c-2.747 2.381-5.015 5.193-5.5 8.93a41.368 41.368 0 0 0 -.535 8.952c.507 5.654 3.145 10.1 8.841 12a28.5 28.5 0 0 0 5.263.733zm18.283 10.575c-.228 4.188-2.724 6.983-6.313 7.07a4.979 4.979 0 0 1 -5.224-4.737 29.031 29.031 0 0 1 -.067-4.014 1.846 1.846 0 0 1 2.141-1.924c2.208.036 4.417.157 6.622.308 2.382.164 2.972.885 2.841 3.297zm-3.364-.145-5.2.33c-.161 2.3.59 3.809 1.89 3.9 1.837.137 3.309-1.642 3.31-4.23z"/></svg>