<?xml version="1.0" standalone="no"?>
<!DOCTYPE svg PUBLIC "-//W3C//DTD SVG 20010904//EN"
 "http://www.w3.org/TR/2001/REC-SVG-20010904/DTD/svg10.dtd">
<svg version="1.0" xmlns="http://www.w3.org/2000/svg"
 width="500.000000pt" height="500.000000pt" viewBox="132 139 241 222"
 preserveAspectRatio="xMidYMid meet">
<metadata>
Created by potrace 1.16, written by Peter Selinger 2001-2019
</metadata>
<g transform="translate(0.000000,500.000000) scale(0.100000,-0.100000)"
fill="#000000" stroke="none">
<path d="M2065 3516 c-79 -19 -176 -73 -227 -127 -45 -47 -118 -178 -118 -213
0 -28 -27 -71 -52 -83 -12 -6 -59 -23 -103 -38 -44 -15 -92 -36 -108 -47 -53
-38 -72 -110 -43 -166 7 -15 16 -44 19 -65 17 -112 102 -203 220 -238 109 -31
130 -40 159 -67 52 -48 57 -154 13 -292 -8 -25 -22 -67 -31 -95 -19 -60 -44
-205 -44 -258 0 -48 15 -77 40 -77 31 0 50 39 50 100 0 66 18 152 58 280 55
175 51 308 -12 385 l-24 30 59 37 c66 42 86 81 54 105 -25 17 -29 17 -62 -11
-72 -60 -158 -78 -244 -52 -61 18 -87 37 -123 91 -35 51 -33 79 7 106 17 12
38 29 45 37 17 22 15 63 -4 90 -12 18 -13 23 -2 27 149 52 191 84 203 155 4
23 23 73 42 111 43 86 111 144 211 180 90 32 247 32 336 0 187 -67 303 -216
351 -453 8 -40 37 -52 66 -29 l23 18 -17 78 c-49 226 -205 405 -410 472 -56
18 -91 23 -176 22 -58 0 -128 -6 -156 -13z"/>
<path d="M2302 3223 c-19 -49 -35 -222 -28 -310 11 -142 60 -246 132 -280 27
-13 36 -14 49 -3 25 21 18 53 -19 82 -55 44 -77 117 -77 253 0 61 5 144 11
184 13 80 6 101 -35 101 -15 0 -26 -9 -33 -27z"/>
<path d="M1967 3092 c-26 -29 -22 -77 10 -101 44 -36 93 -7 93 54 0 57 -67 87
-103 47z"/>
<path d="M2584 2962 c-6 -4 -16 -16 -22 -27 -17 -33 -42 -169 -42 -229 0 -30
-5 -58 -10 -61 -17 -11 -58 -99 -65 -141 -13 -74 -14 -77 -46 -70 -31 6 -62
-15 -53 -38 3 -8 25 -17 50 -21 24 -3 44 -12 44 -18 0 -7 3 -22 6 -34 5 -19 0
-23 -43 -35 -41 -12 -48 -17 -48 -38 0 -27 16 -30 85 -17 33 6 37 4 61 -34
l26 -40 -61 -63 c-70 -71 -118 -155 -141 -241 -17 -67 -13 -91 17 -101 24 -7
58 25 58 54 0 63 89 204 175 277 64 55 69 78 25 120 -32 30 -39 55 -16 55 7 0
19 7 26 15 21 25 -5 47 -46 39 -21 -4 -34 -2 -34 4 0 6 -3 18 -6 26 -5 14 -1
16 33 10 27 -4 42 -2 50 8 17 20 2 36 -42 46 -37 7 -40 11 -43 43 -3 39 23
107 62 158 22 30 26 45 26 107 0 94 10 164 24 164 6 0 40 -30 76 -67 l65 -68
141 0 142 0 64 68 c36 37 70 67 75 67 13 0 23 -72 23 -167 0 -61 5 -82 24
-116 28 -49 60 -152 51 -166 -3 -6 -21 -13 -40 -17 -44 -8 -62 -28 -45 -49 9
-11 23 -14 46 -9 30 5 32 4 27 -15 -4 -16 -13 -21 -39 -21 -19 0 -34 -2 -34
-4 0 -2 -3 -11 -6 -20 -4 -11 2 -19 20 -26 16 -6 26 -17 26 -29 0 -43 55 -44
86 -2 10 12 19 13 60 4 51 -12 74 -5 74 23 0 17 -24 29 -73 38 -29 5 -37 11
-33 22 3 9 6 24 6 34 0 13 12 20 48 27 41 7 47 11 47 33 0 23 -4 25 -45 26
l-45 1 -7 46 c-3 25 -19 72 -34 104 -22 46 -28 74 -30 138 -2 98 -21 194 -42
218 -35 40 -93 17 -188 -76 l-52 -49 -106 0 -106 0 -54 52 c-82 80 -137 106
-172 82z"/>
<path d="M2726 2494 c-24 -24 -17 -57 15 -75 31 -16 59 5 59 45 0 46 -42 63
-74 30z"/>
<path d="M3043 2502 c-24 -15 -20 -68 7 -82 40 -22 83 27 60 70 -11 20 -45 26
-67 12z"/>
<path d="M2857 2365 c-17 -17 -12 -51 9 -59 19 -7 18 -45 -1 -52 -8 -4 -22 -1
-30 6 -21 18 -47 4 -43 -22 4 -33 50 -52 91 -39 24 8 42 8 65 0 40 -14 86 6
90 39 4 26 -22 40 -43 22 -19 -16 -45 -6 -45 17 0 9 9 27 21 39 17 18 19 26
10 43 -10 17 -21 21 -61 21 -30 0 -54 -6 -63 -15z"/>
<path d="M3157 2156 c-64 -27 -77 -36 -125 -85 -44 -45 -78 -115 -91 -187 -43
-244 187 -462 426 -401 211 55 327 272 252 472 -31 82 -121 173 -202 203 -81
31 -183 30 -260 -2z m258 -73 c121 -63 181 -207 140 -337 -64 -202 -318 -264
-465 -114 -56 57 -80 116 -80 198 0 114 60 208 164 256 65 31 178 29 241 -3z"/>
<path d="M3255 2032 c-39 -4 -55 -26 -55 -74 0 -37 -1 -38 -36 -38 -64 0 -74
-12 -74 -88 0 -40 5 -73 12 -80 7 -7 31 -12 55 -12 l43 0 0 -45 c0 -60 28 -80
100 -70 62 9 80 25 80 76 0 39 0 39 38 39 54 0 72 23 72 93 0 68 -16 87 -71
87 -39 0 -39 0 -39 38 0 21 -6 45 -12 54 -14 17 -62 25 -113 20z m65 -100 c0
-26 5 -53 12 -60 7 -7 34 -12 60 -12 47 0 48 -1 48 -30 0 -31 -7 -34 -57 -30
-45 3 -63 -17 -63 -70 0 -49 -1 -50 -30 -50 -29 0 -30 2 -30 44 0 55 -19 76
-61 71 -44 -5 -59 3 -59 36 0 28 2 29 44 29 57 0 76 19 76 76 0 42 1 44 30 44
29 0 30 -1 30 -48z"/>
</g>
</svg>
