<?xml version="1.0" standalone="no"?>
<!DOCTYPE svg PUBLIC "-//W3C//DTD SVG 20010904//EN"
 "http://www.w3.org/TR/2001/REC-SVG-20010904/DTD/svg10.dtd">
<svg version="1.0" xmlns="http://www.w3.org/2000/svg"
 width="500.000000pt" height="500.000000pt" viewBox="111 95 278 285"
 preserveAspectRatio="xMidYMid meet">
<metadata>
Created by potrace 1.16, written by Peter Selinger 2001-2019
</metadata>
<g transform="translate(0.000000,500.000000) scale(0.100000,-0.100000)"
fill="#000000" stroke="none">
<path d="M2057 3960 c-98 -9 -97 -6 -95 -452 1 -175 -1 -320 -3 -323 -3 -3
-159 -5 -348 -5 -188 -1 -352 -5 -366 -10 -13 -5 -29 -18 -35 -30 -14 -25 -14
-997 -1 -1033 18 -48 20 -48 358 -48 175 0 328 -3 340 -6 l21 -5 -3 -330 c-1
-202 1 -345 8 -370 17 -69 7 -68 591 -65 479 2 517 3 533 20 17 16 18 48 21
379 2 245 6 364 14 369 5 4 153 7 328 7 182 1 328 5 343 11 14 6 31 19 36 30
12 21 16 987 5 1029 -12 44 -50 52 -231 52 -93 0 -211 -1 -263 -1 -52 0 -132
0 -177 1 l-83 0 0 355 c0 238 -4 362 -11 378 -22 48 -29 49 -490 51 -239 0
-460 -1 -492 -4z m846 -149 c4 0 6 -153 4 -338 -2 -186 1 -354 6 -374 15 -62
19 -62 396 -62 186 0 344 -3 350 -6 14 -9 16 -810 2 -824 -4 -4 -151 -8 -326
-8 -334 0 -360 -3 -381 -46 -5 -10 -10 -175 -12 -367 -1 -246 -5 -352 -13
-357 -7 -4 -203 -6 -438 -5 l-426 1 -3 350 c-1 214 -6 360 -13 376 -18 47 -38
49 -384 49 l-325 0 0 98 c1 53 -1 240 -4 415 -4 241 -2 317 7 318 7 0 171 2
366 4 345 3 354 3 375 24 21 21 21 29 23 374 0 194 2 359 2 367 1 14 49 15
394 14 215 -1 396 -2 400 -3z"/>
<path d="M2315 3083 c-38 -10 -64 -35 -90 -86 -41 -82 -30 -200 23 -261 20
-21 85 -56 106 -56 27 0 82 58 94 98 28 94 3 220 -55 279 -34 33 -40 35 -78
26z"/>
<path d="M2655 3060 c-58 -24 -107 -122 -106 -214 1 -105 41 -170 106 -170 43
0 80 27 120 85 27 39 30 52 30 119 0 91 -7 119 -41 159 -27 32 -65 40 -109 21z"/>
<path d="M2023 2774 c-60 -30 -82 -148 -43 -229 25 -52 85 -101 133 -110 33
-6 41 -3 71 27 48 48 56 108 26 184 -27 65 -61 109 -101 129 -35 19 -46 18
-86 -1z"/>
<path d="M2915 2764 c-88 -30 -157 -151 -135 -235 15 -54 59 -99 97 -99 16 0
47 12 69 26 80 52 120 159 90 239 -28 71 -61 90 -121 69z"/>
<path d="M2409 2571 c-29 -18 -62 -54 -91 -97 -26 -38 -63 -85 -83 -104 -52
-49 -76 -100 -76 -167 -2 -125 102 -178 244 -125 72 27 121 28 190 2 148 -56
249 -4 251 129 1 66 -28 123 -93 185 -23 21 -56 59 -73 85 -82 120 -175 152
-269 92z"/>
</g>
</svg>
