<svg width="250" height="250" viewBox="0 0 250 250" fill="none" xmlns="http://www.w3.org/2000/svg">
<g clip-path="url(#clip0_137_2350)">
<path d="M91.5135 97.7318C91.446 97.78 91.4075 97.78 91.3882 97.7511L91.5135 97.7318Z" fill="black"/>
<path d="M101.601 82.2541L101.658 82.1384C101.639 82.2444 101.62 82.3023 101.601 82.2541Z" fill="black"/>
<path d="M151.997 93.9419C151.901 94.0287 151.882 94.048 151.978 94.0576L151.872 94.453L151.756 95.0509C151.669 95.4945 151.631 95.8995 151.641 96.3721L151.66 97.3943L151.178 98.8793C151.072 99.1879 150.994 99.3712 151.139 99.6797C151.264 99.9401 151.236 100.268 151.139 100.615C151.988 101.126 152.692 100.634 153.878 100.818L155.565 101.078C155.97 101.146 156.51 101.252 156.887 101.126C157.186 101.03 157.629 100.731 157.909 100.741L159.606 100.779L160.609 100.933L161.737 100.808H162.73L163.868 100.702C164.341 100.654 164.736 100.673 165.218 100.702L166.867 100.779L167.957 100.818L169.047 100.914L170.291 101.136L171.631 101.261H173.088H174.351C174.64 101.261 175.132 101.348 175.363 101.261C175.759 101.097 176.154 100.808 176.53 100.876L177.495 101.049L178.941 101.117L180.349 101.184L182.249 101.252L183.464 101.329L184.814 101.493L186.743 101.782L188.218 101.975L188.729 102.255C189.79 102.216 190.05 103.036 191.121 103.209L191.979 104.077C192.018 104.357 191.998 104.858 191.96 105.167L191.883 105.823L191.863 106.729L191.921 107.838V108.108L191.834 109.198V110.046L191.748 110.914L191.641 111.782L191.487 112.592C191.458 112.737 191.294 112.968 191.179 113.142C190.966 113.47 191.082 114.01 190.966 114.463L190.812 115.09C190.687 115.601 190.947 116.392 190.677 117.211L190.475 117.819L190.436 118.726L190.32 119.41V121.715L190.291 122.795L189.703 126.363L190.002 126.701L190.205 126.903L190.571 126.73L190.523 128.07C190.475 128.147 190.475 128.244 190.523 128.321L190.504 129.883L190.455 130.992L190.407 131.956L190.359 132.612L190.301 134.059L189.954 134.415V135.505L189.819 135.833C190.07 135.794 190.021 135.91 189.886 135.997L189.771 136.98L189.713 137.656L189.655 138.359C189.655 138.475 189.52 138.726 189.462 138.813C189.491 138.813 189.665 138.774 189.655 138.822L189.616 139.054L189.539 139.507L189.587 140.038V140.182L189.491 140.346C189.607 140.346 189.655 140.346 189.645 140.346L189.616 140.539L189.597 140.674V140.79V140.905V141.021V142.554V142.718L189.616 142.882C189.616 142.902 189.568 142.969 189.52 143.037L189.501 144.213C189.501 144.213 189.433 144.309 189.404 144.329L189.375 145.081C189.375 145.187 189.327 145.361 189.24 145.38L188.864 145.447L188.141 145.66C187.611 145.814 187.022 145.881 186.463 145.891L184.322 145.92L183.02 146.103H182.172L180.976 146.142L180.089 146.286L177.109 146.325L176.723 146.036H175.18L174.061 146.094L173.078 146.151L172.335 146.171L169.905 146.257C169.153 146.286 168.488 146.171 167.706 146.19L166.318 146.209H165.161L163.434 146.19L162.258 146.277C161.901 146.306 161.621 146.315 161.265 146.277C160.233 146.151 159.558 146.537 158.198 146.402L156.279 146.209L155.585 146.103C155.199 146.045 154.9 146.084 154.505 146.132L152.364 146.421L151.293 146.518L150.454 146.576C149.963 146.614 149.288 146.894 149.423 147.183L149.847 148.148C150.175 148.88 149.355 148.987 149.982 149.787L150.493 150.423C149.992 150.857 149.905 151.349 149.982 151.947L150.483 152.4L149.808 153.114C149.316 153.635 149.432 154.454 149.828 154.985C149.288 155.486 150.069 156.296 150.011 157.068L149.905 158.524C149.866 159.054 149.943 159.469 150.242 159.999L149.712 160.79C149.558 161.022 149.577 161.639 149.683 161.909C149.866 162.401 149.876 162.796 149.76 163.288L149.963 163.683L149.49 164.619C149.423 164.754 149.326 165.024 149.297 165.168L149.162 165.949C149.114 166.248 149.075 166.509 149.22 166.798C149.345 167.039 149.461 167.531 149.316 167.714C149.008 168.129 149.085 168.688 149.48 168.9C149.963 169.17 148.95 169.768 149.345 170.462C149.683 171.08 149.297 171.273 149.336 172.246C149.355 172.738 148.68 173.134 149.037 173.462C149.741 174.117 148.651 175.053 149.249 175.246C149.558 175.342 149.876 175.766 149.673 176.065C148.998 177.049 149.885 177.849 149.345 178.592C149.114 178.92 148.902 179.209 148.892 179.585V180.578L148.815 181.253C149.558 181.957 148.719 182.343 149.316 183.047C149.442 183.201 149.239 183.173 149.23 183.655L149.21 185.429L149.181 185.95L149.075 186.577L148.989 187.387C148.989 187.445 148.834 187.56 148.738 187.56L146.684 187.628C146.395 187.637 146.25 187.657 146.038 187.464C145.922 187.358 145.613 187.445 145.43 187.445L142.036 187.512H140.657H139.172H138.284L137.146 187.522L135.71 187.589L134.012 187.734L132.884 187.907L130.685 188.235L130.068 188.274L129.123 188.071L127.339 188.091L126.606 188.12H125.671L123.732 188.235L122.344 188.37L120.656 188.457L119.451 188.419L117.792 188.534L115.912 188.505L115.044 188.419L112.932 188.351H111.919L110.521 188.38L110.232 188.052L109.258 188.023H108.264L107.184 188.1C105.786 188.197 104.417 188.226 103.009 188.1L100.733 187.898L98.9489 187.869L97.6663 187.898L96.6827 188.042L95.9594 188.187C95.9016 188.197 95.7376 188.187 95.728 188.148V187.907L96.0269 187.165L95.8823 187.184L96.1909 186.017L96.2391 184.87C96.2584 184.503 96.133 184.118 95.9787 183.751V182.777L96.4223 182.218C96.0269 181.388 96.2005 180.521 96.673 179.778L96.3452 179.392C96.4898 178.862 95.9691 178.669 96.3548 178.148L96.5091 177.512C96.5573 177.338 96.6441 176.952 96.5959 176.779L96.3934 175.998L96.2487 175.323C96.1909 175.062 96.3259 174.725 96.3452 174.455L96.4609 172.97L96.538 172.073C96.5862 171.543 97.0202 171.128 96.6923 170.549C96.3066 170.25 96.567 169.17 96.9913 168.486C97.3481 167.907 96.7888 167.627 96.8466 167.367L97.0106 166.547C97.0395 166.403 97.1745 166.075 97.1745 165.92L97.1263 164.975V164.194C97.107 163.809 97.7531 163.249 97.4542 162.285C97.2131 161.899 97.1841 161.668 97.1841 161.263L97.0684 160.048V159.508C97.0491 158.967 97.6567 159.131 97.5024 158.659L97.1938 157.724C97.0877 157.405 97.0491 157.164 97.1166 156.817L96.9334 156.393C97.3963 156.046 97.3191 155.496 97.0491 155.062C97.2613 154.618 97.5409 154.049 97.5506 153.606L97.5699 152.641V152.179C97.5506 152.053 97.782 151.87 97.9267 151.745L97.782 150.481C98.0231 149.922 98.0424 149.449 98.1581 148.871L98.351 147.935L98.1099 147.55L98.0038 146.749L98.3896 145.66C98.3896 145.37 98.4474 145.197 98.5535 144.907V143.876L97.0588 144.059C96.7791 144.088 96.5284 144.059 96.2005 143.972C95.9594 143.904 95.5448 143.962 95.2458 143.991L94.3683 144.088H92.1985L91.6681 144.068L90.3662 143.972L88.8329 143.943L87.3382 143.972L86.046 144.049L84.4548 144.068L83.1915 144.136L81.909 144.155L81.2629 144.203L79.8453 144.338H79.2859L77.7044 144.483L77.0101 144.541L74.985 144.695H74.0978H73.1527H72.1016L69.9704 144.753L69.035 144.801L67.7813 144.85H66.142H64.8787L63.5093 144.936C63.2393 144.956 63.0079 144.927 62.7089 144.907L61.407 144.84L60.7513 144.647H60.0473L58.3501 144.782L57.5207 144.107C57.3665 143.982 57.1157 143.644 57 143.471L57.2893 141.021L57.8293 140.848L57.4918 140.192C57.3375 139.883 57.2218 139.565 57.2122 139.227V138.813V138.716L57.2604 137.906L57.3182 137.521L57.4147 135.997L57.4532 135.495L57.4918 134.618V133.924L57.3857 133.441L57.3086 132.959L57.3664 132.458L57.2893 131.532L57.2507 130.384L57.2893 129.324L57.3472 127.867L57.3761 127.202V126.103V124.888C57.4725 124.811 57.4918 124.772 57.4243 124.762L57.8486 124.068L57.9258 123.981L57.8968 123.422L57.9547 122.554L57.8293 121.214L57.7908 120.452L57.8293 120.297L57.7618 120.105L57.7811 119.642L57.6365 118.726L57.7329 118.513L57.6365 118.282L57.54 116.98L57.5015 115.09V113.479L57.5207 112.737V112.129C57.6365 112.043 57.6558 112.023 57.5593 112.014V111.898C57.6365 111.811 57.6558 111.782 57.54 111.773L57.6172 111.001L57.6943 110.191L57.7425 109.593L57.7715 108.436C57.8583 108.359 57.8776 108.33 57.8004 108.311L57.8583 107.134V105.041L57.8486 103.537C57.9354 103.46 58.109 103.315 57.9547 103.441C57.8004 103.306 57.6172 103.074 57.5304 102.939L57.8776 102.467V101.464V100.249L58.2922 99.7183C58.7647 99.1204 59.1216 99.5641 59.5362 99.1108L60.2016 98.3683L61.0599 98.2622H62.3521H63.8372C64.3772 98.2622 64.8497 98.2236 65.3416 98.2622L65.4669 98.3104L65.8044 98.3393H66.7784L68.2153 98.3201C68.5914 98.3201 69.0543 98.32 69.4111 98.3972C69.8065 98.4839 70.1729 98.5707 70.5297 98.5129C70.9444 98.4454 71.2626 98.455 71.6676 98.484L72.9502 98.5708L74.3871 98.6093L75.2261 98.5708L76.1325 98.5129L77.0969 98.4936H78.2252L78.553 98.484L81.4557 98.2043L82.2175 98.0982L83.0083 98.0115L83.4423 97.915L84.1752 98.0597L86.2099 97.8668C87.7529 97.7221 88.264 98.2333 88.7365 98.0211C89.0162 97.8957 89.2765 97.7897 89.5176 97.78L90.6459 97.7222L91.4463 97.6932C91.5042 97.7704 91.5138 97.7703 91.5717 97.6739L93.3846 97.9246C93.5196 97.9439 93.6932 97.9439 93.7993 97.9246H94.2333L94.3393 97.8957L95.1204 97.8668L96.2294 97.7607C96.4609 97.7414 96.9238 97.4907 97.1552 97.51L97.8688 97.5485L99.0742 97.6064L100.53 97.6932C100.723 97.7028 101.032 97.481 101.138 97.3074L101.582 96.9314L101.283 96.4685C101.09 96.5263 100.733 96.3239 100.743 96.1599L100.771 94.8195L100.839 93.4501L100.955 92.4279L101.061 91.7432L101.08 90.8367L101.157 90.615L101.051 90.4028L101.08 89.8049L101.119 88.9948C101.167 88.9466 101.167 88.937 101.119 88.8984L101.157 87.4712L101.205 86.6033L101.369 85.446C101.418 85.34 101.447 85.3111 101.302 85.3111V83.9899C101.418 83.9127 101.437 83.8838 101.34 83.8742L101.649 83.4595V82.1962C101.852 82.1769 101.813 82.1577 101.717 82.0805L101.755 81.2512L101.803 81.174L101.63 80.6243C101.553 80.3929 101.717 79.8818 101.774 79.6407L101.89 79.1586L102.064 78.5221L102.228 77.5481V77.3938L102.054 77.3745L101.871 77.2299L101.244 77.1816L101.34 76.6706L101.466 75.9088L101.697 74.3465L101.823 73.739L101.88 73.6232L101.697 73.0061C101.649 72.8132 101.601 72.4853 101.62 72.2732L101.765 70.3734L101.842 69.7755L101.977 68.9655L101.996 68.8208C101.842 68.1843 101.408 68.3676 101.485 67.8083L101.582 67.085L101.639 66.5835L101.688 66.0146L101.813 65.1467C101.909 65.0599 101.929 65.0406 101.832 65.0213L101.852 64.0956C101.852 63.6134 101.273 62.8419 101.717 62.3308L103.038 62.2633L103.973 62.1283C104.282 62.08 104.764 61.8583 105.034 61.8293L106.162 61.7233C106.789 61.6654 107.387 61.2121 108.052 61.5304C108.486 61.7425 108.862 61.8582 109.296 61.7618C109.962 61.6075 110.521 61.6654 111.177 61.8968C111.476 62.0029 111.784 61.8101 112.083 61.6751C112.469 61.4918 113.038 61.4821 113.51 61.3954L114.427 61L114.909 61.2796C115.14 61.4146 115.709 61.3375 115.989 61.3761C116.596 61.4533 117.05 61.4725 117.599 61.2411L118.756 61.4243L120.116 61.6654L120.82 61.4532C121.987 61.106 122.064 61.6365 122.787 61.6847L123.655 61.7426C124.716 60.9229 125.169 61.8872 126.288 61.6268L126.703 61.7522L127.532 61.4532L127.937 61.6654C129.249 61.1639 130.3 61.7618 130.955 61.6075L131.765 61.4243L133.173 61.3471C133.742 61.3182 134.205 61.27 134.784 61.3568L135.69 61.4918L136.365 61.3375C136.925 61.2121 137.108 61.5883 137.638 61.5015L138.516 61.3568L139.345 61.4918L141.062 61.4243L142.161 61.2893C142.798 61.5593 143.289 61.3472 144.08 61.6172L144.987 61.9161C145.228 61.6654 145.787 61.3664 146.076 61.54C146.558 61.839 146.915 61.8679 147.417 61.7136L148.179 61.7329L150.04 61.974L151.072 62.0608L151.785 62.4272C152.248 62.3404 152.846 62.2729 153.183 62.5237L154.244 63.2951C154.514 63.4977 154.669 63.8833 154.611 64.2209L154.514 64.8188C154.514 65.1178 154.495 65.5324 154.408 65.8024L154.244 66.3135L154.167 67.1043L154.09 68.2711L153.965 69.3994L153.945 70.0937L153.926 70.7495L153.878 71.2799L153.859 72.9868L153.704 74.009L153.646 74.4815L153.251 76.3523L153.174 76.6995L153.077 77.2973L153 78.5028C153 78.5028 153 78.5028 153.222 78.5799L153.174 79.255L153.097 80.2675L152.952 81.3958L152.827 82.1095L152.865 82.5434L152.798 83.7392L152.711 84.7614L152.586 85.5136L152.422 87.0179L152.306 88.7345L152.229 89.4577L152.132 90.3449L152.103 90.8561L151.939 92.0325L151.862 92.4279C151.882 92.4761 151.93 92.5822 151.911 92.6208L151.833 92.7847C151.949 92.9101 152.084 93.1415 152.074 93.2862L152.026 93.8937L151.997 93.9419ZM108.486 108.021L108.322 107.992L107.474 107.925C107.049 107.886 106.693 107.722 106.278 107.732L105.121 107.751L104.253 107.944L103.481 107.963L102.893 108.089C102.517 108.166 101.996 108.176 101.543 108.089C100.887 107.973 100.714 106.44 99.3153 107.038C99.0839 107.134 98.7078 107.144 98.4281 107.124L97.3288 107.038C96.5766 107.163 95.8726 107.25 95.0722 107.076C94.754 107.009 94.4358 107.086 94.1079 107.134L92.6999 107.327C92.0924 107.414 91.6199 107.423 91.0123 107.404C90.2891 107.375 89.4983 107.501 88.7654 107.337L87.3478 107.018C86.8946 106.912 86.4992 107.124 86.0363 107.221C85.4481 107.356 84.7056 107.327 84.0691 107.385L82.854 107.501C82.3815 107.549 81.9186 107.703 81.4461 107.906L80.5589 107.742L79.3245 107.944C78.9291 108.012 78.4952 107.954 78.0998 107.838L77.2898 107.597C76.2676 107.288 74.715 107.645 73.8953 107.491C73.6638 107.443 73.442 107.52 73.2685 107.684C72.9116 108.041 72.4488 107.857 72.0245 107.838L69.6522 107.751C69.2568 107.732 68.6782 107.597 68.2635 107.722C68.061 107.78 67.8392 108.291 67.8296 108.475L68.2828 109.005C68.5817 109.805 68.0321 110.345 68.3985 110.644C68.6493 110.847 68.8518 111.483 68.63 111.734L67.9356 112.525C67.8296 112.641 67.7331 112.968 67.8103 113.103L68.2346 113.856L68.0514 114.318C68.5335 114.936 67.7524 115.505 67.8006 115.919L67.926 116.893L68.5817 117.298L68.5528 118.475C68.5528 118.774 68.5046 119.073 68.6396 119.314C68.9868 119.941 68.7843 120.847 68.5239 121.146L67.9935 121.734C67.8681 121.879 67.8874 122.332 67.9067 122.554C68.3889 122.911 68.5721 123.499 68.2539 124.02C67.9356 124.54 67.8585 125.158 67.9742 125.756C67.7524 126.064 67.7235 126.382 67.9356 126.758L67.521 127.559L68.0514 128.533C68.196 128.938 68.1767 129.806 68.0514 130.269C67.9453 130.693 67.7813 130.828 68.1285 131.252L67.5981 131.638C67.4824 131.725 67.5595 132.091 67.6463 132.246C68.0899 133.027 67.7235 133.702 68.0031 134.377C68.1478 134.734 68.3889 135.129 68.3889 135.409V136.759C68.3985 136.874 68.4275 137.193 68.4853 137.222L69.5365 137.116L70.8576 136.923L71.7255 136.807L73.3745 136.604L74.3099 136.653L75.525 136.72L76.9522 136.788C78.0902 136.836 78.4952 136.277 79.0641 136.286L81.9379 136.354H85.0431L85.8531 136.277L86.8271 136.132L88.0132 136.016L88.7269 135.978L90.0576 136.016L92.5553 136.074C93.0471 136.084 93.5389 135.978 94.0404 135.862L94.6479 136.122L95.8341 136.093L96.6248 135.978L97.4542 135.92L98.2931 135.9H99.1032L99.6721 135.91L99.8071 135.939H100.328L101.861 135.92L103.173 135.833L104.05 135.727L104.995 135.611C105.236 135.582 105.516 135.544 105.776 135.582L106.963 135.775C107.136 135.592 107.464 135.428 107.667 135.447L108.419 135.515H109.161L109.258 135.64L109.952 135.534C110.068 135.573 110.135 135.929 110.145 136.18L110.174 137.559C110.183 138.003 110.251 138.398 110.174 138.822L109.942 140.269C109.817 141.021 109.46 140.905 109.412 141.619L109.316 143.191L109.238 143.654L109.325 144.261L109.422 145.698L109.364 146.286L109.2 147.116C109.084 147.694 109.287 147.878 109.238 147.907L108.959 148.109C108.641 148.34 109.238 148.717 109.248 149.15V150.501L109.074 152.159L108.988 152.969L108.891 154.329C108.862 154.715 108.853 154.956 108.891 155.351L108.968 156.017C108.457 156.557 108.428 157.54 108.891 158.071C109.19 158.418 108.419 158.485 108.679 159.16C108.959 159.913 109.046 160.829 108.534 161.272C108.93 161.668 108.833 162.227 108.448 162.593C108.11 162.921 109.103 163.5 109.017 163.683L108.804 164.146C108.718 164.946 108.554 165.756 108.168 166.509L108.351 167.299L108.11 167.994L107.937 168.659C107.869 168.91 108.023 169.488 108.158 169.71L108.428 170.144C108.621 170.462 107.753 170.867 107.811 171.581L107.869 172.343C108.467 172.584 108.023 172.671 107.763 173.577C107.686 173.847 107.503 174.281 107.541 174.493L107.715 175.313C107.753 175.487 107.994 175.795 108.139 175.959C108.023 176.171 107.782 176.615 107.734 176.846L107.975 178.196C108.023 178.457 107.821 178.727 107.58 178.949L107.753 179.672C107.782 179.788 108.168 179.836 108.293 179.846L109.046 179.913L110.887 180C111.35 180.019 111.775 180.193 112.228 180.106L113.26 179.903C114.407 179.682 115.256 180.009 116.249 179.894C116.837 179.817 117.57 179.73 118.091 179.932C118.419 180.058 118.679 180.173 118.978 180.144L119.991 180.067C120.502 180.029 120.974 179.942 121.457 179.759C121.891 179.585 122.276 179.643 122.73 179.682L124.388 179.807L125.497 179.913C125.979 179.961 126.558 179.585 127.069 179.431C127.995 179.151 128.921 179.739 129.808 179.286L130.512 179.441L131.351 179.305H132.952L134.639 179.084C135.671 178.939 136.086 179.209 136.954 179.074L137.638 178.968C138.024 178.447 137.368 178.158 137.542 177.753L137.879 176.981C138.284 176.075 137.32 175.863 137.706 174.947L138.072 174.079C138.169 173.857 138.014 173.307 138.014 173.057V172.324V171.523L138.178 170.896L138.111 170.086C138.082 169.758 138.14 169.373 138.284 169.074L138.236 168.534L138.111 167.54L138.429 167.145L138.024 165.901C137.928 165.602 138.111 165.081 137.928 164.416C137.87 164.204 137.783 163.635 137.908 163.423L138.603 162.333C138.718 162.15 138.632 161.909 138.487 161.639C138.275 161.234 138.882 160.501 138.439 159.209L138.66 158.408C138.525 158.177 138.429 157.839 138.477 157.637L138.651 156.894L138.824 156.132C138.921 155.708 138.921 155.158 138.921 154.705V153.316L138.988 152.207L139.066 150.742L139.201 150.24L139.229 149.17L139.422 147.029L139.451 144.599L139.403 143.962L139.471 142.41L139.606 140.086C139.712 139.816 140.252 139.796 140.551 139.825L142.865 140.018C143.193 140.047 143.53 139.796 143.559 139.459L144.398 139.333L145.874 139.131L147.417 138.89L148.188 138.793L149.529 138.716L150.705 138.658L152.518 138.552L153.82 138.437L156.067 138.186L157.764 138.138L159.432 138.196L161.805 138.273L162.788 138.302L164.572 138.35L166.839 138.379L169.298 138.359C169.674 138.359 170.127 138.244 170.522 138.331C171.207 138.475 171.766 138.446 172.451 138.35C173.454 138.205 174.061 138.523 174.823 138.495L176.848 138.417C177.35 138.398 177.832 138.321 178.334 138.417C178.661 138.485 178.97 138.427 179.288 138.282L179.703 138.321L179.809 137.713C179.838 137.559 179.934 137.328 179.915 137.193L179.799 136.305L179.703 135.63C179.549 135.737 179.684 135.64 179.848 135.534C179.896 135.466 180.04 135.1 180.031 134.955L179.973 134.184C180.089 133.769 180.175 133.297 180.002 132.95C179.655 132.217 180.349 132.188 179.867 131.6L180.31 131.156L180.195 130.722L180.609 129.777L180.523 128.832L180.474 128.137C180.474 128.07 180.455 127.916 180.436 127.858C180.262 127.231 180.715 127.472 180.658 126.922L180.542 125.823L180.503 124.974L180.397 124.068L180.59 122.949C180.609 122.805 180.677 122.544 180.715 122.438L181.082 121.541C181.246 121.136 180.841 121.32 180.667 120.741L180.484 120.133C180.407 119.873 180.619 119.401 180.754 119.111L180.831 118.465C181.13 118.214 181.217 117.954 181.034 117.559C180.966 117.404 180.995 117.057 180.985 116.855L180.957 116.382L181.178 115.1C181.217 114.897 181.352 114.521 181.439 114.309C181.487 114.203 181.429 113.885 181.439 113.759L181.554 112.843L182.027 112.062L182.316 111.204C182.364 111.078 182.21 110.818 182.066 110.673L182.085 110.162C182.085 109.96 181.641 109.767 181.419 109.786L179.925 109.902C179.626 109.921 179.076 110.018 178.777 109.95L177.032 109.535C176.424 109.391 175.585 109.921 173.599 109.516C172.682 109.333 171.699 109.805 169.934 109.497L169.114 109.458C168.092 109.217 167.003 109.072 166.067 109.41C165.701 109.535 165.431 109.015 164.553 109.41C164.042 109.641 163.695 109.564 163.174 109.429C162.73 109.314 162.104 109.342 161.602 109.352L159.847 109.391C159.471 109.391 158.892 109.497 158.565 109.391C158.015 109.217 157.677 109.14 157.205 109.497C156.935 109.699 156.549 109.709 156.212 109.574C155.874 109.439 155.594 109.651 154.659 109.651H153.02L151.322 109.603L150.233 109.4C150.136 109.381 149.963 109.535 149.847 109.67L146.896 109.246L146.221 109.15L145.257 109.13L143.839 109.101L142.73 109.063L141.447 109.005L140.743 108.957L139.403 108.831C139.249 108.822 138.959 108.725 138.873 108.619C138.786 108.513 138.738 108.195 138.786 108.05L139.027 107.192L139.075 106.652L139.056 105.678L139.731 105.63L139.191 104.665C139.075 104.463 139.027 103.257 139.316 102.968C139.355 102.515 139.355 101.946 139.509 101.512C139.634 101.146 139.683 100.953 139.586 100.567L139.654 99.863C139.721 99.1783 140.088 99.2554 140.078 98.3393L140.059 96.1985C140.059 95.8128 140.03 95.292 140.078 94.9545L140.3 94.0287C140.329 93.913 140.435 93.7201 140.541 93.5754L140.695 92.9005C140.763 92.7751 140.869 92.4761 140.84 92.3315L140.57 91.0682C140.493 90.7114 140.782 90.0942 140.772 89.7567L140.753 88.3391L140.811 87.0083C140.811 86.7961 140.782 86.5165 140.724 86.285C140.608 85.8704 140.695 85.5425 140.743 85.1279L140.917 83.662L141.004 83.0063L141.177 81.4344L141.303 80.4026L141.409 79.7565L141.592 79.1586L141.843 78.2038C142.026 77.4999 142.122 77.0852 141.746 76.5934C142.113 75.6869 141.476 75.359 142.132 74.6454C142.277 74.4815 142.229 74.1825 142.084 73.9897L142.113 73.8161L142.19 73.6618L142.277 73.4979L142.344 73.3339V73.17L142.364 73.0157L142.383 72.7842C142.383 72.7842 142.267 72.7553 142.219 72.765V72.6782L142.209 72.5431H142.007L142.055 72.3407L141.621 72.1285L141.64 71.3474C141.64 71.3474 141.679 71.1448 141.64 71.1545L141.293 71.2028L141.216 71.2895L141.033 71.1449L140.859 71.9646H140.232C139.104 71.9646 138.053 72.1671 137.002 72.1092C137.002 71.8585 136.963 71.9356 136.896 71.9935L136.24 71.926L134.668 71.791L133.058 71.8585L131.467 71.9356L130.618 71.9549L129.962 71.8488L128.467 71.7813C128.082 71.7621 127.802 71.7813 127.387 71.7813L125.844 71.7428C124.706 71.7139 124.06 71.4728 123.405 71.492C123.221 71.492 122.836 71.7331 122.662 71.7138L121.727 71.6174L119.769 71.8295C118.978 71.9163 118.13 71.9067 117.464 71.5692C117.021 71.3474 116.712 71.3956 116.22 71.6078C115.728 71.8199 114.832 71.1449 114.128 71.5017L113.636 71.7524C113.636 71.7524 113.443 71.8103 113.462 71.8488L113.588 72.1381C113.645 72.2828 113.674 72.6203 113.655 72.8035L113.597 73.5268L113.462 73.7775C113.433 73.8354 113.52 73.9993 113.588 74.0283C114.253 74.3658 113.626 74.9444 113.983 75.5133C114.05 75.9087 113.52 76.063 113.626 76.3234L113.742 76.603L113.578 77.3263C113.472 77.4902 113.337 77.7699 113.337 77.9338V78.5124C113.24 78.7342 113.192 79.0428 113.24 79.2935L113.433 80.335L113.221 81.0198L113.915 81.5405L113.674 81.8491L114.002 82.2252C113.896 82.7749 113.703 83.3342 113.414 83.8935C113.173 84.3467 113.732 84.3274 113.665 84.8385C113.578 85.475 113.347 85.3111 113.424 85.7161L113.617 86.7383L113.964 86.9987L113.559 87.4133L113.53 87.963C113.337 88.262 113.144 88.8598 113.289 89.1877C113.501 89.6506 113.482 89.882 113.318 90.3256L113.038 91.126L112.922 91.8878C112.643 92.7461 113.231 92.9101 112.71 93.643C112.671 93.7008 112.575 93.8455 112.604 93.884L112.826 94.1059C112.874 94.1541 112.932 94.3084 112.941 94.3855L113.009 94.9931C113.038 95.2534 113.009 95.4656 112.913 95.7645L113.202 96.2467L112.99 97.3943C113.144 97.6353 113.462 97.9825 113.713 98.2332L113.732 98.8697V100.143V103.479V104.492L113.684 105.755C112.999 106.025 112.141 105.447 111.042 105.967C110.887 106.228 110.724 106.7 110.627 106.98L110.396 107.684C110.338 107.848 110.068 108.079 109.913 108.07L108.486 108.012V108.021ZM101.823 79.7565L101.755 79.8143L101.823 79.8722L101.88 79.8143L101.823 79.7565ZM101.225 87.6255L101.167 87.6833L101.225 87.7412L101.283 87.6833L101.225 87.6255ZM57.4725 128.398L57.405 128.456L57.4725 128.514L57.5304 128.456L57.4725 128.398Z" fill="black"/>
<path d="M108.322 107.983L108.486 108.012C108.428 108.089 108.399 108.07 108.322 107.983Z" fill="black"/>
<path d="M102.16 77.6156L101.996 77.442L102.15 77.4613L102.16 77.6156Z" fill="black"/>
<path d="M57.1833 138.871C57.0772 138.842 57.0869 138.813 57.1929 138.774V138.871H57.1833Z" fill="black"/>
<path d="M101.909 69.033C101.736 68.9944 101.774 68.9751 101.928 68.8883C101.89 69.004 101.9 69.0716 101.909 69.033Z" fill="black"/>
<path d="M101.07 89.0431C101.032 88.9948 101.032 88.9852 101.07 88.9466V89.0431Z" fill="black"/>
<path d="M141.642 139.145L141.581 139.207L141.642 139.268L141.703 139.207L141.642 139.145Z" fill="black"/>
</g>
<defs>
<clipPath id="clip0_137_2350">
<rect width="250" height="250" fill="white"/>
</clipPath>
</defs>
</svg>
