<?xml version="1.0" standalone="no"?>
<!DOCTYPE svg PUBLIC "-//W3C//DTD SVG 20010904//EN"
 "http://www.w3.org/TR/2001/REC-SVG-20010904/DTD/svg10.dtd">
<svg version="1.0" xmlns="http://www.w3.org/2000/svg"
 width="500.000000pt" height="500.000000pt" viewBox="184 124 131 224"
 preserveAspectRatio="xMidYMid meet">
<metadata>
Created by potrace 1.16, written by Peter Selinger 2001-2019
</metadata>
<g transform="translate(0.000000,500.000000) scale(0.100000,-0.100000)"
fill="#000000" stroke="none">
<path d="M2420 3664 c-83 -36 -139 -105 -160 -198 -9 -39 -8 -59 6 -105 19
-67 77 -151 103 -151 6 0 11 -4 11 -8 0 -4 23 -16 51 -26 73 -27 143 -18 213
24 68 41 104 91 121 165 30 128 -50 271 -170 304 -56 15 -133 13 -175 -5z
m174 -105 c65 -38 93 -122 65 -196 -40 -107 -183 -133 -258 -48 -54 62 -58
139 -10 206 41 58 138 76 203 38z"/>
<path d="M2390 3113 c-113 -44 -267 -168 -353 -284 -30 -41 -72 -160 -81 -229
-3 -25 -9 -59 -12 -77 -4 -24 -1 -36 15 -52 50 -50 77 -20 101 112 10 59 29
128 42 153 41 82 217 242 296 270 44 14 108 1 133 -27 43 -50 45 -106 13 -339
-2 -19 -7 -70 -10 -112 -8 -96 4 -124 117 -263 44 -55 85 -110 90 -123 5 -13
20 -46 34 -75 48 -102 135 -309 135 -323 0 -7 -11 -21 -24 -29 -34 -22 -58 -5
-86 59 -13 28 -56 119 -96 201 -71 144 -78 154 -184 265 -181 189 -199 224
-180 358 24 164 24 169 -2 186 -31 20 -64 11 -77 -22 -5 -15 -15 -79 -21 -142
-10 -97 -9 -125 3 -173 14 -54 13 -90 -3 -112 -4 -5 -31 -75 -61 -155 -51
-140 -72 -177 -153 -265 -48 -53 -96 -124 -102 -151 -20 -103 150 -219 196
-133 15 27 -3 55 -48 77 -45 21 -51 48 -20 82 46 50 125 146 147 177 17 26 74
164 127 313 3 10 38 -20 110 -95 104 -109 106 -112 195 -293 49 -101 89 -187
89 -192 0 -18 60 -78 90 -90 81 -33 182 27 196 116 5 38 0 59 -36 147 -23 56
-46 106 -51 112 -5 5 -9 15 -9 22 0 38 -102 218 -180 318 -47 61 -89 119 -93
129 -7 17 6 197 19 259 l6 27 46 -38 c65 -54 143 -106 194 -130 125 -58 116
-56 144 -38 19 14 24 24 22 48 -2 17 -10 34 -18 38 -90 41 -191 94 -215 112
-68 53 -156 144 -161 167 -20 91 -71 168 -131 197 -39 18 -126 28 -153 17z"/>
</g>
</svg>
