<svg width="250" height="250" viewBox="0 0 250 250" fill="none" xmlns="http://www.w3.org/2000/svg">
<g clip-path="url(#clip0_137_2563)">
<path d="M128.395 85.2868L127.709 85.0525L126.217 84.7056L125.211 84.4366L124.404 84.1763L123.545 83.8467C123.389 83.786 123.129 83.543 123.103 83.3522C123.042 82.9184 122.747 82.745 122.391 82.5541L121.463 82.0683C121.125 81.8948 120.847 81.3222 120.682 80.9752L120.179 80.6109C119.91 79.8735 119.242 79.6825 119.39 79.1793C119.485 78.867 119.45 78.5982 119.381 78.2425C119.259 77.5745 119.641 77.5484 119.39 77.0973C119.251 76.8457 119.268 76.6288 119.294 76.3685L119.416 75.2235C119.225 74.2692 120.075 73.6184 120.084 73.1066L120.101 72.0308C120.101 71.8226 120.162 71.5971 120.257 71.4062C120.431 71.0592 120.257 70.9812 120.543 70.6256L121.003 70.0789L121.472 69.8014L121.697 69.2895C122.001 69.09 122.374 68.8297 122.556 68.5868L123.267 67.65C123.432 67.4331 123.692 67.1468 123.892 67.008L124.447 66.6261C124.534 66.5654 124.734 66.5047 124.855 66.4787L125.714 66.2792L126.26 65.7586C126.39 65.6371 126.79 65.5764 126.963 65.4983C127.44 65.3074 127.883 65.134 128.403 65.1253H128.958C129.809 65.108 129.965 64.8824 130.494 65.0819L131.362 65.4117L131.917 65.6199L133.175 65.8454C133.86 65.9669 134.459 66.2965 135.023 66.6869L135.899 67.3028L136.506 67.78C136.905 68.0837 137.174 68.4741 137.417 68.9165C137.59 69.2375 137.643 69.463 137.677 69.8794C137.703 70.2784 138.042 70.7036 138.25 71.0593L138.848 72.0743L139.117 72.7683C138.978 73.2628 138.996 73.7312 139.178 74.2084L139.629 75.3883C139.751 75.7006 139.577 76.412 139.456 76.733L139.187 77.4529L138.944 77.7393C138.97 77.9562 138.97 78.2598 138.9 78.416L138.527 79.2922L138.094 79.6044L138.015 80.125L137.651 80.2811C137.556 80.3245 137.53 80.5587 137.512 80.6975L137.374 81.8687C137.226 81.9295 136.879 82.0682 136.853 82.1983L136.714 82.9618L135.977 83.2742C135.795 83.4304 135.5 83.6818 135.309 83.7252L134.164 84.0202C133.877 84.0896 133.643 84.2458 133.4 84.4453C133.236 84.5841 133.027 84.6449 132.802 84.7403L132.09 85.0438L131.405 85.148L130.39 85.521C130.13 85.6164 129.843 85.6165 129.6 85.5384C129.392 85.469 129.201 85.5644 128.377 85.2868H128.395Z" fill="black"/>
<path d="M149.406 162.549C149.302 162.445 149.372 162.61 149.432 162.671L149.45 162.775C149.389 162.801 149.38 162.896 149.458 162.888V163.165L149.528 163.556L149.623 164.414L149.753 164.822L149.918 165.629L150.04 166.609L150.265 167.876L150.352 168.631L150.508 168.666L150.526 169.117C150.43 169.082 150.473 169.169 150.508 169.238L150.586 169.559L150.664 169.949C150.664 169.949 150.725 170.019 150.76 170.053L150.838 170.661L150.933 171.346L151.011 172.014C151.011 172.014 151.081 172.136 151.063 172.162L151.003 172.292C151.081 172.457 151.176 172.708 151.185 172.873L151.237 173.541L151.219 173.715C151.219 173.715 151.263 173.827 151.272 173.862L151.341 174.296L151.41 174.73C151.419 174.79 151.306 174.964 151.306 174.964L151.488 175.424C151.436 175.424 151.289 175.554 151.341 175.588L151.462 175.675C151.462 175.675 151.462 175.788 151.506 175.797L151.662 175.814L151.497 176.248L151.775 176.465L151.428 176.543L151.697 176.664C151.697 176.664 151.731 176.725 151.749 176.768C151.775 176.864 151.801 176.933 151.792 176.968L151.749 177.107L151.957 177.853L152.13 178.616L152.235 179.232C152.235 179.232 152.122 179.458 152.174 179.501L152.391 179.7L152.373 180.299C152.373 180.299 152.478 180.342 152.486 180.377L152.651 180.958L152.573 181.383L152.434 182.156L151.428 182.286C151.402 182.234 151.384 182.234 151.358 182.277L150.682 182.459L150.283 182.477L149.337 182.633L148.469 182.754L147.767 182.867L147.298 182.954L146.648 183.066L145.485 183.275L144.036 183.57L143.108 183.752L142.431 183.882L141.494 184.056C141.087 184.134 140.748 183.795 140.532 183.335L140.184 182.589C139.855 181.887 140.401 181.791 139.994 181.41C139.811 181.236 139.803 181.132 139.811 180.846C139.82 180.499 139.621 180.039 139.456 179.683C139.386 179.527 139.456 179.136 139.473 178.928C139.473 178.772 139.352 178.451 139.308 178.286L139.169 177.714C139.126 177.532 139.135 177.15 139.143 176.968C138.71 176.421 138.528 175.745 138.519 175.016V174.357C138.51 174.209 138.51 173.888 138.406 173.775C137.981 173.298 138.094 173.064 137.859 172.37L137.478 171.268L137.417 170.583C137.382 170.236 137.382 169.663 137.2 169.446C137.053 169.273 136.853 169.151 136.862 169.03L136.896 168.579L136.792 168.058L136.688 167.529C137.001 167.095 136.628 167.017 136.74 166.679C136.801 166.497 136.862 166.115 136.766 165.924L136.523 165.438L136.445 164.649L136.385 164.146L136.22 163.174L136.098 162.419C136.003 161.838 135.942 161.352 135.63 160.858C135.734 160.077 135.292 160.138 135.335 159.678L135.413 158.81L134.979 157.813C134.849 157.518 134.806 157.335 134.624 157.075C134.537 156.954 134.398 156.642 134.285 156.563L133.695 156.164C133.478 156.017 133.348 155.861 133.314 155.574C133.236 154.95 132.941 155.262 132.463 154.733L131.839 154.03L131.431 153.475L131.041 153.336C130.728 153.084 130.364 152.902 130.008 152.781L129.67 152.113C129.601 151.983 129.427 151.757 129.306 151.653L128.62 151.055C128.516 150.959 128.152 150.933 128.013 150.933L127.909 150.473C127.683 150.3 127.545 150.109 127.423 149.883L127.093 149.25L126.495 148.166C126.243 148.166 125.914 148.105 125.81 147.992L125.35 147.446L125.237 146.873C124.872 146.673 124.673 146.509 124.421 146.248L123.936 145.745L123.346 145.069C122.764 144.808 122.4 144.349 122.166 143.776L121.923 143.394L121.428 142.692L121.09 142.188L120.674 141.624C120.413 141.269 120.032 140.956 119.667 141.008L119.581 141.642C119.555 141.815 119.407 142.11 119.39 142.292L119.32 142.926L119.103 143.811L119.086 144.774C119.086 145.199 118.991 145.52 118.982 145.919V146.717L118.939 147.55C118.921 147.94 118.583 148.157 118.635 149.016L118.557 149.528L118.349 149.745C118.349 149.745 118.331 149.909 118.349 149.979L118.47 150.846C118.036 151.245 118.201 151.558 117.88 152.052C117.828 152.13 117.872 152.313 117.941 152.434C117.846 152.564 117.542 152.911 117.507 153.111L117.42 153.744L117.169 154.646L117.056 155.297C117.004 155.6 116.752 156.164 116.804 156.459C116.865 156.798 116.909 156.988 116.822 157.249L116.553 158.125C116.345 158.802 116.475 159.071 116.241 159.305C116.067 159.47 115.902 159.713 115.781 159.947L115.382 160.172L115.269 160.615L115.182 160.676L114.844 161.239L114.636 161.534L114.237 162.428C114.176 162.567 114.08 162.792 113.959 162.888C113.369 163.356 113.655 163.608 113.178 163.868L112.901 164.423C112.779 164.675 112.71 164.814 112.458 164.987C112.354 165.057 112.25 165.273 112.189 165.438L111.781 166.531L110.888 167.963C110.697 168.275 110.558 168.206 110.558 168.301V168.449L109.977 169.472L109.578 170.028L109.309 170.574L109.135 170.947C109.031 171.034 108.997 171.06 109.066 171.008L108.65 171.528L108.528 171.91L108.476 171.971L108.216 172.422L107.938 172.864L107.6 173.367L107.314 173.758L106.889 174.435L106.975 174.521C106.906 174.539 106.828 174.556 106.88 174.547L106.828 174.504L106.446 175.137L106.203 175.545L105.986 175.84L105.83 176.161L105.761 176.274L105.553 176.655L105.24 177.289C105.162 177.315 105.179 177.341 105.258 177.376L105.058 177.688L104.321 178.538L103.922 179.249C103.705 179.631 103.375 179.935 103.037 180.117L103.097 180.195L103.002 180.238L102.915 180.204L102.499 181.097L102.447 181.236L102.273 181.314L101.918 181.878L101.588 182.182L101.857 182.156L101.571 182.468L101.423 182.876L101.128 183.691C101.128 183.691 101.102 183.769 101.076 183.778L100.894 183.899C100.894 183.951 100.859 184.212 100.807 184.29L100.486 184.741L100.417 185.044C100.391 185.157 99.8703 185.313 99.5059 185.097L99.0548 184.828C98.942 184.758 98.6817 184.706 98.5689 184.689L98.2394 184.463L97.9443 184.307C97.9443 184.307 97.8837 184.325 97.8316 184.342L97.6061 184.099C97.5453 184.082 97.3631 184.064 97.3197 184.021L97.1028 183.787C97.1028 183.787 96.9726 183.752 96.9899 183.76L96.2614 183.656C95.7148 183.578 95.5153 183.118 94.9427 183.092L94.7432 182.954C94.6824 182.928 94.6043 182.884 94.6476 182.91L93.7888 182.641C93.7888 182.641 93.6933 182.477 93.728 182.485C93.7627 182.494 93.5893 182.485 93.5632 182.459L92.8865 182.06L92.288 181.835L91.4639 181.531C91.3945 181.505 91.2209 181.323 91.2209 181.306C91.1429 181.306 90.8565 181.253 90.7437 181.184L90.206 180.846L89.6246 180.473L89.295 180.256L89.0955 180.221L89 179.909L89.3124 179.093C89.3645 178.954 89.5726 178.711 89.6767 178.607L89.6246 178.547L89.668 178.46L89.7375 178.538L89.9631 178.156C89.9631 178.156 89.8328 178.044 89.8675 178.018L89.9717 177.913L90.0584 177.844L90.7003 176.768C90.7003 176.768 90.683 176.534 90.7177 176.543L90.9693 176.603L90.8045 176.352L91.0214 176.256C91.1082 175.944 91.2296 175.614 91.4031 175.328L91.7502 174.756L91.9584 174.374L92.1319 173.983L92.1927 173.905L92.3835 173.68L92.3401 173.584C92.3401 173.688 92.3401 173.593 92.3401 173.48L92.418 173.61L92.6696 173.125L92.5917 173.047C92.6611 173.029 92.7477 173.003 92.687 173.021L92.7825 173.081L92.9386 172.665L93.2076 171.927L93.4506 171.997L93.3984 171.442L93.867 171.355L93.7627 171.129C94.023 170.678 94.24 170.409 94.5523 170.114L94.8385 169.559L95.0988 169.516L94.8732 169.446C95.0641 169.186 95.3071 168.865 95.4372 168.561L95.8968 167.572C96.0009 167.338 96.2352 167.043 96.3827 166.861L96.4261 166.661L96.5996 166.497L96.643 166.236C96.6517 166.184 96.7818 166.106 96.8078 166.063L96.9467 165.803L96.9813 165.733L97.1289 165.43L97.554 164.744L97.7708 164.389L97.8748 164.354L98.0485 163.955C98.1006 163.911 98.2652 163.755 98.3173 163.677L98.6992 163.087L98.9593 162.688L99.0374 162.628L99.1588 162.367L99.3583 162.011L99.7141 161.422L100.261 160.363L100.443 160.008L100.729 159.522L100.911 159.253L100.955 158.94C101.007 158.88 101.024 158.845 100.946 158.819L101.241 158.576C101.241 158.576 101.198 158.524 101.145 158.455L101.406 157.969L101.822 157.179L102.056 156.789L102.343 156.303L102.707 155.592L103.115 154.724L103.705 154.16L103.609 153.666C103.41 152.668 103.913 152.434 103.948 152.052L104.026 151.133L103.982 150.404L104.407 150.109L104.338 149.502C105.067 148.686 104.555 148.226 104.902 147.706L105.015 146.977C105.258 146.509 105.301 146.17 105.24 145.632C105.214 145.398 105.379 144.921 105.379 144.644V143.984C105.362 143.533 105.891 143.62 105.83 143.177L105.743 142.535C105.7 142.206 105.691 141.85 105.761 141.52L105.917 140.67L106.056 139.846L106.515 138.068C106.611 137.695 106.715 137.391 106.932 137.044C107.01 136.923 107.01 136.671 107.053 136.497L107.227 135.821C107.288 135.586 107.262 135.179 107.218 134.866C107.201 134.736 107.366 134.45 107.392 134.32C107.565 133.574 107.322 133.044 107.774 132.533L107.964 131.873L108.181 130.806L108.303 130.112C107.982 129.384 108.788 129.141 108.988 128.143C108.511 127.276 109.37 126.122 109.413 125.731L109.483 124.985C109.5 124.812 109.508 124.534 109.552 124.404L109.821 123.649C109.873 123.51 110.064 123.241 110.055 123.103C110.038 122.834 110.133 122.469 110.246 122.261C110.168 122.122 110.107 121.836 110.185 121.723C110.515 121.272 110.229 121.307 110.385 120.613L110.576 119.728C110.636 119.45 110.714 119.138 110.87 118.921C111.139 118.548 111.166 118.236 110.966 117.802L111.322 117.49L111.356 116.83C111.365 116.588 111.469 116.319 111.599 116.119L112.094 115.364V114.523C112.076 113.846 112.528 114.028 112.363 113.404C112.259 113.005 112.406 112.293 112.779 112.068L112.797 111.356C112.797 111.191 112.814 110.853 112.892 110.732C113.169 110.315 113.274 109.812 113.074 109.344L113.386 108.979L113.612 108.233L113.664 107.652C113.829 107.261 113.916 106.966 113.985 106.533L113.473 107.036L112.979 107.461C112.588 107.799 112.337 108.112 111.825 108.285C111.469 108.407 111.53 108.606 110.949 108.884L110.35 109.17L109.752 109.5L109.604 110.02C108.762 110.228 108.71 110.671 108.346 110.879L107.565 111.33L107.444 111.799C106.967 111.972 106.906 112.614 106.923 113.239C106.923 113.473 106.672 113.881 106.541 114.08L106.481 114.514L106.394 115.13L106.273 115.972C106.247 116.128 106.351 116.483 106.394 116.579L106.03 117.273L105.778 118.01L105.518 118.704C105.396 119.034 105.154 119.363 105.162 119.719L105.188 120.543C105.188 120.682 105.162 120.847 105.093 121.047L104.702 122.2C104.642 122.383 104.624 122.556 104.59 122.764L104.459 123.675L104.269 124.76L103.93 125.549L103.844 126.139L103.713 126.581L103.496 127.432C103.314 128.117 102.36 128.611 102.742 129.921L102.412 130.329C102.429 130.451 102.16 130.564 102.239 130.312L101.519 130.399C101.345 130.425 101.085 130.399 100.929 130.364L100.183 130.234L99.0808 130.121L98.2912 130.078L97.8922 130.052L97.8056 129.982L97.3631 130.052L96.1398 130.008L94.0925 130.104L94.0752 129.861L94.2399 129.141C94.3093 128.846 94.3006 128.62 94.2052 128.351C94.5956 127.779 94.2313 127.536 94.3181 127.258L94.5697 126.443L94.292 126.087L94.4394 125.41L94.6911 124.378C94.7952 123.962 94.7517 123.337 94.8385 122.894L95.3157 122.062C95.4198 121.879 95.4112 121.472 95.4286 121.281C95.4719 120.804 95.4719 120.457 95.4286 119.928L95.9576 118.965C96.0617 118.774 96.0791 118.323 95.9924 118.132C95.8622 117.854 95.8969 117.681 95.9663 117.412L96.1658 116.709L96.4609 115.859V115.225C96.8079 114.87 96.9814 114.41 96.8859 113.968L97.1202 113.551L96.9207 113.135C96.8773 113.039 97.0594 112.822 97.0681 112.718L97.1202 112.146C97.1289 112.024 97.4325 111.894 97.5366 111.859L97.6666 110.714L97.7708 109.821C98.1612 109.508 97.8143 109.422 98.0312 108.684C98.2133 108.051 97.7361 107.296 98.1438 106.949L98.8639 106.325C98.8813 106.082 99.0982 105.717 99.2803 105.717C99.584 105.726 99.8268 105.691 100.009 105.544L100.582 105.058L101.172 104.303C101.371 104.052 101.761 103.852 102.022 103.705C102.213 103.253 102.542 103.037 103.011 102.933L103.609 102.455L105.032 101.128C105.162 101.007 105.362 100.703 105.448 100.564C105.926 99.8441 106.116 100.078 106.524 99.7227L107.106 99.2021L107.652 98.7597C107.808 98.6295 108.233 98.4734 108.346 98.3259L108.728 97.8487L109.604 97.3109L110.202 96.9464C110.628 96.6862 110.983 96.4087 111.304 96.001L111.834 95.7928L112.441 95.0032L112.84 94.6649L113.621 94.0316L113.864 93.6587L114.774 93.1381C115.312 92.8257 115.095 92.1577 115.781 92.0189L116.414 91.4377C116.536 91.325 116.77 91.2382 116.978 91.1861C117.195 90.8912 117.542 90.466 117.872 90.3012L118.626 89.9369L119.381 89.4163C120.084 89.3209 120.084 88.9479 120.769 88.5748L121.559 88.1411C121.749 88.037 122.088 87.7334 122.287 87.7855C122.574 87.8462 122.86 87.8722 123.016 87.742L123.589 87.2562C123.832 87.048 124.482 86.996 124.838 86.9527L125.454 86.8832L126.529 86.8484H127.536C129.323 87.074 130.624 87.421 131.899 88.7309L133.045 89.9109L133.409 90.4228L133.877 91.1514L134.441 92.0623L135.005 92.7217L135.76 93.5545L136.289 94.422C136.376 94.4827 136.61 94.6216 136.671 94.7083L137.157 95.3937C137.408 95.7407 137.408 96.2872 137.764 96.8164C138.033 97.2155 137.582 97.3803 137.99 97.8748C138.189 98.1263 138.293 98.3692 138.38 98.6815L138.632 98.9505C138.588 99.4884 138.762 99.9135 139.074 100.347L139.378 100.989L139.794 101.675L140.132 102.282L140.679 103.167C141.113 103.861 141.147 104.399 141.321 104.642L141.729 105.197C142.05 105.639 141.92 105.761 142.215 106.099C142.605 106.559 142.249 106.784 142.622 107.175L142.883 107.756L143.464 108.424C143.577 108.554 143.681 108.788 143.75 108.997L144.002 109.673C144.167 109.838 144.297 109.994 144.34 110.176L144.687 111.495C144.748 111.712 145.043 112.016 145.234 112.206C145.581 112.553 145.355 112.71 145.763 113.161C146.075 113.508 146.387 113.751 146.812 113.941L148.131 114.549L149.025 115.061L150.248 115.763C150.491 115.902 150.742 116.05 150.907 116.266C151.202 116.665 151.549 116.83 152 117.03L152.608 117.481L152.85 117.854L153.709 118.531L154.317 119.06L155.045 119.546L155.609 120.092C155.739 120.222 156.095 120.344 156.295 120.457L156.832 120.769L158.29 121.801L159.34 122.478C159.522 122.591 159.791 122.842 159.973 123.033C160.094 123.163 159.773 123.528 159.687 123.684L159.27 124.369L159.019 124.76L158.567 125.436L158.142 126.052L157.622 126.712L157.084 127.371L156.598 127.987L156.546 128.074L156.026 128.646L155.774 128.924L155.384 129.366L155.011 129.774L154.672 130.095C154.585 130.182 154.256 130.086 154.126 130.043L152.981 129.644L152.278 129.123L151.731 128.655C151.54 128.499 151.202 128.282 150.951 128.195L150.283 127.952C149.944 127.458 149.424 127.015 148.816 126.772L148.461 126.07L147.229 125.471C146.691 125.211 146.882 125.011 146.179 124.482L145.32 123.823C144.913 123.51 144.565 123.146 144.062 122.947C143.681 122.79 143.446 122.513 143.169 122.226L142.527 121.558C142.301 121.324 141.763 121.142 141.468 120.943L140.818 120.5C140.427 120.231 139.89 119.954 139.595 119.615L139.161 119.129C138.805 118.722 138.562 119.034 138.224 118.609L137.634 117.871C137.521 117.733 137.304 117.498 137.252 117.342L136.957 116.553L136.732 116.006L136.246 115.278C135.96 114.844 136.194 114.731 135.847 114.323L135.535 113.959C135.37 113.768 135.257 113.516 135.161 113.265L134.806 112.328C134.719 112.085 134.693 111.695 134.563 111.538L133.886 110.688C133.843 110.68 133.669 110.68 133.661 110.732C133.652 110.784 133.652 110.957 133.678 111.001L133.912 111.417C133.452 111.599 133.851 112.12 133.209 112.458L133.036 113.187L132.741 113.976C132.62 114.297 132.663 114.688 132.533 114.974L132.316 115.468C132.03 116.128 132.281 116.509 131.795 117.386C131.657 117.637 131.622 118.106 131.596 118.453C131.561 118.895 131.414 119.233 131.266 119.624L130.885 120.647L130.763 121.454L130.572 122.391C130.529 122.617 130.572 122.868 130.676 123.111C130.451 123.337 130.286 123.684 130.139 124.048L129.974 125.167L129.783 126.234C129.765 126.312 129.687 126.46 129.713 126.521L129.852 126.781L129.505 127.076C129.427 127.137 129.358 127.753 129.609 128.074L129.219 128.481L129.028 129.635L129.852 130.182L129.93 130.676L130.711 131.249C131.023 131.483 131.171 131.743 131.188 132.168L131.856 132.888L132.732 133.634L133.218 134.302L134.32 135.595C134.372 135.951 134.858 135.829 134.841 136.445L135.161 136.758L135.509 137.4C135.673 137.712 136.038 137.929 136.376 138.016C136.584 138.484 136.853 138.944 137.165 139.369L137.617 139.994L138.146 140.523L138.58 140.705L139.074 141.33L139.438 141.919L139.941 142.449L140.315 143.151L140.297 143.62L140.775 143.889L140.87 144.47L141.364 144.695L141.538 145.147L142.188 145.815L142.787 146.396C142.917 146.526 143.177 146.656 143.247 146.786L143.672 147.593L144.054 147.654L144.245 148.018L144.618 148.573C144.722 148.729 144.93 149.042 145.095 149.111L145.797 149.398L146.118 149.944L146.474 150.543C146.543 150.655 146.422 151.02 146.405 151.115L146.804 151.714L147.402 152.295L147.949 152.824C147.888 152.876 147.741 153.145 147.758 153.267C147.819 153.614 148.122 153.614 148.157 153.796C147.975 154.065 147.975 154.334 148.07 154.603L148.279 155.167C148.331 155.201 148.461 155.279 148.469 155.331L148.504 155.566L148.591 156.104L148.686 156.902L148.66 158.134L148.868 159.713L149.007 160.667C149.025 160.762 148.938 160.996 148.912 160.996C148.981 161.075 149.155 161.343 149.172 161.465L149.259 161.977L149.458 162.541L149.406 162.549ZM119.355 113.109L119.303 113.161L119.355 113.213L119.407 113.161L119.355 113.109ZM102.308 156.659L102.256 156.711L102.308 156.763L102.36 156.711L102.308 156.659ZM150.335 168.787L150.283 168.839L150.335 168.891L150.404 168.839L150.335 168.787ZM95.0206 169.637L94.9687 169.689L95.0206 169.741L95.0727 169.689L95.0206 169.637ZM150.976 172.647L150.925 172.699L150.976 172.752L151.029 172.699L150.976 172.647ZM91.3683 175.649L91.3078 175.701L91.3683 175.753L91.4205 175.701L91.3683 175.649ZM151.723 177.367L151.671 177.419L151.723 177.471L151.775 177.419L151.723 177.367ZM90.4055 177.471L90.336 177.523L90.4055 177.575L90.4576 177.523L90.4055 177.471ZM89.9804 178.33L89.9196 178.382L89.9804 178.434L90.0323 178.382L89.9804 178.33ZM151.94 178.33L151.887 178.382L151.94 178.434L151.992 178.382L151.94 178.33ZM152.365 180.473L152.313 180.525L152.365 180.577L152.434 180.525L152.365 180.473ZM102.525 180.585L102.473 180.637L102.525 180.689L102.594 180.637L102.525 180.585Z" fill="black"/>
<path d="M149.432 162.671L149.406 162.549C149.64 162.584 149.467 162.636 149.432 162.671Z" fill="black"/>
<path d="M94.6562 182.893L94.7518 182.936C94.7778 182.997 94.691 182.962 94.6562 182.893Z" fill="black"/>
<path d="M151.471 175.667L151.497 175.415L151.575 175.597C151.575 175.597 151.471 175.675 151.471 175.667Z" fill="black"/>
<path d="M151.376 182.286H151.445C151.419 182.39 151.402 182.381 151.376 182.286Z" fill="black"/>
<path d="M105.266 177.367L105.249 177.28C105.292 177.245 105.275 177.332 105.266 177.367Z" fill="black"/>
</g>
<defs>
<clipPath id="clip0_137_2563">
<rect width="250" height="250" fill="white"/>
</clipPath>
</defs>
</svg>
