<?xml version="1.0" standalone="no"?>
<!DOCTYPE svg PUBLIC "-//W3C//DTD SVG 20010904//EN"
 "http://www.w3.org/TR/2001/REC-SVG-20010904/DTD/svg10.dtd">
<svg version="1.0" xmlns="http://www.w3.org/2000/svg"
 width="500.000000pt" height="500.000000pt" viewBox="50 56 402 368"
 preserveAspectRatio="xMidYMid meet">
<metadata>
Created by potrace 1.16, written by Peter Selinger 2001-2019
</metadata>
<g transform="translate(0.000000,500.000000) scale(0.100000,-0.100000)"
fill="#000000" stroke="none">
<path d="M2455 4353 c-16 -2 -37 -6 -45 -9 -8 -3 -15 -4 -15 -3 0 1 -20 -10
-45 -25 -51 -31 -120 -102 -120 -123 0 -8 -7 -16 -15 -19 -8 -4 -15 -12 -15
-20 0 -8 -4 -14 -10 -14 -5 0 -10 -6 -10 -14 0 -17 -17 -51 -47 -93 -13 -17
-23 -35 -23 -41 0 -5 -7 -15 -15 -22 -8 -7 -15 -21 -15 -31 0 -11 -4 -19 -9
-19 -5 0 -15 -16 -22 -35 -7 -19 -17 -35 -21 -35 -4 0 -8 -6 -8 -14 0 -7 -10
-26 -22 -42 -13 -16 -23 -31 -22 -34 1 -3 -9 -21 -21 -40 -12 -19 -32 -55 -44
-80 -38 -73 -58 -109 -68 -122 -6 -7 -26 -42 -44 -78 -19 -36 -37 -67 -40 -70
-3 -3 -14 -23 -24 -45 -10 -22 -28 -53 -39 -70 -12 -16 -19 -30 -17 -30 3 0
-7 -18 -21 -40 -13 -22 -46 -80 -73 -130 -91 -169 -122 -224 -158 -282 -13
-21 -36 -64 -52 -96 -15 -31 -31 -60 -36 -63 -5 -3 -9 -14 -9 -25 0 -10 -3
-19 -8 -19 -4 0 -22 -28 -40 -62 -18 -35 -44 -81 -57 -103 -24 -39 -27 -45
-39 -75 -3 -8 -17 -33 -30 -55 -14 -22 -36 -60 -49 -85 -13 -25 -43 -81 -67
-125 -72 -131 -107 -196 -141 -265 -18 -36 -47 -87 -64 -115 -18 -27 -48 -79
-67 -115 -19 -36 -40 -74 -46 -85 -7 -11 -16 -31 -22 -45 -5 -14 -14 -32 -20
-40 -27 -42 -82 -169 -86 -200 -9 -68 -9 -102 -2 -106 5 -3 8 -16 8 -30 0 -13
5 -24 10 -24 6 0 10 -8 10 -17 0 -21 61 -93 78 -93 7 0 12 -4 12 -9 0 -13 85
-51 138 -61 40 -7 146 -11 267 -10 17 1 700 0 1520 0 1425 -2 1530 -1 1565 13
8 3 32 11 53 17 21 7 41 18 44 26 3 8 13 14 23 14 10 0 20 9 23 21 3 12 10 18
16 14 6 -3 16 4 21 17 6 13 19 38 30 56 11 18 20 42 20 55 0 12 2 46 4 75 2
28 1 52 -4 52 -4 0 -10 17 -13 38 -5 42 -38 122 -49 122 -5 0 -8 7 -8 15 0 14
-20 53 -61 120 -10 17 -23 40 -28 51 -5 12 -15 24 -21 26 -6 2 -12 10 -13 18
-2 13 -14 38 -62 127 -7 13 -15 20 -18 16 -4 -3 -7 4 -7 16 0 12 -4 19 -10 16
-5 -3 -10 -1 -10 4 0 20 -2 26 -21 64 -11 20 -24 37 -30 37 -6 0 -7 5 -3 12 4
6 -1 17 -11 25 -11 7 -15 13 -11 13 4 0 -4 15 -18 33 -15 19 -26 39 -26 45 0
7 -4 12 -9 12 -9 0 -24 38 -22 53 1 4 -6 10 -14 13 -8 4 -15 14 -15 24 0 11
-4 21 -9 24 -5 4 -19 26 -31 51 -13 26 -26 42 -32 38 -7 -3 -8 -1 -4 5 9 14
-48 115 -59 104 -4 -4 -5 -2 -1 5 4 7 -2 21 -14 33 -11 11 -20 25 -20 32 0 6
-8 20 -17 30 -9 10 -18 29 -20 41 -2 12 -10 25 -18 30 -8 4 -15 16 -15 26 0
10 -7 24 -15 31 -8 7 -12 16 -10 21 3 4 -4 13 -16 19 -11 7 -18 14 -15 17 3 3
-1 12 -9 20 -8 8 -15 23 -15 33 0 10 -5 22 -10 25 -6 4 -18 24 -27 46 -8 21
-21 39 -29 39 -7 0 -11 6 -8 13 2 7 -6 25 -19 39 -23 25 -37 50 -43 75 -1 7
-11 25 -22 40 -11 15 -32 51 -46 78 -15 28 -36 64 -47 80 -10 17 -24 40 -30
53 -7 12 -16 22 -21 22 -5 0 -6 5 -3 10 3 6 -1 13 -10 16 -9 4 -14 13 -11 20
3 7 -6 23 -19 36 -14 13 -25 31 -25 41 0 9 -4 17 -10 17 -5 0 -10 9 -10 19 0
10 -7 21 -15 25 -8 3 -15 14 -15 24 0 10 -9 28 -20 40 -11 12 -20 26 -20 32 0
5 -5 10 -12 10 -6 0 -9 3 -5 6 8 9 -21 64 -34 64 -6 0 -7 4 -4 10 3 5 -5 20
-17 33 -13 13 -22 29 -21 34 2 6 -2 17 -10 24 -7 8 -16 22 -20 32 -3 9 -11 17
-18 17 -6 0 -8 7 -5 15 3 9 -1 18 -9 21 -8 4 -15 15 -15 25 0 11 -7 22 -15 25
-8 4 -15 15 -15 25 0 11 -7 22 -15 25 -8 4 -15 15 -15 25 0 10 -4 19 -10 19
-5 0 -10 9 -10 20 0 11 -7 23 -15 26 -8 4 -15 14 -15 24 0 9 -11 28 -24 41
-13 13 -36 49 -51 79 -15 30 -38 69 -49 85 -12 17 -28 43 -36 58 -8 16 -28 40
-45 54 -16 13 -45 38 -63 54 -18 16 -40 29 -50 30 -18 1 -36 4 -68 11 -11 3
-32 3 -49 1z m100 -236 c19 -19 35 -39 35 -46 0 -6 3 -11 8 -11 4 0 12 -10 18
-23 34 -67 46 -87 55 -87 5 0 9 -6 9 -14 0 -7 9 -25 21 -40 11 -14 18 -26 15
-26 -3 0 30 -59 74 -131 44 -71 80 -132 80 -135 0 -3 16 -30 35 -60 19 -30 35
-56 35 -59 0 -2 18 -33 40 -67 22 -35 40 -69 40 -75 0 -7 4 -13 9 -13 5 0 12
-8 15 -17 7 -21 27 -55 43 -74 6 -8 20 -30 30 -49 94 -169 125 -222 133 -230
14 -14 100 -169 100 -180 0 -6 5 -10 10 -10 6 0 10 -4 10 -9 0 -6 32 -62 70
-127 39 -64 70 -121 70 -125 0 -5 4 -9 8 -9 4 0 28 -39 52 -87 25 -49 47 -90
51 -93 3 -3 9 -12 12 -20 4 -8 16 -28 27 -45 10 -16 30 -52 45 -80 33 -65 48
-88 60 -97 6 -4 10 -11 11 -15 1 -13 33 -76 59 -118 14 -22 28 -47 32 -55 3
-8 9 -17 12 -20 3 -3 14 -21 23 -40 10 -19 22 -42 27 -50 6 -8 28 -46 49 -85
22 -38 50 -88 62 -110 13 -22 36 -65 53 -95 16 -30 36 -62 43 -71 8 -8 14 -21
14 -28 0 -16 41 -93 55 -103 6 -4 6 -8 1 -8 -4 0 -1 -12 9 -26 9 -14 14 -28
12 -31 -3 -2 -1 -17 3 -33 6 -21 3 -39 -11 -68 -22 -43 -62 -66 -139 -78 -75
-12 -3107 -10 -3168 1 -53 11 -112 49 -112 73 0 7 -4 11 -8 8 -13 -8 -8 82 6
96 6 6 12 18 12 26 0 18 61 145 73 153 5 4 6 12 3 18 -4 6 -2 11 3 11 6 0 11
5 11 11 0 6 9 24 21 40 11 16 17 29 12 29 -4 0 -3 4 2 8 6 4 17 21 25 37 8 17
20 38 28 47 8 9 11 22 7 27 -3 6 -1 11 5 11 6 0 18 17 27 38 8 20 22 45 31 55
8 9 12 17 8 17 -4 0 4 17 18 37 14 20 23 40 20 45 -3 4 -1 8 5 8 5 0 20 21 33
48 13 26 25 49 28 52 3 3 19 32 35 65 16 33 37 71 46 85 37 55 59 102 54 111
-4 5 0 12 8 15 8 3 23 24 33 47 10 23 31 61 46 83 16 23 28 49 28 57 0 8 7 18
16 21 9 4 14 9 11 13 -4 3 3 19 14 34 11 16 18 29 14 29 -3 0 6 16 21 35 14
19 23 35 20 35 -4 0 2 13 13 29 12 16 21 34 21 40 0 6 4 11 8 11 4 0 29 43 56
95 26 52 52 97 57 100 5 4 9 15 9 25 0 10 6 23 13 27 15 9 47 69 47 88 0 7 7
15 15 19 8 3 15 15 15 26 0 11 3 20 8 20 10 0 65 100 55 100 -4 0 -3 4 3 8 12
7 44 58 66 102 7 14 20 36 30 49 10 13 15 27 12 32 -3 5 0 9 5 9 6 0 11 7 11
15 0 8 4 15 9 15 5 0 14 15 21 33 8 17 20 40 29 51 9 10 16 21 15 25 -1 3 9
22 21 41 52 85 74 128 68 134 -3 3 -1 6 5 6 11 0 72 105 72 126 0 6 7 15 16
18 9 3 14 13 11 20 -3 8 1 17 9 20 8 3 14 12 14 21 0 8 9 24 20 35 12 12 18
25 15 30 -4 6 1 13 9 16 9 3 16 12 16 20 0 8 9 23 20 34 12 12 18 25 16 29 -3
5 6 20 21 35 14 14 22 26 17 27 -5 0 1 4 14 10 15 5 21 13 16 21 -4 7 -4 10 1
6 4 -4 17 0 29 8 30 21 70 11 111 -29z"/>
<path d="M2382 3405 c-52 -24 -102 -76 -102 -105 0 -10 -5 -20 -11 -22 -6 -2
-11 -30 -12 -63 -1 -64 11 -254 17 -264 2 -3 7 -53 10 -111 4 -57 9 -114 12
-125 2 -11 6 -47 8 -80 2 -33 10 -116 16 -185 7 -69 14 -138 15 -155 27 -295
36 -352 62 -391 15 -23 85 -46 112 -37 32 12 82 55 77 68 -2 7 1 18 7 24 7 7
13 24 13 39 1 15 4 43 7 62 8 48 20 212 22 285 1 33 5 67 8 75 4 8 8 54 11
102 3 49 8 92 11 98 3 5 1 10 -6 10 -8 0 -8 4 -1 13 5 6 13 55 17 107 8 115
11 153 20 250 17 186 13 263 -18 333 -6 15 -18 27 -24 27 -7 0 -13 6 -13 14 0
21 -107 57 -163 55 -27 -1 -69 -12 -95 -24z"/>
<path d="M2475 1692 c-16 -1 -37 -6 -45 -9 -8 -3 -22 -7 -30 -9 -8 -2 -19 -9
-25 -17 -5 -8 -13 -14 -17 -13 -7 1 -35 -35 -56 -72 -18 -32 -23 -122 -10
-165 34 -111 174 -177 275 -131 44 20 93 62 93 80 0 6 7 15 16 18 9 3 14 12
11 19 -2 6 1 21 7 32 13 23 15 85 3 85 -5 0 -5 9 -2 20 4 12 2 20 -5 20 -7 0
-10 7 -6 15 3 8 1 15 -4 15 -6 0 -10 5 -10 11 0 16 -67 79 -97 90 -13 5 -29 6
-34 3 -6 -3 -15 -2 -22 3 -7 5 -25 7 -42 5z"/>
</g>
</svg>
